<svg xmlns="http://www.w3.org/2000/svg" xmlns:xlink="http://www.w3.org/1999/xlink" width="422.282" height="206.974" viewBox="0 0 422.282 206.974">
  <defs>
    <clipPath id="clip-path">
      <path id="Trazado_124024" data-name="Trazado 124024" d="M-422.772,145.128c5.173-1.386,9.891-5.461,13.431-11.009q10.248,2.459,20.494,4.919l2.711.651c-3.54,5.548-8.258,9.623-13.431,11.008l-23.2-5.569,23.2,5.57a13.428,13.428,0,0,1-6.667.153l-23.205-5.569A13.432,13.432,0,0,0-422.772,145.128Z" transform="translate(429.44 -134.119)" fill="none"/>
    </clipPath>
    <clipPath id="clip-path-2">
      <path id="Trazado_124039" data-name="Trazado 124039" d="M-400.6,135.731l-23.205-5.569a5.054,5.054,0,0,0,2.49-.112,7.442,7.442,0,0,0,4.915-4.406,23.736,23.736,0,0,0,1.638-9.624l23.206,5.569a23.733,23.733,0,0,1-1.639,9.624,7.442,7.442,0,0,1-4.915,4.406A5.054,5.054,0,0,1-400.6,135.731Z" transform="translate(423.802 -116.02)" fill="none"/>
    </clipPath>
    <clipPath id="clip-path-3">
      <path id="Trazado_124043" data-name="Trazado 124043" d="M-413.757,109.352q-.015-5.921-1.625-8.457l23.205,5.569q1.609,2.543,1.625,8.457Z" transform="translate(415.382 -100.895)" fill="none"/>
    </clipPath>
    <clipPath id="clip-path-4">
      <path id="Trazado_124057" data-name="Trazado 124057" d="M-398.973,132.169l-23.205-5.569a2.17,2.17,0,0,0,1.068-.043,3.63,3.63,0,0,0,2.384-2.443,17.6,17.6,0,0,0,.822-5.829l23.205,5.57a17.6,17.6,0,0,1-.822,5.829,3.632,3.632,0,0,1-2.384,2.443A2.169,2.169,0,0,1-398.973,132.169Z" transform="translate(422.178 -118.284)" fill="none"/>
    </clipPath>
    <clipPath id="clip-path-5">
      <path id="Trazado_124059" data-name="Trazado 124059" d="M-415.692,100.66a3.767,3.767,0,0,0-2.334-1.769l23.205,5.569a3.767,3.767,0,0,1,2.334,1.769l-11.6-2.785-7.472-1.793-1.42-.341C-413.794,101.116-415.012,101.148-415.692,100.66Z" transform="translate(418.026 -98.892)" fill="none"/>
    </clipPath>
    <clipPath id="clip-path-6">
      <path id="Trazado_124062" data-name="Trazado 124062" d="M-419.665,103.264l23.206,5.569a2,2,0,0,1,1.324,1.248,14.416,14.416,0,0,1,.751,5.619l-23.205-5.569a14.415,14.415,0,0,0-.751-5.619A2,2,0,0,0-419.665,103.264Z" transform="translate(419.665 -103.264)" fill="none"/>
    </clipPath>
    <clipPath id="clip-path-7">
      <path id="Trazado_124065" data-name="Trazado 124065" d="M-399.258,132.341l-23.205-5.569a2.125,2.125,0,0,1-1.384-1.337,14.975,14.975,0,0,1-.762-5.681l23.205,5.569a14.953,14.953,0,0,0,.763,5.681A2.122,2.122,0,0,0-399.258,132.341Z" transform="translate(424.609 -119.754)" fill="none"/>
    </clipPath>
    <clipPath id="clip-path-8">
      <path id="Trazado_124070" data-name="Trazado 124070" d="M-420.915,103.3a2.231,2.231,0,0,1,1.1-.046l23.205,5.569a2.231,2.231,0,0,0-1.1.046Z" transform="translate(420.915 -103.208)" fill="none"/>
    </clipPath>
    <clipPath id="clip-path-9">
      <path id="Trazado_124078" data-name="Trazado 124078" d="M-423.641,105.717a3.611,3.611,0,0,1,2.407-2.4l23.205,5.569a3.61,3.61,0,0,0-2.407,2.4Z" transform="translate(423.641 -103.316)" fill="none"/>
    </clipPath>
    <clipPath id="clip-path-10">
      <path id="Trazado_124084" data-name="Trazado 124084" d="M-424.585,111.737a16.921,16.921,0,0,1,.833-5.7l23.205,5.569a16.921,16.921,0,0,0-.833,5.7Z" transform="translate(424.585 -106.035)" fill="none"/>
    </clipPath>
    <clipPath id="clip-path-11">
      <path id="Trazado_124087" data-name="Trazado 124087" d="M-401.132,136.239l-23.205-5.57a3.834,3.834,0,0,1-2.372-1.817q-1.628-2.588-1.66-8.5l23.205,5.569q.033,5.916,1.66,8.5A3.834,3.834,0,0,0-401.132,136.239Z" transform="translate(428.368 -120.356)" fill="none"/>
    </clipPath>
    <clipPath id="clip-path-12">
      <path id="Trazado_124103" data-name="Trazado 124103" d="M-419.235,98.877l23.205,5.569a5.14,5.14,0,0,0-2.538.116,7.431,7.431,0,0,0-4.927,4.36,23.235,23.235,0,0,0-1.65,9.578l-23.205-5.569a23.238,23.238,0,0,1,1.65-9.578,7.429,7.429,0,0,1,4.927-4.36A5.15,5.15,0,0,1-419.235,98.877Z" transform="translate(428.35 -98.768)" fill="none"/>
    </clipPath>
    <clipPath id="clip-path-13">
      <path id="Trazado_124132" data-name="Trazado 124132" d="M-482.159,196.982l-23.205-5.569a14.631,14.631,0,0,0,7.254-.16,21.918,21.918,0,0,0,9-5.192l23.205,5.569a21.931,21.931,0,0,1-9,5.192A14.634,14.634,0,0,1-482.159,196.982Z" transform="translate(505.364 -186.06)" fill="none"/>
    </clipPath>
    <clipPath id="clip-path-14">
      <path id="Trazado_124134" data-name="Trazado 124134" d="M-482.387,197.621l-23.205-5.57a13.736,13.736,0,0,1-1.722-.534l23.205,5.569A13.792,13.792,0,0,0-482.387,197.621Z" transform="translate(507.314 -191.517)" fill="none"/>
    </clipPath>
  </defs>
  <g id="Grupo_57177" data-name="Grupo 57177" transform="translate(0.5)">
    <g id="Grupo_57170" data-name="Grupo 57170" transform="translate(0 1.451)">
      <g id="Grupo_57169" data-name="Grupo 57169" style="isolation: isolate">
        <g id="Grupo_57102" data-name="Grupo 57102" transform="translate(153.761 24.651)">
          <path id="Trazado_124016" data-name="Trazado 124016" d="M-390.354,120.94l-23.205-5.569.016-4.9,23.205,5.569Z" transform="translate(413.56 -110.473)" fill="#900"/>
        </g>
        <g id="Grupo_57105" data-name="Grupo 57105" transform="translate(139.74 45.529)" style="isolation: isolate">
          <g id="Grupo_57104" data-name="Grupo 57104" clip-path="url(#clip-path)">
            <g id="Grupo_57103" data-name="Grupo 57103" style="isolation: isolate">
              <path id="Trazado_124017" data-name="Trazado 124017" d="M-406.235,152.33l-23.205-5.569a12.432,12.432,0,0,0,1.4.253l23.205,5.569a12.635,12.635,0,0,1-1.4-.253" transform="translate(429.44 -135.599)" fill="#999"/>
              <path id="Trazado_124018" data-name="Trazado 124018" d="M-404.655,152.617l-23.205-5.569a12.994,12.994,0,0,0,2.13.085l23.206,5.569a13.007,13.007,0,0,1-2.13-.085" transform="translate(429.255 -135.633)" fill="#9e9e9e"/>
              <path id="Trazado_124019" data-name="Trazado 124019" d="M-402.242,152.672l-23.206-5.569a14.219,14.219,0,0,0,2.362-.3l23.205,5.569a14.221,14.221,0,0,1-2.361.3" transform="translate(428.973 -135.604)" fill="#a3a3a3"/>
              <path id="Trazado_124020" data-name="Trazado 124020" d="M-399.568,152.252l-23.205-5.569q.389-.082.781-.187a16.684,16.684,0,0,0,2.047-.7l23.205,5.569a16.486,16.486,0,0,1-2.047.7q-.392.106-.781.188" transform="translate(428.659 -135.486)" fill="#a8a8a8"/>
              <path id="Trazado_124021" data-name="Trazado 124021" d="M-396.365,151.048l-23.205-5.569a19.937,19.937,0,0,0,4.227-2.42l23.205,5.57a19.938,19.938,0,0,1-4.227,2.42" transform="translate(428.284 -135.166)" fill="#adadad"/>
              <path id="Trazado_124022" data-name="Trazado 124022" d="M-391.577,147.932l-23.205-5.57a27.59,27.59,0,0,0,5.29-5.243l23.205,5.569a27.6,27.6,0,0,1-5.29,5.244" transform="translate(427.724 -134.47)" fill="#b3b3b3"/>
              <path id="Trazado_124023" data-name="Trazado 124023" d="M-385.586,142.337l-23.205-5.569q.979-1.258,1.867-2.65l23.205,5.57q-.886,1.389-1.867,2.649" transform="translate(427.023 -134.119)" fill="#adadad"/>
            </g>
          </g>
        </g>
        <g id="Grupo_57108" data-name="Grupo 57108" transform="translate(144.718 29.549)" style="isolation: isolate">
          <g id="Grupo_57107" data-name="Grupo 57107" clip-path="url(#clip-path-2)">
            <g id="Grupo_57106" data-name="Grupo 57106" style="isolation: isolate">
              <path id="Trazado_124025" data-name="Trazado 124025" d="M-400.6,137.607l-23.205-5.57a3.861,3.861,0,0,0,.424.077l23.205,5.57a4.084,4.084,0,0,1-.424-.077" transform="translate(423.802 -117.895)" fill="#900"/>
              <path id="Trazado_124026" data-name="Trazado 124026" d="M-400.117,137.693l-23.205-5.57a4.5,4.5,0,0,0,.729.027l23.205,5.569a4.5,4.5,0,0,1-.729-.026" transform="translate(423.746 -117.905)" fill="#9e0000"/>
              <path id="Trazado_124027" data-name="Trazado 124027" d="M-399.291,137.707l-23.205-5.569a5.865,5.865,0,0,0,.967-.127l23.205,5.57a5.77,5.77,0,0,1-.967.126" transform="translate(423.649 -117.892)" fill="#a30000"/>
              <path id="Trazado_124028" data-name="Trazado 124028" d="M-398.2,137.528l-23.205-5.57c.122-.026.245-.056.37-.089a7.414,7.414,0,0,0,.911-.308l23.205,5.569a7.407,7.407,0,0,1-.911.308c-.125.034-.248.063-.37.089" transform="translate(423.521 -117.839)" fill="#a80000"/>
              <path id="Trazado_124029" data-name="Trazado 124029" d="M-396.745,137.022l-23.205-5.569a6.8,6.8,0,0,0,1.454-.818l23.205,5.569a6.852,6.852,0,0,1-1.454.818" transform="translate(423.351 -117.731)" fill="#ad0000"/>
              <path id="Trazado_124030" data-name="Trazado 124030" d="M-395.1,136.018l-23.205-5.569a7.3,7.3,0,0,0,1.423-1.4l23.205,5.569a7.279,7.279,0,0,1-1.423,1.4" transform="translate(423.158 -117.545)" fill="#b30000"/>
              <path id="Trazado_124031" data-name="Trazado 124031" d="M-393.486,134.451l-23.205-5.569a9.193,9.193,0,0,0,.818-1.263l23.205,5.569a9.09,9.09,0,0,1-.818,1.263" transform="translate(422.97 -117.378)" fill="#ad0000"/>
              <path id="Trazado_124032" data-name="Trazado 124032" d="M-392.559,133.058l-23.205-5.569q.162-.3.308-.617c.055-.119.108-.24.159-.364l23.205,5.569q-.077.185-.159.364-.147.319-.308.616" transform="translate(422.861 -117.248)" fill="#a80000"/>
              <path id="Trazado_124033" data-name="Trazado 124033" d="M-392.03,131.936l-23.205-5.569c.142-.338.274-.694.4-1.065l23.205,5.569q-.183.558-.4,1.066" transform="translate(422.799 -117.107)" fill="#a30000"/>
              <path id="Trazado_124034" data-name="Trazado 124034" d="M-391.582,130.71l-23.205-5.569q.189-.579.345-1.21l23.205,5.569q-.156.632-.345,1.209" transform="translate(422.747 -116.946)" fill="#9e0000"/>
              <path id="Trazado_124035" data-name="Trazado 124035" d="M-391.191,129.3l-23.205-5.57q.176-.709.31-1.486l23.205,5.57q-.134.777-.31,1.486" transform="translate(422.701 -116.749)" fill="#900"/>
              <path id="Trazado_124036" data-name="Trazado 124036" d="M-390.84,127.552l-23.205-5.57q.164-.955.267-2.011l23.205,5.569q-.1,1.057-.267,2.011" transform="translate(422.66 -116.483)" fill="#940000"/>
              <path id="Trazado_124037" data-name="Trazado 124037" d="M-390.538,125.126l-23.205-5.569q.14-1.463.159-3.124L-390.378,122q-.02,1.661-.16,3.124" transform="translate(422.624 -116.068)" fill="#8f0000"/>
              <path id="Trazado_124038" data-name="Trazado 124038" d="M-390.357,121.954l-23.206-5.57c0-.121,0-.243,0-.365l23.206,5.569c0,.122,0,.244,0,.365" transform="translate(422.603 -116.02)" fill="#8a0000"/>
            </g>
          </g>
        </g>
        <g id="Grupo_57109" data-name="Grupo 57109" transform="translate(150.426 25.154)">
          <path id="Trazado_124040" data-name="Trazado 124040" d="M-394.132,123.005l-23.205-5.569.021-6.394,23.205,5.569Z" transform="translate(417.337 -111.042)" fill="#999"/>
        </g>
        <g id="Grupo_57112" data-name="Grupo 57112" transform="translate(152.152 16.195)" style="isolation: isolate">
          <g id="Grupo_57111" data-name="Grupo 57111" clip-path="url(#clip-path-3)">
            <g id="Grupo_57110" data-name="Grupo 57110" transform="translate(-2.334 -1.768)" style="isolation: isolate">
              <path id="Trazado_124041" data-name="Trazado 124041" d="M-390.355,115.625l-23.206-5.569q0-1.719-.143-3.151l23.205,5.569q.139,1.433.144,3.151" transform="translate(417.52 -99.83)" fill="#8a0000"/>
              <path id="Trazado_124042" data-name="Trazado 124042" d="M-391,111.535l-23.205-5.569a12.292,12.292,0,0,0-1.482-5.305,3.767,3.767,0,0,0-2.334-1.769l23.205,5.569a3.767,3.767,0,0,1,2.334,1.769A12.28,12.28,0,0,1-391,111.535" transform="translate(418.026 -98.892)" fill="#850000"/>
            </g>
          </g>
        </g>
        <g id="Grupo_57115" data-name="Grupo 57115" transform="translate(146.152 31.548)" style="isolation: isolate">
          <g id="Grupo_57114" data-name="Grupo 57114" clip-path="url(#clip-path-4)">
            <g id="Grupo_57113" data-name="Grupo 57113" style="isolation: isolate">
              <path id="Trazado_124044" data-name="Trazado 124044" d="M-398.973,133.271l-23.205-5.569a1.705,1.705,0,0,0,.192.034l23.205,5.569a1.7,1.7,0,0,1-.192-.034" transform="translate(422.178 -119.387)" fill="#999"/>
              <path id="Trazado_124045" data-name="Trazado 124045" d="M-398.756,133.31l-23.205-5.569a1.892,1.892,0,0,0,.319.011l23.205,5.569a1.894,1.894,0,0,1-.319-.011" transform="translate(422.153 -119.391)" fill="#9e9e9e"/>
              <path id="Trazado_124046" data-name="Trazado 124046" d="M-398.395,133.316l-23.205-5.569a2.407,2.407,0,0,0,.406-.053l23.205,5.569a2.408,2.408,0,0,1-.406.053" transform="translate(422.11 -119.386)" fill="#a3a3a3"/>
              <path id="Trazado_124047" data-name="Trazado 124047" d="M-397.935,133.242l-23.205-5.569c.05-.011.1-.023.152-.036a2.977,2.977,0,0,0,.375-.127l23.205,5.569a3.293,3.293,0,0,1-.375.127c-.051.013-.1.026-.152.036" transform="translate(422.056 -119.364)" fill="#a8a8a8"/>
              <path id="Trazado_124048" data-name="Trazado 124048" d="M-397.338,133.031l-23.205-5.57a2.991,2.991,0,0,0,.631-.357l23.205,5.569a2.936,2.936,0,0,1-.631.358" transform="translate(421.987 -119.317)" fill="#adadad"/>
              <path id="Trazado_124049" data-name="Trazado 124049" d="M-396.623,132.588l-23.205-5.569a3.4,3.4,0,0,0,.655-.645l23.205,5.569a3.328,3.328,0,0,1-.655.645" transform="translate(421.903 -119.231)" fill="#b3b3b3"/>
              <path id="Trazado_124050" data-name="Trazado 124050" d="M-395.881,131.859l-23.205-5.569a4.439,4.439,0,0,0,.408-.63l23.206,5.569a4.507,4.507,0,0,1-.409.629" transform="translate(421.816 -119.148)" fill="#adadad"/>
              <path id="Trazado_124051" data-name="Trazado 124051" d="M-395.418,131.162l-23.206-5.569a5.514,5.514,0,0,0,.246-.517l23.206,5.569q-.115.274-.246.517" transform="translate(421.762 -119.079)" fill="#a8a8a8"/>
              <path id="Trazado_124052" data-name="Trazado 124052" d="M-395.139,130.574-418.345,125c.023-.055.046-.11.068-.167q.068-.176.13-.366l23.205,5.569q-.062.189-.13.366c-.022.057-.044.112-.067.167" transform="translate(421.729 -119.008)" fill="#a3a3a3"/>
              <path id="Trazado_124053" data-name="Trazado 124053" d="M-394.916,129.952l-23.205-5.569c.069-.213.133-.438.192-.678l23.206,5.569q-.09.359-.193.678" transform="translate(421.703 -118.919)" fill="#9e9e9e"/>
              <path id="Trazado_124054" data-name="Trazado 124054" d="M-394.7,129.151l-23.206-5.569q.107-.43.192-.92l23.205,5.569q-.085.49-.191.921" transform="translate(421.678 -118.797)" fill="#999"/>
              <path id="Trazado_124055" data-name="Trazado 124055" d="M-394.481,128.046l-23.205-5.569q.111-.646.184-1.394l23.205,5.569q-.072.748-.184,1.393" transform="translate(421.652 -118.612)" fill="#949494"/>
              <path id="Trazado_124056" data-name="Trazado 124056" d="M-394.273,126.325l-23.205-5.569q.107-1.12.125-2.471l23.205,5.57q-.016,1.35-.125,2.471" transform="translate(421.628 -118.284)" fill="#8f8f8f"/>
            </g>
          </g>
        </g>
        <g id="Grupo_57118" data-name="Grupo 57118" transform="translate(149.817 14.426)" style="isolation: isolate">
          <g id="Grupo_57117" data-name="Grupo 57117" clip-path="url(#clip-path-5)">
            <g id="Grupo_57116" data-name="Grupo 57116" style="isolation: isolate">
              <path id="Trazado_124058" data-name="Trazado 124058" d="M-391,111.535l-23.205-5.569a12.292,12.292,0,0,0-1.482-5.305,3.767,3.767,0,0,0-2.334-1.769l23.205,5.569a3.767,3.767,0,0,1,2.334,1.769A12.28,12.28,0,0,1-391,111.535" transform="translate(418.026 -98.892)" fill="#850000"/>
            </g>
          </g>
        </g>
        <g id="Grupo_57121" data-name="Grupo 57121" transform="translate(148.37 18.286)" style="isolation: isolate">
          <g id="Grupo_57120" data-name="Grupo 57120" clip-path="url(#clip-path-6)">
            <g id="Grupo_57119" data-name="Grupo 57119" style="isolation: isolate">
              <path id="Trazado_124060" data-name="Trazado 124060" d="M-394.123,116.24l-23.205-5.57q0-1.587-.112-2.8l23.205,5.569q.118,1.213.112,2.8" transform="translate(419.405 -103.803)" fill="#8a8a8a"/>
              <path id="Trazado_124061" data-name="Trazado 124061" d="M-394.5,112.9l-23.205-5.569a8.9,8.9,0,0,0-.639-2.82,2,2,0,0,0-1.325-1.248l23.206,5.569a2,2,0,0,1,1.324,1.248,8.9,8.9,0,0,1,.639,2.82" transform="translate(419.665 -103.264)" fill="#858585"/>
            </g>
          </g>
        </g>
        <g id="Grupo_57124" data-name="Grupo 57124" transform="translate(144.005 32.846)" style="isolation: isolate">
          <g id="Grupo_57123" data-name="Grupo 57123" clip-path="url(#clip-path-7)">
            <g id="Grupo_57122" data-name="Grupo 57122" transform="translate(0)" style="isolation: isolate">
              <path id="Trazado_124063" data-name="Trazado 124063" d="M-399.243,132.707l-23.205-5.569a2.125,2.125,0,0,1-1.384-1.337,9.679,9.679,0,0,1-.649-2.917l23.205,5.569a9.648,9.648,0,0,0,.65,2.917,2.122,2.122,0,0,0,1.384,1.337" transform="translate(424.594 -120.12)" fill="#850000"/>
              <path id="Trazado_124064" data-name="Trazado 124064" d="M-401.291,128.087l-23.205-5.569q-.118-1.21-.113-2.764l23.205,5.569q0,1.552.113,2.764" transform="translate(424.609 -119.754)" fill="#8a0000"/>
            </g>
          </g>
        </g>
        <g id="Grupo_57127" data-name="Grupo 57127" transform="translate(147.267 18.237)" style="isolation: isolate">
          <g id="Grupo_57126" data-name="Grupo 57126" clip-path="url(#clip-path-8)">
            <g id="Grupo_57125" data-name="Grupo 57125" transform="translate(0 0)" style="isolation: isolate">
              <path id="Trazado_124066" data-name="Trazado 124066" d="M-397.71,108.88l-23.205-5.569c.054-.014.107-.026.159-.038l23.205,5.569c-.052.011-.105.024-.159.038" transform="translate(420.915 -103.216)" fill="#a80000"/>
              <path id="Trazado_124067" data-name="Trazado 124067" d="M-397.53,108.835l-23.205-5.569a2.636,2.636,0,0,1,.424-.056l23.205,5.569a2.54,2.54,0,0,0-.424.056" transform="translate(420.894 -103.208)" fill="#a30000"/>
              <path id="Trazado_124068" data-name="Trazado 124068" d="M-397.05,108.779l-23.205-5.569a2,2,0,0,1,.328.012l23.205,5.569a2,2,0,0,0-.328-.012" transform="translate(420.838 -103.208)" fill="#9e0000"/>
              <path id="Trazado_124069" data-name="Trazado 124069" d="M-396.679,108.793l-23.205-5.569a1.7,1.7,0,0,1,.193.035l23.206,5.569a1.571,1.571,0,0,0-.194-.035" transform="translate(420.794 -103.21)" fill="#900"/>
            </g>
          </g>
        </g>
        <g id="Grupo_57128" data-name="Grupo 57128" transform="translate(144.005 26.435)">
          <path id="Trazado_124071" data-name="Trazado 124071" d="M-401.4,124.473l-23.205-5.569.021-6.411,23.205,5.569Z" transform="translate(424.609 -112.493)" fill="#900"/>
        </g>
        <g id="Grupo_57131" data-name="Grupo 57131" transform="translate(144.86 18.332)" style="isolation: isolate">
          <g id="Grupo_57130" data-name="Grupo 57130" clip-path="url(#clip-path-9)">
            <g id="Grupo_57129" data-name="Grupo 57129" transform="translate(-0.155)" style="isolation: isolate">
              <path id="Trazado_124072" data-name="Trazado 124072" d="M-400.612,112.015l-23.205-5.569c.049-.15.1-.293.155-.43.019-.049.039-.1.059-.146l23.205,5.569c-.02.048-.04.1-.059.146-.055.137-.106.28-.155.43" transform="translate(423.817 -103.615)" fill="#a30000"/>
              <path id="Trazado_124073" data-name="Trazado 124073" d="M-400.369,111.375l-23.205-5.569a5.31,5.31,0,0,1,.232-.488l23.205,5.569c-.083.154-.16.316-.232.488" transform="translate(423.789 -103.55)" fill="#a80000"/>
              <path id="Trazado_124074" data-name="Trazado 124074" d="M-400.106,110.805l-23.205-5.569a4.464,4.464,0,0,1,.4-.611l23.205,5.569a4.463,4.463,0,0,0-.4.611" transform="translate(423.758 -103.469)" fill="#ad0000"/>
              <path id="Trazado_124075" data-name="Trazado 124075" d="M-399.657,110.109l-23.205-5.569a3.434,3.434,0,0,1,.66-.647L-399,109.461a3.439,3.439,0,0,0-.66.648" transform="translate(423.705 -103.383)" fill="#b30000"/>
              <path id="Trazado_124076" data-name="Trazado 124076" d="M-398.91,109.411l-23.205-5.569a3.048,3.048,0,0,1,.659-.373l23.206,5.569a3.067,3.067,0,0,0-.66.372" transform="translate(423.618 -103.334)" fill="#ad0000"/>
              <path id="Trazado_124077" data-name="Trazado 124077" d="M-398.163,109.021l-23.206-5.569a3.145,3.145,0,0,1,.4-.136l23.205,5.569a3.133,3.133,0,0,0-.4.136" transform="translate(423.53 -103.316)" fill="#a80000"/>
            </g>
          </g>
        </g>
        <g id="Grupo_57134" data-name="Grupo 57134" transform="translate(144.026 20.733)" style="isolation: isolate">
          <g id="Grupo_57133" data-name="Grupo 57133" clip-path="url(#clip-path-10)">
            <g id="Grupo_57132" data-name="Grupo 57132" transform="translate(0 -0.146)" style="isolation: isolate">
              <path id="Trazado_124079" data-name="Trazado 124079" d="M-401.38,117.751l-23.205-5.57q.021-1.279.124-2.349l23.206,5.569q-.1,1.069-.125,2.349" transform="translate(424.585 -106.334)" fill="#8f0000"/>
              <path id="Trazado_124080" data-name="Trazado 124080" d="M-401.239,115.221l-23.206-5.569c.048-.488.107-.943.18-1.367l23.205,5.569q-.11.634-.179,1.367" transform="translate(424.569 -106.153)" fill="#940000"/>
              <path id="Trazado_124081" data-name="Trazado 124081" d="M-401.036,113.736l-23.205-5.569c.055-.316.117-.615.186-.9l23.205,5.569q-.1.421-.186.9" transform="translate(424.545 -106.034)" fill="#900"/>
              <path id="Trazado_124082" data-name="Trazado 124082" d="M-400.825,112.752l-23.205-5.569q.086-.35.188-.661l23.205,5.569c-.068.207-.131.428-.188.66" transform="translate(424.52 -105.946)" fill="#9e0000"/>
              <path id="Trazado_124083" data-name="Trazado 124083" d="M-400.612,112.015l-23.205-5.569c.049-.15.1-.293.155-.43.019-.049.039-.1.059-.146l23.205,5.569c-.02.048-.04.1-.059.146-.055.137-.106.28-.155.43" transform="translate(424.495 -105.87)" fill="#a30000"/>
            </g>
          </g>
        </g>
        <g id="Grupo_57137" data-name="Grupo 57137" transform="translate(140.686 33.377)" style="isolation: isolate">
          <g id="Grupo_57136" data-name="Grupo 57136" clip-path="url(#clip-path-11)">
            <g id="Grupo_57135" data-name="Grupo 57135" style="isolation: isolate">
              <path id="Trazado_124085" data-name="Trazado 124085" d="M-401.112,136.646l-23.205-5.569a3.835,3.835,0,0,1-2.372-1.817,12.642,12.642,0,0,1-1.515-5.428L-405,129.4a12.633,12.633,0,0,0,1.514,5.428,3.834,3.834,0,0,0,2.372,1.817" transform="translate(428.349 -120.763)" fill="#858585"/>
              <path id="Trazado_124086" data-name="Trazado 124086" d="M-405.017,128.994l-23.206-5.57q-.135-1.4-.145-3.068l23.205,5.569q.009,1.667.146,3.068" transform="translate(428.368 -120.356)" fill="#8a8a8a"/>
            </g>
          </g>
        </g>
        <g id="Grupo_57138" data-name="Grupo 57138" transform="translate(140.687 28.48)">
          <path id="Trazado_124088" data-name="Trazado 124088" d="M-405.163,125.276l-23.205-5.569.016-4.9,23.205,5.569Z" transform="translate(428.368 -114.809)" fill="#999"/>
        </g>
        <g id="Grupo_57141" data-name="Grupo 57141" transform="translate(140.702 14.317)" style="isolation: isolate">
          <g id="Grupo_57140" data-name="Grupo 57140" clip-path="url(#clip-path-12)">
            <g id="Grupo_57139" data-name="Grupo 57139" transform="translate(0 0)" style="isolation: isolate">
              <path id="Trazado_124089" data-name="Trazado 124089" d="M-405.145,120.33l-23.205-5.569,0-.362,23.205,5.569c0,.12,0,.24,0,.362" transform="translate(428.35 -100.598)" fill="#8a8a8a"/>
              <path id="Trazado_124090" data-name="Trazado 124090" d="M-405.142,119.558l-23.205-5.569q.019-1.645.159-3.1l23.205,5.569q-.14,1.453-.159,3.1" transform="translate(428.35 -100.187)" fill="#8f8f8f"/>
              <path id="Trazado_124091" data-name="Trazado 124091" d="M-404.962,116.2l-23.205-5.569q.1-1.044.263-1.988l23.205,5.569q-.163.944-.263,1.988" transform="translate(428.329 -99.923)" fill="#949494"/>
              <path id="Trazado_124092" data-name="Trazado 124092" d="M-404.664,114.014l-23.205-5.569q.131-.764.3-1.462l23.205,5.569q-.172.7-.3,1.463" transform="translate(428.294 -99.729)" fill="#999"/>
              <path id="Trazado_124093" data-name="Trazado 124093" d="M-404.319,112.394l-23.205-5.569q.154-.618.338-1.185l23.205,5.569c-.123.377-.236.773-.338,1.184" transform="translate(428.253 -99.572)" fill="#9e9e9e"/>
              <path id="Trazado_124094" data-name="Trazado 124094" d="M-403.936,111.072l-23.205-5.569q.179-.543.386-1.037l23.205,5.569q-.208.494-.386,1.037" transform="translate(428.208 -99.435)" fill="#a3a3a3"/>
              <path id="Trazado_124095" data-name="Trazado 124095" d="M-403.5,109.9l-23.205-5.569q.1-.228.2-.445c.092-.2.189-.393.29-.579l23.205,5.569c-.1.186-.2.38-.29.579q-.1.217-.2.445" transform="translate(428.157 -99.299)" fill="#a8a8a8"/>
              <path id="Trazado_124096" data-name="Trazado 124096" d="M-402.948,108.71l-23.205-5.569a8.879,8.879,0,0,1,.805-1.241l23.205,5.569a8.959,8.959,0,0,0-.805,1.241" transform="translate(428.093 -99.134)" fill="#adadad"/>
              <path id="Trazado_124097" data-name="Trazado 124097" d="M-402.036,107.284l-23.205-5.569a7.282,7.282,0,0,1,1.415-1.389l23.205,5.569a7.313,7.313,0,0,0-1.415,1.39" transform="translate(427.986 -98.95)" fill="#b3b3b3"/>
              <path id="Trazado_124098" data-name="Trazado 124098" d="M-400.433,105.784l-23.205-5.569a6.918,6.918,0,0,1,1.482-.835l23.205,5.569a6.916,6.916,0,0,0-1.482.834" transform="translate(427.798 -98.839)" fill="#adadad"/>
              <path id="Trazado_124099" data-name="Trazado 124099" d="M-398.754,104.9l-23.205-5.569a7.584,7.584,0,0,1,.934-.315c.127-.034.253-.064.377-.091l23.206,5.569c-.124.026-.25.057-.378.092a7.583,7.583,0,0,0-.934.315" transform="translate(427.602 -98.786)" fill="#a8a8a8"/>
              <path id="Trazado_124100" data-name="Trazado 124100" d="M-397.268,104.471-420.474,98.9a5.955,5.955,0,0,1,.989-.13l23.205,5.569a5.934,5.934,0,0,0-.988.13" transform="translate(427.428 -98.768)" fill="#a3a3a3"/>
              <path id="Trazado_124101" data-name="Trazado 124101" d="M-396.149,104.341l-23.205-5.569a4.453,4.453,0,0,1,.742.027l23.205,5.57a4.546,4.546,0,0,0-.742-.028" transform="translate(427.297 -98.768)" fill="#9e9e9e"/>
              <path id="Trazado_124102" data-name="Trazado 124102" d="M-395.309,104.373-418.514,98.8a3.988,3.988,0,0,1,.431.078l23.205,5.569a3.754,3.754,0,0,0-.431-.078" transform="translate(427.198 -98.772)" fill="#999"/>
            </g>
          </g>
        </g>
        <g id="Grupo_57142" data-name="Grupo 57142" transform="translate(163.891 19.886)">
          <path id="Trazado_124104" data-name="Trazado 124104" d="M-390.62,106.954q1.609,2.543,1.625,8.457l-.016,4.9a23.733,23.733,0,0,1-1.639,9.624,7.442,7.442,0,0,1-4.915,4.406c-2.16.578-3.776.02-4.861-1.7s-1.638-4.552-1.66-8.5l.016-4.9a23.235,23.235,0,0,1,1.65-9.578,7.431,7.431,0,0,1,4.927-4.36Q-392.219,104.423-390.62,106.954Zm-1.726,15.353.021-6.394a14.416,14.416,0,0,0-.751-5.619,1.89,1.89,0,0,0-2.429-1.2,3.61,3.61,0,0,0-2.407,2.4,16.921,16.921,0,0,0-.833,5.7l-.021,6.411a14.953,14.953,0,0,0,.763,5.681,1.928,1.928,0,0,0,2.452,1.293,3.632,3.632,0,0,0,2.384-2.443,17.6,17.6,0,0,0,.822-5.829" transform="translate(402.086 -105.076)" fill="#dfdfdf"/>
        </g>
        <path id="Uni贸n_8" data-name="Uni贸n 8" d="M6106.06,7185.346a14.108,14.108,0,0,1-7.547-4.912c-.023-.029-.049-.058-.072-.088a.445.445,0,0,1-.029-.036c-.015-.016-.029-.034-.043-.052l-.034-.042-.036-.047-.038-.047c-.011-.012-.02-.025-.031-.038s-.029-.036-.042-.054a.035.035,0,0,1-.005-.007c-.04-.049-.078-.1-.117-.15,0,0-.005-.007-.007-.011l-.054-.07-.014-.02c-.016-.023-.034-.047-.052-.07a.128.128,0,0,0-.013-.014,20.794,20.794,0,0,1-1.619-2.559v0q-.13-.243-.256-.493a.013.013,0,0,1,0-.009l-.045-.088a.154.154,0,0,1-.011-.022c-.013-.027-.027-.056-.042-.084l-.011-.02c-.045-.092-.088-.184-.131-.276l-.011-.02c-.013-.025-.024-.051-.036-.076l-.018-.04-.033-.07-.021-.047c-.011-.021-.022-.045-.031-.067s-.016-.036-.025-.052-.018-.042-.027-.062c-.017-.036-.033-.072-.049-.11a.43.43,0,0,0-.02-.043c-.011-.027-.021-.05-.034-.078s-.013-.029-.02-.045l-.032-.078a.43.43,0,0,0-.02-.043c-.011-.027-.023-.056-.036-.083a.2.2,0,0,0-.014-.036c-.017-.038-.033-.078-.049-.115,0,0,0,0,0-.005-.018-.042-.036-.087-.054-.13,0,0,0,0,0,0-.017-.04-.033-.081-.049-.123a.059.059,0,0,1-.007-.016c-.016-.038-.031-.076-.045-.114a.026.026,0,0,1-.005-.015,32.7,32.7,0,0,1-2.13-12v-.182c0-.415.011-.828.023-1.243,0-.023,0-.049,0-.072v-.007q.029-.864.1-1.724.07-.918.181-1.83c0-.006,0-.013,0-.018,0-.022,0-.043.007-.063s0-.04.007-.06a.123.123,0,0,1,0-.025c0-.029.007-.058.011-.087v-.005q.073-.576.163-1.149.092-.593.2-1.184c0-.014.005-.027.007-.04.009-.045.016-.088.025-.132s.014-.085.023-.126c0-.014.005-.031.009-.047.009-.052.02-.1.031-.159a.055.055,0,0,1,0-.015c.074-.379.153-.756.236-1.129a.086.086,0,0,0,0-.022c.013-.048.023-.1.034-.149l.017-.069c.005-.018.009-.036.013-.054.153-.662.321-1.319.5-1.967a.243.243,0,0,0,.009-.036c.005-.017.011-.033.015-.047.009-.029.016-.058.025-.087a.136.136,0,0,1,.007-.027c.051-.175.1-.352.153-.527l0,0c.013-.043.025-.088.04-.132q.138-.458.287-.911c.072-.222.148-.444.224-.665h0c.013-.036.025-.07.036-.106,0-.007.005-.015.009-.022l.027-.079c.005-.015.011-.027.015-.04s.013-.036.02-.054q.4-1.14.864-2.241s0,0,0-.007c.015-.036.031-.074.047-.11a.006.006,0,0,1,0-.005c.449-1.067.94-2.1,1.465-3.1.161-.305.327-.608.493-.906l.017-.029a.5.5,0,0,1,.029-.048,35.332,35.332,0,0,1,2.927-4.411,27.546,27.546,0,0,1,5.248-5.208,20.23,20.23,0,0,1,4.032-2.348l.038-.017.034-.014.168-.07.02-.007.04-.016a16.5,16.5,0,0,1,1.906-.648c.021-.007.045-.013.067-.018q.384-.1.765-.184a14.142,14.142,0,0,1,2.378-.307c.386-.016.767-.014,1.144,0l.049,0a.212.212,0,0,0,.036,0,12.717,12.717,0,0,1,2.3.332l23.163,5.558-.047-.011h-.005a12.456,12.456,0,0,0-1.3-.233c-.361-.043-.729-.072-1.1-.086h-.007c-.027,0-.056,0-.085,0l-.04,0h-.049a14.153,14.153,0,0,0-4,.5h0l-.074.018-.052.016-.009,0a16.259,16.259,0,0,0-1.659.558l-.016.005-.049.02c-.025.011-.048.02-.074.029,0,0-.009,0-.013.006-.036.016-.072.03-.108.045l-.244.1h-.005l-.175.078-.013.005-.069.031-.023.011-.061.027-.023.011-.076.036a.144.144,0,0,0-.03.014l-.049.022a.362.362,0,0,1-.04.018l-.038.02c-.015.005-.027.013-.042.018l-.031.017c-.033.014-.063.03-.1.045l-.016.009c-.02.009-.04.02-.062.029l-.005,0a25.413,25.413,0,0,0-8.9,7.8l-.009.011c-.014.02-.029.042-.043.061s-.02.027-.03.04l-.027.038-.065.087h0l-.067.094h0c-.316.439-.626.89-.928,1.35a.288.288,0,0,0-.016.025l-.038.06-.033.049c-.007.011-.012.021-.02.032a38.936,38.936,0,0,0-2.96,5.537s0,0,0,0l-.049.112a.025.025,0,0,0,0,.011c-.015.031-.029.063-.042.094l-.021.048a.522.522,0,0,1-.025.058c-.011.03-.023.06-.036.088,0,.005-.005.011-.007.016-.022.051-.042.1-.063.151q-.522,1.24-.969,2.532l-.011.036-.021.062-.023.066s0,.009,0,.013c-.058.168-.114.336-.17.5-.1.3-.193.606-.287.912-.123.408-.242.817-.354,1.23-.3,1.108-.56,2.236-.772,3.377-.04.2-.076.408-.112.613q-.105.617-.195,1.24c0,.011,0,.022-.005.033a.193.193,0,0,1,0,.033,41.584,41.584,0,0,0-.411,5.457c0,.083,0,.168,0,.251v.191c0,1.25.062,2.467.175,3.642q.062.634.144,1.251a.1.1,0,0,0,0,.023c.005.04.011.081.016.123a.359.359,0,0,0,.007.045c0,.035.009.069.013.1s.005.038.009.058.007.056.013.083c.014.1.031.208.047.31a.174.174,0,0,0,0,.027c.005.038.013.078.018.115a.054.054,0,0,0,0,.017c.005.042.013.083.02.125h0a25.1,25.1,0,0,0,4.727,11.5l.022.027c.012.018.029.036.042.054l.032.04c.013.016.025.033.038.047l.04.049c.011.013.02.027.031.04.025.029.049.058.072.087a14.119,14.119,0,0,0,7.547,4.912Zm36.7-50.778.021.005Zm-.021-.005.021.005Z" transform="translate(-5966.32 -7128.655)" fill="#12263f" stroke="rgba(0,0,0,0)" stroke-miterlimit="10" stroke-width="1"/>
        <g id="Grupo_57146" data-name="Grupo 57146" transform="translate(149.921 5.569)">
          <path id="Trazado_124118" data-name="Trazado 124118" d="M-398.035,89.362c10.925-2.927,19.742,7.244,19.692,22.718a42.528,42.528,0,0,1-6.443,22.31c-3.54,5.547-8.258,9.623-13.431,11.008-5.593,1.5-10.634-.437-14.215-4.758-3.413-4.12-5.5-10.407-5.476-17.959a42.8,42.8,0,0,1,1.856-12.235C-412.884,100-406,91.5-398.035,89.362Zm7.172,29.047.016-4.9q-.016-5.921-1.625-8.457-1.593-2.524-4.873-1.653a7.431,7.431,0,0,0-4.927,4.36,23.235,23.235,0,0,0-1.65,9.578l-.016,4.9q.033,5.916,1.66,8.5c1.085,1.725,2.7,2.283,4.861,1.7a7.442,7.442,0,0,0,4.915-4.406,23.733,23.733,0,0,0,1.639-9.624" transform="translate(417.908 -88.86)" fill="#00223d"/>
        </g>
        <g id="Grupo_57147" data-name="Grupo 57147" transform="translate(167.21 23.806)">
          <path id="Trazado_124119" data-name="Trazado 124119" d="M-391.885,116.433a14.415,14.415,0,0,0-.751-5.619,1.89,1.89,0,0,0-2.429-1.2,3.611,3.611,0,0,0-2.407,2.4,16.92,16.92,0,0,0-.833,5.7l-.021,6.411a14.954,14.954,0,0,0,.763,5.681,1.928,1.928,0,0,0,2.452,1.293,3.631,3.631,0,0,0,2.384-2.443,17.6,17.6,0,0,0,.822-5.829Z" transform="translate(398.327 -109.516)" fill="#00223d"/>
        </g>
        <g id="Grupo_57151" data-name="Grupo 57151" transform="translate(88.962 51.779)">
          <path id="Trazado_124125" data-name="Trazado 124125" d="M-463.746,186.377l-23.205-5.569,43.231-39.61,23.205,5.569Z" transform="translate(486.951 -141.198)" fill="silver"/>
        </g>
        <g id="Grupo_57154" data-name="Grupo 57154" transform="translate(72.705 91.389)" style="isolation: isolate">
          <g id="Grupo_57153" data-name="Grupo 57153" clip-path="url(#clip-path-13)">
            <g id="Grupo_57152" data-name="Grupo 57152" style="isolation: isolate">
              <path id="Trazado_124126" data-name="Trazado 124126" d="M-482.159,197.691l-23.205-5.57a13.627,13.627,0,0,0,1.527.276l23.205,5.569a13.835,13.835,0,0,1-1.527-.276" transform="translate(505.364 -186.77)" fill="#999"/>
              <path id="Trazado_124127" data-name="Trazado 124127" d="M-480.43,198l-23.205-5.569a14.2,14.2,0,0,0,2.328.093l23.205,5.57A14.2,14.2,0,0,1-480.43,198" transform="translate(505.162 -186.806)" fill="#9e9e9e"/>
              <path id="Trazado_124128" data-name="Trazado 124128" d="M-477.793,198.066-501,192.5a15.339,15.339,0,0,0,2.561-.328l23.205,5.569a15.341,15.341,0,0,1-2.561.328" transform="translate(504.853 -186.775)" fill="#a3a3a3"/>
              <path id="Trazado_124129" data-name="Trazado 124129" d="M-474.892,197.613l-23.205-5.569c.279-.059.559-.126.838-.2a17.913,17.913,0,0,0,2.2-.749l23.206,5.569a18.015,18.015,0,0,1-2.2.749q-.42.113-.839.2" transform="translate(504.513 -186.649)" fill="#a8a8a8"/>
              <path id="Trazado_124130" data-name="Trazado 124130" d="M-471.45,196.313l-23.206-5.569a21.776,21.776,0,0,0,4.614-2.638l23.205,5.57a21.833,21.833,0,0,1-4.613,2.638" transform="translate(504.11 -186.299)" fill="#adadad"/>
              <path id="Trazado_124131" data-name="Trazado 124131" d="M-466.225,193.435l-23.205-5.57a26.765,26.765,0,0,0,2.189-1.806l23.205,5.569a26.76,26.76,0,0,1-2.189,1.806" transform="translate(503.499 -186.06)" fill="#b3b3b3"/>
            </g>
          </g>
        </g>
        <g id="Grupo_57157" data-name="Grupo 57157" transform="translate(70.983 96.207)" style="isolation: isolate">
          <g id="Grupo_57156" data-name="Grupo 57156" clip-path="url(#clip-path-14)">
            <g id="Grupo_57155" data-name="Grupo 57155" style="isolation: isolate">
              <path id="Trazado_124133" data-name="Trazado 124133" d="M-482.387,197.621l-23.205-5.57a13.736,13.736,0,0,1-1.722-.534l23.205,5.569a13.792,13.792,0,0,0,1.722.535" transform="translate(507.314 -191.517)" fill="#737373"/>
            </g>
          </g>
        </g>
        <path id="Uni贸n_11" data-name="Uni贸n 11" d="M6122.323,7298.1h.013c.015.006.027.007.04.011Zm0,0h0Zm-23.151-5.557-.041-.011a.042.042,0,0,1-.015,0,.11.11,0,0,1-.023-.005.052.052,0,0,1-.019-.006l-.022,0a.051.051,0,0,0-.018-.005l-.022-.006-.021-.005-.018-.005-.021-.005-.018-.006-.022-.005a.037.037,0,0,0-.019-.005.039.039,0,0,0-.02-.005.049.049,0,0,0-.018-.006.423.423,0,0,0-.048-.015l-.009,0a.116.116,0,0,0-.025-.007l-.013-.005-.024-.007c-.005,0-.011,0-.015-.006a.1.1,0,0,1-.026-.007.023.023,0,0,1-.011,0l-.027-.009-.013,0c-.007,0-.016-.006-.023-.009a.047.047,0,0,0-.013,0,.176.176,0,0,0-.025-.009.031.031,0,0,1-.011-.006c-.057-.018-.113-.04-.168-.061h-.005l-.029-.013a.013.013,0,0,1-.007,0l-.029-.011s-.005,0-.007,0a.252.252,0,0,1-.029-.011s-.005,0-.007,0a.291.291,0,0,0-.029-.011h0c-.059-.026-.115-.05-.174-.077l-.031-.015a.006.006,0,0,0-.005,0l-.031-.015h-.005l-.031-.017h0c-.081-.039-.159-.079-.238-.121h0l-.031-.017,0,0-.031-.018h0a.278.278,0,0,0-.033-.019c-.057-.031-.112-.064-.167-.1a0,0,0,0,1,0,0l-.033-.018v0l-.033-.018,0,0c-.011-.005-.02-.013-.031-.019a0,0,0,0,0,0,0c-.075-.048-.152-.1-.228-.148l0,0a.189.189,0,0,1-.027-.018l-.006,0-.027-.018s0,0-.007-.005a.135.135,0,0,0-.025-.019l-.006-.005-.027-.019h0l-.119-.088a.015.015,0,0,1-.009-.007l-.022-.016a.03.03,0,0,0-.011-.007l-.022-.017-.013-.011c-.005-.005-.013-.009-.02-.015l-.013-.011a.174.174,0,0,1-.02-.015l-.013-.011-.02-.016-.015-.011a.092.092,0,0,1-.017-.015l-.019-.015-.027-.022a.159.159,0,0,0-.018-.015l-.017-.015a.154.154,0,0,0-.019-.015l-.013-.011-.02-.017-.013-.013-.021-.015a.066.066,0,0,0-.013-.013l-.018-.016-.015-.011a.2.2,0,0,1-.022-.02l-.009-.007a.289.289,0,0,0-.026-.024l-.007-.005-.066-.061a0,0,0,0,0,0,0l-.031-.029,0,0-.027-.026s0,0-.007-.007-.017-.017-.026-.024l-.005-.005-.027-.025-.005-.006a11.879,11.879,0,0,1-3.134-7.784c0-.011,0-.022,0-.033s0-.031,0-.048,0-.057-.005-.086c0-.007,0-.017,0-.024,0-.033,0-.066-.005-.1v-.006c-.019-.34-.026-.687-.026-1.04l.343-105.545a19.717,19.717,0,0,1,.234-2.953c.019-.123.039-.243.059-.366.026-.148.053-.3.083-.445a.039.039,0,0,0,0-.015c.005-.021.009-.044.015-.066l.005-.028a.375.375,0,0,1,.009-.045c0-.015.005-.029.009-.044s0-.013,0-.021c.009-.047.02-.1.029-.143a0,0,0,0,1,0,0c0-.019.007-.035.011-.051s.005-.026.007-.039.005-.024.009-.037.007-.037.011-.053a.144.144,0,0,0,.006-.025c.005-.024.011-.046.016-.068,0,0,0-.009,0-.013.028-.117.055-.234.084-.35q.137-.552.3-1.088v0c.007-.028.015-.051.022-.077a.186.186,0,0,0,.009-.024c.006-.016.009-.035.015-.053a.328.328,0,0,0,.013-.039l.011-.033c.031-.093.061-.187.092-.278,0-.007.005-.013.007-.02s.011-.035.017-.051.011-.033.016-.048a.216.216,0,0,0,.011-.033c.145-.416.3-.821.467-1.22.029-.07.059-.139.09-.211a.072.072,0,0,0,.005-.015c.013-.031.028-.061.041-.091.007-.013.013-.028.02-.042a.422.422,0,0,1,.019-.044c.009-.018.016-.035.023-.053a.046.046,0,0,0,.007-.015c.019-.042.039-.086.059-.126l0-.011c.064-.139.13-.276.2-.412a.065.065,0,0,1,.013-.024c.009-.018.016-.037.023-.053s.022-.041.029-.061l.021-.033a.687.687,0,0,1,.04-.086s0-.007.005-.011l.214-.409a16.943,16.943,0,0,1,1.535-2.355,12.987,12.987,0,0,1,2.491-2.465,9.639,9.639,0,0,1,1.786-1.049s0,0,.005,0a.522.522,0,0,1,.051-.022.267.267,0,0,0,.024-.013l.029-.011a.417.417,0,0,1,.044-.018.008.008,0,0,1,.007,0c.016-.007.037-.015.055-.023h0l.046-.021a.4.4,0,0,0,.044-.016l.007,0c.119-.046.238-.09.357-.132l.009,0,.04-.015.024-.007a.149.149,0,0,1,.024-.007c.134-.044.268-.084.4-.121l118.857-31.848,23.206,5.571-118.859,31.848h0c-.117.031-.234.067-.35.1,0,0-.007,0-.009,0a.274.274,0,0,1-.033.009l-.033.013a.024.024,0,0,0-.011,0,11.079,11.079,0,0,0-5.158,3.991c-.013.015-.023.033-.037.049s0,.006-.005.007a16.946,16.946,0,0,0-1.342,2.106,18.773,18.773,0,0,0-.812,1.7q-.278.659-.509,1.35c-.037.112-.075.226-.11.337-.1.3-.188.614-.271.923-.053.2-.1.4-.152.61-.094.394-.176.79-.244,1.19-.086.5-.154,1-.2,1.511-.023.258-.044.517-.059.775v.013c0,.024,0,.046,0,.071v.024a.4.4,0,0,0-.006.068v.005c-.009.232-.016.467-.02.7,0,.051,0,.1,0,.152h0l70.639,27.062-23.2-5.57-47.445-18.175-.332,102.232h0c-.016,5.258,2.13,9.211,5.257,10.5v0l.037.013s0,0,0,0,.022.007.033.013h0c.069.029.141.055.214.081v0c.011,0,.021.007.031.009a.01.01,0,0,0,.007,0,.139.139,0,0,1,.027.009l.011,0c.007,0,.018.005.027.009l.009,0,.027.009.011,0,.029.007s0,0,0,0l.1.031s.006,0,.007,0l.024.005.015,0a.078.078,0,0,0,.022.007l.019.006.022.005.018.005.021.005.018.006.022.005.019.005a.073.073,0,0,1,.02,0l.021.006Z" transform="translate(-6093.036 -7107.069)" fill="#12263f" stroke="rgba(0,0,0,0)" stroke-miterlimit="10" stroke-width="1"/>
        <g id="Grupo_57163" data-name="Grupo 57163" transform="translate(23.205 51.099)">
          <path id="Trazado_124140" data-name="Trazado 124140" d="M-561.084,164.043l70.639,27.061a14.358,14.358,0,0,0,8.977.375,21.931,21.931,0,0,0,9-5.192l43.231-39.61c3.581,4.321,8.622,6.257,14.215,4.758,5.173-1.385,9.891-5.46,13.431-11.008l-.281,86.41c-.024,7.305-4.225,14.333-9.371,15.711l-140.9,37.755c-5.158,1.382-9.309-3.407-9.286-10.713Z" transform="translate(561.427 -140.427)" fill="#e4e4e4"/>
        </g>
        <g id="Grupo_57168" data-name="Grupo 57168" transform="translate(23.549 27.155)">
          <path id="Trazado_124154" data-name="Trazado 124154" d="M-432.809,113.309a42.8,42.8,0,0,0-1.856,12.235c-.025,7.552,2.063,13.839,5.476,17.959l-43.231,39.61a21.931,21.931,0,0,1-9,5.192,14.358,14.358,0,0,1-8.977-.375l-70.639-27.061c.024-7.306,4.212-14.33,9.37-15.712Z" transform="translate(561.038 -113.309)" fill="#c2c2c2"/>
        </g>
      </g>
    </g>
    <g id="Grupo_57176" data-name="Grupo 57176" transform="translate(231.989)">
      <g id="Grupo_57174" data-name="Grupo 57174">
        <path id="Trazado_124155" data-name="Trazado 124155" d="M-135.166,180.659a94.9,94.9,0,0,1-94.9,94.9,94.9,94.9,0,0,1-94.9-94.9,94.9,94.9,0,0,1,94.9-94.9A94.9,94.9,0,0,1-135.166,180.659Z" transform="translate(324.959 -81.478)" fill="#1e5af9"/>
        <path id="Trazado_124156" data-name="Trazado 124156" d="M-187.182,221.106c1.139.591,5.683,5.466,4.982,7.428s-4.92-3.644-4.982-2.523,3.9,6.307,3.251,9.251-4.435,6.166-4.435,6.166-8.174-11.493-7.382-15.7S-187.182,221.106-187.182,221.106Z" transform="translate(309.838 -97.323)" fill="#ffb18f"/>
        <path id="Trazado_124157" data-name="Trazado 124157" d="M-181.758,132.289c3.678.7,5.486,3.334,9.928,10.9,4.088,6.965-9.79,28.83-16.173,34.016-3.849,3.127-.378,28.033,1.1,32.1s-11.4,6.168-11.4,6.168l3.645-49.058Z" transform="translate(310.13 -86.925)"/>
        <path id="Trazado_124158" data-name="Trazado 124158" d="M-166.671,106.044c.2,4.484-.284,14.069-2.456,18.126s-7.76,13.671-12.516,13.669-27.235-31.718-18.148-39.5S-167,98.568-166.671,106.044Z" transform="translate(310.556 -82.578)" fill="#161515"/>
        <path id="Trazado_124159" data-name="Trazado 124159" d="M-309.95,275.068c-1.96-.732-10.562.972-11.082,2.011s11.43,28,13.249,29.093,2.6-23.639,2.6-23.639Z" transform="translate(324.501 -103.62)" fill="#161515"/>
        <path id="Trazado_124160" data-name="Trazado 124160" d="M-204.76,299.867c-.011.759-2.427,10.135,0,11.173s34.38,3.637,35.157,1.559-24.158-10.138-25.2-12.733S-204.76,299.867-204.76,299.867Z" transform="translate(311.013 -106.409)" fill="#161515"/>
        <path id="Trazado_124161" data-name="Trazado 124161" d="M-233.392,209.144s-12.567,51.95-13.483,52.731c-5.646,4.8-55.861,19.984-57.3,19.262s-5.3-13.243-4.093-14.928S-264.99,253-264.75,250.835s2.9-44.374,3.377-46.581S-233.392,209.144-233.392,209.144Z" transform="translate(323.032 -95.301)" fill="#353535"/>
        <path id="Trazado_124162" data-name="Trazado 124162" d="M-218.332,209.923c6.349,3.9,37.972,25.329,38.453,31.108s-12.689,51.238-12.448,51.96-14.6-.8-16.918-2.481,8.807-43.707,8.087-46.355S-250.6,219.8-240.07,205.829C-236.267,200.783-218.332,209.923-218.332,209.923Z" transform="translate(315.195 -95.357)" fill="#353535"/>
        <path id="Trazado_124163" data-name="Trazado 124163" d="M-253.983,223.986l-8.593-2.75c-.917,13.12-2.022,30.275-2.174,31.637-.24,2.167-42.319,13.688-43.523,15.374-.743,1.038.437,6.193,1.79,10.166a3.264,3.264,0,0,0,1.021-.289c5.15-2.418,27.122-12.3,36.583-15.454s17.41-3.744,17.872-4.415-2.735-5.992-3.471-10.933S-253.983,223.986-253.983,223.986Z" transform="translate(323.032 -97.339)" fill="#444343"/>
        <path id="Trazado_124164" data-name="Trazado 124164" d="M-191.5,242.532c-4.526-1.618-23.022-18.816-26.7-22.706l-10.3,1.892.885,6.229c11.723,8.88,27.577,16.521,27.988,18.024.72,2.649-10.4,44.672-8.087,46.355,1.027.747,4.507,1.459,8.048,1.961.006-3.881.124-10.112.7-16.433.947-10.3,9.468-29.82,9.777-31.011S-186.975,244.152-191.5,242.532Z" transform="translate(313.666 -97.174)" fill="#3d3d3d"/>
        <path id="Trazado_124165" data-name="Trazado 124165" d="M-253.064,182.812c1.476-3.544,25.335-45.54,28.471-52.443s12.945-10.94,21.941-8.783,19.86,3.269,21.11,16.655-14.725,41.121-18.818,51.8,2.292,22.874,1.958,25.282c-.573,4.123-57.436,4.422-58.873,1.011S-257.3,192.991-253.064,182.812Z" transform="translate(317.099 -85.604)" fill="#161515"/>
        <path id="Trazado_124166" data-name="Trazado 124166" d="M-195.611,91.089c-1.387,2.69-5.075,14.38-4.384,20.359s2.957,11.847,6.761,13.593,13.77-1.346,19.406-7.939,8.786-17.458,8.786-17.458Z" transform="translate(310.339 -82.102)" fill="#ffb18f"/>
        <path id="Trazado_124167" data-name="Trazado 124167" d="M-220.38,218.5a59.249,59.249,0,0,0-1.821-7.715c-3.408-11.564,5.3-31.747,15.766-50.585,7.669-13.8,7.09-30.453,2.723-38.816-8.7-1.614-17.87,2.357-20.882,8.991-3.136,6.9-26.995,48.9-28.471,52.443-4.238,10.178-5.647,30.113-4.211,33.525C-256.437,218.327-236.76,219.054-220.38,218.5Z" transform="translate(317.099 -85.606)" fill="#232121"/>
        <path id="Trazado_124168" data-name="Trazado 124168" d="M-199.733,105.464c3.112.791,25.864,13.321,25.864,13.321-2.568,2.877-6.066,9.054-12.341,10.663-4.418,1.135-8.948-4.98-11.173-8.584A18.832,18.832,0,0,1-199.733,105.464Z" transform="translate(310.381 -83.785)"/>
        <path id="Trazado_124169" data-name="Trazado 124169" d="M-223.222,150.393s5.415,21.223,6.3,27.305c1.507,10.427-6.507,22.42-6.507,22.42s2.945-14.542,1.471-21.525S-223.222,150.393-223.222,150.393Z" transform="translate(313.073 -89.045)" fill="#161515"/>
        <path id="Trazado_124170" data-name="Trazado 124170" d="M-224.585,128.519c1.015-2.6,10.005-7.786,16.842-2.259s1.613,38.926,2.478,39.116,2.758-28.941,4.43-28.911,11.12.275,11.427,2.691-1.44,28.474-3.272,33.153c-6.633,16.938-12.4,15.388-14.779,15.149C-211.242,187.079-235.688,156.939-224.585,128.519Z" transform="translate(313.544 -85.932)" fill="#353535"/>
        <path id="Trazado_124171" data-name="Trazado 124171" d="M-199.507,167.378s-7.744,11.906-9.042,8.541-3.526-16.573-5.665-32.817c-1.817-13.816-3.39-15.622-8.417-16.357a5.65,5.65,0,0,0-1.955,2.117c-11.1,28.42,13.344,58.56,17.125,58.94,1.723.172,5.23,1.028,9.551-4.961a27.6,27.6,0,0,0,.94-3.346C-194.886,169.612-199.507,167.378-199.507,167.378Z" transform="translate(313.544 -86.276)" fill="#3f3f3f"/>
        <path id="Trazado_124172" data-name="Trazado 124172" d="M-200.4,99.227l.787,4.535a34.5,34.5,0,0,1,5.318.531c2.024.351,2.951-1.208,4.512-1.078s1.073,3.415,2.5,4.325,13.451,9.152,14.28,9.205c.4.027,4.4-6.488,4.4-6.488s-10.755-8.693-16.081-11.94S-200.4,99.227-200.4,99.227Z" transform="translate(310.376 -82.803)" fill="#db826a"/>
        <path id="Trazado_124173" data-name="Trazado 124173" d="M-216.325,123.046a15.739,15.739,0,0,0-8.269,7.562c-3.136,6.9-26.995,48.9-28.471,52.443-4.238,10.178-5.647,30.113-4.211,33.525.443,1.053,6.185,1.753,13.916,2.094-.587-9.856-1-24.71.807-35.479C-240.216,169.291-223.87,136.765-216.325,123.046Z" transform="translate(317.099 -85.843)" fill="#2d2a2a"/>
        <path id="Trazado_124174" data-name="Trazado 124174" d="M-225.564,136.768c-2.015,1.033,14.665,12.108,15.243,11.143s1.812-15.014,2.2-17.152c.836-4.631.824-10.381-5.079-17.5-9.16-11.056-58.458-12.753-71.922.78-23.487,23.609-11.711,49.959,15.709,64.434,19.2,10.135,30.7-22.012,34.55-33.732s16.657-20.562,19.478-18.487S-217.356,132.56-225.564,136.768Z" transform="translate(321.769 -83.662)" fill="#052c4b"/>
        <path id="Trazado_124175" data-name="Trazado 124175" d="M-213.2,113.255c-9.16-11.056-58.458-12.753-71.922.78-15.8,15.88-15.626,33-5.486,46.91a24.393,24.393,0,0,0,5.964,3.82c21.236,9.593,41.051-11.73,45.2-27.831,3.6-13.935,13.111-21.843,26.773-23C-212.846,113.708-213.014,113.484-213.2,113.255Z" transform="translate(321.767 -83.662)" fill="#00223d"/>
        <path id="Trazado_124176" data-name="Trazado 124176" d="M-174.169,81.3c-16.736-3.148-27.682,13.457-28.153,17.655a23.381,23.381,0,0,0,2.357,19.344c6.228,10.073,16.952,17.867,16.952,17.867s-13.656-18.088-14.8-23.917a65.217,65.217,0,0,1-.6-13.395,53.735,53.735,0,0,1,7.644,1.131c4.623.953,11.37,5.945,16.9,10.633a93.8,93.8,0,0,1-1.2,9.972c-1.608,8.9-7.939,15.576-7.939,15.576s15.232-7.306,18.73-16.733C-164.283,119.437-161.219,83.741-174.169,81.3Z" transform="translate(310.731 -80.91)" fill="#353535"/>
        <path id="Trazado_124177" data-name="Trazado 124177" d="M-216.49,159.959c1.644-.548,11.9,8.2,11.521,9.461s-6.715-5.887-9.853-6.1S-218.383,160.589-216.49,159.959Z" transform="translate(312.393 -90.162)" fill="#2b2b2b"/>
        <path id="Trazado_124178" data-name="Trazado 124178" d="M-205.069,171.652c-2.218-.8-10.471-4.626-11.732-3.365s-.631,2.1.841,3.365S-205.069,171.652-205.069,171.652Z" transform="translate(312.376 -91.11)" fill="#2b2b2b"/>
        <path id="Trazado_124179" data-name="Trazado 124179" d="M-201.848,127.8s-3.1-12.286-10.731-14.809-15.966-3.988-16.039,0c-.1,5.331,9.706,1.6,16.039,5.129C-204.95,122.37-201.848,127.8-201.848,127.8Z" transform="translate(313.68 -84.376)" fill="#00223d"/>
        <path id="Trazado_124180" data-name="Trazado 124180" d="M-205.033,127.52s-5.269-5.2-16.2-5.966-7.24,8.91-2.78,8.488S-214.614,123.642-205.033,127.52Z" transform="translate(313.655 -85.663)" fill="#00223d"/>
        <path id="Trazado_124181" data-name="Trazado 124181" d="M-256.717,256.189s1.051,2.312,5.256,4.416a27.625,27.625,0,0,0,6.517,2.522s-4.5,1.311-8.072.26S-256.717,256.189-256.717,256.189Z" transform="translate(316.97 -101.431)" fill="#282828"/>
        <path id="Trazado_124182" data-name="Trazado 124182" d="M-183.13,244.124s-2.981,3.8-4.625,4.346c-4.813,1.613-6.1,0-6.1,0s4.6,5.144,8.413,2.41A5.923,5.923,0,0,0-183.13,244.124Z" transform="translate(309.61 -100.018)" fill="#282828"/>
        <path id="Trazado_124183" data-name="Trazado 124183" d="M-248.212,269.12s-5.853.189-8.8-3.385-.975-5.238-.975-5.238a6.33,6.33,0,0,0-.645,6.289C-257.009,270.15-248.212,269.12-248.212,269.12Z" transform="translate(317.262 -101.935)" fill="#282828"/>
        <g id="Grupo_57171" data-name="Grupo 57171" transform="translate(112.173 8.067)">
          <path id="Trazado_124184" data-name="Trazado 124184" d="M-186.833,137.463c3.128,2.836,5.475,4.55,5.475,4.55s-4.053-5.373-7.93-11.2C-188.412,133.218-187.571,135.488-186.833,137.463Z" transform="translate(196.902 -94.819)" fill="#3f3f3f"/>
          <path id="Trazado_124185" data-name="Trazado 124185" d="M-176.19,131.326c3.489-4.513,4.627-10.512,6.212-19.137s-2.289-19.547-11.256-21.79c-8.521-2.131-13.955,5.943-16.165,9.551a55.808,55.808,0,0,1,7.336,1.11c4.623.953,11.37,5.945,16.9,10.633a93.8,93.8,0,0,1-1.2,9.972c-1.608,8.9-7.939,15.576-7.939,15.576s.212-.1.547-.275A38.559,38.559,0,0,0-176.19,131.326Z" transform="translate(197.852 -90.047)" fill="#3f3f3f"/>
          <path id="Trazado_124186" data-name="Trazado 124186" d="M-197.787,101.874l0,0a3,3,0,0,0-.046,1.621C-197.822,102.892-197.806,102.353-197.787,101.874Z" transform="translate(197.912 -91.431)" fill="#3f3f3f"/>
        </g>
        <g id="Grupo_57172" data-name="Grupo 57172" transform="translate(107.304)">
          <path id="Trazado_124187" data-name="Trazado 124187" d="M-161.74,119.437s3.065-35.7-9.886-38.133a21.823,21.823,0,0,0-10.079.428c5.4.128,10.806,2.832,12.558,7.244,2.924,7.36,7.221,16.238,3.672,29.809a31.87,31.87,0,0,1-6.035,11.886C-167.522,127.728-163.366,123.818-161.74,119.437Z" transform="translate(200.884 -80.91)" fill="#2d2d2d"/>
          <path id="Trazado_124188" data-name="Trazado 124188" d="M-201.408,108.47c.657-5.282.936-10.6,3.026-15.421-2.4,3.035-3.778,5.9-3.94,7.332a23.381,23.381,0,0,0,2.357,19.344,49.608,49.608,0,0,0,3.259,4.605C-199.276,119.159-201.927,112.634-201.408,108.47Z" transform="translate(203.427 -82.331)" fill="#2d2d2d"/>
        </g>
        <g id="Grupo_57173" data-name="Grupo 57173" transform="translate(112.318 17.94)">
          <path id="Trazado_124189" data-name="Trazado 124189" d="M-190.1,102.369c4.607.95,11.323,5.911,16.84,10.585-1.146-2.528-5.123-6.655-10.527-8.907-10.941-4.559-13.993-2.014-13.957-2.809A53.735,53.735,0,0,1-190.1,102.369Z" transform="translate(197.748 -101.228)" fill="#6d6d6d"/>
        </g>
        <path id="Trazado_124190" data-name="Trazado 124190" d="M-191.61,180.725a59.746,59.746,0,0,0,3.061-6.7c1.832-4.679,3.58-30.736,3.272-33.153-.188-1.467-3.744-2.13-6.884-2.433a49.5,49.5,0,0,1,1.237,11.1c.21,13.245,1.893,17.029,0,27.751C-191.135,178.487-191.367,179.63-191.61,180.725Z" transform="translate(309.412 -87.645)" fill="#2d2d2d"/>
        <path id="Trazado_124191" data-name="Trazado 124191" d="M-188.973,137.751c.536-2.357-2.349-7.609-8.027-11.383-5.415-3.6-10.049,1.781-8.85,3.751,1.293,2.127,4.259.224,4.755,1.773.316.98-4.374-1.212-4.755.89s6.466,1.712,8.85,4.137Z" transform="translate(311.037 -86.09)" fill="#ffb18f"/>
      </g>
      <g id="Grupo_57175" data-name="Grupo 57175" transform="translate(39.023 47.349)">
        <path id="Trazado_124192" data-name="Trazado 124192" d="M-269.735,150.7h-10.72V148.87l5.311-5.792a13.258,13.258,0,0,0,1.637-2.141,3.467,3.467,0,0,0,.487-1.724,2.62,2.62,0,0,0-.641-1.84,2.222,2.222,0,0,0-1.724-.7,2.563,2.563,0,0,0-2,.788,3.1,3.1,0,0,0-.712,2.157h-2.661A5.21,5.21,0,0,1-280.1,137a4.56,4.56,0,0,1,1.894-1.813,6.038,6.038,0,0,1,2.842-.645A5.39,5.39,0,0,1-271.7,135.7a4.047,4.047,0,0,1,1.342,3.224,5.479,5.479,0,0,1-.674,2.5,14.267,14.267,0,0,1-2.206,2.973l-3.9,4.172h7.4Z" transform="translate(280.762 -134.537)" fill="#fff"/>
        <path id="Trazado_124193" data-name="Trazado 124193" d="M-265.237,142.822l.865-8.037h8.563v2.3h-6.351l-.438,3.811a4.928,4.928,0,0,1,2.5-.635,4.444,4.444,0,0,1,3.542,1.456,5.772,5.772,0,0,1,1.264,3.92,5.315,5.315,0,0,1-1.4,3.872,5.118,5.118,0,0,1-3.843,1.44,5.362,5.362,0,0,1-3.631-1.243,4.5,4.5,0,0,1-1.56-3.28h2.573a2.81,2.81,0,0,0,.833,1.78,2.532,2.532,0,0,0,1.774.619,2.285,2.285,0,0,0,1.911-.877,3.777,3.777,0,0,0,.685-2.387,3.344,3.344,0,0,0-.756-2.305,2.643,2.643,0,0,0-2.081-.848,3.459,3.459,0,0,0-1.226.192,3.493,3.493,0,0,0-1.095.75Z" transform="translate(279.002 -134.566)" fill="#fff"/>
        <path id="Trazado_124194" data-name="Trazado 124194" d="M-244.251,150.722h-2.65V137.913l-3.91,1.332v-2.234l6.219-2.289h.34Z" transform="translate(277.255 -134.559)" fill="#fff"/>
      </g>
    </g>
  </g>
</svg>
