<svg xmlns="http://www.w3.org/2000/svg" xmlns:xlink="http://www.w3.org/1999/xlink" width="91.927" height="91.928" viewBox="0 0 91.927 91.928">
  <defs>
    <radialGradient id="radial-gradient" cx="0.076" cy="0.019" r="1.465" gradientTransform="translate(0.001)" gradientUnits="objectBoundingBox">
      <stop offset="0" stop-color="#f6f6f7"/>
      <stop offset="0.477" stop-color="#f9f9fa"/>
      <stop offset="0.715" stop-color="#fff"/>
    </radialGradient>
  </defs>
  <g id="Grupo_61716" data-name="Grupo 61716" transform="translate(-217 -741.334)">
    <g id="Grupo_42274" data-name="Grupo 42274" transform="translate(142 768.333)">
      <g id="Grupo_18423" data-name="Grupo 18423" transform="translate(75 -27)">
        <g id="Grupo_18421" data-name="Grupo 18421">
          <g id="Grupo_18420" data-name="Grupo 18420">
            <g id="Grupo_18419" data-name="Grupo 18419">
              <path id="Trazado_40936" data-name="Trazado 40936" d="M286.55,2191.684a45.964,45.964,0,1,1-45.963-45.962A45.963,45.963,0,0,1,286.55,2191.684Z" transform="translate(-194.623 -2145.721)" fill="#fff"/>
            </g>
          </g>
        </g>
        <path id="Trazado_40937" data-name="Trazado 40937" d="M286.23,2191.334a45.963,45.963,0,1,0-45.963,45.965A45.782,45.782,0,0,0,286.23,2191.334Z" transform="translate(-194.303 -2145.372)" fill="url(#radial-gradient)"/>
        <path id="Trazado_40938" data-name="Trazado 40938" d="M272.56,2188.562a35.084,35.084,0,1,0-35.084,35.084A34.953,34.953,0,0,0,272.56,2188.562Z" transform="translate(-191.373 -2142.446)" fill="none" stroke="#1e5af9" stroke-miterlimit="10" stroke-width="4"/>
        <g id="Grupo_18422" data-name="Grupo 18422" transform="translate(8.143 25.805)">
          <path id="Trazado_40939" data-name="Trazado 40939" d="M279.682,2164.488a45.969,45.969,0,0,1-79.137,45.773,45.823,45.823,0,0,0,79.137-45.773Z" transform="translate(-200.545 -2164.488)" fill="#eceef0"/>
        </g>
      </g>
    </g>
    <g id="jIo5o7.tif" transform="translate(-1141.554 -1027.179)">
      <g id="Grupo_61737" data-name="Grupo 61737" transform="translate(1383.554 1791.012)">
        <path id="Trazado_132025" data-name="Trazado 132025" d="M1420.34,1810.506c-.718-1.122.228-2.776,1.478-3.271a2.723,2.723,0,0,1,3.424,1.26,2.569,2.569,0,0,1-1.082,3.537,1.883,1.883,0,0,0-1.165,1.87c-.146,1.322-.4,2.635-.49,3.96a2.34,2.34,0,0,0,.418,1.5,7.725,7.725,0,0,1,1.819,5.213c-.109,5.818-.064,11.64-.015,17.459.009,1.064-.282,1.412-1.362,1.367-2.009-.083-4.023-.024-6.108-.024-.079.993.139,2.04-.285,2.512s-1.48.323-2.456.48a12.269,12.269,0,0,0,.012,1.608c.14,1.069-.275,1.391-1.341,1.38-4.769-.049-9.538-.021-14.308-.021-.727,0-1.456-.025-2.182,0-.7.027-1.052-.21-.988-.976.053-.638.011-1.284.011-2.028-.886-.109-1.986.07-2.442-.389s-.3-1.565-.429-2.568c-1.879,0-3.766-.071-5.644.027-1.119.058-1.349-.367-1.343-1.381.036-6.184-.047-12.369.075-18.55.023-1.155.819-2.287,1.209-3.446a3.326,3.326,0,0,0,.276-1.542,35.051,35.051,0,0,0-1.017-4.1,1.892,1.892,0,0,0-.95-1.043,2.729,2.729,0,0,1-1.731-3.5,2.687,2.687,0,0,1,3.448-1.636,2.63,2.63,0,0,1,1.532,3.573c-.4.849-.04,1.138.416,1.708,1.961,2.453,4.355,3.281,7.551,3.146,6.454-.274,12.929-.065,19.395-.118a2.738,2.738,0,0,0,1.621-.775m-12.4,26.764c5.739,0,11.478-.025,17.216.022,1.072.009,1.373-.316,1.364-1.378-.047-5.86-.017-11.72-.034-17.58a3.438,3.438,0,0,0-.258-1.4,7.451,7.451,0,0,0-7.115-4.729c-2.708-.022-5.415.011-8.123.01-4.809,0-9.619.03-14.427-.028-3.426-.041-7.448,3.187-7.236,7.214.278,5.279.068,10.584.068,15.878,0,1.993,0,1.994,1.934,1.994Zm-11.34,2.649a1.6,1.6,0,0,0,.4.128q10.549.024,21.1.04c.616,0,.825-.278.856-.887.048-.973-.53-1-1.243-1q-10,.014-20.008.01c-.352,0-.7.059-1.1.1Zm19.76,3.229c-.211-.809.42-1.792-.969-1.79q-7.623.011-15.246,0c-.7,0-.873.34-.9.974-.039,1.045.681.915,1.311.916q7.2.01,14.4,0C1412.7,1848.469,1413.094,1848.415,1413.7,1848.372Zm7.858-30.437c.243-1.965.463-3.741.682-5.518l-.369-.112-3.609,4.237Zm-33.544-7.234a1.784,1.784,0,0,0-1.773-1.748,1.779,1.779,0,1,0,.074,3.555A1.736,1.736,0,0,0,1388.017,1810.7Zm34.791.791a1.765,1.765,0,0,0,.141-3.527,1.766,1.766,0,1,0-.141,3.527Zm-35.336,1.713-.344.217,1.261,5.017,2.954-1.64Z" transform="translate(-1383.554 -1803.136)" fill="#12263f"/>
        <path id="Trazado_132026" data-name="Trazado 132026" d="M1446.157,1797.488a4.9,4.9,0,0,1-1.423.163c-2.917-.542-4.775.485-5.409,3.476a6.316,6.316,0,0,1-.558,1.093c-.308-2.491-.574-4.639-.868-7.008-.925.99-.494,3.147-2.621,2.595-1.2-.31-2.663.625-3.731-.941l-2.122,6.165-.209.006c-.38-2.176-.761-4.353-1.146-6.555-.183.074-.3.091-.307.128-.3,1.572-1.362,1.833-2.741,1.667-.677-.081-1.373.008-2.056-.039-.162-.011-.307-.263-.46-.4.153-.145.3-.405.459-.416a16.715,16.715,0,0,1,2.3-.023,1.343,1.343,0,0,0,1.6-1.074,18.507,18.507,0,0,1,1.5-3.519l1.1,6.268.324.091,1.67-5.232c.373.84.684,1.432.9,2.056a1.221,1.221,0,0,0,1.442.955,5.609,5.609,0,0,1,1.331,0c.806.1,1.143-.3,1.359-1.016a34.844,34.844,0,0,1,1.82-4.912q.44,3.665.882,7.334c.123,0,.257.019.264,0,.516-1.641,1.8-1.63,3.176-1.547,1.16.071,2.328.015,3.493.015Z" transform="translate(-1413.013 -1791.012)" fill="#12263f"/>
        <path id="Trazado_132027" data-name="Trazado 132027" d="M1436.572,1891.068a6.174,6.174,0,0,1-6.34-5.745c-.15-1.241-.773-1.291-1.692-1.3s-1.351.3-1.437,1.321c-.3,3.55-3.223,5.905-6.959,5.715a6.474,6.474,0,1,1,6.443-9.082c.34.757.71,1.093,1.533.934a2.869,2.869,0,0,1,1.086,0c.829.167,1.181-.179,1.507-.943a6.445,6.445,0,1,1,5.859,9.1Zm-5.264-5.758c.072.317.123.677.234,1.017a5.3,5.3,0,0,0,10.342-1.419,5.556,5.556,0,0,0-3.884-5.5,5.3,5.3,0,0,0-6.151,2.865,2.386,2.386,0,0,0,.078,1.479,3.87,3.87,0,0,0,.678,1.006Zm-14.174-4.384a4.974,4.974,0,0,0-1.005,6.327,5.215,5.215,0,0,0,5.862,2.605,5.146,5.146,0,0,0,3.923-4.65l-1.118-.425a5.828,5.828,0,0,0,.529-.981,2.373,2.373,0,0,0,.227-1.335,5.216,5.216,0,0,0-6.364-3,1.7,1.7,0,0,0-.926.829c-.359.856.049,1.357,1.083,1.5,1.6.219,1.6.218,1.073,1.63-.189.509-.358,1.025-.578,1.658a10.623,10.623,0,0,0,1.336.109c1.065-.056,1.363.7,1.59,1.493a.685.685,0,0,1-.194.616c-.148.089-.579.022-.634-.1-.522-1.108-1.513-.915-2.417-.9-1.063.015-1.266-.481-.924-1.378.224-.587.443-1.177.728-1.938C1418.088,1882.843,1416.733,1882.925,1417.134,1880.926Z" transform="translate(-1406.846 -1856.842)" fill="#12263f"/>
      </g>
    </g>
  </g>
</svg>
