<svg xmlns="http://www.w3.org/2000/svg" xmlns:xlink="http://www.w3.org/1999/xlink" width="91.927" height="91.928" viewBox="0 0 91.927 91.928">
  <defs>
    <radialGradient id="radial-gradient" cx="0.076" cy="0.019" r="1.465" gradientTransform="translate(0.001)" gradientUnits="objectBoundingBox">
      <stop offset="0" stop-color="#f6f6f7"/>
      <stop offset="0.477" stop-color="#f9f9fa"/>
      <stop offset="0.715" stop-color="#fff"/>
    </radialGradient>
  </defs>
  <g id="Grupo_61727" data-name="Grupo 61727" transform="translate(-217 -741.334)">
    <g id="Grupo_42274" data-name="Grupo 42274" transform="translate(142 768.333)">
      <g id="Grupo_18423" data-name="Grupo 18423" transform="translate(75 -27)">
        <g id="Grupo_18421" data-name="Grupo 18421">
          <g id="Grupo_18420" data-name="Grupo 18420">
            <g id="Grupo_18419" data-name="Grupo 18419">
              <path id="Trazado_40936" data-name="Trazado 40936" d="M286.55,2191.684a45.964,45.964,0,1,1-45.963-45.962A45.963,45.963,0,0,1,286.55,2191.684Z" transform="translate(-194.623 -2145.721)" fill="#fff"/>
            </g>
          </g>
        </g>
        <path id="Trazado_40937" data-name="Trazado 40937" d="M286.23,2191.334a45.963,45.963,0,1,0-45.963,45.965A45.782,45.782,0,0,0,286.23,2191.334Z" transform="translate(-194.303 -2145.372)" fill="url(#radial-gradient)"/>
        <path id="Trazado_40938" data-name="Trazado 40938" d="M272.56,2188.562a35.084,35.084,0,1,0-35.084,35.084A34.953,34.953,0,0,0,272.56,2188.562Z" transform="translate(-191.373 -2142.446)" fill="none" stroke="#1e5af9" stroke-miterlimit="10" stroke-width="4"/>
        <g id="Grupo_18422" data-name="Grupo 18422" transform="translate(8.143 25.805)">
          <path id="Trazado_40939" data-name="Trazado 40939" d="M279.682,2164.488a45.969,45.969,0,0,1-79.137,45.773,45.823,45.823,0,0,0,79.137-45.773Z" transform="translate(-200.545 -2164.488)" fill="#eceef0"/>
        </g>
      </g>
    </g>
    <g id="gmhcuj.tif" transform="translate(-795.553 -1106.231)">
      <g id="Grupo_61735" data-name="Grupo 61735" transform="translate(1040.553 1869.149)">
        <path id="Trazado_132021" data-name="Trazado 132021" d="M1040.566,1913.906v-8.8c0-3.911.014-7.822-.014-11.732a1.712,1.712,0,0,1,.766-1.557c1.225-.9,2.377-1.9,3.6-2.8a1.573,1.573,0,0,0,.7-1.483c-.044-1.448-.014-2.9-.014-4.454h6.6c0-1.162,0-2.221,0-3.28s.005-2.146,0-3.219a5.372,5.372,0,0,0-.553-2.879,3.067,3.067,0,0,1,.972-3.809,3.325,3.325,0,0,1,5.217,3.693,9.986,9.986,0,0,0-.531,5.331l2.473-1.932,4.045,3.277a7.345,7.345,0,0,1,4.151-3.471v6.135h5.8c0,1.677-.041,3.192.026,4.7a1.861,1.861,0,0,0,.571,1.2c1.254,1.087,2.6,2.073,3.855,3.154a1.673,1.673,0,0,1,.559,1.1c.033,6.783.024,13.566.022,20.35,0,.134-.028.268-.051.475Zm6.788-29.212c0,3.584-.013,7.073.027,10.562,0,.252.345.57.606.738,3.664,2.358,7.347,4.685,11.007,7.049a1.087,1.087,0,0,0,1.385,0c3.659-2.365,7.353-4.677,11-7.059a1.724,1.724,0,0,0,.629-1.238c.056-2.733.028-5.468.027-8.2v-1.819h-4.021c0,1.1.012,2.135,0,3.167a8.115,8.115,0,0,1-6.579,7.754,4.651,4.651,0,0,0-1.2.62l.1.19h-1.409V1889.9h1.509l.189.688c2.453-.549,2.655-2.607,2.244-5.894Zm28.476,27.57-10.908-10.146c-1.586,1.029-3.079,1.965-4.533,2.958a1.029,1.029,0,0,1-1.372.013c-1.477-1.017-3-1.965-4.56-2.975l-10.887,10.151Zm-33.534-1.111,10.634-9.978-10.634-6.756Zm34.8-16.742-10.636,6.769,10.636,9.966Zm-10.774-14.687a5.249,5.249,0,0,0-1.63,3.836c-.031,1.451.01,2.9-.016,4.355a4.506,4.506,0,0,1-3.088,4.236c-.346.121-.7.224-.99.318v1.492a6.08,6.08,0,0,0,5.7-5.765C1066.419,1885.477,1066.322,1882.748,1066.322,1879.724Zm-3.2,3.192c-.111-.473-.075-.969-.3-1.173-.994-.891-2.064-1.7-3.14-2.561l-4.616,3.734Zm-9.166-7.1v5.678l.306.228c.42-.521,1.135-1.007,1.2-1.57a37.4,37.4,0,0,0,.057-4.406c-.508,0-.885,0-1.261,0A1.655,1.655,0,0,0,1053.96,1875.811Zm.718-1.748a1.647,1.647,0,1,0-1.618-1.711A1.733,1.733,0,0,0,1054.678,1874.063Zm-9.121,16.487-2.685,2.15,2.685,1.706Zm30.969,2.216-2.667-2.1v3.828Z" transform="translate(-1040.553 -1869.149)" fill="#12263f"/>
      </g>
    </g>
  </g>
</svg>
