<svg xmlns="http://www.w3.org/2000/svg" xmlns:xlink="http://www.w3.org/1999/xlink" width="91.927" height="91.928" viewBox="0 0 91.927 91.928">
  <defs>
    <radialGradient id="radial-gradient" cx="0.076" cy="0.019" r="1.465" gradientTransform="translate(0.001)" gradientUnits="objectBoundingBox">
      <stop offset="0" stop-color="#f6f6f7"/>
      <stop offset="0.477" stop-color="#f9f9fa"/>
      <stop offset="0.715" stop-color="#fff"/>
    </radialGradient>
  </defs>
  <g id="Grupo_61717" data-name="Grupo 61717" transform="translate(-217 -741.333)">
    <g id="Grupo_42274" data-name="Grupo 42274" transform="translate(142 768.333)">
      <g id="Grupo_18423" data-name="Grupo 18423" transform="translate(75 -27)">
        <g id="Grupo_18421" data-name="Grupo 18421">
          <g id="Grupo_18420" data-name="Grupo 18420">
            <g id="Grupo_18419" data-name="Grupo 18419">
              <path id="Trazado_40936" data-name="Trazado 40936" d="M286.55,2191.684a45.964,45.964,0,1,1-45.963-45.962A45.963,45.963,0,0,1,286.55,2191.684Z" transform="translate(-194.623 -2145.721)" fill="#fff"/>
            </g>
          </g>
        </g>
        <path id="Trazado_40937" data-name="Trazado 40937" d="M286.23,2191.334a45.963,45.963,0,1,0-45.963,45.965A45.782,45.782,0,0,0,286.23,2191.334Z" transform="translate(-194.303 -2145.372)" fill="url(#radial-gradient)"/>
        <path id="Trazado_40938" data-name="Trazado 40938" d="M272.56,2188.562a35.084,35.084,0,1,0-35.084,35.084A34.953,34.953,0,0,0,272.56,2188.562Z" transform="translate(-191.373 -2142.446)" fill="none" stroke="#37a3a5" stroke-miterlimit="10" stroke-width="4"/>
        <g id="Grupo_18422" data-name="Grupo 18422" transform="translate(8.143 25.805)">
          <path id="Trazado_40939" data-name="Trazado 40939" d="M279.682,2164.488a45.969,45.969,0,0,1-79.137,45.773,45.823,45.823,0,0,0,79.137-45.773Z" transform="translate(-200.545 -2164.488)" fill="#eceef0"/>
        </g>
      </g>
    </g>
    <g id="We9flz" transform="translate(248.181 -181.338)">
      <g id="Grupo_61733" data-name="Grupo 61733" transform="translate(-2.512 948.023)">
        <path id="Trazado_132014" data-name="Trazado 132014" d="M13.839,948.023h1.914a.287.287,0,0,0,.084.035c1.363.086,2.729.147,4.089.264.861.074,1.719.2,2.57.354a25.8,25.8,0,0,1,4.737,1.253,10.513,10.513,0,0,1,3.586,2.083,3.636,3.636,0,0,1,1.209,2.139,7.875,7.875,0,0,1,.047,1.065c0,1.2,0,2.391,0,3.587s0,2.391,0,3.587,0,2.388,0,3.581,0,2.391,0,3.587q0,2.021,0,4.041c0,1.036,0,2.072,0,3.108q0,1.817,0,3.634c0,.67.015,1.34-.007,2.009a4.934,4.934,0,0,1-.141,1.215,4.754,4.754,0,0,1-2.216,2.589,15.113,15.113,0,0,1-4.08,1.752,35.916,35.916,0,0,1-6.982,1.209c-.832.071-1.668.136-2.5.134-1.593,0-3.187-.022-4.777-.1-1.068-.056-2.132-.216-3.194-.36a25.657,25.657,0,0,1-6.26-1.591,9.565,9.565,0,0,1-3.191-1.958,3.626,3.626,0,0,1-1.206-2.467c-.022-.5-.005-1-.005-1.5q0-5.982,0-11.965,0-2.828,0-5.656,0-3.117,0-6.234c0-.907-.038-1.815-.022-2.721a3.618,3.618,0,0,1,1.094-2.5,9.294,9.294,0,0,1,3.241-2.058,26.808,26.808,0,0,1,6.962-1.719c1.3-.165,2.609-.23,3.915-.335C13.081,948.053,13.46,948.043,13.839,948.023ZM.163,977.049a.439.439,0,0,0-.018.082c0,1.754.005,3.508-.007,5.262a1.358,1.358,0,0,0,.535,1.092,5.007,5.007,0,0,0,.472.365A12.306,12.306,0,0,0,4.426,985.3a24.406,24.406,0,0,0,4,.87c1.079.139,2.16.268,3.244.363.751.066,1.508.094,2.263.089,1.336-.009,2.676,0,4.007-.1,1.384-.1,2.764-.29,4.137-.5a19.833,19.833,0,0,0,5.153-1.489,6.346,6.346,0,0,0,1.718-1.062,1.265,1.265,0,0,0,.5-.96c-.006-1.778,0-3.555.006-5.333a.755.755,0,0,0-.013-.11c-.6.279-1.183.571-1.782.821a23.346,23.346,0,0,1-4.29,1.257,34.056,34.056,0,0,1-4.475.637c-1.506.109-3.019.161-4.529.157-1.3,0-2.606-.1-3.907-.191a32.756,32.756,0,0,1-4.589-.676,21.322,21.322,0,0,1-4.334-1.358C1.076,977.5.631,977.276.163,977.049Zm-.009-9.323c0,.069-.013.131-.012.192,0,1.77,0,3.54.019,5.31a1.182,1.182,0,0,0,.215.609,2.343,2.343,0,0,0,.524.517A10.36,10.36,0,0,0,4,975.847a26.544,26.544,0,0,0,5.49,1.159c1.3.144,2.615.243,3.925.275,1.36.034,2.725,0,4.084-.072,1.172-.062,2.342-.187,3.507-.337a23.561,23.561,0,0,0,5.174-1.234,9.932,9.932,0,0,0,2.325-1.145,1.747,1.747,0,0,0,.956-1.513c-.034-1.674-.012-3.349-.013-5.023,0-.073-.01-.147-.016-.24-.061.027-.09.037-.116.052a17.206,17.206,0,0,1-4.967,1.828c-1.255.268-2.522.495-3.793.667-1.18.16-2.372.249-3.562.322-.835.051-1.674.021-2.511.03a41.067,41.067,0,0,1-4.62-.242,35.977,35.977,0,0,1-4.877-.829,20.269,20.269,0,0,1-3.366-1.108C1.126,968.221.65,967.969.154,967.726Zm0-9.292a.563.563,0,0,0-.014.1c0,1.746.006,3.492-.006,5.237A1.4,1.4,0,0,0,.728,964.9a7.283,7.283,0,0,0,1.8,1.064,23.124,23.124,0,0,0,5.421,1.5,35.194,35.194,0,0,0,5.022.491c1.594.037,3.191-.023,4.785-.071a30.063,30.063,0,0,0,4.3-.489,22.928,22.928,0,0,0,4.386-1.179,8.034,8.034,0,0,0,2.506-1.4,1.29,1.29,0,0,0,.5-1.009c-.01-1.762,0-3.523,0-5.285a.925.925,0,0,0-.016-.118.353.353,0,0,0-.079.021,14.182,14.182,0,0,1-2.986,1.3,32.828,32.828,0,0,1-7.136,1.381c-1.116.1-2.237.159-3.357.193a44.345,44.345,0,0,1-5.316-.176,38.882,38.882,0,0,1-4.662-.69,22.731,22.731,0,0,1-3.72-1.088C1.5,959.079.838,958.746.158,958.434ZM14.8,950.669l0-.045c-1.492.09-2.985.164-4.476.274a27.682,27.682,0,0,0-4.071.627,17.871,17.871,0,0,0-4.447,1.528A4.484,4.484,0,0,0,.4,954.1a.748.748,0,0,0-.031,1.1,4.885,4.885,0,0,0,.955.816,12.518,12.518,0,0,0,3.369,1.419,32.9,32.9,0,0,0,7.945,1.2c1.575.059,3.157.036,4.732-.044,1.393-.071,2.786-.233,4.169-.425a20.794,20.794,0,0,0,5.714-1.59,5.786,5.786,0,0,0,1.862-1.226.831.831,0,0,0,.053-1.266,2.347,2.347,0,0,0-.318-.321,9.17,9.17,0,0,0-2.93-1.511,31.336,31.336,0,0,0-8.2-1.488C16.748,950.694,15.775,950.7,14.8,950.669Z" transform="translate(2.512 -948.023)" fill="#12263f"/>
        <path id="Trazado_132015" data-name="Trazado 132015" d="M582.1,1617.186a1.3,1.3,0,0,1,1.352-1.3,1.319,1.319,0,1,1-1.352,1.3Z" transform="translate(-554.136 -1583.933)" fill="#12263f"/>
        <path id="Trazado_132016" data-name="Trazado 132016" d="M583.405,1423.736a1.3,1.3,0,0,1-1.3-1.327,1.317,1.317,0,0,1,1.355-1.307,1.34,1.34,0,0,1,1.287,1.335A1.314,1.314,0,0,1,583.405,1423.736Z" transform="translate(-554.134 -1398.47)" fill="#12263f"/>
        <path id="Trazado_132017" data-name="Trazado 132017" d="M582.108,1227.705a1.318,1.318,0,1,1,2.636-.017,1.318,1.318,0,1,1-2.636.017Z" transform="translate(-554.14 -1213.06)" fill="#12263f"/>
      </g>
    </g>
  </g>
</svg>
