<svg xmlns="http://www.w3.org/2000/svg" width="63.299" height="63.299" viewBox="0 0 63.299 63.299">
  <g id="Grupo_1094285" data-name="Grupo 1094285" transform="translate(-310 -5739)">
    <path id="Trazado_769901" data-name="Trazado 769901" d="M31.649,0A31.649,31.649,0,1,1,0,31.649,31.649,31.649,0,0,1,31.649,0Z" transform="translate(310 5739)" fill="#6e40fc"/>
    <g id="Layer_2_00000169516506275836610300000000581320084930623930_" transform="translate(276.758 5749.239)">
      <g id="PDF" transform="translate(46.5 0)">
        <path id="Trazado_837274" data-name="Trazado 837274" d="M97.395,42.812A5.792,5.792,0,0,1,91.6,37.017V5.795A5.792,5.792,0,0,1,97.395,0H110.74a.625.625,0,0,1,.46.192l11.472,11.472a.658.658,0,0,1,.192.468V37.026a5.8,5.8,0,0,1-5.795,5.795H97.395Z" transform="translate(-87.829 0)"/>
        <path id="Trazado_837275" data-name="Trazado 837275" d="M131.192,21.364V46.181a4.959,4.959,0,0,1-4.958,4.958H106.559a4.959,4.959,0,0,1-4.958-4.958V14.958A4.959,4.959,0,0,1,106.559,10h13.27Z" transform="translate(-96.993 -9.164)" fill="#ededed"/>
        <path id="Trazado_837276" data-name="Trazado 837276" d="M312.485,13.311a2.885,2.885,0,0,1-2.885-2.885V1.153a.851.851,0,0,1,1.455-.6l11.3,11.3a.857.857,0,0,1-.6,1.463Z" transform="translate(-287.6 -0.275)"/>
        <path id="Trazado_837277" data-name="Trazado 837277" d="M330.964,21.364h-9.315a2.052,2.052,0,0,1-2.049-2.049V10Z" transform="translate(-296.764 -9.164)" fill="#ccbcfe"/>
        <path id="Trazado_837278" data-name="Trazado 837278" d="M78.86,206.28v7.392a3.881,3.881,0,0,1-3.871,3.88H50.38a3.883,3.883,0,0,1-3.88-3.88V206.28a3.883,3.883,0,0,1,3.88-3.88H74.988a3.881,3.881,0,0,1,3.871,3.88Z" transform="translate(-46.5 -185.476)"/>
        <path id="Trazado_837279" data-name="Trazado 837279" d="M59.635,212.5H84.243a3.037,3.037,0,0,1,3.035,3.044v7.392a3.042,3.042,0,0,1-3.035,3.044H59.635a3.037,3.037,0,0,1-3.035-3.044v-7.392A3.026,3.026,0,0,1,59.635,212.5Z" transform="translate(-55.755 -194.731)" fill="#ccbcfe"/>
        <g id="Grupo_1096479" data-name="Grupo 1096479" transform="translate(8.144 20.252)">
          <path id="Trazado_837280" data-name="Trazado 837280" d="M148.75,244.943a2.437,2.437,0,0,1-2.609,2.768h-1.02V250.7H143.9v-8.5h2.241A2.44,2.44,0,0,1,148.75,244.943Zm-1.246,0c0-1.045-.452-1.58-1.371-1.58h-1.012v3.177h1C147.052,246.548,147.5,246.038,147.5,244.943Z" transform="translate(-143.9 -242.2)" fill="#12263f"/>
          <path id="Trazado_837281" data-name="Trazado 837281" d="M214.308,242.2h2.107a2.4,2.4,0,0,1,2.617,2.642v3.177a2.417,2.417,0,0,1-2.609,2.667H214.3V242.2Zm2.116,7.325c.87,0,1.371-.518,1.371-1.53v-3.127c0-1-.485-1.505-1.371-1.505h-.895v6.163Z" transform="translate(-208.413 -242.2)" fill="#12263f"/>
          <path id="Trazado_837282" data-name="Trazado 837282" d="M289.529,243.354v2.534h2.55V247h-2.55v3.688H288.3V242.2h4v1.154Z" transform="translate(-276.226 -242.2)" fill="#12263f"/>
        </g>
      </g>
    </g>
  </g>
</svg>
