<svg xmlns="http://www.w3.org/2000/svg" width="74.711" height="74.711" viewBox="0 0 74.711 74.711">
  <g id="Grupo_1096706" data-name="Grupo 1096706" transform="translate(-815.631 -20806.863)">
    <path id="Trazado_835969" data-name="Trazado 835969" d="M70.711,35.356A35.356,35.356,0,1,1,35.356,0,35.356,35.356,0,0,1,70.711,35.356" transform="translate(817.631 20808.863)" fill="#fff" stroke="#6e40fc" stroke-width="4"/>
    <g id="PEZHOx.tif" transform="translate(832.165 20825.891)">
      <g id="Grupo_61747" data-name="Grupo 61747">
        <path id="Trazado_132028" data-name="Trazado 132028" d="M1463.55,1468.755l1.633,5.43h2.165v1.331h-16.209V1474.2h2.16l1.635-5.442h-2.8q-5.528,0-11.056,0a2.013,2.013,0,0,1-2.17-2.159q0-14.765,0-29.53a2.031,2.031,0,0,1,2.214-2.207l36.3,0a2.006,2.006,0,0,1,2.152,2.135q0,14.807,0,29.614a2.01,2.01,0,0,1-2.146,2.144q-6.671,0-13.343,0Zm-23.289-5.45h37.963v-.363q0-12.816,0-25.631c0-.926-.179-1.1-1.125-1.1H1441.3c-.843,0-1.042.2-1.042,1.052v26.039Zm37.957,1.412h-37.953v1.592c0,.916.176,1.094,1.08,1.094H1475.1c.777,0,1.553,0,2.33-.006a.692.692,0,0,0,.78-.708C1478.233,1466.041,1478.218,1465.393,1478.218,1464.717Zm-16.1,4.038c-1.867,0-3.7,0-5.532.011a.433.433,0,0,0-.295.259c-.182.532-.332,1.075-.493,1.614-.349,1.169-.7,2.337-1.05,3.52h8.989Z" transform="translate(-1438.906 -1434.859)" fill="#12263f"/>
        <path id="Trazado_132029" data-name="Trazado 132029" d="M1610.86,1557q-5.019,0-10.039,0a2.011,2.011,0,0,1-2.17-2.159q0-7.011,0-14.023a2.006,2.006,0,0,1,2.128-2.117c2.485,0,4.97,0,7.455,0a2.033,2.033,0,0,1,1.513.638c.566.572,1.146,1.131,1.7,1.712a1.151,1.151,0,0,0,.9.37c2.866-.009,5.733-.006,8.6,0a2,2,0,0,1,2.1,2.1q.005,5.719,0,11.439a2.008,2.008,0,0,1-2.068,2.051q-5.062,0-10.125,0Zm-.008-1.353h9.867c.762,0,.978-.218.978-.984q0-5.443,0-10.885c0-.815-.2-1.01-1.034-1.01-2.823,0-5.646-.005-8.47,0a2.166,2.166,0,0,1-1.628-.675c-.554-.564-1.1-1.143-1.687-1.666a1.434,1.434,0,0,0-.849-.358c-2.357-.028-4.714-.017-7.072-.015-.734,0-.95.22-.951.966q0,6.777,0,13.553c0,.879.187,1.07,1.066,1.07Q1605.961,1555.646,1610.852,1555.643Z" transform="translate(-1585.091 -1529.88)" fill="#12263f"/>
        <path id="Trazado_132030" data-name="Trazado 132030" d="M1492.346,1470.989l-1,1.035c-.367-.394-.73-.766-1.071-1.156a.379.379,0,0,0-.51-.106c-.674.286-1.353.562-2.04.816a.808.808,0,0,1-.513,0c-.5-.182-.981-.437-1.491-.594a1.46,1.46,0,0,1-1-1.02c-.221-.622-.514-1.218-.782-1.84-.545,0-1.081-.015-1.615.012-.107.005-.249.15-.3.264-.3.667-.574,1.349-.884,2.012a.875.875,0,0,1-.4.389c-.6.277-1.211.536-1.833.762a1,1,0,0,1-.631-.007c-.65-.232-1.291-.491-1.921-.772a.451.451,0,0,0-.613.137c-.26.3-.57.55-.826.85a.508.508,0,0,0-.083.425c.249.674.548,1.329.788,2.006a1.047,1.047,0,0,1-.01.669,5.7,5.7,0,0,1-.908,2.021,5.759,5.759,0,0,1-2.041.96.622.622,0,0,0-.481.736c.04.42-.126.941.07,1.24a1.964,1.964,0,0,0,1.112.536,2.8,2.8,0,0,1,2.012,2.018,2.224,2.224,0,0,1,0,2.023c-.227.4-.345.862-.534,1.287a.379.379,0,0,0,.1.513,11.021,11.021,0,0,1,.869.868.382.382,0,0,0,.513.094c.648-.277,1.3-.549,1.961-.787a1.006,1.006,0,0,1,.631-.01c.555.2,1.091.45,1.678.7l-.512,1.252c-.408-.163-.787-.34-1.183-.464a.984.984,0,0,0-.591,0c-.779.288-1.548.6-2.315.923a.4.4,0,0,1-.513-.1c-.706-.731-1.44-1.436-2.143-2.17a.536.536,0,0,1-.094-.459c.281-.767.614-1.514.889-2.284a1.412,1.412,0,0,0,0-.714,1.84,1.84,0,0,0-1.416-1.481,10.431,10.431,0,0,1-1.592-.679.54.54,0,0,1-.268-.383q-.033-1.546,0-3.092a.537.537,0,0,1,.274-.379c.715-.332,1.438-.652,2.173-.937a1.163,1.163,0,0,0,.607-.638,1.8,1.8,0,0,0,.023-1.862c-.284-.531-.454-1.121-.689-1.679a.39.39,0,0,1,.084-.515q1.1-1.059,2.156-2.157a.4.4,0,0,1,.516-.086c.728.3,1.465.583,2.191.892a1.092,1.092,0,0,0,.8.013,1.979,1.979,0,0,0,1.44-1.424c.167-.549.454-1.061.664-1.6a.39.39,0,0,1,.437-.286c1,.013,2,.016,3.007,0a.419.419,0,0,1,.457.318c.3.744.611,1.486.953,2.212a1.319,1.319,0,0,0,.475.475,1.937,1.937,0,0,0,2.131.033,12.712,12.712,0,0,1,1.606-.646.422.422,0,0,1,.361.044C1491.139,1469.784,1491.745,1470.394,1492.346,1470.989Z" transform="translate(-1468.119 -1464.048)" fill="#12263f"/>
        <path id="Trazado_132031" data-name="Trazado 132031" d="M1538.458,1539.4l.576,1.149a5.506,5.506,0,0,0,0,9.787l-.574,1.154a6.712,6.712,0,0,1-.006-12.089Z" transform="translate(-1526.539 -1530.523)" fill="#12263f"/>
        <path id="Trazado_132032" data-name="Trazado 132032" d="M1649.636,1620.644l-.978.941-3.74-3.787,3.8-3.8.836.889-2.853,2.835Z" transform="translate(-1627.432 -1598.794)" fill="#12263f"/>
        <path id="Trazado_132033" data-name="Trazado 132033" d="M1788.862,1617.37l-3.805,3.807-.913-.873,2.872-2.861-2.947-2.891,1.012-.979Z" transform="translate(-1754.773 -1598.404)" fill="#12263f"/>
        <path id="Trazado_132034" data-name="Trazado 132034" d="M1720.633,1629.528l-1.194-.671,3.393-6.106,1.2.662Z" transform="translate(-1695.628 -1606.804)" fill="#12263f"/>
      </g>
    </g>
  </g>
</svg>
