<svg xmlns="http://www.w3.org/2000/svg" width="74.711" height="74.711" viewBox="0 0 74.711 74.711">
  <g id="Grupo_1096707" data-name="Grupo 1096707" transform="translate(-815.631 -20806.863)">
    <path id="Trazado_835969" data-name="Trazado 835969" d="M70.711,35.356A35.356,35.356,0,1,1,35.356,0,35.356,35.356,0,0,1,70.711,35.356" transform="translate(817.631 20808.863)" fill="#fff" stroke="#6e40fc" stroke-width="4"/>
    <g id="pXbEBR.tif" transform="translate(833.839 20822.605)">
      <g id="Grupo_61734" data-name="Grupo 61734" transform="translate(0)">
        <path id="Trazado_132018" data-name="Trazado 132018" d="M656.431,1215.609c1.884-.489,3.787-.916,5.648-1.48a53.562,53.562,0,0,0,9.394-4.213,8.337,8.337,0,0,1,4.424-1.235,7.6,7.6,0,0,1,2.932.832c1.791.886,3.553,1.831,5.356,2.692a45.1,45.1,0,0,0,9.984,3.315c.168.036.333.085.561.144-.049,1.421-.056,2.83-.154,4.234a43.863,43.863,0,0,1-1.613,9.3A38.874,38.874,0,0,1,678,1250.511c-.61.437-1.278.793-1.9,1.212a.914.914,0,0,1-1.055.016,30.091,30.091,0,0,1-6.289-4.548,37.739,37.739,0,0,1-10.963-19.074,45.425,45.425,0,0,1-1.272-8.918,4.064,4.064,0,0,0-.087-.514Zm1.822,1.445c0,.092,0,.235,0,.378a48.656,48.656,0,0,0,.952,8.772,36.535,36.535,0,0,0,9.356,18.35,27.8,27.8,0,0,0,6.6,5.232.617.617,0,0,0,.743,0c.606-.416,1.254-.776,1.847-1.209a35.708,35.708,0,0,0,12.723-17.351,43.324,43.324,0,0,0,2.287-11.3c.074-.972.091-1.948.134-2.933-.215-.057-.381-.1-.549-.146a49.544,49.544,0,0,1-10.432-3.789c-1.472-.738-2.946-1.474-4.432-2.183a4.32,4.32,0,0,0-3.847,0c-.478.222-.968.42-1.436.663a58.271,58.271,0,0,1-8.691,3.913C661.784,1216.016,660.036,1216.514,658.253,1217.054Z" transform="translate(-656.431 -1208.671)" fill="#12263f"/>
        <path id="Trazado_132019" data-name="Trazado 132019" d="M786.684,1313.838c.432,0,.767-.019,1.1,0a1.5,1.5,0,0,1,1.491,1.421q.057,4.637,0,9.275a1.583,1.583,0,0,1-1.487,1.451,5.584,5.584,0,0,1-.576.021H775.728c-1.479,0-2.074-.59-2.076-2.064q0-4.062,0-8.124c0-1.392.6-1.99,1.983-2h.652c0-.654-.022-1.258,0-1.859a5.195,5.195,0,0,1,10.389.015C786.706,1312.568,786.684,1313.159,786.684,1313.838Zm-11.246,10.375h12.078v-8.6H775.438ZM785,1313.8a16.949,16.949,0,0,0-.166-2.39,3.309,3.309,0,0,0-2.436-2.646,3.214,3.214,0,0,0-3.4.982c-1.1,1.166-1.037,2.6-.942,4.055Z" transform="translate(-762.352 -1297.392)" fill="#12263f"/>
        <path id="Trazado_132020" data-name="Trazado 132020" d="M843.322,1424.332a1.139,1.139,0,0,1,1.093.642,1.116,1.116,0,0,1-.086,1.22,1.8,1.8,0,0,0-.209.653,3.112,3.112,0,0,0-.007.527c-.009.6-.3.956-.768.965s-.78-.354-.791-.941c0-.08,0-.16,0-.24a1.721,1.721,0,0,0-.285-1.12A1.144,1.144,0,0,1,843.322,1424.332Z" transform="translate(-824.2 -1403.544)" fill="#12263f"/>
      </g>
    </g>
  </g>
</svg>
