<svg xmlns="http://www.w3.org/2000/svg" width="75.71" height="75.71" viewBox="0 0 75.71 75.71">
  <g id="Grupo_1096711" data-name="Grupo 1096711" transform="translate(-1133.147 -10640.867)">
    <path id="Trazado_837284" data-name="Trazado 837284" d="M70.71,35.355A35.355,35.355,0,1,1,35.355,0,35.355,35.355,0,0,1,70.71,35.355" transform="translate(1135.647 10643.367)" fill="#fff" stroke="#6e40fc" stroke-width="5"/>
    <g id="Grupo_1096713" data-name="Grupo 1096713" transform="translate(1157.236 10660.506)">
      <g id="Grupo_39139" data-name="Grupo 39139" transform="translate(0 12.672)">
        <path id="Trazado_91735" data-name="Trazado 91735" d="M440.642,158.165h-1.62a12.971,12.971,0,0,1-12.957-12.956v-1.219a.588.588,0,0,1,1.175,0v1.219a11.794,11.794,0,0,0,11.781,11.78h1.62a11.793,11.793,0,0,0,11.781-11.78v-6.1a3.537,3.537,0,0,0-3.229-3.511,2.332,2.332,0,0,0-.311-.021H446.34a.52.52,0,0,1-.214.046H433.539a.591.591,0,0,1-.23-.046h-2.527a2.084,2.084,0,0,0-.281.018,3.545,3.545,0,0,0-3.259,3.514v2.6a.588.588,0,0,1-1.175,0v-2.6a4.718,4.718,0,0,1,4.31-4.683,3,3,0,0,1,.406-.025h2.757a.581.581,0,0,1,.23.047h12.142a.525.525,0,0,1,.215-.047h2.757a3.23,3.23,0,0,1,.435.028,4.71,4.71,0,0,1,4.281,4.679v6.1A12.971,12.971,0,0,1,440.642,158.165Z" transform="translate(-426.066 -134.403)" fill="#12263f"/>
      </g>
      <g id="Grupo_39140" data-name="Grupo 39140" transform="translate(6.885 12.672)">
        <path id="Trazado_91736" data-name="Trazado 91736" d="M452.6,135.625H440.016a.587.587,0,0,1-.588-.587.629.629,0,0,1,.588-.634H452.6a.587.587,0,0,1,.587.587A.629.629,0,0,1,452.6,135.625Z" transform="translate(-439.428 -134.403)" fill="#12263f"/>
      </g>
      <g id="Grupo_39142" data-name="Grupo 39142" transform="translate(4.775 16.372)">
        <path id="Trazado_91738" data-name="Trazado 91738" d="M449.417,154.588H439.23a1.262,1.262,0,0,1-1.265-1.257v-.109a1.373,1.373,0,0,0-1.367-1.375,1.263,1.263,0,0,1-1.266-1.257v-5.008a1.263,1.263,0,0,1,1.266-1.257,1.344,1.344,0,0,0,.97-.4,1.38,1.38,0,0,0,.4-.971v-.109a1.263,1.263,0,0,1,1.265-1.258h10.187a1.263,1.263,0,0,1,1.266,1.258v.109a1.373,1.373,0,0,0,1.367,1.375,1.262,1.262,0,0,1,1.265,1.257v1.487a.587.587,0,1,1-1.175,0v-1.487a.09.09,0,0,0-.09-.082,2.549,2.549,0,0,1-2.542-2.551v-.109a.084.084,0,0,0-.09-.082H439.23a.084.084,0,0,0-.09.082v.109a2.564,2.564,0,0,1-.74,1.8,2.533,2.533,0,0,1-1.8.749.09.09,0,0,0-.09.082v5.008a.088.088,0,0,0,.09.082,2.549,2.549,0,0,1,2.542,2.55v.109a.085.085,0,0,0,.09.082h10.187a.084.084,0,0,0,.09-.082v-.109a2.542,2.542,0,0,1,2.542-2.55.089.089,0,0,0,.09-.082v-1.873a.587.587,0,0,1,1.175,0v1.873a1.263,1.263,0,0,1-1.265,1.257,1.347,1.347,0,0,0-.971.4,1.371,1.371,0,0,0-.4.971v.109A1.262,1.262,0,0,1,449.417,154.588Z" transform="translate(-435.332 -141.582)" fill="#12263f"/>
      </g>
      <g id="Grupo_39146" data-name="Grupo 39146" transform="translate(3.77)">
        <path id="Trazado_91741" data-name="Trazado 91741" d="M452.787,123.682a.634.634,0,0,1-.077-.005,2.086,2.086,0,0,0-.281-.018h-2.757a.588.588,0,0,1-.588-.588v-2.843a5.72,5.72,0,1,0-11.411,0v2.843a.588.588,0,0,1-.587.588h-2.757a2.082,2.082,0,0,0-.281.018.588.588,0,0,1-.665-.583v-2.866a10.224,10.224,0,0,1,10-10.417,10.079,10.079,0,0,1,9.352,6.734.588.588,0,1,1-1.1.4,8.9,8.9,0,0,0-8.247-5.96,9.049,9.049,0,0,0-8.821,9.241v2.255h1.94v-2.255a6.893,6.893,0,1,1,13.762,0v2.255H452.2v-2.255a9.642,9.642,0,0,0-.194-1.929.587.587,0,1,1,1.151-.236,10.8,10.8,0,0,1,.217,2.165v2.866a.587.587,0,0,1-.587.588Z" transform="translate(-433.382 -109.811)" fill="#12263f"/>
      </g>
      <g id="Grupo_39150" data-name="Grupo 39150" transform="translate(5.363 19.616)" opacity="0.2">
        <path id="Trazado_91745" data-name="Trazado 91745" d="M437.714,147.878V154.4a1.979,1.979,0,0,0-.564-.082.678.678,0,0,1-.676-.67V148.63a.679.679,0,0,1,.676-.67A1.966,1.966,0,0,0,437.714,147.878Z" transform="translate(-436.474 -147.878)" fill="#12263f"/>
      </g>
    </g>
  </g>
</svg>
