<svg xmlns="http://www.w3.org/2000/svg" xmlns:xlink="http://www.w3.org/1999/xlink" width="374" height="265" viewBox="0 0 374 265">
  <defs>
    <filter id="Rectángulo_2215" x="151.001" y="67" width="73" height="73" filterUnits="userSpaceOnUse">
      <feOffset dy="3" input="SourceAlpha"/>
      <feGaussianBlur stdDeviation="3" result="blur"/>
      <feFlood flood-opacity="0.161"/>
      <feComposite operator="in" in2="blur"/>
      <feComposite in="SourceGraphic"/>
    </filter>
  </defs>
  <g id="Image_Place_Holder" data-name="Image Place Holder" transform="translate(-0.107)">
    <rect id="Image_Place_Holder-2" data-name="Image Place Holder" width="374" height="265" rx="10" transform="translate(0.107)" fill="#00223d"/>
    <path id="Trazado_133681" data-name="Trazado 133681" d="M-124.316-4.759V0H-127.1V-13.508h5.27a6.1,6.1,0,0,1,2.677.557,4.1,4.1,0,0,1,1.777,1.582,4.41,4.41,0,0,1,.622,2.333,3.878,3.878,0,0,1-1.359,3.131,5.661,5.661,0,0,1-3.762,1.146Zm0-2.254h2.486a2.445,2.445,0,0,0,1.684-.52,1.89,1.89,0,0,0,.58-1.484,2.228,2.228,0,0,0-.584-1.6,2.183,2.183,0,0,0-1.614-.631h-2.551Zm14.473,2.069h-2.217V0h-2.783V-13.508h5.019a5.674,5.674,0,0,1,3.692,1.067,3.682,3.682,0,0,1,1.3,3.015,4.156,4.156,0,0,1-.6,2.305,4.081,4.081,0,0,1-1.814,1.47l2.922,5.52V0h-2.987ZM-112.061-7.2h2.245a2.3,2.3,0,0,0,1.624-.533,1.907,1.907,0,0,0,.575-1.47,2.041,2.041,0,0,0-.543-1.5,2.255,2.255,0,0,0-1.665-.547h-2.236Zm20.438.751a8.154,8.154,0,0,1-.705,3.5A5.31,5.31,0,0,1-94.346-.631a5.582,5.582,0,0,1-3.01.816,5.62,5.62,0,0,1-3-.807,5.362,5.362,0,0,1-2.041-2.305,7.921,7.921,0,0,1-.733-3.447v-.668a8.111,8.111,0,0,1,.719-3.511,5.353,5.353,0,0,1,2.032-2.329,5.589,5.589,0,0,1,3-.812,5.589,5.589,0,0,1,3,.812,5.353,5.353,0,0,1,2.032,2.329,8.088,8.088,0,0,1,.719,3.5Zm-2.82-.612a5.684,5.684,0,0,0-.761-3.229,2.479,2.479,0,0,0-2.171-1.1,2.48,2.48,0,0,0-2.162,1.09,5.619,5.619,0,0,0-.77,3.2v.659a5.755,5.755,0,0,0,.761,3.21A2.473,2.473,0,0,0-97.356-2.1,2.45,2.45,0,0,0-95.2-3.2,5.722,5.722,0,0,0-94.443-6.4ZM-89.6,0V-13.508h4.731a6.213,6.213,0,0,1,3.729.942,3.22,3.22,0,0,1,1.271,2.76,3.052,3.052,0,0,1-.51,1.749A2.947,2.947,0,0,1-81.8-6.949,2.852,2.852,0,0,1-80.161-5.9a3.1,3.1,0,0,1,.6,1.93,3.565,3.565,0,0,1-1.243,2.95A5.6,5.6,0,0,1-84.35,0Zm2.783-5.882v3.646h2.384A2.3,2.3,0,0,0-82.9-2.7,1.607,1.607,0,0,0-82.346-4a1.7,1.7,0,0,0-1.92-1.883Zm0-1.967h2.06q2.106-.037,2.106-1.679a1.552,1.552,0,0,0-.533-1.322,2.806,2.806,0,0,0-1.684-.4h-1.948Zm16.968,5.065h-4.88L-75.657,0h-2.959l5.028-13.508h2.579L-65.953,0h-2.959Zm-4.128-2.254H-70.6l-1.7-5.056ZM-64.691,0V-13.508h4.731a6.213,6.213,0,0,1,3.729.942,3.22,3.22,0,0,1,1.271,2.76,3.052,3.052,0,0,1-.51,1.749,2.947,2.947,0,0,1-1.419,1.109A2.852,2.852,0,0,1-55.251-5.9a3.1,3.1,0,0,1,.6,1.93A3.565,3.565,0,0,1-55.9-1.021,5.6,5.6,0,0,1-59.44,0Zm2.783-5.882v3.646h2.384A2.3,2.3,0,0,0-57.988-2.7,1.607,1.607,0,0,0-57.436-4a1.7,1.7,0,0,0-1.92-1.883Zm0-1.967h2.06q2.106-.037,2.106-1.679a1.552,1.552,0,0,0-.533-1.322,2.806,2.806,0,0,0-1.684-.4h-1.948ZM-49.606,0h-2.783V-13.508h2.783Zm5.362-2.236h5.91V0h-8.693V-13.508h2.783ZM-33.779,0h-2.783V-13.508h2.783ZM-31.2,0V-13.508h4.156a6.312,6.312,0,0,1,3.187.8,5.6,5.6,0,0,1,2.194,2.282,7.039,7.039,0,0,1,.789,3.363v.622a7.059,7.059,0,0,1-.775,3.349A5.548,5.548,0,0,1-23.833-.816,6.359,6.359,0,0,1-27.016,0Zm2.783-11.253v9.018h1.345a3.022,3.022,0,0,0,2.5-1.067,4.821,4.821,0,0,0,.881-3.052v-.714a4.9,4.9,0,0,0-.854-3.122,3.012,3.012,0,0,0-2.5-1.062Zm17.191,8.47h-4.88L-17.033,0h-2.959l5.028-13.508h2.579L-7.329,0h-2.959Zm-4.128-2.254h3.377l-1.7-5.056ZM-6.067,0V-13.508h4.156a6.312,6.312,0,0,1,3.187.8A5.6,5.6,0,0,1,3.47-10.423,7.039,7.039,0,0,1,4.258-7.06v.622a7.059,7.059,0,0,1-.775,3.349A5.548,5.548,0,0,1,1.3-.816,6.359,6.359,0,0,1-1.883,0Zm2.783-11.253v9.018h1.345A3.022,3.022,0,0,0,.557-3.3a4.821,4.821,0,0,0,.881-3.052v-.714a4.9,4.9,0,0,0-.854-3.122,3.012,3.012,0,0,0-2.5-1.062ZM11.012,0V-13.508h4.156a6.312,6.312,0,0,1,3.187.8,5.6,5.6,0,0,1,2.194,2.282,7.039,7.039,0,0,1,.789,3.363v.622a7.059,7.059,0,0,1-.775,3.349A5.548,5.548,0,0,1,18.378-.816,6.359,6.359,0,0,1,15.2,0ZM13.8-11.253v9.018h1.345a3.022,3.022,0,0,0,2.5-1.067,4.821,4.821,0,0,0,.881-3.052v-.714a4.9,4.9,0,0,0-.854-3.122,3.012,3.012,0,0,0-2.5-1.062Zm17.692,5.4H26.144v3.618h6.271V0H23.36V-13.508H32.4v2.254H26.144v3.219h5.344ZM46.405-2.783h-4.88L40.6,0H37.638l5.028-13.508h2.579L50.3,0H47.342ZM42.277-5.038h3.377l-1.7-5.056ZM55.2-13.508l3.47,9.8,3.451-9.8h3.655V0H62.984V-3.692l.278-6.374L59.616,0H57.705L54.068-10.057l.278,6.364V0H51.563V-13.508ZM76.334-5.854H70.99v3.618h6.271V0H68.207V-13.508h9.036v2.254H70.99v3.219h5.344ZM89.879,0H87.1L81.678-8.888V0H78.895V-13.508h2.783L87.1-4.6v-8.906h2.774ZM99.936-2.783h-4.88L94.128,0H91.168L96.2-13.508h2.579L103.832,0h-2.959ZM95.807-5.038h3.377l-1.7-5.056Zm12.237,2.8h6.81V0H104.565V-1.633l6.68-9.621h-6.67v-2.254h10.131v1.6Zm16.31-.547h-4.88L118.546,0h-2.959l5.028-13.508h2.579L128.25,0h-2.959Zm-4.128-2.254H123.6l-1.7-5.056Z" transform="translate(181.464 185.198)" fill="#37a3a5"/>
    <g id="Grupo_41858" data-name="Grupo 41858" transform="translate(151.974 66.165)">
      <rect id="Rectángulo_2211" data-name="Rectángulo 2211" width="70" height="70" rx="5" transform="translate(0.134 -0.165)" fill="#37a3a5"/>
      <g transform="matrix(1, 0, 0, 1, -151.87, -66.17)" filter="url(#Rectángulo_2215)">
        <rect id="Rectángulo_2215-2" data-name="Rectángulo 2215" width="55" height="55" rx="5" transform="translate(160 73)" fill="#fff" opacity="0.21"/>
      </g>
    </g>
    <path id="Trazado_133680" data-name="Trazado 133680" d="M18.262-9.878q0,4.9-2.2,7.554A7.6,7.6,0,0,1,9.861.332,7.642,7.642,0,0,1,3.619-2.341Q1.411-5.014,1.411-9.878v-4.416q0-4.9,2.2-7.554A7.62,7.62,0,0,1,9.828-24.5a7.623,7.623,0,0,1,6.226,2.673q2.208,2.673,2.208,7.554Zm-5.595-5.13a8.621,8.621,0,0,0-.681-3.893,2.275,2.275,0,0,0-2.158-1.287,2.221,2.221,0,0,0-2.1,1.2,8.121,8.121,0,0,0-.706,3.619V-9.2A8.686,8.686,0,0,0,7.7-5.238,2.284,2.284,0,0,0,9.861-3.984,2.253,2.253,0,0,0,11.97-5.2a8.292,8.292,0,0,0,.7-3.827Z" transform="translate(176.107 112)" fill="#fff"/>
  </g>
</svg>
