<svg xmlns="http://www.w3.org/2000/svg" xmlns:xlink="http://www.w3.org/1999/xlink" width="400" height="314" viewBox="0 0 400 314">
  <defs>
    <clipPath id="clip-path">
      <rect id="Rectángulo_388673" data-name="Rectángulo 388673" width="400" height="314" transform="translate(1020 11026)" fill="#6e40fc" opacity="0.31"/>
    </clipPath>
    <linearGradient id="linear-gradient" x1="0.5" x2="0.5" y2="1" gradientUnits="objectBoundingBox">
      <stop offset="0" stop-color="#fff"/>
      <stop offset="1" stop-color="#d2e6ee"/>
    </linearGradient>
  </defs>
  <g id="Enmascarar_grupo_1090680" data-name="Enmascarar grupo 1090680" transform="translate(-1020 -11026)" clip-path="url(#clip-path)">
    <g id="cloud" transform="translate(1030 11023.954)">
      <g id="Grupo_61977" data-name="Grupo 61977" transform="translate(135.424 87.017)">
        <path id="Trazado_132386" data-name="Trazado 132386" d="M1424.316,1041.241a.836.836,0,0,1-.836-.835.9.9,0,0,1,.836-.9.783.783,0,0,1,.835.771v.134A.836.836,0,0,1,1424.316,1041.241Z" transform="translate(-1423.48 -1039.502)" fill="#2e97e6"/>
        <path id="Trazado_132387" data-name="Trazado 132387" d="M1424.316,1122.738a.836.836,0,0,1-.836-.835v-.271a.836.836,0,1,1,1.671,0v.271A.836.836,0,0,1,1424.316,1122.738Zm0-7.063a.836.836,0,0,1-.836-.836v-.27a.836.836,0,1,1,1.671,0v.27A.836.836,0,0,1,1424.316,1115.675Zm0-7.063a.836.836,0,0,1-.836-.836v-.274a.836.836,0,0,1,1.671,0v.274A.836.836,0,0,1,1424.316,1108.612Zm0-7.067a.836.836,0,0,1-.836-.835v-.271a.836.836,0,1,1,1.671,0v.271A.836.836,0,0,1,1424.316,1101.545Zm0-7.063a.836.836,0,0,1-.836-.836v-.271a.836.836,0,0,1,1.671,0v.271A.836.836,0,0,1,1424.316,1094.483Zm0-7.063a.836.836,0,0,1-.836-.835v-.271a.836.836,0,1,1,1.671,0v.271A.836.836,0,0,1,1424.316,1087.419Zm0-7.066a.836.836,0,0,1-.836-.835v-.271a.836.836,0,1,1,1.671,0v.271A.836.836,0,0,1,1424.316,1080.353Zm0-7.062a.837.837,0,0,1-.836-.836v-.271a.836.836,0,0,1,1.671,0v.271A.836.836,0,0,1,1424.316,1073.291Zm0-7.063a.836.836,0,0,1-.836-.835v-.271a.836.836,0,1,1,1.671,0v.271A.835.835,0,0,1,1424.316,1066.227Zm0-7.063a.836.836,0,0,1-.836-.836v-.274a.836.836,0,1,1,1.671,0v.274A.836.836,0,0,1,1424.316,1059.164Zm0-7.066a.836.836,0,0,1-.836-.836v-.271a.836.836,0,0,1,1.671,0v.271A.836.836,0,0,1,1424.316,1052.1Z" transform="translate(-1423.48 -1043.296)" fill="#2e97e6"/>
        <path id="Trazado_132388" data-name="Trazado 132388" d="M1424.316,1172.665a.836.836,0,0,1-.836-.835.894.894,0,0,1,.836-.9.78.78,0,0,1,.835.767v.134A.836.836,0,0,1,1424.316,1172.665Z" transform="translate(-1423.48 -1086.297)" fill="#2e97e6"/>
      </g>
      <g id="Grupo_61978" data-name="Grupo 61978" transform="translate(213.93 87.304)">
        <path id="Trazado_132389" data-name="Trazado 132389" d="M1546.229,1041.684a.836.836,0,0,1-.835-.835.894.894,0,0,1,.835-.9.78.78,0,0,1,.836.767v.134A.836.836,0,0,1,1546.229,1041.684Z" transform="translate(-1545.394 -1039.948)" fill="#2e97e6"/>
        <path id="Trazado_132390" data-name="Trazado 132390" d="M1546.229,1123.179a.836.836,0,0,1-.835-.835v-.272a.835.835,0,1,1,1.671,0v.272A.836.836,0,0,1,1546.229,1123.179Zm0-7.063a.836.836,0,0,1-.835-.836v-.27a.835.835,0,1,1,1.671,0v.27A.836.836,0,0,1,1546.229,1116.116Zm0-7.063a.836.836,0,0,1-.835-.836v-.274a.835.835,0,0,1,1.671,0v.274A.836.836,0,0,1,1546.229,1109.054Zm0-7.067a.836.836,0,0,1-.835-.835v-.271a.835.835,0,1,1,1.671,0v.271A.836.836,0,0,1,1546.229,1101.987Zm0-7.063a.836.836,0,0,1-.835-.836v-.27a.835.835,0,1,1,1.671,0v.27A.836.836,0,0,1,1546.229,1094.924Zm0-7.063a.836.836,0,0,1-.835-.835v-.271a.835.835,0,0,1,1.671,0v.271A.836.836,0,0,1,1546.229,1087.861Zm0-7.066a.836.836,0,0,1-.835-.836v-.27a.835.835,0,0,1,1.671,0v.27A.836.836,0,0,1,1546.229,1080.794Zm0-7.063a.836.836,0,0,1-.835-.836v-.27a.835.835,0,1,1,1.671,0v.27A.836.836,0,0,1,1546.229,1073.731Zm0-7.063a.836.836,0,0,1-.835-.835v-.271a.835.835,0,1,1,1.671,0v.271A.836.836,0,0,1,1546.229,1066.668Zm0-7.063a.836.836,0,0,1-.835-.837v-.273a.835.835,0,1,1,1.671,0v.273A.836.836,0,0,1,1546.229,1059.606Zm0-7.067a.836.836,0,0,1-.835-.835v-.271a.835.835,0,1,1,1.671,0v.271A.836.836,0,0,1,1546.229,1052.539Z" transform="translate(-1545.394 -1043.739)" fill="#2e97e6"/>
        <path id="Trazado_132391" data-name="Trazado 132391" d="M1546.229,1173.107a.836.836,0,0,1-.835-.836.894.894,0,0,1,.835-.9.783.783,0,0,1,.836.77v.131A.837.837,0,0,1,1546.229,1173.107Z" transform="translate(-1545.394 -1086.741)" fill="#2e97e6"/>
      </g>
      <g id="Grupo_61979" data-name="Grupo 61979" transform="translate(161.592 82.467)">
        <path id="Trazado_132392" data-name="Trazado 132392" d="M1464.953,1034.176a.836.836,0,0,1-.836-.836.9.9,0,0,1,.836-.9.78.78,0,0,1,.835.767v.137A.836.836,0,0,1,1464.953,1034.176Z" transform="translate(-1464.117 -1032.436)" fill="#2e97e6"/>
        <path id="Trazado_132393" data-name="Trazado 132393" d="M1464.953,1115.667a.836.836,0,0,1-.836-.836v-.27a.836.836,0,0,1,1.671,0v.27A.836.836,0,0,1,1464.953,1115.667Zm0-7.063a.836.836,0,0,1-.836-.836v-.271a.836.836,0,0,1,1.671,0v.271A.836.836,0,0,1,1464.953,1108.6Zm0-7.063a.836.836,0,0,1-.836-.836v-.274a.836.836,0,1,1,1.671,0v.274A.836.836,0,0,1,1464.953,1101.541Zm0-7.067a.836.836,0,0,1-.836-.835v-.272a.836.836,0,0,1,1.671,0v.272A.835.835,0,0,1,1464.953,1094.474Zm0-7.063a.836.836,0,0,1-.836-.835v-.271a.836.836,0,1,1,1.671,0v.271A.836.836,0,0,1,1464.953,1087.412Zm0-7.063a.836.836,0,0,1-.836-.836v-.27a.836.836,0,1,1,1.671,0v.27A.836.836,0,0,1,1464.953,1080.349Zm0-7.067a.836.836,0,0,1-.836-.835v-.271a.836.836,0,0,1,1.671,0v.271A.835.835,0,0,1,1464.953,1073.282Zm0-7.063a.836.836,0,0,1-.836-.836v-.27a.836.836,0,1,1,1.671,0v.27A.836.836,0,0,1,1464.953,1066.219Zm0-7.063a.836.836,0,0,1-.836-.835v-.27a.836.836,0,1,1,1.671,0v.27A.836.836,0,0,1,1464.953,1059.156Zm0-7.063a.836.836,0,0,1-.836-.835v-.274a.836.836,0,0,1,1.671,0v.274A.835.835,0,0,1,1464.953,1052.093Zm0-7.066a.836.836,0,0,1-.836-.836v-.27a.836.836,0,1,1,1.671,0v.27A.836.836,0,0,1,1464.953,1045.027Z" transform="translate(-1464.117 -1036.228)" fill="#2e97e6"/>
        <path id="Trazado_132394" data-name="Trazado 132394" d="M1464.953,1165.6a.836.836,0,0,1-.836-.835.894.894,0,0,1,.836-.9.78.78,0,0,1,.835.767v.134A.836.836,0,0,1,1464.953,1165.6Z" transform="translate(-1464.117 -1079.231)" fill="#2e97e6"/>
      </g>
      <g id="Grupo_61980" data-name="Grupo 61980" transform="translate(187.76 82.18)">
        <path id="Trazado_132395" data-name="Trazado 132395" d="M1505.59,1033.73a.836.836,0,0,1-.835-.836.9.9,0,0,1,.835-.9.783.783,0,0,1,.835.77v.134A.836.836,0,0,1,1505.59,1033.73Z" transform="translate(-1504.754 -1031.99)" fill="#2e97e6"/>
        <path id="Trazado_132396" data-name="Trazado 132396" d="M1505.59,1115.227a.836.836,0,0,1-.835-.836v-.271a.835.835,0,0,1,1.671,0v.271A.836.836,0,0,1,1505.59,1115.227Zm0-7.063a.836.836,0,0,1-.835-.835v-.271a.835.835,0,0,1,1.671,0v.271A.836.836,0,0,1,1505.59,1108.163Zm0-7.062a.836.836,0,0,1-.835-.836v-.274a.835.835,0,1,1,1.671,0v.274A.836.836,0,0,1,1505.59,1101.1Zm0-7.066a.836.836,0,0,1-.835-.836v-.271a.835.835,0,0,1,1.671,0v.271A.836.836,0,0,1,1505.59,1094.034Zm0-7.063a.836.836,0,0,1-.835-.836v-.271a.835.835,0,1,1,1.671,0v.271A.836.836,0,0,1,1505.59,1086.971Zm0-7.063a.837.837,0,0,1-.835-.836v-.27a.835.835,0,1,1,1.671,0v.27A.836.836,0,0,1,1505.59,1079.908Zm0-7.067a.836.836,0,0,1-.835-.835v-.271a.835.835,0,0,1,1.671,0v.271A.835.835,0,0,1,1505.59,1072.841Zm0-7.063a.836.836,0,0,1-.835-.836v-.27a.835.835,0,1,1,1.671,0v.27A.836.836,0,0,1,1505.59,1065.778Zm0-7.062a.836.836,0,0,1-.835-.836v-.27a.835.835,0,1,1,1.671,0v.27A.836.836,0,0,1,1505.59,1058.716Zm0-7.064a.836.836,0,0,1-.835-.835v-.275a.835.835,0,1,1,1.671,0v.275A.836.836,0,0,1,1505.59,1051.652Zm0-7.066a.836.836,0,0,1-.835-.836v-.27a.835.835,0,1,1,1.671,0v.27A.836.836,0,0,1,1505.59,1044.586Z" transform="translate(-1504.754 -1035.784)" fill="#2e97e6"/>
        <path id="Trazado_132397" data-name="Trazado 132397" d="M1505.59,1165.157a.836.836,0,0,1-.835-.835.9.9,0,0,1,.835-.9.783.783,0,0,1,.835.771v.134A.836.836,0,0,1,1505.59,1165.157Z" transform="translate(-1504.754 -1078.785)" fill="#2e97e6"/>
      </g>
      <g id="Grupo_61984" data-name="Grupo 61984" transform="translate(43.587 176.828)">
        <g id="Grupo_61981" data-name="Grupo 61981" transform="translate(217.536 83.902)">
          <path id="Trazado_132399" data-name="Trazado 132399" d="M1630.243,1312.365a23.008,23.008,0,0,0-6.73,5.879l2,1.546a20.74,20.74,0,0,0-3.6,7.271l-2.435-.653a23.091,23.091,0,0,0-.606,8.916l.559-.068,1.947-.251a20.51,20.51,0,0,0,2.6,7.685l-2.191,1.265a22.842,22.842,0,0,0,5.887,6.726l1.546-2a20.55,20.55,0,0,0,7.262,3.607l-.652,2.435a23.1,23.1,0,0,0,8.923.6l0-.009-.087-.724-.227-1.773a20.483,20.483,0,0,0,7.676-2.595l1.266,2.191a22.877,22.877,0,0,0,6.734-5.892l-2-1.545a20.525,20.525,0,0,0,3.6-7.258l2.436.653a23.134,23.134,0,0,0,.6-8.924l-2.506.318a20.463,20.463,0,0,0-2.6-7.675l2.191-1.265a22.857,22.857,0,0,0-5.891-6.734l-1.546,2a20.532,20.532,0,0,0-7.258-3.6l.652-2.435a22.944,22.944,0,0,0-8.924-.6v.022l.211,1.649.106.835a20.507,20.507,0,0,0-7.676,2.594Zm5.977,10.349a11.179,11.179,0,1,1-4.1,15.269A11.175,11.175,0,0,1,1636.22,1322.714Z" transform="translate(-1618.681 -1309.266)" fill="#00223d"/>
        </g>
        <g id="Grupo_61982" data-name="Grupo 61982">
          <path id="Trazado_132400" data-name="Trazado 132400" d="M1292.428,1182.072a22.991,22.991,0,0,0-6.732,5.879l2,1.545a20.747,20.747,0,0,0-3.6,7.271l-2.435-.652a23.08,23.08,0,0,0-.607,8.916l.559-.068,1.947-.25a20.544,20.544,0,0,0,2.6,7.684l-2.192,1.265a22.826,22.826,0,0,0,5.888,6.726l1.545-2a20.573,20.573,0,0,0,7.263,3.609l-.653,2.434a23.131,23.131,0,0,0,8.924.6l0-.009-.087-.724-.227-1.773a20.492,20.492,0,0,0,7.677-2.595l1.264,2.192a22.892,22.892,0,0,0,6.735-5.893l-2-1.546a20.5,20.5,0,0,0,3.6-7.258l2.435.652a23.123,23.123,0,0,0,.6-8.924l-2.506.318a20.492,20.492,0,0,0-2.595-7.676l2.19-1.264a22.854,22.854,0,0,0-5.892-6.736l-1.545,2a20.528,20.528,0,0,0-7.258-3.6l.652-2.435a22.954,22.954,0,0,0-8.924-.6v.022l.211,1.649.106.835a20.522,20.522,0,0,0-7.676,2.6Zm5.976,10.349a11.179,11.179,0,1,1-4.1,15.271A11.174,11.174,0,0,1,1298.4,1192.421Z" transform="translate(-1280.865 -1178.972)" fill="#1e5af9"/>
        </g>
        <g id="Grupo_61983" data-name="Grupo 61983" transform="translate(257.824 66.584)">
          <path id="Trazado_132401" data-name="Trazado 132401" d="M1691.336,1282.372a12.779,12.779,0,0,0-4.592,1.893l.777,1.17a11.534,11.534,0,0,0-3.194,3.184l-1.166-.777a12.834,12.834,0,0,0-1.91,4.584l.307.064,1.069.216a11.4,11.4,0,0,0,0,4.509l-1.379.275a12.674,12.674,0,0,0,1.9,4.591l1.17-.777a11.44,11.44,0,0,0,3.179,3.2l-.778,1.165a12.862,12.862,0,0,0,4.59,1.91v-.006l.083-.4.2-.973a11.42,11.42,0,0,0,4.5,0l.275,1.378a12.712,12.712,0,0,0,4.6-1.9l-.776-1.17a11.4,11.4,0,0,0,3.19-3.178l1.166.778a12.834,12.834,0,0,0,1.909-4.59l-1.375-.28a11.356,11.356,0,0,0,0-4.5l1.38-.275a12.722,12.722,0,0,0-1.9-4.6l-1.171.776a11.4,11.4,0,0,0-3.178-3.19l.778-1.166a12.775,12.775,0,0,0-4.59-1.909l0,.011-.182.906-.094.459a11.388,11.388,0,0,0-4.5,0Zm1.3,6.514a6.213,6.213,0,1,1-4.882,7.307A6.211,6.211,0,0,1,1692.635,1288.886Z" transform="translate(-1681.245 -1282.372)" fill="none" stroke="#37a3a5" stroke-miterlimit="10" stroke-width="0.548"/>
        </g>
      </g>
      <g id="Grupo_62001" data-name="Grupo 62001" transform="translate(70.41 64.017)">
        <path id="Trazado_132402" data-name="Trazado 132402" d="M1412.133,1160v-8.526a7.009,7.009,0,0,0-7.01-7.01h-74.631a7.011,7.011,0,0,0-7.011,7.01V1302.2H1516.53V1160Z" transform="translate(-1322.861 -1053.874)" fill="#00223d"/>
        <path id="Trazado_132403" data-name="Trazado 132403" d="M1333.524,1177.371v136.306h178.832V1176.7Z" transform="translate(-1326.437 -1065.353)" fill="#fff"/>
        <path id="Trazado_132404" data-name="Trazado 132404" d="M1346.39,1177.371v136.306h180.364V1176.7Z" transform="translate(-1331.018 -1065.353)" fill="#00223d"/>
        <path id="Trazado_132405" data-name="Trazado 132405" d="M1535.456,1168.594H1357.617a6.739,6.739,0,0,0-6.862,5.847v136.349h194.093V1177.9A9.617,9.617,0,0,0,1535.456,1168.594Z" transform="translate(-1332.573 -1062.465)" fill="#fff"/>
        <g id="Grupo_61986" data-name="Grupo 61986" transform="translate(56.104 79.88)">
          <g id="Grupo_61985" data-name="Grupo 61985" transform="translate(0 0)">
            <rect id="Rectángulo_29938" data-name="Rectángulo 29938" width="114.632" height="87.117" transform="matrix(1, -0.003, 0.003, 1, 0, 0.321)" fill="#ebf3ff"/>
            <path id="Trazado_837590" data-name="Trazado 837590" d="M0,0H108.768V80.088H0Z" transform="translate(2.881 3.156) rotate(-0.16)" fill="#1e5af9"/>
            <path id="Trazado_132406" data-name="Trazado 132406" d="M1428.7,1226.7l69.9-.2-38.217-36.664Z" transform="translate(-1416.43 -1149.91)" fill="#e3eeff"/>
            <path id="Trazado_132407" data-name="Trazado 132407" d="M1478.06,1230.1l58.729-.164-31.868-30.3Z" transform="translate(-1434.004 -1153.395)" fill="#e3eeff"/>
            <path id="Trazado_132408" data-name="Trazado 132408" d="M1515.42,1172.674a8.094,8.094,0,1,1-8.116-8.071A8.094,8.094,0,0,1,1515.42,1172.674Z" transform="translate(-1441.542 -1140.924)" fill="#e3eeff"/>
          </g>
        </g>
        <g id="Grupo_61989" data-name="Grupo 61989" transform="translate(79.68 64.142)">
          <g id="Grupo_61987" data-name="Grupo 61987" transform="translate(0)">
            <rect id="Rectángulo_29940" data-name="Rectángulo 29940" width="106.273" height="92.419" transform="matrix(1, -0.003, 0.003, 1, 0, 0.341)" fill="#ebf3ff"/>
            <rect id="Rectángulo_29941" data-name="Rectángulo 29941" width="100.238" height="84.962" transform="matrix(1, -0.003, 0.003, 1, 2.966, 3.348)" fill="#00223d"/>
          </g>
          <g id="Grupo_61988" data-name="Grupo 61988" transform="translate(12.812 15.077)">
            <rect id="Rectángulo_29942" data-name="Rectángulo 29942" width="39.921" height="3.507" transform="translate(0)" fill="#cce5ff"/>
            <rect id="Rectángulo_29943" data-name="Rectángulo 29943" width="81.221" height="3.507" transform="translate(0 9.471)" fill="#cce5ff"/>
            <rect id="Rectángulo_29944" data-name="Rectángulo 29944" width="81.221" height="3.507" transform="translate(0 19.114)" fill="#cce5ff"/>
          </g>
        </g>
        <path id="Trazado_132409" data-name="Trazado 132409" d="M1546.884,1177.922V1310.8H1354.032V1174.426a6.75,6.75,0,0,1,6.836-5.826h176.655A9.592,9.592,0,0,1,1546.884,1177.922Z" transform="translate(-1333.739 -1062.468)" fill="url(#linear-gradient)"/>
        <rect id="Rectángulo_29945" data-name="Rectángulo 29945" width="19.455" height="1.826" transform="translate(0 246.499)" fill="#fff"/>
        <path id="Trazado_132410" data-name="Trazado 132410" d="M1323.161,1267.8l6.777,4.232H1340.9l2.183,2.116v-2.01H1535.8V1267.8Z" transform="translate(-1322.747 -1097.789)" opacity="0.5" style="mix-blend-mode: darken;isolation: isolate"/>
        <g id="Grupo_61991" data-name="Grupo 61991" transform="translate(0.588 149.31)">
          <g id="Grupo_61990" data-name="Grupo 61990">
            <path id="Trazado_132518" data-name="Trazado 132518" d="M0,0H214.616V22.638H0Z" fill="#21587b"/>
            <path id="Trazado_837589" data-name="Trazado 837589" d="M0,0H195.3V22.638H0Z" transform="translate(19.32)" fill="#1e5af9"/>
          </g>
        </g>
        <g id="Grupo_62000" data-name="Grupo 62000" transform="translate(40.572 149.17)">
          <path id="Trazado_132411" data-name="Trazado 132411" d="M1429.715,1235.652v22.631h15.842l-11.108-22.631Z" transform="translate(-1401.257 -1235.512)" fill="#21587b"/>
          <g id="Grupo_61996" data-name="Grupo 61996" transform="translate(22.718)">
            <g id="Grupo_61993" data-name="Grupo 61993" transform="translate(2.016 0.148)">
              <path id="Trazado_132412" data-name="Trazado 132412" d="M1428.14,1235.664h-4.207v22.623h4.207c1.379,0,2.627-1.243,3.524-3.33a20.111,20.111,0,0,0,1.467-8.006C1433.131,1240.736,1430.9,1235.664,1428.14,1235.664Zm-.394,11.287c0-1.889.613-3.43,1.4-3.679.788.249,1.4,1.79,1.4,3.679,0,1.94-.613,3.481-1.4,3.729C1428.359,1250.431,1427.746,1248.89,1427.746,1246.951Z" transform="translate(-1423.933 -1235.664)" fill="#00223d"/>
              <g id="Grupo_61992" data-name="Grupo 61992">
                <path id="Trazado_132413" data-name="Trazado 132413" d="M1425.766,1235.664h-1.833v22.623h1.833c1.443,0,2.748-1.243,3.687-3.33a19.345,19.345,0,0,0,1.534-8.006C1430.988,1240.736,1428.652,1235.664,1425.766,1235.664Zm1.191,15.016c-.825-.248-1.467-1.789-1.467-3.729,0-1.889.642-3.43,1.467-3.679.824.249,2.015,1.79,2.015,3.679C1428.972,1248.89,1427.781,1250.431,1426.958,1250.68Z" transform="translate(-1423.933 -1235.664)" fill="#00223d"/>
              </g>
            </g>
            <g id="Grupo_61995" data-name="Grupo 61995">
              <path id="Trazado_132414" data-name="Trazado 132414" d="M1425.01,1235.664H1420.8v22.623h4.206c1.379,0,2.627-1.243,3.525-3.33a20.113,20.113,0,0,0,1.467-8.006C1430,1240.736,1427.768,1235.664,1425.01,1235.664Zm-.394,11.287c0-1.889.613-3.43,1.4-3.679.787.249,1.4,1.79,1.4,3.679,0,1.94-.613,3.481-1.4,3.729C1425.229,1250.431,1424.616,1248.89,1424.616,1246.951Z" transform="translate(-1420.803 -1235.516)" fill="#00223d"/>
              <g id="Grupo_61994" data-name="Grupo 61994" transform="translate(0 0.148)">
                <path id="Trazado_132415" data-name="Trazado 132415" d="M1422.635,1235.664H1420.8v22.623h1.832c1.444,0,2.749-1.243,3.688-3.33a19.338,19.338,0,0,0,1.535-8.006C1427.859,1240.736,1425.522,1235.664,1422.635,1235.664Zm1.74,15.016c-.824-.248-1.466-1.789-1.466-3.729,0-1.889.641-3.43,1.466-3.679.825.249,1.466,1.79,1.466,3.679C1425.841,1248.89,1425.2,1250.431,1424.376,1250.68Z" transform="translate(-1420.803 -1235.664)" fill="#21587b"/>
              </g>
              <path id="Trazado_132416" data-name="Trazado 132416" d="M1427.275,1258.353h-.026a.147.147,0,0,1,.012-.294,3.191,3.191,0,0,0,2.11-1.017c1.184-1.144,2.6-3.743,2.6-9.63,0-10.714-4.689-11.675-4.736-11.684a.147.147,0,0,1-.12-.17.145.145,0,0,1,.17-.12c.2.035,4.98.985,4.98,11.974,0,6-1.466,8.672-2.7,9.853A3.482,3.482,0,0,1,1427.275,1258.353Z" transform="translate(-1423.048 -1235.434)" fill="#00223d"/>
            </g>
          </g>
          <g id="Grupo_61997" data-name="Grupo 61997" transform="translate(5.461 8.009)">
            <path id="Trazado_132417" data-name="Trazado 132417" d="M1414.836,1254.9c-.2.05-.346.1-.546.149.05.05.05.05,0,.05a19.4,19.4,0,0,0-13.922,18.546v18.9H1394v-18.9a25.74,25.74,0,0,1,20.087-25.06,4.1,4.1,0,0,1,.744-.2C1416.677,1247.99,1416.826,1254.6,1414.836,1254.9Z" transform="translate(-1394.004 -1248.05)" fill="#fff"/>
            <path id="Trazado_132418" data-name="Trazado 132418" d="M1438.054,1247.872v6.33a19.538,19.538,0,0,1,16.589,15.1,2.088,2.088,0,0,1,.1.5,11.481,11.481,0,0,1,.2,1.293,19.154,19.154,0,0,1,.149,2.386v18.9h6.315v-18.9A25.815,25.815,0,0,0,1438.054,1247.872Z" transform="translate(-1409.688 -1247.872)" fill="#fff"/>
            <path id="Trazado_132419" data-name="Trazado 132419" d="M1417.269,1255.512c-14.923,2.617-16.845,18.864-16.845,18.864v20.651h2.239v-18.9a19.468,19.468,0,0,1,14.454-18.736c.634-.205,1.029-2.061,1.029-2.061S1417.755,1255.419,1417.269,1255.512Z" transform="translate(-1396.29 -1250.528)" fill="#e6e6e6"/>
            <path id="Trazado_132420" data-name="Trazado 132420" d="M1438.054,1255.612v1.345a19.539,19.539,0,0,1,16.589,15.095A18.581,18.581,0,0,0,1438.054,1255.612Z" transform="translate(-1409.688 -1250.628)" fill="#e6e6e6"/>
            <path id="Trazado_132421" data-name="Trazado 132421" d="M1425.943,1254.9c-.2.05-.347.1-.546.149a6.71,6.71,0,0,0,1.057-3.19c.1-1.94-.559-3.251-1.257-3.274a4.113,4.113,0,0,1,.745-.2C1427.784,1247.99,1427.933,1254.6,1425.943,1254.9Z" transform="translate(-1405.111 -1248.05)" fill="#e6e6e6"/>
          </g>
          <g id="Grupo_61999" data-name="Grupo 61999" transform="translate(0 47.31)">
            <rect id="Rectángulo_29948" data-name="Rectángulo 29948" width="62.698" height="51.727" transform="translate(0 0.042)" fill="#1e5af9"/>
            <g id="Grupo_61998" data-name="Grupo 61998" transform="translate(23.246 12.652)">
              <path id="Trazado_132422" data-name="Trazado 132422" d="M1421.622,1336.33a7.831,7.831,0,0,0,4.574,7.127v13.2a3.226,3.226,0,0,0,2.537,3.163h.148a1.675,1.675,0,0,0,.5.05,3.218,3.218,0,0,0,3.181-3.213v-13.2a7.884,7.884,0,0,0,4.576-7.127,7.761,7.761,0,0,0-7.756-7.78,2.4,2.4,0,0,0-.6.05A7.711,7.711,0,0,0,1421.622,1336.33Z" transform="translate(-1421.622 -1328.55)" fill="#00ccc3"/>
              <path id="Trazado_132423" data-name="Trazado 132423" d="M1421.622,1336.357a7.83,7.83,0,0,0,4.574,7.127v13.2a3.226,3.226,0,0,0,2.537,3.163h.148a3.226,3.226,0,0,0,2.536-3.163v-13.2a7.885,7.885,0,0,0,4.574-7.127,7.2,7.2,0,1,0-14.37,0Z" transform="translate(-1421.622 -1328.578)" fill="#00223d"/>
            </g>
            <path id="Trazado_132424" data-name="Trazado 132424" d="M1451.991,1360.218h19.9v-51.251h-5.52S1467.834,1346.783,1451.991,1360.218Z" transform="translate(-1409.19 -1308.926)" fill="#00223d"/>
            <rect id="Rectángulo_29949" data-name="Rectángulo 29949" width="5.12" height="51.2" transform="translate(2.06)" fill="#00223d"/>
          </g>
        </g>
        <g id="Grupo_63339" data-name="Grupo 63339" transform="translate(173.092)">
          <path id="Trazado_123883" data-name="Trazado 123883" d="M2599.06,1108.66c-21.091-12.1-42.433-31.428-54.333-52.613a4.016,4.016,0,0,1-.537-2.059V983.609a4.14,4.14,0,0,1,2.834-3.974l52.758-18.168a4.045,4.045,0,0,1,2.737,0l52.757,18.168a4.144,4.144,0,0,1,2.835,3.974v70.379a4.018,4.018,0,0,1-.54,2.059c-11.9,21.184-33.242,40.514-54.331,52.613A4.1,4.1,0,0,1,2599.06,1108.66Z" transform="translate(-2544.189 -961.228)" fill="#1e5af9" fill-rule="evenodd"/>
          <path id="Trazado_123885" data-name="Trazado 123885" d="M2546.238,1056.32c15.643,27.9,44.28,46.773,55.469,52.944V962.522l-53.17,18.311a4.145,4.145,0,0,0-2.836,3.974v69.456A4.035,4.035,0,0,0,2546.238,1056.32Z" transform="translate(-2544.746 -961.705)" fill="#1e5af9" fill-rule="evenodd"/>
          <path id="Trazado_123886" data-name="Trazado 123886" d="M2606.812,977.167l44.428,15.3a4.144,4.144,0,0,1,2.836,3.975v60.866a4.025,4.025,0,0,1-.6,2.165c-10.717,17.826-28.561,34.068-46.166,44.8l-.5.3c-18.011-10.97-35.742-26.929-46.663-45.1a4.016,4.016,0,0,1-.6-2.165V996.442a4.142,4.142,0,0,1,2.835-3.975Z" transform="translate(-2549.852 -967.104)" fill="#fff" fill-rule="evenodd"/>
          <path id="Trazado_123887" data-name="Trazado 123887" d="M2607.372,978.774,2563.9,993.744a4.143,4.143,0,0,0-2.833,3.975v59.921a4.032,4.032,0,0,0,.6,2.169c10.381,17.236,28.272,33.623,45.7,44.233Z" transform="translate(-2550.411 -967.697)" fill="#00223d" fill-rule="evenodd"/>
          <path id="Trazado_123888" data-name="Trazado 123888" d="M2680.714,1057.64V997.718a4.142,4.142,0,0,0-2.833-3.975l-43.472-14.969v125.267h0c17.429-10.61,35.32-27,45.7-44.234A4.04,4.04,0,0,0,2680.714,1057.64Z" transform="translate(-2577.448 -967.697)" fill="#00223d" fill-rule="evenodd"/>
          <path id="Trazado_123889" data-name="Trazado 123889" d="M2625.951,1009.987a14.521,14.521,0,0,1,14.485,14.488v11.3a2.9,2.9,0,0,1-2.9,2.9h-23.181a2.9,2.9,0,0,1-2.9-2.9v-11.3a14.519,14.519,0,0,1,14.489-14.488Zm0,5.8a8.722,8.722,0,0,0-8.693,8.692v8.407h17.384v-8.407a8.725,8.725,0,0,0-8.691-8.692Z" transform="translate(-2568.989 -979.203)" fill-rule="evenodd" fill="url(#linear-gradient)"/>
          <path id="Trazado_123890" data-name="Trazado 123890" d="M2634.408,1045.174h19.318a3.874,3.874,0,0,1,3.864,3.863v36.228a3.875,3.875,0,0,1-3.864,3.864h-19.318Z" transform="translate(-2577.448 -992.175)" fill-rule="evenodd" fill="url(#linear-gradient)"/>
          <path id="Trazado_123891" data-name="Trazado 123891" d="M2601.556,1045.174h19.317v43.955h-19.317a3.873,3.873,0,0,1-3.863-3.864v-36.228A3.873,3.873,0,0,1,2601.556,1045.174Z" transform="translate(-2563.914 -992.175)" fill-rule="evenodd" fill="url(#linear-gradient)"/>
          <path id="Trazado_123892" data-name="Trazado 123892" d="M2631.333,1064.669a5.27,5.27,0,0,1,2.147,10.082l.132.377,2.277,6.529h-9.115l2.279-6.529.132-.377a5.27,5.27,0,0,1,2.147-10.082Z" transform="translate(-2574.374 -999.362)" fill="#00223d" fill-rule="evenodd"/>
          <path id="Trazado_123893" data-name="Trazado 123893" d="M2633.419,1064.99a5.271,5.271,0,0,1,.677,9.874l.131.376,2.278,6.53h-7.994l2.212-6.339.131-.375a5.271,5.271,0,0,1,2.148-10.083C2633.143,1064.972,2633.281,1064.978,2633.419,1064.99Z" transform="translate(-2574.988 -999.474)" fill="#1e5af9" fill-rule="evenodd"/>
        </g>
      </g>
      <g id="Grupo_62004" data-name="Grupo 62004" transform="translate(105.904 0)">
        <g id="Grupo_62002" data-name="Grupo 62002" transform="translate(0 0)">
          <rect id="Rectángulo_29950" data-name="Rectángulo 29950" width="135.03" height="38.168" rx="19.084" transform="translate(0 45.9)" fill="#00223d"/>
          <circle id="Elipse_4135" data-name="Elipse 4135" cx="29.842" cy="29.842" r="29.842" transform="translate(45.65 22.011) rotate(-21.641)" fill="#00223d"/>
          <circle id="Elipse_4136" data-name="Elipse 4136" cx="20.119" cy="20.119" r="20.119" transform="translate(23.495 20.245)" fill="#00223d"/>
        </g>
        <g id="Grupo_62003" data-name="Grupo 62003" transform="translate(54.512 37.247)">
          <path id="Trazado_132425" data-name="Trazado 132425" d="M1485.144,970.836l-1.251,1.4,9.019.126-1.124-8.949L1490.1,965.3a17.734,17.734,0,0,0-27.8,14.4l7.343-.013a10.427,10.427,0,0,1,2.623-6.654A10.537,10.537,0,0,1,1485.144,970.836Z" transform="translate(-1462.291 -962.213)" fill="#fff"/>
          <path id="Trazado_132426" data-name="Trazado 132426" d="M1495.057,1000.793a17.741,17.741,0,0,0,4.472-11.583l-7.343.013a10.441,10.441,0,0,1-15.509,8.855l1.251-1.4-9.019-.127,1.125,8.95,1.691-1.89A17.873,17.873,0,0,0,1495.057,1000.793Z" transform="translate(-1464.647 -971.825)" fill="#fff"/>
        </g>
      </g>
      <g id="Grupo_62011" data-name="Grupo 62011" transform="translate(181.496 180.299)">
        <path id="Trazado_132427" data-name="Trazado 132427" d="M1571.086,1222.242s3.51,3.334,2.39,9.653c5.257,4.4,5.83,12.233,5.065,15.866,9.068,8.22,6.835,19.963.51,23.416-6.031,3.291-14.853.177-18.478-7.518-5.772-9.645-11.406-27.653-2.326-37.116C1556.338,1219.883,1568.474,1218.8,1571.086,1222.242Z" transform="translate(-1515.836 -1197.17)" fill="#0e0e0e"/>
        <g id="Grupo_62007" data-name="Grupo 62007" transform="translate(23.843 15.427)">
          <path id="Trazado_132428" data-name="Trazado 132428" d="M1553.973,1233.566l-8.958-9.1.008-15.753-2.959-.39s-2.422,14.328-2.414,17.373c.007,2.7,9.078,14.452,9.078,14.452Z" transform="translate(-1534.757 -1208.319)" fill="#ffa599"/>
          <path id="Trazado_132429" data-name="Trazado 132429" d="M1571.142,1255.8l-4.945,13.578h-13.118s-.857-8.394-1.037-12.859a17.6,17.6,0,0,1,.02-2.392c.439-3.231,5.762-7.616,5.762-7.616a.551.551,0,0,0,.12-.02c1.056-.12,8.254-.917,10.886,1.3C1571.64,1250.178,1571.142,1255.8,1571.142,1255.8Z" transform="translate(-1539.16 -1221.825)" fill="#6e40fc"/>
          <path id="Trazado_132430" data-name="Trazado 132430" d="M1573.994,1308.024h-11.676c.29,2.377,1.529,4.959,2.059,7.082,4.754,13.026,7.073,30.463,12.091,41.951,0,0,2.16,1.119,3.594,0-.98-8.645-.911-14.006-3.727-28.326C1575.354,1324.565,1575.749,1314.61,1573.994,1308.024Z" transform="translate(-1542.829 -1243.819)" fill="#ffa599"/>
          <path id="Trazado_132431" data-name="Trazado 132431" d="M1547.407,1308.024c-1.513,14.444-4.3,45.641-4.6,48.862l3.71.018c2.434-8.266,5.537-15.684,5.812-26.171,1.893-5.77,5.044-15.475,7.407-22.71Z" transform="translate(-1535.881 -1243.819)" fill="#ffa599"/>
          <path id="Trazado_132432" data-name="Trazado 132432" d="M1568.928,1312.5l-8.815.727-2.14.176-9.463.786c-.41,4.009-.867,8.77-1.316,13.664,2.847,1.181,6.822,2.887,7.164,3.039l4.636-14.19c1.357,4.42,3.016,10.2,4.268,14.712a35.181,35.181,0,0,1,7.425-2.6C1570.225,1323.585,1569.651,1317.578,1568.928,1312.5Z" transform="translate(-1537.444 -1245.412)" fill="#e87c5d"/>
          <path id="Trazado_132433" data-name="Trazado 132433" d="M1576.216,1236.453l8.684-6.659-2.773-14.665,3.164-.973s6.845,13.844,6.837,16.889c-.006,2.7-12.558,13.4-12.558,13.4C1577.515,1245.415,1574.45,1240.874,1576.216,1236.453Z" transform="translate(-1547.59 -1210.397)" fill="#ffa599"/>
          <path id="Trazado_132434" data-name="Trazado 132434" d="M1561.71,1245.768s-3.69,2.525-2.311,4.412c1.187,1.626,4.115-.227,4.115-.227s.492,2.514,2.459,2.179c2.736-.467,3.31-4.5,2.164-5.812S1563.047,1245.09,1561.71,1245.768Z" transform="translate(-1541.68 -1221.482)" fill="#fff"/>
          <path id="Trazado_132435" data-name="Trazado 132435" d="M1569.218,1245.339c0,1.1-1.823,2.672-4.369,2.545-1.616-.081-2.524-1-2.26-2.133l.28-1.456.778-4.146,5.927.159Z" transform="translate(-1542.909 -1219.653)" fill="#ffa599"/>
          <path id="Trazado_132436" data-name="Trazado 132436" d="M1569.349,1241.086c-.816,1.71-2.434,3.021-6.3,3.21l.778-4.146,5.5.159Z" transform="translate(-1543.089 -1219.653)" fill="#e87c5d"/>
          <path id="Trazado_132437" data-name="Trazado 132437" d="M1570.883,1230.405a6.744,6.744,0,0,1-8.832,4.012,6.356,6.356,0,0,1-1.19-8.487c-.975-5.515,5.133-8.145,9.046-5.888C1573.262,1221.977,1573.037,1226.437,1570.883,1230.405Z" transform="translate(-1541.912 -1212.205)" fill="#ffa599"/>
          <path id="Trazado_132438" data-name="Trazado 132438" d="M1574.716,1315.54a45.85,45.85,0,0,1-12.2,2.213c-8.714.5-18.716-.944-19.613-2.52a206.1,206.1,0,0,1,6.952-33.069h13.1a20.729,20.729,0,0,1,5.761,8.374A152.35,152.35,0,0,1,1574.716,1315.54Z" transform="translate(-1535.916 -1234.612)" fill="#6e40fc"/>
          <g id="Grupo_62005" data-name="Grupo 62005" transform="translate(0 113.063)">
            <path id="Trazado_132439" data-name="Trazado 132439" d="M1532.34,1387.656c0-.046,2.206-.049,4.564-.038,2.714.008,6.093.038,6.093.038a12.3,12.3,0,0,0-.239-3.736l-4.252-.022a28.975,28.975,0,0,0-3.243.829c-.136.041-.283.072-.432.107C1531.529,1385.6,1532.34,1387.752,1532.34,1387.656Z" transform="translate(-1532.124 -1383.897)" fill="#fdfeff"/>
            <path id="Trazado_132440" data-name="Trazado 132440" d="M1532.34,1388.114c0-.046,2.206-.048,4.564-.038a2.082,2.082,0,0,0,.112-.679,2.379,2.379,0,0,0-1.752-2.213c-.138.037-.283.071-.432.107C1531.529,1386.055,1532.34,1388.21,1532.34,1388.114Z" transform="translate(-1532.124 -1384.356)" fill="#d9ecff"/>
            <rect id="Rectángulo_29951" data-name="Rectángulo 29951" width="11.019" height="0.67" transform="translate(11.019 3.762) rotate(180)" fill="#d9ecff"/>
          </g>
          <g id="Grupo_62006" data-name="Grupo 62006" transform="translate(33.251 113.215)">
            <path id="Trazado_132441" data-name="Trazado 132441" d="M1583.891,1387.891c.063,0,1.143-.012,2.483-.025,2.179-.021,5.044-.038,5.313.025.759-1.835-.816-2.776-2.266-3.3-.618-.219-1.215-.362-1.6-.462l-3.693.021A12.32,12.32,0,0,0,1583.891,1387.891Z" transform="translate(-1583.745 -1384.133)" fill="#fdfeff"/>
            <rect id="Rectángulo_29952" data-name="Rectángulo 29952" width="8.159" height="0.67" transform="translate(0 3.091)" fill="#d9ecff"/>
          </g>
          <path id="Trazado_132442" data-name="Trazado 132442" d="M1587.659,1388.109c2.18-.021,5.045-.038,5.314.025.759-1.835-.816-2.776-2.266-3.3a3.012,3.012,0,0,0-2.594.855A2.084,2.084,0,0,0,1587.659,1388.109Z" transform="translate(-1551.78 -1271.161)" fill="#d9ecff"/>
          <path id="Trazado_132443" data-name="Trazado 132443" d="M1560.2,1283.634a17.224,17.224,0,0,1-6.8-1.36.3.3,0,0,1,.261-.538,16.618,16.618,0,0,0,12.84,0,.3.3,0,1,1,.24.548A16.188,16.188,0,0,1,1560.2,1283.634Z" transform="translate(-1539.596 -1234.449)" fill="#fff"/>
          <path id="Trazado_132444" data-name="Trazado 132444" d="M1554.591,1224.514c4.078,4.875,9.43-4.843,13.027-1.789,0,0,.318,7.285,2.767,4.836.764-.913,1.623-5.218-.414-6.65.049-2.354-3.869-4.68-8.457-3.576a5.84,5.84,0,0,0-4.346,4.273A2.1,2.1,0,0,0,1554.591,1224.514Z" transform="translate(-1539.983 -1211.428)" fill="#0e0e0e"/>
        </g>
        <g id="Grupo_62008" data-name="Grupo 62008" transform="translate(0)">
          <rect id="Rectángulo_29953" data-name="Rectángulo 29953" width="81.456" height="8.271" transform="translate(1.486 0.644) rotate(10.348)" fill="#00223d"/>
          <rect id="Rectángulo_29954" data-name="Rectángulo 29954" width="81.456" height="0.551" transform="translate(1.514 0.488) rotate(10.348)" fill="#fff"/>
          <path id="Trazado_132445" data-name="Trazado 132445" d="M1633.56,1184.866a21.723,21.723,0,1,0,17.474,25.268A21.735,21.735,0,0,0,1633.56,1184.866Zm9.836,23.187c-.019.216-.058.452-.1.667a13.855,13.855,0,0,1-27.35-.53,13.636,13.636,0,0,1,.079-4.456,13.861,13.861,0,0,1,27.388,4.221A.172.172,0,0,1,1643.4,1208.053Z" transform="translate(-1535.23 -1184.414)" fill="#00223d"/>
          <rect id="Rectángulo_29955" data-name="Rectángulo 29955" width="7.644" height="16.04" transform="translate(6.639 4.515) rotate(10.348)" fill="#00223d"/>
          <rect id="Rectángulo_29956" data-name="Rectángulo 29956" width="7.644" height="12.156" transform="matrix(0.984, 0.18, -0.18, 0.984, 20.96, 8.404)" fill="#00223d"/>
          <path id="Trazado_132446" data-name="Trazado 132446" d="M1647.649,1211.582a13.861,13.861,0,0,0-27.389-4.221,13.634,13.634,0,0,0-.078,4.457,13.061,13.061,0,0,1-.354-3.062,14.058,14.058,0,0,1,28.115,0A13.466,13.466,0,0,1,1647.649,1211.582Z" transform="translate(-1539.463 -1188.042)" fill="#0a3366"/>
          <path id="Trazado_132447" data-name="Trazado 132447" d="M1630.938,1184.383c-16.233-.659-21.578,14.042-21.636,14.207l.778.124c.227-.647,5.2-14.28,20.858-13.556Z" transform="translate(-1535.715 -1184.361)" fill="#fff"/>
        </g>
        <g id="Grupo_62009" data-name="Grupo 62009" transform="translate(31.069 12.203)">
          <path id="Trazado_132448" data-name="Trazado 132448" d="M1546.1,1207.273s1.159-.28,1.479-2.268.367-1.526.367-1.526-1.093-.564-1.673,1.731c-1.716-.115-3.09.7-3,1.81C1543.337,1207.7,1545.892,1207.581,1546.1,1207.273Z" transform="translate(-1543.275 -1203.35)" fill="#ffa599"/>
          <path id="Trazado_132449" data-name="Trazado 132449" d="M1543.447,1206.391l-.166-.1a3.225,3.225,0,0,1,2.922-1.216c.332-1.3.959-1.913,1.771-1.725l-.045.191c-.9-.21-1.344.785-1.555,1.658l-.019.079-.081,0A3.129,3.129,0,0,0,1543.447,1206.391Z" transform="translate(-1543.277 -1203.313)" fill="#ff7e59"/>
        </g>
        <g id="Grupo_62010" data-name="Grupo 62010" transform="translate(56.064 16.613)">
          <path id="Trazado_132450" data-name="Trazado 132450" d="M1584.629,1214.553s-1.71-.57-2.387-4.13c1.1-.782,1.532,1.285,1.532,1.285a7.926,7.926,0,0,1,3.129.469c.673.306.833.676,1.211,1.628C1589.083,1215.852,1584.629,1214.553,1584.629,1214.553Z" transform="translate(-1582.144 -1210.191)" fill="#ffa599"/>
          <path id="Trazado_132451" data-name="Trazado 132451" d="M1588.041,1213.868a.1.1,0,0,1-.092-.063s-.126-.323-.374-.873c-.712-1.394-3.817-1.16-3.848-1.158l-.08.006-.022-.077a6.8,6.8,0,0,0-.434-1.055.49.49,0,0,0-.293-.266,1.013,1.013,0,0,0-.664.1.1.1,0,0,1-.132-.042.1.1,0,0,1,.04-.133,1.209,1.209,0,0,1,.815-.11.687.687,0,0,1,.41.365,7.345,7.345,0,0,1,.423,1.013c.514-.031,3.249-.126,3.964,1.274.252.559.378.882.38.885a.1.1,0,0,1-.057.127A.085.085,0,0,1,1588.041,1213.868Z" transform="translate(-1582.09 -1210.16)" fill="#ff7e59"/>
        </g>
        <path id="Trazado_132452" data-name="Trazado 132452" d="M1576.31,1234.67a1.354,1.354,0,1,0,1.354-1.354A1.354,1.354,0,0,0,1576.31,1234.67Z" transform="translate(-1523.968 -1201.792)" fill="#ffa599"/>
      </g>
      <path id="Trazado_132453" data-name="Trazado 132453" d="M1592.089,1392.889H1214.933a1.756,1.756,0,0,1-1.756-1.756h0a1.755,1.755,0,0,1,1.756-1.755h377.156a1.756,1.756,0,0,1,1.756,1.755h0A1.756,1.756,0,0,1,1592.089,1392.889Z" transform="translate(-1213.177 -1077.059)"/>
    </g>
  </g>
</svg>
