<svg xmlns="http://www.w3.org/2000/svg" xmlns:xlink="http://www.w3.org/1999/xlink" width="374" height="219" viewBox="0 0 374 219">
  <defs>
    <filter id="Rectángulo_2215" x="162.5" y="71.5" width="47" height="47" filterUnits="userSpaceOnUse">
      <feOffset dy="3" input="SourceAlpha"/>
      <feGaussianBlur stdDeviation="3" result="blur"/>
      <feFlood flood-opacity="0.161"/>
      <feComposite operator="in" in2="blur"/>
      <feComposite in="SourceGraphic"/>
    </filter>
  </defs>
  <g id="Grupo_4570" data-name="Grupo 4570" transform="translate(0.5 0.244)">
    <g id="Image_Place_Holder" data-name="Image Place Holder" transform="translate(0 0)">
      <rect id="Image_Place_Holder-2" data-name="Image Place Holder" width="373" height="218" rx="10" transform="translate(0 0.256)" fill="none" stroke="#d9d9d9" stroke-linecap="round" stroke-linejoin="round" stroke-width="1"/>
    </g>
    <path id="Trazado_133678" data-name="Trazado 133678" d="M-44.123-13.508l3.47,9.8,3.451-9.8h3.655V0h-2.792V-3.692l.278-6.374L-39.707,0h-1.911l-3.637-10.057.278,6.364V0H-47.76V-13.508ZM-23.49-2.783h-4.88L-29.3,0h-2.959l5.028-13.508h2.579L-19.594,0h-2.959Zm-4.128-2.254h3.377l-1.7-5.056ZM-7.645-1.707a4.831,4.831,0,0,1-2.125,1.4,8.9,8.9,0,0,1-3.043.5A6.028,6.028,0,0,1-15.887-.58,5.1,5.1,0,0,1-17.928-2.8a7.82,7.82,0,0,1-.738-3.423v-.918a8.305,8.305,0,0,1,.682-3.5,5.044,5.044,0,0,1,1.967-2.264,5.665,5.665,0,0,1,3.01-.784A5.642,5.642,0,0,1-9.25-12.548a4.9,4.9,0,0,1,1.6,3.335h-2.709a2.693,2.693,0,0,0-.821-1.7,2.622,2.622,0,0,0-1.749-.538,2.468,2.468,0,0,0-2.162,1.067,5.61,5.61,0,0,0-.751,3.173v.863a5.341,5.341,0,0,0,.807,3.21A2.764,2.764,0,0,0-12.664-2.05a3.087,3.087,0,0,0,2.236-.668V-5.047H-12.96V-7.1h5.316ZM5.594,0H2.811L-2.607-8.888V0H-5.39V-13.508h2.783L2.82-4.6v-8.906H5.594Zm5.39,0H8.2V-13.508h2.783ZM23.731-11.253H19.594V0H16.811V-11.253H12.729v-2.254h11Zm11.81-2.254v8.9A4.555,4.555,0,0,1,34.155-1.1a5.347,5.347,0,0,1-3.79,1.29,5.407,5.407,0,0,1-3.757-1.252,4.477,4.477,0,0,1-1.419-3.442v-9h2.783v8.916a2.574,2.574,0,0,0,.635,1.934,2.44,2.44,0,0,0,1.758.608q2.347,0,2.384-2.468v-8.99ZM37.824,0V-13.508H41.98a6.312,6.312,0,0,1,3.187.8,5.6,5.6,0,0,1,2.194,2.282,7.039,7.039,0,0,1,.789,3.363v.622a7.059,7.059,0,0,1-.775,3.349A5.548,5.548,0,0,1,45.19-.816,6.359,6.359,0,0,1,42.008,0Zm2.783-11.253v9.018h1.345a3.022,3.022,0,0,0,2.5-1.067,4.821,4.821,0,0,0,.881-3.052v-.714a4.9,4.9,0,0,0-.854-3.122,3.012,3.012,0,0,0-2.5-1.062Z" transform="translate(181.651 154.109)" fill="#00223d"/>
    <g id="Grupo_41846" data-name="Grupo 41846" transform="translate(165.414 73.403)">
      <rect id="Rectángulo_2211" data-name="Rectángulo 2211" width="39" height="38" rx="5" transform="translate(-0.414 -0.146)" fill="#37a3a5"/>
      <g transform="matrix(1, 0, 0, 1, -165.91, -73.65)" filter="url(#Rectángulo_2215)">
        <rect id="Rectángulo_2215-2" data-name="Rectángulo 2215" width="29" height="29" rx="5" transform="translate(171.5 77.5)" fill="#fff" opacity="0.21"/>
      </g>
    </g>
    <path id="Trazado_133679" data-name="Trazado 133679" d="M7.348,0H4.377V-9.457L1.459-8.6v-2.25L7.075-12.8h.272Z" transform="translate(179 97.256)" fill="#fff"/>
  </g>
</svg>
