<svg xmlns="http://www.w3.org/2000/svg" width="199.155" height="275.986" viewBox="0 0 199.155 275.986">
  <g id="Grupo_64431" data-name="Grupo 64431" transform="translate(-604.824 -22299.063)">
    <g id="Grupo_64142" data-name="Grupo 64142" transform="translate(440.555 21660.803)">
      <g id="Grupo_64140" data-name="Grupo 64140" transform="translate(164.269 827.527)">
        <path id="Trazado_133401" data-name="Trazado 133401" d="M252.575,921.292H164.269V840.915a6.341,6.341,0,1,1,12.681,0v67.7h75.624a6.341,6.341,0,0,1,0,12.681Z" transform="translate(-164.269 -834.574)" fill="#37a3a5"/>
      </g>
      <path id="Trazado_133408" data-name="Trazado 133408" d="M334.777,658.021V640.053H170.848V907.894H334.777V711.459" transform="translate(-0.238 0)" fill="none" stroke="#12263f" stroke-linecap="round" stroke-miterlimit="10" stroke-width="3.588"/>
      <path id="Trazado_133409" data-name="Trazado 133409" d="M366.69,675.313l-8.711,43.251H254.412l8.711-43.251Z" transform="translate(-3.266 -12.277)" fill="#37a3a5"/>
      <g id="Grupo_64154" data-name="Grupo 64154" transform="translate(310.439 661.236)">
        <g id="Grupo_64153" data-name="Grupo 64153">
          <g id="Grupo_64152" data-name="Grupo 64152">
            <path id="Trazado_133706" data-name="Trazado 133706" d="M15.806-8.818q0,4.424-1.831,6.768A6.391,6.391,0,0,1,8.613.293a6.436,6.436,0,0,1-5.332-2.3A10.488,10.488,0,0,1,1.392-8.6v-3.926q0-4.468,1.853-6.782a6.439,6.439,0,0,1,5.339-2.314,6.445,6.445,0,0,1,5.332,2.292,10.456,10.456,0,0,1,1.89,6.584Zm-4.233-4.316A7.81,7.81,0,0,0,10.847-17a2.45,2.45,0,0,0-2.263-1.21,2.407,2.407,0,0,0-2.2,1.151,7.309,7.309,0,0,0-.754,3.6v5.191a8.2,8.2,0,0,0,.71,3.878A2.418,2.418,0,0,0,8.613-3.12a2.377,2.377,0,0,0,2.241-1.217,8,8,0,0,0,.718-3.724Zm11.4.6h2.256a3.179,3.179,0,0,0,2.388-.806,2.952,2.952,0,0,0,.776-2.139,2.61,2.61,0,0,0-.769-2.007,2.98,2.98,0,0,0-2.117-.718,3.124,3.124,0,0,0-2.036.667,2.131,2.131,0,0,0-.82,1.736H18.413a5.206,5.206,0,0,1,.9-3,6,6,0,0,1,2.52-2.073,8.409,8.409,0,0,1,3.567-.747A7.975,7.975,0,0,1,30.7-20a5.523,5.523,0,0,1,1.919,4.46,4.488,4.488,0,0,1-.894,2.7,5.805,5.805,0,0,1-2.344,1.89,5.3,5.3,0,0,1,2.688,1.934,5.245,5.245,0,0,1,.886,3.047,5.614,5.614,0,0,1-2.073,4.556A8.334,8.334,0,0,1,25.4.293a7.9,7.9,0,0,1-5.222-1.685,5.5,5.5,0,0,1-2.029-4.453h4.233a2.453,2.453,0,0,0,.9,1.963A3.32,3.32,0,0,0,25.5-3.12a3.335,3.335,0,0,0,2.366-.8,2.756,2.756,0,0,0,.857-2.117q0-3.193-3.516-3.193H22.969Z" transform="translate(6 34)" fill="#12263f"/>
          </g>
        </g>
      </g>
      <g id="fdJcr5.tif" transform="translate(190.757 660.089)">
        <g id="Grupo_56634" data-name="Grupo 56634">
          <path id="Trazado_122991" data-name="Trazado 122991" d="M-490.865,248.4h-4.447c-.179.686-.334,1.341-.526,1.981A17.091,17.091,0,0,1-498,255.014a.519.519,0,0,0,.072.8c.95.91,1.871,1.85,2.749,2.722l-4.69,4.692-3.022-3.136a18.955,18.955,0,0,1-7.114,2.98v4.473h-6.622V263.08a18.883,18.883,0,0,1-7.057-2.929l-3.123,3.165-4.669-4.7,3.132-3.094a18.9,18.9,0,0,1-2.952-7.1h-4.487v-6.633h4.405a31.3,31.3,0,0,1,.944-3.045c.515-1.223,1.157-2.4,1.791-3.567.182-.338.22-.519-.082-.8-.957-.9-1.882-1.839-2.76-2.705l4.684-4.694,3.039,3.119a19,19,0,0,1,7.116-2.982v-4.468h6.624v4.468a18.733,18.733,0,0,1,7.053,2.929l3.134-3.153,4.69,4.724c-.853.849-1.738,1.767-2.665,2.642a.653.653,0,0,0-.131,1.02,16.735,16.735,0,0,1,2.456,5.953c.085.427.258.572.705.562,1.292-.034,2.585-.013,3.913-.013Zm-8.459,7.167a18.062,18.062,0,0,0,3.315-7.969h4.354v-5.026h-4.363a18,18,0,0,0-3.307-7.959l3.053-3.037-3.539-3.522-3.03,3.047a18.051,18.051,0,0,0-7.974-3.326v-4.344h-5.03v4.35a18.072,18.072,0,0,0-8.033,3.368l-2.933-3.049-3.609,3.6,2.965,2.878c-.7,1.326-1.457,2.549-2,3.86s-.866,2.705-1.316,4.16h-4.217v5.009h4.35a18.083,18.083,0,0,0,3.33,7.986l-3.047,3.032,3.537,3.531,3.037-3.047a18.066,18.066,0,0,0,7.957,3.3v4.342h5.03v-4.35a18.208,18.208,0,0,0,8.029-3.364l2.933,3.056,3.541-3.541Z" transform="translate(535.78 -222.644)" fill="#12263f" stroke="#000" stroke-miterlimit="10" stroke-width="0.5"/>
          <path id="Trazado_122992" data-name="Trazado 122992" d="M-506.552,238.883c0,1.694,0,3.387,0,5.081,0,1.069-.361,1.44-1.406,1.449a7.194,7.194,0,0,0-2.293.059c-.663.247-1.149.959-1.725,1.451a10.5,10.5,0,0,1-14.467-.933,1.513,1.513,0,0,0-1.354-.585,18.709,18.709,0,0,1-1.917,0,1.1,1.1,0,0,1-1.189-1.2q-.016-5.366,0-10.729a1.109,1.109,0,0,1,1.233-1.221c.733-.019,1.47.03,2.2-.021a1.294,1.294,0,0,0,.807-.361,10.55,10.55,0,0,1,15.9.038,1.138,1.138,0,0,0,.71.325c.75.042,1.5,0,2.257.019a1.118,1.118,0,0,1,1.246,1.263C-506.546,235.305-506.552,237.094-506.552,238.883Zm-12.21,5.735q5.306,0,10.613,0c.8,0,.807-.006.807-.83q0-5,0-10c0-.726-.019-.745-.775-.745q-10.643,0-21.286-.011c-.532,0-.733.148-.729.7q.028,5.084,0,10.165c0,.572.192.735.754.731C-525.838,244.607-522.3,244.62-518.762,244.618Zm7.123-12.4c-4.143-4.625-11.314-3.664-14.1,0Zm-14.144,13.23a9.529,9.529,0,0,0,14.1,0Z" transform="translate(541.19 -216.381)" fill="#12263f"/>
          <path id="Trazado_122993" data-name="Trazado 122993" d="M-527.558,235.68l-.864,1.183-.672-.786,1.1-.872-.089-.173h-1.436v-.807h1.411l.1-.158-1.151-.779.108-.247.743-.435.731.976.2-.116v-1.4h.811v1.413l.152.074.923-1.214.511.786.2.072-1.109.828.1.175h1.4v.8h-1.577l1.13,1.183-.688.393-.99-.946v1.542h-.815v-1.379Z" transform="translate(542.747 -212.167)" fill="#12263f"/>
          <path id="Trazado_122994" data-name="Trazado 122994" d="M-522.911,233.187l.731-.741.935,1.151.148-.1v-1.423h.781v1.565l1.221-1.13.494.558-1.092,1.142c.492,0,.849.011,1.206,0,.279-.011.408.078.41.384s-.091.45-.418.431a3.055,3.055,0,0,0-1.1.116l1.147.952-.671.57-.133.12-.866-1.166-.173.106v1.449h-.788v-1.586l-1.1,1.254-.568-.771,1.039-.842-.1-.175h-1.4v-.836h1.379l.055-.116Z" transform="translate(549.765 -212.161)" fill="#12263f"/>
          <path id="Trazado_122995" data-name="Trazado 122995" d="M-522.654,234.223h1.41v.783h-1.41l-.133.186,1.288.832-.794.686-.836-1.117-.239.141-.063,1.43h-.743l-.076-1.518-1.126,1.077-.543-.716,1.037-.851-.057-.12h-1.411v-.83h1.539l-1.109-1.17.64-.638.923,1.147.131-.063v-1.411h.815v1.4l.139.084.8-1.132.251.078.412.572.186.135-1.13.866Z" transform="translate(546.264 -212.164)" fill="#12263f"/>
        </g>
      </g>
    </g>
    <g id="Grupo_64148" data-name="Grupo 64148" transform="translate(639.851 22378.654)">
      <path id="Trazado_133709" data-name="Trazado 133709" d="M27.729,11.067a3.4,3.4,0,0,1-1.082,2.263,3.547,3.547,0,0,1-2.422.8A3.257,3.257,0,0,1,21.6,12.953a4.724,4.724,0,0,1-.987-3.142V8.922a5.266,5.266,0,0,1,.46-2.266,3.438,3.438,0,0,1,1.3-1.5,3.632,3.632,0,0,1,1.955-.524,3.34,3.34,0,0,1,2.361.822,3.441,3.441,0,0,1,1.035,2.276H26.5a2.655,2.655,0,0,0-.689-1.6,2.084,2.084,0,0,0-1.482-.5,2.181,2.181,0,0,0-1.831.864,3.966,3.966,0,0,0-.663,2.459v.9a4.077,4.077,0,0,0,.628,2.4,2.031,2.031,0,0,0,1.758.889,2.345,2.345,0,0,0,1.558-.46,2.554,2.554,0,0,0,.72-1.6Zm4.6-2.882a3.519,3.519,0,0,0-.578-.044,1.547,1.547,0,0,0-1.568.984V14H29.013V7.132h1.143l.019.793A1.829,1.829,0,0,1,31.812,7a1.2,1.2,0,0,1,.521.089Zm3.734,5.941a3,3,0,0,1-2.272-.917,3.4,3.4,0,0,1-.876-2.453v-.216a4.121,4.121,0,0,1,.39-1.825A3.045,3.045,0,0,1,34.4,7.459,2.745,2.745,0,0,1,35.921,7,2.572,2.572,0,0,1,38,7.887a3.82,3.82,0,0,1,.743,2.526V10.9H34.093a2.441,2.441,0,0,0,.594,1.641,1.866,1.866,0,0,0,1.444.625,2.045,2.045,0,0,0,1.054-.254,2.648,2.648,0,0,0,.755-.673l.717.559A2.884,2.884,0,0,1,36.067,14.127ZM35.921,7.97a1.566,1.566,0,0,0-1.193.517,2.515,2.515,0,0,0-.6,1.45h3.44V9.849a2.237,2.237,0,0,0-.482-1.387A1.475,1.475,0,0,0,35.921,7.97ZM44.149,14a2.467,2.467,0,0,1-.165-.724,2.62,2.62,0,0,1-1.955.851,2.424,2.424,0,0,1-1.666-.574,1.859,1.859,0,0,1-.651-1.457,1.942,1.942,0,0,1,.816-1.666,3.846,3.846,0,0,1,2.295-.594h1.143V9.3a1.319,1.319,0,0,0-.368-.981,1.48,1.48,0,0,0-1.085-.365,1.712,1.712,0,0,0-1.054.317.935.935,0,0,0-.425.768H39.852a1.621,1.621,0,0,1,.365-.993,2.491,2.491,0,0,1,.99-.759A3.331,3.331,0,0,1,42.581,7a2.715,2.715,0,0,1,1.86.594,2.141,2.141,0,0,1,.7,1.635v3.161a3.865,3.865,0,0,0,.241,1.5V14ZM42.2,13.1a2.064,2.064,0,0,0,1.047-.286,1.728,1.728,0,0,0,.717-.743V10.667h-.92q-2.158,0-2.158,1.263a1.069,1.069,0,0,0,.368.863A1.415,1.415,0,0,0,42.2,13.1Zm7.9-4.919a3.519,3.519,0,0,0-.578-.044,1.547,1.547,0,0,0-1.568.984V14H46.785V7.132h1.143l.019.793A1.829,1.829,0,0,1,49.585,7a1.2,1.2,0,0,1,.521.089ZM56.26,12.28l1.6-5.148h1.257L56.355,15.06q-.641,1.714-2.038,1.714l-.222-.019-.438-.083V15.72l.317.025a1.563,1.563,0,0,0,.93-.241,1.746,1.746,0,0,0,.549-.882l.26-.7-2.45-6.792h1.282Zm10.972,1.041a2.494,2.494,0,0,1-2.012.806,2.135,2.135,0,0,1-1.673-.638,2.761,2.761,0,0,1-.581-1.888V7.132h1.174v4.437q0,1.562,1.27,1.562a1.758,1.758,0,0,0,1.79-1v-5h1.174V14H67.257Zm6.73-1.143a.864.864,0,0,0-.359-.74,3.452,3.452,0,0,0-1.25-.454,5.912,5.912,0,0,1-1.416-.457,2.014,2.014,0,0,1-.774-.635,1.518,1.518,0,0,1-.251-.876,1.782,1.782,0,0,1,.714-1.428A2.789,2.789,0,0,1,72.451,7a2.87,2.87,0,0,1,1.895.6,1.915,1.915,0,0,1,.727,1.542H73.892a1.06,1.06,0,0,0-.409-.832,1.534,1.534,0,0,0-1.031-.349,1.606,1.606,0,0,0-1,.279.879.879,0,0,0-.362.73.712.712,0,0,0,.336.641,4.139,4.139,0,0,0,1.216.413,6.334,6.334,0,0,1,1.425.47,2.079,2.079,0,0,1,.809.657,1.615,1.615,0,0,1,.263.936,1.758,1.758,0,0,1-.736,1.476,3.089,3.089,0,0,1-1.911.555,3.459,3.459,0,0,1-1.46-.292,2.375,2.375,0,0,1-.993-.816,1.966,1.966,0,0,1-.359-1.133h1.174a1.216,1.216,0,0,0,.473.936,1.835,1.835,0,0,0,1.165.346,1.894,1.894,0,0,0,1.07-.27A.829.829,0,0,0,73.962,12.178ZM80.712,14a2.467,2.467,0,0,1-.165-.724,2.62,2.62,0,0,1-1.955.851,2.424,2.424,0,0,1-1.666-.574,1.859,1.859,0,0,1-.651-1.457,1.942,1.942,0,0,1,.816-1.666,3.846,3.846,0,0,1,2.295-.594h1.143V9.3a1.319,1.319,0,0,0-.368-.981,1.48,1.48,0,0,0-1.085-.365,1.712,1.712,0,0,0-1.054.317.935.935,0,0,0-.425.768H76.414a1.621,1.621,0,0,1,.365-.993,2.491,2.491,0,0,1,.99-.759A3.331,3.331,0,0,1,79.144,7,2.715,2.715,0,0,1,81,7.6a2.141,2.141,0,0,1,.7,1.635v3.161a3.865,3.865,0,0,0,.241,1.5V14Zm-1.949-.9a2.064,2.064,0,0,0,1.047-.286,1.728,1.728,0,0,0,.717-.743V10.667h-.92q-2.158,0-2.158,1.263a1.069,1.069,0,0,0,.368.863A1.415,1.415,0,0,0,78.763,13.1Zm7.9-4.919a3.519,3.519,0,0,0-.578-.044,1.547,1.547,0,0,0-1.568.984V14H83.348V7.132H84.49l.019.793A1.829,1.829,0,0,1,86.147,7a1.2,1.2,0,0,1,.521.089ZM10.34,27.168a1.692,1.692,0,0,0,1.1-.381,1.34,1.34,0,0,0,.521-.952H13.07a2.13,2.13,0,0,1-.406,1.124,2.676,2.676,0,0,1-1,.851,2.885,2.885,0,0,1-1.323.317,2.829,2.829,0,0,1-2.231-.936,3.729,3.729,0,0,1-.828-2.561v-.2a4.135,4.135,0,0,1,.368-1.784,2.8,2.8,0,0,1,1.057-1.212A3,3,0,0,1,10.334,21a2.755,2.755,0,0,1,1.92.692,2.473,2.473,0,0,1,.816,1.8H11.959a1.618,1.618,0,0,0-.5-1.095,1.57,1.57,0,0,0-1.12-.428,1.644,1.644,0,0,0-1.387.644,3.026,3.026,0,0,0-.492,1.863V24.7a2.965,2.965,0,0,0,.489,1.828A1.651,1.651,0,0,0,10.34,27.168ZM13.884,24.5a4.057,4.057,0,0,1,.4-1.815,2.96,2.96,0,0,1,1.1-1.244A3.007,3.007,0,0,1,17,21a2.9,2.9,0,0,1,2.269.971,3.736,3.736,0,0,1,.866,2.583v.083a4.092,4.092,0,0,1-.384,1.8,2.916,2.916,0,0,1-1.1,1.241,3.041,3.041,0,0,1-1.641.444,2.889,2.889,0,0,1-2.263-.971,3.718,3.718,0,0,1-.866-2.571Zm1.181.14a2.938,2.938,0,0,0,.53,1.834,1.8,1.8,0,0,0,2.841-.01,3.213,3.213,0,0,0,.527-1.965,2.933,2.933,0,0,0-.536-1.831A1.705,1.705,0,0,0,17,21.97a1.686,1.686,0,0,0-1.4.692A3.189,3.189,0,0,0,15.064,24.642Zm7.46-3.51.038.863A2.5,2.5,0,0,1,24.619,21q2.177,0,2.2,2.457V28H25.641V23.455a1.581,1.581,0,0,0-.34-1.1A1.361,1.361,0,0,0,24.264,22a1.7,1.7,0,0,0-1,.3,2.069,2.069,0,0,0-.673.8V28H21.414V21.132Zm7.46-1.663v1.663h1.282v.908H29.985V26.3a.953.953,0,0,0,.171.62.721.721,0,0,0,.584.207,2.843,2.843,0,0,0,.559-.076V28a3.424,3.424,0,0,1-.9.126,1.462,1.462,0,0,1-1.187-.476,2.045,2.045,0,0,1-.4-1.352V22.04H27.56v-.908h1.25V19.469Zm5.778,2.717a3.519,3.519,0,0,0-.578-.044,1.547,1.547,0,0,0-1.568.984V28H32.443V21.132h1.143l.019.793A1.829,1.829,0,0,1,35.243,21a1.2,1.2,0,0,1,.521.089ZM40.634,28a2.467,2.467,0,0,1-.165-.724,2.62,2.62,0,0,1-1.955.851,2.424,2.424,0,0,1-1.666-.574A1.859,1.859,0,0,1,36.2,26.1a1.942,1.942,0,0,1,.816-1.666,3.846,3.846,0,0,1,2.295-.594H40.45V23.3a1.319,1.319,0,0,0-.368-.981A1.48,1.48,0,0,0,39,21.951a1.712,1.712,0,0,0-1.054.317.935.935,0,0,0-.425.768H36.336a1.621,1.621,0,0,1,.365-.993,2.491,2.491,0,0,1,.99-.759A3.331,3.331,0,0,1,39.066,21a2.715,2.715,0,0,1,1.86.594,2.141,2.141,0,0,1,.7,1.635v3.161a3.865,3.865,0,0,0,.241,1.5V28Zm-1.949-.9a2.064,2.064,0,0,0,1.047-.286,1.728,1.728,0,0,0,.717-.743V24.667h-.92q-2.158,0-2.158,1.263a1.069,1.069,0,0,0,.368.863A1.415,1.415,0,0,0,38.685,27.1Zm8.584-.927a.865.865,0,0,0-.359-.74,3.452,3.452,0,0,0-1.25-.454,5.912,5.912,0,0,1-1.416-.457,2.014,2.014,0,0,1-.774-.635,1.518,1.518,0,0,1-.251-.876,1.782,1.782,0,0,1,.714-1.428A2.789,2.789,0,0,1,45.758,21a2.87,2.87,0,0,1,1.895.6,1.915,1.915,0,0,1,.727,1.542H47.2a1.06,1.06,0,0,0-.409-.832,1.534,1.534,0,0,0-1.031-.349,1.606,1.606,0,0,0-1,.279.879.879,0,0,0-.362.73.712.712,0,0,0,.336.641,4.139,4.139,0,0,0,1.216.413,6.334,6.334,0,0,1,1.425.47,2.079,2.079,0,0,1,.809.657,1.615,1.615,0,0,1,.263.936,1.758,1.758,0,0,1-.736,1.476,3.089,3.089,0,0,1-1.911.555,3.459,3.459,0,0,1-1.46-.292,2.375,2.375,0,0,1-.993-.816,1.966,1.966,0,0,1-.359-1.133h1.174a1.216,1.216,0,0,0,.473.936,1.835,1.835,0,0,0,1.165.346,1.894,1.894,0,0,0,1.07-.27A.829.829,0,0,0,47.269,26.178Zm5.359,1.949a3,3,0,0,1-2.272-.917,3.4,3.4,0,0,1-.876-2.453v-.216a4.121,4.121,0,0,1,.39-1.825,3.045,3.045,0,0,1,1.092-1.257A2.745,2.745,0,0,1,52.482,21a2.572,2.572,0,0,1,2.082.882,3.82,3.82,0,0,1,.743,2.526V24.9H50.654a2.441,2.441,0,0,0,.594,1.641,1.866,1.866,0,0,0,1.444.625,2.045,2.045,0,0,0,1.054-.254,2.648,2.648,0,0,0,.755-.673l.717.559A2.884,2.884,0,0,1,52.628,28.127Zm-.146-6.157a1.566,1.566,0,0,0-1.193.517,2.515,2.515,0,0,0-.6,1.45h3.44v-.089a2.237,2.237,0,0,0-.482-1.387A1.475,1.475,0,0,0,52.482,21.97Zm5.1-.838.038.863A2.5,2.5,0,0,1,59.676,21q2.177,0,2.2,2.457V28H60.7V23.455a1.581,1.581,0,0,0-.34-1.1A1.361,1.361,0,0,0,59.32,22a1.7,1.7,0,0,0-1,.3,2.069,2.069,0,0,0-.673.8V28H56.47V21.132Zm3.885-2.679a1.578,1.578,0,0,1-.39,1.111,1.268,1.268,0,0,1-.974.425,1.43,1.43,0,0,1-.451-.063,2.432,2.432,0,0,1-.5-.26,2.158,2.158,0,0,0-.444-.238,1.087,1.087,0,0,0-.314-.041.582.582,0,0,0-.444.2.725.725,0,0,0-.184.511l-.787-.044a1.657,1.657,0,0,1,.384-1.124,1.232,1.232,0,0,1,.974-.444,1.183,1.183,0,0,1,.4.063,2.915,2.915,0,0,1,.482.248,2.839,2.839,0,0,0,.467.241,1.072,1.072,0,0,0,.359.057.568.568,0,0,0,.454-.216.757.757,0,0,0,.181-.5ZM67.688,28a2.467,2.467,0,0,1-.165-.724,2.62,2.62,0,0,1-1.955.851,2.424,2.424,0,0,1-1.666-.574,1.859,1.859,0,0,1-.651-1.457,1.942,1.942,0,0,1,.816-1.666,3.846,3.846,0,0,1,2.295-.594H67.5V23.3a1.319,1.319,0,0,0-.368-.981,1.48,1.48,0,0,0-1.085-.365A1.712,1.712,0,0,0,65,22.268a.935.935,0,0,0-.425.768H63.391a1.621,1.621,0,0,1,.365-.993,2.491,2.491,0,0,1,.99-.759A3.331,3.331,0,0,1,66.12,21a2.715,2.715,0,0,1,1.86.594,2.141,2.141,0,0,1,.7,1.635v3.161a3.865,3.865,0,0,0,.241,1.5V28Zm-1.949-.9a2.064,2.064,0,0,0,1.047-.286,1.728,1.728,0,0,0,.717-.743V24.667h-.92q-2.158,0-2.158,1.263a1.069,1.069,0,0,0,.368.863A1.415,1.415,0,0,0,65.739,27.1Zm8.584-.927a.864.864,0,0,0-.359-.74,3.452,3.452,0,0,0-1.25-.454,5.912,5.912,0,0,1-1.416-.457,2.014,2.014,0,0,1-.774-.635,1.518,1.518,0,0,1-.251-.876,1.782,1.782,0,0,1,.714-1.428A2.789,2.789,0,0,1,72.812,21a2.87,2.87,0,0,1,1.895.6,1.915,1.915,0,0,1,.727,1.542H74.253a1.06,1.06,0,0,0-.409-.832,1.534,1.534,0,0,0-1.031-.349,1.606,1.606,0,0,0-1,.279.879.879,0,0,0-.362.73.712.712,0,0,0,.336.641A4.139,4.139,0,0,0,73,24.033a6.334,6.334,0,0,1,1.425.47,2.079,2.079,0,0,1,.809.657,1.615,1.615,0,0,1,.263.936,1.758,1.758,0,0,1-.736,1.476,3.089,3.089,0,0,1-1.911.555,3.459,3.459,0,0,1-1.46-.292,2.375,2.375,0,0,1-.993-.816,1.966,1.966,0,0,1-.359-1.133h1.174a1.216,1.216,0,0,0,.473.936,1.835,1.835,0,0,0,1.165.346,1.894,1.894,0,0,0,1.07-.27A.829.829,0,0,0,74.323,26.178Zm5.247-1.669a4.031,4.031,0,0,1,.743-2.561,2.621,2.621,0,0,1,3.917-.124l.051-.692h1.079v9.509H84.185V27.365a2.465,2.465,0,0,1-1.892.762,2.369,2.369,0,0,1-1.984-.968,4.121,4.121,0,0,1-.74-2.568Zm1.174.133a3.056,3.056,0,0,0,.5,1.854,1.585,1.585,0,0,0,1.343.673,1.758,1.758,0,0,0,1.6-.927V22.877A1.764,1.764,0,0,0,82.6,21.97a1.6,1.6,0,0,0-1.352.676A3.327,3.327,0,0,0,80.744,24.642Zm10.545,2.679a2.494,2.494,0,0,1-2.012.806,2.135,2.135,0,0,1-1.673-.638,2.761,2.761,0,0,1-.581-1.888V21.132H88.2v4.437q0,1.562,1.27,1.562a1.758,1.758,0,0,0,1.79-1v-5h1.174V28H91.315Zm5.581.806A3,3,0,0,1,94.6,27.21a3.4,3.4,0,0,1-.876-2.453v-.216a4.121,4.121,0,0,1,.39-1.825A3.045,3.045,0,0,1,95.2,21.459,2.745,2.745,0,0,1,96.725,21a2.572,2.572,0,0,1,2.082.882,3.82,3.82,0,0,1,.743,2.526V24.9H94.9a2.441,2.441,0,0,0,.594,1.641,1.866,1.866,0,0,0,1.444.625,2.045,2.045,0,0,0,1.054-.254,2.648,2.648,0,0,0,.755-.673l.717.559A2.884,2.884,0,0,1,96.871,28.127Zm-.146-6.157a1.566,1.566,0,0,0-1.193.517,2.515,2.515,0,0,0-.6,1.45h3.44v-.089a2.237,2.237,0,0,0-.482-1.387A1.475,1.475,0,0,0,96.725,21.97Zm-85.937,19.2a1.692,1.692,0,0,0,1.1-.381,1.34,1.34,0,0,0,.521-.952h1.111a2.13,2.13,0,0,1-.406,1.124,2.676,2.676,0,0,1-1,.851,2.885,2.885,0,0,1-1.323.317,2.829,2.829,0,0,1-2.231-.936,3.729,3.729,0,0,1-.828-2.561v-.2A4.135,4.135,0,0,1,8.1,36.649a2.8,2.8,0,0,1,1.057-1.212A3,3,0,0,1,10.781,35a2.755,2.755,0,0,1,1.92.692,2.473,2.473,0,0,1,.816,1.8H12.406a1.618,1.618,0,0,0-.5-1.095,1.57,1.57,0,0,0-1.12-.428,1.644,1.644,0,0,0-1.387.644A3.026,3.026,0,0,0,8.9,38.477V38.7a2.965,2.965,0,0,0,.489,1.828A1.651,1.651,0,0,0,10.788,41.168Zm8.1.152a2.494,2.494,0,0,1-2.012.806,2.135,2.135,0,0,1-1.673-.638,2.761,2.761,0,0,1-.581-1.888V35.132h1.174v4.437q0,1.562,1.27,1.562a1.758,1.758,0,0,0,1.79-1v-5h1.174V42H18.908Zm3.836-6.189.032.762A2.536,2.536,0,0,1,24.788,35a1.964,1.964,0,0,1,1.961,1.1,2.6,2.6,0,0,1,.892-.8,2.634,2.634,0,0,1,1.3-.3q2.26,0,2.3,2.393V42H30.063V37.468a1.577,1.577,0,0,0-.336-1.1A1.482,1.482,0,0,0,28.6,36a1.557,1.557,0,0,0-1.085.39,1.584,1.584,0,0,0-.5,1.051V42H25.829V37.5A1.31,1.31,0,0,0,24.362,36a1.571,1.571,0,0,0-1.581.984V42H21.608V35.132Zm15.9,3.51a4.113,4.113,0,0,1-.717,2.526,2.3,2.3,0,0,1-1.942.958,2.519,2.519,0,0,1-1.968-.793v3.307H32.813V35.132h1.073l.057.762A2.419,2.419,0,0,1,35.936,35a2.342,2.342,0,0,1,1.958.933,4.157,4.157,0,0,1,.72,2.6Zm-1.174-.133a3.035,3.035,0,0,0-.5-1.834A1.6,1.6,0,0,0,35.587,36a1.726,1.726,0,0,0-1.6.946v3.282a1.73,1.73,0,0,0,1.612.939,1.587,1.587,0,0,0,1.343-.67A3.312,3.312,0,0,0,37.44,38.509ZM41.187,42H40.013V32.25h1.174Zm5.924,0a2.467,2.467,0,0,1-.165-.724,2.62,2.62,0,0,1-1.955.851,2.424,2.424,0,0,1-1.666-.574,1.859,1.859,0,0,1-.651-1.457,1.942,1.942,0,0,1,.816-1.666,3.846,3.846,0,0,1,2.295-.594h1.143V37.3a1.319,1.319,0,0,0-.368-.981,1.48,1.48,0,0,0-1.085-.365,1.712,1.712,0,0,0-1.054.317.935.935,0,0,0-.425.768H42.814a1.621,1.621,0,0,1,.365-.993,2.491,2.491,0,0,1,.99-.759A3.331,3.331,0,0,1,45.544,35a2.715,2.715,0,0,1,1.86.594,2.141,2.141,0,0,1,.7,1.635v3.161a3.865,3.865,0,0,0,.241,1.5V42Zm-1.949-.9a2.064,2.064,0,0,0,1.047-.286,1.728,1.728,0,0,0,.717-.743V38.667h-.92q-2.158,0-2.158,1.263a1.069,1.069,0,0,0,.368.863A1.415,1.415,0,0,0,45.163,41.1Zm5.7-5.973L50.9,36A2.5,2.5,0,0,1,52.953,35q2.177,0,2.2,2.457V42H53.975V37.455a1.581,1.581,0,0,0-.34-1.1A1.361,1.361,0,0,0,52.6,36a1.7,1.7,0,0,0-1,.3,2.069,2.069,0,0,0-.673.8V42H49.747V35.132ZM62.5,41.168a1.692,1.692,0,0,0,1.1-.381,1.34,1.34,0,0,0,.521-.952h1.111a2.13,2.13,0,0,1-.406,1.124,2.676,2.676,0,0,1-1,.851,2.885,2.885,0,0,1-1.323.317,2.829,2.829,0,0,1-2.231-.936,3.729,3.729,0,0,1-.828-2.561v-.2a4.135,4.135,0,0,1,.368-1.784,2.8,2.8,0,0,1,1.057-1.212A3,3,0,0,1,62.5,35a2.755,2.755,0,0,1,1.92.692,2.473,2.473,0,0,1,.816,1.8H64.122a1.618,1.618,0,0,0-.5-1.095,1.57,1.57,0,0,0-1.12-.428,1.644,1.644,0,0,0-1.387.644,3.026,3.026,0,0,0-.492,1.863V38.7a2.965,2.965,0,0,0,.489,1.828A1.651,1.651,0,0,0,62.5,41.168ZM66.047,38.5a4.057,4.057,0,0,1,.4-1.815,2.96,2.96,0,0,1,1.1-1.244A3.007,3.007,0,0,1,69.164,35a2.9,2.9,0,0,1,2.269.971A3.736,3.736,0,0,1,72.3,38.56v.083a4.092,4.092,0,0,1-.384,1.8,2.916,2.916,0,0,1-1.1,1.241,3.041,3.041,0,0,1-1.641.444,2.889,2.889,0,0,1-2.263-.971,3.718,3.718,0,0,1-.866-2.571Zm1.181.14a2.938,2.938,0,0,0,.53,1.834,1.8,1.8,0,0,0,2.841-.01,3.213,3.213,0,0,0,.527-1.965,2.933,2.933,0,0,0-.536-1.831,1.705,1.705,0,0,0-1.425-.7,1.686,1.686,0,0,0-1.4.692A3.189,3.189,0,0,0,67.228,38.642Zm7.46-3.51.038.863A2.5,2.5,0,0,1,76.783,35q2.177,0,2.2,2.457V42H77.8V37.455a1.581,1.581,0,0,0-.34-1.1A1.361,1.361,0,0,0,76.427,36a1.7,1.7,0,0,0-1,.3,2.069,2.069,0,0,0-.673.8V42H73.577V35.132ZM84.854,42H83.68V32.25h1.174Zm1.373-3.5a4.057,4.057,0,0,1,.4-1.815,2.96,2.96,0,0,1,1.1-1.244A3.007,3.007,0,0,1,89.344,35a2.9,2.9,0,0,1,2.269.971,3.736,3.736,0,0,1,.866,2.583v.083a4.092,4.092,0,0,1-.384,1.8A2.916,2.916,0,0,1,91,41.683a3.041,3.041,0,0,1-1.641.444,2.889,2.889,0,0,1-2.263-.971,3.718,3.718,0,0,1-.866-2.571Zm1.181.14a2.938,2.938,0,0,0,.53,1.834,1.8,1.8,0,0,0,2.841-.01,3.213,3.213,0,0,0,.527-1.965,2.933,2.933,0,0,0-.536-1.831,1.705,1.705,0,0,0-1.425-.7,1.686,1.686,0,0,0-1.4.692A3.189,3.189,0,0,0,87.408,38.642Zm10.348,1.536a.864.864,0,0,0-.359-.74,3.452,3.452,0,0,0-1.25-.454,5.912,5.912,0,0,1-1.416-.457,2.014,2.014,0,0,1-.774-.635,1.518,1.518,0,0,1-.251-.876,1.782,1.782,0,0,1,.714-1.428A2.789,2.789,0,0,1,96.246,35a2.87,2.87,0,0,1,1.895.6,1.915,1.915,0,0,1,.727,1.542H97.686a1.06,1.06,0,0,0-.409-.832,1.534,1.534,0,0,0-1.031-.349,1.605,1.605,0,0,0-1,.279.879.879,0,0,0-.362.73.712.712,0,0,0,.336.641,4.139,4.139,0,0,0,1.216.413,6.334,6.334,0,0,1,1.425.47,2.079,2.079,0,0,1,.809.657,1.615,1.615,0,0,1,.263.936,1.758,1.758,0,0,1-.736,1.476,3.089,3.089,0,0,1-1.911.555,3.459,3.459,0,0,1-1.46-.292,2.374,2.374,0,0,1-.993-.816,1.966,1.966,0,0,1-.359-1.133h1.174a1.216,1.216,0,0,0,.473.936,1.835,1.835,0,0,0,1.165.346,1.894,1.894,0,0,0,1.07-.27A.829.829,0,0,0,97.756,40.178ZM6.844,50.186a3.519,3.519,0,0,0-.578-.044,1.547,1.547,0,0,0-1.568.984V56H3.524V49.132H4.667l.019.793A1.829,1.829,0,0,1,6.323,49a1.2,1.2,0,0,1,.521.089Zm3.734,5.941a3,3,0,0,1-2.272-.917,3.4,3.4,0,0,1-.876-2.453v-.216a4.121,4.121,0,0,1,.39-1.825,3.045,3.045,0,0,1,1.092-1.257A2.745,2.745,0,0,1,10.432,49a2.572,2.572,0,0,1,2.082.882,3.82,3.82,0,0,1,.743,2.526V52.9H8.6A2.441,2.441,0,0,0,9.2,54.543a1.866,1.866,0,0,0,1.444.625,2.045,2.045,0,0,0,1.054-.254,2.648,2.648,0,0,0,.755-.673l.717.559A2.884,2.884,0,0,1,10.578,56.127Zm-.146-6.157a1.566,1.566,0,0,0-1.193.517,2.515,2.515,0,0,0-.6,1.45h3.44v-.089a2.237,2.237,0,0,0-.482-1.387A1.475,1.475,0,0,0,10.432,49.97Zm3.7,2.539a4.031,4.031,0,0,1,.743-2.561A2.407,2.407,0,0,1,16.87,49a2.4,2.4,0,0,1,1.923.819l.051-.692h1.079v9.509H18.749V55.365a2.465,2.465,0,0,1-1.892.762,2.369,2.369,0,0,1-1.984-.968,4.121,4.121,0,0,1-.74-2.568Zm1.174.133a3.056,3.056,0,0,0,.5,1.854,1.585,1.585,0,0,0,1.343.673,1.758,1.758,0,0,0,1.6-.927V50.877a1.764,1.764,0,0,0-1.587-.908,1.6,1.6,0,0,0-1.352.676A3.327,3.327,0,0,0,15.309,52.642Zm10.545,2.679a2.494,2.494,0,0,1-2.012.806,2.135,2.135,0,0,1-1.673-.638,2.761,2.761,0,0,1-.581-1.888V49.132h1.174v4.437q0,1.562,1.27,1.562a1.758,1.758,0,0,0,1.79-1v-5H27V56H25.879Zm5.581.806a3,3,0,0,1-2.272-.917,3.4,3.4,0,0,1-.876-2.453v-.216a4.121,4.121,0,0,1,.39-1.825,3.045,3.045,0,0,1,1.092-1.257A2.745,2.745,0,0,1,31.289,49a2.572,2.572,0,0,1,2.082.882,3.82,3.82,0,0,1,.743,2.526V52.9H29.461a2.441,2.441,0,0,0,.594,1.641,1.866,1.866,0,0,0,1.444.625,2.045,2.045,0,0,0,1.054-.254,2.648,2.648,0,0,0,.755-.673l.717.559A2.884,2.884,0,0,1,31.435,56.127Zm-.146-6.157a1.566,1.566,0,0,0-1.193.517,2.515,2.515,0,0,0-.6,1.45h3.44v-.089a2.237,2.237,0,0,0-.482-1.387A1.475,1.475,0,0,0,31.289,49.97Zm7.308.216a3.519,3.519,0,0,0-.578-.044,1.547,1.547,0,0,0-1.568.984V56H35.278V49.132H36.42l.019.793A1.829,1.829,0,0,1,38.077,49a1.2,1.2,0,0,1,.521.089ZM40.757,56H39.583V49.132h1.174Zm-1.27-8.69a.7.7,0,0,1,.175-.482.655.655,0,0,1,.517-.2.666.666,0,0,1,.521.2.694.694,0,0,1,.178.482.671.671,0,0,1-.178.476.678.678,0,0,1-.521.19.667.667,0,0,1-.517-.19A.678.678,0,0,1,39.488,47.31Zm4.058,1.822.032.762A2.536,2.536,0,0,1,45.615,49a1.964,1.964,0,0,1,1.961,1.1,2.6,2.6,0,0,1,.892-.8,2.634,2.634,0,0,1,1.3-.3q2.26,0,2.3,2.393V56H50.89V51.468a1.577,1.577,0,0,0-.336-1.1A1.482,1.482,0,0,0,49.424,50a1.557,1.557,0,0,0-1.085.39,1.584,1.584,0,0,0-.5,1.051V56H46.656V51.5A1.31,1.31,0,0,0,45.19,50a1.571,1.571,0,0,0-1.581.984V56H42.435V49.132ZM54.916,56H53.742V49.132h1.174Zm-1.27-8.69a.7.7,0,0,1,.175-.482.655.655,0,0,1,.517-.2.666.666,0,0,1,.521.2.694.694,0,0,1,.178.482.671.671,0,0,1-.178.476.678.678,0,0,1-.521.19.667.667,0,0,1-.517-.19A.678.678,0,0,1,53.647,47.31Zm5.8,8.817a3,3,0,0,1-2.272-.917,3.4,3.4,0,0,1-.876-2.453v-.216a4.121,4.121,0,0,1,.39-1.825,3.045,3.045,0,0,1,1.092-1.257A2.745,2.745,0,0,1,59.3,49a2.572,2.572,0,0,1,2.082.882,3.82,3.82,0,0,1,.743,2.526V52.9H57.476a2.441,2.441,0,0,0,.594,1.641,1.866,1.866,0,0,0,1.444.625,2.045,2.045,0,0,0,1.054-.254,2.648,2.648,0,0,0,.755-.673l.717.559A2.884,2.884,0,0,1,59.45,56.127ZM59.3,49.97a1.566,1.566,0,0,0-1.193.517,2.515,2.515,0,0,0-.6,1.45h3.44v-.089a2.237,2.237,0,0,0-.482-1.387A1.475,1.475,0,0,0,59.3,49.97Zm5.1-.838.038.863A2.5,2.5,0,0,1,66.5,49q2.177,0,2.2,2.457V56H67.52V51.455a1.581,1.581,0,0,0-.34-1.1A1.361,1.361,0,0,0,66.142,50a1.7,1.7,0,0,0-1,.3,2.069,2.069,0,0,0-.673.8V56H63.292V49.132Zm7.46-1.663v1.663h1.282v.908H71.863V54.3a.953.953,0,0,0,.171.62.721.721,0,0,0,.584.207,2.843,2.843,0,0,0,.559-.076V56a3.424,3.424,0,0,1-.9.126,1.462,1.462,0,0,1-1.187-.476,2.045,2.045,0,0,1-.4-1.352V50.04h-1.25v-.908h1.25V47.469Zm2.02,5.034a4.057,4.057,0,0,1,.4-1.815,2.96,2.96,0,0,1,1.1-1.244A3.007,3.007,0,0,1,77,49a2.9,2.9,0,0,1,2.269.971,3.736,3.736,0,0,1,.866,2.583v.083a4.092,4.092,0,0,1-.384,1.8,2.916,2.916,0,0,1-1.1,1.241,3.041,3.041,0,0,1-1.641.444,2.889,2.889,0,0,1-2.263-.971,3.718,3.718,0,0,1-.866-2.571Zm1.181.14a2.938,2.938,0,0,0,.53,1.834,1.8,1.8,0,0,0,2.841-.01,3.213,3.213,0,0,0,.527-1.965,2.933,2.933,0,0,0-.536-1.831A1.705,1.705,0,0,0,77,49.97a1.686,1.686,0,0,0-1.4.692A3.189,3.189,0,0,0,75.064,52.642Zm10.348,1.536a.864.864,0,0,0-.359-.74,3.452,3.452,0,0,0-1.25-.454,5.912,5.912,0,0,1-1.416-.457,2.014,2.014,0,0,1-.774-.635,1.518,1.518,0,0,1-.251-.876,1.782,1.782,0,0,1,.714-1.428A2.789,2.789,0,0,1,83.9,49a2.87,2.87,0,0,1,1.895.6,1.915,1.915,0,0,1,.727,1.542H85.343a1.06,1.06,0,0,0-.409-.832A1.534,1.534,0,0,0,83.9,49.97a1.605,1.605,0,0,0-1,.279.879.879,0,0,0-.362.73.712.712,0,0,0,.336.641,4.139,4.139,0,0,0,1.216.413,6.334,6.334,0,0,1,1.425.47,2.079,2.079,0,0,1,.809.657,1.615,1.615,0,0,1,.263.936,1.758,1.758,0,0,1-.736,1.476,3.089,3.089,0,0,1-1.911.555,3.459,3.459,0,0,1-1.46-.292,2.374,2.374,0,0,1-.993-.816,1.966,1.966,0,0,1-.359-1.133H82.3a1.216,1.216,0,0,0,.473.936,1.835,1.835,0,0,0,1.165.346,1.894,1.894,0,0,0,1.07-.27A.829.829,0,0,0,85.413,54.178Zm5.247-1.669a4.023,4.023,0,0,1,.749-2.542,2.548,2.548,0,0,1,3.872-.136V46.25h1.174V56H95.376l-.057-.736a2.391,2.391,0,0,1-1.961.863,2.346,2.346,0,0,1-1.946-.978A4.069,4.069,0,0,1,90.66,52.6Zm1.174.133a3.046,3.046,0,0,0,.482,1.828,1.56,1.56,0,0,0,1.333.66,1.713,1.713,0,0,0,1.631-1V50.973A1.726,1.726,0,0,0,93.662,50a1.567,1.567,0,0,0-1.346.667A3.354,3.354,0,0,0,91.834,52.642Zm9.1,3.485a3,3,0,0,1-2.272-.917,3.4,3.4,0,0,1-.876-2.453v-.216a4.121,4.121,0,0,1,.39-1.825,3.045,3.045,0,0,1,1.092-1.257,2.745,2.745,0,0,1,1.52-.454,2.572,2.572,0,0,1,2.082.882,3.82,3.82,0,0,1,.743,2.526V52.9H98.958a2.441,2.441,0,0,0,.594,1.641,1.866,1.866,0,0,0,1.444.625,2.045,2.045,0,0,0,1.054-.254,2.648,2.648,0,0,0,.755-.673l.717.559A2.884,2.884,0,0,1,100.932,56.127Zm-.146-6.157a1.566,1.566,0,0,0-1.193.517,2.515,2.515,0,0,0-.6,1.45h3.44v-.089a2.237,2.237,0,0,0-.482-1.387A1.475,1.475,0,0,0,100.786,49.97ZM12.781,70H11.606V60.25h1.174ZM18.7,70a2.467,2.467,0,0,1-.165-.724,2.62,2.62,0,0,1-1.955.851,2.424,2.424,0,0,1-1.666-.574,1.859,1.859,0,0,1-.651-1.457,1.942,1.942,0,0,1,.816-1.666,3.846,3.846,0,0,1,2.295-.594h1.143V65.3a1.319,1.319,0,0,0-.368-.981,1.48,1.48,0,0,0-1.085-.365,1.712,1.712,0,0,0-1.054.317.935.935,0,0,0-.425.768H14.408a1.621,1.621,0,0,1,.365-.993,2.491,2.491,0,0,1,.99-.759A3.331,3.331,0,0,1,17.137,63,2.715,2.715,0,0,1,19,63.6a2.141,2.141,0,0,1,.7,1.635v3.161a3.865,3.865,0,0,0,.241,1.5V70Zm-1.949-.9a2.064,2.064,0,0,0,1.047-.286,1.728,1.728,0,0,0,.717-.743V66.667H17.6q-2.158,0-2.158,1.263a1.069,1.069,0,0,0,.368.863A1.415,1.415,0,0,0,16.756,69.1Zm7.3-2.6a4.057,4.057,0,0,1,.4-1.815,2.96,2.96,0,0,1,1.1-1.244A3.007,3.007,0,0,1,27.17,63a2.9,2.9,0,0,1,2.269.971,3.736,3.736,0,0,1,.866,2.583v.083a4.092,4.092,0,0,1-.384,1.8,2.916,2.916,0,0,1-1.1,1.241,3.041,3.041,0,0,1-1.641.444,2.889,2.889,0,0,1-2.263-.971,3.718,3.718,0,0,1-.866-2.571Zm1.181.14a2.938,2.938,0,0,0,.53,1.834,1.8,1.8,0,0,0,2.841-.01,3.213,3.213,0,0,0,.527-1.965,2.933,2.933,0,0,0-.536-1.831,1.705,1.705,0,0,0-1.425-.7,1.686,1.686,0,0,0-1.4.692A3.189,3.189,0,0,0,25.234,66.642ZM34.9,64.186a3.519,3.519,0,0,0-.578-.044,1.547,1.547,0,0,0-1.568.984V70H31.583V63.132h1.143l.019.793A1.829,1.829,0,0,1,34.383,63a1.2,1.2,0,0,1,.521.089Zm.6,2.323a4.037,4.037,0,0,1,.743-2.555,2.56,2.56,0,0,1,3.929-.06l.057-.762H41.31v6.7a2.794,2.794,0,0,1-.79,2.1A2.916,2.916,0,0,1,38.4,72.7a3.532,3.532,0,0,1-1.454-.317,2.5,2.5,0,0,1-1.085-.87l.609-.7a2.3,2.3,0,0,0,1.847.933,1.8,1.8,0,0,0,1.336-.482,1.844,1.844,0,0,0,.479-1.358v-.59a2.414,2.414,0,0,1-1.923.813,2.346,2.346,0,0,1-1.952-.971A4.244,4.244,0,0,1,35.508,66.509Zm1.181.133a3.08,3.08,0,0,0,.476,1.825,1.547,1.547,0,0,0,1.333.663,1.72,1.72,0,0,0,1.631-1.009V64.985A1.74,1.74,0,0,0,38.51,64a1.561,1.561,0,0,0-1.339.667A3.354,3.354,0,0,0,36.689,66.642ZM47.126,70a2.467,2.467,0,0,1-.165-.724,2.62,2.62,0,0,1-1.955.851,2.424,2.424,0,0,1-1.666-.574,1.859,1.859,0,0,1-.651-1.457,1.942,1.942,0,0,1,.816-1.666,3.846,3.846,0,0,1,2.295-.594h1.143V65.3a1.319,1.319,0,0,0-.368-.981,1.48,1.48,0,0,0-1.085-.365,1.712,1.712,0,0,0-1.054.317.935.935,0,0,0-.425.768H42.829a1.621,1.621,0,0,1,.365-.993,2.491,2.491,0,0,1,.99-.759A3.331,3.331,0,0,1,45.558,63a2.715,2.715,0,0,1,1.86.594,2.141,2.141,0,0,1,.7,1.635v3.161a3.865,3.865,0,0,0,.241,1.5V70Zm-1.949-.9a2.064,2.064,0,0,0,1.047-.286,1.728,1.728,0,0,0,.717-.743V66.667h-.92q-2.158,0-2.158,1.263a1.069,1.069,0,0,0,.368.863A1.415,1.415,0,0,0,45.177,69.1Zm5.7-5.973.038.863A2.5,2.5,0,0,1,52.967,63q2.177,0,2.2,2.457V70H53.989V65.455a1.581,1.581,0,0,0-.34-1.1A1.361,1.361,0,0,0,52.612,64a1.7,1.7,0,0,0-1,.3,2.069,2.069,0,0,0-.673.8V70H49.762V63.132ZM58.016,70H56.841V63.132h1.174Zm-1.27-8.69a.7.7,0,0,1,.175-.482.655.655,0,0,1,.517-.2.666.666,0,0,1,.521.2.694.694,0,0,1,.178.482.671.671,0,0,1-.178.476.678.678,0,0,1-.521.19.667.667,0,0,1-.517-.19A.678.678,0,0,1,56.746,61.31ZM60.8,69.042h4.018V70H59.369v-.863l3.79-5.034H59.427v-.971h5.205v.832ZM70.188,70a2.467,2.467,0,0,1-.165-.724,2.62,2.62,0,0,1-1.955.851,2.424,2.424,0,0,1-1.666-.574,1.859,1.859,0,0,1-.651-1.457,1.942,1.942,0,0,1,.816-1.666,3.846,3.846,0,0,1,2.295-.594H70V65.3a1.319,1.319,0,0,0-.368-.981,1.48,1.48,0,0,0-1.085-.365,1.712,1.712,0,0,0-1.054.317.935.935,0,0,0-.425.768H65.89a1.621,1.621,0,0,1,.365-.993,2.491,2.491,0,0,1,.99-.759A3.331,3.331,0,0,1,68.62,63a2.715,2.715,0,0,1,1.86.594,2.141,2.141,0,0,1,.7,1.635v3.161a3.865,3.865,0,0,0,.241,1.5V70Zm-1.949-.9a2.064,2.064,0,0,0,1.047-.286A1.728,1.728,0,0,0,70,68.077V66.667h-.92q-2.158,0-2.158,1.263a1.069,1.069,0,0,0,.368.863A1.415,1.415,0,0,0,68.239,69.1Zm7.34.063a1.691,1.691,0,0,0,1.1-.381,1.34,1.34,0,0,0,.521-.952h1.111a2.13,2.13,0,0,1-.406,1.124,2.676,2.676,0,0,1-1,.851,2.885,2.885,0,0,1-1.323.317,2.829,2.829,0,0,1-2.231-.936,3.729,3.729,0,0,1-.828-2.561v-.2a4.135,4.135,0,0,1,.368-1.784,2.8,2.8,0,0,1,1.057-1.212A3,3,0,0,1,75.572,63a2.755,2.755,0,0,1,1.92.692,2.473,2.473,0,0,1,.816,1.8H77.2a1.618,1.618,0,0,0-.5-1.095,1.57,1.57,0,0,0-1.12-.428,1.644,1.644,0,0,0-1.387.644,3.026,3.026,0,0,0-.492,1.863V66.7a2.966,2.966,0,0,0,.489,1.828A1.651,1.651,0,0,0,75.579,69.168ZM80.709,70H79.535V63.132h1.174Zm-1.27-8.69a.7.7,0,0,1,.175-.482.655.655,0,0,1,.517-.2.666.666,0,0,1,.521.2.694.694,0,0,1,.178.482.671.671,0,0,1-.178.476.678.678,0,0,1-.521.19.667.667,0,0,1-.517-.19A.678.678,0,0,1,79.44,61.31ZM82.082,66.5a4.057,4.057,0,0,1,.4-1.815,2.96,2.96,0,0,1,1.1-1.244A3.007,3.007,0,0,1,85.2,63a2.9,2.9,0,0,1,2.269.971,3.736,3.736,0,0,1,.866,2.583v.083a4.092,4.092,0,0,1-.384,1.8,2.916,2.916,0,0,1-1.1,1.241,3.041,3.041,0,0,1-1.641.444,2.889,2.889,0,0,1-2.263-.971,3.718,3.718,0,0,1-.866-2.571Zm1.181.14a2.938,2.938,0,0,0,.53,1.834,1.8,1.8,0,0,0,2.841-.01A3.213,3.213,0,0,0,87.16,66.5a2.933,2.933,0,0,0-.536-1.831,1.705,1.705,0,0,0-1.425-.7,1.686,1.686,0,0,0-1.4.692A3.189,3.189,0,0,0,83.263,66.642Zm2.469-6.392h1.422l-1.7,1.866-.946,0Zm4.991,2.882.038.863A2.5,2.5,0,0,1,92.818,63q2.177,0,2.2,2.457V70H93.84V65.455a1.581,1.581,0,0,0-.34-1.1A1.361,1.361,0,0,0,92.462,64a1.7,1.7,0,0,0-1,.3,2.069,2.069,0,0,0-.673.8V70H89.612V63.132Zm5.892,6.252a.735.735,0,0,1,.181-.508.689.689,0,0,1,.543-.2.71.71,0,0,1,.549.2.721.721,0,0,1,.187.508.681.681,0,0,1-.187.489.723.723,0,0,1-.549.2.653.653,0,0,1-.724-.686Z" transform="translate(0 38.885)" fill="#12263f"/>
      <path id="Trazado_133707" data-name="Trazado 133707" d="M-35.209-2.777a3.08,3.08,0,0,1-1.008,2.13,3.436,3.436,0,0,1-2.338.765,3.327,3.327,0,0,1-1.8-.483,3.173,3.173,0,0,1-1.2-1.374,4.958,4.958,0,0,1-.439-2.068v-.8a4.994,4.994,0,0,1,.428-2.127A3.224,3.224,0,0,1-40.333-8.15a3.424,3.424,0,0,1,1.849-.5,3.3,3.3,0,0,1,2.273.765,3.2,3.2,0,0,1,1,2.165h-1.477a2.107,2.107,0,0,0-.536-1.327,1.772,1.772,0,0,0-1.263-.407,1.731,1.731,0,0,0-1.485.707,3.532,3.532,0,0,0-.53,2.073v.757A3.747,3.747,0,0,0-40-1.805a1.643,1.643,0,0,0,1.45.727,1.917,1.917,0,0,0,1.313-.393,2.047,2.047,0,0,0,.557-1.307Zm8.133-1.266a5.234,5.234,0,0,1-.434,2.2A3.278,3.278,0,0,1-28.749-.39,3.409,3.409,0,0,1-30.6.117,3.417,3.417,0,0,1-32.452-.39a3.329,3.329,0,0,1-1.254-1.444A5.07,5.07,0,0,1-34.154-4v-.48a5.189,5.189,0,0,1,.442-2.2,3.325,3.325,0,0,1,1.248-1.462,3.4,3.4,0,0,1,1.849-.507,3.428,3.428,0,0,1,1.849.5,3.283,3.283,0,0,1,1.245,1.441,5.178,5.178,0,0,1,.445,2.188Zm-1.482-.445a3.729,3.729,0,0,0-.536-2.174,1.754,1.754,0,0,0-1.521-.756,1.749,1.749,0,0,0-1.5.753,3.657,3.657,0,0,0-.554,2.13v.492a3.7,3.7,0,0,0,.548,2.174A1.764,1.764,0,0,0-30.6-1.1a1.743,1.743,0,0,0,1.515-.75,3.781,3.781,0,0,0,.53-2.191ZM-18.832,0h-1.482l-3.8-6.053V0H-25.6V-8.531h1.482L-20.3-2.455V-8.531h1.471Zm7.916-7.336h-2.66V0h-1.471V-7.336h-2.637v-1.2h6.768Zm4.254,4.055H-8.314V0H-9.8V-8.531h3a3.49,3.49,0,0,1,2.279.663,2.344,2.344,0,0,1,.8,1.918,2.4,2.4,0,0,1-.413,1.434,2.629,2.629,0,0,1-1.151.888L-3.363-.076V0H-4.951Zm-1.652-1.2h1.523a1.694,1.694,0,0,0,1.172-.378A1.318,1.318,0,0,0-5.2-5.889a1.4,1.4,0,0,0-.39-1.061A1.655,1.655,0,0,0-6.75-7.336H-8.314ZM2.467-1.986h-3.3L-1.529,0H-3.07L.152-8.531h1.33L4.711,0H3.164Zm-2.889-1.2H2.051L.814-6.721ZM10.137-2.2a1.03,1.03,0,0,0-.4-.867A4.759,4.759,0,0,0,8.314-3.68a6.89,6.89,0,0,1-1.641-.691,2.189,2.189,0,0,1-1.166-1.91,2.079,2.079,0,0,1,.841-1.7,3.4,3.4,0,0,1,2.183-.668,3.687,3.687,0,0,1,1.588.328,2.606,2.606,0,0,1,1.1.935,2.4,2.4,0,0,1,.4,1.345H10.137a1.337,1.337,0,0,0-.419-1.046,1.729,1.729,0,0,0-1.2-.378,1.806,1.806,0,0,0-1.128.311,1.034,1.034,0,0,0-.4.867.935.935,0,0,0,.434.782,5,5,0,0,0,1.43.609,6.576,6.576,0,0,1,1.6.674,2.544,2.544,0,0,1,.885.867,2.258,2.258,0,0,1,.281,1.146,2.03,2.03,0,0,1-.817,1.7,3.545,3.545,0,0,1-2.218.63,4.168,4.168,0,0,1-1.7-.343,2.859,2.859,0,0,1-1.207-.946,2.358,2.358,0,0,1-.431-1.406H6.727a1.38,1.38,0,0,0,.48,1.125,2.1,2.1,0,0,0,1.377.4,1.828,1.828,0,0,0,1.163-.313A1.011,1.011,0,0,0,10.137-2.2Zm7.77-1.611H14.4v2.625h4.1V0H12.92V-8.531h5.537v1.2H14.4V-4.98h3.5ZM26.473,0H24.99l-3.8-6.053V0H19.705V-8.531h1.482L25-2.455V-8.531h1.471Zm-1.23-10.687a1.575,1.575,0,0,1-.372,1.072,1.187,1.187,0,0,1-.935.428,1.392,1.392,0,0,1-.4-.05,2.515,2.515,0,0,1-.475-.226,2.346,2.346,0,0,0-.434-.211,1.034,1.034,0,0,0-.278-.035.5.5,0,0,0-.378.167.615.615,0,0,0-.155.437l-.873-.047a1.62,1.62,0,0,1,.372-1.084,1.168,1.168,0,0,1,.929-.439,1.729,1.729,0,0,1,.806.264,1.7,1.7,0,0,0,.776.264.506.506,0,0,0,.381-.167.617.617,0,0,0,.158-.442ZM33-1.986H29.7L29,0H27.463l3.223-8.531h1.33L35.244,0H33.7Zm-2.889-1.2h2.473L31.348-6.721ZM40.67-2.2a1.03,1.03,0,0,0-.4-.867,4.759,4.759,0,0,0-1.427-.615,6.89,6.89,0,0,1-1.641-.691,2.189,2.189,0,0,1-1.166-1.91,2.079,2.079,0,0,1,.841-1.7,3.4,3.4,0,0,1,2.183-.668,3.687,3.687,0,0,1,1.588.328,2.606,2.606,0,0,1,1.1.935,2.4,2.4,0,0,1,.4,1.345H40.67a1.337,1.337,0,0,0-.419-1.046,1.729,1.729,0,0,0-1.2-.378,1.806,1.806,0,0,0-1.128.311,1.034,1.034,0,0,0-.4.867.935.935,0,0,0,.434.782,5,5,0,0,0,1.43.609,6.576,6.576,0,0,1,1.6.674,2.544,2.544,0,0,1,.885.867,2.258,2.258,0,0,1,.281,1.146,2.03,2.03,0,0,1-.817,1.7,3.545,3.545,0,0,1-2.218.63,4.168,4.168,0,0,1-1.7-.343,2.859,2.859,0,0,1-1.207-.946,2.358,2.358,0,0,1-.431-1.406H37.26a1.38,1.38,0,0,0,.48,1.125,2.1,2.1,0,0,0,1.377.4,1.828,1.828,0,0,0,1.163-.313A1.011,1.011,0,0,0,40.67-2.2Z" transform="translate(53.971 12.397)" fill="#12263f"/>
      <path id="Trazado_133708" data-name="Trazado 133708" d="M-33.911-3.772H-35.3V0h-2.571V-10.664h4.2a4.684,4.684,0,0,1,2.966.841,2.851,2.851,0,0,1,1.069,2.378,3.462,3.462,0,0,1-.45,1.844A3.2,3.2,0,0,1-31.5-4.416L-29.275-.11V0h-2.754ZM-35.3-5.75h1.626a1.459,1.459,0,0,0,1.1-.385,1.49,1.49,0,0,0,.37-1.076,1.508,1.508,0,0,0-.374-1.083,1.446,1.446,0,0,0-1.1-.393H-35.3Zm16.245.637a6.289,6.289,0,0,1-.579,2.761A4.276,4.276,0,0,1-21.281-.5a4.579,4.579,0,0,1-2.428.648A4.643,4.643,0,0,1-26.125-.48,4.269,4.269,0,0,1-27.77-2.271a6.108,6.108,0,0,1-.619-2.673v-.6a6.316,6.316,0,0,1,.575-2.765,4.266,4.266,0,0,1,1.648-1.849,4.61,4.61,0,0,1,2.443-.652,4.566,4.566,0,0,1,2.417.645,4.343,4.343,0,0,1,1.652,1.835,6.135,6.135,0,0,1,.6,2.728Zm-2.615-.447A4.484,4.484,0,0,0-22.2-7.972a1.7,1.7,0,0,0-1.52-.824q-1.934,0-2.043,2.9l-.007.784a4.612,4.612,0,0,0,.52,2.41,1.7,1.7,0,0,0,1.545.842,1.68,1.68,0,0,0,1.5-.828,4.486,4.486,0,0,0,.535-2.38ZM-17.732,0V-10.664H-13.9a5.424,5.424,0,0,1,3.131.754A2.51,2.51,0,0,1-9.7-7.72a2.537,2.537,0,0,1-.381,1.414,2.219,2.219,0,0,1-1.121.864,2.247,2.247,0,0,1,1.282.82A2.385,2.385,0,0,1-9.47-3.157,2.824,2.824,0,0,1-10.463-.8,4.723,4.723,0,0,1-13.4,0Zm2.571-4.534v2.556h1.685A1.6,1.6,0,0,0-12.407-2.3a1.115,1.115,0,0,0,.374-.9,1.182,1.182,0,0,0-1.326-1.34Zm0-1.685h1.34a1.9,1.9,0,0,0,1.2-.309,1.1,1.1,0,0,0,.359-.889,1.15,1.15,0,0,0-.388-.973,2.078,2.078,0,0,0-1.252-.3h-1.26ZM.308-10.664v6.98A4.012,4.012,0,0,1-.2-1.63,3.274,3.274,0,0,1-1.648-.308,5.109,5.109,0,0,1-3.882.146,4.414,4.414,0,0,1-6.951-.864,3.6,3.6,0,0,1-8.093-3.633v-7.031h2.585v7.083q.044,1.75,1.626,1.75a1.574,1.574,0,0,0,1.208-.439A2.054,2.054,0,0,0-2.263-3.7v-6.965Zm7.1,7.83a1.056,1.056,0,0,0-.4-.879,4.961,4.961,0,0,0-1.4-.652A13.456,13.456,0,0,1,3.97-5.017,3.107,3.107,0,0,1,1.9-7.815a2.509,2.509,0,0,1,.516-1.564,3.34,3.34,0,0,1,1.461-1.055A5.686,5.686,0,0,1,6-10.811a4.974,4.974,0,0,1,2.062.41A3.264,3.264,0,0,1,9.478-9.232,3.051,3.051,0,0,1,9.983-7.5H7.419a1.289,1.289,0,0,0-.4-1.011A1.556,1.556,0,0,0,5.94-8.87a1.755,1.755,0,0,0-1.088.3.932.932,0,0,0-.4.773.939.939,0,0,0,.439.743,5.542,5.542,0,0,0,1.545.688A9.467,9.467,0,0,1,8.254-5.6,3.052,3.052,0,0,1,9.983-2.849a2.6,2.6,0,0,1-1.055,2.2,4.691,4.691,0,0,1-2.893.8A5.74,5.74,0,0,1,3.688-.319,3.539,3.539,0,0,1,2.106-1.593a3.321,3.321,0,0,1-.531-1.864H4.153A1.635,1.635,0,0,0,4.6-2.194a2.094,2.094,0,0,0,1.439.406,1.655,1.655,0,0,0,1.007-.275A.907.907,0,0,0,7.412-2.834ZM19.673-8.679h-3.2V0H13.9V-8.679H10.759v-1.985h8.914Zm6.262,6.687H22.412L21.8,0H19.05l3.911-10.664h2.417L29.319,0H26.558ZM23.027-3.977H25.32l-1.15-3.7ZM35.6-2.834a1.056,1.056,0,0,0-.4-.879,4.961,4.961,0,0,0-1.4-.652,13.456,13.456,0,0,1-1.641-.652,3.107,3.107,0,0,1-2.073-2.8A2.509,2.509,0,0,1,30.6-9.379a3.34,3.34,0,0,1,1.461-1.055,5.686,5.686,0,0,1,2.124-.377,4.974,4.974,0,0,1,2.062.41,3.264,3.264,0,0,1,1.417,1.168A3.051,3.051,0,0,1,38.167-7.5H35.6a1.289,1.289,0,0,0-.4-1.011,1.556,1.556,0,0,0-1.08-.359,1.755,1.755,0,0,0-1.088.3.932.932,0,0,0-.4.773.939.939,0,0,0,.439.743,5.542,5.542,0,0,0,1.545.688,9.467,9.467,0,0,1,1.816.765,3.052,3.052,0,0,1,1.729,2.747,2.6,2.6,0,0,1-1.055,2.2,4.691,4.691,0,0,1-2.893.8,5.74,5.74,0,0,1-2.347-.465,3.539,3.539,0,0,1-1.582-1.274,3.321,3.321,0,0,1-.531-1.864h2.578a1.635,1.635,0,0,0,.443,1.263,2.094,2.094,0,0,0,1.439.406,1.655,1.655,0,0,0,1.007-.275A.907.907,0,0,0,35.6-2.834Z" transform="translate(52.815 28.727)" fill="#12263f"/>
    </g>
  </g>
</svg>
