<svg xmlns="http://www.w3.org/2000/svg" width="199.155" height="275.986" viewBox="0 0 199.155 275.986">
  <g id="Grupo_64264" data-name="Grupo 64264" transform="translate(-198.667 -22239.063)">
    <g id="Grupo_64140" data-name="Grupo 64140" transform="translate(34.398 21600.803)">
      <g id="Grupo_64140-2" data-name="Grupo 64140" transform="translate(164.269 827.527)">
        <path id="Trazado_133401" data-name="Trazado 133401" d="M252.575,921.292H164.269V840.915a6.341,6.341,0,1,1,12.681,0v67.7h75.624a6.341,6.341,0,0,1,0,12.681Z" transform="translate(-164.269 -834.574)" fill="#37a3a5"/>
      </g>
      <path id="Trazado_133409" data-name="Trazado 133409" d="M366.69,675.313l-8.711,43.251H254.412l8.711-43.251Z" transform="translate(-3.266 -12.277)" fill="#37a3a5"/>
      <g id="Grupo_64154" data-name="Grupo 64154" transform="translate(310.439 661.236)">
        <g id="Grupo_64153" data-name="Grupo 64153">
          <g id="Grupo_64152" data-name="Grupo 64152">
            <path id="Trazado_133472" data-name="Trazado 133472" d="M15.806-8.818q0,4.424-1.831,6.768A6.391,6.391,0,0,1,8.613.293a6.436,6.436,0,0,1-5.332-2.3A10.488,10.488,0,0,1,1.392-8.6v-3.926q0-4.468,1.853-6.782a6.439,6.439,0,0,1,5.339-2.314,6.445,6.445,0,0,1,5.332,2.292,10.456,10.456,0,0,1,1.89,6.584Zm-4.233-4.316A7.81,7.81,0,0,0,10.847-17a2.45,2.45,0,0,0-2.263-1.21,2.407,2.407,0,0,0-2.2,1.151,7.309,7.309,0,0,0-.754,3.6v5.191a8.2,8.2,0,0,0,.71,3.878A2.418,2.418,0,0,0,8.613-3.12a2.377,2.377,0,0,0,2.241-1.217,8,8,0,0,0,.718-3.724ZM28.945,0H24.712V-16.318l-5.054,1.567v-3.442l8.833-3.164h.454Z" transform="translate(6 34)" fill="#12263f"/>
          </g>
        </g>
      </g>
      <g id="PEZHOx.tif" transform="translate(194.02 666.504)">
        <g id="Grupo_61747" data-name="Grupo 61747">
          <path id="Trazado_132028" data-name="Trazado 132028" d="M1460.75,1464.9l1.447,4.813h1.919v1.179h-14.367v-1.169h1.915l1.449-4.824h-12.281a1.785,1.785,0,0,1-1.924-1.914q0-13.087,0-26.175a1.8,1.8,0,0,1,1.963-1.956l32.179,0a1.778,1.778,0,0,1,1.907,1.892q0,13.125,0,26.249a1.782,1.782,0,0,1-1.9,1.9q-5.913,0-11.827,0Zm-20.643-4.83h33.649v-.321q0-11.359,0-22.719c0-.821-.159-.973-1-.973h-31.727c-.747,0-.924.179-.924.932v23.081Zm33.644,1.251H1440.11v1.411c0,.812.156.969.958.969h29.923c.688,0,1.377,0,2.065-.006a.613.613,0,0,0,.691-.627C1473.764,1462.5,1473.751,1461.924,1473.751,1461.324Zm-14.27,3.579c-1.655,0-3.28,0-4.9.01a.384.384,0,0,0-.261.229c-.161.472-.294.953-.437,1.43-.309,1.036-.618,2.072-.931,3.12h7.967Z" transform="translate(-1438.906 -1434.859)" fill="#12263f"/>
          <path id="Trazado_132029" data-name="Trazado 132029" d="M1609.473,1554.917q-4.449,0-8.9,0a1.782,1.782,0,0,1-1.923-1.914q0-6.215,0-12.43a1.779,1.779,0,0,1,1.886-1.877c2.2,0,4.406,0,6.608,0a1.8,1.8,0,0,1,1.341.566c.5.507,1.016,1,1.51,1.517a1.02,1.02,0,0,0,.8.327c2.541-.008,5.081,0,7.622,0a1.776,1.776,0,0,1,1.86,1.863q0,5.069,0,10.139a1.78,1.78,0,0,1-1.833,1.818q-4.487,0-8.974,0Zm-.007-1.2h8.746c.676,0,.867-.193.867-.872q0-4.824,0-9.648c0-.722-.177-.9-.917-.9-2.5,0-5,0-7.507,0a1.92,1.92,0,0,1-1.443-.6c-.491-.5-.972-1.013-1.495-1.477a1.272,1.272,0,0,0-.752-.317c-2.089-.025-4.179-.015-6.269-.014-.651,0-.842.195-.843.856q0,6.007,0,12.014c0,.779.166.948.945.949Q1605.13,1553.72,1609.466,1553.717Z" transform="translate(-1586.632 -1530.881)" fill="#12263f"/>
          <path id="Trazado_132030" data-name="Trazado 132030" d="M1489.9,1470.508l-.887.917c-.326-.349-.647-.679-.95-1.025a.336.336,0,0,0-.452-.094c-.6.254-1.2.5-1.808.723a.716.716,0,0,1-.454,0c-.446-.161-.87-.387-1.321-.527a1.294,1.294,0,0,1-.888-.9c-.2-.551-.455-1.08-.693-1.631-.483,0-.958-.013-1.432.011-.095,0-.221.133-.267.234-.269.591-.509,1.2-.784,1.783a.775.775,0,0,1-.351.345c-.533.245-1.074.475-1.624.675a.888.888,0,0,1-.559-.006c-.576-.206-1.144-.435-1.7-.684a.4.4,0,0,0-.544.122c-.231.263-.505.487-.732.753a.451.451,0,0,0-.074.377c.22.6.485,1.178.7,1.778a.928.928,0,0,1-.009.593,5.047,5.047,0,0,1-.8,1.791,5.1,5.1,0,0,1-1.809.851.552.552,0,0,0-.427.653c.035.372-.112.834.062,1.1a1.74,1.74,0,0,0,.985.475,2.479,2.479,0,0,1,1.784,1.789,1.971,1.971,0,0,1,0,1.794c-.2.355-.306.764-.473,1.141a.336.336,0,0,0,.086.454,9.788,9.788,0,0,1,.77.77.339.339,0,0,0,.455.084c.574-.245,1.151-.486,1.738-.7a.891.891,0,0,1,.559-.009c.492.177.967.4,1.487.619l-.454,1.11c-.361-.145-.7-.3-1.048-.411a.873.873,0,0,0-.524,0c-.691.255-1.372.536-2.052.818a.35.35,0,0,1-.455-.089c-.626-.648-1.276-1.273-1.9-1.924a.476.476,0,0,1-.084-.407c.249-.68.545-1.342.788-2.024a1.251,1.251,0,0,0,0-.633,1.631,1.631,0,0,0-1.255-1.313,9.243,9.243,0,0,1-1.411-.6.478.478,0,0,1-.237-.34q-.029-1.37,0-2.741a.476.476,0,0,1,.243-.336c.634-.295,1.275-.578,1.926-.83a1.031,1.031,0,0,0,.538-.566,1.591,1.591,0,0,0,.02-1.651c-.252-.47-.4-.994-.611-1.488a.346.346,0,0,1,.075-.457q.972-.939,1.911-1.912a.35.35,0,0,1,.458-.076c.646.268,1.3.517,1.942.791a.969.969,0,0,0,.713.011,1.754,1.754,0,0,0,1.276-1.262c.148-.487.4-.941.589-1.417a.346.346,0,0,1,.387-.253c.889.012,1.777.014,2.666,0a.371.371,0,0,1,.405.282c.268.659.542,1.318.845,1.961a1.171,1.171,0,0,0,.421.422,1.717,1.717,0,0,0,1.889.029,11.268,11.268,0,0,1,1.423-.573.374.374,0,0,1,.32.039C1488.831,1469.44,1489.368,1469.981,1489.9,1470.508Z" transform="translate(-1468.427 -1464.356)" fill="#12263f"/>
          <path id="Trazado_132031" data-name="Trazado 132031" d="M1538.027,1539.4l.51,1.018a4.88,4.88,0,0,0,0,8.675l-.509,1.023a5.95,5.95,0,0,1-.005-10.716Z" transform="translate(-1527.463 -1531.531)" fill="#12263f"/>
          <path id="Trazado_132032" data-name="Trazado 132032" d="M1649.1,1619.889l-.867.834-3.315-3.357,3.368-3.368.741.788-2.528,2.513Z" transform="translate(-1629.419 -1600.521)" fill="#12263f"/>
          <path id="Trazado_132033" data-name="Trazado 132033" d="M1788.318,1616.939l-3.373,3.375-.809-.774,2.546-2.536-2.612-2.562.9-.868Z" transform="translate(-1758.102 -1600.128)" fill="#12263f"/>
          <path id="Trazado_132034" data-name="Trazado 132034" d="M1720.5,1628.758l-1.058-.594,3.008-5.412,1.062.587Z" transform="translate(-1698.333 -1608.616)" fill="#12263f"/>
        </g>
      </g>
    </g>
    <g id="Grupo_64263" data-name="Grupo 64263">
      <path id="Trazado_133408" data-name="Trazado 133408" d="M334.777,658.021V640.053H170.848V907.894H334.777V711.459" transform="translate(34.16 21600.803)" fill="none" stroke="#12263f" stroke-linecap="round" stroke-miterlimit="10" stroke-width="3.588"/>
      <g id="Grupo_64146" data-name="Grupo 64146" transform="translate(234.056 22345.205)">
        <g id="Grupo_61892" data-name="Grupo 61892" transform="translate(3.817 -25.603)">
          <g id="Grupo_61888" data-name="Grupo 61888" transform="translate(22.155)">
            <g id="Grupo_61887" data-name="Grupo 61887">
              <g id="Grupo_61886" data-name="Grupo 61886">
                <path id="Trazado_133471" data-name="Trazado 133471" d="M-29.42-3.164V0H-30.9V-8.531h3.264a3.3,3.3,0,0,1,2.271.745,2.5,2.5,0,0,1,.841,1.971,2.422,2.422,0,0,1-.823,1.953,3.46,3.46,0,0,1-2.306.7Zm0-1.2h1.781a1.754,1.754,0,0,0,1.207-.372,1.367,1.367,0,0,0,.416-1.075,1.475,1.475,0,0,0-.422-1.1,1.626,1.626,0,0,0-1.16-.425H-29.42Zm9.92,2.373h-3.3L-23.5,0h-1.541l3.223-8.531h1.33L-17.256,0H-18.8Zm-2.889-1.2h2.473l-1.236-3.539Zm9.234-.1h-1.652V0h-1.482V-8.531h3a3.49,3.49,0,0,1,2.279.663,2.344,2.344,0,0,1,.8,1.918,2.4,2.4,0,0,1-.413,1.434,2.629,2.629,0,0,1-1.151.888L-9.855-.076V0h-1.588Zm-1.652-1.2h1.523a1.694,1.694,0,0,0,1.172-.378,1.318,1.318,0,0,0,.422-1.034,1.4,1.4,0,0,0-.39-1.061,1.655,1.655,0,0,0-1.163-.387h-1.564Zm12.516,1.7A3.08,3.08,0,0,1-3.3-.647,3.436,3.436,0,0,1-5.637.117a3.327,3.327,0,0,1-1.8-.483,3.173,3.173,0,0,1-1.2-1.374A4.958,4.958,0,0,1-9.07-3.809v-.8a4.994,4.994,0,0,1,.428-2.127A3.224,3.224,0,0,1-7.415-8.15a3.424,3.424,0,0,1,1.849-.5,3.3,3.3,0,0,1,2.273.765,3.2,3.2,0,0,1,1,2.165H-3.768A2.107,2.107,0,0,0-4.3-7.046a1.772,1.772,0,0,0-1.263-.407,1.731,1.731,0,0,0-1.485.707,3.532,3.532,0,0,0-.53,2.073v.757a3.747,3.747,0,0,0,.5,2.111,1.643,1.643,0,0,0,1.45.727,1.917,1.917,0,0,0,1.313-.393,2.047,2.047,0,0,0,.557-1.307ZM5.807,0H4.33V-3.785H.516V0H-.967V-8.531H.516V-4.98H4.33V-8.531H5.807Zm6.738-3.809h-3.5v2.625h4.1V0H7.559V-8.531H13.1v1.2H9.041V-4.98h3.5Zm9.773,0h-3.5v2.625h4.1V0H17.332V-8.531h5.537v1.2H18.814V-4.98h3.5ZM30.885,0H29.4L25.6-6.053V0H24.117V-8.531H25.6l3.814,6.076V-8.531h1.471Z" transform="translate(28 11)" fill="#12263f"/>
              </g>
            </g>
          </g>
          <g id="Grupo_61891" data-name="Grupo 61891" transform="translate(0 13.33)">
            <g id="Grupo_61890" data-name="Grupo 61890">
              <g id="Grupo_61889" data-name="Grupo 61889">
                <path id="Trazado_133470" data-name="Trazado 133470" d="M-68.716-2.834a1.056,1.056,0,0,0-.4-.879,4.961,4.961,0,0,0-1.4-.652,13.456,13.456,0,0,1-1.641-.652,3.107,3.107,0,0,1-2.073-2.8,2.509,2.509,0,0,1,.516-1.564,3.34,3.34,0,0,1,1.461-1.055,5.686,5.686,0,0,1,2.124-.377,4.974,4.974,0,0,1,2.062.41A3.264,3.264,0,0,1-66.65-9.232,3.051,3.051,0,0,1-66.145-7.5h-2.563a1.289,1.289,0,0,0-.4-1.011,1.556,1.556,0,0,0-1.08-.359,1.755,1.755,0,0,0-1.088.3.932.932,0,0,0-.4.773.939.939,0,0,0,.439.743,5.542,5.542,0,0,0,1.545.688,9.467,9.467,0,0,1,1.816.765,3.052,3.052,0,0,1,1.729,2.747A2.6,2.6,0,0,1-67.2-.652a4.691,4.691,0,0,1-2.893.8A5.74,5.74,0,0,1-72.44-.319a3.539,3.539,0,0,1-1.582-1.274,3.321,3.321,0,0,1-.531-1.864h2.578a1.635,1.635,0,0,0,.443,1.263,2.094,2.094,0,0,0,1.439.406,1.655,1.655,0,0,0,1.007-.275A.907.907,0,0,0-68.716-2.834ZM-62.087,0h-2.563V-10.664h2.563ZM-54.8-2.834a1.056,1.056,0,0,0-.4-.879,4.961,4.961,0,0,0-1.4-.652,13.456,13.456,0,0,1-1.641-.652,3.107,3.107,0,0,1-2.073-2.8A2.509,2.509,0,0,1-59.8-9.379a3.34,3.34,0,0,1,1.461-1.055,5.686,5.686,0,0,1,2.124-.377,4.974,4.974,0,0,1,2.062.41,3.264,3.264,0,0,1,1.417,1.168A3.051,3.051,0,0,1-52.229-7.5h-2.563a1.289,1.289,0,0,0-.4-1.011,1.556,1.556,0,0,0-1.08-.359,1.755,1.755,0,0,0-1.088.3.932.932,0,0,0-.4.773.939.939,0,0,0,.439.743,5.542,5.542,0,0,0,1.545.688,9.467,9.467,0,0,1,1.816.765,3.052,3.052,0,0,1,1.729,2.747,2.6,2.6,0,0,1-1.055,2.2,4.691,4.691,0,0,1-2.893.8,5.74,5.74,0,0,1-2.347-.465,3.539,3.539,0,0,1-1.582-1.274,3.321,3.321,0,0,1-.531-1.864h2.578a1.635,1.635,0,0,0,.443,1.263,2.094,2.094,0,0,0,1.439.406,1.655,1.655,0,0,0,1.007-.275A.907.907,0,0,0-54.8-2.834Zm12.261-5.845h-3.2V0h-2.571V-8.679h-3.142v-1.985h8.914Zm7.7,4.153h-4.043v2.549h4.775V0h-7.346V-10.664h7.361v1.985h-4.79v2.249h4.043Zm5.156-6.138,2.38,7.419,2.373-7.419h3.384V0h-2.578V-2.49l.249-5.1L-26.455,0h-1.7L-30.74-7.6l.249,5.1V0h-2.571V-10.664Zm15.828,8.672H-17.38L-18,0h-2.747l3.911-10.664h2.417L-10.474,0h-2.761Zm-2.908-1.985h2.292l-1.15-3.7ZM3.069-5.112A6.289,6.289,0,0,1,2.49-2.351,4.276,4.276,0,0,1,.846-.5,4.579,4.579,0,0,1-1.582.146,4.643,4.643,0,0,1-4-.48,4.269,4.269,0,0,1-5.643-2.271a6.108,6.108,0,0,1-.619-2.673v-.6a6.316,6.316,0,0,1,.575-2.765,4.266,4.266,0,0,1,1.648-1.849A4.61,4.61,0,0,1-1.6-10.811a4.566,4.566,0,0,1,2.417.645A4.343,4.343,0,0,1,2.472-8.331a6.135,6.135,0,0,1,.6,2.728ZM.454-5.559A4.484,4.484,0,0,0-.077-7.972,1.7,1.7,0,0,0-1.6-8.8Q-3.53-8.8-3.64-5.9l-.007.784a4.612,4.612,0,0,0,.52,2.41,1.7,1.7,0,0,0,1.545.842,1.68,1.68,0,0,0,1.5-.828,4.486,4.486,0,0,0,.535-2.38ZM6.965-3.618V0H4.395V-10.664H8.65a4.956,4.956,0,0,1,2.164.45,3.4,3.4,0,0,1,1.458,1.282,3.5,3.5,0,0,1,.516,1.886,3.086,3.086,0,0,1-1.117,2.494,4.634,4.634,0,0,1-3.065.934Zm0-1.985H8.65a1.589,1.589,0,0,0,1.139-.374,1.388,1.388,0,0,0,.392-1.055,1.715,1.715,0,0,0-.4-1.194,1.426,1.426,0,0,0-1.1-.454H6.965ZM20.771-4.526H16.729v2.549H21.5V0H14.158V-10.664h7.361v1.985h-4.79v2.249h4.043Zm5.742.754H25.122V0H22.551V-10.664h4.2a4.684,4.684,0,0,1,2.966.841,2.851,2.851,0,0,1,1.069,2.378,3.462,3.462,0,0,1-.45,1.844,3.2,3.2,0,0,1-1.41,1.185L31.15-.11V0H28.4ZM25.122-5.75h1.626a1.459,1.459,0,0,0,1.1-.385,1.49,1.49,0,0,0,.37-1.076,1.508,1.508,0,0,0-.374-1.083,1.446,1.446,0,0,0-1.1-.393H25.122ZM38.394-1.992H34.871L34.255,0H31.509L35.42-10.664h2.417L41.777,0H39.016ZM35.486-3.977h2.292l-1.15-3.7Zm14.561-4.7h-3.2V0H44.275V-8.679H41.133v-1.985h8.914ZM53.87,0H51.306V-10.664H53.87Zm5.925-2.9,2.124-7.764H64.79L61.2,0H58.389l-3.56-10.664h2.849ZM74.5-5.112a6.289,6.289,0,0,1-.579,2.761A4.276,4.276,0,0,1,72.279-.5a4.579,4.579,0,0,1-2.428.648A4.643,4.643,0,0,1,67.434-.48,4.269,4.269,0,0,1,65.79-2.271a6.108,6.108,0,0,1-.619-2.673v-.6a6.316,6.316,0,0,1,.575-2.765,4.266,4.266,0,0,1,1.648-1.849,4.61,4.61,0,0,1,2.443-.652,4.566,4.566,0,0,1,2.417.645,4.343,4.343,0,0,1,1.652,1.835A6.135,6.135,0,0,1,74.5-5.6Zm-2.615-.447a4.484,4.484,0,0,0-.531-2.413,1.7,1.7,0,0,0-1.52-.824q-1.934,0-2.043,2.9l-.007.784a4.612,4.612,0,0,0,.52,2.41,1.7,1.7,0,0,0,1.545.842,1.68,1.68,0,0,0,1.5-.828,4.486,4.486,0,0,0,.535-2.38Z" transform="translate(49 14)" fill="#12263f"/>
              </g>
            </g>
          </g>
        </g>
        <path id="Trazado_133469" data-name="Trazado 133469" d="M32.06,14H30.841V4.758H32.06Zm2.96-6.868L35.058,8A2.5,2.5,0,0,1,37.114,7q2.177,0,2.2,2.457V14H38.136V9.455a1.581,1.581,0,0,0-.34-1.1A1.361,1.361,0,0,0,36.759,8a1.7,1.7,0,0,0-1,.3,2.069,2.069,0,0,0-.673.8V14H33.909V7.132Zm9.866,5.046a.865.865,0,0,0-.359-.74,3.452,3.452,0,0,0-1.25-.454,5.912,5.912,0,0,1-1.416-.457,2.014,2.014,0,0,1-.774-.635,1.518,1.518,0,0,1-.251-.876,1.782,1.782,0,0,1,.714-1.428A2.789,2.789,0,0,1,43.375,7a2.87,2.87,0,0,1,1.895.6A1.915,1.915,0,0,1,46,9.15H44.816a1.06,1.06,0,0,0-.409-.832,1.534,1.534,0,0,0-1.031-.349,1.605,1.605,0,0,0-1,.279.879.879,0,0,0-.362.73.712.712,0,0,0,.336.641,4.139,4.139,0,0,0,1.216.413,6.334,6.334,0,0,1,1.425.47,2.079,2.079,0,0,1,.809.657,1.615,1.615,0,0,1,.263.936,1.758,1.758,0,0,1-.736,1.476,3.089,3.089,0,0,1-1.911.555,3.459,3.459,0,0,1-1.46-.292,2.375,2.375,0,0,1-.993-.816,1.966,1.966,0,0,1-.359-1.133h1.174a1.216,1.216,0,0,0,.473.936,1.835,1.835,0,0,0,1.165.346,1.894,1.894,0,0,0,1.07-.27A.829.829,0,0,0,44.886,12.178Zm4.1-6.709V7.132H50.27V8.04H48.988V12.3a.953.953,0,0,0,.171.62.721.721,0,0,0,.584.207,2.843,2.843,0,0,0,.559-.076V14a3.424,3.424,0,0,1-.9.126,1.462,1.462,0,0,1-1.187-.476,2.045,2.045,0,0,1-.4-1.352V8.04h-1.25V7.132h1.25V5.469ZM55.687,14a2.467,2.467,0,0,1-.165-.724,2.62,2.62,0,0,1-1.955.851,2.424,2.424,0,0,1-1.666-.574,1.859,1.859,0,0,1-.651-1.457,1.942,1.942,0,0,1,.816-1.666,3.846,3.846,0,0,1,2.295-.594H55.5V9.3a1.319,1.319,0,0,0-.368-.981,1.48,1.48,0,0,0-1.085-.365A1.712,1.712,0,0,0,53,8.268a.935.935,0,0,0-.425.768H51.389a1.621,1.621,0,0,1,.365-.993,2.491,2.491,0,0,1,.99-.759A3.331,3.331,0,0,1,54.119,7a2.715,2.715,0,0,1,1.86.594,2.141,2.141,0,0,1,.7,1.635v3.161a3.865,3.865,0,0,0,.241,1.5V14Zm-1.949-.9a2.064,2.064,0,0,0,1.047-.286,1.728,1.728,0,0,0,.717-.743V10.667h-.92q-2.158,0-2.158,1.263a1.069,1.069,0,0,0,.368.863A1.415,1.415,0,0,0,53.738,13.1ZM59.6,14H58.424V4.25H59.6Zm5.924,0a2.467,2.467,0,0,1-.165-.724,2.62,2.62,0,0,1-1.955.851,2.424,2.424,0,0,1-1.666-.574,1.859,1.859,0,0,1-.651-1.457,1.942,1.942,0,0,1,.816-1.666A3.846,3.846,0,0,1,64.2,9.836h1.143V9.3a1.319,1.319,0,0,0-.368-.981,1.48,1.48,0,0,0-1.085-.365,1.712,1.712,0,0,0-1.054.317.935.935,0,0,0-.425.768H61.225a1.621,1.621,0,0,1,.365-.993,2.491,2.491,0,0,1,.99-.759A3.331,3.331,0,0,1,63.955,7a2.715,2.715,0,0,1,1.86.594,2.141,2.141,0,0,1,.7,1.635v3.161a3.865,3.865,0,0,0,.241,1.5V14Zm-1.949-.9a2.064,2.064,0,0,0,1.047-.286,1.728,1.728,0,0,0,.717-.743V10.667h-.92q-2.158,0-2.158,1.263a1.069,1.069,0,0,0,.368.863A1.415,1.415,0,0,0,63.574,13.1Zm7.9-4.919a3.519,3.519,0,0,0-.578-.044,1.547,1.547,0,0,0-1.568.984V14H68.159V7.132H69.3l.019.793A1.829,1.829,0,0,1,70.958,7a1.2,1.2,0,0,1,.521.089ZM76.662,14H75.487V4.25h1.174Zm5.924,0a2.467,2.467,0,0,1-.165-.724,2.62,2.62,0,0,1-1.955.851,2.424,2.424,0,0,1-1.666-.574,1.859,1.859,0,0,1-.651-1.457,1.942,1.942,0,0,1,.816-1.666,3.846,3.846,0,0,1,2.295-.594H82.4V9.3a1.319,1.319,0,0,0-.368-.981,1.48,1.48,0,0,0-1.085-.365,1.712,1.712,0,0,0-1.054.317.935.935,0,0,0-.425.768H78.288a1.621,1.621,0,0,1,.365-.993,2.491,2.491,0,0,1,.99-.759A3.331,3.331,0,0,1,81.018,7a2.715,2.715,0,0,1,1.86.594,2.141,2.141,0,0,1,.7,1.635v3.161a3.865,3.865,0,0,0,.241,1.5V14Zm-1.949-.9a2.064,2.064,0,0,0,1.047-.286,1.728,1.728,0,0,0,.717-.743V10.667h-.92q-2.158,0-2.158,1.263a1.069,1.069,0,0,0,.368.863A1.415,1.415,0,0,0,80.637,13.1Zm8.584-.927a.864.864,0,0,0-.359-.74,3.452,3.452,0,0,0-1.25-.454,5.912,5.912,0,0,1-1.416-.457,2.014,2.014,0,0,1-.774-.635,1.518,1.518,0,0,1-.251-.876,1.782,1.782,0,0,1,.714-1.428A2.789,2.789,0,0,1,87.71,7a2.87,2.87,0,0,1,1.895.6,1.915,1.915,0,0,1,.727,1.542H89.151a1.06,1.06,0,0,0-.409-.832A1.534,1.534,0,0,0,87.71,7.97a1.606,1.606,0,0,0-1,.279.879.879,0,0,0-.362.73.712.712,0,0,0,.336.641,4.139,4.139,0,0,0,1.216.413,6.334,6.334,0,0,1,1.425.47,2.079,2.079,0,0,1,.809.657,1.615,1.615,0,0,1,.263.936,1.758,1.758,0,0,1-.736,1.476,3.089,3.089,0,0,1-1.911.555,3.459,3.459,0,0,1-1.46-.292,2.375,2.375,0,0,1-.993-.816,1.966,1.966,0,0,1-.359-1.133h1.174a1.216,1.216,0,0,0,.473.936,1.835,1.835,0,0,0,1.165.346,1.894,1.894,0,0,0,1.07-.27A.829.829,0,0,0,89.221,12.178ZM13.265,28a2.467,2.467,0,0,1-.165-.724,2.62,2.62,0,0,1-1.955.851,2.424,2.424,0,0,1-1.666-.574A1.859,1.859,0,0,1,8.828,26.1a1.942,1.942,0,0,1,.816-1.666,3.846,3.846,0,0,1,2.295-.594h1.143V23.3a1.319,1.319,0,0,0-.368-.981,1.48,1.48,0,0,0-1.085-.365,1.712,1.712,0,0,0-1.054.317.935.935,0,0,0-.425.768H8.968a1.621,1.621,0,0,1,.365-.993,2.491,2.491,0,0,1,.99-.759A3.331,3.331,0,0,1,11.7,21a2.715,2.715,0,0,1,1.86.594,2.141,2.141,0,0,1,.7,1.635v3.161a3.865,3.865,0,0,0,.241,1.5V28Zm-1.949-.9a2.064,2.064,0,0,0,1.047-.286,1.728,1.728,0,0,0,.717-.743V24.667h-.92Q10,24.667,10,25.931a1.069,1.069,0,0,0,.368.863A1.415,1.415,0,0,0,11.317,27.1Zm7.34.063a1.692,1.692,0,0,0,1.1-.381,1.34,1.34,0,0,0,.521-.952h1.111a2.13,2.13,0,0,1-.406,1.124,2.676,2.676,0,0,1-1,.851,2.885,2.885,0,0,1-1.323.317,2.829,2.829,0,0,1-2.231-.936,3.729,3.729,0,0,1-.828-2.561v-.2a4.135,4.135,0,0,1,.368-1.784,2.8,2.8,0,0,1,1.057-1.212A3,3,0,0,1,18.65,21a2.755,2.755,0,0,1,1.92.692,2.473,2.473,0,0,1,.816,1.8H20.275a1.618,1.618,0,0,0-.5-1.095,1.57,1.57,0,0,0-1.12-.428,1.644,1.644,0,0,0-1.387.644,3.026,3.026,0,0,0-.492,1.863V24.7a2.965,2.965,0,0,0,.489,1.828A1.651,1.651,0,0,0,18.656,27.168Zm5.448-7.7v1.663h1.282v.908H24.1V26.3a.953.953,0,0,0,.171.62.721.721,0,0,0,.584.207,2.843,2.843,0,0,0,.559-.076V28a3.424,3.424,0,0,1-.9.126,1.462,1.462,0,0,1-1.187-.476,2.045,2.045,0,0,1-.4-1.352V22.04H21.68v-.908h1.25V19.469Zm6.7,7.852a2.494,2.494,0,0,1-2.012.806,2.135,2.135,0,0,1-1.673-.638,2.761,2.761,0,0,1-.581-1.888V21.132h1.174v4.437q0,1.562,1.27,1.562a1.758,1.758,0,0,0,1.79-1v-5h1.174V28H30.828ZM37.774,28a2.467,2.467,0,0,1-.165-.724,2.62,2.62,0,0,1-1.955.851,2.424,2.424,0,0,1-1.666-.574,1.859,1.859,0,0,1-.651-1.457,1.942,1.942,0,0,1,.816-1.666,3.846,3.846,0,0,1,2.295-.594H37.59V23.3a1.319,1.319,0,0,0-.368-.981,1.48,1.48,0,0,0-1.085-.365,1.712,1.712,0,0,0-1.054.317.935.935,0,0,0-.425.768H33.477a1.621,1.621,0,0,1,.365-.993,2.491,2.491,0,0,1,.99-.759A3.331,3.331,0,0,1,36.207,21a2.715,2.715,0,0,1,1.86.594,2.141,2.141,0,0,1,.7,1.635v3.161a3.865,3.865,0,0,0,.241,1.5V28Zm-1.949-.9a2.064,2.064,0,0,0,1.047-.286,1.728,1.728,0,0,0,.717-.743V24.667h-.92q-2.158,0-2.158,1.263a1.069,1.069,0,0,0,.368.863A1.415,1.415,0,0,0,35.826,27.1Zm5.861.9H40.512V18.25h1.174Zm2.96,0H43.472V21.132h1.174Zm-1.27-8.69a.7.7,0,0,1,.175-.482.655.655,0,0,1,.517-.2.666.666,0,0,1,.521.2.694.694,0,0,1,.178.482.671.671,0,0,1-.178.476.678.678,0,0,1-.521.19.667.667,0,0,1-.517-.19A.678.678,0,0,1,43.377,19.31Zm4.058,7.731h4.018V28H46v-.863L49.79,22.1H46.057v-.971h5.205v.832ZM56.818,28a2.467,2.467,0,0,1-.165-.724,2.62,2.62,0,0,1-1.955.851,2.424,2.424,0,0,1-1.666-.574,1.859,1.859,0,0,1-.651-1.457,1.942,1.942,0,0,1,.816-1.666,3.846,3.846,0,0,1,2.295-.594h1.143V23.3a1.319,1.319,0,0,0-.368-.981,1.48,1.48,0,0,0-1.085-.365,1.712,1.712,0,0,0-1.054.317.935.935,0,0,0-.425.768H52.521a1.621,1.621,0,0,1,.365-.993,2.491,2.491,0,0,1,.99-.759A3.331,3.331,0,0,1,55.25,21a2.715,2.715,0,0,1,1.86.594,2.141,2.141,0,0,1,.7,1.635v3.161a3.865,3.865,0,0,0,.241,1.5V28Zm-1.949-.9a2.064,2.064,0,0,0,1.047-.286,1.728,1.728,0,0,0,.717-.743V24.667h-.92q-2.158,0-2.158,1.263a1.069,1.069,0,0,0,.368.863A1.415,1.415,0,0,0,54.869,27.1Zm7.34.063a1.692,1.692,0,0,0,1.1-.381,1.34,1.34,0,0,0,.521-.952h1.111a2.13,2.13,0,0,1-.406,1.124,2.676,2.676,0,0,1-1,.851,2.885,2.885,0,0,1-1.323.317,2.829,2.829,0,0,1-2.231-.936,3.729,3.729,0,0,1-.828-2.561v-.2a4.135,4.135,0,0,1,.368-1.784,2.8,2.8,0,0,1,1.057-1.212A3,3,0,0,1,62.2,21a2.755,2.755,0,0,1,1.92.692,2.473,2.473,0,0,1,.816,1.8H63.828a1.618,1.618,0,0,0-.5-1.095,1.57,1.57,0,0,0-1.12-.428,1.644,1.644,0,0,0-1.387.644,3.026,3.026,0,0,0-.492,1.863V24.7a2.965,2.965,0,0,0,.489,1.828A1.651,1.651,0,0,0,62.209,27.168ZM67.34,28H66.165V21.132H67.34Zm-1.27-8.69a.7.7,0,0,1,.175-.482.655.655,0,0,1,.517-.2.666.666,0,0,1,.521.2.694.694,0,0,1,.178.482.671.671,0,0,1-.178.476.678.678,0,0,1-.521.19.667.667,0,0,1-.517-.19A.678.678,0,0,1,66.07,19.31ZM68.713,24.5a4.057,4.057,0,0,1,.4-1.815,2.96,2.96,0,0,1,1.1-1.244A3.007,3.007,0,0,1,71.829,21a2.9,2.9,0,0,1,2.269.971,3.736,3.736,0,0,1,.866,2.583v.083a4.092,4.092,0,0,1-.384,1.8,2.916,2.916,0,0,1-1.1,1.241,3.041,3.041,0,0,1-1.641.444,2.889,2.889,0,0,1-2.263-.971,3.718,3.718,0,0,1-.866-2.571Zm1.181.14a2.938,2.938,0,0,0,.53,1.834,1.8,1.8,0,0,0,2.841-.01,3.213,3.213,0,0,0,.527-1.965,2.933,2.933,0,0,0-.536-1.831,1.705,1.705,0,0,0-1.425-.7,1.686,1.686,0,0,0-1.4.692A3.189,3.189,0,0,0,69.893,24.642Zm7.46-3.51.038.863A2.5,2.5,0,0,1,79.448,21q2.177,0,2.2,2.457V28H80.47V23.455a1.581,1.581,0,0,0-.34-1.1A1.361,1.361,0,0,0,79.093,22a1.7,1.7,0,0,0-1,.3,2.069,2.069,0,0,0-.673.8V28H76.243V21.132Zm8.717,7A3,3,0,0,1,83.8,27.21a3.4,3.4,0,0,1-.876-2.453v-.216a4.121,4.121,0,0,1,.39-1.825A3.045,3.045,0,0,1,84.4,21.459,2.745,2.745,0,0,1,85.925,21a2.572,2.572,0,0,1,2.082.882,3.82,3.82,0,0,1,.743,2.526V24.9H84.1a2.441,2.441,0,0,0,.594,1.641,1.866,1.866,0,0,0,1.444.625,2.045,2.045,0,0,0,1.054-.254,2.648,2.648,0,0,0,.755-.673l.717.559A2.884,2.884,0,0,1,86.071,28.127Zm-.146-6.157a1.566,1.566,0,0,0-1.193.517,2.515,2.515,0,0,0-.6,1.45h3.44v-.089a2.237,2.237,0,0,0-.482-1.387A1.475,1.475,0,0,0,85.925,21.97Zm7.987,4.208a.864.864,0,0,0-.359-.74,3.452,3.452,0,0,0-1.25-.454,5.912,5.912,0,0,1-1.416-.457,2.014,2.014,0,0,1-.774-.635,1.518,1.518,0,0,1-.251-.876,1.782,1.782,0,0,1,.714-1.428A2.789,2.789,0,0,1,92.4,21a2.87,2.87,0,0,1,1.895.6,1.915,1.915,0,0,1,.727,1.542H93.842a1.06,1.06,0,0,0-.409-.832A1.534,1.534,0,0,0,92.4,21.97a1.606,1.606,0,0,0-1,.279.879.879,0,0,0-.362.73.712.712,0,0,0,.336.641,4.139,4.139,0,0,0,1.216.413,6.334,6.334,0,0,1,1.425.47,2.079,2.079,0,0,1,.809.657,1.615,1.615,0,0,1,.263.936,1.758,1.758,0,0,1-.736,1.476,3.089,3.089,0,0,1-1.911.555,3.459,3.459,0,0,1-1.46-.292,2.375,2.375,0,0,1-.993-.816,1.966,1.966,0,0,1-.359-1.133H90.8a1.216,1.216,0,0,0,.473.936,1.835,1.835,0,0,0,1.165.346,1.894,1.894,0,0,0,1.07-.27A.829.829,0,0,0,93.912,26.178Zm5.247-1.669a4.023,4.023,0,0,1,.749-2.542,2.548,2.548,0,0,1,3.872-.136V18.25h1.174V28h-1.079l-.057-.736a2.391,2.391,0,0,1-1.961.863,2.346,2.346,0,0,1-1.946-.978,4.069,4.069,0,0,1-.752-2.552Zm1.174.133a3.046,3.046,0,0,0,.482,1.828,1.56,1.56,0,0,0,1.333.66,1.713,1.713,0,0,0,1.631-1V22.973A1.726,1.726,0,0,0,102.161,22a1.567,1.567,0,0,0-1.346.667A3.354,3.354,0,0,0,100.333,24.642Zm9.1,3.485a3,3,0,0,1-2.272-.917,3.4,3.4,0,0,1-.876-2.453v-.216a4.121,4.121,0,0,1,.39-1.825,3.045,3.045,0,0,1,1.092-1.257,2.745,2.745,0,0,1,1.52-.454,2.572,2.572,0,0,1,2.082.882,3.82,3.82,0,0,1,.743,2.526V24.9h-4.653a2.441,2.441,0,0,0,.594,1.641,1.866,1.866,0,0,0,1.444.625,2.045,2.045,0,0,0,1.054-.254,2.648,2.648,0,0,0,.755-.673l.717.559A2.884,2.884,0,0,1,109.431,28.127Zm-.146-6.157a1.566,1.566,0,0,0-1.193.517,2.515,2.515,0,0,0-.6,1.45h3.44v-.089a2.237,2.237,0,0,0-.482-1.387A1.475,1.475,0,0,0,109.285,21.97ZM40.426,40.178a.865.865,0,0,0-.359-.74,3.452,3.452,0,0,0-1.25-.454,5.912,5.912,0,0,1-1.416-.457,2.014,2.014,0,0,1-.774-.635,1.518,1.518,0,0,1-.251-.876,1.782,1.782,0,0,1,.714-1.428A2.789,2.789,0,0,1,38.916,35a2.87,2.87,0,0,1,1.895.6,1.915,1.915,0,0,1,.727,1.542H40.357a1.06,1.06,0,0,0-.409-.832,1.534,1.534,0,0,0-1.031-.349,1.605,1.605,0,0,0-1,.279.879.879,0,0,0-.362.73.712.712,0,0,0,.336.641,4.139,4.139,0,0,0,1.216.413,6.334,6.334,0,0,1,1.425.47,2.079,2.079,0,0,1,.809.657,1.615,1.615,0,0,1,.263.936,1.758,1.758,0,0,1-.736,1.476,3.089,3.089,0,0,1-1.911.555,3.459,3.459,0,0,1-1.46-.292,2.374,2.374,0,0,1-.993-.816,1.966,1.966,0,0,1-.359-1.133h1.174a1.216,1.216,0,0,0,.473.936,1.835,1.835,0,0,0,1.165.346,1.894,1.894,0,0,0,1.07-.27A.829.829,0,0,0,40.426,40.178Zm2.2-1.676a4.057,4.057,0,0,1,.4-1.815,2.96,2.96,0,0,1,1.1-1.244A3.007,3.007,0,0,1,45.741,35a2.9,2.9,0,0,1,2.269.971,3.736,3.736,0,0,1,.866,2.583v.083a4.092,4.092,0,0,1-.384,1.8,2.916,2.916,0,0,1-1.1,1.241,3.041,3.041,0,0,1-1.641.444,2.889,2.889,0,0,1-2.263-.971,3.718,3.718,0,0,1-.866-2.571Zm1.181.14a2.938,2.938,0,0,0,.53,1.834,1.8,1.8,0,0,0,2.841-.01A3.213,3.213,0,0,0,47.7,38.5a2.933,2.933,0,0,0-.536-1.831,1.705,1.705,0,0,0-1.425-.7,1.686,1.686,0,0,0-1.4.692A3.189,3.189,0,0,0,43.805,38.642ZM50.732,42V36.04H49.647v-.908h1.085v-.7a2.339,2.339,0,0,1,.59-1.708,2.23,2.23,0,0,1,1.669-.6,3.1,3.1,0,0,1,.806.107l-.063.946a3.373,3.373,0,0,0-.635-.057,1.146,1.146,0,0,0-.882.334,1.356,1.356,0,0,0-.311.958v.726h1.466v.908H51.906V42Zm5.334-8.531v1.663h1.282v.908H56.066V40.3a.953.953,0,0,0,.171.62.721.721,0,0,0,.584.207,2.843,2.843,0,0,0,.559-.076V42a3.424,3.424,0,0,1-.9.126,1.462,1.462,0,0,1-1.187-.476,2.045,2.045,0,0,1-.4-1.352V36.04h-1.25v-.908h1.25V33.469Zm8.539,6.913,1.32-5.25H67.1L65.1,42h-.952l-1.669-5.205L60.854,42H59.9l-1.993-6.868h1.168l1.352,5.142,1.6-5.142h.946ZM72.339,42a2.467,2.467,0,0,1-.165-.724,2.62,2.62,0,0,1-1.955.851,2.424,2.424,0,0,1-1.666-.574A1.859,1.859,0,0,1,67.9,40.1a1.942,1.942,0,0,1,.816-1.666,3.846,3.846,0,0,1,2.295-.594h1.143V37.3a1.319,1.319,0,0,0-.368-.981,1.48,1.48,0,0,0-1.085-.365,1.712,1.712,0,0,0-1.054.317.935.935,0,0,0-.425.768H68.041a1.621,1.621,0,0,1,.365-.993,2.491,2.491,0,0,1,.99-.759A3.331,3.331,0,0,1,70.771,35a2.715,2.715,0,0,1,1.86.594,2.141,2.141,0,0,1,.7,1.635v3.161a3.865,3.865,0,0,0,.241,1.5V42Zm-1.949-.9a2.064,2.064,0,0,0,1.047-.286,1.728,1.728,0,0,0,.717-.743V38.667h-.92q-2.158,0-2.158,1.263a1.069,1.069,0,0,0,.368.863A1.415,1.415,0,0,0,70.39,41.1Zm7.9-4.919a3.519,3.519,0,0,0-.578-.044,1.547,1.547,0,0,0-1.568.984V42H74.975V35.132h1.143l.019.793A1.829,1.829,0,0,1,77.774,35a1.2,1.2,0,0,1,.521.089Zm3.734,5.941a3,3,0,0,1-2.272-.917,3.4,3.4,0,0,1-.876-2.453v-.216a4.121,4.121,0,0,1,.39-1.825,3.045,3.045,0,0,1,1.092-1.257A2.745,2.745,0,0,1,81.883,35a2.572,2.572,0,0,1,2.082.882,3.82,3.82,0,0,1,.743,2.526V38.9H80.055a2.441,2.441,0,0,0,.594,1.641,1.866,1.866,0,0,0,1.444.625,2.045,2.045,0,0,0,1.054-.254,2.648,2.648,0,0,0,.755-.673l.717.559A2.884,2.884,0,0,1,82.029,42.127Zm-.146-6.157a1.566,1.566,0,0,0-1.193.517,2.515,2.515,0,0,0-.6,1.45h3.44v-.089a2.237,2.237,0,0,0-.482-1.387A1.475,1.475,0,0,0,81.883,35.97ZM14.259,52.642a4.113,4.113,0,0,1-.717,2.526,2.3,2.3,0,0,1-1.942.958,2.519,2.519,0,0,1-1.968-.793v3.307H8.457V49.132H9.53l.057.762A2.419,2.419,0,0,1,11.58,49a2.342,2.342,0,0,1,1.958.933,4.157,4.157,0,0,1,.72,2.6Zm-1.174-.133a3.035,3.035,0,0,0-.5-1.834A1.6,1.6,0,0,0,11.231,50a1.726,1.726,0,0,0-1.6.946v3.282a1.73,1.73,0,0,0,1.612.939,1.587,1.587,0,0,0,1.343-.67A3.312,3.312,0,0,0,13.084,52.509Zm5.791-2.323a3.519,3.519,0,0,0-.578-.044,1.547,1.547,0,0,0-1.568.984V56H15.555V49.132H16.7l.019.793A1.829,1.829,0,0,1,18.355,49a1.2,1.2,0,0,1,.521.089Zm3.734,5.941a3,3,0,0,1-2.272-.917,3.4,3.4,0,0,1-.876-2.453v-.216a4.121,4.121,0,0,1,.39-1.825,3.045,3.045,0,0,1,1.092-1.257A2.745,2.745,0,0,1,22.464,49a2.572,2.572,0,0,1,2.082.882,3.82,3.82,0,0,1,.743,2.526V52.9H20.635a2.441,2.441,0,0,0,.594,1.641,1.866,1.866,0,0,0,1.444.625,2.045,2.045,0,0,0,1.054-.254,2.648,2.648,0,0,0,.755-.673l.717.559A2.884,2.884,0,0,1,22.61,56.127Zm-.146-6.157a1.566,1.566,0,0,0-1.193.517,2.515,2.515,0,0,0-.6,1.45h3.44v-.089a2.237,2.237,0,0,0-.482-1.387A1.475,1.475,0,0,0,22.464,49.97ZM27.029,56V50.04H25.944v-.908h1.085v-.7a2.339,2.339,0,0,1,.59-1.708,2.23,2.23,0,0,1,1.669-.6,3.1,3.1,0,0,1,.806.107l-.063.946a3.373,3.373,0,0,0-.635-.057,1.146,1.146,0,0,0-.882.334,1.356,1.356,0,0,0-.311.958v.726H29.67v.908H28.2V56Zm6.591.127a3,3,0,0,1-2.272-.917,3.4,3.4,0,0,1-.876-2.453v-.216a4.121,4.121,0,0,1,.39-1.825,3.045,3.045,0,0,1,1.092-1.257A2.745,2.745,0,0,1,33.474,49a2.572,2.572,0,0,1,2.082.882,3.82,3.82,0,0,1,.743,2.526V52.9H31.646a2.441,2.441,0,0,0,.594,1.641,1.866,1.866,0,0,0,1.444.625,2.045,2.045,0,0,0,1.054-.254,2.648,2.648,0,0,0,.755-.673l.717.559A2.884,2.884,0,0,1,33.62,56.127Zm-.146-6.157a1.566,1.566,0,0,0-1.193.517,2.515,2.515,0,0,0-.6,1.45h3.44v-.089a2.237,2.237,0,0,0-.482-1.387A1.475,1.475,0,0,0,33.474,49.97Zm7.308.216a3.519,3.519,0,0,0-.578-.044,1.547,1.547,0,0,0-1.568.984V56H37.462V49.132H38.6l.019.793A1.829,1.829,0,0,1,40.261,49a1.2,1.2,0,0,1,.521.089ZM42.942,56H41.767V49.132h1.174Zm-1.27-8.69a.7.7,0,0,1,.175-.482.655.655,0,0,1,.517-.2.666.666,0,0,1,.521.2.694.694,0,0,1,.178.482.671.671,0,0,1-.178.476.678.678,0,0,1-.521.19.667.667,0,0,1-.517-.19A.678.678,0,0,1,41.672,47.31Zm8.768,5.332a4.084,4.084,0,0,1-.724,2.53,2.312,2.312,0,0,1-1.942.955,2.394,2.394,0,0,1-2.012-.92L45.7,56H44.626V46.25H45.8v3.637A2.381,2.381,0,0,1,47.761,49a2.326,2.326,0,0,1,1.965.946,4.206,4.206,0,0,1,.714,2.59Zm-1.174-.133a3.173,3.173,0,0,0-.463-1.854A1.534,1.534,0,0,0,47.469,50,1.724,1.724,0,0,0,45.8,51.081v2.971a1.772,1.772,0,0,0,1.682,1.079,1.526,1.526,0,0,0,1.314-.654A3.374,3.374,0,0,0,49.266,52.509ZM53,56H51.826V46.25H53Zm4.534.127a3,3,0,0,1-2.272-.917,3.4,3.4,0,0,1-.876-2.453v-.216a4.121,4.121,0,0,1,.39-1.825,3.045,3.045,0,0,1,1.092-1.257A2.745,2.745,0,0,1,57.388,49a2.572,2.572,0,0,1,2.082.882,3.82,3.82,0,0,1,.743,2.526V52.9H55.56a2.441,2.441,0,0,0,.594,1.641,1.866,1.866,0,0,0,1.444.625,2.045,2.045,0,0,0,1.054-.254,2.648,2.648,0,0,0,.755-.673l.717.559A2.884,2.884,0,0,1,57.534,56.127Zm-.146-6.157a1.566,1.566,0,0,0-1.193.517,2.515,2.515,0,0,0-.6,1.45h3.44v-.089a2.237,2.237,0,0,0-.482-1.387A1.475,1.475,0,0,0,57.388,49.97Zm5.093-.838.032.762A2.536,2.536,0,0,1,64.55,49a1.964,1.964,0,0,1,1.961,1.1,2.6,2.6,0,0,1,.892-.8,2.634,2.634,0,0,1,1.3-.3q2.26,0,2.3,2.393V56H69.825V51.468a1.577,1.577,0,0,0-.336-1.1A1.482,1.482,0,0,0,68.359,50a1.557,1.557,0,0,0-1.085.39,1.584,1.584,0,0,0-.5,1.051V56H65.591V51.5A1.31,1.31,0,0,0,64.125,50a1.571,1.571,0,0,0-1.581.984V56H61.37V49.132Zm12.945,7a3,3,0,0,1-2.272-.917,3.4,3.4,0,0,1-.876-2.453v-.216a4.121,4.121,0,0,1,.39-1.825,3.045,3.045,0,0,1,1.092-1.257A2.745,2.745,0,0,1,75.279,49a2.572,2.572,0,0,1,2.082.882,3.82,3.82,0,0,1,.743,2.526V52.9H73.451a2.441,2.441,0,0,0,.594,1.641,1.866,1.866,0,0,0,1.444.625,2.045,2.045,0,0,0,1.054-.254,2.648,2.648,0,0,0,.755-.673l.717.559A2.884,2.884,0,0,1,75.425,56.127Zm-.146-6.157a1.566,1.566,0,0,0-1.193.517,2.515,2.515,0,0,0-.6,1.45h3.44v-.089a2.237,2.237,0,0,0-.482-1.387A1.475,1.475,0,0,0,75.279,49.97Zm5.1-.838.038.863A2.5,2.5,0,0,1,82.473,49q2.177,0,2.2,2.457V56H83.495V51.455a1.581,1.581,0,0,0-.34-1.1A1.361,1.361,0,0,0,82.118,50a1.7,1.7,0,0,0-1,.3,2.069,2.069,0,0,0-.673.8V56H79.267V49.132Zm7.46-1.663v1.663h1.282v.908H87.839V54.3a.953.953,0,0,0,.171.62.721.721,0,0,0,.584.207,2.843,2.843,0,0,0,.559-.076V56a3.424,3.424,0,0,1-.9.126,1.462,1.462,0,0,1-1.187-.476,2.045,2.045,0,0,1-.4-1.352V50.04h-1.25v-.908h1.25V47.469Zm5.308,8.658a3,3,0,0,1-2.272-.917A3.4,3.4,0,0,1,90,52.756v-.216a4.121,4.121,0,0,1,.39-1.825,3.045,3.045,0,0,1,1.092-1.257A2.745,2.745,0,0,1,93,49a2.572,2.572,0,0,1,2.082.882,3.82,3.82,0,0,1,.743,2.526V52.9H91.173a2.441,2.441,0,0,0,.594,1.641,1.866,1.866,0,0,0,1.444.625,2.045,2.045,0,0,0,1.054-.254,2.648,2.648,0,0,0,.755-.673l.717.559A2.884,2.884,0,0,1,93.147,56.127ZM93,49.97a1.566,1.566,0,0,0-1.193.517,2.515,2.515,0,0,0-.6,1.45h3.44v-.089a2.237,2.237,0,0,0-.482-1.387A1.475,1.475,0,0,0,93,49.97Zm6.726,2.539a4.023,4.023,0,0,1,.749-2.542,2.548,2.548,0,0,1,3.872-.136V46.25h1.174V56h-1.079l-.057-.736a2.391,2.391,0,0,1-1.961.863,2.346,2.346,0,0,1-1.946-.978,4.069,4.069,0,0,1-.752-2.552Zm1.174.133a3.046,3.046,0,0,0,.482,1.828,1.56,1.56,0,0,0,1.333.66,1.713,1.713,0,0,0,1.631-1V50.973A1.726,1.726,0,0,0,102.729,50a1.567,1.567,0,0,0-1.346.667A3.354,3.354,0,0,0,100.9,52.642Zm9.1,3.485a3,3,0,0,1-2.272-.917,3.4,3.4,0,0,1-.876-2.453v-.216a4.121,4.121,0,0,1,.39-1.825,3.045,3.045,0,0,1,1.092-1.257,2.745,2.745,0,0,1,1.52-.454,2.572,2.572,0,0,1,2.082.882,3.82,3.82,0,0,1,.743,2.526V52.9h-4.653a2.441,2.441,0,0,0,.594,1.641,1.866,1.866,0,0,0,1.444.625,2.045,2.045,0,0,0,1.054-.254,2.648,2.648,0,0,0,.755-.673l.717.559A2.884,2.884,0,0,1,110,56.127Zm-.146-6.157a1.566,1.566,0,0,0-1.193.517,2.515,2.515,0,0,0-.6,1.45h3.44v-.089a2.237,2.237,0,0,0-.482-1.387A1.475,1.475,0,0,0,109.853,49.97ZM10.346,70V64.04H9.261v-.908h1.085v-.7a2.339,2.339,0,0,1,.59-1.708,2.23,2.23,0,0,1,1.669-.6,3.1,3.1,0,0,1,.806.107l-.063.946a3.373,3.373,0,0,0-.635-.057,1.146,1.146,0,0,0-.882.334,1.356,1.356,0,0,0-.311.958v.726h1.466v.908H11.521V70Zm3.43-3.5a4.057,4.057,0,0,1,.4-1.815,2.96,2.96,0,0,1,1.1-1.244A3.007,3.007,0,0,1,16.893,63a2.9,2.9,0,0,1,2.269.971,3.736,3.736,0,0,1,.866,2.583v.083a4.092,4.092,0,0,1-.384,1.8,2.916,2.916,0,0,1-1.1,1.241,3.041,3.041,0,0,1-1.641.444,2.889,2.889,0,0,1-2.263-.971,3.718,3.718,0,0,1-.866-2.571Zm1.181.14a2.938,2.938,0,0,0,.53,1.834,1.8,1.8,0,0,0,2.841-.01,3.213,3.213,0,0,0,.527-1.965,2.933,2.933,0,0,0-.536-1.831,1.705,1.705,0,0,0-1.425-.7,1.686,1.686,0,0,0-1.4.692A3.189,3.189,0,0,0,14.957,66.642Zm9.669-2.457a3.519,3.519,0,0,0-.578-.044,1.547,1.547,0,0,0-1.568.984V70H21.306V63.132h1.143l.019.793A1.829,1.829,0,0,1,24.105,63a1.2,1.2,0,0,1,.521.089Zm1.989-1.054.032.762A2.536,2.536,0,0,1,28.684,63a1.964,1.964,0,0,1,1.961,1.1,2.6,2.6,0,0,1,.892-.8,2.634,2.634,0,0,1,1.3-.3q2.26,0,2.3,2.393V70H33.959V65.468a1.577,1.577,0,0,0-.336-1.1A1.482,1.482,0,0,0,32.492,64a1.557,1.557,0,0,0-1.085.39,1.584,1.584,0,0,0-.5,1.051V70H29.725V65.5A1.31,1.31,0,0,0,28.258,64a1.571,1.571,0,0,0-1.581.984V70H25.5V63.132ZM40.949,70a2.467,2.467,0,0,1-.165-.724,2.62,2.62,0,0,1-1.955.851,2.424,2.424,0,0,1-1.666-.574,1.859,1.859,0,0,1-.651-1.457,1.942,1.942,0,0,1,.816-1.666,3.846,3.846,0,0,1,2.295-.594h1.143V65.3a1.319,1.319,0,0,0-.368-.981,1.48,1.48,0,0,0-1.085-.365,1.712,1.712,0,0,0-1.054.317.935.935,0,0,0-.425.768H36.652a1.621,1.621,0,0,1,.365-.993,2.491,2.491,0,0,1,.99-.759A3.331,3.331,0,0,1,39.381,63a2.715,2.715,0,0,1,1.86.594,2.141,2.141,0,0,1,.7,1.635v3.161a3.865,3.865,0,0,0,.241,1.5V70ZM39,69.1a2.064,2.064,0,0,0,1.047-.286,1.728,1.728,0,0,0,.717-.743V66.667h-.92q-2.158,0-2.158,1.263a1.069,1.069,0,0,0,.368.863A1.415,1.415,0,0,0,39,69.1Zm11.848.9a2.467,2.467,0,0,1-.165-.724,2.62,2.62,0,0,1-1.955.851,2.424,2.424,0,0,1-1.666-.574,1.859,1.859,0,0,1-.651-1.457,1.942,1.942,0,0,1,.816-1.666,3.846,3.846,0,0,1,2.295-.594h1.143V65.3a1.319,1.319,0,0,0-.368-.981,1.48,1.48,0,0,0-1.085-.365,1.712,1.712,0,0,0-1.054.317.935.935,0,0,0-.425.768H46.551a1.621,1.621,0,0,1,.365-.993,2.491,2.491,0,0,1,.99-.759A3.331,3.331,0,0,1,49.281,63a2.715,2.715,0,0,1,1.86.594,2.141,2.141,0,0,1,.7,1.635v3.161a3.865,3.865,0,0,0,.241,1.5V70ZM48.9,69.1a2.064,2.064,0,0,0,1.047-.286,1.728,1.728,0,0,0,.717-.743V66.667h-.92q-2.158,0-2.158,1.263a1.069,1.069,0,0,0,.368.863A1.415,1.415,0,0,0,48.9,69.1Zm8.825.216a2.494,2.494,0,0,1-2.012.806,2.135,2.135,0,0,1-1.673-.638,2.761,2.761,0,0,1-.581-1.888V63.132h1.174v4.437q0,1.562,1.27,1.562a1.758,1.758,0,0,0,1.79-1v-5h1.174V70H57.75Zm4.325-7.852v1.663h1.282v.908H62.05V68.3a.953.953,0,0,0,.171.62.721.721,0,0,0,.584.207,2.843,2.843,0,0,0,.559-.076V70a3.424,3.424,0,0,1-.9.126,1.462,1.462,0,0,1-1.187-.476,2.045,2.045,0,0,1-.4-1.352V64.04h-1.25v-.908h1.25V61.469ZM64.07,66.5a4.057,4.057,0,0,1,.4-1.815,2.959,2.959,0,0,1,1.1-1.244A3.007,3.007,0,0,1,67.187,63a2.9,2.9,0,0,1,2.269.971,3.736,3.736,0,0,1,.866,2.583v.083a4.092,4.092,0,0,1-.384,1.8,2.916,2.916,0,0,1-1.1,1.241,3.041,3.041,0,0,1-1.641.444,2.889,2.889,0,0,1-2.263-.971,3.718,3.718,0,0,1-.866-2.571Zm1.181.14a2.938,2.938,0,0,0,.53,1.834,1.8,1.8,0,0,0,2.841-.01,3.213,3.213,0,0,0,.527-1.965,2.933,2.933,0,0,0-.536-1.831,1.705,1.705,0,0,0-1.425-.7,1.686,1.686,0,0,0-1.4.692A3.189,3.189,0,0,0,65.251,66.642Zm7.454-3.51.032.762A2.536,2.536,0,0,1,74.774,63a1.964,1.964,0,0,1,1.961,1.1,2.6,2.6,0,0,1,.892-.8,2.634,2.634,0,0,1,1.3-.3q2.26,0,2.3,2.393V70H80.049V65.468a1.577,1.577,0,0,0-.336-1.1A1.482,1.482,0,0,0,78.582,64a1.557,1.557,0,0,0-1.085.39,1.584,1.584,0,0,0-.5,1.051V70H75.815V65.5A1.31,1.31,0,0,0,74.348,64a1.571,1.571,0,0,0-1.581.984V70H71.594V63.132ZM87.039,70a2.467,2.467,0,0,1-.165-.724,2.62,2.62,0,0,1-1.955.851,2.424,2.424,0,0,1-1.666-.574A1.859,1.859,0,0,1,82.6,68.1a1.942,1.942,0,0,1,.816-1.666,3.846,3.846,0,0,1,2.295-.594h1.143V65.3a1.319,1.319,0,0,0-.368-.981,1.48,1.48,0,0,0-1.085-.365,1.712,1.712,0,0,0-1.054.317.935.935,0,0,0-.425.768H82.742a1.621,1.621,0,0,1,.365-.993,2.491,2.491,0,0,1,.99-.759A3.331,3.331,0,0,1,85.471,63a2.715,2.715,0,0,1,1.86.594,2.141,2.141,0,0,1,.7,1.635v3.161a3.865,3.865,0,0,0,.241,1.5V70Zm-1.949-.9a2.064,2.064,0,0,0,1.047-.286,1.728,1.728,0,0,0,.717-.743V66.667h-.92q-2.158,0-2.158,1.263a1.069,1.069,0,0,0,.368.863A1.415,1.415,0,0,0,85.09,69.1Zm1.085-8.855H87.6l-1.7,1.866-.946,0Zm5.093,1.219v1.663h1.282v.908H91.269V68.3a.953.953,0,0,0,.171.62.721.721,0,0,0,.584.207,2.843,2.843,0,0,0,.559-.076V70a3.424,3.424,0,0,1-.9.126,1.462,1.462,0,0,1-1.187-.476,2.045,2.045,0,0,1-.4-1.352V64.04h-1.25v-.908h1.25V61.469ZM95,70H93.828V63.132H95Zm-1.27-8.69a.7.7,0,0,1,.175-.482.655.655,0,0,1,.517-.2.666.666,0,0,1,.521.2.694.694,0,0,1,.178.482.671.671,0,0,1-.178.476.678.678,0,0,1-.521.19.667.667,0,0,1-.517-.19A.678.678,0,0,1,93.733,61.31Zm5.708,7.858a1.691,1.691,0,0,0,1.1-.381,1.34,1.34,0,0,0,.521-.952h1.111a2.13,2.13,0,0,1-.406,1.124,2.676,2.676,0,0,1-1,.851,2.885,2.885,0,0,1-1.323.317,2.829,2.829,0,0,1-2.231-.936,3.729,3.729,0,0,1-.828-2.561v-.2a4.135,4.135,0,0,1,.368-1.784,2.8,2.8,0,0,1,1.057-1.212A3,3,0,0,1,99.435,63a2.755,2.755,0,0,1,1.92.692,2.473,2.473,0,0,1,.816,1.8H101.06a1.618,1.618,0,0,0-.5-1.095,1.57,1.57,0,0,0-1.12-.428,1.644,1.644,0,0,0-1.387.644,3.026,3.026,0,0,0-.492,1.863V66.7a2.966,2.966,0,0,0,.489,1.828A1.651,1.651,0,0,0,99.442,69.168Zm8.1.832a2.467,2.467,0,0,1-.165-.724,2.62,2.62,0,0,1-1.955.851,2.424,2.424,0,0,1-1.666-.574A1.859,1.859,0,0,1,103.1,68.1a1.942,1.942,0,0,1,.816-1.666,3.846,3.846,0,0,1,2.295-.594h1.143V65.3a1.319,1.319,0,0,0-.368-.981,1.48,1.48,0,0,0-1.085-.365,1.712,1.712,0,0,0-1.054.317.935.935,0,0,0-.425.768h-1.181a1.621,1.621,0,0,1,.365-.993,2.491,2.491,0,0,1,.99-.759A3.331,3.331,0,0,1,105.969,63a2.715,2.715,0,0,1,1.86.594,2.141,2.141,0,0,1,.7,1.635v3.161a3.865,3.865,0,0,0,.241,1.5V70Zm-1.949-.9a2.064,2.064,0,0,0,1.047-.286,1.728,1.728,0,0,0,.717-.743V66.667h-.92q-2.158,0-2.158,1.263a1.069,1.069,0,0,0,.368.863A1.415,1.415,0,0,0,105.588,69.1Zm4.547,2.736-.667-.457a3.063,3.063,0,0,0,.622-1.714V68.61h1.149v.92a2.891,2.891,0,0,1-.314,1.282A3,3,0,0,1,110.135,71.841ZM23.894,80.509a4.031,4.031,0,0,1,.743-2.561,2.621,2.621,0,0,1,3.917-.124l.051-.692h1.079v9.509H28.508V83.365a2.465,2.465,0,0,1-1.892.762,2.369,2.369,0,0,1-1.984-.968,4.121,4.121,0,0,1-.74-2.568Zm1.174.133a3.056,3.056,0,0,0,.5,1.854,1.585,1.585,0,0,0,1.343.673,1.758,1.758,0,0,0,1.6-.927V78.877a1.764,1.764,0,0,0-1.587-.908,1.6,1.6,0,0,0-1.352.676A3.327,3.327,0,0,0,25.068,80.642Zm10.545,2.679a2.494,2.494,0,0,1-2.012.806,2.135,2.135,0,0,1-1.673-.638,2.761,2.761,0,0,1-.581-1.888V77.132h1.174v4.437q0,1.562,1.27,1.562a1.758,1.758,0,0,0,1.79-1v-5h1.174V84H35.638Zm5.581.806a3,3,0,0,1-2.272-.917,3.4,3.4,0,0,1-.876-2.453v-.216a4.121,4.121,0,0,1,.39-1.825,3.045,3.045,0,0,1,1.092-1.257A2.745,2.745,0,0,1,41.048,77a2.572,2.572,0,0,1,2.082.882,3.82,3.82,0,0,1,.743,2.526V80.9H39.22a2.441,2.441,0,0,0,.594,1.641,1.866,1.866,0,0,0,1.444.625,2.045,2.045,0,0,0,1.054-.254,2.648,2.648,0,0,0,.755-.673l.717.559A2.884,2.884,0,0,1,41.194,84.127Zm-.146-6.157a1.566,1.566,0,0,0-1.193.517,2.515,2.515,0,0,0-.6,1.45H42.7v-.089a2.237,2.237,0,0,0-.482-1.387A1.475,1.475,0,0,0,41.048,77.97Zm12.813,2.672a4.113,4.113,0,0,1-.717,2.526,2.3,2.3,0,0,1-1.942.958,2.519,2.519,0,0,1-1.968-.793v3.307H48.06V77.132h1.073l.057.762A2.419,2.419,0,0,1,51.183,77a2.342,2.342,0,0,1,1.958.933,4.157,4.157,0,0,1,.72,2.6Zm-1.174-.133a3.035,3.035,0,0,0-.5-1.834A1.6,1.6,0,0,0,50.834,78a1.726,1.726,0,0,0-1.6.946v3.282a1.73,1.73,0,0,0,1.612.939,1.587,1.587,0,0,0,1.343-.67A3.312,3.312,0,0,0,52.687,80.509Zm5.321,3.618a3,3,0,0,1-2.272-.917,3.4,3.4,0,0,1-.876-2.453v-.216a4.121,4.121,0,0,1,.39-1.825,3.045,3.045,0,0,1,1.092-1.257A2.745,2.745,0,0,1,57.862,77a2.572,2.572,0,0,1,2.082.882,3.82,3.82,0,0,1,.743,2.526V80.9H56.034a2.441,2.441,0,0,0,.594,1.641,1.866,1.866,0,0,0,1.444.625,2.045,2.045,0,0,0,1.054-.254,2.648,2.648,0,0,0,.755-.673l.717.559A2.884,2.884,0,0,1,58.008,84.127Zm-.146-6.157a1.566,1.566,0,0,0-1.193.517,2.515,2.515,0,0,0-.6,1.45h3.44v-.089a2.237,2.237,0,0,0-.482-1.387A1.475,1.475,0,0,0,57.862,77.97Zm7.308.216a3.519,3.519,0,0,0-.578-.044,1.547,1.547,0,0,0-1.568.984V84H61.85V77.132h1.143l.019.793A1.829,1.829,0,0,1,64.65,77a1.2,1.2,0,0,1,.521.089Zm1.989-1.054.032.762A2.536,2.536,0,0,1,69.228,77a1.964,1.964,0,0,1,1.961,1.1,2.6,2.6,0,0,1,.892-.8,2.634,2.634,0,0,1,1.3-.3q2.26,0,2.3,2.393V84H74.5V79.468a1.577,1.577,0,0,0-.336-1.1A1.482,1.482,0,0,0,73.037,78a1.557,1.557,0,0,0-1.085.39,1.584,1.584,0,0,0-.5,1.051V84H70.269V79.5A1.31,1.31,0,0,0,68.8,78a1.571,1.571,0,0,0-1.581.984V84H66.048V77.132ZM78.529,84H77.355V77.132h1.174Zm-1.27-8.69a.7.7,0,0,1,.175-.482.655.655,0,0,1,.517-.2.666.666,0,0,1,.521.2.694.694,0,0,1,.178.482.671.671,0,0,1-.178.476.678.678,0,0,1-.521.19.667.667,0,0,1-.517-.19A.678.678,0,0,1,77.26,75.31Zm4.547.159v1.663h1.282v.908H81.806V82.3a.953.953,0,0,0,.171.62.721.721,0,0,0,.584.207,2.843,2.843,0,0,0,.559-.076V84a3.424,3.424,0,0,1-.9.126,1.462,1.462,0,0,1-1.187-.476,2.045,2.045,0,0,1-.4-1.352V78.04h-1.25v-.908h1.25V75.469ZM88.505,84a2.467,2.467,0,0,1-.165-.724,2.62,2.62,0,0,1-1.955.851,2.424,2.424,0,0,1-1.666-.574,1.859,1.859,0,0,1-.651-1.457,1.942,1.942,0,0,1,.816-1.666,3.846,3.846,0,0,1,2.295-.594h1.143V79.3a1.319,1.319,0,0,0-.368-.981,1.48,1.48,0,0,0-1.085-.365,1.712,1.712,0,0,0-1.054.317.935.935,0,0,0-.425.768H84.208a1.621,1.621,0,0,1,.365-.993,2.491,2.491,0,0,1,.99-.759A3.331,3.331,0,0,1,86.937,77a2.715,2.715,0,0,1,1.86.594,2.141,2.141,0,0,1,.7,1.635v3.161a3.865,3.865,0,0,0,.241,1.5V84Zm-1.949-.9a2.064,2.064,0,0,0,1.047-.286,1.728,1.728,0,0,0,.717-.743V80.667H87.4q-2.158,0-2.158,1.263a1.069,1.069,0,0,0,.368.863A1.415,1.415,0,0,0,86.556,83.1Zm5.7-5.973L92.29,78A2.5,2.5,0,0,1,94.347,77q2.177,0,2.2,2.457V84H95.369V79.455a1.581,1.581,0,0,0-.34-1.1A1.361,1.361,0,0,0,93.991,78a1.7,1.7,0,0,0-1,.3,2.069,2.069,0,0,0-.673.8V84H91.141V77.132ZM9.451,96.178a.865.865,0,0,0-.359-.74,3.452,3.452,0,0,0-1.25-.454,5.912,5.912,0,0,1-1.416-.457,2.014,2.014,0,0,1-.774-.635,1.518,1.518,0,0,1-.251-.876,1.782,1.782,0,0,1,.714-1.428A2.789,2.789,0,0,1,7.94,91a2.87,2.87,0,0,1,1.895.6,1.915,1.915,0,0,1,.727,1.542H9.381a1.06,1.06,0,0,0-.409-.832A1.534,1.534,0,0,0,7.94,91.97a1.606,1.606,0,0,0-1,.279.879.879,0,0,0-.362.73.712.712,0,0,0,.336.641,4.139,4.139,0,0,0,1.216.413,6.334,6.334,0,0,1,1.425.47,2.079,2.079,0,0,1,.809.657,1.615,1.615,0,0,1,.263.936,1.758,1.758,0,0,1-.736,1.476,3.089,3.089,0,0,1-1.911.555,3.459,3.459,0,0,1-1.46-.292,2.375,2.375,0,0,1-.993-.816,1.966,1.966,0,0,1-.359-1.133H6.341a1.216,1.216,0,0,0,.473.936,1.835,1.835,0,0,0,1.165.346,1.894,1.894,0,0,0,1.07-.27A.829.829,0,0,0,9.451,96.178Zm2.2-1.676a4.057,4.057,0,0,1,.4-1.815,2.96,2.96,0,0,1,1.1-1.244A3.007,3.007,0,0,1,14.766,91a2.9,2.9,0,0,1,2.269.971A3.736,3.736,0,0,1,17.9,94.56v.083a4.092,4.092,0,0,1-.384,1.8,2.916,2.916,0,0,1-1.1,1.241,3.041,3.041,0,0,1-1.641.444,2.889,2.889,0,0,1-2.263-.971,3.718,3.718,0,0,1-.866-2.571Zm1.181.14a2.938,2.938,0,0,0,.53,1.834,1.8,1.8,0,0,0,2.841-.01,3.213,3.213,0,0,0,.527-1.965,2.933,2.933,0,0,0-.536-1.831,1.705,1.705,0,0,0-1.425-.7,1.686,1.686,0,0,0-1.4.692A3.189,3.189,0,0,0,12.83,94.642ZM20.455,98H19.281V88.25h1.174Zm5.924-.679a2.494,2.494,0,0,1-2.012.806,2.135,2.135,0,0,1-1.673-.638,2.761,2.761,0,0,1-.581-1.888V91.132h1.174v4.437q0,1.562,1.27,1.562a1.758,1.758,0,0,0,1.79-1v-5h1.174V98H26.4Zm5.486-.152a1.692,1.692,0,0,0,1.1-.381,1.34,1.34,0,0,0,.521-.952h1.111a2.13,2.13,0,0,1-.406,1.124,2.676,2.676,0,0,1-1,.851,2.885,2.885,0,0,1-1.323.317,2.829,2.829,0,0,1-2.231-.936,3.729,3.729,0,0,1-.828-2.561v-.2a4.135,4.135,0,0,1,.368-1.784,2.8,2.8,0,0,1,1.057-1.212A3,3,0,0,1,31.859,91a2.755,2.755,0,0,1,1.92.692,2.473,2.473,0,0,1,.816,1.8H33.484a1.618,1.618,0,0,0-.5-1.095,1.57,1.57,0,0,0-1.12-.428,1.644,1.644,0,0,0-1.387.644,3.026,3.026,0,0,0-.492,1.863V94.7a2.965,2.965,0,0,0,.489,1.828A1.651,1.651,0,0,0,31.865,97.168ZM37,98H35.822V91.132H37Zm-1.27-8.69a.7.7,0,0,1,.175-.482.655.655,0,0,1,.517-.2.666.666,0,0,1,.521.2.694.694,0,0,1,.178.482.671.671,0,0,1-.178.476.678.678,0,0,1-.521.19.667.667,0,0,1-.517-.19A.678.678,0,0,1,35.726,89.31ZM38.369,94.5a4.057,4.057,0,0,1,.4-1.815,2.96,2.96,0,0,1,1.1-1.244A3.007,3.007,0,0,1,41.486,91a2.9,2.9,0,0,1,2.269.971,3.736,3.736,0,0,1,.866,2.583v.083a4.092,4.092,0,0,1-.384,1.8,2.916,2.916,0,0,1-1.1,1.241,3.041,3.041,0,0,1-1.641.444,2.889,2.889,0,0,1-2.263-.971,3.718,3.718,0,0,1-.866-2.571Zm1.181.14a2.938,2.938,0,0,0,.53,1.834,1.8,1.8,0,0,0,2.841-.01,3.213,3.213,0,0,0,.527-1.965,2.933,2.933,0,0,0-.536-1.831,1.705,1.705,0,0,0-1.425-.7,1.686,1.686,0,0,0-1.4.692A3.189,3.189,0,0,0,39.549,94.642Zm7.46-3.51.038.863A2.5,2.5,0,0,1,49.1,91q2.177,0,2.2,2.457V98H50.126V93.455a1.581,1.581,0,0,0-.34-1.1A1.361,1.361,0,0,0,48.749,92a1.7,1.7,0,0,0-1,.3,2.069,2.069,0,0,0-.673.8V98H45.9V91.132ZM57.117,98a2.467,2.467,0,0,1-.165-.724A2.62,2.62,0,0,1,55,98.127a2.424,2.424,0,0,1-1.666-.574A1.859,1.859,0,0,1,52.68,96.1a1.942,1.942,0,0,1,.816-1.666,3.846,3.846,0,0,1,2.295-.594h1.143V93.3a1.319,1.319,0,0,0-.368-.981,1.48,1.48,0,0,0-1.085-.365,1.712,1.712,0,0,0-1.054.317.935.935,0,0,0-.425.768H52.82a1.621,1.621,0,0,1,.365-.993,2.491,2.491,0,0,1,.99-.759A3.331,3.331,0,0,1,55.549,91a2.715,2.715,0,0,1,1.86.594,2.141,2.141,0,0,1,.7,1.635v3.161a3.865,3.865,0,0,0,.241,1.5V98Zm-1.949-.9a2.064,2.064,0,0,0,1.047-.286,1.728,1.728,0,0,0,.717-.743V94.667h-.92q-2.158,0-2.158,1.263a1.069,1.069,0,0,0,.368.863A1.415,1.415,0,0,0,55.168,97.1Zm7.9-4.919a3.519,3.519,0,0,0-.578-.044,1.547,1.547,0,0,0-1.568.984V98H59.753V91.132H60.9l.019.793A1.829,1.829,0,0,1,62.552,91a1.2,1.2,0,0,1,.521.089ZM68.256,98H67.082V88.25h1.174Zm5.924,0a2.467,2.467,0,0,1-.165-.724,2.62,2.62,0,0,1-1.955.851,2.424,2.424,0,0,1-1.666-.574,1.859,1.859,0,0,1-.651-1.457,1.942,1.942,0,0,1,.816-1.666,3.846,3.846,0,0,1,2.295-.594H74V93.3a1.319,1.319,0,0,0-.368-.981,1.48,1.48,0,0,0-1.085-.365,1.712,1.712,0,0,0-1.054.317.935.935,0,0,0-.425.768H69.883a1.621,1.621,0,0,1,.365-.993,2.491,2.491,0,0,1,.99-.759A3.331,3.331,0,0,1,72.612,91a2.715,2.715,0,0,1,1.86.594,2.141,2.141,0,0,1,.7,1.635v3.161a3.865,3.865,0,0,0,.241,1.5V98Zm-1.949-.9a2.064,2.064,0,0,0,1.047-.286A1.728,1.728,0,0,0,74,96.077V94.667h-.92q-2.158,0-2.158,1.263a1.069,1.069,0,0,0,.368.863A1.415,1.415,0,0,0,72.232,97.1Zm8.584-.927a.864.864,0,0,0-.359-.74,3.452,3.452,0,0,0-1.25-.454,5.912,5.912,0,0,1-1.416-.457,2.014,2.014,0,0,1-.774-.635,1.518,1.518,0,0,1-.251-.876,1.782,1.782,0,0,1,.714-1.428A2.789,2.789,0,0,1,79.3,91a2.87,2.87,0,0,1,1.895.6,1.915,1.915,0,0,1,.727,1.542H80.746a1.06,1.06,0,0,0-.409-.832A1.534,1.534,0,0,0,79.3,91.97a1.606,1.606,0,0,0-1,.279.879.879,0,0,0-.362.73.712.712,0,0,0,.336.641,4.139,4.139,0,0,0,1.216.413,6.334,6.334,0,0,1,1.425.47,2.079,2.079,0,0,1,.809.657,1.615,1.615,0,0,1,.263.936,1.758,1.758,0,0,1-.736,1.476,3.089,3.089,0,0,1-1.911.555,3.459,3.459,0,0,1-1.46-.292,2.375,2.375,0,0,1-.993-.816,1.966,1.966,0,0,1-.359-1.133H77.7a1.216,1.216,0,0,0,.473.936,1.835,1.835,0,0,0,1.165.346,1.894,1.894,0,0,0,1.07-.27A.829.829,0,0,0,80.815,96.178ZM86.925,98V92.04H85.84v-.908h1.085v-.7a2.339,2.339,0,0,1,.59-1.708,2.23,2.23,0,0,1,1.669-.6,3.1,3.1,0,0,1,.806.107l-.063.946a3.373,3.373,0,0,0-.635-.057,1.146,1.146,0,0,0-.882.334,1.356,1.356,0,0,0-.311.958v.726h1.466v.908H88.1V98Zm7.981,0a2.467,2.467,0,0,1-.165-.724,2.62,2.62,0,0,1-1.955.851,2.424,2.424,0,0,1-1.666-.574,1.859,1.859,0,0,1-.651-1.457,1.942,1.942,0,0,1,.816-1.666,3.846,3.846,0,0,1,2.295-.594h1.143V93.3a1.319,1.319,0,0,0-.368-.981,1.48,1.48,0,0,0-1.085-.365,1.712,1.712,0,0,0-1.054.317.935.935,0,0,0-.425.768H90.609a1.621,1.621,0,0,1,.365-.993,2.491,2.491,0,0,1,.99-.759A3.331,3.331,0,0,1,93.338,91a2.715,2.715,0,0,1,1.86.594,2.141,2.141,0,0,1,.7,1.635v3.161a3.865,3.865,0,0,0,.241,1.5V98Zm-1.949-.9A2.064,2.064,0,0,0,94,96.819a1.728,1.728,0,0,0,.717-.743V94.667H93.8q-2.158,0-2.158,1.263a1.069,1.069,0,0,0,.368.863A1.415,1.415,0,0,0,92.957,97.1Zm5.861.9H97.644V88.25h1.174Zm2.96,0H100.6V88.25h1.174Zm5.924,0a2.467,2.467,0,0,1-.165-.724,2.62,2.62,0,0,1-1.955.851,2.424,2.424,0,0,1-1.666-.574,1.859,1.859,0,0,1-.651-1.457,1.942,1.942,0,0,1,.816-1.666,3.846,3.846,0,0,1,2.295-.594h1.143V93.3a1.319,1.319,0,0,0-.368-.981,1.48,1.48,0,0,0-1.085-.365,1.712,1.712,0,0,0-1.054.317.935.935,0,0,0-.425.768H103.4a1.621,1.621,0,0,1,.365-.993,2.491,2.491,0,0,1,.99-.759A3.331,3.331,0,0,1,106.134,91a2.715,2.715,0,0,1,1.86.594,2.141,2.141,0,0,1,.7,1.635v3.161a3.865,3.865,0,0,0,.241,1.5V98Zm-1.949-.9a2.064,2.064,0,0,0,1.047-.286,1.728,1.728,0,0,0,.717-.743V94.667h-.92q-2.158,0-2.158,1.263a1.069,1.069,0,0,0,.368.863A1.415,1.415,0,0,0,105.753,97.1Zm8.584-.927a.864.864,0,0,0-.359-.74,3.452,3.452,0,0,0-1.25-.454,5.912,5.912,0,0,1-1.416-.457,2.014,2.014,0,0,1-.774-.635,1.518,1.518,0,0,1-.251-.876A1.782,1.782,0,0,1,111,91.589,2.789,2.789,0,0,1,112.826,91a2.87,2.87,0,0,1,1.895.6,1.915,1.915,0,0,1,.727,1.542h-1.181a1.06,1.06,0,0,0-.409-.832,1.534,1.534,0,0,0-1.031-.349,1.606,1.606,0,0,0-1,.279.879.879,0,0,0-.362.73.712.712,0,0,0,.336.641,4.139,4.139,0,0,0,1.216.413,6.334,6.334,0,0,1,1.425.47,2.079,2.079,0,0,1,.809.657,1.615,1.615,0,0,1,.263.936,1.758,1.758,0,0,1-.736,1.476,3.089,3.089,0,0,1-1.911.555,3.459,3.459,0,0,1-1.46-.292,2.375,2.375,0,0,1-.993-.816,1.966,1.966,0,0,1-.359-1.133h1.174a1.216,1.216,0,0,0,.473.936,1.835,1.835,0,0,0,1.165.346,1.894,1.894,0,0,0,1.07-.27A.829.829,0,0,0,114.337,96.178ZM6.444,108.509a4.023,4.023,0,0,1,.749-2.542A2.369,2.369,0,0,1,9.154,105a2.382,2.382,0,0,1,1.911.825v-3.58h1.174V112H11.16l-.057-.736a2.391,2.391,0,0,1-1.961.863,2.346,2.346,0,0,1-1.946-.978,4.069,4.069,0,0,1-.752-2.552Zm1.174.133A3.046,3.046,0,0,0,8.1,110.47a1.56,1.56,0,0,0,1.333.66,1.713,1.713,0,0,0,1.631-1v-3.155A1.726,1.726,0,0,0,9.446,106a1.567,1.567,0,0,0-1.346.667A3.354,3.354,0,0,0,7.618,108.642Zm9.1,3.485a3,3,0,0,1-2.272-.917,3.4,3.4,0,0,1-.876-2.453v-.216a4.121,4.121,0,0,1,.39-1.825,3.045,3.045,0,0,1,1.092-1.257A2.745,2.745,0,0,1,16.57,105a2.572,2.572,0,0,1,2.082.882,3.82,3.82,0,0,1,.743,2.526v.489H14.742a2.441,2.441,0,0,0,.594,1.641,1.866,1.866,0,0,0,1.444.625,2.045,2.045,0,0,0,1.054-.254,2.648,2.648,0,0,0,.755-.673l.717.559A2.884,2.884,0,0,1,16.716,112.127Zm-.146-6.157a1.566,1.566,0,0,0-1.193.517,2.515,2.515,0,0,0-.6,1.45h3.44v-.089a2.237,2.237,0,0,0-.482-1.387A1.475,1.475,0,0,0,16.57,105.97Zm11.01,4.208a.865.865,0,0,0-.359-.74,3.452,3.452,0,0,0-1.25-.454,5.912,5.912,0,0,1-1.416-.457,2.014,2.014,0,0,1-.774-.635,1.518,1.518,0,0,1-.251-.876,1.782,1.782,0,0,1,.714-1.428A2.789,2.789,0,0,1,26.07,105a2.87,2.87,0,0,1,1.895.6,1.915,1.915,0,0,1,.727,1.542H27.511a1.06,1.06,0,0,0-.409-.832,1.534,1.534,0,0,0-1.031-.349,1.606,1.606,0,0,0-1,.279.879.879,0,0,0-.362.73.712.712,0,0,0,.336.641,4.139,4.139,0,0,0,1.216.413,6.334,6.334,0,0,1,1.425.47,2.079,2.079,0,0,1,.809.657,1.615,1.615,0,0,1,.263.936,1.758,1.758,0,0,1-.736,1.476,3.089,3.089,0,0,1-1.911.555,3.459,3.459,0,0,1-1.46-.292,2.375,2.375,0,0,1-.993-.816,1.966,1.966,0,0,1-.359-1.133H24.47a1.216,1.216,0,0,0,.473.936,1.835,1.835,0,0,0,1.165.346,1.894,1.894,0,0,0,1.07-.27A.829.829,0,0,0,27.581,110.178Zm5.359,1.949a3,3,0,0,1-2.272-.917,3.4,3.4,0,0,1-.876-2.453v-.216a4.121,4.121,0,0,1,.39-1.825,3.045,3.045,0,0,1,1.092-1.257,2.745,2.745,0,0,1,1.52-.454,2.572,2.572,0,0,1,2.082.882,3.82,3.82,0,0,1,.743,2.526v.489H30.966a2.441,2.441,0,0,0,.594,1.641,1.866,1.866,0,0,0,1.444.625,2.045,2.045,0,0,0,1.054-.254,2.648,2.648,0,0,0,.755-.673l.717.559A2.884,2.884,0,0,1,32.94,112.127Zm-.146-6.157a1.566,1.566,0,0,0-1.193.517,2.515,2.515,0,0,0-.6,1.45h3.44v-.089a2.237,2.237,0,0,0-.482-1.387A1.475,1.475,0,0,0,32.794,105.97Zm3.709,2.539a4.037,4.037,0,0,1,.743-2.555,2.56,2.56,0,0,1,3.929-.06l.057-.762H42.3v6.7a2.794,2.794,0,0,1-.79,2.1,2.916,2.916,0,0,1-2.123.768,3.532,3.532,0,0,1-1.454-.317,2.5,2.5,0,0,1-1.085-.87l.609-.7a2.3,2.3,0,0,0,1.847.933,1.8,1.8,0,0,0,1.336-.482,1.844,1.844,0,0,0,.479-1.358v-.59a2.414,2.414,0,0,1-1.923.813,2.346,2.346,0,0,1-1.952-.971A4.244,4.244,0,0,1,36.5,108.509Zm1.181.133a3.08,3.08,0,0,0,.476,1.825,1.547,1.547,0,0,0,1.333.663,1.72,1.72,0,0,0,1.631-1.009v-3.136A1.74,1.74,0,0,0,39.505,106a1.561,1.561,0,0,0-1.339.667A3.354,3.354,0,0,0,37.683,108.642Zm10.437,2.679a2.494,2.494,0,0,1-2.012.806,2.135,2.135,0,0,1-1.673-.638,2.761,2.761,0,0,1-.581-1.888v-4.469h1.174v4.437q0,1.562,1.27,1.562a1.758,1.758,0,0,0,1.79-1v-5h1.174V112H48.146Zm6.051-5.135a3.519,3.519,0,0,0-.578-.044,1.547,1.547,0,0,0-1.568.984V112H50.852v-6.868h1.143l.019.793a1.829,1.829,0,0,1,1.638-.92,1.2,1.2,0,0,1,.521.089ZM56.332,112H55.157v-6.868h1.174Zm-1.27-8.69a.7.7,0,0,1,.175-.482.655.655,0,0,1,.517-.2.666.666,0,0,1,.521.2.694.694,0,0,1,.178.482.671.671,0,0,1-.178.476.678.678,0,0,1-.521.19.667.667,0,0,1-.517-.19A.678.678,0,0,1,55.062,103.31Zm2.668,5.2a4.023,4.023,0,0,1,.749-2.542,2.548,2.548,0,0,1,3.872-.136v-3.58h1.174V112H62.446l-.057-.736a2.391,2.391,0,0,1-1.961.863,2.346,2.346,0,0,1-1.946-.978,4.069,4.069,0,0,1-.752-2.552Zm1.174.133a3.046,3.046,0,0,0,.482,1.828,1.56,1.56,0,0,0,1.333.66,1.713,1.713,0,0,0,1.631-1v-3.155A1.726,1.726,0,0,0,60.732,106a1.567,1.567,0,0,0-1.346.667A3.354,3.354,0,0,0,58.9,108.642ZM69.392,112a2.467,2.467,0,0,1-.165-.724,2.62,2.62,0,0,1-1.955.851,2.424,2.424,0,0,1-1.666-.574,1.859,1.859,0,0,1-.651-1.457,1.942,1.942,0,0,1,.816-1.666,3.846,3.846,0,0,1,2.295-.594h1.143v-.54a1.319,1.319,0,0,0-.368-.981,1.48,1.48,0,0,0-1.085-.365,1.712,1.712,0,0,0-1.054.317.935.935,0,0,0-.425.768H65.1a1.621,1.621,0,0,1,.365-.993,2.491,2.491,0,0,1,.99-.759A3.331,3.331,0,0,1,67.824,105a2.715,2.715,0,0,1,1.86.594,2.141,2.141,0,0,1,.7,1.635v3.161a3.865,3.865,0,0,0,.241,1.5v.1Zm-1.949-.9a2.064,2.064,0,0,0,1.047-.286,1.728,1.728,0,0,0,.717-.743v-1.409h-.92q-2.158,0-2.158,1.263a1.069,1.069,0,0,0,.368.863A1.415,1.415,0,0,0,67.444,111.1Zm4.3-2.6a4.023,4.023,0,0,1,.749-2.542,2.548,2.548,0,0,1,3.872-.136v-3.58h1.174V112H76.459l-.057-.736a2.391,2.391,0,0,1-1.961.863,2.346,2.346,0,0,1-1.946-.978,4.069,4.069,0,0,1-.752-2.552Zm1.174.133a3.046,3.046,0,0,0,.482,1.828,1.56,1.56,0,0,0,1.333.66,1.713,1.713,0,0,0,1.631-1v-3.155A1.726,1.726,0,0,0,74.745,106a1.567,1.567,0,0,0-1.346.667A3.354,3.354,0,0,0,72.917,108.642Zm12.121,3.485a3,3,0,0,1-2.272-.917,3.4,3.4,0,0,1-.876-2.453v-.216a4.121,4.121,0,0,1,.39-1.825,3.045,3.045,0,0,1,1.092-1.257,2.745,2.745,0,0,1,1.52-.454,2.572,2.572,0,0,1,2.082.882,3.82,3.82,0,0,1,.743,2.526v.489H83.064a2.441,2.441,0,0,0,.594,1.641,1.866,1.866,0,0,0,1.444.625,2.045,2.045,0,0,0,1.054-.254,2.648,2.648,0,0,0,.755-.673l.717.559A2.884,2.884,0,0,1,85.038,112.127Zm-.146-6.157a1.566,1.566,0,0,0-1.193.517,2.514,2.514,0,0,0-.6,1.45h3.44v-.089a2.237,2.237,0,0,0-.482-1.387A1.475,1.475,0,0,0,84.892,105.97Zm5.1-.838.038.863a2.5,2.5,0,0,1,2.057-.99q2.177,0,2.2,2.457V112H93.108v-4.545a1.581,1.581,0,0,0-.34-1.1A1.361,1.361,0,0,0,91.731,106a1.7,1.7,0,0,0-1,.3,2.069,2.069,0,0,0-.673.8V112H88.88v-6.868ZM100.157,112H98.983v-9.75h1.174Zm1.373-3.5a4.057,4.057,0,0,1,.4-1.815,2.96,2.96,0,0,1,1.1-1.244,3.007,3.007,0,0,1,1.615-.438,2.9,2.9,0,0,1,2.269.971,3.736,3.736,0,0,1,.866,2.583v.083a4.092,4.092,0,0,1-.384,1.8,2.916,2.916,0,0,1-1.1,1.241,3.041,3.041,0,0,1-1.641.444,2.889,2.889,0,0,1-2.263-.971,3.718,3.718,0,0,1-.866-2.571Zm1.181.14a2.938,2.938,0,0,0,.53,1.834,1.8,1.8,0,0,0,2.841-.01,3.213,3.213,0,0,0,.527-1.965,2.933,2.933,0,0,0-.536-1.831,1.705,1.705,0,0,0-1.425-.7,1.686,1.686,0,0,0-1.4.692A3.189,3.189,0,0,0,102.711,108.642Zm10.348,1.536a.864.864,0,0,0-.359-.74,3.452,3.452,0,0,0-1.25-.454,5.912,5.912,0,0,1-1.416-.457,2.014,2.014,0,0,1-.774-.635,1.518,1.518,0,0,1-.251-.876,1.782,1.782,0,0,1,.714-1.428,2.789,2.789,0,0,1,1.825-.584,2.87,2.87,0,0,1,1.895.6,1.915,1.915,0,0,1,.727,1.542H112.99a1.06,1.06,0,0,0-.409-.832,1.534,1.534,0,0,0-1.031-.349,1.606,1.606,0,0,0-1,.279.879.879,0,0,0-.362.73.712.712,0,0,0,.336.641,4.139,4.139,0,0,0,1.216.413,6.334,6.334,0,0,1,1.425.47,2.079,2.079,0,0,1,.809.657,1.615,1.615,0,0,1,.263.936,1.758,1.758,0,0,1-.736,1.476,3.089,3.089,0,0,1-1.911.555,3.459,3.459,0,0,1-1.46-.292,2.375,2.375,0,0,1-.993-.816,1.966,1.966,0,0,1-.359-1.133h1.174a1.216,1.216,0,0,0,.473.936,1.835,1.835,0,0,0,1.165.346,1.894,1.894,0,0,0,1.07-.27A.829.829,0,0,0,113.059,110.178Zm-105.978,14a.865.865,0,0,0-.359-.74,3.452,3.452,0,0,0-1.25-.454,5.912,5.912,0,0,1-1.416-.457,2.014,2.014,0,0,1-.774-.635,1.518,1.518,0,0,1-.251-.876,1.782,1.782,0,0,1,.714-1.428A2.789,2.789,0,0,1,5.57,119a2.87,2.87,0,0,1,1.895.6,1.915,1.915,0,0,1,.727,1.542H7.011a1.06,1.06,0,0,0-.409-.832,1.534,1.534,0,0,0-1.031-.349,1.606,1.606,0,0,0-1,.279.879.879,0,0,0-.362.73.712.712,0,0,0,.336.641,4.139,4.139,0,0,0,1.216.413,6.334,6.334,0,0,1,1.425.47,2.079,2.079,0,0,1,.809.657,1.615,1.615,0,0,1,.263.936,1.758,1.758,0,0,1-.736,1.476,3.089,3.089,0,0,1-1.911.555,3.459,3.459,0,0,1-1.46-.292,2.375,2.375,0,0,1-.993-.816,1.966,1.966,0,0,1-.359-1.133H3.971a1.216,1.216,0,0,0,.473.936,1.835,1.835,0,0,0,1.165.346,1.894,1.894,0,0,0,1.07-.27A.829.829,0,0,0,7.081,124.178ZM10.866,126H9.692v-6.868h1.174ZM9.6,117.31a.7.7,0,0,1,.175-.482.655.655,0,0,1,.517-.2.666.666,0,0,1,.521.2.694.694,0,0,1,.178.482.671.671,0,0,1-.178.476.678.678,0,0,1-.521.19.667.667,0,0,1-.517-.19A.678.678,0,0,1,9.6,117.31Zm6.952,6.868a.865.865,0,0,0-.359-.74,3.452,3.452,0,0,0-1.25-.454,5.912,5.912,0,0,1-1.416-.457,2.014,2.014,0,0,1-.774-.635,1.518,1.518,0,0,1-.251-.876,1.782,1.782,0,0,1,.714-1.428A2.789,2.789,0,0,1,15.038,119a2.87,2.87,0,0,1,1.895.6,1.915,1.915,0,0,1,.727,1.542H16.479a1.06,1.06,0,0,0-.409-.832,1.534,1.534,0,0,0-1.031-.349,1.606,1.606,0,0,0-1,.279.879.879,0,0,0-.362.73.712.712,0,0,0,.336.641,4.139,4.139,0,0,0,1.216.413,6.334,6.334,0,0,1,1.425.47,2.079,2.079,0,0,1,.809.657,1.615,1.615,0,0,1,.263.936,1.758,1.758,0,0,1-.736,1.476,3.089,3.089,0,0,1-1.911.555,3.459,3.459,0,0,1-1.46-.292,2.375,2.375,0,0,1-.993-.816,1.966,1.966,0,0,1-.359-1.133h1.174a1.216,1.216,0,0,0,.473.936,1.835,1.835,0,0,0,1.165.346,1.894,1.894,0,0,0,1.07-.27A.829.829,0,0,0,16.549,124.178Zm4.1-6.709v1.663h1.282v.908H20.651V124.3a.953.953,0,0,0,.171.62.721.721,0,0,0,.584.207,2.843,2.843,0,0,0,.559-.076V126a3.424,3.424,0,0,1-.9.126,1.462,1.462,0,0,1-1.187-.476,2.045,2.045,0,0,1-.4-1.352V120.04h-1.25v-.908h1.25v-1.663Zm5.308,8.658a3,3,0,0,1-2.272-.917,3.4,3.4,0,0,1-.876-2.453v-.216a4.121,4.121,0,0,1,.39-1.825,3.045,3.045,0,0,1,1.092-1.257,2.745,2.745,0,0,1,1.52-.454,2.572,2.572,0,0,1,2.082.882,3.82,3.82,0,0,1,.743,2.526v.489H23.986a2.441,2.441,0,0,0,.594,1.641,1.866,1.866,0,0,0,1.444.625,2.045,2.045,0,0,0,1.054-.254,2.648,2.648,0,0,0,.755-.673l.717.559A2.884,2.884,0,0,1,25.96,126.127Zm-.146-6.157a1.566,1.566,0,0,0-1.193.517,2.515,2.515,0,0,0-.6,1.45h3.44v-.089a2.237,2.237,0,0,0-.482-1.387A1.475,1.475,0,0,0,25.814,119.97Zm5.093-.838.032.762A2.536,2.536,0,0,1,32.976,119a1.964,1.964,0,0,1,1.961,1.1,2.6,2.6,0,0,1,.892-.8,2.634,2.634,0,0,1,1.3-.3q2.26,0,2.3,2.393V126H38.251v-4.532a1.577,1.577,0,0,0-.336-1.1,1.482,1.482,0,0,0-1.13-.365,1.557,1.557,0,0,0-1.085.39,1.584,1.584,0,0,0-.5,1.051V126H34.017v-4.5A1.31,1.31,0,0,0,32.55,120a1.571,1.571,0,0,0-1.581.984V126H29.8v-6.868ZM45.241,126a2.467,2.467,0,0,1-.165-.724,2.62,2.62,0,0,1-1.955.851,2.424,2.424,0,0,1-1.666-.574A1.859,1.859,0,0,1,40.8,124.1a1.942,1.942,0,0,1,.816-1.666,3.846,3.846,0,0,1,2.295-.594h1.143v-.54a1.319,1.319,0,0,0-.368-.981,1.48,1.48,0,0,0-1.085-.365,1.712,1.712,0,0,0-1.054.317.935.935,0,0,0-.425.768H40.944a1.621,1.621,0,0,1,.365-.993,2.491,2.491,0,0,1,.99-.759A3.331,3.331,0,0,1,43.673,119a2.715,2.715,0,0,1,1.86.594,2.141,2.141,0,0,1,.7,1.635v3.161a3.865,3.865,0,0,0,.241,1.5v.1Zm-1.949-.9a2.064,2.064,0,0,0,1.047-.286,1.728,1.728,0,0,0,.717-.743v-1.409h-.92q-2.158,0-2.158,1.263a1.069,1.069,0,0,0,.368.863A1.415,1.415,0,0,0,43.292,125.1Zm8.584-.927a.865.865,0,0,0-.359-.74,3.452,3.452,0,0,0-1.25-.454,5.912,5.912,0,0,1-1.416-.457,2.014,2.014,0,0,1-.774-.635,1.518,1.518,0,0,1-.251-.876,1.782,1.782,0,0,1,.714-1.428A2.789,2.789,0,0,1,50.365,119a2.87,2.87,0,0,1,1.895.6,1.915,1.915,0,0,1,.727,1.542H51.806a1.06,1.06,0,0,0-.409-.832,1.534,1.534,0,0,0-1.031-.349,1.606,1.606,0,0,0-1,.279.879.879,0,0,0-.362.73.712.712,0,0,0,.336.641,4.139,4.139,0,0,0,1.216.413,6.334,6.334,0,0,1,1.425.47,2.079,2.079,0,0,1,.809.657,1.615,1.615,0,0,1,.263.936,1.758,1.758,0,0,1-.736,1.476,3.089,3.089,0,0,1-1.911.555,3.459,3.459,0,0,1-1.46-.292,2.375,2.375,0,0,1-.993-.816,1.966,1.966,0,0,1-.359-1.133h1.174a1.216,1.216,0,0,0,.473.936,1.835,1.835,0,0,0,1.165.346,1.894,1.894,0,0,0,1.07-.27A.829.829,0,0,0,51.876,124.178ZM57.1,122.5a4.057,4.057,0,0,1,.4-1.815,2.96,2.96,0,0,1,1.1-1.244A3.007,3.007,0,0,1,60.214,119a2.9,2.9,0,0,1,2.269.971,3.736,3.736,0,0,1,.866,2.583v.083a4.092,4.092,0,0,1-.384,1.8,2.916,2.916,0,0,1-1.1,1.241,3.041,3.041,0,0,1-1.641.444,2.889,2.889,0,0,1-2.263-.971,3.718,3.718,0,0,1-.866-2.571Zm1.181.14a2.938,2.938,0,0,0,.53,1.834,1.8,1.8,0,0,0,2.841-.01,3.213,3.213,0,0,0,.527-1.965,2.933,2.933,0,0,0-.536-1.831,1.705,1.705,0,0,0-1.425-.7,1.686,1.686,0,0,0-1.4.692A3.189,3.189,0,0,0,58.278,122.642Zm12.151,0a4.113,4.113,0,0,1-.717,2.526,2.3,2.3,0,0,1-1.942.958,2.519,2.519,0,0,1-1.968-.793v3.307H64.628v-9.509H65.7l.057.762A2.419,2.419,0,0,1,67.751,119a2.342,2.342,0,0,1,1.958.933,4.157,4.157,0,0,1,.72,2.6Zm-1.174-.133a3.035,3.035,0,0,0-.5-1.834A1.6,1.6,0,0,0,67.4,120a1.726,1.726,0,0,0-1.6.946v3.282a1.73,1.73,0,0,0,1.612.939,1.587,1.587,0,0,0,1.343-.67A3.312,3.312,0,0,0,69.255,122.509Zm5.321,3.618a3,3,0,0,1-2.272-.917,3.4,3.4,0,0,1-.876-2.453v-.216a4.121,4.121,0,0,1,.39-1.825,3.045,3.045,0,0,1,1.092-1.257A2.745,2.745,0,0,1,74.43,119a2.572,2.572,0,0,1,2.082.882,3.82,3.82,0,0,1,.743,2.526v.489H72.6a2.441,2.441,0,0,0,.594,1.641,1.866,1.866,0,0,0,1.444.625,2.045,2.045,0,0,0,1.054-.254,2.648,2.648,0,0,0,.755-.673l.717.559A2.884,2.884,0,0,1,74.576,126.127Zm-.146-6.157a1.566,1.566,0,0,0-1.193.517,2.514,2.514,0,0,0-.6,1.45h3.44v-.089a2.237,2.237,0,0,0-.482-1.387A1.475,1.475,0,0,0,74.43,119.97Zm7.308.216a3.519,3.519,0,0,0-.578-.044,1.547,1.547,0,0,0-1.568.984V126H78.418v-6.868h1.143l.019.793a1.829,1.829,0,0,1,1.638-.92,1.2,1.2,0,0,1,.521.089ZM86.608,126a2.467,2.467,0,0,1-.165-.724,2.62,2.62,0,0,1-1.955.851,2.424,2.424,0,0,1-1.666-.574,1.859,1.859,0,0,1-.651-1.457,1.942,1.942,0,0,1,.816-1.666,3.846,3.846,0,0,1,2.295-.594h1.143v-.54a1.319,1.319,0,0,0-.368-.981,1.48,1.48,0,0,0-1.085-.365,1.712,1.712,0,0,0-1.054.317.935.935,0,0,0-.425.768H82.311a1.621,1.621,0,0,1,.365-.993,2.491,2.491,0,0,1,.99-.759A3.331,3.331,0,0,1,85.041,119a2.715,2.715,0,0,1,1.86.594,2.141,2.141,0,0,1,.7,1.635v3.161a3.865,3.865,0,0,0,.241,1.5v.1Zm-1.949-.9a2.064,2.064,0,0,0,1.047-.286,1.728,1.728,0,0,0,.717-.743v-1.409H85.5q-2.158,0-2.158,1.263a1.069,1.069,0,0,0,.368.863A1.415,1.415,0,0,0,84.66,125.1Zm6.178-7.636v1.663H92.12v.908H90.838V124.3a.953.953,0,0,0,.171.62.721.721,0,0,0,.584.207,2.843,2.843,0,0,0,.559-.076V126a3.424,3.424,0,0,1-.9.126,1.462,1.462,0,0,1-1.187-.476,2.045,2.045,0,0,1-.4-1.352V120.04h-1.25v-.908h1.25v-1.663ZM94.572,126H93.4v-6.868h1.174Zm-1.27-8.69a.7.7,0,0,1,.175-.482.655.655,0,0,1,.517-.2.666.666,0,0,1,.521.2.694.694,0,0,1,.178.482.671.671,0,0,1-.178.476.678.678,0,0,1-.521.19.667.667,0,0,1-.517-.19A.678.678,0,0,1,93.3,117.31Zm5.22,7.1,1.7-5.275h1.2L98.96,126h-.9l-2.488-6.868h1.2Zm3.43-1.9a4.057,4.057,0,0,1,.4-1.815,2.96,2.96,0,0,1,1.1-1.244,3.007,3.007,0,0,1,1.615-.438,2.9,2.9,0,0,1,2.269.971,3.736,3.736,0,0,1,.866,2.583v.083a4.092,4.092,0,0,1-.384,1.8,2.916,2.916,0,0,1-1.1,1.241,3.041,3.041,0,0,1-1.641.444,2.889,2.889,0,0,1-2.263-.971,3.718,3.718,0,0,1-.866-2.571Zm1.181.14a2.938,2.938,0,0,0,.53,1.834,1.8,1.8,0,0,0,2.841-.01,3.213,3.213,0,0,0,.527-1.965,2.933,2.933,0,0,0-.536-1.831,1.705,1.705,0,0,0-1.425-.7,1.686,1.686,0,0,0-1.4.692A3.189,3.189,0,0,0,103.132,122.642Zm10.348,1.536a.864.864,0,0,0-.359-.74,3.452,3.452,0,0,0-1.25-.454,5.912,5.912,0,0,1-1.416-.457,2.014,2.014,0,0,1-.774-.635,1.518,1.518,0,0,1-.251-.876,1.782,1.782,0,0,1,.714-1.428A2.789,2.789,0,0,1,111.97,119a2.87,2.87,0,0,1,1.895.6,1.915,1.915,0,0,1,.727,1.542h-1.181a1.06,1.06,0,0,0-.409-.832,1.534,1.534,0,0,0-1.031-.349,1.606,1.606,0,0,0-1,.279.879.879,0,0,0-.362.73.712.712,0,0,0,.336.641,4.139,4.139,0,0,0,1.216.413,6.334,6.334,0,0,1,1.425.47,2.079,2.079,0,0,1,.809.657,1.615,1.615,0,0,1,.263.936,1.758,1.758,0,0,1-.736,1.476,3.089,3.089,0,0,1-1.911.555,3.459,3.459,0,0,1-1.46-.292,2.375,2.375,0,0,1-.993-.816,1.966,1.966,0,0,1-.359-1.133h1.174a1.216,1.216,0,0,0,.473.936,1.835,1.835,0,0,0,1.165.346,1.894,1.894,0,0,0,1.07-.27A.829.829,0,0,0,113.481,124.178Zm2.534,1.206a.735.735,0,0,1,.181-.508.689.689,0,0,1,.543-.2.71.71,0,0,1,.549.2.721.721,0,0,1,.187.508.681.681,0,0,1-.187.489.723.723,0,0,1-.549.2.653.653,0,0,1-.724-.686Z" transform="translate(-7 13.885)" fill="#12263f"/>
      </g>
    </g>
  </g>
</svg>
