<svg xmlns="http://www.w3.org/2000/svg" width="199.156" height="275.986" viewBox="0 0 199.156 275.986">
  <g id="Grupo_64427" data-name="Grupo 64427" transform="translate(-1213.21 -22299.063)">
    <g id="Grupo_64145" data-name="Grupo 64145" transform="translate(1048.941 21660.803)">
      <g id="Grupo_64140" data-name="Grupo 64140" transform="translate(164.269 827.527)">
        <path id="Trazado_133401" data-name="Trazado 133401" d="M252.575,921.292H164.269V840.915a6.341,6.341,0,1,1,12.681,0v67.7h75.624a6.341,6.341,0,0,1,0,12.681Z" transform="translate(-164.269 -834.574)" fill="#37a3a5"/>
      </g>
      <path id="Trazado_133408" data-name="Trazado 133408" d="M334.777,658.021V640.053H170.848V907.894H334.777V711.459" transform="translate(-0.238 0)" fill="none" stroke="#12263f" stroke-linecap="round" stroke-miterlimit="10" stroke-width="3.588"/>
      <path id="Trazado_133409" data-name="Trazado 133409" d="M366.69,675.313l-8.711,43.251H254.412l8.711-43.251Z" transform="translate(-3.266 -12.277)" fill="#37a3a5"/>
      <g id="Grupo_64154" data-name="Grupo 64154" transform="translate(310.439 661.236)">
        <g id="Grupo_64153" data-name="Grupo 64153">
          <g id="Grupo_64152" data-name="Grupo 64152">
            <path id="Trazado_133718" data-name="Trazado 133718" d="M15.806-8.818q0,4.424-1.831,6.768A6.391,6.391,0,0,1,8.613.293a6.436,6.436,0,0,1-5.332-2.3A10.488,10.488,0,0,1,1.392-8.6v-3.926q0-4.468,1.853-6.782a6.439,6.439,0,0,1,5.339-2.314,6.445,6.445,0,0,1,5.332,2.292,10.456,10.456,0,0,1,1.89,6.584Zm-4.233-4.316A7.81,7.81,0,0,0,10.847-17a2.45,2.45,0,0,0-2.263-1.21,2.407,2.407,0,0,0-2.2,1.151,7.309,7.309,0,0,0-.754,3.6v5.191a8.2,8.2,0,0,0,.71,3.878A2.418,2.418,0,0,0,8.613-3.12a2.377,2.377,0,0,0,2.241-1.217,8,8,0,0,0,.718-3.724Zm18.574-8.413v3.486h-.41a7.192,7.192,0,0,0-4.622,1.494,6.071,6.071,0,0,0-2.1,4.028A5.766,5.766,0,0,1,27.3-14.268a5.433,5.433,0,0,1,4.424,1.992,7.986,7.986,0,0,1,1.641,5.244,7.855,7.855,0,0,1-.9,3.765A6.461,6.461,0,0,1,29.919-.645a7.4,7.4,0,0,1-3.728.938A6.916,6.916,0,0,1,20.75-2.051a9.1,9.1,0,0,1-2.073-6.255V-9.829a13.691,13.691,0,0,1,1.311-6.13,9.613,9.613,0,0,1,3.765-4.116,11.032,11.032,0,0,1,5.691-1.472ZM26.016-10.854a3.382,3.382,0,0,0-1.86.534,3.215,3.215,0,0,0-1.23,1.411v1.287a5.7,5.7,0,0,0,.835,3.312A2.7,2.7,0,0,0,26.1-3.12a2.668,2.668,0,0,0,2.2-1.075A4.383,4.383,0,0,0,29.15-6.98a4.374,4.374,0,0,0-.85-2.807A2.769,2.769,0,0,0,26.016-10.854Z" transform="translate(6 34)" fill="#12263f"/>
          </g>
        </g>
      </g>
      <g id="Grupo_64171" data-name="Grupo 64171" transform="translate(197.743 661.765)">
        <g id="Grupo_39139" data-name="Grupo 39139" transform="translate(0 14.254)">
          <path id="Trazado_91735" data-name="Trazado 91735" d="M442.462,161.132H440.64a14.591,14.591,0,0,1-14.574-14.573v-1.371a.661.661,0,0,1,1.322,0v1.371a13.266,13.266,0,0,0,13.252,13.251h1.822a13.266,13.266,0,0,0,13.251-13.251V139.7a3.978,3.978,0,0,0-3.633-3.95,2.625,2.625,0,0,0-.35-.024h-2.861a.585.585,0,0,1-.241.052H434.472a.665.665,0,0,1-.259-.052h-2.843a2.345,2.345,0,0,0-.316.02,3.988,3.988,0,0,0-3.666,3.953v2.925a.661.661,0,0,1-1.322,0V139.7a5.307,5.307,0,0,1,4.848-5.267,3.376,3.376,0,0,1,.457-.028h3.1a.653.653,0,0,1,.259.053h13.657a.59.59,0,0,1,.242-.053h3.1a3.633,3.633,0,0,1,.489.032,5.3,5.3,0,0,1,4.815,5.264v6.86A14.59,14.59,0,0,1,442.462,161.132Z" transform="translate(-426.066 -134.403)" fill="#00223d"/>
        </g>
        <g id="Grupo_39140" data-name="Grupo 39140" transform="translate(7.745 14.254)">
          <path id="Trazado_91736" data-name="Trazado 91736" d="M454.247,135.777H440.089a.661.661,0,0,1-.661-.661.708.708,0,0,1,.661-.714h14.158a.661.661,0,0,1,.661.661A.708.708,0,0,1,454.247,135.777Z" transform="translate(-439.428 -134.403)" fill="#00223d"/>
        </g>
        <g id="Grupo_39142" data-name="Grupo 39142" transform="translate(5.371 18.415)">
          <path id="Trazado_91738" data-name="Trazado 91738" d="M451.176,156.212H439.716a1.42,1.42,0,0,1-1.423-1.414v-.123a1.544,1.544,0,0,0-1.538-1.546,1.421,1.421,0,0,1-1.423-1.414v-5.633a1.42,1.42,0,0,1,1.423-1.414,1.512,1.512,0,0,0,1.091-.455,1.552,1.552,0,0,0,.446-1.092V143a1.42,1.42,0,0,1,1.423-1.415h11.459A1.421,1.421,0,0,1,452.6,143v.122a1.544,1.544,0,0,0,1.538,1.547,1.42,1.42,0,0,1,1.423,1.414v1.672a.661.661,0,1,1-1.322,0v-1.672a.1.1,0,0,0-.1-.092,2.868,2.868,0,0,1-2.86-2.869V143a.1.1,0,0,0-.1-.093H439.716a.1.1,0,0,0-.1.093v.122a2.884,2.884,0,0,1-.833,2.027,2.849,2.849,0,0,1-2.026.842.1.1,0,0,0-.1.092v5.633a.1.1,0,0,0,.1.092,2.867,2.867,0,0,1,2.859,2.869v.123a.1.1,0,0,0,.1.093h11.459a.1.1,0,0,0,.1-.093v-.123a2.86,2.86,0,0,1,2.86-2.869.1.1,0,0,0,.1-.092v-2.107a.661.661,0,0,1,1.322,0v2.107a1.42,1.42,0,0,1-1.423,1.414,1.516,1.516,0,0,0-1.092.454,1.542,1.542,0,0,0-.446,1.092v.123A1.42,1.42,0,0,1,451.176,156.212Z" transform="translate(-435.332 -141.582)" fill="#00223d"/>
        </g>
        <g id="Grupo_39146" data-name="Grupo 39146" transform="translate(4.241)">
          <path id="Trazado_91741" data-name="Trazado 91741" d="M455.21,125.414a.712.712,0,0,1-.086-.006,2.347,2.347,0,0,0-.316-.02h-3.1a.661.661,0,0,1-.661-.661v-3.2a6.434,6.434,0,1,0-12.835,0v3.2a.661.661,0,0,1-.661.661h-3.1a2.343,2.343,0,0,0-.317.02.661.661,0,0,1-.748-.656v-3.224a11.5,11.5,0,0,1,11.244-11.717,11.338,11.338,0,0,1,10.519,7.575.661.661,0,1,1-1.242.452,10.013,10.013,0,0,0-9.277-6.7,10.178,10.178,0,0,0-9.922,10.4v2.537h2.182v-2.537a7.753,7.753,0,1,1,15.48,0v2.537h2.183v-2.537a10.843,10.843,0,0,0-.218-2.17.661.661,0,1,1,1.295-.265,12.149,12.149,0,0,1,.245,2.435v3.224a.661.661,0,0,1-.661.661Z" transform="translate(-433.382 -109.811)" fill="#00223d"/>
        </g>
        <g id="Grupo_39150" data-name="Grupo 39150" transform="translate(6.033 22.065)" opacity="0.2">
          <path id="Trazado_91745" data-name="Trazado 91745" d="M437.869,147.878v7.331a2.226,2.226,0,0,0-.635-.093.763.763,0,0,1-.76-.754v-5.638a.764.764,0,0,1,.76-.754A2.211,2.211,0,0,0,437.869,147.878Z" transform="translate(-436.474 -147.878)"/>
        </g>
      </g>
    </g>
    <g id="Grupo_64151" data-name="Grupo 64151" transform="translate(1247.654 22378.654)">
      <g id="Grupo_61808" data-name="Grupo 61808" transform="translate(3.816 1.397)">
        <g id="Grupo_61804" data-name="Grupo 61804" transform="translate(22.155)">
          <g id="Grupo_61803" data-name="Grupo 61803">
            <g id="Grupo_61802" data-name="Grupo 61802">
              <path id="Trazado_133719" data-name="Trazado 133719" d="M-26.953-2.2a1.03,1.03,0,0,0-.4-.867,4.759,4.759,0,0,0-1.427-.615,6.89,6.89,0,0,1-1.641-.691,2.189,2.189,0,0,1-1.166-1.91,2.079,2.079,0,0,1,.841-1.7,3.4,3.4,0,0,1,2.183-.668,3.687,3.687,0,0,1,1.588.328,2.606,2.606,0,0,1,1.1.935,2.4,2.4,0,0,1,.4,1.345h-1.477a1.337,1.337,0,0,0-.419-1.046,1.729,1.729,0,0,0-1.2-.378,1.806,1.806,0,0,0-1.128.311,1.034,1.034,0,0,0-.4.867.935.935,0,0,0,.434.782,5,5,0,0,0,1.43.609,6.576,6.576,0,0,1,1.6.674,2.544,2.544,0,0,1,.885.867,2.258,2.258,0,0,1,.281,1.146,2.03,2.03,0,0,1-.817,1.7,3.545,3.545,0,0,1-2.218.63,4.168,4.168,0,0,1-1.7-.343,2.859,2.859,0,0,1-1.207-.946,2.358,2.358,0,0,1-.431-1.406h1.482a1.38,1.38,0,0,0,.48,1.125,2.1,2.1,0,0,0,1.377.4,1.828,1.828,0,0,0,1.163-.313A1.011,1.011,0,0,0-26.953-2.2Zm7.77-1.611h-3.5v2.625h4.1V0H-24.17V-8.531h5.537v1.2h-4.055V-4.98h3.5Zm8.338,2.7a2.835,2.835,0,0,1-1.283.914,5.235,5.235,0,0,1-1.863.311,3.672,3.672,0,0,1-1.9-.486,3.239,3.239,0,0,1-1.274-1.392,4.869,4.869,0,0,1-.466-2.112v-.668a4.515,4.515,0,0,1,.926-3.021,3.211,3.211,0,0,1,2.584-1.087,3.4,3.4,0,0,1,2.262.706,3.042,3.042,0,0,1,1.008,2.03H-12.3a1.635,1.635,0,0,0-1.787-1.541,1.752,1.752,0,0,0-1.515.717,3.653,3.653,0,0,0-.536,2.1v.656A3.47,3.47,0,0,0-15.56-1.83a1.923,1.923,0,0,0,1.62.764,2.136,2.136,0,0,0,1.617-.516v-1.67H-14.08V-4.377h3.234Zm7.869-7.424v5.7a2.771,2.771,0,0,1-.87,2.153A3.305,3.305,0,0,1-6.164.117,3.329,3.329,0,0,1-8.49-.665a2.784,2.784,0,0,1-.861-2.171v-5.7h1.477v5.707a1.813,1.813,0,0,0,.434,1.307,1.692,1.692,0,0,0,1.277.451q1.711,0,1.711-1.8v-5.66ZM1.74-3.281H.088V0H-1.395V-8.531h3a3.49,3.49,0,0,1,2.279.663,2.344,2.344,0,0,1,.8,1.918,2.4,2.4,0,0,1-.413,1.434,2.629,2.629,0,0,1-1.151.888L5.039-.076V0H3.451ZM.088-4.477H1.611a1.694,1.694,0,0,0,1.172-.378,1.318,1.318,0,0,0,.422-1.034,1.4,1.4,0,0,0-.39-1.061,1.655,1.655,0,0,0-1.163-.387H.088ZM7.658,0H6.182V-8.531H7.658ZM9.48,0V-8.531H12a3.952,3.952,0,0,1,2.007.5A3.436,3.436,0,0,1,15.363-6.6a4.538,4.538,0,0,1,.48,2.121v.428a4.519,4.519,0,0,1-.483,2.133A3.4,3.4,0,0,1,13.983-.5a4.135,4.135,0,0,1-2.048.5Zm1.482-7.336v6.152h.967a2.226,2.226,0,0,0,1.79-.729,3.178,3.178,0,0,0,.636-2.095v-.475a3.261,3.261,0,0,0-.6-2.121A2.14,2.14,0,0,0,12-7.336ZM22.1-1.986h-3.3L18.1,0H16.559l3.223-8.531h1.33L24.34,0H22.793Zm-2.889-1.2H21.68L20.443-6.721ZM25.307,0V-8.531h2.52a3.952,3.952,0,0,1,2.007.5A3.436,3.436,0,0,1,31.189-6.6a4.538,4.538,0,0,1,.48,2.121v.428a4.519,4.519,0,0,1-.483,2.133A3.4,3.4,0,0,1,29.81-.5a4.135,4.135,0,0,1-2.048.5Zm1.482-7.336v6.152h.967a2.226,2.226,0,0,0,1.79-.729,3.178,3.178,0,0,0,.636-2.095v-.475a3.261,3.261,0,0,0-.6-2.121,2.14,2.14,0,0,0-1.752-.732Z" transform="translate(28 11)" fill="#12263f"/>
            </g>
          </g>
        </g>
        <g id="Grupo_61807" data-name="Grupo 61807" transform="translate(0 13.33)">
          <g id="Grupo_61806" data-name="Grupo 61806">
            <g id="Grupo_61805" data-name="Grupo 61805">
              <path id="Trazado_133720" data-name="Trazado 133720" d="M-15.831-4.248h-4.146V0h-2.571V-10.664h7.134v1.985h-4.563v2.454h4.146ZM-11.605,0h-2.563V-10.664h2.563Zm-.974-13.521h2.607l-2.036,2.3-2.014,0ZM-4.318-2.834a1.056,1.056,0,0,0-.4-.879,4.961,4.961,0,0,0-1.4-.652A13.456,13.456,0,0,1-7.76-5.017a3.107,3.107,0,0,1-2.073-2.8,2.509,2.509,0,0,1,.516-1.564,3.34,3.34,0,0,1,1.461-1.055,5.686,5.686,0,0,1,2.124-.377,4.974,4.974,0,0,1,2.062.41A3.264,3.264,0,0,1-2.252-9.232,3.051,3.051,0,0,1-1.747-7.5H-4.31a1.289,1.289,0,0,0-.4-1.011A1.556,1.556,0,0,0-5.79-8.87a1.755,1.755,0,0,0-1.088.3.932.932,0,0,0-.4.773.939.939,0,0,0,.439.743,5.542,5.542,0,0,0,1.545.688A9.467,9.467,0,0,1-3.475-5.6,3.052,3.052,0,0,1-1.747-2.849,2.6,2.6,0,0,1-2.8-.652a4.691,4.691,0,0,1-2.893.8A5.74,5.74,0,0,1-8.042-.319,3.539,3.539,0,0,1-9.624-1.593a3.321,3.321,0,0,1-.531-1.864h2.578a1.635,1.635,0,0,0,.443,1.263,2.094,2.094,0,0,0,1.439.406,1.655,1.655,0,0,0,1.007-.275A.907.907,0,0,0-4.318-2.834ZM2.311,0H-.253V-10.664H2.311ZM12.726-3.611a3.9,3.9,0,0,1-.6,1.967A3.625,3.625,0,0,1,10.583-.322,5.248,5.248,0,0,1,8.317.146a4.188,4.188,0,0,1-3.311-1.37A5.655,5.655,0,0,1,3.8-5.09v-.527a6.455,6.455,0,0,1,.546-2.743,4.134,4.134,0,0,1,1.571-1.816,4.383,4.383,0,0,1,2.373-.641A4.6,4.6,0,0,1,11.407-9.8a4.037,4.037,0,0,1,1.34,2.816H10.184a1.91,1.91,0,0,0-.491-1.4A2.018,2.018,0,0,0,8.287-8.8a1.536,1.536,0,0,0-1.406.718,4.613,4.613,0,0,0-.469,2.292v.754A5.1,5.1,0,0,0,6.841-2.6a1.568,1.568,0,0,0,1.476.732,1.974,1.974,0,0,0,1.355-.417,1.772,1.772,0,0,0,.5-1.326ZM20-1.992H16.476L15.861,0H13.114l3.911-10.664h2.417L23.383,0H20.621ZM17.091-3.977h2.292l-1.15-3.7Z" transform="translate(49 14)" fill="#12263f"/>
            </g>
          </g>
        </g>
      </g>
      <path id="Trazado_133721" data-name="Trazado 133721" d="M31.532,10.382V14H30.313V4.758h3.409a3.425,3.425,0,0,1,2.377.774,2.625,2.625,0,0,1,.86,2.05,2.591,2.591,0,0,1-.841,2.073,3.578,3.578,0,0,1-2.409.727Zm0-1h2.19a2.19,2.19,0,0,0,1.5-.461,1.686,1.686,0,0,0,.521-1.332,1.742,1.742,0,0,0-.521-1.323,2.051,2.051,0,0,0-1.428-.515h-2.26Zm9.923-1.2a3.519,3.519,0,0,0-.578-.044,1.547,1.547,0,0,0-1.568.984V14H38.135V7.132h1.143l.019.793A1.829,1.829,0,0,1,40.934,7a1.2,1.2,0,0,1,.521.089ZM41.9,10.5a4.057,4.057,0,0,1,.4-1.815,2.96,2.96,0,0,1,1.1-1.244A3.007,3.007,0,0,1,45.018,7a2.9,2.9,0,0,1,2.269.971,3.736,3.736,0,0,1,.866,2.583v.083a4.092,4.092,0,0,1-.384,1.8,2.916,2.916,0,0,1-1.1,1.241,3.041,3.041,0,0,1-1.641.444,2.889,2.889,0,0,1-2.263-.971,3.718,3.718,0,0,1-.866-2.571Zm1.181.14a2.938,2.938,0,0,0,.53,1.834,1.8,1.8,0,0,0,2.841-.01,3.213,3.213,0,0,0,.527-1.965,2.933,2.933,0,0,0-.536-1.831,1.705,1.705,0,0,0-1.425-.7,1.686,1.686,0,0,0-1.4.692A3.189,3.189,0,0,0,43.082,10.642Zm7.943-5.173V7.132h1.282V8.04H51.024V12.3a.953.953,0,0,0,.171.62.721.721,0,0,0,.584.207,2.843,2.843,0,0,0,.559-.076V14a3.424,3.424,0,0,1-.9.126,1.462,1.462,0,0,1-1.187-.476,2.045,2.045,0,0,1-.4-1.352V8.04H48.6V7.132h1.25V5.469Zm5.308,8.658a3,3,0,0,1-2.272-.917,3.4,3.4,0,0,1-.876-2.453v-.216a4.121,4.121,0,0,1,.39-1.825,3.045,3.045,0,0,1,1.092-1.257A2.745,2.745,0,0,1,56.187,7a2.572,2.572,0,0,1,2.082.882,3.82,3.82,0,0,1,.743,2.526V10.9H54.359a2.441,2.441,0,0,0,.594,1.641,1.866,1.866,0,0,0,1.444.625,2.045,2.045,0,0,0,1.054-.254,2.648,2.648,0,0,0,.755-.673l.717.559A2.884,2.884,0,0,1,56.333,14.127ZM56.187,7.97a1.566,1.566,0,0,0-1.193.517,2.515,2.515,0,0,0-.6,1.45h3.44V9.849a2.237,2.237,0,0,0-.482-1.387A1.475,1.475,0,0,0,56.187,7.97ZM59.9,10.509a4.037,4.037,0,0,1,.743-2.555,2.56,2.56,0,0,1,3.929-.06l.057-.762H65.7v6.7a2.794,2.794,0,0,1-.79,2.1,2.916,2.916,0,0,1-2.123.768,3.532,3.532,0,0,1-1.454-.317,2.5,2.5,0,0,1-1.085-.87l.609-.7a2.3,2.3,0,0,0,1.847.933,1.8,1.8,0,0,0,1.336-.482,1.844,1.844,0,0,0,.479-1.358v-.59a2.414,2.414,0,0,1-1.923.813,2.346,2.346,0,0,1-1.952-.971A4.244,4.244,0,0,1,59.9,10.509Zm1.181.133a3.08,3.08,0,0,0,.476,1.825,1.547,1.547,0,0,0,1.333.663,1.72,1.72,0,0,0,1.631-1.009V8.985A1.74,1.74,0,0,0,62.9,8a1.561,1.561,0,0,0-1.339.667A3.354,3.354,0,0,0,61.076,10.642Zm9.047,3.485a3,3,0,0,1-2.272-.917,3.4,3.4,0,0,1-.876-2.453v-.216a4.121,4.121,0,0,1,.39-1.825,3.045,3.045,0,0,1,1.092-1.257A2.745,2.745,0,0,1,69.977,7a2.572,2.572,0,0,1,2.082.882,3.82,3.82,0,0,1,.743,2.526V10.9H68.149a2.441,2.441,0,0,0,.594,1.641,1.866,1.866,0,0,0,1.444.625,2.045,2.045,0,0,0,1.054-.254A2.648,2.648,0,0,0,72,12.242l.717.559A2.884,2.884,0,0,1,70.123,14.127ZM69.977,7.97a1.566,1.566,0,0,0-1.193.517,2.515,2.515,0,0,0-.6,1.45h3.44V9.849a2.237,2.237,0,0,0-.482-1.387A1.475,1.475,0,0,0,69.977,7.97Zm7.308.216a3.519,3.519,0,0,0-.578-.044,1.547,1.547,0,0,0-1.568.984V14H73.965V7.132h1.143l.019.793A1.829,1.829,0,0,1,76.765,7a1.2,1.2,0,0,1,.521.089ZM15.438,28V22.04H14.353v-.908h1.085v-.7a2.339,2.339,0,0,1,.59-1.708,2.23,2.23,0,0,1,1.669-.6,3.1,3.1,0,0,1,.806.107l-.063.946a3.373,3.373,0,0,0-.635-.057,1.146,1.146,0,0,0-.882.334,1.356,1.356,0,0,0-.311.958v.726h1.466v.908H16.612V28Zm5.016,0H19.274V21.132h1.181Zm.013-9.744h1.422l-1.7,1.866-.946,0Zm5.727,7.922a.864.864,0,0,0-.359-.74,3.452,3.452,0,0,0-1.25-.454,5.912,5.912,0,0,1-1.416-.457,2.014,2.014,0,0,1-.774-.635,1.518,1.518,0,0,1-.251-.876,1.782,1.782,0,0,1,.714-1.428A2.789,2.789,0,0,1,24.684,21a2.87,2.87,0,0,1,1.895.6,1.915,1.915,0,0,1,.727,1.542H26.125a1.06,1.06,0,0,0-.409-.832,1.534,1.534,0,0,0-1.031-.349,1.606,1.606,0,0,0-1,.279.879.879,0,0,0-.362.73.712.712,0,0,0,.336.641,4.139,4.139,0,0,0,1.216.413,6.334,6.334,0,0,1,1.425.47,2.079,2.079,0,0,1,.809.657,1.615,1.615,0,0,1,.263.936,1.758,1.758,0,0,1-.736,1.476,3.089,3.089,0,0,1-1.911.555,3.459,3.459,0,0,1-1.46-.292,2.375,2.375,0,0,1-.993-.816,1.966,1.966,0,0,1-.359-1.133h1.174a1.216,1.216,0,0,0,.473.936,1.835,1.835,0,0,0,1.165.346,1.894,1.894,0,0,0,1.07-.27A.829.829,0,0,0,26.195,26.178ZM29.98,28H28.805V21.132H29.98Zm-1.27-8.69a.7.7,0,0,1,.175-.482.655.655,0,0,1,.517-.2.666.666,0,0,1,.521.2.694.694,0,0,1,.178.482.671.671,0,0,1-.178.476.678.678,0,0,1-.521.19.667.667,0,0,1-.517-.19A.678.678,0,0,1,28.71,19.31Zm5.708,7.858a1.692,1.692,0,0,0,1.1-.381,1.34,1.34,0,0,0,.521-.952h1.111a2.13,2.13,0,0,1-.406,1.124,2.676,2.676,0,0,1-1,.851,2.885,2.885,0,0,1-1.323.317,2.829,2.829,0,0,1-2.231-.936,3.729,3.729,0,0,1-.828-2.561v-.2a4.135,4.135,0,0,1,.368-1.784,2.8,2.8,0,0,1,1.057-1.212A3,3,0,0,1,34.412,21a2.755,2.755,0,0,1,1.92.692,2.473,2.473,0,0,1,.816,1.8H36.037a1.618,1.618,0,0,0-.5-1.095,1.57,1.57,0,0,0-1.12-.428,1.644,1.644,0,0,0-1.387.644,3.026,3.026,0,0,0-.492,1.863V24.7a2.965,2.965,0,0,0,.489,1.828A1.651,1.651,0,0,0,34.418,27.168Zm8.1.832a2.467,2.467,0,0,1-.165-.724,2.62,2.62,0,0,1-1.955.851,2.424,2.424,0,0,1-1.666-.574,1.859,1.859,0,0,1-.651-1.457,1.942,1.942,0,0,1,.816-1.666,3.846,3.846,0,0,1,2.295-.594h1.143V23.3a1.319,1.319,0,0,0-.368-.981,1.48,1.48,0,0,0-1.085-.365,1.712,1.712,0,0,0-1.054.317.935.935,0,0,0-.425.768H38.216a1.621,1.621,0,0,1,.365-.993,2.491,2.491,0,0,1,.99-.759A3.331,3.331,0,0,1,40.946,21a2.715,2.715,0,0,1,1.86.594,2.141,2.141,0,0,1,.7,1.635v3.161a3.865,3.865,0,0,0,.241,1.5V28Zm-1.949-.9a2.064,2.064,0,0,0,1.047-.286,1.728,1.728,0,0,0,.717-.743V24.667h-.92q-2.158,0-2.158,1.263a1.069,1.069,0,0,0,.368.863A1.415,1.415,0,0,0,40.565,27.1Zm5.689-5.973.032.762A2.536,2.536,0,0,1,48.323,21a1.964,1.964,0,0,1,1.961,1.1,2.6,2.6,0,0,1,.892-.8,2.634,2.634,0,0,1,1.3-.3q2.26,0,2.3,2.393V28H53.6V23.468a1.577,1.577,0,0,0-.336-1.1A1.482,1.482,0,0,0,52.132,22a1.557,1.557,0,0,0-1.085.39,1.584,1.584,0,0,0-.5,1.051V28H49.364V23.5A1.31,1.31,0,0,0,47.9,22a1.571,1.571,0,0,0-1.581.984V28H45.143V21.132Zm12.945,7a3,3,0,0,1-2.272-.917,3.4,3.4,0,0,1-.876-2.453v-.216a4.121,4.121,0,0,1,.39-1.825,3.045,3.045,0,0,1,1.092-1.257A2.745,2.745,0,0,1,59.053,21a2.572,2.572,0,0,1,2.082.882,3.82,3.82,0,0,1,.743,2.526V24.9H57.224a2.441,2.441,0,0,0,.594,1.641,1.866,1.866,0,0,0,1.444.625,2.045,2.045,0,0,0,1.054-.254,2.648,2.648,0,0,0,.755-.673l.717.559A2.884,2.884,0,0,1,59.2,28.127Zm-.146-6.157a1.566,1.566,0,0,0-1.193.517,2.515,2.515,0,0,0-.6,1.45H60.7v-.089a2.237,2.237,0,0,0-.482-1.387A1.475,1.475,0,0,0,59.053,21.97Zm5.1-.838L64.19,22A2.5,2.5,0,0,1,66.246,21q2.177,0,2.2,2.457V28H67.268V23.455a1.581,1.581,0,0,0-.34-1.1A1.361,1.361,0,0,0,65.891,22a1.7,1.7,0,0,0-1,.3,2.069,2.069,0,0,0-.673.8V28H63.041V21.132Zm7.46-1.663v1.663h1.282v.908H71.612V26.3a.953.953,0,0,0,.171.62.721.721,0,0,0,.584.207,2.843,2.843,0,0,0,.559-.076V28a3.424,3.424,0,0,1-.9.126,1.462,1.462,0,0,1-1.187-.476,2.045,2.045,0,0,1-.4-1.352V22.04h-1.25v-.908h1.25V19.469Zm5.308,8.658a3,3,0,0,1-2.272-.917,3.4,3.4,0,0,1-.876-2.453v-.216a4.121,4.121,0,0,1,.39-1.825,3.045,3.045,0,0,1,1.092-1.257A2.745,2.745,0,0,1,76.774,21a2.572,2.572,0,0,1,2.082.882,3.82,3.82,0,0,1,.743,2.526V24.9H74.946a2.441,2.441,0,0,0,.594,1.641,1.866,1.866,0,0,0,1.444.625,2.045,2.045,0,0,0,1.054-.254,2.648,2.648,0,0,0,.755-.673l.717.559A2.884,2.884,0,0,1,76.92,28.127Zm-.146-6.157a1.566,1.566,0,0,0-1.193.517,2.515,2.515,0,0,0-.6,1.45h3.44v-.089a2.237,2.237,0,0,0-.482-1.387A1.475,1.475,0,0,0,76.774,21.97Zm9.861,6.157a3,3,0,0,1-2.272-.917,3.4,3.4,0,0,1-.876-2.453v-.216a4.121,4.121,0,0,1,.39-1.825,3.045,3.045,0,0,1,1.092-1.257A2.745,2.745,0,0,1,86.49,21a2.572,2.572,0,0,1,2.082.882,3.82,3.82,0,0,1,.743,2.526V24.9H84.662a2.441,2.441,0,0,0,.594,1.641,1.866,1.866,0,0,0,1.444.625,2.045,2.045,0,0,0,1.054-.254,2.648,2.648,0,0,0,.755-.673l.717.559A2.884,2.884,0,0,1,86.636,28.127ZM86.49,21.97a1.566,1.566,0,0,0-1.193.517,2.515,2.515,0,0,0-.6,1.45h3.44v-.089a2.237,2.237,0,0,0-.482-1.387A1.475,1.475,0,0,0,86.49,21.97ZM91.754,28H90.579V18.25h1.174ZM12.2,40.178a.864.864,0,0,0-.359-.74,3.452,3.452,0,0,0-1.25-.454,5.912,5.912,0,0,1-1.416-.457,2.014,2.014,0,0,1-.774-.635,1.518,1.518,0,0,1-.251-.876,1.782,1.782,0,0,1,.714-1.428A2.789,2.789,0,0,1,10.692,35a2.87,2.87,0,0,1,1.895.6,1.915,1.915,0,0,1,.727,1.542H12.133a1.06,1.06,0,0,0-.409-.832,1.534,1.534,0,0,0-1.031-.349,1.605,1.605,0,0,0-1,.279.879.879,0,0,0-.362.73.712.712,0,0,0,.336.641,4.139,4.139,0,0,0,1.216.413,6.334,6.334,0,0,1,1.425.47,2.079,2.079,0,0,1,.809.657,1.615,1.615,0,0,1,.263.936,1.758,1.758,0,0,1-.736,1.476,3.089,3.089,0,0,1-1.911.555,3.459,3.459,0,0,1-1.46-.292,2.374,2.374,0,0,1-.993-.816,1.966,1.966,0,0,1-.359-1.133H9.093a1.216,1.216,0,0,0,.473.936,1.835,1.835,0,0,0,1.165.346,1.894,1.894,0,0,0,1.07-.27A.829.829,0,0,0,12.2,40.178ZM15.988,42H14.814V35.132h1.174Zm-1.27-8.69a.7.7,0,0,1,.175-.482.655.655,0,0,1,.517-.2.666.666,0,0,1,.521.2.694.694,0,0,1,.178.482.671.671,0,0,1-.178.476.678.678,0,0,1-.521.19.667.667,0,0,1-.517-.19A.678.678,0,0,1,14.719,33.31Zm6.952,6.868a.864.864,0,0,0-.359-.74,3.452,3.452,0,0,0-1.25-.454,5.912,5.912,0,0,1-1.416-.457,2.014,2.014,0,0,1-.774-.635,1.518,1.518,0,0,1-.251-.876,1.782,1.782,0,0,1,.714-1.428A2.789,2.789,0,0,1,20.16,35a2.87,2.87,0,0,1,1.895.6,1.915,1.915,0,0,1,.727,1.542H21.6a1.06,1.06,0,0,0-.409-.832,1.534,1.534,0,0,0-1.031-.349,1.605,1.605,0,0,0-1,.279.879.879,0,0,0-.362.73.712.712,0,0,0,.336.641,4.139,4.139,0,0,0,1.216.413,6.334,6.334,0,0,1,1.425.47,2.079,2.079,0,0,1,.809.657,1.615,1.615,0,0,1,.263.936,1.758,1.758,0,0,1-.736,1.476,3.089,3.089,0,0,1-1.911.555,3.459,3.459,0,0,1-1.46-.292,2.374,2.374,0,0,1-.993-.816,1.966,1.966,0,0,1-.359-1.133h1.174a1.216,1.216,0,0,0,.473.936,1.835,1.835,0,0,0,1.165.346,1.894,1.894,0,0,0,1.07-.27A.829.829,0,0,0,21.671,40.178Zm4.1-6.709v1.663h1.282v.908H25.773V40.3a.953.953,0,0,0,.171.62.721.721,0,0,0,.584.207,2.843,2.843,0,0,0,.559-.076V42a3.424,3.424,0,0,1-.9.126A1.462,1.462,0,0,1,25,41.651a2.045,2.045,0,0,1-.4-1.352V36.04h-1.25v-.908H24.6V33.469Zm5.308,8.658a3,3,0,0,1-2.272-.917,3.4,3.4,0,0,1-.876-2.453v-.216a4.121,4.121,0,0,1,.39-1.825,3.045,3.045,0,0,1,1.092-1.257A2.745,2.745,0,0,1,30.936,35a2.572,2.572,0,0,1,2.082.882,3.82,3.82,0,0,1,.743,2.526V38.9H29.108a2.441,2.441,0,0,0,.594,1.641,1.866,1.866,0,0,0,1.444.625,2.045,2.045,0,0,0,1.054-.254,2.648,2.648,0,0,0,.755-.673l.717.559A2.884,2.884,0,0,1,31.082,42.127Zm-.146-6.157a1.566,1.566,0,0,0-1.193.517,2.515,2.515,0,0,0-.6,1.45h3.44v-.089a2.237,2.237,0,0,0-.482-1.387A1.475,1.475,0,0,0,30.936,35.97Zm5.093-.838.032.762A2.536,2.536,0,0,1,38.1,35a1.964,1.964,0,0,1,1.961,1.1,2.6,2.6,0,0,1,.892-.8,2.634,2.634,0,0,1,1.3-.3q2.26,0,2.3,2.393V42H43.373V37.468a1.577,1.577,0,0,0-.336-1.1A1.482,1.482,0,0,0,41.906,36a1.557,1.557,0,0,0-1.085.39,1.584,1.584,0,0,0-.5,1.051V42H39.139V37.5A1.31,1.31,0,0,0,37.672,36a1.571,1.571,0,0,0-1.581.984V42H34.918V35.132ZM50.363,42a2.467,2.467,0,0,1-.165-.724,2.62,2.62,0,0,1-1.955.851,2.424,2.424,0,0,1-1.666-.574,1.859,1.859,0,0,1-.651-1.457,1.942,1.942,0,0,1,.816-1.666,3.846,3.846,0,0,1,2.295-.594h1.143V37.3a1.319,1.319,0,0,0-.368-.981,1.48,1.48,0,0,0-1.085-.365,1.712,1.712,0,0,0-1.054.317.935.935,0,0,0-.425.768H46.066a1.621,1.621,0,0,1,.365-.993,2.491,2.491,0,0,1,.99-.759A3.331,3.331,0,0,1,48.8,35a2.715,2.715,0,0,1,1.86.594,2.141,2.141,0,0,1,.7,1.635v3.161a3.865,3.865,0,0,0,.241,1.5V42Zm-1.949-.9a2.064,2.064,0,0,0,1.047-.286,1.728,1.728,0,0,0,.717-.743V38.667h-.92q-2.158,0-2.158,1.263a1.069,1.069,0,0,0,.368.863A1.415,1.415,0,0,0,48.414,41.1Zm4.547,2.736-.667-.457a3.063,3.063,0,0,0,.622-1.714V40.61h1.149v.92a2.891,2.891,0,0,1-.314,1.282A3,3,0,0,1,52.961,43.841Zm6.523-8.709.032.762A2.536,2.536,0,0,1,61.553,35a1.964,1.964,0,0,1,1.961,1.1,2.6,2.6,0,0,1,.892-.8,2.634,2.634,0,0,1,1.3-.3q2.26,0,2.3,2.393V42H66.828V37.468a1.577,1.577,0,0,0-.336-1.1A1.482,1.482,0,0,0,65.362,36a1.557,1.557,0,0,0-1.085.39,1.584,1.584,0,0,0-.5,1.051V42H62.594V37.5A1.31,1.31,0,0,0,61.128,36a1.571,1.571,0,0,0-1.581.984V42H58.373V35.132Zm12.945,7a3,3,0,0,1-2.272-.917,3.4,3.4,0,0,1-.876-2.453v-.216a4.121,4.121,0,0,1,.39-1.825,3.045,3.045,0,0,1,1.092-1.257A2.745,2.745,0,0,1,72.282,35a2.572,2.572,0,0,1,2.082.882,3.82,3.82,0,0,1,.743,2.526V38.9H70.454a2.441,2.441,0,0,0,.594,1.641,1.866,1.866,0,0,0,1.444.625,2.045,2.045,0,0,0,1.054-.254,2.648,2.648,0,0,0,.755-.673l.717.559A2.884,2.884,0,0,1,72.428,42.127Zm-.146-6.157a1.566,1.566,0,0,0-1.193.517,2.515,2.515,0,0,0-.6,1.45h3.44v-.089a2.237,2.237,0,0,0-.482-1.387A1.475,1.475,0,0,0,72.282,35.97Zm3.7,2.539a4.023,4.023,0,0,1,.749-2.542,2.548,2.548,0,0,1,3.872-.136V32.25H81.78V42H80.7l-.057-.736a2.391,2.391,0,0,1-1.961.863,2.346,2.346,0,0,1-1.946-.978,4.069,4.069,0,0,1-.752-2.552Zm1.174.133a3.046,3.046,0,0,0,.482,1.828,1.56,1.56,0,0,0,1.333.66,1.713,1.713,0,0,0,1.631-1V36.973A1.726,1.726,0,0,0,78.987,36a1.567,1.567,0,0,0-1.346.667A3.354,3.354,0,0,0,77.159,38.642ZM84.683,42H83.509V35.132h1.174Zm-1.27-8.69a.7.7,0,0,1,.175-.482.655.655,0,0,1,.517-.2.666.666,0,0,1,.521.2.694.694,0,0,1,.178.482.671.671,0,0,1-.178.476.678.678,0,0,1-.521.19.667.667,0,0,1-.517-.19A.678.678,0,0,1,83.413,33.31ZM86.056,38.5a4.057,4.057,0,0,1,.4-1.815,2.96,2.96,0,0,1,1.1-1.244A3.007,3.007,0,0,1,89.172,35a2.9,2.9,0,0,1,2.269.971,3.736,3.736,0,0,1,.866,2.583v.083a4.092,4.092,0,0,1-.384,1.8,2.916,2.916,0,0,1-1.1,1.241,3.041,3.041,0,0,1-1.641.444,2.889,2.889,0,0,1-2.263-.971,3.718,3.718,0,0,1-.866-2.571Zm1.181.14a2.938,2.938,0,0,0,.53,1.834,1.8,1.8,0,0,0,2.841-.01,3.213,3.213,0,0,0,.527-1.965,2.933,2.933,0,0,0-.536-1.831,1.705,1.705,0,0,0-1.425-.7,1.686,1.686,0,0,0-1.4.692A3.189,3.189,0,0,0,87.236,38.642Zm10.348,1.536a.864.864,0,0,0-.359-.74,3.452,3.452,0,0,0-1.25-.454,5.912,5.912,0,0,1-1.416-.457,2.014,2.014,0,0,1-.774-.635,1.518,1.518,0,0,1-.251-.876,1.782,1.782,0,0,1,.714-1.428A2.789,2.789,0,0,1,96.074,35a2.87,2.87,0,0,1,1.895.6A1.915,1.915,0,0,1,98.7,37.15H97.515a1.06,1.06,0,0,0-.409-.832,1.534,1.534,0,0,0-1.031-.349,1.605,1.605,0,0,0-1,.279.879.879,0,0,0-.362.73.712.712,0,0,0,.336.641,4.139,4.139,0,0,0,1.216.413,6.334,6.334,0,0,1,1.425.47,2.079,2.079,0,0,1,.809.657,1.615,1.615,0,0,1,.263.936,1.758,1.758,0,0,1-.736,1.476,3.089,3.089,0,0,1-1.911.555,3.459,3.459,0,0,1-1.46-.292,2.374,2.374,0,0,1-.993-.816,1.966,1.966,0,0,1-.359-1.133h1.174a1.216,1.216,0,0,0,.473.936,1.835,1.835,0,0,0,1.165.346,1.894,1.894,0,0,0,1.07-.27A.829.829,0,0,0,97.585,40.178ZM1.827,56V50.04H.741v-.908H1.827v-.584a2.386,2.386,0,0,1,.657-1.79,2.548,2.548,0,0,1,1.857-.641,5.591,5.591,0,0,1,1.8.387l-.2.99a4.069,4.069,0,0,0-1.511-.317,1.478,1.478,0,0,0-1.089.34,1.4,1.4,0,0,0-.333,1.019v.6h1.4v.908h-1.4V56Zm4.894,0H5.54V49.132H6.721Zm2.928-6.868v7.662q0,1.98-1.8,1.98a2.191,2.191,0,0,1-.717-.114v-.934a2.27,2.27,0,0,0,.533.051.8.8,0,0,0,.6-.213,1.052,1.052,0,0,0,.206-.74V49.132ZM8.354,47.31a.7.7,0,0,1,.175-.479.642.642,0,0,1,.511-.2.666.666,0,0,1,.521.2.694.694,0,0,1,.178.482.671.671,0,0,1-.178.476.678.678,0,0,1-.521.19.657.657,0,0,1-.514-.19A.685.685,0,0,1,8.354,47.31Zm2.68,5.192a4.057,4.057,0,0,1,.4-1.815,2.96,2.96,0,0,1,1.1-1.244A3.007,3.007,0,0,1,14.151,49a2.9,2.9,0,0,1,2.269.971,3.736,3.736,0,0,1,.866,2.583v.083a4.092,4.092,0,0,1-.384,1.8,2.916,2.916,0,0,1-1.1,1.241,3.041,3.041,0,0,1-1.641.444,2.889,2.889,0,0,1-2.263-.971,3.718,3.718,0,0,1-.866-2.571Zm1.181.14a2.938,2.938,0,0,0,.53,1.834,1.8,1.8,0,0,0,2.841-.01,3.213,3.213,0,0,0,.527-1.965,2.933,2.933,0,0,0-.536-1.831,1.705,1.705,0,0,0-1.425-.7,1.686,1.686,0,0,0-1.4.692A3.189,3.189,0,0,0,12.215,52.642Zm10.348,1.536a.864.864,0,0,0-.359-.74,3.452,3.452,0,0,0-1.25-.454,5.912,5.912,0,0,1-1.416-.457,2.014,2.014,0,0,1-.774-.635,1.518,1.518,0,0,1-.251-.876,1.782,1.782,0,0,1,.714-1.428A2.789,2.789,0,0,1,21.053,49a2.87,2.87,0,0,1,1.895.6,1.915,1.915,0,0,1,.727,1.542H22.494a1.06,1.06,0,0,0-.409-.832,1.534,1.534,0,0,0-1.031-.349,1.605,1.605,0,0,0-1,.279.879.879,0,0,0-.362.73.712.712,0,0,0,.336.641,4.139,4.139,0,0,0,1.216.413,6.334,6.334,0,0,1,1.425.47,2.079,2.079,0,0,1,.809.657,1.615,1.615,0,0,1,.263.936A1.758,1.758,0,0,1,23,55.572a3.089,3.089,0,0,1-1.911.555,3.459,3.459,0,0,1-1.46-.292,2.374,2.374,0,0,1-.993-.816,1.966,1.966,0,0,1-.359-1.133h1.174a1.216,1.216,0,0,0,.473.936,1.835,1.835,0,0,0,1.165.346,1.894,1.894,0,0,0,1.07-.27A.829.829,0,0,0,22.563,54.178Zm7.779.1,1.6-5.148H33.2L30.438,57.06Q29.8,58.774,28.4,58.774l-.222-.019-.438-.083V57.72l.317.025a1.563,1.563,0,0,0,.93-.241,1.746,1.746,0,0,0,.549-.882l.26-.7-2.45-6.792h1.282Zm12.534-1.638a4.113,4.113,0,0,1-.717,2.526,2.3,2.3,0,0,1-1.942.958,2.519,2.519,0,0,1-1.968-.793v3.307H37.075V49.132h1.073l.057.762A2.419,2.419,0,0,1,40.2,49a2.342,2.342,0,0,1,1.958.933,4.157,4.157,0,0,1,.72,2.6ZM41.7,52.509a3.035,3.035,0,0,0-.5-1.834A1.6,1.6,0,0,0,39.849,50a1.726,1.726,0,0,0-1.6.946v3.282a1.73,1.73,0,0,0,1.612.939A1.587,1.587,0,0,0,41.2,54.5,3.312,3.312,0,0,0,41.7,52.509Zm2.16-.006a4.057,4.057,0,0,1,.4-1.815,2.96,2.96,0,0,1,1.1-1.244A3.007,3.007,0,0,1,46.979,49a2.9,2.9,0,0,1,2.269.971,3.736,3.736,0,0,1,.866,2.583v.083a4.092,4.092,0,0,1-.384,1.8,2.916,2.916,0,0,1-1.1,1.241,3.041,3.041,0,0,1-1.641.444,2.889,2.889,0,0,1-2.263-.971,3.718,3.718,0,0,1-.866-2.571Zm1.181.14a2.938,2.938,0,0,0,.53,1.834,1.8,1.8,0,0,0,2.841-.01A3.213,3.213,0,0,0,48.94,52.5a2.933,2.933,0,0,0-.536-1.831,1.705,1.705,0,0,0-1.425-.7,1.686,1.686,0,0,0-1.4.692A3.189,3.189,0,0,0,45.043,52.642Zm9.669-2.457a3.519,3.519,0,0,0-.578-.044,1.547,1.547,0,0,0-1.568.984V56H51.392V49.132h1.143l.019.793A1.829,1.829,0,0,1,54.192,49a1.2,1.2,0,0,1,.521.089Zm2.795-2.717v1.663h1.282v.908H57.507V54.3a.953.953,0,0,0,.171.62.721.721,0,0,0,.584.207,2.843,2.843,0,0,0,.559-.076V56a3.424,3.424,0,0,1-.9.126,1.462,1.462,0,0,1-1.187-.476,2.045,2.045,0,0,1-.4-1.352V50.04h-1.25v-.908h1.25V47.469ZM64.206,56a2.467,2.467,0,0,1-.165-.724,2.62,2.62,0,0,1-1.955.851,2.424,2.424,0,0,1-1.666-.574,1.859,1.859,0,0,1-.651-1.457,1.942,1.942,0,0,1,.816-1.666,3.846,3.846,0,0,1,2.295-.594h1.143V51.3a1.319,1.319,0,0,0-.368-.981,1.48,1.48,0,0,0-1.085-.365,1.712,1.712,0,0,0-1.054.317.935.935,0,0,0-.425.768H59.908a1.621,1.621,0,0,1,.365-.993,2.491,2.491,0,0,1,.99-.759A3.331,3.331,0,0,1,62.638,49a2.715,2.715,0,0,1,1.86.594,2.141,2.141,0,0,1,.7,1.635v3.161a3.865,3.865,0,0,0,.241,1.5V56Zm-1.949-.9a2.064,2.064,0,0,0,1.047-.286,1.728,1.728,0,0,0,.717-.743V52.667H63.1q-2.158,0-2.158,1.263a1.069,1.069,0,0,0,.368.863A1.415,1.415,0,0,0,62.257,55.1Zm1.085-8.855h1.422l-1.7,1.866-.946,0Zm5.093,1.219v1.663h1.282v.908H68.435V54.3a.953.953,0,0,0,.171.62.721.721,0,0,0,.584.207,2.843,2.843,0,0,0,.559-.076V56a3.424,3.424,0,0,1-.9.126,1.462,1.462,0,0,1-1.187-.476,2.045,2.045,0,0,1-.4-1.352V50.04H66.01v-.908h1.25V47.469ZM72.169,56H70.995V49.132h1.174ZM70.9,47.31a.7.7,0,0,1,.175-.482.655.655,0,0,1,.517-.2.666.666,0,0,1,.521.2.694.694,0,0,1,.178.482.671.671,0,0,1-.178.476.678.678,0,0,1-.521.19.667.667,0,0,1-.517-.19A.678.678,0,0,1,70.9,47.31ZM75.129,56H73.954V46.25h1.174Zm4.534.127a3,3,0,0,1-2.272-.917,3.4,3.4,0,0,1-.876-2.453v-.216a4.121,4.121,0,0,1,.39-1.825A3.045,3.045,0,0,1,78,49.459,2.745,2.745,0,0,1,79.517,49a2.572,2.572,0,0,1,2.082.882,3.82,3.82,0,0,1,.743,2.526V52.9H77.689a2.441,2.441,0,0,0,.594,1.641,1.866,1.866,0,0,0,1.444.625,2.045,2.045,0,0,0,1.054-.254,2.648,2.648,0,0,0,.755-.673l.717.559A2.884,2.884,0,0,1,79.663,56.127Zm-.146-6.157a1.566,1.566,0,0,0-1.193.517,2.515,2.515,0,0,0-.6,1.45h3.44v-.089a2.237,2.237,0,0,0-.482-1.387A1.475,1.475,0,0,0,79.517,49.97ZM87.5,54.178a.864.864,0,0,0-.359-.74,3.452,3.452,0,0,0-1.25-.454,5.912,5.912,0,0,1-1.416-.457,2.014,2.014,0,0,1-.774-.635,1.518,1.518,0,0,1-.251-.876,1.782,1.782,0,0,1,.714-1.428A2.789,2.789,0,0,1,85.993,49a2.87,2.87,0,0,1,1.895.6,1.915,1.915,0,0,1,.727,1.542H87.434a1.06,1.06,0,0,0-.409-.832,1.534,1.534,0,0,0-1.031-.349,1.605,1.605,0,0,0-1,.279.879.879,0,0,0-.362.73.712.712,0,0,0,.336.641,4.139,4.139,0,0,0,1.216.413,6.334,6.334,0,0,1,1.425.47,2.079,2.079,0,0,1,.809.657,1.615,1.615,0,0,1,.263.936,1.758,1.758,0,0,1-.736,1.476,3.089,3.089,0,0,1-1.911.555,3.459,3.459,0,0,1-1.46-.292,2.374,2.374,0,0,1-.993-.816,1.966,1.966,0,0,1-.359-1.133h1.174a1.216,1.216,0,0,0,.473.936,1.835,1.835,0,0,0,1.165.346,1.894,1.894,0,0,0,1.07-.27A.829.829,0,0,0,87.5,54.178Zm5.247-1.669a4.023,4.023,0,0,1,.749-2.542,2.548,2.548,0,0,1,3.872-.136V46.25h1.174V56H97.467l-.057-.736a2.391,2.391,0,0,1-1.961.863,2.346,2.346,0,0,1-1.946-.978,4.069,4.069,0,0,1-.752-2.552Zm1.174.133a3.046,3.046,0,0,0,.482,1.828,1.56,1.56,0,0,0,1.333.66,1.713,1.713,0,0,0,1.631-1V50.973A1.726,1.726,0,0,0,95.753,50a1.567,1.567,0,0,0-1.346.667A3.354,3.354,0,0,0,93.925,52.642Zm9.1,3.485a3,3,0,0,1-2.272-.917,3.4,3.4,0,0,1-.876-2.453v-.216a4.121,4.121,0,0,1,.39-1.825,3.045,3.045,0,0,1,1.092-1.257,2.745,2.745,0,0,1,1.52-.454,2.572,2.572,0,0,1,2.082.882,3.82,3.82,0,0,1,.743,2.526V52.9h-4.653a2.441,2.441,0,0,0,.594,1.641,1.866,1.866,0,0,0,1.444.625,2.045,2.045,0,0,0,1.054-.254,2.648,2.648,0,0,0,.755-.673l.717.559A2.884,2.884,0,0,1,103.023,56.127Zm-.146-6.157a1.566,1.566,0,0,0-1.193.517,2.515,2.515,0,0,0-.6,1.45h3.44v-.089a2.237,2.237,0,0,0-.482-1.387A1.475,1.475,0,0,0,102.877,49.97ZM9.974,70H8.8V60.25H9.974ZM15.9,70a2.467,2.467,0,0,1-.165-.724,2.62,2.62,0,0,1-1.955.851,2.424,2.424,0,0,1-1.666-.574,1.859,1.859,0,0,1-.651-1.457,1.942,1.942,0,0,1,.816-1.666,3.846,3.846,0,0,1,2.295-.594h1.143V65.3a1.319,1.319,0,0,0-.368-.981,1.48,1.48,0,0,0-1.085-.365,1.712,1.712,0,0,0-1.054.317.935.935,0,0,0-.425.768H11.6a1.621,1.621,0,0,1,.365-.993,2.491,2.491,0,0,1,.99-.759A3.331,3.331,0,0,1,14.33,63a2.715,2.715,0,0,1,1.86.594,2.141,2.141,0,0,1,.7,1.635v3.161a3.865,3.865,0,0,0,.241,1.5V70Zm-1.949-.9A2.064,2.064,0,0,0,15,68.819a1.728,1.728,0,0,0,.717-.743V66.667h-.92q-2.158,0-2.158,1.263a1.069,1.069,0,0,0,.368.863A1.415,1.415,0,0,0,13.95,69.1Zm8.713-5.973.032.762A2.536,2.536,0,0,1,24.731,63a1.964,1.964,0,0,1,1.961,1.1,2.6,2.6,0,0,1,.892-.8,2.634,2.634,0,0,1,1.3-.3q2.26,0,2.3,2.393V70H30.006V65.468a1.577,1.577,0,0,0-.336-1.1A1.482,1.482,0,0,0,28.54,64a1.557,1.557,0,0,0-1.085.39,1.584,1.584,0,0,0-.5,1.051V70H25.772V65.5A1.31,1.31,0,0,0,24.306,64a1.571,1.571,0,0,0-1.581.984V70H21.551V63.132ZM37,70a2.467,2.467,0,0,1-.165-.724,2.62,2.62,0,0,1-1.955.851,2.424,2.424,0,0,1-1.666-.574A1.859,1.859,0,0,1,32.56,68.1a1.942,1.942,0,0,1,.816-1.666,3.846,3.846,0,0,1,2.295-.594h1.143V65.3a1.319,1.319,0,0,0-.368-.981,1.48,1.48,0,0,0-1.085-.365,1.712,1.712,0,0,0-1.054.317.935.935,0,0,0-.425.768H32.7a1.621,1.621,0,0,1,.365-.993,2.491,2.491,0,0,1,.99-.759A3.331,3.331,0,0,1,35.429,63a2.715,2.715,0,0,1,1.86.594,2.141,2.141,0,0,1,.7,1.635v3.161a3.865,3.865,0,0,0,.241,1.5V70Zm-1.949-.9a2.064,2.064,0,0,0,1.047-.286,1.728,1.728,0,0,0,.717-.743V66.667h-.92q-2.158,0-2.158,1.263a1.069,1.069,0,0,0,.368.863A1.415,1.415,0,0,0,35.048,69.1Zm5.7-5.973.038.863A2.5,2.5,0,0,1,42.839,63q2.177,0,2.2,2.457V70H43.861V65.455a1.581,1.581,0,0,0-.34-1.1A1.361,1.361,0,0,0,42.483,64a1.7,1.7,0,0,0-1,.3,2.069,2.069,0,0,0-.673.8V70H39.633V63.132ZM47.887,70H46.712V63.132h1.174Zm-1.27-8.69a.7.7,0,0,1,.175-.482.655.655,0,0,1,.517-.2.666.666,0,0,1,.521.2.694.694,0,0,1,.178.482.671.671,0,0,1-.178.476.678.678,0,0,1-.521.19.667.667,0,0,1-.517-.19A.678.678,0,0,1,46.617,61.31Zm8.755,5.332a4.113,4.113,0,0,1-.717,2.526,2.3,2.3,0,0,1-1.942.958,2.519,2.519,0,0,1-1.968-.793v3.307H49.571V63.132h1.073l.057.762A2.419,2.419,0,0,1,52.694,63a2.342,2.342,0,0,1,1.958.933,4.157,4.157,0,0,1,.72,2.6ZM54.2,66.509a3.035,3.035,0,0,0-.5-1.834A1.6,1.6,0,0,0,52.345,64a1.726,1.726,0,0,0-1.6.946v3.282a1.73,1.73,0,0,0,1.612.939A1.587,1.587,0,0,0,53.7,68.5,3.312,3.312,0,0,0,54.2,66.509Zm6.711,2.812a2.494,2.494,0,0,1-2.012.806,2.135,2.135,0,0,1-1.673-.638,2.761,2.761,0,0,1-.581-1.888V63.132h1.174v4.437q0,1.562,1.27,1.562a1.758,1.758,0,0,0,1.79-1v-5h1.174V70H60.935ZM64.916,70H63.742V60.25h1.174Zm5.924,0a2.467,2.467,0,0,1-.165-.724,2.62,2.62,0,0,1-1.955.851,2.424,2.424,0,0,1-1.666-.574A1.859,1.859,0,0,1,66.4,68.1a1.942,1.942,0,0,1,.816-1.666,3.846,3.846,0,0,1,2.295-.594h1.143V65.3a1.319,1.319,0,0,0-.368-.981,1.48,1.48,0,0,0-1.085-.365,1.712,1.712,0,0,0-1.054.317.935.935,0,0,0-.425.768H66.543a1.621,1.621,0,0,1,.365-.993,2.491,2.491,0,0,1,.99-.759A3.331,3.331,0,0,1,69.273,63a2.715,2.715,0,0,1,1.86.594,2.141,2.141,0,0,1,.7,1.635v3.161a3.865,3.865,0,0,0,.241,1.5V70Zm-1.949-.9a2.064,2.064,0,0,0,1.047-.286,1.728,1.728,0,0,0,.717-.743V66.667h-.92q-2.158,0-2.158,1.263a1.069,1.069,0,0,0,.368.863A1.415,1.415,0,0,0,68.892,69.1Zm7.34.063a1.691,1.691,0,0,0,1.1-.381,1.34,1.34,0,0,0,.521-.952h1.111a2.13,2.13,0,0,1-.406,1.124,2.676,2.676,0,0,1-1,.851,2.885,2.885,0,0,1-1.323.317A2.829,2.829,0,0,1,74,69.191a3.729,3.729,0,0,1-.828-2.561v-.2a4.135,4.135,0,0,1,.368-1.784A2.8,2.8,0,0,1,74.6,63.437,3,3,0,0,1,76.225,63a2.755,2.755,0,0,1,1.92.692,2.473,2.473,0,0,1,.816,1.8H77.85a1.618,1.618,0,0,0-.5-1.095,1.57,1.57,0,0,0-1.12-.428,1.644,1.644,0,0,0-1.387.644,3.026,3.026,0,0,0-.492,1.863V66.7a2.966,2.966,0,0,0,.489,1.828A1.651,1.651,0,0,0,76.232,69.168ZM81.362,70H80.188V63.132h1.174Zm-1.27-8.69a.7.7,0,0,1,.175-.482.655.655,0,0,1,.517-.2.666.666,0,0,1,.521.2.694.694,0,0,1,.178.482.671.671,0,0,1-.178.476.678.678,0,0,1-.521.19.667.667,0,0,1-.517-.19A.678.678,0,0,1,80.093,61.31ZM82.735,66.5a4.057,4.057,0,0,1,.4-1.815,2.96,2.96,0,0,1,1.1-1.244A3.007,3.007,0,0,1,85.852,63a2.9,2.9,0,0,1,2.269.971,3.736,3.736,0,0,1,.866,2.583v.083a4.092,4.092,0,0,1-.384,1.8,2.916,2.916,0,0,1-1.1,1.241,3.041,3.041,0,0,1-1.641.444,2.889,2.889,0,0,1-2.263-.971,3.718,3.718,0,0,1-.866-2.571Zm1.181.14a2.938,2.938,0,0,0,.53,1.834,1.8,1.8,0,0,0,2.841-.01,3.213,3.213,0,0,0,.527-1.965,2.933,2.933,0,0,0-.536-1.831,1.705,1.705,0,0,0-1.425-.7,1.686,1.686,0,0,0-1.4.692A3.189,3.189,0,0,0,83.916,66.642Zm2.469-6.392h1.422l-1.7,1.866-.946,0Zm4.991,2.882.038.863A2.5,2.5,0,0,1,93.471,63q2.177,0,2.2,2.457V70H94.493V65.455a1.581,1.581,0,0,0-.34-1.1A1.361,1.361,0,0,0,93.115,64a1.7,1.7,0,0,0-1,.3,2.069,2.069,0,0,0-.673.8V70H90.265V63.132ZM97.2,71.841l-.667-.457a3.063,3.063,0,0,0,.622-1.714V68.61h1.149v.92A2.891,2.891,0,0,1,98,70.813,3,3,0,0,1,97.2,71.841ZM29.522,84a2.467,2.467,0,0,1-.165-.724,2.62,2.62,0,0,1-1.955.851,2.424,2.424,0,0,1-1.666-.574,1.859,1.859,0,0,1-.651-1.457,1.942,1.942,0,0,1,.816-1.666,3.846,3.846,0,0,1,2.295-.594h1.143V79.3a1.319,1.319,0,0,0-.368-.981,1.48,1.48,0,0,0-1.085-.365,1.712,1.712,0,0,0-1.054.317.935.935,0,0,0-.425.768H25.224a1.621,1.621,0,0,1,.365-.993,2.491,2.491,0,0,1,.99-.759A3.331,3.331,0,0,1,27.954,77a2.715,2.715,0,0,1,1.86.594,2.141,2.141,0,0,1,.7,1.635v3.161a3.865,3.865,0,0,0,.241,1.5V84Zm-1.949-.9a2.064,2.064,0,0,0,1.047-.286,1.728,1.728,0,0,0,.717-.743V80.667h-.92q-2.158,0-2.158,1.263a1.069,1.069,0,0,0,.368.863A1.415,1.415,0,0,0,27.573,83.1Zm7.34.063a1.692,1.692,0,0,0,1.1-.381,1.34,1.34,0,0,0,.521-.952h1.111a2.13,2.13,0,0,1-.406,1.124,2.676,2.676,0,0,1-1,.851,2.885,2.885,0,0,1-1.323.317,2.829,2.829,0,0,1-2.231-.936,3.729,3.729,0,0,1-.828-2.561v-.2a4.135,4.135,0,0,1,.368-1.784,2.8,2.8,0,0,1,1.057-1.212A3,3,0,0,1,34.906,77a2.755,2.755,0,0,1,1.92.692,2.473,2.473,0,0,1,.816,1.8H36.531a1.618,1.618,0,0,0-.5-1.095,1.57,1.57,0,0,0-1.12-.428,1.644,1.644,0,0,0-1.387.644,3.026,3.026,0,0,0-.492,1.863V80.7a2.965,2.965,0,0,0,.489,1.828A1.651,1.651,0,0,0,34.913,83.168Zm6.61,0a1.692,1.692,0,0,0,1.1-.381,1.34,1.34,0,0,0,.521-.952h1.111a2.13,2.13,0,0,1-.406,1.124,2.676,2.676,0,0,1-1,.851,2.885,2.885,0,0,1-1.323.317,2.829,2.829,0,0,1-2.231-.936,3.729,3.729,0,0,1-.828-2.561v-.2a4.135,4.135,0,0,1,.368-1.784,2.8,2.8,0,0,1,1.057-1.212A3,3,0,0,1,41.516,77a2.755,2.755,0,0,1,1.92.692,2.473,2.473,0,0,1,.816,1.8H43.141a1.618,1.618,0,0,0-.5-1.095,1.57,1.57,0,0,0-1.12-.428,1.644,1.644,0,0,0-1.387.644,3.026,3.026,0,0,0-.492,1.863V80.7a2.965,2.965,0,0,0,.489,1.828A1.651,1.651,0,0,0,41.522,83.168Zm6.7.958a3,3,0,0,1-2.272-.917,3.4,3.4,0,0,1-.876-2.453v-.216a4.121,4.121,0,0,1,.39-1.825,3.045,3.045,0,0,1,1.092-1.257A2.745,2.745,0,0,1,48.081,77a2.572,2.572,0,0,1,2.082.882,3.82,3.82,0,0,1,.743,2.526V80.9H46.253a2.441,2.441,0,0,0,.594,1.641,1.866,1.866,0,0,0,1.444.625,2.045,2.045,0,0,0,1.054-.254,2.648,2.648,0,0,0,.755-.673l.717.559A2.884,2.884,0,0,1,48.227,84.127Zm-.146-6.157a1.566,1.566,0,0,0-1.193.517,2.515,2.515,0,0,0-.6,1.45h3.44v-.089a2.237,2.237,0,0,0-.482-1.387A1.475,1.475,0,0,0,48.081,77.97Zm7.987,4.208a.865.865,0,0,0-.359-.74,3.452,3.452,0,0,0-1.25-.454,5.912,5.912,0,0,1-1.416-.457,2.014,2.014,0,0,1-.774-.635,1.518,1.518,0,0,1-.251-.876,1.782,1.782,0,0,1,.714-1.428A2.789,2.789,0,0,1,54.558,77a2.87,2.87,0,0,1,1.895.6,1.915,1.915,0,0,1,.727,1.542H56a1.06,1.06,0,0,0-.409-.832,1.534,1.534,0,0,0-1.031-.349,1.606,1.606,0,0,0-1,.279.879.879,0,0,0-.362.73.712.712,0,0,0,.336.641,4.139,4.139,0,0,0,1.216.413,6.334,6.334,0,0,1,1.425.47,2.079,2.079,0,0,1,.809.657,1.615,1.615,0,0,1,.263.936,1.758,1.758,0,0,1-.736,1.476,3.089,3.089,0,0,1-1.911.555,3.459,3.459,0,0,1-1.46-.292,2.375,2.375,0,0,1-.993-.816,1.966,1.966,0,0,1-.359-1.133h1.174a1.216,1.216,0,0,0,.473.936,1.835,1.835,0,0,0,1.165.346,1.894,1.894,0,0,0,1.07-.27A.829.829,0,0,0,56.068,82.178Zm2.2-1.676a4.057,4.057,0,0,1,.4-1.815,2.96,2.96,0,0,1,1.1-1.244A3.007,3.007,0,0,1,61.383,77a2.9,2.9,0,0,1,2.269.971,3.736,3.736,0,0,1,.866,2.583v.083a4.092,4.092,0,0,1-.384,1.8,2.916,2.916,0,0,1-1.1,1.241,3.041,3.041,0,0,1-1.641.444,2.889,2.889,0,0,1-2.263-.971,3.718,3.718,0,0,1-.866-2.571Zm1.181.14a2.938,2.938,0,0,0,.53,1.834,1.8,1.8,0,0,0,2.841-.01,3.213,3.213,0,0,0,.527-1.965,2.933,2.933,0,0,0-.536-1.831,1.705,1.705,0,0,0-1.425-.7,1.686,1.686,0,0,0-1.4.692A3.189,3.189,0,0,0,59.447,80.642Zm10.484-3.51.038.863A2.5,2.5,0,0,1,72.025,77q2.177,0,2.2,2.457V84H73.047V79.455a1.581,1.581,0,0,0-.34-1.1A1.361,1.361,0,0,0,71.67,78a1.7,1.7,0,0,0-1,.3,2.069,2.069,0,0,0-.673.8V84H68.82V77.132ZM75.487,80.5a4.057,4.057,0,0,1,.4-1.815,2.96,2.96,0,0,1,1.1-1.244A3.007,3.007,0,0,1,78.6,77a2.9,2.9,0,0,1,2.269.971,3.736,3.736,0,0,1,.866,2.583v.083a4.092,4.092,0,0,1-.384,1.8,2.916,2.916,0,0,1-1.1,1.241,3.041,3.041,0,0,1-1.641.444,2.889,2.889,0,0,1-2.263-.971,3.718,3.718,0,0,1-.866-2.571Zm1.181.14a2.938,2.938,0,0,0,.53,1.834,1.8,1.8,0,0,0,2.841-.01,3.213,3.213,0,0,0,.527-1.965,2.933,2.933,0,0,0-.536-1.831,1.705,1.705,0,0,0-1.425-.7,1.686,1.686,0,0,0-1.4.692A3.189,3.189,0,0,0,76.667,80.642ZM6.341,98a2.467,2.467,0,0,1-.165-.724,2.62,2.62,0,0,1-1.955.851,2.424,2.424,0,0,1-1.666-.574A1.859,1.859,0,0,1,1.9,96.1a1.942,1.942,0,0,1,.816-1.666,3.846,3.846,0,0,1,2.295-.594H6.157V93.3a1.319,1.319,0,0,0-.368-.981A1.48,1.48,0,0,0,4.7,91.951a1.712,1.712,0,0,0-1.054.317.935.935,0,0,0-.425.768H2.043a1.621,1.621,0,0,1,.365-.993,2.491,2.491,0,0,1,.99-.759A3.331,3.331,0,0,1,4.773,91a2.715,2.715,0,0,1,1.86.594,2.141,2.141,0,0,1,.7,1.635v3.161a3.865,3.865,0,0,0,.241,1.5V98Zm-1.949-.9a2.064,2.064,0,0,0,1.047-.286,1.728,1.728,0,0,0,.717-.743V94.667h-.92q-2.158,0-2.158,1.263a1.069,1.069,0,0,0,.368.863A1.415,1.415,0,0,0,4.392,97.1Zm8.825.216a2.494,2.494,0,0,1-2.012.806,2.135,2.135,0,0,1-1.673-.638A2.761,2.761,0,0,1,8.951,95.6V91.132h1.174v4.437q0,1.562,1.27,1.562a1.758,1.758,0,0,0,1.79-1v-5H14.36V98H13.242Zm4.325-7.852v1.663h1.282v.908H17.541V96.3a.953.953,0,0,0,.171.62.721.721,0,0,0,.584.207,2.843,2.843,0,0,0,.559-.076V98a3.424,3.424,0,0,1-.9.126,1.462,1.462,0,0,1-1.187-.476,2.045,2.045,0,0,1-.4-1.352V92.04h-1.25v-.908h1.25V89.469Zm2.02,5.034a4.057,4.057,0,0,1,.4-1.815,2.96,2.96,0,0,1,1.1-1.244A3.007,3.007,0,0,1,22.679,91a2.9,2.9,0,0,1,2.269.971,3.736,3.736,0,0,1,.866,2.583v.083a4.092,4.092,0,0,1-.384,1.8,2.916,2.916,0,0,1-1.1,1.241,3.041,3.041,0,0,1-1.641.444,2.889,2.889,0,0,1-2.263-.971,3.718,3.718,0,0,1-.866-2.571Zm1.181.14a2.938,2.938,0,0,0,.53,1.834,1.8,1.8,0,0,0,2.841-.01A3.213,3.213,0,0,0,24.64,94.5a2.933,2.933,0,0,0-.536-1.831,1.705,1.705,0,0,0-1.425-.7,1.686,1.686,0,0,0-1.4.692A3.189,3.189,0,0,0,20.742,94.642Zm9.669-2.457a3.519,3.519,0,0,0-.578-.044,1.547,1.547,0,0,0-1.568.984V98H27.092V91.132h1.143l.019.793A1.829,1.829,0,0,1,29.891,91a1.2,1.2,0,0,1,.521.089ZM32.572,98H31.4V91.132h1.174ZM31.3,89.31a.7.7,0,0,1,.175-.482.655.655,0,0,1,.517-.2.666.666,0,0,1,.521.2.694.694,0,0,1,.178.482.671.671,0,0,1-.178.476.678.678,0,0,1-.521.19.667.667,0,0,1-.517-.19A.678.678,0,0,1,31.3,89.31Zm4.058,7.731h4.018V98H33.926v-.863l3.79-5.034H33.983v-.971h5.205v.832ZM44.744,98a2.467,2.467,0,0,1-.165-.724,2.62,2.62,0,0,1-1.955.851,2.424,2.424,0,0,1-1.666-.574,1.859,1.859,0,0,1-.651-1.457,1.942,1.942,0,0,1,.816-1.666,3.846,3.846,0,0,1,2.295-.594H44.56V93.3a1.319,1.319,0,0,0-.368-.981,1.48,1.48,0,0,0-1.085-.365,1.712,1.712,0,0,0-1.054.317.935.935,0,0,0-.425.768H40.446a1.621,1.621,0,0,1,.365-.993,2.491,2.491,0,0,1,.99-.759A3.331,3.331,0,0,1,43.176,91a2.715,2.715,0,0,1,1.86.594,2.141,2.141,0,0,1,.7,1.635v3.161a3.865,3.865,0,0,0,.241,1.5V98Zm-1.949-.9a2.064,2.064,0,0,0,1.047-.286,1.728,1.728,0,0,0,.717-.743V94.667h-.92q-2.158,0-2.158,1.263a1.069,1.069,0,0,0,.368.863A1.415,1.415,0,0,0,42.795,97.1Zm4.3-2.6a4.023,4.023,0,0,1,.749-2.542,2.548,2.548,0,0,1,3.872-.136V88.25H52.89V98H51.81l-.057-.736a2.391,2.391,0,0,1-1.961.863,2.346,2.346,0,0,1-1.946-.978,4.069,4.069,0,0,1-.752-2.552Zm1.174.133a3.046,3.046,0,0,0,.482,1.828,1.56,1.56,0,0,0,1.333.66,1.713,1.713,0,0,0,1.631-1V92.973A1.726,1.726,0,0,0,50.1,92a1.567,1.567,0,0,0-1.346.667A3.354,3.354,0,0,0,48.268,94.642Zm5.937-.14a4.057,4.057,0,0,1,.4-1.815,2.96,2.96,0,0,1,1.1-1.244A3.007,3.007,0,0,1,57.322,91a2.9,2.9,0,0,1,2.269.971,3.736,3.736,0,0,1,.866,2.583v.083a4.092,4.092,0,0,1-.384,1.8,2.916,2.916,0,0,1-1.1,1.241,3.041,3.041,0,0,1-1.641.444,2.889,2.889,0,0,1-2.263-.971,3.718,3.718,0,0,1-.866-2.571Zm1.181.14a2.938,2.938,0,0,0,.53,1.834,1.8,1.8,0,0,0,2.841-.01,3.213,3.213,0,0,0,.527-1.965,2.933,2.933,0,0,0-.536-1.831,1.705,1.705,0,0,0-1.425-.7,1.686,1.686,0,0,0-1.4.692A3.189,3.189,0,0,0,55.386,94.642Zm6.311,5.2-.667-.457a3.063,3.063,0,0,0,.622-1.714V96.61H62.8v.92a2.891,2.891,0,0,1-.314,1.282A3,3,0,0,1,61.7,99.841ZM66.8,94.5a4.057,4.057,0,0,1,.4-1.815,2.96,2.96,0,0,1,1.1-1.244A3.007,3.007,0,0,1,69.921,91a2.9,2.9,0,0,1,2.269.971,3.736,3.736,0,0,1,.866,2.583v.083a4.092,4.092,0,0,1-.384,1.8,2.916,2.916,0,0,1-1.1,1.241,3.041,3.041,0,0,1-1.641.444,2.889,2.889,0,0,1-2.263-.971,3.718,3.718,0,0,1-.866-2.571Zm1.181.14a2.938,2.938,0,0,0,.53,1.834,1.8,1.8,0,0,0,2.841-.01,3.213,3.213,0,0,0,.527-1.965,2.933,2.933,0,0,0-.536-1.831,1.705,1.705,0,0,0-1.425-.7,1.686,1.686,0,0,0-1.4.692A3.189,3.189,0,0,0,67.985,94.642Zm12.693-2.457a3.519,3.519,0,0,0-.578-.044,1.547,1.547,0,0,0-1.568.984V98H77.358V91.132H78.5l.019.793A1.829,1.829,0,0,1,80.157,91a1.2,1.2,0,0,1,.521.089Zm.446,2.317a4.057,4.057,0,0,1,.4-1.815,2.96,2.96,0,0,1,1.1-1.244A3.007,3.007,0,0,1,84.24,91a2.9,2.9,0,0,1,2.269.971,3.736,3.736,0,0,1,.866,2.583v.083a4.092,4.092,0,0,1-.384,1.8,2.916,2.916,0,0,1-1.1,1.241,3.041,3.041,0,0,1-1.641.444,2.889,2.889,0,0,1-2.263-.971,3.718,3.718,0,0,1-.866-2.571Zm1.181.14a2.938,2.938,0,0,0,.53,1.834,1.8,1.8,0,0,0,2.841-.01A3.213,3.213,0,0,0,86.2,94.5a2.933,2.933,0,0,0-.536-1.831,1.705,1.705,0,0,0-1.425-.7,1.686,1.686,0,0,0-1.4.692A3.189,3.189,0,0,0,82.3,94.642Zm12.164,0a4.084,4.084,0,0,1-.724,2.53,2.312,2.312,0,0,1-1.942.955,2.394,2.394,0,0,1-2.012-.92L89.733,98H88.654V88.25h1.174v3.637A2.381,2.381,0,0,1,91.789,91a2.326,2.326,0,0,1,1.965.946,4.206,4.206,0,0,1,.714,2.59Zm-1.174-.133a3.173,3.173,0,0,0-.463-1.854A1.534,1.534,0,0,0,91.5,92a1.724,1.724,0,0,0-1.669,1.079v2.971A1.772,1.772,0,0,0,91.51,97.13a1.526,1.526,0,0,0,1.314-.654A3.375,3.375,0,0,0,93.294,94.509Zm2.147-.006a4.057,4.057,0,0,1,.4-1.815,2.96,2.96,0,0,1,1.1-1.244A3.007,3.007,0,0,1,98.558,91a2.9,2.9,0,0,1,2.269.971,3.736,3.736,0,0,1,.866,2.583v.083a4.092,4.092,0,0,1-.384,1.8,2.916,2.916,0,0,1-1.1,1.241,3.041,3.041,0,0,1-1.641.444,2.889,2.889,0,0,1-2.263-.971,3.718,3.718,0,0,1-.866-2.571Zm1.181.14a2.938,2.938,0,0,0,.53,1.834,1.8,1.8,0,0,0,2.841-.01,3.213,3.213,0,0,0,.527-1.965,2.933,2.933,0,0,0-.536-1.831,1.705,1.705,0,0,0-1.425-.7,1.686,1.686,0,0,0-1.4.692A3.189,3.189,0,0,0,96.622,94.642ZM103,97.384a.735.735,0,0,1,.181-.508.689.689,0,0,1,.543-.2.71.71,0,0,1,.549.2.721.721,0,0,1,.187.508.681.681,0,0,1-.187.489.723.723,0,0,1-.549.2.653.653,0,0,1-.724-.686Z" transform="translate(0 38.885)"/>
    </g>
  </g>
</svg>
