<svg xmlns="http://www.w3.org/2000/svg" width="199.155" height="275.986" viewBox="0 0 199.155 275.986">
  <g id="Grupo_64430" data-name="Grupo 64430" transform="translate(-403.667 -22299.063)">
    <g id="Grupo_64141" data-name="Grupo 64141" transform="translate(239.398 21660.803)">
      <g id="Grupo_64140" data-name="Grupo 64140" transform="translate(164.269 827.527)">
        <path id="Trazado_133401" data-name="Trazado 133401" d="M252.575,921.292H164.269V840.915a6.341,6.341,0,1,1,12.681,0v67.7h75.624a6.341,6.341,0,0,1,0,12.681Z" transform="translate(-164.269 -834.574)" fill="#37a3a5"/>
      </g>
      <path id="Trazado_133408" data-name="Trazado 133408" d="M334.777,658.021V640.053H170.848V907.894H334.777V711.459" transform="translate(-0.238 0)" fill="none" stroke="#12263f" stroke-linecap="round" stroke-miterlimit="10" stroke-width="3.588"/>
      <path id="Trazado_133409" data-name="Trazado 133409" d="M366.69,675.313l-8.711,43.251H254.412l8.711-43.251Z" transform="translate(-3.266 -12.277)" fill="#37a3a5"/>
      <g id="Grupo_64154" data-name="Grupo 64154" transform="translate(310.439 661.236)">
        <g id="Grupo_64153" data-name="Grupo 64153">
          <g id="Grupo_64152" data-name="Grupo 64152">
            <path id="Trazado_133702" data-name="Trazado 133702" d="M15.806-8.818q0,4.424-1.831,6.768A6.391,6.391,0,0,1,8.613.293a6.436,6.436,0,0,1-5.332-2.3A10.488,10.488,0,0,1,1.392-8.6v-3.926q0-4.468,1.853-6.782a6.439,6.439,0,0,1,5.339-2.314,6.445,6.445,0,0,1,5.332,2.292,10.456,10.456,0,0,1,1.89,6.584Zm-4.233-4.316A7.81,7.81,0,0,0,10.847-17a2.45,2.45,0,0,0-2.263-1.21,2.407,2.407,0,0,0-2.2,1.151,7.309,7.309,0,0,0-.754,3.6v5.191a8.2,8.2,0,0,0,.71,3.878A2.418,2.418,0,0,0,8.613-3.12a2.377,2.377,0,0,0,2.241-1.217,8,8,0,0,0,.718-3.724ZM33.281,0H18.662V-2.9l6.9-7.354a17.021,17.021,0,0,0,2.1-2.71,4.354,4.354,0,0,0,.681-2.2,3.258,3.258,0,0,0-.718-2.234,2.591,2.591,0,0,0-2.051-.813,2.794,2.794,0,0,0-2.263.989,3.917,3.917,0,0,0-.828,2.6H18.237a6.992,6.992,0,0,1,.93-3.56A6.556,6.556,0,0,1,21.8-20.706a7.992,7.992,0,0,1,3.853-.916,7.567,7.567,0,0,1,5.12,1.582,5.6,5.6,0,0,1,1.824,4.468,7.171,7.171,0,0,1-.82,3.223A17.909,17.909,0,0,1,28.96-8.525L24.111-3.413h9.17Z" transform="translate(6 34)" fill="#12263f"/>
          </g>
        </g>
      </g>
      <g id="pXbEBR.tif" transform="translate(194.561 661.765)">
        <g id="Grupo_61734" data-name="Grupo 61734" transform="translate(0)">
          <path id="Trazado_132018" data-name="Trazado 132018" d="M656.431,1215.609c1.884-.489,3.787-.916,5.648-1.48a53.562,53.562,0,0,0,9.394-4.213,8.337,8.337,0,0,1,4.424-1.235,7.6,7.6,0,0,1,2.932.832c1.791.886,3.553,1.831,5.356,2.692a45.1,45.1,0,0,0,9.984,3.315c.168.036.333.085.561.144-.049,1.421-.056,2.83-.154,4.234a43.863,43.863,0,0,1-1.613,9.3A38.874,38.874,0,0,1,678,1250.511c-.61.437-1.278.793-1.9,1.212a.914.914,0,0,1-1.055.016,30.091,30.091,0,0,1-6.289-4.548,37.739,37.739,0,0,1-10.963-19.074,45.425,45.425,0,0,1-1.272-8.918,4.064,4.064,0,0,0-.087-.514Zm1.822,1.445c0,.092,0,.235,0,.378a48.656,48.656,0,0,0,.952,8.772,36.535,36.535,0,0,0,9.356,18.35,27.8,27.8,0,0,0,6.6,5.232.617.617,0,0,0,.743,0c.606-.416,1.254-.776,1.847-1.209a35.708,35.708,0,0,0,12.723-17.351,43.324,43.324,0,0,0,2.287-11.3c.074-.972.091-1.948.134-2.933-.215-.057-.381-.1-.549-.146a49.544,49.544,0,0,1-10.432-3.789c-1.472-.738-2.946-1.474-4.432-2.183a4.32,4.32,0,0,0-3.847,0c-.478.222-.968.42-1.436.663a58.271,58.271,0,0,1-8.691,3.913C661.784,1216.016,660.036,1216.514,658.253,1217.054Z" transform="translate(-656.431 -1208.671)" fill="#12263f"/>
          <path id="Trazado_132019" data-name="Trazado 132019" d="M786.684,1313.838c.432,0,.767-.019,1.1,0a1.5,1.5,0,0,1,1.491,1.421q.057,4.637,0,9.275a1.583,1.583,0,0,1-1.487,1.451,5.584,5.584,0,0,1-.576.021H775.728c-1.479,0-2.074-.59-2.076-2.064q0-4.062,0-8.124c0-1.392.6-1.99,1.983-2h.652c0-.654-.022-1.258,0-1.859a5.195,5.195,0,0,1,10.389.015C786.706,1312.568,786.684,1313.159,786.684,1313.838Zm-11.246,10.375h12.078v-8.6H775.438ZM785,1313.8a16.949,16.949,0,0,0-.166-2.39,3.309,3.309,0,0,0-2.436-2.646,3.214,3.214,0,0,0-3.4.982c-1.1,1.166-1.037,2.6-.942,4.055Z" transform="translate(-762.352 -1297.392)" fill="#12263f"/>
          <path id="Trazado_132020" data-name="Trazado 132020" d="M843.322,1424.332a1.139,1.139,0,0,1,1.093.642,1.116,1.116,0,0,1-.086,1.22,1.8,1.8,0,0,0-.209.653,3.112,3.112,0,0,0-.007.527c-.009.6-.3.956-.768.965s-.78-.354-.791-.941c0-.08,0-.16,0-.24a1.721,1.721,0,0,0-.285-1.12A1.144,1.144,0,0,1,843.322,1424.332Z" transform="translate(-824.2 -1403.544)" fill="#12263f"/>
        </g>
      </g>
    </g>
    <g id="Grupo_64147" data-name="Grupo 64147" transform="translate(437.506 22380.051)">
      <g id="Grupo_61872" data-name="Grupo 61872" transform="translate(22.155)">
        <g id="Grupo_61871" data-name="Grupo 61871">
          <g id="Grupo_61870" data-name="Grupo 61870">
            <path id="Trazado_133703" data-name="Trazado 133703" d="M-48.416-2.2a1.03,1.03,0,0,0-.4-.867,4.759,4.759,0,0,0-1.427-.615,6.89,6.89,0,0,1-1.641-.691,2.189,2.189,0,0,1-1.166-1.91,2.079,2.079,0,0,1,.841-1.7,3.4,3.4,0,0,1,2.183-.668,3.687,3.687,0,0,1,1.588.328,2.606,2.606,0,0,1,1.1.935,2.4,2.4,0,0,1,.4,1.345h-1.477a1.337,1.337,0,0,0-.419-1.046,1.729,1.729,0,0,0-1.2-.378,1.806,1.806,0,0,0-1.128.311,1.034,1.034,0,0,0-.4.867.935.935,0,0,0,.434.782A5,5,0,0,0-49.7-4.9a6.576,6.576,0,0,1,1.6.674,2.544,2.544,0,0,1,.885.867,2.258,2.258,0,0,1,.281,1.146,2.03,2.03,0,0,1-.817,1.7,3.545,3.545,0,0,1-2.218.63,4.168,4.168,0,0,1-1.7-.343,2.859,2.859,0,0,1-1.207-.946,2.358,2.358,0,0,1-.431-1.406h1.482a1.38,1.38,0,0,0,.48,1.125,2.1,2.1,0,0,0,1.377.4,1.828,1.828,0,0,0,1.163-.313A1.011,1.011,0,0,0-48.416-2.2Zm7.77-1.611h-3.5v2.625h4.1V0h-5.578V-8.531H-40.1v1.2H-44.15V-4.98h3.5Zm8.338,2.7a2.835,2.835,0,0,1-1.283.914,5.235,5.235,0,0,1-1.863.311,3.672,3.672,0,0,1-1.9-.486,3.239,3.239,0,0,1-1.274-1.392,4.869,4.869,0,0,1-.466-2.112v-.668a4.515,4.515,0,0,1,.926-3.021,3.211,3.211,0,0,1,2.584-1.087,3.4,3.4,0,0,1,2.262.706,3.042,3.042,0,0,1,1.008,2.03h-1.453a1.635,1.635,0,0,0-1.787-1.541,1.752,1.752,0,0,0-1.515.717,3.653,3.653,0,0,0-.536,2.1v.656a3.47,3.47,0,0,0,.583,2.145,1.923,1.923,0,0,0,1.62.764,2.136,2.136,0,0,0,1.617-.516v-1.67h-1.758V-4.377h3.234Zm7.869-7.424v5.7a2.771,2.771,0,0,1-.87,2.153,3.305,3.305,0,0,1-2.317.794,3.329,3.329,0,0,1-2.326-.782,2.784,2.784,0,0,1-.861-2.171v-5.7h1.477v5.707A1.813,1.813,0,0,0-28.9-1.518a1.692,1.692,0,0,0,1.277.451q1.711,0,1.711-1.8v-5.66Zm4.717,5.25h-1.652V0h-1.482V-8.531h3a3.49,3.49,0,0,1,2.279.663,2.344,2.344,0,0,1,.8,1.918,2.4,2.4,0,0,1-.413,1.434,2.629,2.629,0,0,1-1.151.888l1.916,3.553V0h-1.588Zm-1.652-1.2h1.523a1.694,1.694,0,0,0,1.172-.378,1.318,1.318,0,0,0,.422-1.034,1.4,1.4,0,0,0-.39-1.061,1.655,1.655,0,0,0-1.163-.387h-1.564ZM-13.8,0h-1.477V-8.531H-13.8Zm1.822,0V-8.531h2.52a3.952,3.952,0,0,1,2.007.5A3.436,3.436,0,0,1-6.1-6.6a4.538,4.538,0,0,1,.48,2.121v.428A4.519,4.519,0,0,1-6.1-1.916,3.4,3.4,0,0,1-7.479-.5,4.135,4.135,0,0,1-9.527,0ZM-10.5-7.336v6.152h.967a2.226,2.226,0,0,0,1.79-.729,3.178,3.178,0,0,0,.636-2.095v-.475a3.261,3.261,0,0,0-.6-2.121,2.14,2.14,0,0,0-1.752-.732ZM.633-1.986h-3.3L-3.363,0H-4.9l3.223-8.531h1.33L2.877,0H1.33Zm-2.889-1.2H.217L-1.02-6.721ZM3.844,0V-8.531h2.52a3.952,3.952,0,0,1,2.007.5A3.436,3.436,0,0,1,9.727-6.6a4.538,4.538,0,0,1,.48,2.121v.428a4.519,4.519,0,0,1-.483,2.133A3.4,3.4,0,0,1,8.347-.5,4.135,4.135,0,0,1,6.3,0ZM5.326-7.336v6.152h.967a2.226,2.226,0,0,0,1.79-.729,3.178,3.178,0,0,0,.636-2.095v-.475a3.261,3.261,0,0,0-.6-2.121,2.14,2.14,0,0,0-1.752-.732ZM19.658-3.809h-3.5v2.625h4.1V0H14.672V-8.531h5.537v1.2H16.154V-4.98h3.5ZM28.225,0H26.742l-3.8-6.053V0H21.457V-8.531h1.482l3.814,6.076V-8.531h1.471Zm6.223-1.184H38.32V0H32.965V-8.531h1.482ZM45.891-4.043a5.234,5.234,0,0,1-.434,2.2A3.278,3.278,0,0,1,44.218-.39a3.409,3.409,0,0,1-1.854.507A3.417,3.417,0,0,1,40.515-.39a3.329,3.329,0,0,1-1.254-1.444A5.07,5.07,0,0,1,38.813-4v-.48a5.189,5.189,0,0,1,.442-2.2A3.325,3.325,0,0,1,40.5-8.142a3.4,3.4,0,0,1,1.849-.507,3.428,3.428,0,0,1,1.849.5,3.283,3.283,0,0,1,1.245,1.441,5.178,5.178,0,0,1,.445,2.188Zm-1.482-.445a3.729,3.729,0,0,0-.536-2.174,1.754,1.754,0,0,0-1.521-.756,1.749,1.749,0,0,0-1.5.753,3.657,3.657,0,0,0-.554,2.13v.492a3.7,3.7,0,0,0,.548,2.174,1.764,1.764,0,0,0,1.521.768,1.743,1.743,0,0,0,1.515-.75,3.781,3.781,0,0,0,.53-2.191ZM51.826-2.2a1.03,1.03,0,0,0-.4-.867A4.759,4.759,0,0,0,50-3.68a6.89,6.89,0,0,1-1.641-.691A2.189,2.189,0,0,1,47.2-6.281a2.079,2.079,0,0,1,.841-1.7,3.4,3.4,0,0,1,2.183-.668,3.687,3.687,0,0,1,1.588.328,2.606,2.606,0,0,1,1.1.935,2.4,2.4,0,0,1,.4,1.345H51.826a1.337,1.337,0,0,0-.419-1.046,1.729,1.729,0,0,0-1.2-.378,1.806,1.806,0,0,0-1.128.311,1.034,1.034,0,0,0-.4.867.935.935,0,0,0,.434.782,5,5,0,0,0,1.43.609,6.576,6.576,0,0,1,1.6.674,2.544,2.544,0,0,1,.885.867,2.258,2.258,0,0,1,.281,1.146,2.03,2.03,0,0,1-.817,1.7,3.545,3.545,0,0,1-2.218.63,4.168,4.168,0,0,1-1.7-.343,2.859,2.859,0,0,1-1.207-.946,2.358,2.358,0,0,1-.431-1.406h1.482a1.38,1.38,0,0,0,.48,1.125,2.1,2.1,0,0,0,1.377.4,1.828,1.828,0,0,0,1.163-.313A1.011,1.011,0,0,0,51.826-2.2Z" transform="translate(35 11)" fill="#12263f"/>
          </g>
        </g>
      </g>
      <g id="Grupo_61875" data-name="Grupo 61875" transform="translate(0 13.33)">
        <g id="Grupo_61874" data-name="Grupo 61874">
          <g id="Grupo_61873" data-name="Grupo 61873">
            <path id="Trazado_133704" data-name="Trazado 133704" d="M-58.4-2.834a1.056,1.056,0,0,0-.4-.879,4.961,4.961,0,0,0-1.4-.652,13.456,13.456,0,0,1-1.641-.652,3.107,3.107,0,0,1-2.073-2.8A2.509,2.509,0,0,1-63.4-9.379a3.34,3.34,0,0,1,1.461-1.055,5.686,5.686,0,0,1,2.124-.377,4.974,4.974,0,0,1,2.062.41,3.264,3.264,0,0,1,1.417,1.168A3.051,3.051,0,0,1-55.833-7.5H-58.4a1.289,1.289,0,0,0-.4-1.011,1.556,1.556,0,0,0-1.08-.359,1.755,1.755,0,0,0-1.088.3.932.932,0,0,0-.4.773.939.939,0,0,0,.439.743,5.542,5.542,0,0,0,1.545.688,9.467,9.467,0,0,1,1.816.765,3.052,3.052,0,0,1,1.729,2.747,2.6,2.6,0,0,1-1.055,2.2,4.691,4.691,0,0,1-2.893.8,5.74,5.74,0,0,1-2.347-.465A3.539,3.539,0,0,1-63.71-1.593a3.321,3.321,0,0,1-.531-1.864h2.578a1.635,1.635,0,0,0,.443,1.263,2.094,2.094,0,0,0,1.439.406,1.655,1.655,0,0,0,1.007-.275A.907.907,0,0,0-58.4-2.834Zm10.5-1.692h-4.043v2.549h4.775V0h-7.346V-10.664h7.361v1.985h-4.79v2.249H-47.9Zm5.742.754H-43.55V0h-2.571V-10.664h4.2a4.684,4.684,0,0,1,2.966.841,2.851,2.851,0,0,1,1.069,2.378,3.462,3.462,0,0,1-.45,1.844,3.2,3.2,0,0,1-1.41,1.185L-37.522-.11V0h-2.754ZM-43.55-5.75h1.626a1.459,1.459,0,0,0,1.1-.385,1.49,1.49,0,0,0,.37-1.076,1.508,1.508,0,0,0-.374-1.083,1.446,1.446,0,0,0-1.1-.393H-43.55ZM-32.336-2.9l2.124-7.764h2.871L-30.93,0h-2.812L-37.3-10.664h2.849ZM-23.826,0h-2.563V-10.664h2.563Zm10.415-3.611a3.9,3.9,0,0,1-.6,1.967A3.625,3.625,0,0,1-15.553-.322,5.248,5.248,0,0,1-17.82.146a4.188,4.188,0,0,1-3.311-1.37A5.655,5.655,0,0,1-22.339-5.09v-.527a6.455,6.455,0,0,1,.546-2.743,4.134,4.134,0,0,1,1.571-1.816,4.383,4.383,0,0,1,2.373-.641A4.6,4.6,0,0,1-14.729-9.8a4.037,4.037,0,0,1,1.34,2.816h-2.563a1.91,1.91,0,0,0-.491-1.4A2.018,2.018,0,0,0-17.849-8.8a1.536,1.536,0,0,0-1.406.718,4.613,4.613,0,0,0-.469,2.292v.754A5.1,5.1,0,0,0-19.3-2.6a1.568,1.568,0,0,0,1.476.732,1.974,1.974,0,0,0,1.355-.417,1.772,1.772,0,0,0,.5-1.326ZM-9.456,0h-2.563V-10.664h2.563ZM1.362-5.112A6.289,6.289,0,0,1,.784-2.351,4.276,4.276,0,0,1-.861-.5,4.579,4.579,0,0,1-3.289.146,4.643,4.643,0,0,1-5.706-.48,4.269,4.269,0,0,1-7.35-2.271a6.108,6.108,0,0,1-.619-2.673v-.6a6.316,6.316,0,0,1,.575-2.765,4.266,4.266,0,0,1,1.648-1.849A4.61,4.61,0,0,1-3.3-10.811a4.566,4.566,0,0,1,2.417.645A4.343,4.343,0,0,1,.765-8.331a6.135,6.135,0,0,1,.6,2.728Zm-2.615-.447a4.484,4.484,0,0,0-.531-2.413A1.7,1.7,0,0,0-3.3-8.8q-1.934,0-2.043,2.9l-.007.784a4.612,4.612,0,0,0,.52,2.41,1.7,1.7,0,0,0,1.545.842,1.68,1.68,0,0,0,1.5-.828,4.486,4.486,0,0,0,.535-2.38ZM8.188-2.834a1.056,1.056,0,0,0-.4-.879,4.961,4.961,0,0,0-1.4-.652,13.456,13.456,0,0,1-1.641-.652,3.107,3.107,0,0,1-2.073-2.8A2.509,2.509,0,0,1,3.19-9.379a3.34,3.34,0,0,1,1.461-1.055,5.686,5.686,0,0,1,2.124-.377,4.974,4.974,0,0,1,2.062.41,3.264,3.264,0,0,1,1.417,1.168A3.051,3.051,0,0,1,10.759-7.5H8.2a1.289,1.289,0,0,0-.4-1.011,1.556,1.556,0,0,0-1.08-.359,1.755,1.755,0,0,0-1.088.3.932.932,0,0,0-.4.773.939.939,0,0,0,.439.743,5.542,5.542,0,0,0,1.545.688A9.467,9.467,0,0,1,9.031-5.6a3.052,3.052,0,0,1,1.729,2.747A2.6,2.6,0,0,1,9.7-.652a4.691,4.691,0,0,1-2.893.8A5.74,5.74,0,0,1,4.464-.319,3.539,3.539,0,0,1,2.882-1.593a3.321,3.321,0,0,1-.531-1.864H4.929a1.635,1.635,0,0,0,.443,1.263,2.094,2.094,0,0,0,1.439.406,1.655,1.655,0,0,0,1.007-.275A.907.907,0,0,0,8.188-2.834ZM15.813,0V-10.664h3.435a5.053,5.053,0,0,1,2.542.641,4.5,4.5,0,0,1,1.761,1.809A5.462,5.462,0,0,1,24.192-5.6V-5.1a5.494,5.494,0,0,1-.619,2.626A4.524,4.524,0,0,1,21.83-.663,4.942,4.942,0,0,1,19.321,0Zm2.571-8.679v6.7h.894a2,2,0,0,0,1.7-.787A3.858,3.858,0,0,0,21.57-5.1v-.461A3.827,3.827,0,0,0,20.977-7.9a2.035,2.035,0,0,0-1.729-.784Zm13.74,4.153H28.081v2.549h4.775V0H25.51V-10.664h7.361v1.985h-4.79v2.249h4.043Zm9.478.754H40.21V0H37.639V-10.664h4.2a4.684,4.684,0,0,1,2.966.841,2.851,2.851,0,0,1,1.069,2.378,3.462,3.462,0,0,1-.45,1.844,3.2,3.2,0,0,1-1.41,1.185L46.238-.11V0H43.484ZM40.21-5.75h1.626a1.459,1.459,0,0,0,1.1-.385,1.49,1.49,0,0,0,.37-1.076,1.508,1.508,0,0,0-.374-1.083,1.446,1.446,0,0,0-1.1-.393H40.21ZM54.038-4.526H50v2.549h4.775V0H47.424V-10.664h7.361v1.985H50v2.249h4.043ZM55.818,0V-10.664h3.435a5.053,5.053,0,0,1,2.542.641,4.5,4.5,0,0,1,1.761,1.809A5.462,5.462,0,0,1,64.2-5.6V-5.1a5.494,5.494,0,0,1-.619,2.626A4.524,4.524,0,0,1,61.835-.663,4.942,4.942,0,0,1,59.326,0Zm2.571-8.679v6.7h.894a2,2,0,0,0,1.7-.787,3.858,3.858,0,0,0,.593-2.34v-.461A3.827,3.827,0,0,0,60.981-7.9a2.035,2.035,0,0,0-1.729-.784Z" transform="translate(56 14)" fill="#12263f"/>
          </g>
        </g>
      </g>
    </g>
    <path id="Trazado_133705" data-name="Trazado 133705" d="M10.419,13H14.8v1h-5.6V4.758h1.225Zm5.08-2.5a4.057,4.057,0,0,1,.4-1.815A2.96,2.96,0,0,1,17,7.443,3.007,3.007,0,0,1,18.615,7a2.9,2.9,0,0,1,2.269.971,3.736,3.736,0,0,1,.866,2.583v.083a4.092,4.092,0,0,1-.384,1.8,2.916,2.916,0,0,1-1.1,1.241,3.041,3.041,0,0,1-1.641.444,2.889,2.889,0,0,1-2.263-.971,3.718,3.718,0,0,1-.866-2.571Zm1.181.14a2.938,2.938,0,0,0,.53,1.834,1.8,1.8,0,0,0,2.841-.01,3.213,3.213,0,0,0,.527-1.965,2.933,2.933,0,0,0-.536-1.831,1.705,1.705,0,0,0-1.425-.7,1.686,1.686,0,0,0-1.4.692A3.189,3.189,0,0,0,16.679,10.642Zm10.348,1.536a.864.864,0,0,0-.359-.74,3.452,3.452,0,0,0-1.25-.454A5.912,5.912,0,0,1,24,10.528a2.014,2.014,0,0,1-.774-.635,1.518,1.518,0,0,1-.251-.876,1.782,1.782,0,0,1,.714-1.428A2.789,2.789,0,0,1,25.517,7a2.87,2.87,0,0,1,1.895.6,1.915,1.915,0,0,1,.727,1.542H26.958a1.06,1.06,0,0,0-.409-.832,1.534,1.534,0,0,0-1.031-.349,1.605,1.605,0,0,0-1,.279.879.879,0,0,0-.362.73.712.712,0,0,0,.336.641,4.139,4.139,0,0,0,1.216.413,6.334,6.334,0,0,1,1.425.47,2.079,2.079,0,0,1,.809.657,1.615,1.615,0,0,1,.263.936,1.758,1.758,0,0,1-.736,1.476,3.089,3.089,0,0,1-1.911.555,3.459,3.459,0,0,1-1.46-.292,2.375,2.375,0,0,1-.993-.816,1.966,1.966,0,0,1-.359-1.133h1.174a1.216,1.216,0,0,0,.473.936,1.835,1.835,0,0,0,1.165.346,1.894,1.894,0,0,0,1.07-.27A.829.829,0,0,0,27.028,12.178Zm9.531,0a.865.865,0,0,0-.359-.74,3.452,3.452,0,0,0-1.25-.454,5.912,5.912,0,0,1-1.416-.457,2.014,2.014,0,0,1-.774-.635,1.518,1.518,0,0,1-.251-.876,1.782,1.782,0,0,1,.714-1.428A2.789,2.789,0,0,1,35.048,7a2.87,2.87,0,0,1,1.895.6A1.915,1.915,0,0,1,37.67,9.15H36.489a1.06,1.06,0,0,0-.409-.832,1.534,1.534,0,0,0-1.031-.349,1.605,1.605,0,0,0-1,.279.879.879,0,0,0-.362.73.712.712,0,0,0,.336.641,4.139,4.139,0,0,0,1.216.413,6.334,6.334,0,0,1,1.425.47,2.079,2.079,0,0,1,.809.657,1.615,1.615,0,0,1,.263.936A1.758,1.758,0,0,1,37,13.572a3.089,3.089,0,0,1-1.911.555,3.459,3.459,0,0,1-1.46-.292,2.375,2.375,0,0,1-.993-.816,1.966,1.966,0,0,1-.359-1.133h1.174a1.216,1.216,0,0,0,.473.936,1.835,1.835,0,0,0,1.165.346,1.894,1.894,0,0,0,1.07-.27A.829.829,0,0,0,36.559,12.178Zm5.359,1.949a3,3,0,0,1-2.272-.917,3.4,3.4,0,0,1-.876-2.453v-.216a4.121,4.121,0,0,1,.39-1.825,3.045,3.045,0,0,1,1.092-1.257A2.745,2.745,0,0,1,41.772,7a2.572,2.572,0,0,1,2.082.882,3.82,3.82,0,0,1,.743,2.526V10.9H39.944a2.441,2.441,0,0,0,.594,1.641,1.866,1.866,0,0,0,1.444.625,2.045,2.045,0,0,0,1.054-.254,2.648,2.648,0,0,0,.755-.673l.717.559A2.884,2.884,0,0,1,41.918,14.127ZM41.772,7.97a1.566,1.566,0,0,0-1.193.517,2.515,2.515,0,0,0-.6,1.45h3.44V9.849a2.237,2.237,0,0,0-.482-1.387A1.475,1.475,0,0,0,41.772,7.97Zm7.308.216a3.519,3.519,0,0,0-.578-.044,1.547,1.547,0,0,0-1.568.984V14H45.76V7.132H46.9l.019.793A1.829,1.829,0,0,1,48.56,7a1.2,1.2,0,0,1,.521.089Zm3.264,4.221,1.7-5.275h1.2L52.783,14h-.9L49.4,7.132h1.2ZM57.456,14H56.282V7.132h1.174Zm-1.27-8.69a.7.7,0,0,1,.175-.482.655.655,0,0,1,.517-.2.666.666,0,0,1,.521.2.694.694,0,0,1,.178.482.671.671,0,0,1-.178.476.678.678,0,0,1-.521.19.667.667,0,0,1-.517-.19A.678.678,0,0,1,56.187,5.31Zm5.708,7.858a1.692,1.692,0,0,0,1.1-.381,1.34,1.34,0,0,0,.521-.952h1.111a2.13,2.13,0,0,1-.406,1.124,2.676,2.676,0,0,1-1,.851,2.885,2.885,0,0,1-1.323.317,2.829,2.829,0,0,1-2.231-.936,3.729,3.729,0,0,1-.828-2.561v-.2A4.135,4.135,0,0,1,59.2,8.649,2.8,2.8,0,0,1,60.26,7.437,3,3,0,0,1,61.889,7a2.755,2.755,0,0,1,1.92.692,2.473,2.473,0,0,1,.816,1.8H63.514a1.618,1.618,0,0,0-.5-1.095,1.57,1.57,0,0,0-1.12-.428,1.644,1.644,0,0,0-1.387.644,3.026,3.026,0,0,0-.492,1.863V10.7a2.965,2.965,0,0,0,.489,1.828A1.651,1.651,0,0,0,61.895,13.168ZM67.026,14H65.851V7.132h1.174Zm-1.27-8.69a.7.7,0,0,1,.175-.482.655.655,0,0,1,.517-.2.666.666,0,0,1,.521.2.694.694,0,0,1,.178.482.671.671,0,0,1-.178.476.678.678,0,0,1-.521.19.667.667,0,0,1-.517-.19A.678.678,0,0,1,65.756,5.31ZM68.4,10.5a4.057,4.057,0,0,1,.4-1.815,2.96,2.96,0,0,1,1.1-1.244A3.007,3.007,0,0,1,71.515,7a2.9,2.9,0,0,1,2.269.971,3.736,3.736,0,0,1,.866,2.583v.083a4.092,4.092,0,0,1-.384,1.8,2.916,2.916,0,0,1-1.1,1.241,3.041,3.041,0,0,1-1.641.444,2.889,2.889,0,0,1-2.263-.971,3.718,3.718,0,0,1-.866-2.571Zm1.181.14a2.938,2.938,0,0,0,.53,1.834,1.8,1.8,0,0,0,2.841-.01,3.213,3.213,0,0,0,.527-1.965,2.933,2.933,0,0,0-.536-1.831,1.705,1.705,0,0,0-1.425-.7,1.686,1.686,0,0,0-1.4.692A3.189,3.189,0,0,0,69.579,10.642Zm10.348,1.536a.864.864,0,0,0-.359-.74,3.452,3.452,0,0,0-1.25-.454,5.912,5.912,0,0,1-1.416-.457,2.014,2.014,0,0,1-.774-.635,1.518,1.518,0,0,1-.251-.876,1.782,1.782,0,0,1,.714-1.428A2.789,2.789,0,0,1,78.417,7a2.87,2.87,0,0,1,1.895.6,1.915,1.915,0,0,1,.727,1.542H79.858a1.06,1.06,0,0,0-.409-.832,1.534,1.534,0,0,0-1.031-.349,1.606,1.606,0,0,0-1,.279.879.879,0,0,0-.362.73.712.712,0,0,0,.336.641,4.139,4.139,0,0,0,1.216.413,6.334,6.334,0,0,1,1.425.47,2.079,2.079,0,0,1,.809.657,1.615,1.615,0,0,1,.263.936,1.758,1.758,0,0,1-.736,1.476,3.089,3.089,0,0,1-1.911.555A3.459,3.459,0,0,1,77,13.835,2.375,2.375,0,0,1,76,13.019a1.966,1.966,0,0,1-.359-1.133h1.174a1.216,1.216,0,0,0,.473.936,1.835,1.835,0,0,0,1.165.346,1.894,1.894,0,0,0,1.07-.27A.829.829,0,0,0,79.928,12.178Zm5.247-1.669a4.023,4.023,0,0,1,.749-2.542A2.548,2.548,0,0,1,89.8,7.83V4.25H90.97V14H89.891l-.057-.736a2.391,2.391,0,0,1-1.961.863,2.346,2.346,0,0,1-1.946-.978,4.069,4.069,0,0,1-.752-2.552Zm1.174.133a3.046,3.046,0,0,0,.482,1.828,1.56,1.56,0,0,0,1.333.66,1.713,1.713,0,0,0,1.631-1V8.973A1.726,1.726,0,0,0,88.177,8a1.567,1.567,0,0,0-1.346.667A3.354,3.354,0,0,0,86.349,10.642Zm9.1,3.485a3,3,0,0,1-2.272-.917,3.4,3.4,0,0,1-.876-2.453v-.216a4.121,4.121,0,0,1,.39-1.825A3.045,3.045,0,0,1,93.78,7.459,2.745,2.745,0,0,1,95.3,7a2.572,2.572,0,0,1,2.082.882,3.82,3.82,0,0,1,.743,2.526V10.9H93.473a2.441,2.441,0,0,0,.594,1.641,1.866,1.866,0,0,0,1.444.625,2.045,2.045,0,0,0,1.054-.254,2.648,2.648,0,0,0,.755-.673l.717.559A2.884,2.884,0,0,1,95.447,14.127ZM95.3,7.97a1.566,1.566,0,0,0-1.193.517,2.515,2.515,0,0,0-.6,1.45h3.44V9.849a2.237,2.237,0,0,0-.482-1.387A1.475,1.475,0,0,0,95.3,7.97ZM21.53,22.186a3.519,3.519,0,0,0-.578-.044,1.547,1.547,0,0,0-1.568.984V28H18.211V21.132h1.143l.019.793A1.829,1.829,0,0,1,21.01,21a1.2,1.2,0,0,1,.521.089Zm3.734,5.941a3,3,0,0,1-2.272-.917,3.4,3.4,0,0,1-.876-2.453v-.216a4.121,4.121,0,0,1,.39-1.825A3.045,3.045,0,0,1,23.6,21.459,2.745,2.745,0,0,1,25.119,21a2.572,2.572,0,0,1,2.082.882,3.82,3.82,0,0,1,.743,2.526V24.9H23.291a2.441,2.441,0,0,0,.594,1.641,1.866,1.866,0,0,0,1.444.625,2.045,2.045,0,0,0,1.054-.254,2.648,2.648,0,0,0,.755-.673l.717.559A2.884,2.884,0,0,1,25.265,28.127Zm-.146-6.157a1.566,1.566,0,0,0-1.193.517,2.515,2.515,0,0,0-.6,1.45h3.44v-.089a2.237,2.237,0,0,0-.482-1.387A1.475,1.475,0,0,0,25.119,21.97Zm3.7,2.539a4.023,4.023,0,0,1,.749-2.542,2.548,2.548,0,0,1,3.872-.136V18.25h1.174V28H33.537l-.057-.736a2.391,2.391,0,0,1-1.961.863,2.346,2.346,0,0,1-1.946-.978,4.069,4.069,0,0,1-.752-2.552ZM30,24.642a3.046,3.046,0,0,0,.482,1.828,1.56,1.56,0,0,0,1.333.66,1.713,1.713,0,0,0,1.631-1V22.973A1.726,1.726,0,0,0,31.824,22a1.567,1.567,0,0,0-1.346.667A3.354,3.354,0,0,0,30,24.642Zm13.27,1.536a.865.865,0,0,0-.359-.74,3.452,3.452,0,0,0-1.25-.454,5.912,5.912,0,0,1-1.416-.457,2.014,2.014,0,0,1-.774-.635,1.518,1.518,0,0,1-.251-.876,1.782,1.782,0,0,1,.714-1.428A2.789,2.789,0,0,1,41.755,21a2.87,2.87,0,0,1,1.895.6,1.915,1.915,0,0,1,.727,1.542H43.2a1.06,1.06,0,0,0-.409-.832,1.534,1.534,0,0,0-1.031-.349,1.606,1.606,0,0,0-1,.279.879.879,0,0,0-.362.73.712.712,0,0,0,.336.641,4.139,4.139,0,0,0,1.216.413,6.334,6.334,0,0,1,1.425.47,2.079,2.079,0,0,1,.809.657,1.615,1.615,0,0,1,.263.936,1.758,1.758,0,0,1-.736,1.476,3.089,3.089,0,0,1-1.911.555,3.459,3.459,0,0,1-1.46-.292,2.375,2.375,0,0,1-.993-.816,1.966,1.966,0,0,1-.359-1.133h1.174a1.216,1.216,0,0,0,.473.936,1.835,1.835,0,0,0,1.165.346,1.894,1.894,0,0,0,1.07-.27A.829.829,0,0,0,43.266,26.178Zm5.359,1.949a3,3,0,0,1-2.272-.917,3.4,3.4,0,0,1-.876-2.453v-.216a4.121,4.121,0,0,1,.39-1.825,3.045,3.045,0,0,1,1.092-1.257A2.745,2.745,0,0,1,48.479,21a2.572,2.572,0,0,1,2.082.882,3.82,3.82,0,0,1,.743,2.526V24.9H46.651a2.441,2.441,0,0,0,.594,1.641,1.866,1.866,0,0,0,1.444.625,2.045,2.045,0,0,0,1.054-.254,2.648,2.648,0,0,0,.755-.673l.717.559A2.884,2.884,0,0,1,48.625,28.127Zm-.146-6.157a1.566,1.566,0,0,0-1.193.517,2.515,2.515,0,0,0-.6,1.45h3.44v-.089a2.237,2.237,0,0,0-.482-1.387A1.475,1.475,0,0,0,48.479,21.97ZM55.2,24.509a4.023,4.023,0,0,1,.749-2.542,2.548,2.548,0,0,1,3.872-.136V18.25H61V28H59.921l-.057-.736a2.391,2.391,0,0,1-1.961.863,2.346,2.346,0,0,1-1.946-.978A4.069,4.069,0,0,1,55.2,24.6Zm1.174.133a3.046,3.046,0,0,0,.482,1.828,1.56,1.56,0,0,0,1.333.66,1.713,1.713,0,0,0,1.631-1V22.973A1.726,1.726,0,0,0,58.207,22a1.567,1.567,0,0,0-1.346.667A3.354,3.354,0,0,0,56.379,24.642Zm9.1,3.485A3,3,0,0,1,63.2,27.21a3.4,3.4,0,0,1-.876-2.453v-.216a4.121,4.121,0,0,1,.39-1.825,3.045,3.045,0,0,1,1.092-1.257A2.745,2.745,0,0,1,65.331,21a2.572,2.572,0,0,1,2.082.882,3.82,3.82,0,0,1,.743,2.526V24.9H63.5a2.441,2.441,0,0,0,.594,1.641,1.866,1.866,0,0,0,1.444.625,2.045,2.045,0,0,0,1.054-.254,2.648,2.648,0,0,0,.755-.673l.717.559A2.884,2.884,0,0,1,65.477,28.127Zm-.146-6.157a1.566,1.566,0,0,0-1.193.517,2.515,2.515,0,0,0-.6,1.45h3.44v-.089a2.237,2.237,0,0,0-.482-1.387A1.475,1.475,0,0,0,65.331,21.97Zm9.8,2.672a4.084,4.084,0,0,1-.724,2.53,2.312,2.312,0,0,1-1.942.955,2.394,2.394,0,0,1-2.012-.92L70.4,28H69.319V18.25h1.174v3.637A2.381,2.381,0,0,1,72.455,21a2.326,2.326,0,0,1,1.965.946,4.206,4.206,0,0,1,.714,2.59Zm-1.174-.133a3.173,3.173,0,0,0-.463-1.854A1.534,1.534,0,0,0,72.163,22a1.724,1.724,0,0,0-1.669,1.079v2.971a1.772,1.772,0,0,0,1.682,1.079,1.526,1.526,0,0,0,1.314-.654A3.375,3.375,0,0,0,73.959,24.509Zm5.308,3.618A3,3,0,0,1,77,27.21a3.4,3.4,0,0,1-.876-2.453v-.216a4.121,4.121,0,0,1,.39-1.825A3.045,3.045,0,0,1,77.6,21.459,2.745,2.745,0,0,1,79.121,21a2.572,2.572,0,0,1,2.082.882,3.82,3.82,0,0,1,.743,2.526V24.9H77.293a2.441,2.441,0,0,0,.594,1.641,1.866,1.866,0,0,0,1.444.625,2.045,2.045,0,0,0,1.054-.254,2.648,2.648,0,0,0,.755-.673l.717.559A2.884,2.884,0,0,1,79.267,28.127Zm-.146-6.157a1.566,1.566,0,0,0-1.193.517,2.515,2.515,0,0,0-.6,1.45h3.44v-.089a2.237,2.237,0,0,0-.482-1.387A1.475,1.475,0,0,0,79.121,21.97Zm5.1-.838.038.863A2.5,2.5,0,0,1,86.315,21q2.177,0,2.2,2.457V28H87.337V23.455a1.581,1.581,0,0,0-.34-1.1A1.361,1.361,0,0,0,85.96,22a1.7,1.7,0,0,0-1,.3,2.069,2.069,0,0,0-.673.8V28H83.11V21.132ZM29.473,42H28.3V32.25h1.174Zm2.96,0H31.259V35.132h1.174Zm-1.27-8.69a.7.7,0,0,1,.175-.482.655.655,0,0,1,.517-.2.666.666,0,0,1,.521.2.694.694,0,0,1,.178.482.671.671,0,0,1-.178.476.678.678,0,0,1-.521.19.667.667,0,0,1-.517-.19A.678.678,0,0,1,31.163,33.31Zm4.058,1.822.032.762A2.536,2.536,0,0,1,37.291,35a1.964,1.964,0,0,1,1.961,1.1,2.6,2.6,0,0,1,.892-.8,2.634,2.634,0,0,1,1.3-.3q2.26,0,2.3,2.393V42H42.566V37.468a1.577,1.577,0,0,0-.336-1.1A1.482,1.482,0,0,0,41.1,36a1.557,1.557,0,0,0-1.085.39,1.584,1.584,0,0,0-.5,1.051V42H38.332V37.5A1.31,1.31,0,0,0,36.865,36a1.571,1.571,0,0,0-1.581.984V42H34.111V35.132ZM46.592,42H45.417V35.132h1.174Zm-1.27-8.69a.7.7,0,0,1,.175-.482.655.655,0,0,1,.517-.2.666.666,0,0,1,.521.2.694.694,0,0,1,.178.482.671.671,0,0,1-.178.476.678.678,0,0,1-.521.19.667.667,0,0,1-.517-.19A.678.678,0,0,1,45.322,33.31Zm4.547.159v1.663h1.282v.908H49.869V40.3a.953.953,0,0,0,.171.62.721.721,0,0,0,.584.207,2.843,2.843,0,0,0,.559-.076V42a3.424,3.424,0,0,1-.9.126,1.462,1.462,0,0,1-1.187-.476,2.045,2.045,0,0,1-.4-1.352V36.04h-1.25v-.908h1.25V33.469ZM56.567,42a2.467,2.467,0,0,1-.165-.724,2.62,2.62,0,0,1-1.955.851,2.424,2.424,0,0,1-1.666-.574A1.859,1.859,0,0,1,52.13,40.1a1.942,1.942,0,0,1,.816-1.666,3.846,3.846,0,0,1,2.295-.594h1.143V37.3a1.319,1.319,0,0,0-.368-.981,1.48,1.48,0,0,0-1.085-.365,1.712,1.712,0,0,0-1.054.317.935.935,0,0,0-.425.768H52.27a1.621,1.621,0,0,1,.365-.993,2.491,2.491,0,0,1,.99-.759A3.331,3.331,0,0,1,55,35a2.715,2.715,0,0,1,1.86.594,2.141,2.141,0,0,1,.7,1.635v3.161a3.865,3.865,0,0,0,.241,1.5V42Zm-1.949-.9a2.064,2.064,0,0,0,1.047-.286,1.728,1.728,0,0,0,.717-.743V38.667h-.92q-2.158,0-2.158,1.263a1.069,1.069,0,0,0,.368.863A1.415,1.415,0,0,0,54.619,41.1Zm7.9-4.919a3.519,3.519,0,0,0-.578-.044,1.547,1.547,0,0,0-1.568.984V42H59.2V35.132h1.143l.019.793A1.829,1.829,0,0,1,62,35a1.2,1.2,0,0,1,.521.089Zm6.757,5.941a3,3,0,0,1-2.272-.917,3.4,3.4,0,0,1-.876-2.453v-.216a4.121,4.121,0,0,1,.39-1.825,3.045,3.045,0,0,1,1.092-1.257A2.745,2.745,0,0,1,69.135,35a2.572,2.572,0,0,1,2.082.882,3.82,3.82,0,0,1,.743,2.526V38.9H67.307a2.441,2.441,0,0,0,.594,1.641,1.866,1.866,0,0,0,1.444.625,2.045,2.045,0,0,0,1.054-.254,2.648,2.648,0,0,0,.755-.673l.717.559A2.884,2.884,0,0,1,69.281,42.127Zm-.146-6.157a1.566,1.566,0,0,0-1.193.517,2.515,2.515,0,0,0-.6,1.45h3.44v-.089a2.237,2.237,0,0,0-.482-1.387A1.475,1.475,0,0,0,69.135,35.97Zm5.1-.838.038.863A2.5,2.5,0,0,1,76.329,35q2.177,0,2.2,2.457V42H77.35V37.455a1.581,1.581,0,0,0-.34-1.1A1.361,1.361,0,0,0,75.973,36a1.7,1.7,0,0,0-1,.3,2.069,2.069,0,0,0-.673.8V42H73.123V35.132Zm-71.894,14L2.377,50A2.5,2.5,0,0,1,4.434,49q2.177,0,2.2,2.457V56H5.456V51.455a1.581,1.581,0,0,0-.34-1.1A1.361,1.361,0,0,0,4.079,50a1.7,1.7,0,0,0-1,.3,2.069,2.069,0,0,0-.673.8V56H1.229V49.132Zm8.717,7a3,3,0,0,1-2.272-.917,3.4,3.4,0,0,1-.876-2.453v-.216a4.121,4.121,0,0,1,.39-1.825A3.045,3.045,0,0,1,9.39,49.459,2.745,2.745,0,0,1,10.91,49a2.572,2.572,0,0,1,2.082.882,3.82,3.82,0,0,1,.743,2.526V52.9H9.082a2.441,2.441,0,0,0,.594,1.641,1.866,1.866,0,0,0,1.444.625,2.045,2.045,0,0,0,1.054-.254,2.648,2.648,0,0,0,.755-.673l.717.559A2.884,2.884,0,0,1,11.056,56.127ZM10.91,49.97a1.566,1.566,0,0,0-1.193.517,2.515,2.515,0,0,0-.6,1.45h3.44v-.089a2.237,2.237,0,0,0-.482-1.387A1.475,1.475,0,0,0,10.91,49.97Zm6.743,5.2a1.692,1.692,0,0,0,1.1-.381,1.34,1.34,0,0,0,.521-.952h1.111a2.13,2.13,0,0,1-.406,1.124,2.676,2.676,0,0,1-1,.851,2.885,2.885,0,0,1-1.323.317,2.829,2.829,0,0,1-2.231-.936,3.729,3.729,0,0,1-.828-2.561v-.2a4.135,4.135,0,0,1,.368-1.784,2.8,2.8,0,0,1,1.057-1.212A3,3,0,0,1,17.647,49a2.755,2.755,0,0,1,1.92.692,2.473,2.473,0,0,1,.816,1.8H19.272a1.618,1.618,0,0,0-.5-1.095,1.57,1.57,0,0,0-1.12-.428,1.644,1.644,0,0,0-1.387.644,3.026,3.026,0,0,0-.492,1.863V52.7a2.965,2.965,0,0,0,.489,1.828A1.651,1.651,0,0,0,17.653,55.168Zm6.7.958a3,3,0,0,1-2.272-.917,3.4,3.4,0,0,1-.876-2.453v-.216a4.121,4.121,0,0,1,.39-1.825,3.045,3.045,0,0,1,1.092-1.257A2.745,2.745,0,0,1,24.212,49a2.572,2.572,0,0,1,2.082.882,3.82,3.82,0,0,1,.743,2.526V52.9H22.384a2.441,2.441,0,0,0,.594,1.641,1.866,1.866,0,0,0,1.444.625,2.045,2.045,0,0,0,1.054-.254,2.648,2.648,0,0,0,.755-.673l.717.559A2.884,2.884,0,0,1,24.358,56.127Zm-.146-6.157a1.566,1.566,0,0,0-1.193.517,2.515,2.515,0,0,0-.6,1.45h3.44v-.089a2.237,2.237,0,0,0-.482-1.387A1.475,1.475,0,0,0,24.212,49.97ZM32.2,54.178a.864.864,0,0,0-.359-.74,3.452,3.452,0,0,0-1.25-.454,5.912,5.912,0,0,1-1.416-.457,2.014,2.014,0,0,1-.774-.635,1.518,1.518,0,0,1-.251-.876,1.782,1.782,0,0,1,.714-1.428A2.789,2.789,0,0,1,30.689,49a2.87,2.87,0,0,1,1.895.6,1.915,1.915,0,0,1,.727,1.542H32.13a1.06,1.06,0,0,0-.409-.832,1.534,1.534,0,0,0-1.031-.349,1.605,1.605,0,0,0-1,.279.879.879,0,0,0-.362.73.712.712,0,0,0,.336.641,4.139,4.139,0,0,0,1.216.413,6.334,6.334,0,0,1,1.425.47,2.079,2.079,0,0,1,.809.657,1.615,1.615,0,0,1,.263.936,1.758,1.758,0,0,1-.736,1.476,3.089,3.089,0,0,1-1.911.555,3.459,3.459,0,0,1-1.46-.292,2.374,2.374,0,0,1-.993-.816,1.966,1.966,0,0,1-.359-1.133h1.174a1.216,1.216,0,0,0,.473.936,1.835,1.835,0,0,0,1.165.346,1.894,1.894,0,0,0,1.07-.27A.829.829,0,0,0,32.2,54.178ZM35.984,56H34.81V49.132h1.174Zm-1.27-8.69a.7.7,0,0,1,.175-.482.655.655,0,0,1,.517-.2.666.666,0,0,1,.521.2.694.694,0,0,1,.178.482.671.671,0,0,1-.178.476.678.678,0,0,1-.521.19.667.667,0,0,1-.517-.19A.678.678,0,0,1,34.715,47.31Zm2.668,5.2a4.023,4.023,0,0,1,.749-2.542A2.548,2.548,0,0,1,42,49.83V46.25h1.174V56H42.1l-.057-.736a2.391,2.391,0,0,1-1.961.863,2.346,2.346,0,0,1-1.946-.978,4.069,4.069,0,0,1-.752-2.552Zm1.174.133a3.046,3.046,0,0,0,.482,1.828,1.56,1.56,0,0,0,1.333.66,1.713,1.713,0,0,0,1.631-1V50.973A1.726,1.726,0,0,0,40.385,50a1.567,1.567,0,0,0-1.346.667A3.354,3.354,0,0,0,38.557,52.642ZM49.045,56a2.467,2.467,0,0,1-.165-.724,2.62,2.62,0,0,1-1.955.851,2.424,2.424,0,0,1-1.666-.574,1.859,1.859,0,0,1-.651-1.457,1.942,1.942,0,0,1,.816-1.666,3.846,3.846,0,0,1,2.295-.594h1.143V51.3a1.319,1.319,0,0,0-.368-.981,1.48,1.48,0,0,0-1.085-.365,1.712,1.712,0,0,0-1.054.317.935.935,0,0,0-.425.768H44.748a1.621,1.621,0,0,1,.365-.993,2.491,2.491,0,0,1,.99-.759A3.331,3.331,0,0,1,47.477,49a2.715,2.715,0,0,1,1.86.594,2.141,2.141,0,0,1,.7,1.635v3.161a3.865,3.865,0,0,0,.241,1.5V56ZM47.1,55.1a2.064,2.064,0,0,0,1.047-.286,1.728,1.728,0,0,0,.717-.743V52.667h-.92q-2.158,0-2.158,1.263a1.069,1.069,0,0,0,.368.863A1.415,1.415,0,0,0,47.1,55.1Zm4.3-2.6a4.023,4.023,0,0,1,.749-2.542,2.548,2.548,0,0,1,3.872-.136V46.25h1.174V56H56.112l-.057-.736a2.391,2.391,0,0,1-1.961.863,2.346,2.346,0,0,1-1.946-.978A4.069,4.069,0,0,1,51.4,52.6Zm1.174.133a3.046,3.046,0,0,0,.482,1.828,1.56,1.56,0,0,0,1.333.66,1.713,1.713,0,0,0,1.631-1V50.973A1.726,1.726,0,0,0,54.4,50a1.567,1.567,0,0,0-1.346.667A3.354,3.354,0,0,0,52.57,52.642Zm6.21,5.2-.667-.457a3.063,3.063,0,0,0,.622-1.714V54.61h1.149v.92a2.891,2.891,0,0,1-.314,1.282A3,3,0,0,1,58.78,57.841ZM68.438,56a2.467,2.467,0,0,1-.165-.724,2.62,2.62,0,0,1-1.955.851,2.424,2.424,0,0,1-1.666-.574A1.859,1.859,0,0,1,64,54.1a1.942,1.942,0,0,1,.816-1.666,3.846,3.846,0,0,1,2.295-.594h1.143V51.3a1.319,1.319,0,0,0-.368-.981,1.48,1.48,0,0,0-1.085-.365,1.712,1.712,0,0,0-1.054.317.935.935,0,0,0-.425.768H64.141a1.621,1.621,0,0,1,.365-.993,2.491,2.491,0,0,1,.99-.759A3.331,3.331,0,0,1,66.87,49a2.715,2.715,0,0,1,1.86.594,2.141,2.141,0,0,1,.7,1.635v3.161a3.865,3.865,0,0,0,.241,1.5V56Zm-1.949-.9a2.064,2.064,0,0,0,1.047-.286,1.728,1.728,0,0,0,.717-.743V52.667h-.92q-2.158,0-2.158,1.263a1.069,1.069,0,0,0,.368.863A1.415,1.415,0,0,0,66.489,55.1Zm7.34.063a1.691,1.691,0,0,0,1.1-.381,1.34,1.34,0,0,0,.521-.952h1.111a2.13,2.13,0,0,1-.406,1.124,2.676,2.676,0,0,1-1,.851,2.885,2.885,0,0,1-1.323.317,2.829,2.829,0,0,1-2.231-.936,3.729,3.729,0,0,1-.828-2.561v-.2a4.135,4.135,0,0,1,.368-1.784,2.8,2.8,0,0,1,1.057-1.212A3,3,0,0,1,73.823,49a2.755,2.755,0,0,1,1.92.692,2.473,2.473,0,0,1,.816,1.8H75.448a1.618,1.618,0,0,0-.5-1.095,1.57,1.57,0,0,0-1.12-.428,1.644,1.644,0,0,0-1.387.644,3.026,3.026,0,0,0-.492,1.863V52.7a2.966,2.966,0,0,0,.489,1.828A1.651,1.651,0,0,0,73.829,55.168Zm6.61,0a1.691,1.691,0,0,0,1.1-.381,1.34,1.34,0,0,0,.521-.952h1.111a2.13,2.13,0,0,1-.406,1.124,2.676,2.676,0,0,1-1,.851,2.885,2.885,0,0,1-1.323.317,2.829,2.829,0,0,1-2.231-.936,3.729,3.729,0,0,1-.828-2.561v-.2a4.135,4.135,0,0,1,.368-1.784A2.8,2.8,0,0,1,78.8,49.437,3,3,0,0,1,80.432,49a2.755,2.755,0,0,1,1.92.692,2.473,2.473,0,0,1,.816,1.8H82.057a1.618,1.618,0,0,0-.5-1.095,1.57,1.57,0,0,0-1.12-.428,1.644,1.644,0,0,0-1.387.644,3.026,3.026,0,0,0-.492,1.863V52.7a2.966,2.966,0,0,0,.489,1.828A1.651,1.651,0,0,0,80.439,55.168Zm6.7.958a3,3,0,0,1-2.272-.917A3.4,3.4,0,0,1,84,52.756v-.216a4.121,4.121,0,0,1,.39-1.825,3.045,3.045,0,0,1,1.092-1.257A2.745,2.745,0,0,1,87,49a2.572,2.572,0,0,1,2.082.882,3.82,3.82,0,0,1,.743,2.526V52.9H85.169a2.441,2.441,0,0,0,.594,1.641,1.866,1.866,0,0,0,1.444.625,2.045,2.045,0,0,0,1.054-.254,2.648,2.648,0,0,0,.755-.673l.717.559A2.884,2.884,0,0,1,87.144,56.127ZM87,49.97a1.566,1.566,0,0,0-1.193.517,2.515,2.515,0,0,0-.6,1.45h3.44v-.089a2.237,2.237,0,0,0-.482-1.387A1.475,1.475,0,0,0,87,49.97Zm7.987,4.208a.864.864,0,0,0-.359-.74,3.452,3.452,0,0,0-1.25-.454,5.912,5.912,0,0,1-1.416-.457,2.014,2.014,0,0,1-.774-.635,1.518,1.518,0,0,1-.251-.876,1.782,1.782,0,0,1,.714-1.428A2.789,2.789,0,0,1,93.474,49a2.87,2.87,0,0,1,1.895.6A1.915,1.915,0,0,1,96.1,51.15H94.915a1.06,1.06,0,0,0-.409-.832,1.534,1.534,0,0,0-1.031-.349,1.605,1.605,0,0,0-1,.279.879.879,0,0,0-.362.73.712.712,0,0,0,.336.641,4.139,4.139,0,0,0,1.216.413,6.334,6.334,0,0,1,1.425.47,2.079,2.079,0,0,1,.809.657,1.615,1.615,0,0,1,.263.936,1.758,1.758,0,0,1-.736,1.476,3.089,3.089,0,0,1-1.911.555,3.459,3.459,0,0,1-1.46-.292,2.374,2.374,0,0,1-.993-.816,1.966,1.966,0,0,1-.359-1.133h1.174a1.216,1.216,0,0,0,.473.936,1.835,1.835,0,0,0,1.165.346,1.894,1.894,0,0,0,1.07-.27A.829.829,0,0,0,94.985,54.178Zm2.2-1.676a4.057,4.057,0,0,1,.4-1.815,2.96,2.96,0,0,1,1.1-1.244A3.007,3.007,0,0,1,100.3,49a2.9,2.9,0,0,1,2.269.971,3.736,3.736,0,0,1,.866,2.583v.083a4.092,4.092,0,0,1-.384,1.8,2.916,2.916,0,0,1-1.1,1.241,3.041,3.041,0,0,1-1.641.444,2.889,2.889,0,0,1-2.263-.971,3.718,3.718,0,0,1-.866-2.571Zm1.181.14a2.938,2.938,0,0,0,.53,1.834,1.8,1.8,0,0,0,2.841-.01,3.213,3.213,0,0,0,.527-1.965,2.933,2.933,0,0,0-.536-1.831,1.705,1.705,0,0,0-1.425-.7,1.686,1.686,0,0,0-1.4.692A3.189,3.189,0,0,0,98.363,52.642Zm6.311,5.2-.667-.457a3.063,3.063,0,0,0,.622-1.714V54.61h1.149v.92a2.891,2.891,0,0,1-.314,1.282A3,3,0,0,1,104.675,57.841Zm-80.422,8.8a4.113,4.113,0,0,1-.717,2.526,2.3,2.3,0,0,1-1.942.958,2.519,2.519,0,0,1-1.968-.793v3.307H18.451V63.132h1.073l.057.762A2.419,2.419,0,0,1,21.574,63a2.342,2.342,0,0,1,1.958.933,4.157,4.157,0,0,1,.72,2.6Zm-1.174-.133a3.035,3.035,0,0,0-.5-1.834A1.6,1.6,0,0,0,21.225,64a1.726,1.726,0,0,0-1.6.946v3.282a1.73,1.73,0,0,0,1.612.939,1.587,1.587,0,0,0,1.343-.67A3.312,3.312,0,0,0,23.078,66.509ZM28.4,70.127a3,3,0,0,1-2.272-.917,3.4,3.4,0,0,1-.876-2.453v-.216a4.121,4.121,0,0,1,.39-1.825,3.045,3.045,0,0,1,1.092-1.257A2.745,2.745,0,0,1,28.254,63a2.572,2.572,0,0,1,2.082.882,3.82,3.82,0,0,1,.743,2.526V66.9H26.425a2.441,2.441,0,0,0,.594,1.641,1.866,1.866,0,0,0,1.444.625,2.045,2.045,0,0,0,1.054-.254,2.648,2.648,0,0,0,.755-.673l.717.559A2.884,2.884,0,0,1,28.4,70.127Zm-.146-6.157a1.566,1.566,0,0,0-1.193.517,2.515,2.515,0,0,0-.6,1.45H29.9v-.089a2.237,2.237,0,0,0-.482-1.387A1.475,1.475,0,0,0,28.254,63.97Zm7.308.216a3.519,3.519,0,0,0-.578-.044,1.547,1.547,0,0,0-1.568.984V70H32.242V63.132h1.143l.019.793A1.829,1.829,0,0,1,35.041,63a1.2,1.2,0,0,1,.521.089Zm2.795-2.717v1.663h1.282v.908H38.356V68.3a.953.953,0,0,0,.171.62.721.721,0,0,0,.584.207,2.843,2.843,0,0,0,.559-.076V70a3.424,3.424,0,0,1-.9.126,1.462,1.462,0,0,1-1.187-.476,2.045,2.045,0,0,1-.4-1.352V64.04h-1.25v-.908h1.25V61.469ZM42.09,70H40.916V63.132H42.09Zm-1.27-8.69A.7.7,0,0,1,41,60.828a.655.655,0,0,1,.517-.2.666.666,0,0,1,.521.2.694.694,0,0,1,.178.482.671.671,0,0,1-.178.476.678.678,0,0,1-.521.19.667.667,0,0,1-.517-.19A.678.678,0,0,1,40.821,61.31Zm4.064,1.822.038.863A2.5,2.5,0,0,1,46.98,63q2.177,0,2.2,2.457V70H48V65.455a1.581,1.581,0,0,0-.34-1.1A1.361,1.361,0,0,0,46.624,64a1.7,1.7,0,0,0-1,.3,2.069,2.069,0,0,0-.673.8V70H43.774V63.132Zm8.717,7a3,3,0,0,1-2.272-.917,3.4,3.4,0,0,1-.876-2.453v-.216a4.121,4.121,0,0,1,.39-1.825,3.045,3.045,0,0,1,1.092-1.257A2.745,2.745,0,0,1,53.456,63a2.572,2.572,0,0,1,2.082.882,3.82,3.82,0,0,1,.743,2.526V66.9H51.628a2.441,2.441,0,0,0,.594,1.641,1.866,1.866,0,0,0,1.444.625,2.045,2.045,0,0,0,1.054-.254,2.648,2.648,0,0,0,.755-.673l.717.559A2.884,2.884,0,0,1,53.6,70.127Zm-.146-6.157a1.566,1.566,0,0,0-1.193.517,2.515,2.515,0,0,0-.6,1.45h3.44v-.089a2.237,2.237,0,0,0-.482-1.387A1.475,1.475,0,0,0,53.456,63.97Zm5.1-.838.038.863A2.5,2.5,0,0,1,60.65,63q2.177,0,2.2,2.457V70H61.672V65.455a1.581,1.581,0,0,0-.34-1.1A1.361,1.361,0,0,0,60.294,64a1.7,1.7,0,0,0-1,.3,2.069,2.069,0,0,0-.673.8V70H57.444V63.132Zm8.622,6.037a1.691,1.691,0,0,0,1.1-.381,1.34,1.34,0,0,0,.521-.952h1.111a2.13,2.13,0,0,1-.406,1.124,2.676,2.676,0,0,1-1,.851,2.885,2.885,0,0,1-1.323.317,2.829,2.829,0,0,1-2.231-.936,3.729,3.729,0,0,1-.828-2.561v-.2a4.135,4.135,0,0,1,.368-1.784,2.8,2.8,0,0,1,1.057-1.212A3,3,0,0,1,67.171,63a2.755,2.755,0,0,1,1.92.692,2.473,2.473,0,0,1,.816,1.8H68.8a1.618,1.618,0,0,0-.5-1.095,1.57,1.57,0,0,0-1.12-.428,1.644,1.644,0,0,0-1.387.644,3.026,3.026,0,0,0-.492,1.863V66.7a2.966,2.966,0,0,0,.489,1.828A1.651,1.651,0,0,0,67.177,69.168ZM72.308,70H71.133V63.132h1.174Zm-1.27-8.69a.7.7,0,0,1,.175-.482.655.655,0,0,1,.517-.2.666.666,0,0,1,.521.2.694.694,0,0,1,.178.482.671.671,0,0,1-.178.476.678.678,0,0,1-.521.19.667.667,0,0,1-.517-.19A.678.678,0,0,1,71.038,61.31ZM78.232,70a2.467,2.467,0,0,1-.165-.724,2.62,2.62,0,0,1-1.955.851,2.424,2.424,0,0,1-1.666-.574,1.859,1.859,0,0,1-.651-1.457,1.942,1.942,0,0,1,.816-1.666,3.846,3.846,0,0,1,2.295-.594h1.143V65.3a1.319,1.319,0,0,0-.368-.981,1.48,1.48,0,0,0-1.085-.365,1.712,1.712,0,0,0-1.054.317.935.935,0,0,0-.425.768H73.935a1.621,1.621,0,0,1,.365-.993,2.491,2.491,0,0,1,.99-.759A3.331,3.331,0,0,1,76.664,63a2.715,2.715,0,0,1,1.86.594,2.141,2.141,0,0,1,.7,1.635v3.161a3.865,3.865,0,0,0,.241,1.5V70Zm-1.949-.9a2.064,2.064,0,0,0,1.047-.286,1.728,1.728,0,0,0,.717-.743V66.667h-.92q-2.158,0-2.158,1.263a1.069,1.069,0,0,0,.368.863A1.415,1.415,0,0,0,76.283,69.1Zm9.855-.825,1.6-5.148h1.257L86.234,71.06q-.641,1.714-2.038,1.714l-.222-.019-.438-.083V71.72l.317.025a1.563,1.563,0,0,0,.93-.241,1.746,1.746,0,0,0,.549-.882l.26-.7-2.45-6.792h1.282Zm-55.782,13.9a.865.865,0,0,0-.359-.74,3.452,3.452,0,0,0-1.25-.454,5.912,5.912,0,0,1-1.416-.457,2.014,2.014,0,0,1-.774-.635,1.518,1.518,0,0,1-.251-.876,1.782,1.782,0,0,1,.714-1.428A2.789,2.789,0,0,1,28.846,77a2.87,2.87,0,0,1,1.895.6,1.915,1.915,0,0,1,.727,1.542H30.287a1.06,1.06,0,0,0-.409-.832,1.534,1.534,0,0,0-1.031-.349,1.606,1.606,0,0,0-1,.279.879.879,0,0,0-.362.73.712.712,0,0,0,.336.641,4.139,4.139,0,0,0,1.216.413,6.334,6.334,0,0,1,1.425.47,2.079,2.079,0,0,1,.809.657,1.615,1.615,0,0,1,.263.936,1.758,1.758,0,0,1-.736,1.476,3.089,3.089,0,0,1-1.911.555,3.459,3.459,0,0,1-1.46-.292,2.375,2.375,0,0,1-.993-.816,1.966,1.966,0,0,1-.359-1.133h1.174a1.216,1.216,0,0,0,.473.936,1.835,1.835,0,0,0,1.165.346,1.894,1.894,0,0,0,1.07-.27A.829.829,0,0,0,30.356,82.178Zm5.359,1.949a3,3,0,0,1-2.272-.917,3.4,3.4,0,0,1-.876-2.453v-.216a4.121,4.121,0,0,1,.39-1.825,3.045,3.045,0,0,1,1.092-1.257A2.745,2.745,0,0,1,35.57,77a2.572,2.572,0,0,1,2.082.882,3.82,3.82,0,0,1,.743,2.526V80.9H33.741a2.441,2.441,0,0,0,.594,1.641,1.866,1.866,0,0,0,1.444.625,2.045,2.045,0,0,0,1.054-.254,2.648,2.648,0,0,0,.755-.673l.717.559A2.884,2.884,0,0,1,35.716,84.127ZM35.57,77.97a1.566,1.566,0,0,0-1.193.517,2.514,2.514,0,0,0-.6,1.45h3.44v-.089a2.237,2.237,0,0,0-.482-1.387A1.475,1.475,0,0,0,35.57,77.97Zm3.709,2.539a4.037,4.037,0,0,1,.743-2.555,2.56,2.56,0,0,1,3.929-.06l.057-.762H45.08v6.7a2.794,2.794,0,0,1-.79,2.1,2.916,2.916,0,0,1-2.123.768,3.532,3.532,0,0,1-1.454-.317,2.5,2.5,0,0,1-1.085-.87l.609-.7a2.3,2.3,0,0,0,1.847.933,1.8,1.8,0,0,0,1.336-.482A1.844,1.844,0,0,0,43.9,83.9v-.59a2.414,2.414,0,0,1-1.923.813,2.346,2.346,0,0,1-1.952-.971A4.244,4.244,0,0,1,39.278,80.509Zm1.181.133a3.08,3.08,0,0,0,.476,1.825,1.547,1.547,0,0,0,1.333.663A1.72,1.72,0,0,0,43.9,82.121V78.985A1.74,1.74,0,0,0,42.281,78a1.561,1.561,0,0,0-1.339.667A3.354,3.354,0,0,0,40.459,80.642ZM50.9,83.321a2.494,2.494,0,0,1-2.012.806,2.135,2.135,0,0,1-1.673-.638,2.761,2.761,0,0,1-.581-1.888V77.132h1.174v4.437q0,1.562,1.27,1.562a1.758,1.758,0,0,0,1.79-1v-5h1.174V84H50.922Zm6.051-5.135a3.519,3.519,0,0,0-.578-.044,1.547,1.547,0,0,0-1.568.984V84H53.628V77.132H54.77l.019.793A1.829,1.829,0,0,1,56.427,77a1.2,1.2,0,0,1,.521.089ZM59.107,84H57.933V77.132h1.174Zm-1.27-8.69a.7.7,0,0,1,.175-.482.655.655,0,0,1,.517-.2.666.666,0,0,1,.521.2.694.694,0,0,1,.178.482.671.671,0,0,1-.178.476.678.678,0,0,1-.521.19.667.667,0,0,1-.517-.19A.678.678,0,0,1,57.838,75.31Zm2.668,5.2a4.023,4.023,0,0,1,.749-2.542,2.548,2.548,0,0,1,3.872-.136V74.25H66.3V84H65.222l-.057-.736a2.391,2.391,0,0,1-1.961.863,2.346,2.346,0,0,1-1.946-.978,4.069,4.069,0,0,1-.752-2.552Zm1.174.133a3.046,3.046,0,0,0,.482,1.828,1.56,1.56,0,0,0,1.333.66,1.713,1.713,0,0,0,1.631-1V78.973A1.726,1.726,0,0,0,63.508,78a1.567,1.567,0,0,0-1.346.667A3.354,3.354,0,0,0,61.68,80.642ZM72.168,84A2.467,2.467,0,0,1,72,83.276a2.62,2.62,0,0,1-1.955.851,2.424,2.424,0,0,1-1.666-.574,1.859,1.859,0,0,1-.651-1.457,1.942,1.942,0,0,1,.816-1.666,3.846,3.846,0,0,1,2.295-.594h1.143V79.3a1.319,1.319,0,0,0-.368-.981,1.48,1.48,0,0,0-1.085-.365,1.712,1.712,0,0,0-1.054.317.935.935,0,0,0-.425.768H67.871a1.621,1.621,0,0,1,.365-.993,2.491,2.491,0,0,1,.99-.759A3.331,3.331,0,0,1,70.6,77a2.715,2.715,0,0,1,1.86.594,2.141,2.141,0,0,1,.7,1.635v3.161a3.865,3.865,0,0,0,.241,1.5V84Zm-1.949-.9a2.064,2.064,0,0,0,1.047-.286,1.728,1.728,0,0,0,.717-.743V80.667h-.92q-2.158,0-2.158,1.263a1.069,1.069,0,0,0,.368.863A1.415,1.415,0,0,0,70.219,83.1Zm4.3-2.6a4.023,4.023,0,0,1,.749-2.542,2.548,2.548,0,0,1,3.872-.136V74.25h1.174V84H79.235l-.057-.736a2.391,2.391,0,0,1-1.961.863,2.346,2.346,0,0,1-1.946-.978,4.069,4.069,0,0,1-.752-2.552Zm1.174.133a3.046,3.046,0,0,0,.482,1.828,1.56,1.56,0,0,0,1.333.66,1.713,1.713,0,0,0,1.631-1V78.973A1.726,1.726,0,0,0,77.521,78a1.567,1.567,0,0,0-1.346.667A3.354,3.354,0,0,0,75.693,80.642ZM7.838,91.963A2.5,2.5,0,0,1,9.869,91q2.177,0,2.2,2.457V98H10.891V93.455a1.581,1.581,0,0,0-.34-1.1A1.361,1.361,0,0,0,9.514,92a1.7,1.7,0,0,0-1,.3,2.069,2.069,0,0,0-.673.8V98H6.664V88.25H7.838ZM17.869,98a2.467,2.467,0,0,1-.165-.724,2.62,2.62,0,0,1-1.955.851,2.424,2.424,0,0,1-1.666-.574,1.859,1.859,0,0,1-.651-1.457,1.942,1.942,0,0,1,.816-1.666,3.846,3.846,0,0,1,2.295-.594h1.143V93.3a1.319,1.319,0,0,0-.368-.981,1.48,1.48,0,0,0-1.085-.365,1.712,1.712,0,0,0-1.054.317.935.935,0,0,0-.425.768H13.572a1.621,1.621,0,0,1,.365-.993,2.491,2.491,0,0,1,.99-.759A3.331,3.331,0,0,1,16.3,91a2.715,2.715,0,0,1,1.86.594,2.141,2.141,0,0,1,.7,1.635v3.161a3.865,3.865,0,0,0,.241,1.5V98Zm-1.949-.9a2.064,2.064,0,0,0,1.047-.286,1.728,1.728,0,0,0,.717-.743V94.667h-.92q-2.158,0-2.158,1.263a1.069,1.069,0,0,0,.368.863A1.415,1.415,0,0,0,15.921,97.1Zm7.34.063a1.692,1.692,0,0,0,1.1-.381,1.34,1.34,0,0,0,.521-.952H25.99a2.13,2.13,0,0,1-.406,1.124,2.676,2.676,0,0,1-1,.851,2.885,2.885,0,0,1-1.323.317,2.829,2.829,0,0,1-2.231-.936,3.729,3.729,0,0,1-.828-2.561v-.2a4.135,4.135,0,0,1,.368-1.784,2.8,2.8,0,0,1,1.057-1.212A3,3,0,0,1,23.254,91a2.755,2.755,0,0,1,1.92.692,2.473,2.473,0,0,1,.816,1.8H24.879a1.618,1.618,0,0,0-.5-1.095,1.57,1.57,0,0,0-1.12-.428,1.644,1.644,0,0,0-1.387.644,3.026,3.026,0,0,0-.492,1.863V94.7a2.965,2.965,0,0,0,.489,1.828A1.651,1.651,0,0,0,23.26,97.168ZM28.391,98H27.217V91.132h1.174Zm-1.27-8.69a.7.7,0,0,1,.175-.482.655.655,0,0,1,.517-.2.666.666,0,0,1,.521.2.694.694,0,0,1,.178.482.671.671,0,0,1-.178.476.678.678,0,0,1-.521.19.667.667,0,0,1-.517-.19A.678.678,0,0,1,27.121,89.31Zm5.8,8.817a3,3,0,0,1-2.272-.917,3.4,3.4,0,0,1-.876-2.453v-.216a4.121,4.121,0,0,1,.39-1.825,3.045,3.045,0,0,1,1.092-1.257A2.745,2.745,0,0,1,32.779,91a2.572,2.572,0,0,1,2.082.882,3.82,3.82,0,0,1,.743,2.526V94.9H30.951a2.441,2.441,0,0,0,.594,1.641,1.866,1.866,0,0,0,1.444.625,2.045,2.045,0,0,0,1.054-.254,2.648,2.648,0,0,0,.755-.673l.717.559A2.884,2.884,0,0,1,32.925,98.127Zm-.146-6.157a1.566,1.566,0,0,0-1.193.517,2.515,2.515,0,0,0-.6,1.45h3.44v-.089a2.237,2.237,0,0,0-.482-1.387A1.475,1.475,0,0,0,32.779,91.97Zm5.1-.838.038.863A2.5,2.5,0,0,1,39.973,91q2.177,0,2.2,2.457V98H40.995V93.455a1.581,1.581,0,0,0-.34-1.1A1.361,1.361,0,0,0,39.617,92a1.7,1.7,0,0,0-1,.3,2.069,2.069,0,0,0-.673.8V98H36.767V91.132Zm5.581,3.377a4.023,4.023,0,0,1,.749-2.542,2.548,2.548,0,0,1,3.872-.136V88.25h1.174V98H48.176l-.057-.736a2.391,2.391,0,0,1-1.961.863,2.346,2.346,0,0,1-1.946-.978,4.069,4.069,0,0,1-.752-2.552Zm1.174.133a3.046,3.046,0,0,0,.482,1.828,1.56,1.56,0,0,0,1.333.66,1.713,1.713,0,0,0,1.631-1V92.973A1.726,1.726,0,0,0,46.462,92a1.567,1.567,0,0,0-1.346.667A3.354,3.354,0,0,0,44.634,94.642Zm5.937-.14a4.057,4.057,0,0,1,.4-1.815,2.96,2.96,0,0,1,1.1-1.244A3.007,3.007,0,0,1,53.687,91a2.9,2.9,0,0,1,2.269.971,3.736,3.736,0,0,1,.866,2.583v.083a4.092,4.092,0,0,1-.384,1.8,2.916,2.916,0,0,1-1.1,1.241,3.041,3.041,0,0,1-1.641.444,2.889,2.889,0,0,1-2.263-.971,3.718,3.718,0,0,1-.866-2.571Zm1.181.14a2.938,2.938,0,0,0,.53,1.834,1.8,1.8,0,0,0,2.841-.01,3.213,3.213,0,0,0,.527-1.965,2.933,2.933,0,0,0-.536-1.831,1.705,1.705,0,0,0-1.425-.7,1.686,1.686,0,0,0-1.4.692A3.189,3.189,0,0,0,51.751,94.642Zm13.613,2.679a2.494,2.494,0,0,1-2.012.806,2.135,2.135,0,0,1-1.673-.638A2.761,2.761,0,0,1,61.1,95.6V91.132h1.174v4.437q0,1.562,1.27,1.562a1.758,1.758,0,0,0,1.79-1v-5h1.174V98H65.389Zm6.73-1.143a.864.864,0,0,0-.359-.74,3.452,3.452,0,0,0-1.25-.454,5.912,5.912,0,0,1-1.416-.457,2.014,2.014,0,0,1-.774-.635,1.518,1.518,0,0,1-.251-.876,1.782,1.782,0,0,1,.714-1.428A2.789,2.789,0,0,1,70.584,91a2.87,2.87,0,0,1,1.895.6,1.915,1.915,0,0,1,.727,1.542H72.024a1.06,1.06,0,0,0-.409-.832,1.534,1.534,0,0,0-1.031-.349,1.606,1.606,0,0,0-1,.279.879.879,0,0,0-.362.73.712.712,0,0,0,.336.641,4.139,4.139,0,0,0,1.216.413,6.334,6.334,0,0,1,1.425.47,2.079,2.079,0,0,1,.809.657,1.615,1.615,0,0,1,.263.936,1.758,1.758,0,0,1-.736,1.476,3.089,3.089,0,0,1-1.911.555,3.459,3.459,0,0,1-1.46-.292,2.375,2.375,0,0,1-.993-.816,1.966,1.966,0,0,1-.359-1.133h1.174a1.216,1.216,0,0,0,.473.936,1.835,1.835,0,0,0,1.165.346,1.894,1.894,0,0,0,1.07-.27A.829.829,0,0,0,72.094,96.178Zm2.2-1.676a4.057,4.057,0,0,1,.4-1.815,2.96,2.96,0,0,1,1.1-1.244A3.007,3.007,0,0,1,77.409,91a2.9,2.9,0,0,1,2.269.971,3.736,3.736,0,0,1,.866,2.583v.083a4.092,4.092,0,0,1-.384,1.8,2.916,2.916,0,0,1-1.1,1.241,3.041,3.041,0,0,1-1.641.444,2.889,2.889,0,0,1-2.263-.971,3.718,3.718,0,0,1-.866-2.571Zm1.181.14A2.938,2.938,0,0,0,76,96.477a1.8,1.8,0,0,0,2.841-.01A3.213,3.213,0,0,0,79.37,94.5a2.933,2.933,0,0,0-.536-1.831,1.705,1.705,0,0,0-1.425-.7,1.686,1.686,0,0,0-1.4.692A3.189,3.189,0,0,0,75.473,94.642Zm9.087-.133a4.023,4.023,0,0,1,.749-2.542,2.548,2.548,0,0,1,3.872-.136V88.25h1.174V98H89.276l-.057-.736a2.391,2.391,0,0,1-1.961.863,2.346,2.346,0,0,1-1.946-.978A4.069,4.069,0,0,1,84.56,94.6Zm1.174.133a3.046,3.046,0,0,0,.482,1.828,1.56,1.56,0,0,0,1.333.66,1.713,1.713,0,0,0,1.631-1V92.973A1.726,1.726,0,0,0,87.562,92a1.567,1.567,0,0,0-1.346.667A3.354,3.354,0,0,0,85.734,94.642Zm9.1,3.485a3,3,0,0,1-2.272-.917,3.4,3.4,0,0,1-.876-2.453v-.216a4.121,4.121,0,0,1,.39-1.825,3.045,3.045,0,0,1,1.092-1.257A2.745,2.745,0,0,1,94.686,91a2.572,2.572,0,0,1,2.082.882,3.82,3.82,0,0,1,.743,2.526V94.9H92.858a2.441,2.441,0,0,0,.594,1.641,1.866,1.866,0,0,0,1.444.625,2.045,2.045,0,0,0,1.054-.254,2.648,2.648,0,0,0,.755-.673l.717.559A2.884,2.884,0,0,1,94.832,98.127Zm-.146-6.157a1.566,1.566,0,0,0-1.193.517,2.514,2.514,0,0,0-.6,1.45h3.44v-.089a2.237,2.237,0,0,0-.482-1.387A1.475,1.475,0,0,0,94.686,91.97ZM99.95,98H98.776V88.25H99.95ZM34.306,112v-5.96H33.221v-.908h1.085v-.584a2.386,2.386,0,0,1,.657-1.79,2.548,2.548,0,0,1,1.857-.641,5.591,5.591,0,0,1,1.8.387l-.2.99a4.069,4.069,0,0,0-1.511-.317,1.478,1.478,0,0,0-1.089.34,1.4,1.4,0,0,0-.333,1.019v.6h1.4v.908h-1.4V112Zm4.894,0H38.02v-6.868H39.2Zm5.035-5.814a3.519,3.519,0,0,0-.578-.044,1.547,1.547,0,0,0-1.568.984V112H40.916v-6.868h1.143l.019.793a1.829,1.829,0,0,1,1.638-.92,1.2,1.2,0,0,1,.521.089Zm3.734,5.941a3,3,0,0,1-2.272-.917,3.4,3.4,0,0,1-.876-2.453v-.216a4.121,4.121,0,0,1,.39-1.825,3.045,3.045,0,0,1,1.092-1.257,2.745,2.745,0,0,1,1.52-.454,2.572,2.572,0,0,1,2.082.882,3.82,3.82,0,0,1,.743,2.526v.489H46a2.441,2.441,0,0,0,.594,1.641,1.866,1.866,0,0,0,1.444.625,2.045,2.045,0,0,0,1.054-.254,2.648,2.648,0,0,0,.755-.673l.717.559A2.884,2.884,0,0,1,47.97,112.127Zm-.146-6.157a1.566,1.566,0,0,0-1.193.517,2.515,2.515,0,0,0-.6,1.45h3.44v-.089a2.237,2.237,0,0,0-.482-1.387A1.475,1.475,0,0,0,47.824,105.97Zm10.069,4.412,1.32-5.25h1.174l-2,6.868h-.952l-1.669-5.205L54.142,112H53.19L51.2,105.132h1.168l1.352,5.142,1.6-5.142h.946ZM65.626,112a2.467,2.467,0,0,1-.165-.724,2.62,2.62,0,0,1-1.955.851,2.424,2.424,0,0,1-1.666-.574,1.859,1.859,0,0,1-.651-1.457,1.942,1.942,0,0,1,.816-1.666,3.846,3.846,0,0,1,2.295-.594h1.143v-.54a1.319,1.319,0,0,0-.368-.981,1.48,1.48,0,0,0-1.085-.365,1.712,1.712,0,0,0-1.054.317.935.935,0,0,0-.425.768H61.329a1.621,1.621,0,0,1,.365-.993,2.491,2.491,0,0,1,.99-.759A3.331,3.331,0,0,1,64.059,105a2.715,2.715,0,0,1,1.86.594,2.141,2.141,0,0,1,.7,1.635v3.161a3.865,3.865,0,0,0,.241,1.5v.1Zm-1.949-.9a2.064,2.064,0,0,0,1.047-.286,1.728,1.728,0,0,0,.717-.743v-1.409h-.92q-2.158,0-2.158,1.263a1.069,1.069,0,0,0,.368.863A1.415,1.415,0,0,0,63.678,111.1Zm5.861.9H68.364v-9.75h1.174Zm2.96,0H71.324v-9.75H72.5Zm1.709-.616a.735.735,0,0,1,.181-.508.689.689,0,0,1,.543-.2.71.71,0,0,1,.549.2.721.721,0,0,1,.187.508.681.681,0,0,1-.187.489.723.723,0,0,1-.549.2.653.653,0,0,1-.724-.686Z" transform="translate(440.689 22417.539)" fill="#12263f"/>
  </g>
</svg>
