<svg xmlns="http://www.w3.org/2000/svg" width="199.155" height="275.986" viewBox="0 0 199.155 275.986">
  <g id="Grupo_64432" data-name="Grupo 64432" transform="translate(-806.824 -22299.063)">
    <g id="Grupo_64143" data-name="Grupo 64143" transform="translate(642.555 21660.803)">
      <g id="Grupo_64140" data-name="Grupo 64140" transform="translate(164.269 827.527)">
        <path id="Trazado_133401" data-name="Trazado 133401" d="M252.575,921.292H164.269V840.915a6.341,6.341,0,1,1,12.681,0v67.7h75.624a6.341,6.341,0,0,1,0,12.681Z" transform="translate(-164.269 -834.574)" fill="#37a3a5"/>
      </g>
      <path id="Trazado_133408" data-name="Trazado 133408" d="M334.777,658.021V640.053H170.848V907.894H334.777V711.459" transform="translate(-0.238 0)" fill="none" stroke="#12263f" stroke-linecap="round" stroke-miterlimit="10" stroke-width="3.588"/>
      <path id="Trazado_133409" data-name="Trazado 133409" d="M366.69,675.313l-8.711,43.251H254.412l8.711-43.251Z" transform="translate(-3.266 -12.277)" fill="#37a3a5"/>
      <g id="Grupo_64154" data-name="Grupo 64154" transform="translate(310.439 661.236)">
        <g id="Grupo_64153" data-name="Grupo 64153">
          <g id="Grupo_64152" data-name="Grupo 64152">
            <path id="Trazado_133710" data-name="Trazado 133710" d="M15.806-8.818q0,4.424-1.831,6.768A6.391,6.391,0,0,1,8.613.293a6.436,6.436,0,0,1-5.332-2.3A10.488,10.488,0,0,1,1.392-8.6v-3.926q0-4.468,1.853-6.782a6.439,6.439,0,0,1,5.339-2.314,6.445,6.445,0,0,1,5.332,2.292,10.456,10.456,0,0,1,1.89,6.584Zm-4.233-4.316A7.81,7.81,0,0,0,10.847-17a2.45,2.45,0,0,0-2.263-1.21,2.407,2.407,0,0,0-2.2,1.151,7.309,7.309,0,0,0-.754,3.6v5.191a8.2,8.2,0,0,0,.71,3.878A2.418,2.418,0,0,0,8.613-3.12a2.377,2.377,0,0,0,2.241-1.217,8,8,0,0,0,.718-3.724ZM31.187-8.027H33.6v3.413H31.187V0H26.953V-4.614H18.208l-.19-2.666,8.892-14.048h4.277Zm-8.95,0h4.717v-7.529l-.278.483Z" transform="translate(6 34)" fill="#12263f"/>
          </g>
        </g>
      </g>
      <g id="Grupo_64162" data-name="Grupo 64162" transform="translate(189.62 659.709)">
        <path id="Trazado_122984" data-name="Trazado 122984" d="M-534.255,252.91l2.44,2.285c3.321-1.723,6.34-1.174,8.187,1.468a5.807,5.807,0,0,1-.894,7.627,5.821,5.821,0,0,1-7.641.144,5.876,5.876,0,0,1-.788-8.163l-2.435-2.287c-4.17,2.817-8.293,2.817-12.465.014l-2.553,2.389a20.744,20.744,0,0,1,.906,2.676,5.716,5.716,0,0,1-2.911,6.013,5.834,5.834,0,0,1-6.578-.664,5.8,5.8,0,0,1-1.609-6.695,5.837,5.837,0,0,1,5.862-3.553,5.839,5.839,0,0,1,2.8,1c.122.082.4.125.48.052.833-.741,1.638-1.511,2.464-2.283a10.228,10.228,0,0,1-2.233-10.182c-1.061-.346-2.1-.7-3.146-1-.1-.031-.318.158-.421.289a5.746,5.746,0,0,1-4.8,2.391,5.823,5.823,0,0,1-5.589-4.537,5.8,5.8,0,0,1,2.97-6.427,5.529,5.529,0,0,1,6.286.57,5.58,5.58,0,0,1,2.092,5.918c-.014.061-.023.125-.033.191a.8.8,0,0,0,.01.106l3.257,1.064a10.267,10.267,0,0,1,8.173-5.41v-2.756a5.872,5.872,0,0,1-4.979-6.535,5.791,5.791,0,0,1,5.944-5.092,5.813,5.813,0,0,1,5.626,5.177,5.875,5.875,0,0,1-4.991,6.443v2.763a10.485,10.485,0,0,1,4.808,1.694,10.32,10.32,0,0,1,3.408,3.843l3.219-1.043c-.066-.6-.172-1.174-.179-1.746a5.831,5.831,0,0,1,5.252-5.853,5.85,5.85,0,0,1,6.29,4.787,5.816,5.816,0,0,1-3.429,6.373,5.77,5.77,0,0,1-6.914-1.814.525.525,0,0,0-.713-.221c-.958.337-1.927.64-2.909.963A10.223,10.223,0,0,1-534.255,252.91Zm1.177-6.956a8.584,8.584,0,0,0-8.639-8.524,8.587,8.587,0,0,0-8.462,8.653,8.589,8.589,0,0,0,8.662,8.451A8.594,8.594,0,0,0-533.079,245.954Zm-8.531-22.895a4.3,4.3,0,0,0-4.292,4.278,4.307,4.307,0,0,0,4.252,4.274,4.314,4.314,0,0,0,4.3-4.283A4.306,4.306,0,0,0-541.609,223.059Zm13.576,15.522a4.308,4.308,0,0,0,4.243,4.3,4.314,4.314,0,0,0,4.307-4.236,4.305,4.305,0,0,0-4.222-4.316A4.3,4.3,0,0,0-528.033,238.581Zm-27.192.035a4.3,4.3,0,0,0-4.245-4.292,4.309,4.309,0,0,0-4.3,4.236,4.312,4.312,0,0,0,4.224,4.316A4.3,4.3,0,0,0-555.225,238.616Zm0,17.078a4.315,4.315,0,0,0-4.28,4.212,4.306,4.306,0,0,0,4.247,4.339,4.318,4.318,0,0,0,4.3-4.236A4.3,4.3,0,0,0-555.22,255.694Zm26.792,8.552a4.3,4.3,0,0,0,4.281-4.3,4.309,4.309,0,0,0-4.29-4.25,4.311,4.311,0,0,0-4.259,4.283A4.31,4.31,0,0,0-528.429,264.245Z" transform="translate(565.333 -221.51)" fill="#12263f"/>
        <path id="Trazado_122985" data-name="Trazado 122985" d="M-548.066,230.382l1.068,1.094-6.514,6.516-3.768-3.784,1.049-.97,2.629,2.685Z" transform="translate(576.233 -209.503)" fill="#12263f"/>
        <path id="Trazado_122986" data-name="Trazado 122986" d="M-550.986,225.556a2.7,2.7,0,0,1-2.716,2.7,2.7,2.7,0,0,1-2.711-2.7,2.7,2.7,0,0,1,2.737-2.725A2.7,2.7,0,0,1-550.986,225.556Zm-2.739,1.155a1.206,1.206,0,0,0,1.191-1.155,1.2,1.2,0,0,0-1.167-1.179,1.2,1.2,0,0,0-1.165,1.13A1.208,1.208,0,0,0-553.726,226.712Z" transform="translate(577.405 -219.722)" fill="#12263f"/>
        <path id="Trazado_122987" data-name="Trazado 122987" d="M-546.109,227.619a2.7,2.7,0,0,1,2.716,2.7,2.7,2.7,0,0,1-2.687,2.727,2.706,2.706,0,0,1-2.739-2.676A2.7,2.7,0,0,1-546.109,227.619Zm1.167,2.706a1.2,1.2,0,0,0-1.184-1.16,1.2,1.2,0,0,0-1.148,1.148,1.2,1.2,0,0,0,1.158,1.186A1.208,1.208,0,0,0-544.942,230.325Z" transform="translate(587.68 -213.242)" fill="#12263f"/>
        <path id="Trazado_122988" data-name="Trazado 122988" d="M-561.257,227.619a2.7,2.7,0,0,1,2.676,2.739,2.7,2.7,0,0,1-2.774,2.687,2.706,2.706,0,0,1-2.65-2.763A2.7,2.7,0,0,1-561.257,227.619Zm-.035,1.546a1.207,1.207,0,0,0-1.167,1.179,1.2,1.2,0,0,0,1.188,1.155,1.2,1.2,0,0,0,1.144-1.153A1.2,1.2,0,0,0-561.293,229.165Z" transform="translate(567.13 -213.242)" fill="#12263f"/>
        <path id="Trazado_122989" data-name="Trazado 122989" d="M-556.764,239.439a2.7,2.7,0,0,1-2.725,2.687,2.7,2.7,0,0,1-2.7-2.763,2.7,2.7,0,0,1,2.751-2.664A2.7,2.7,0,0,1-556.764,239.439Zm-1.548-.033a1.2,1.2,0,0,0-1.184-1.16,1.2,1.2,0,0,0-1.146,1.148,1.2,1.2,0,0,0,1.158,1.186A1.2,1.2,0,0,0-558.313,239.406Z" transform="translate(569.586 -200.954)" fill="#12263f"/>
        <path id="Trazado_122990" data-name="Trazado 122990" d="M-548.1,242.127a2.7,2.7,0,0,1-2.7-2.713,2.7,2.7,0,0,1,2.7-2.713,2.7,2.7,0,0,1,2.728,2.687A2.7,2.7,0,0,1-548.1,242.127Zm1.177-2.692a1.2,1.2,0,0,0-1.155-1.188,1.206,1.206,0,0,0-1.174,1.172,1.2,1.2,0,0,0,1.134,1.163A1.2,1.2,0,0,0-546.923,239.434Z" transform="translate(585 -200.954)" fill="#12263f"/>
      </g>
    </g>
    <g id="Grupo_64149" data-name="Grupo 64149" transform="translate(842.967 22378.654)">
      <g id="Grupo_61846" data-name="Grupo 61846" transform="translate(3.816 1.397)">
        <g id="Grupo_61845" data-name="Grupo 61845" transform="translate(0 13.33)">
          <g id="Grupo_61844" data-name="Grupo 61844">
            <g id="Grupo_61843" data-name="Grupo 61843">
              <path id="Trazado_133712" data-name="Trazado 133712" d="M-52.009-1.992h-3.523L-56.147,0h-2.747l3.911-10.664h2.417L-48.625,0h-2.761Zm-2.908-1.985h2.292l-1.15-3.7Zm15.308-6.687v6.98a4.012,4.012,0,0,1-.505,2.054,3.274,3.274,0,0,1-1.45,1.322A5.109,5.109,0,0,1-43.8.146,4.414,4.414,0,0,1-46.868-.864,3.6,3.6,0,0,1-48.01-3.633v-7.031h2.585v7.083q.044,1.75,1.626,1.75a1.574,1.574,0,0,0,1.208-.439A2.054,2.054,0,0,0-42.18-3.7v-6.965Zm9.976,1.985h-3.2V0h-2.571V-8.679h-3.142v-1.985h8.914Zm7.7,4.153h-4.043v2.549H-21.2V0H-28.55V-10.664h7.361v1.985h-4.79v2.249h4.043ZM-11.25,0h-2.556l-3.779-6.636V0h-2.571V-10.664h2.571l3.772,6.636v-6.636h2.563Zm10-8.679h-3.2V0H-7.024V-8.679h-3.142v-1.985h8.914ZM2.571,0H.007V-10.664H2.571ZM12.986-3.611a3.9,3.9,0,0,1-.6,1.967A3.625,3.625,0,0,1,10.844-.322,5.248,5.248,0,0,1,8.577.146a4.188,4.188,0,0,1-3.311-1.37A5.655,5.655,0,0,1,4.058-5.09v-.527A6.455,6.455,0,0,1,4.6-8.361a4.134,4.134,0,0,1,1.571-1.816,4.383,4.383,0,0,1,2.373-.641A4.6,4.6,0,0,1,11.667-9.8a4.037,4.037,0,0,1,1.34,2.816H10.444a1.91,1.91,0,0,0-.491-1.4A2.018,2.018,0,0,0,8.547-8.8a1.536,1.536,0,0,0-1.406.718,4.613,4.613,0,0,0-.469,2.292v.754A5.1,5.1,0,0,0,7.1-2.6a1.568,1.568,0,0,0,1.476.732,1.974,1.974,0,0,0,1.355-.417,1.772,1.772,0,0,0,.5-1.326Zm7.273,1.619H16.736L16.121,0H13.374l3.911-10.664H19.7L23.643,0H20.881ZM17.351-3.977h2.292l-1.15-3.7Zm15.7.366a3.9,3.9,0,0,1-.6,1.967A3.625,3.625,0,0,1,30.9-.322a5.248,5.248,0,0,1-2.267.469,4.188,4.188,0,0,1-3.311-1.37A5.655,5.655,0,0,1,24.119-5.09v-.527a6.455,6.455,0,0,1,.546-2.743,4.134,4.134,0,0,1,1.571-1.816,4.383,4.383,0,0,1,2.373-.641A4.6,4.6,0,0,1,31.729-9.8a4.037,4.037,0,0,1,1.34,2.816H30.505a1.91,1.91,0,0,0-.491-1.4A2.018,2.018,0,0,0,28.608-8.8a1.536,1.536,0,0,0-1.406.718,4.613,4.613,0,0,0-.469,2.292v.754A5.1,5.1,0,0,0,27.162-2.6a1.568,1.568,0,0,0,1.476.732,1.974,1.974,0,0,0,1.355-.417,1.772,1.772,0,0,0,.5-1.326ZM37,0H34.438V-10.664H37ZM47.82-5.112a6.289,6.289,0,0,1-.579,2.761A4.276,4.276,0,0,1,45.6-.5a4.579,4.579,0,0,1-2.428.648A4.643,4.643,0,0,1,40.752-.48a4.269,4.269,0,0,1-1.644-1.791,6.108,6.108,0,0,1-.619-2.673v-.6a6.316,6.316,0,0,1,.575-2.765,4.266,4.266,0,0,1,1.648-1.849,4.61,4.61,0,0,1,2.443-.652,4.566,4.566,0,0,1,2.417.645,4.343,4.343,0,0,1,1.652,1.835,6.135,6.135,0,0,1,.6,2.728Zm-2.615-.447a4.484,4.484,0,0,0-.531-2.413,1.7,1.7,0,0,0-1.52-.824q-1.934,0-2.043,2.9l-.007.784a4.612,4.612,0,0,0,.52,2.41,1.7,1.7,0,0,0,1.545.842,1.68,1.68,0,0,0,1.5-.828,4.486,4.486,0,0,0,.535-2.38Zm-1.75-7.961h2.607l-2.036,2.3-2.014,0ZM58.052,0H55.5L51.716-6.636V0H49.146V-10.664h2.571l3.772,6.636v-6.636h2.563Z" transform="translate(49 14)" fill="#12263f"/>
            </g>
          </g>
        </g>
      </g>
      <path id="Trazado_133713" data-name="Trazado 133713" d="M.945,13h4.38v1H-.28V4.758H.945Zm9.631,1a2.467,2.467,0,0,1-.165-.724,2.62,2.62,0,0,1-1.955.851,2.424,2.424,0,0,1-1.666-.574A1.859,1.859,0,0,1,6.139,12.1a1.942,1.942,0,0,1,.816-1.666A3.846,3.846,0,0,1,9.25,9.836h1.143V9.3a1.319,1.319,0,0,0-.368-.981,1.48,1.48,0,0,0-1.085-.365,1.712,1.712,0,0,0-1.054.317.935.935,0,0,0-.425.768H6.279a1.621,1.621,0,0,1,.365-.993,2.491,2.491,0,0,1,.99-.759A3.331,3.331,0,0,1,9.008,7a2.715,2.715,0,0,1,1.86.594,2.141,2.141,0,0,1,.7,1.635v3.161a3.865,3.865,0,0,0,.241,1.5V14Zm-1.949-.9a2.064,2.064,0,0,0,1.047-.286,1.728,1.728,0,0,0,.717-.743V10.667h-.92q-2.158,0-2.158,1.263a1.069,1.069,0,0,0,.368.863A1.415,1.415,0,0,0,8.628,13.1Zm11.848.9a2.467,2.467,0,0,1-.165-.724,2.62,2.62,0,0,1-1.955.851,2.424,2.424,0,0,1-1.666-.574,1.859,1.859,0,0,1-.651-1.457,1.942,1.942,0,0,1,.816-1.666,3.846,3.846,0,0,1,2.295-.594h1.143V9.3a1.319,1.319,0,0,0-.368-.981,1.48,1.48,0,0,0-1.085-.365,1.712,1.712,0,0,0-1.054.317.935.935,0,0,0-.425.768H16.179a1.621,1.621,0,0,1,.365-.993,2.491,2.491,0,0,1,.99-.759A3.331,3.331,0,0,1,18.908,7a2.715,2.715,0,0,1,1.86.594,2.141,2.141,0,0,1,.7,1.635v3.161a3.865,3.865,0,0,0,.241,1.5V14Zm-1.949-.9a2.064,2.064,0,0,0,1.047-.286,1.728,1.728,0,0,0,.717-.743V10.667h-.92q-2.158,0-2.158,1.263a1.069,1.069,0,0,0,.368.863A1.415,1.415,0,0,0,18.527,13.1Zm8.825.216a2.494,2.494,0,0,1-2.012.806,2.135,2.135,0,0,1-1.673-.638,2.761,2.761,0,0,1-.581-1.888V7.132h1.174v4.437q0,1.562,1.27,1.562a1.758,1.758,0,0,0,1.79-1v-5h1.174V14H27.378Zm4.325-7.852V7.132h1.282V8.04H31.677V12.3a.953.953,0,0,0,.171.62.721.721,0,0,0,.584.207,2.843,2.843,0,0,0,.559-.076V14a3.424,3.424,0,0,1-.9.126,1.462,1.462,0,0,1-1.187-.476,2.045,2.045,0,0,1-.4-1.352V8.04h-1.25V7.132H30.5V5.469Zm5.308,8.658a3,3,0,0,1-2.272-.917,3.4,3.4,0,0,1-.876-2.453v-.216a4.121,4.121,0,0,1,.39-1.825,3.045,3.045,0,0,1,1.092-1.257A2.745,2.745,0,0,1,36.839,7a2.572,2.572,0,0,1,2.082.882,3.82,3.82,0,0,1,.743,2.526V10.9H35.011a2.441,2.441,0,0,0,.594,1.641,1.866,1.866,0,0,0,1.444.625,2.045,2.045,0,0,0,1.054-.254,2.648,2.648,0,0,0,.755-.673l.717.559A2.884,2.884,0,0,1,36.985,14.127ZM36.839,7.97a1.566,1.566,0,0,0-1.193.517,2.515,2.515,0,0,0-.6,1.45h3.44V9.849a2.237,2.237,0,0,0-.482-1.387A1.475,1.475,0,0,0,36.839,7.97Zm5.1-.838L41.976,8A2.5,2.5,0,0,1,44.033,7q2.177,0,2.2,2.457V14H45.055V9.455a1.581,1.581,0,0,0-.34-1.1A1.361,1.361,0,0,0,43.677,8a1.7,1.7,0,0,0-1,.3,2.069,2.069,0,0,0-.673.8V14H40.827V7.132ZM49.4,5.469V7.132h1.282V8.04H49.4V12.3a.953.953,0,0,0,.171.62.721.721,0,0,0,.584.207,2.843,2.843,0,0,0,.559-.076V14a3.424,3.424,0,0,1-.9.126,1.462,1.462,0,0,1-1.187-.476,2.045,2.045,0,0,1-.4-1.352V8.04h-1.25V7.132h1.25V5.469ZM53.133,14H51.958V7.132h1.174Zm-1.27-8.69a.7.7,0,0,1,.175-.482.655.655,0,0,1,.517-.2.666.666,0,0,1,.521.2.694.694,0,0,1,.178.482.671.671,0,0,1-.178.476.678.678,0,0,1-.521.19.667.667,0,0,1-.517-.19A.678.678,0,0,1,51.863,5.31Zm5.708,7.858a1.692,1.692,0,0,0,1.1-.381,1.34,1.34,0,0,0,.521-.952H60.3a2.13,2.13,0,0,1-.406,1.124,2.676,2.676,0,0,1-1,.851,2.885,2.885,0,0,1-1.323.317,2.829,2.829,0,0,1-2.231-.936,3.729,3.729,0,0,1-.828-2.561v-.2a4.135,4.135,0,0,1,.368-1.784,2.8,2.8,0,0,1,1.057-1.212A3,3,0,0,1,57.565,7a2.755,2.755,0,0,1,1.92.692,2.473,2.473,0,0,1,.816,1.8H59.19a1.618,1.618,0,0,0-.5-1.095,1.57,1.57,0,0,0-1.12-.428,1.644,1.644,0,0,0-1.387.644,3.026,3.026,0,0,0-.492,1.863V10.7a2.965,2.965,0,0,0,.489,1.828A1.651,1.651,0,0,0,57.571,13.168Zm8.1.832a2.467,2.467,0,0,1-.165-.724,2.62,2.62,0,0,1-1.955.851,2.424,2.424,0,0,1-1.666-.574,1.859,1.859,0,0,1-.651-1.457,1.942,1.942,0,0,1,.816-1.666,3.846,3.846,0,0,1,2.295-.594h1.143V9.3a1.319,1.319,0,0,0-.368-.981,1.48,1.48,0,0,0-1.085-.365,1.712,1.712,0,0,0-1.054.317.935.935,0,0,0-.425.768H61.369a1.621,1.621,0,0,1,.365-.993,2.491,2.491,0,0,1,.99-.759A3.331,3.331,0,0,1,64.1,7a2.715,2.715,0,0,1,1.86.594,2.141,2.141,0,0,1,.7,1.635v3.161a3.865,3.865,0,0,0,.241,1.5V14Zm-1.949-.9a2.064,2.064,0,0,0,1.047-.286,1.728,1.728,0,0,0,.717-.743V10.667h-.92q-2.158,0-2.158,1.263a1.069,1.069,0,0,0,.368.863A1.415,1.415,0,0,0,63.718,13.1Zm7.34.063a1.691,1.691,0,0,0,1.1-.381,1.34,1.34,0,0,0,.521-.952h1.111a2.13,2.13,0,0,1-.406,1.124,2.676,2.676,0,0,1-1,.851,2.885,2.885,0,0,1-1.323.317,2.829,2.829,0,0,1-2.231-.936A3.729,3.729,0,0,1,68,10.629v-.2a4.135,4.135,0,0,1,.368-1.784,2.8,2.8,0,0,1,1.057-1.212A3,3,0,0,1,71.051,7a2.755,2.755,0,0,1,1.92.692,2.473,2.473,0,0,1,.816,1.8H72.676a1.618,1.618,0,0,0-.5-1.095,1.57,1.57,0,0,0-1.12-.428,1.644,1.644,0,0,0-1.387.644,3.026,3.026,0,0,0-.492,1.863V10.7a2.966,2.966,0,0,0,.489,1.828A1.651,1.651,0,0,0,71.057,13.168ZM76.188,14H75.014V7.132h1.174Zm-1.27-8.69a.7.7,0,0,1,.175-.482.655.655,0,0,1,.517-.2.666.666,0,0,1,.521.2.694.694,0,0,1,.178.482.671.671,0,0,1-.178.476.678.678,0,0,1-.521.19.667.667,0,0,1-.517-.19A.678.678,0,0,1,74.918,5.31ZM77.561,10.5a4.057,4.057,0,0,1,.4-1.815,2.96,2.96,0,0,1,1.1-1.244A3.007,3.007,0,0,1,80.678,7a2.9,2.9,0,0,1,2.269.971,3.736,3.736,0,0,1,.866,2.583v.083a4.092,4.092,0,0,1-.384,1.8,2.916,2.916,0,0,1-1.1,1.241,3.041,3.041,0,0,1-1.641.444,2.889,2.889,0,0,1-2.263-.971,3.718,3.718,0,0,1-.866-2.571Zm1.181.14a2.938,2.938,0,0,0,.53,1.834,1.8,1.8,0,0,0,2.841-.01,3.213,3.213,0,0,0,.527-1.965A2.933,2.933,0,0,0,82.1,8.671a1.705,1.705,0,0,0-1.425-.7,1.686,1.686,0,0,0-1.4.692A3.189,3.189,0,0,0,78.742,10.642ZM81.211,4.25h1.422l-1.7,1.866-.946,0ZM86.2,7.132,86.24,8A2.5,2.5,0,0,1,88.3,7q2.177,0,2.2,2.457V14H89.318V9.455a1.581,1.581,0,0,0-.34-1.1A1.361,1.361,0,0,0,87.941,8a1.7,1.7,0,0,0-1,.3,2.069,2.069,0,0,0-.673.8V14H85.091V7.132Zm11.74,7a3,3,0,0,1-2.272-.917,3.4,3.4,0,0,1-.876-2.453v-.216a4.121,4.121,0,0,1,.39-1.825,3.045,3.045,0,0,1,1.092-1.257A2.745,2.745,0,0,1,97.8,7a2.572,2.572,0,0,1,2.082.882,3.82,3.82,0,0,1,.743,2.526V10.9H95.968a2.441,2.441,0,0,0,.594,1.641,1.866,1.866,0,0,0,1.444.625,2.045,2.045,0,0,0,1.054-.254,2.648,2.648,0,0,0,.755-.673l.717.559A2.884,2.884,0,0,1,97.942,14.127ZM97.8,7.97a1.566,1.566,0,0,0-1.193.517,2.515,2.515,0,0,0-.6,1.45h3.44V9.849a2.237,2.237,0,0,0-.482-1.387A1.475,1.475,0,0,0,97.8,7.97Zm5.1-.838.038.863A2.5,2.5,0,0,1,104.99,7q2.177,0,2.2,2.457V14h-1.174V9.455a1.581,1.581,0,0,0-.34-1.1A1.361,1.361,0,0,0,104.634,8a1.7,1.7,0,0,0-1,.3,2.069,2.069,0,0,0-.673.8V14h-1.174V7.132Zm-74.631,21a3,3,0,0,1-2.272-.917,3.4,3.4,0,0,1-.876-2.453v-.216a4.121,4.121,0,0,1,.39-1.825A3.045,3.045,0,0,1,26.6,21.459,2.745,2.745,0,0,1,28.118,21a2.572,2.572,0,0,1,2.082.882,3.82,3.82,0,0,1,.743,2.526V24.9H26.29a2.441,2.441,0,0,0,.594,1.641,1.866,1.866,0,0,0,1.444.625,2.045,2.045,0,0,0,1.054-.254,2.648,2.648,0,0,0,.755-.673l.717.559A2.884,2.884,0,0,1,28.264,28.127Zm-.146-6.157a1.566,1.566,0,0,0-1.193.517,2.515,2.515,0,0,0-.6,1.45h3.44v-.089a2.237,2.237,0,0,0-.482-1.387A1.475,1.475,0,0,0,28.118,21.97ZM33.382,28H32.208V18.25h1.174Zm8.706-1.822a.865.865,0,0,0-.359-.74,3.452,3.452,0,0,0-1.25-.454,5.912,5.912,0,0,1-1.416-.457,2.014,2.014,0,0,1-.774-.635,1.518,1.518,0,0,1-.251-.876,1.782,1.782,0,0,1,.714-1.428A2.789,2.789,0,0,1,40.577,21a2.87,2.87,0,0,1,1.895.6A1.915,1.915,0,0,1,43.2,23.15H42.018a1.06,1.06,0,0,0-.409-.832,1.534,1.534,0,0,0-1.031-.349,1.606,1.606,0,0,0-1,.279.879.879,0,0,0-.362.73.712.712,0,0,0,.336.641,4.139,4.139,0,0,0,1.216.413,6.334,6.334,0,0,1,1.425.47,2.079,2.079,0,0,1,.809.657,1.615,1.615,0,0,1,.263.936,1.758,1.758,0,0,1-.736,1.476,3.089,3.089,0,0,1-1.911.555,3.459,3.459,0,0,1-1.46-.292,2.375,2.375,0,0,1-.993-.816,1.966,1.966,0,0,1-.359-1.133h1.174a1.216,1.216,0,0,0,.473.936,1.835,1.835,0,0,0,1.165.346,1.894,1.894,0,0,0,1.07-.27A.829.829,0,0,0,42.088,26.178ZM45.873,28H44.7V21.132h1.174ZM44.6,19.31a.7.7,0,0,1,.175-.482.655.655,0,0,1,.517-.2.666.666,0,0,1,.521.2.694.694,0,0,1,.178.482.671.671,0,0,1-.178.476.678.678,0,0,1-.521.19.667.667,0,0,1-.517-.19A.678.678,0,0,1,44.6,19.31Zm6.952,6.868a.865.865,0,0,0-.359-.74,3.452,3.452,0,0,0-1.25-.454,5.912,5.912,0,0,1-1.416-.457,2.014,2.014,0,0,1-.774-.635,1.518,1.518,0,0,1-.251-.876,1.782,1.782,0,0,1,.714-1.428A2.789,2.789,0,0,1,50.045,21a2.87,2.87,0,0,1,1.895.6,1.915,1.915,0,0,1,.727,1.542H51.486a1.06,1.06,0,0,0-.409-.832,1.534,1.534,0,0,0-1.031-.349,1.606,1.606,0,0,0-1,.279.879.879,0,0,0-.362.73.712.712,0,0,0,.336.641,4.139,4.139,0,0,0,1.216.413,6.334,6.334,0,0,1,1.425.47,2.079,2.079,0,0,1,.809.657,1.615,1.615,0,0,1,.263.936,1.758,1.758,0,0,1-.736,1.476,3.089,3.089,0,0,1-1.911.555,3.459,3.459,0,0,1-1.46-.292,2.375,2.375,0,0,1-.993-.816,1.966,1.966,0,0,1-.359-1.133h1.174a1.216,1.216,0,0,0,.473.936,1.835,1.835,0,0,0,1.165.346,1.894,1.894,0,0,0,1.07-.27A.829.829,0,0,0,51.556,26.178Zm4.1-6.709v1.663h1.282v.908H55.658V26.3a.953.953,0,0,0,.171.62.721.721,0,0,0,.584.207,2.843,2.843,0,0,0,.559-.076V28a3.424,3.424,0,0,1-.9.126,1.462,1.462,0,0,1-1.187-.476,2.045,2.045,0,0,1-.4-1.352V22.04h-1.25v-.908h1.25V19.469Zm5.308,8.658a3,3,0,0,1-2.272-.917,3.4,3.4,0,0,1-.876-2.453v-.216a4.121,4.121,0,0,1,.39-1.825A3.045,3.045,0,0,1,59.3,21.459,2.745,2.745,0,0,1,60.821,21a2.572,2.572,0,0,1,2.082.882,3.82,3.82,0,0,1,.743,2.526V24.9H58.993a2.441,2.441,0,0,0,.594,1.641,1.866,1.866,0,0,0,1.444.625,2.045,2.045,0,0,0,1.054-.254,2.648,2.648,0,0,0,.755-.673l.717.559A2.884,2.884,0,0,1,60.967,28.127Zm-.146-6.157a1.566,1.566,0,0,0-1.193.517,2.515,2.515,0,0,0-.6,1.45h3.44v-.089a2.237,2.237,0,0,0-.482-1.387A1.475,1.475,0,0,0,60.821,21.97Zm5.093-.838.032.762A2.536,2.536,0,0,1,67.983,21a1.964,1.964,0,0,1,1.961,1.1,2.6,2.6,0,0,1,.892-.8,2.634,2.634,0,0,1,1.3-.3q2.26,0,2.3,2.393V28H73.258V23.468a1.577,1.577,0,0,0-.336-1.1A1.482,1.482,0,0,0,71.791,22a1.557,1.557,0,0,0-1.085.39,1.584,1.584,0,0,0-.5,1.051V28H69.024V23.5A1.31,1.31,0,0,0,67.557,22a1.571,1.571,0,0,0-1.581.984V28H64.8V21.132ZM80.248,28a2.467,2.467,0,0,1-.165-.724,2.62,2.62,0,0,1-1.955.851,2.424,2.424,0,0,1-1.666-.574,1.859,1.859,0,0,1-.651-1.457,1.942,1.942,0,0,1,.816-1.666,3.846,3.846,0,0,1,2.295-.594h1.143V23.3a1.319,1.319,0,0,0-.368-.981,1.48,1.48,0,0,0-1.085-.365,1.712,1.712,0,0,0-1.054.317.935.935,0,0,0-.425.768H75.951a1.621,1.621,0,0,1,.365-.993,2.491,2.491,0,0,1,.99-.759A3.331,3.331,0,0,1,78.68,21a2.715,2.715,0,0,1,1.86.594,2.141,2.141,0,0,1,.7,1.635v3.161a3.865,3.865,0,0,0,.241,1.5V28ZM78.3,27.1a2.064,2.064,0,0,0,1.047-.286,1.728,1.728,0,0,0,.717-.743V24.667h-.92q-2.158,0-2.158,1.263a1.069,1.069,0,0,0,.368.863A1.415,1.415,0,0,0,78.3,27.1ZM15.016,42H13.842V35.132h1.174Zm-1.27-8.69a.7.7,0,0,1,.175-.482.655.655,0,0,1,.517-.2.666.666,0,0,1,.521.2.694.694,0,0,1,.178.482.671.671,0,0,1-.178.476.678.678,0,0,1-.521.19.667.667,0,0,1-.517-.19A.678.678,0,0,1,13.746,33.31Zm4.064,1.822.038.863A2.5,2.5,0,0,1,19.905,35q2.177,0,2.2,2.457V42H20.927V37.455a1.581,1.581,0,0,0-.34-1.1A1.361,1.361,0,0,0,19.55,36a1.7,1.7,0,0,0-1,.3,2.069,2.069,0,0,0-.673.8V42H16.7V35.132ZM24.255,42V36.04H23.17v-.908h1.085v-.7a2.339,2.339,0,0,1,.59-1.708,2.23,2.23,0,0,1,1.669-.6,3.1,3.1,0,0,1,.806.107l-.063.946a3.373,3.373,0,0,0-.635-.057,1.146,1.146,0,0,0-.882.334,1.356,1.356,0,0,0-.311.958v.726H26.9v.908H25.43V42Zm3.43-3.5a4.057,4.057,0,0,1,.4-1.815,2.96,2.96,0,0,1,1.1-1.244A3.007,3.007,0,0,1,30.8,35a2.9,2.9,0,0,1,2.269.971,3.736,3.736,0,0,1,.866,2.583v.083a4.092,4.092,0,0,1-.384,1.8,2.916,2.916,0,0,1-1.1,1.241,3.041,3.041,0,0,1-1.641.444,2.889,2.889,0,0,1-2.263-.971,3.718,3.718,0,0,1-.866-2.571Zm1.181.14a2.938,2.938,0,0,0,.53,1.834,1.8,1.8,0,0,0,2.841-.01,3.213,3.213,0,0,0,.527-1.965,2.933,2.933,0,0,0-.536-1.831,1.705,1.705,0,0,0-1.425-.7,1.686,1.686,0,0,0-1.4.692A3.189,3.189,0,0,0,28.866,38.642Zm9.669-2.457a3.519,3.519,0,0,0-.578-.044,1.547,1.547,0,0,0-1.568.984V42H35.215V35.132h1.143l.019.793A1.829,1.829,0,0,1,38.014,35a1.2,1.2,0,0,1,.521.089Zm1.989-1.054.032.762A2.536,2.536,0,0,1,42.593,35a1.964,1.964,0,0,1,1.961,1.1,2.6,2.6,0,0,1,.892-.8,2.634,2.634,0,0,1,1.3-.3q2.26,0,2.3,2.393V42H47.868V37.468a1.577,1.577,0,0,0-.336-1.1A1.482,1.482,0,0,0,46.4,36a1.557,1.557,0,0,0-1.085.39,1.584,1.584,0,0,0-.5,1.051V42H43.634V37.5A1.31,1.31,0,0,0,42.167,36a1.571,1.571,0,0,0-1.581.984V42H39.413V35.132ZM54.858,42a2.467,2.467,0,0,1-.165-.724,2.62,2.62,0,0,1-1.955.851,2.424,2.424,0,0,1-1.666-.574,1.859,1.859,0,0,1-.651-1.457,1.942,1.942,0,0,1,.816-1.666,3.846,3.846,0,0,1,2.295-.594h1.143V37.3a1.319,1.319,0,0,0-.368-.981,1.48,1.48,0,0,0-1.085-.365,1.712,1.712,0,0,0-1.054.317.935.935,0,0,0-.425.768H50.561a1.621,1.621,0,0,1,.365-.993,2.491,2.491,0,0,1,.99-.759A3.331,3.331,0,0,1,53.29,35a2.715,2.715,0,0,1,1.86.594,2.141,2.141,0,0,1,.7,1.635v3.161a3.865,3.865,0,0,0,.241,1.5V42Zm-1.949-.9a2.064,2.064,0,0,0,1.047-.286,1.728,1.728,0,0,0,.717-.743V38.667h-.92q-2.158,0-2.158,1.263a1.069,1.069,0,0,0,.368.863A1.415,1.415,0,0,0,52.909,41.1Zm1.085-8.855h1.422l-1.7,1.866-.946,0Zm5.093,1.219v1.663H60.37v.908H59.088V40.3a.953.953,0,0,0,.171.62.721.721,0,0,0,.584.207,2.843,2.843,0,0,0,.559-.076V42a3.424,3.424,0,0,1-.9.126,1.462,1.462,0,0,1-1.187-.476,2.045,2.045,0,0,1-.4-1.352V36.04h-1.25v-.908h1.25V33.469ZM62.822,42H61.647V35.132h1.174Zm-1.27-8.69a.7.7,0,0,1,.175-.482.655.655,0,0,1,.517-.2.666.666,0,0,1,.521.2.694.694,0,0,1,.178.482.671.671,0,0,1-.178.476.678.678,0,0,1-.521.19.667.667,0,0,1-.517-.19A.678.678,0,0,1,61.552,33.31Zm5.708,7.858a1.691,1.691,0,0,0,1.1-.381,1.34,1.34,0,0,0,.521-.952H69.99a2.13,2.13,0,0,1-.406,1.124,2.676,2.676,0,0,1-1,.851,2.885,2.885,0,0,1-1.323.317,2.829,2.829,0,0,1-2.231-.936,3.729,3.729,0,0,1-.828-2.561v-.2a4.135,4.135,0,0,1,.368-1.784,2.8,2.8,0,0,1,1.057-1.212A3,3,0,0,1,67.254,35a2.755,2.755,0,0,1,1.92.692,2.473,2.473,0,0,1,.816,1.8H68.879a1.618,1.618,0,0,0-.5-1.095,1.57,1.57,0,0,0-1.12-.428,1.644,1.644,0,0,0-1.387.644,3.026,3.026,0,0,0-.492,1.863V38.7a2.966,2.966,0,0,0,.489,1.828A1.651,1.651,0,0,0,67.261,41.168ZM70.8,38.5a4.057,4.057,0,0,1,.4-1.815,2.96,2.96,0,0,1,1.1-1.244A3.007,3.007,0,0,1,73.921,35a2.9,2.9,0,0,1,2.269.971,3.736,3.736,0,0,1,.866,2.583v.083a4.092,4.092,0,0,1-.384,1.8,2.916,2.916,0,0,1-1.1,1.241,3.041,3.041,0,0,1-1.641.444,2.889,2.889,0,0,1-2.263-.971,3.718,3.718,0,0,1-.866-2.571Zm1.181.14a2.938,2.938,0,0,0,.53,1.834,1.8,1.8,0,0,0,2.841-.01,3.213,3.213,0,0,0,.527-1.965,2.933,2.933,0,0,0-.536-1.831,1.705,1.705,0,0,0-1.425-.7,1.686,1.686,0,0,0-1.4.692A3.189,3.189,0,0,0,71.985,38.642Zm13.372,1.536a.864.864,0,0,0-.359-.74,3.452,3.452,0,0,0-1.25-.454,5.912,5.912,0,0,1-1.416-.457,2.014,2.014,0,0,1-.774-.635,1.518,1.518,0,0,1-.251-.876,1.782,1.782,0,0,1,.714-1.428A2.789,2.789,0,0,1,83.846,35a2.87,2.87,0,0,1,1.895.6,1.915,1.915,0,0,1,.727,1.542H85.287a1.06,1.06,0,0,0-.409-.832,1.534,1.534,0,0,0-1.031-.349,1.605,1.605,0,0,0-1,.279.879.879,0,0,0-.362.73.712.712,0,0,0,.336.641,4.139,4.139,0,0,0,1.216.413,6.334,6.334,0,0,1,1.425.47,2.079,2.079,0,0,1,.809.657,1.615,1.615,0,0,1,.263.936,1.758,1.758,0,0,1-.736,1.476,3.089,3.089,0,0,1-1.911.555,3.459,3.459,0,0,1-1.46-.292,2.374,2.374,0,0,1-.993-.816,1.966,1.966,0,0,1-.359-1.133h1.174a1.216,1.216,0,0,0,.473.936,1.835,1.835,0,0,0,1.165.346,1.894,1.894,0,0,0,1.07-.27A.829.829,0,0,0,85.357,40.178Zm5.359,1.949a3,3,0,0,1-2.272-.917,3.4,3.4,0,0,1-.876-2.453v-.216a4.121,4.121,0,0,1,.39-1.825,3.045,3.045,0,0,1,1.092-1.257A2.745,2.745,0,0,1,90.57,35a2.572,2.572,0,0,1,2.082.882,3.82,3.82,0,0,1,.743,2.526V38.9H88.742a2.441,2.441,0,0,0,.594,1.641,1.866,1.866,0,0,0,1.444.625,2.045,2.045,0,0,0,1.054-.254,2.648,2.648,0,0,0,.755-.673l.717.559A2.884,2.884,0,0,1,90.716,42.127ZM90.57,35.97a1.566,1.566,0,0,0-1.193.517,2.515,2.515,0,0,0-.6,1.45h3.44v-.089a2.237,2.237,0,0,0-.482-1.387A1.475,1.475,0,0,0,90.57,35.97ZM14.976,52.509a4.023,4.023,0,0,1,.749-2.542A2.548,2.548,0,0,1,19.6,49.83V46.25h1.174V56H19.692l-.057-.736a2.391,2.391,0,0,1-1.961.863,2.346,2.346,0,0,1-1.946-.978,4.069,4.069,0,0,1-.752-2.552Zm1.174.133a3.046,3.046,0,0,0,.482,1.828,1.56,1.56,0,0,0,1.333.66,1.713,1.713,0,0,0,1.631-1V50.973A1.726,1.726,0,0,0,17.978,50a1.567,1.567,0,0,0-1.346.667A3.354,3.354,0,0,0,16.15,52.642Zm9.1,3.485a3,3,0,0,1-2.272-.917,3.4,3.4,0,0,1-.876-2.453v-.216a4.121,4.121,0,0,1,.39-1.825,3.045,3.045,0,0,1,1.092-1.257A2.745,2.745,0,0,1,25.1,49a2.572,2.572,0,0,1,2.082.882,3.82,3.82,0,0,1,.743,2.526V52.9H23.274a2.441,2.441,0,0,0,.594,1.641,1.866,1.866,0,0,0,1.444.625,2.045,2.045,0,0,0,1.054-.254,2.648,2.648,0,0,0,.755-.673l.717.559A2.884,2.884,0,0,1,25.248,56.127ZM25.1,49.97a1.566,1.566,0,0,0-1.193.517,2.515,2.515,0,0,0-.6,1.45h3.44v-.089a2.237,2.237,0,0,0-.482-1.387A1.475,1.475,0,0,0,25.1,49.97Zm9.8,2.672a4.084,4.084,0,0,1-.724,2.53,2.312,2.312,0,0,1-1.942.955,2.394,2.394,0,0,1-2.012-.92L30.169,56H29.09V46.25h1.174v3.637A2.381,2.381,0,0,1,32.226,49a2.326,2.326,0,0,1,1.965.946,4.206,4.206,0,0,1,.714,2.59Zm-1.174-.133a3.173,3.173,0,0,0-.463-1.854A1.534,1.534,0,0,0,31.934,50a1.724,1.724,0,0,0-1.669,1.079v2.971a1.772,1.772,0,0,0,1.682,1.079,1.526,1.526,0,0,0,1.314-.654A3.374,3.374,0,0,0,33.73,52.509Zm5.308,3.618a3,3,0,0,1-2.272-.917,3.4,3.4,0,0,1-.876-2.453v-.216a4.121,4.121,0,0,1,.39-1.825,3.045,3.045,0,0,1,1.092-1.257A2.745,2.745,0,0,1,38.893,49a2.572,2.572,0,0,1,2.082.882,3.82,3.82,0,0,1,.743,2.526V52.9H37.064a2.441,2.441,0,0,0,.594,1.641,1.866,1.866,0,0,0,1.444.625,2.045,2.045,0,0,0,1.054-.254,2.648,2.648,0,0,0,.755-.673l.717.559A2.884,2.884,0,0,1,39.039,56.127Zm-.146-6.157a1.566,1.566,0,0,0-1.193.517,2.515,2.515,0,0,0-.6,1.45h3.44v-.089a2.237,2.237,0,0,0-.482-1.387A1.475,1.475,0,0,0,38.893,49.97Zm12.813,2.672a4.113,4.113,0,0,1-.717,2.526,2.3,2.3,0,0,1-1.942.958,2.519,2.519,0,0,1-1.968-.793v3.307H45.9V49.132h1.073l.057.762A2.419,2.419,0,0,1,49.027,49a2.342,2.342,0,0,1,1.958.933,4.157,4.157,0,0,1,.72,2.6Zm-1.174-.133a3.035,3.035,0,0,0-.5-1.834A1.6,1.6,0,0,0,48.678,50a1.726,1.726,0,0,0-1.6.946v3.282a1.73,1.73,0,0,0,1.612.939,1.587,1.587,0,0,0,1.343-.67A3.312,3.312,0,0,0,50.531,52.509Zm5.791-2.323a3.519,3.519,0,0,0-.578-.044,1.547,1.547,0,0,0-1.568.984V56H53V49.132h1.143l.019.793A1.829,1.829,0,0,1,55.8,49a1.2,1.2,0,0,1,.521.089Zm.446,2.317a4.057,4.057,0,0,1,.4-1.815,2.96,2.96,0,0,1,1.1-1.244A3.007,3.007,0,0,1,59.885,49a2.9,2.9,0,0,1,2.269.971,3.736,3.736,0,0,1,.866,2.583v.083a4.092,4.092,0,0,1-.384,1.8,2.916,2.916,0,0,1-1.1,1.241,3.041,3.041,0,0,1-1.641.444,2.889,2.889,0,0,1-2.263-.971,3.718,3.718,0,0,1-.866-2.571Zm1.181.14a2.938,2.938,0,0,0,.53,1.834,1.8,1.8,0,0,0,2.841-.01,3.213,3.213,0,0,0,.527-1.965,2.933,2.933,0,0,0-.536-1.831,1.705,1.705,0,0,0-1.425-.7,1.686,1.686,0,0,0-1.4.692A3.189,3.189,0,0,0,57.949,52.642Zm7.943-5.173v1.663h1.282v.908H65.892V54.3a.953.953,0,0,0,.171.62.721.721,0,0,0,.584.207,2.843,2.843,0,0,0,.559-.076V56a3.424,3.424,0,0,1-.9.126,1.462,1.462,0,0,1-1.187-.476,2.045,2.045,0,0,1-.4-1.352V50.04h-1.25v-.908h1.25V47.469ZM71.2,56.127a3,3,0,0,1-2.272-.917,3.4,3.4,0,0,1-.876-2.453v-.216a4.121,4.121,0,0,1,.39-1.825,3.045,3.045,0,0,1,1.092-1.257A2.745,2.745,0,0,1,71.054,49a2.572,2.572,0,0,1,2.082.882,3.82,3.82,0,0,1,.743,2.526V52.9H69.226a2.441,2.441,0,0,0,.594,1.641,1.866,1.866,0,0,0,1.444.625,2.045,2.045,0,0,0,1.054-.254,2.648,2.648,0,0,0,.755-.673l.717.559A2.884,2.884,0,0,1,71.2,56.127Zm-.146-6.157a1.566,1.566,0,0,0-1.193.517,2.515,2.515,0,0,0-.6,1.45H72.7v-.089a2.237,2.237,0,0,0-.482-1.387A1.475,1.475,0,0,0,71.054,49.97Zm3.709,2.539a4.037,4.037,0,0,1,.743-2.555,2.56,2.56,0,0,1,3.929-.06l.057-.762h1.073v6.7a2.794,2.794,0,0,1-.79,2.1,2.916,2.916,0,0,1-2.123.768,3.532,3.532,0,0,1-1.454-.317,2.5,2.5,0,0,1-1.085-.87l.609-.7a2.3,2.3,0,0,0,1.847.933,1.8,1.8,0,0,0,1.336-.482,1.844,1.844,0,0,0,.479-1.358v-.59a2.414,2.414,0,0,1-1.923.813,2.346,2.346,0,0,1-1.952-.971A4.244,4.244,0,0,1,74.763,52.509Zm1.181.133a3.08,3.08,0,0,0,.476,1.825,1.547,1.547,0,0,0,1.333.663,1.72,1.72,0,0,0,1.631-1.009V50.985A1.74,1.74,0,0,0,77.765,50a1.561,1.561,0,0,0-1.339.667A3.354,3.354,0,0,0,75.944,52.642Zm9.047,3.485a3,3,0,0,1-2.272-.917,3.4,3.4,0,0,1-.876-2.453v-.216a4.121,4.121,0,0,1,.39-1.825,3.045,3.045,0,0,1,1.092-1.257A2.745,2.745,0,0,1,84.845,49a2.572,2.572,0,0,1,2.082.882,3.82,3.82,0,0,1,.743,2.526V52.9H83.017a2.441,2.441,0,0,0,.594,1.641,1.866,1.866,0,0,0,1.444.625,2.045,2.045,0,0,0,1.054-.254,2.648,2.648,0,0,0,.755-.673l.717.559A2.884,2.884,0,0,1,84.991,56.127Zm-.146-6.157a1.566,1.566,0,0,0-1.193.517,2.515,2.515,0,0,0-.6,1.45H86.5v-.089a2.237,2.237,0,0,0-.482-1.387A1.475,1.475,0,0,0,84.845,49.97Zm7.308.216a3.519,3.519,0,0,0-.578-.044,1.547,1.547,0,0,0-1.568.984V56H88.833V49.132h1.143l.019.793A1.829,1.829,0,0,1,91.632,49a1.2,1.2,0,0,1,.521.089ZM2.336,63.132l.032.762A2.536,2.536,0,0,1,4.406,63a1.964,1.964,0,0,1,1.961,1.1,2.6,2.6,0,0,1,.892-.8,2.634,2.634,0,0,1,1.3-.3q2.26,0,2.3,2.393V70H9.68V65.468a1.577,1.577,0,0,0-.336-1.1A1.482,1.482,0,0,0,8.214,64a1.557,1.557,0,0,0-1.085.39,1.584,1.584,0,0,0-.5,1.051V70H5.447V65.5A1.31,1.31,0,0,0,3.98,64a1.571,1.571,0,0,0-1.581.984V70H1.225V63.132Zm12.945,7a3,3,0,0,1-2.272-.917,3.4,3.4,0,0,1-.876-2.453v-.216a4.121,4.121,0,0,1,.39-1.825,3.045,3.045,0,0,1,1.092-1.257A2.745,2.745,0,0,1,15.135,63a2.572,2.572,0,0,1,2.082.882,3.82,3.82,0,0,1,.743,2.526V66.9H13.307a2.441,2.441,0,0,0,.594,1.641,1.866,1.866,0,0,0,1.444.625,2.045,2.045,0,0,0,1.054-.254,2.648,2.648,0,0,0,.755-.673l.717.559A2.884,2.884,0,0,1,15.281,70.127Zm-.146-6.157a1.566,1.566,0,0,0-1.193.517,2.515,2.515,0,0,0-.6,1.45h3.44v-.089a2.237,2.237,0,0,0-.482-1.387A1.475,1.475,0,0,0,15.135,63.97Zm3.7,2.539a4.023,4.023,0,0,1,.749-2.542,2.548,2.548,0,0,1,3.872-.136V60.25h1.174V70H23.554l-.057-.736a2.391,2.391,0,0,1-1.961.863,2.346,2.346,0,0,1-1.946-.978,4.069,4.069,0,0,1-.752-2.552Zm1.174.133a3.046,3.046,0,0,0,.482,1.828,1.56,1.56,0,0,0,1.333.66,1.713,1.713,0,0,0,1.631-1V64.973A1.726,1.726,0,0,0,21.84,64a1.567,1.567,0,0,0-1.346.667A3.354,3.354,0,0,0,20.012,66.642ZM27.535,70H26.361V63.132h1.174Zm-1.27-8.69a.7.7,0,0,1,.175-.482.655.655,0,0,1,.517-.2.666.666,0,0,1,.521.2.694.694,0,0,1,.178.482.671.671,0,0,1-.178.476.678.678,0,0,1-.521.19.667.667,0,0,1-.517-.19A.678.678,0,0,1,26.266,61.31ZM33.459,70a2.467,2.467,0,0,1-.165-.724,2.62,2.62,0,0,1-1.955.851,2.424,2.424,0,0,1-1.666-.574,1.859,1.859,0,0,1-.651-1.457,1.942,1.942,0,0,1,.816-1.666,3.846,3.846,0,0,1,2.295-.594h1.143V65.3a1.319,1.319,0,0,0-.368-.981,1.48,1.48,0,0,0-1.085-.365,1.712,1.712,0,0,0-1.054.317.935.935,0,0,0-.425.768H29.162a1.621,1.621,0,0,1,.365-.993,2.491,2.491,0,0,1,.99-.759A3.331,3.331,0,0,1,31.892,63a2.715,2.715,0,0,1,1.86.594,2.141,2.141,0,0,1,.7,1.635v3.161a3.865,3.865,0,0,0,.241,1.5V70Zm-1.949-.9a2.064,2.064,0,0,0,1.047-.286,1.728,1.728,0,0,0,.717-.743V66.667h-.92q-2.158,0-2.158,1.263a1.069,1.069,0,0,0,.368.863A1.415,1.415,0,0,0,31.511,69.1Zm5.7-5.973.038.863A2.5,2.5,0,0,1,39.3,63q2.177,0,2.2,2.457V70H40.323V65.455a1.581,1.581,0,0,0-.34-1.1A1.361,1.361,0,0,0,38.946,64a1.7,1.7,0,0,0-1,.3,2.069,2.069,0,0,0-.673.8V70H36.1V63.132Zm7.46-1.663v1.663h1.282v.908H44.667V68.3a.953.953,0,0,0,.171.62.721.721,0,0,0,.584.207,2.843,2.843,0,0,0,.559-.076V70a3.424,3.424,0,0,1-.9.126,1.462,1.462,0,0,1-1.187-.476,2.045,2.045,0,0,1-.4-1.352V64.04h-1.25v-.908h1.25V61.469Zm5.308,8.658A3,3,0,0,1,47.7,69.21a3.4,3.4,0,0,1-.876-2.453v-.216a4.121,4.121,0,0,1,.39-1.825,3.045,3.045,0,0,1,1.092-1.257A2.745,2.745,0,0,1,49.829,63a2.572,2.572,0,0,1,2.082.882,3.82,3.82,0,0,1,.743,2.526V66.9H48a2.441,2.441,0,0,0,.594,1.641,1.866,1.866,0,0,0,1.444.625,2.045,2.045,0,0,0,1.054-.254,2.648,2.648,0,0,0,.755-.673l.717.559A2.884,2.884,0,0,1,49.975,70.127Zm-.146-6.157a1.566,1.566,0,0,0-1.193.517,2.515,2.515,0,0,0-.6,1.45h3.44v-.089A2.237,2.237,0,0,0,51,64.462,1.475,1.475,0,0,0,49.829,63.97Zm9.861,6.157a3,3,0,0,1-2.272-.917,3.4,3.4,0,0,1-.876-2.453v-.216a4.121,4.121,0,0,1,.39-1.825,3.045,3.045,0,0,1,1.092-1.257A2.745,2.745,0,0,1,59.545,63a2.572,2.572,0,0,1,2.082.882,3.82,3.82,0,0,1,.743,2.526V66.9H57.716a2.441,2.441,0,0,0,.594,1.641,1.866,1.866,0,0,0,1.444.625,2.045,2.045,0,0,0,1.054-.254,2.648,2.648,0,0,0,.755-.673l.717.559A2.884,2.884,0,0,1,59.691,70.127Zm-.146-6.157a1.566,1.566,0,0,0-1.193.517,2.515,2.515,0,0,0-.6,1.45h3.44v-.089a2.237,2.237,0,0,0-.482-1.387A1.475,1.475,0,0,0,59.545,63.97ZM64.809,70H63.634V60.25h1.174Zm8.947-.679a2.494,2.494,0,0,1-2.012.806,2.135,2.135,0,0,1-1.673-.638A2.761,2.761,0,0,1,69.49,67.6V63.132h1.174v4.437q0,1.562,1.27,1.562a1.758,1.758,0,0,0,1.79-1v-5H74.9V70H73.781Zm6.73-1.143a.864.864,0,0,0-.359-.74,3.452,3.452,0,0,0-1.25-.454,5.912,5.912,0,0,1-1.416-.457,2.014,2.014,0,0,1-.774-.635,1.518,1.518,0,0,1-.251-.876,1.782,1.782,0,0,1,.714-1.428A2.789,2.789,0,0,1,78.975,63a2.87,2.87,0,0,1,1.895.6A1.915,1.915,0,0,1,81.6,65.15H80.416a1.06,1.06,0,0,0-.409-.832,1.534,1.534,0,0,0-1.031-.349,1.606,1.606,0,0,0-1,.279.879.879,0,0,0-.362.73.712.712,0,0,0,.336.641,4.139,4.139,0,0,0,1.216.413,6.334,6.334,0,0,1,1.425.47,2.079,2.079,0,0,1,.809.657,1.615,1.615,0,0,1,.263.936,1.758,1.758,0,0,1-.736,1.476,3.089,3.089,0,0,1-1.911.555,3.459,3.459,0,0,1-1.46-.292,2.375,2.375,0,0,1-.993-.816,1.966,1.966,0,0,1-.359-1.133h1.174a1.216,1.216,0,0,0,.473.936,1.835,1.835,0,0,0,1.165.346,1.894,1.894,0,0,0,1.07-.27A.829.829,0,0,0,80.486,68.178Zm2.2-1.676a4.057,4.057,0,0,1,.4-1.815,2.96,2.96,0,0,1,1.1-1.244A3.007,3.007,0,0,1,85.8,63a2.9,2.9,0,0,1,2.269.971,3.736,3.736,0,0,1,.866,2.583v.083a4.092,4.092,0,0,1-.384,1.8,2.916,2.916,0,0,1-1.1,1.241,3.041,3.041,0,0,1-1.641.444,2.889,2.889,0,0,1-2.263-.971,3.718,3.718,0,0,1-.866-2.571Zm1.181.14a2.938,2.938,0,0,0,.53,1.834,1.8,1.8,0,0,0,2.841-.01,3.213,3.213,0,0,0,.527-1.965,2.933,2.933,0,0,0-.536-1.831,1.705,1.705,0,0,0-1.425-.7,1.686,1.686,0,0,0-1.4.692A3.189,3.189,0,0,0,83.865,66.642Zm9.087-.133a4.023,4.023,0,0,1,.749-2.542,2.548,2.548,0,0,1,3.872-.136V60.25h1.174V70H97.668l-.057-.736a2.391,2.391,0,0,1-1.961.863,2.346,2.346,0,0,1-1.946-.978,4.069,4.069,0,0,1-.752-2.552Zm1.174.133a3.046,3.046,0,0,0,.482,1.828,1.56,1.56,0,0,0,1.333.66,1.713,1.713,0,0,0,1.631-1V64.973A1.726,1.726,0,0,0,95.954,64a1.567,1.567,0,0,0-1.346.667A3.354,3.354,0,0,0,94.126,66.642Zm9.1,3.485a3,3,0,0,1-2.272-.917,3.4,3.4,0,0,1-.876-2.453v-.216a4.121,4.121,0,0,1,.39-1.825,3.045,3.045,0,0,1,1.092-1.257,2.745,2.745,0,0,1,1.52-.454,2.572,2.572,0,0,1,2.082.882,3.82,3.82,0,0,1,.743,2.526V66.9H101.25a2.441,2.441,0,0,0,.594,1.641,1.866,1.866,0,0,0,1.444.625,2.045,2.045,0,0,0,1.054-.254,2.648,2.648,0,0,0,.755-.673l.717.559A2.884,2.884,0,0,1,103.224,70.127Zm-.146-6.157a1.566,1.566,0,0,0-1.193.517,2.514,2.514,0,0,0-.6,1.45h3.44v-.089a2.237,2.237,0,0,0-.482-1.387A1.475,1.475,0,0,0,103.078,63.97Zm-65.811,19.2a1.692,1.692,0,0,0,1.1-.381,1.34,1.34,0,0,0,.521-.952H40a2.13,2.13,0,0,1-.406,1.124,2.676,2.676,0,0,1-1,.851,2.885,2.885,0,0,1-1.323.317,2.829,2.829,0,0,1-2.231-.936,3.729,3.729,0,0,1-.828-2.561v-.2a4.135,4.135,0,0,1,.368-1.784,2.8,2.8,0,0,1,1.057-1.212A3,3,0,0,1,37.261,77a2.755,2.755,0,0,1,1.92.692,2.473,2.473,0,0,1,.816,1.8H38.886a1.618,1.618,0,0,0-.5-1.095,1.57,1.57,0,0,0-1.12-.428,1.644,1.644,0,0,0-1.387.644,3.026,3.026,0,0,0-.492,1.863V80.7a2.965,2.965,0,0,0,.489,1.828A1.651,1.651,0,0,0,37.268,83.168ZM42.4,84H41.224V77.132H42.4Zm-1.27-8.69a.7.7,0,0,1,.175-.482.655.655,0,0,1,.517-.2.666.666,0,0,1,.521.2.694.694,0,0,1,.178.482.671.671,0,0,1-.178.476.678.678,0,0,1-.521.19.667.667,0,0,1-.517-.19A.678.678,0,0,1,41.129,75.31ZM44.66,84V78.04H43.574v-.908H44.66v-.7a2.339,2.339,0,0,1,.59-1.708,2.23,2.23,0,0,1,1.669-.6,3.1,3.1,0,0,1,.806.107l-.063.946a3.373,3.373,0,0,0-.635-.057,1.146,1.146,0,0,0-.882.334,1.356,1.356,0,0,0-.311.958v.726H47.3v.908H45.834V84Zm7.06-5.814a3.519,3.519,0,0,0-.578-.044,1.547,1.547,0,0,0-1.568.984V84H48.4V77.132h1.143l.019.793A1.829,1.829,0,0,1,51.2,77a1.2,1.2,0,0,1,.521.089ZM56.591,84a2.467,2.467,0,0,1-.165-.724,2.62,2.62,0,0,1-1.955.851,2.424,2.424,0,0,1-1.666-.574,1.859,1.859,0,0,1-.651-1.457,1.942,1.942,0,0,1,.816-1.666,3.846,3.846,0,0,1,2.295-.594h1.143V79.3a1.319,1.319,0,0,0-.368-.981,1.48,1.48,0,0,0-1.085-.365,1.712,1.712,0,0,0-1.054.317.935.935,0,0,0-.425.768H52.293a1.621,1.621,0,0,1,.365-.993,2.491,2.491,0,0,1,.99-.759A3.331,3.331,0,0,1,55.023,77a2.715,2.715,0,0,1,1.86.594,2.141,2.141,0,0,1,.7,1.635v3.161a3.865,3.865,0,0,0,.241,1.5V84Zm-1.949-.9a2.064,2.064,0,0,0,1.047-.286,1.728,1.728,0,0,0,.717-.743V80.667h-.92q-2.158,0-2.158,1.263a1.069,1.069,0,0,0,.368.863A1.415,1.415,0,0,0,54.642,83.1Zm4.3-2.6a4.023,4.023,0,0,1,.749-2.542,2.548,2.548,0,0,1,3.872-.136V74.25h1.174V84H63.657l-.057-.736a2.391,2.391,0,0,1-1.961.863,2.346,2.346,0,0,1-1.946-.978,4.069,4.069,0,0,1-.752-2.552Zm1.174.133A3.046,3.046,0,0,0,60.6,82.47a1.56,1.56,0,0,0,1.333.66,1.713,1.713,0,0,0,1.631-1V78.973A1.726,1.726,0,0,0,61.943,78a1.567,1.567,0,0,0-1.346.667A3.354,3.354,0,0,0,60.115,80.642Zm5.937-.14a4.057,4.057,0,0,1,.4-1.815,2.96,2.96,0,0,1,1.1-1.244A3.007,3.007,0,0,1,69.169,77a2.9,2.9,0,0,1,2.269.971A3.736,3.736,0,0,1,72.3,80.56v.083a4.092,4.092,0,0,1-.384,1.8,2.916,2.916,0,0,1-1.1,1.241,3.041,3.041,0,0,1-1.641.444,2.889,2.889,0,0,1-2.263-.971,3.718,3.718,0,0,1-.866-2.571Zm1.181.14a2.938,2.938,0,0,0,.53,1.834,1.8,1.8,0,0,0,2.841-.01A3.213,3.213,0,0,0,71.13,80.5a2.933,2.933,0,0,0-.536-1.831,1.705,1.705,0,0,0-1.425-.7,1.686,1.686,0,0,0-1.4.692A3.189,3.189,0,0,0,67.233,80.642Zm6.375,2.742a.735.735,0,0,1,.181-.508.689.689,0,0,1,.543-.2.71.71,0,0,1,.549.2.721.721,0,0,1,.187.508.681.681,0,0,1-.187.489.723.723,0,0,1-.549.2.653.653,0,0,1-.724-.686Z" transform="translate(0 38.885)"/>
      <path id="Trazado_133711" data-name="Trazado 133711" d="M-33.867-2.777a3.08,3.08,0,0,1-1.008,2.13,3.436,3.436,0,0,1-2.338.765,3.327,3.327,0,0,1-1.8-.483,3.173,3.173,0,0,1-1.2-1.374,4.958,4.958,0,0,1-.439-2.068v-.8a4.994,4.994,0,0,1,.428-2.127A3.224,3.224,0,0,1-38.991-8.15a3.424,3.424,0,0,1,1.849-.5,3.3,3.3,0,0,1,2.273.765,3.2,3.2,0,0,1,1,2.165h-1.477a2.107,2.107,0,0,0-.536-1.327,1.772,1.772,0,0,0-1.263-.407,1.731,1.731,0,0,0-1.485.707,3.532,3.532,0,0,0-.53,2.073v.757a3.747,3.747,0,0,0,.5,2.111,1.643,1.643,0,0,0,1.45.727A1.917,1.917,0,0,0-35.9-1.471a2.047,2.047,0,0,0,.557-1.307ZM-30.979,0h-1.477V-8.531h1.477Zm6.738-3.615h-3.434V0h-1.482V-8.531h5.42v1.2h-3.937V-4.8h3.434Zm4.811.334h-1.652V0h-1.482V-8.531h3a3.49,3.49,0,0,1,2.279.663,2.344,2.344,0,0,1,.8,1.918A2.4,2.4,0,0,1-16.9-4.517a2.629,2.629,0,0,1-1.151.888l1.916,3.553V0h-1.588Zm-1.652-1.2h1.523a1.694,1.694,0,0,0,1.172-.378,1.318,1.318,0,0,0,.422-1.034,1.4,1.4,0,0,0-.39-1.061,1.655,1.655,0,0,0-1.163-.387h-1.564ZM-10.3-1.986h-3.3L-14.3,0h-1.541l3.223-8.531h1.33L-8.057,0H-9.6Zm-2.889-1.2h2.473l-1.236-3.539ZM-7.09,0V-8.531h2.52a3.952,3.952,0,0,1,2.007.5A3.436,3.436,0,0,1-1.207-6.6a4.538,4.538,0,0,1,.48,2.121v.428A4.519,4.519,0,0,1-1.21-1.916,3.4,3.4,0,0,1-2.587-.5,4.135,4.135,0,0,1-4.635,0Zm1.482-7.336v6.152h.967a2.226,2.226,0,0,0,1.79-.729,3.178,3.178,0,0,0,.636-2.095v-.475a3.261,3.261,0,0,0-.6-2.121A2.14,2.14,0,0,0-4.57-7.336ZM7.559-4.043a5.234,5.234,0,0,1-.434,2.2A3.278,3.278,0,0,1,5.886-.39,3.409,3.409,0,0,1,4.031.117,3.417,3.417,0,0,1,2.183-.39,3.329,3.329,0,0,1,.929-1.834,5.07,5.07,0,0,1,.48-4v-.48a5.189,5.189,0,0,1,.442-2.2A3.325,3.325,0,0,1,2.171-8.142,3.4,3.4,0,0,1,4.02-8.648a3.428,3.428,0,0,1,1.849.5A3.283,3.283,0,0,1,7.113-6.706a5.178,5.178,0,0,1,.445,2.188ZM6.076-4.488A3.729,3.729,0,0,0,5.54-6.662,1.754,1.754,0,0,0,4.02-7.418a1.749,1.749,0,0,0-1.5.753,3.657,3.657,0,0,0-.554,2.13v.492a3.7,3.7,0,0,0,.548,2.174A1.764,1.764,0,0,0,4.031-1.1a1.743,1.743,0,0,0,1.515-.75,3.781,3.781,0,0,0,.53-2.191Zm7.43,1.324V0H12.023V-8.531h3.264a3.3,3.3,0,0,1,2.271.745A2.5,2.5,0,0,1,18.4-5.815a2.422,2.422,0,0,1-.823,1.953,3.46,3.46,0,0,1-2.306.7Zm0-1.2h1.781a1.754,1.754,0,0,0,1.207-.372,1.367,1.367,0,0,0,.416-1.075,1.475,1.475,0,0,0-.422-1.1,1.626,1.626,0,0,0-1.16-.425H13.506Zm9.92,2.373h-3.3L19.43,0H17.889l3.223-8.531h1.33L25.67,0H24.123Zm-2.889-1.2H23.01L21.773-6.721Zm9.234-.1H28.119V0H26.637V-8.531h3a3.49,3.49,0,0,1,2.279.663,2.344,2.344,0,0,1,.8,1.918,2.4,2.4,0,0,1-.413,1.434,2.629,2.629,0,0,1-1.151.888L33.07-.076V0H31.482Zm-1.652-1.2h1.523a1.694,1.694,0,0,0,1.172-.378,1.318,1.318,0,0,0,.422-1.034,1.4,1.4,0,0,0-.39-1.061,1.655,1.655,0,0,0-1.163-.387H28.119ZM38.9-1.986H35.6L34.9,0H33.363l3.223-8.531h1.33L41.145,0H39.6Zm-2.889-1.2h2.473L37.248-6.721Z" transform="translate(53.971 12.397)" fill="#12263f"/>
    </g>
  </g>
</svg>
