<svg xmlns="http://www.w3.org/2000/svg" width="199.155" height="275.986" viewBox="0 0 199.155 275.986">
  <g id="Grupo_64261" data-name="Grupo 64261" transform="translate(-1010.017 -22239.063)">
    <g id="Grupo_64144" data-name="Grupo 64144" transform="translate(845.748 21600.803)">
      <g id="Grupo_64140" data-name="Grupo 64140" transform="translate(164.269 827.527)">
        <path id="Trazado_133401" data-name="Trazado 133401" d="M252.575,921.292H164.269V840.915a6.341,6.341,0,1,1,12.681,0v67.7h75.624a6.341,6.341,0,0,1,0,12.681Z" transform="translate(-164.269 -834.574)" fill="#37a3a5"/>
      </g>
      <path id="Trazado_133408" data-name="Trazado 133408" d="M334.777,658.021V640.053H170.848V907.894H334.777V711.459" transform="translate(-0.238 0)" fill="none" stroke="#12263f" stroke-linecap="round" stroke-miterlimit="10" stroke-width="3.588"/>
      <path id="Trazado_133409" data-name="Trazado 133409" d="M366.69,675.313l-8.711,43.251H254.412l8.711-43.251Z" transform="translate(-3.266 -12.277)" fill="#37a3a5"/>
      <g id="Grupo_64154" data-name="Grupo 64154" transform="translate(310.439 661.236)">
        <g id="Grupo_64153" data-name="Grupo 64153">
          <g id="Grupo_64152" data-name="Grupo 64152">
            <path id="Trazado_133469" data-name="Trazado 133469" d="M15.806-8.818q0,4.424-1.831,6.768A6.391,6.391,0,0,1,8.613.293a6.436,6.436,0,0,1-5.332-2.3A10.488,10.488,0,0,1,1.392-8.6v-3.926q0-4.468,1.853-6.782a6.439,6.439,0,0,1,5.339-2.314,6.445,6.445,0,0,1,5.332,2.292,10.456,10.456,0,0,1,1.89,6.584Zm-4.233-4.316A7.81,7.81,0,0,0,10.847-17a2.45,2.45,0,0,0-2.263-1.21,2.407,2.407,0,0,0-2.2,1.151,7.309,7.309,0,0,0-.754,3.6v5.191a8.2,8.2,0,0,0,.71,3.878A2.418,2.418,0,0,0,8.613-3.12a2.377,2.377,0,0,0,2.241-1.217,8,8,0,0,0,.718-3.724Zm7.72,2.646,1.23-10.84H32.476v3.53H23.994l-.527,4.585a6.712,6.712,0,0,1,3.208-.806,6.148,6.148,0,0,1,4.775,1.89,7.548,7.548,0,0,1,1.729,5.288,7.733,7.733,0,0,1-.872,3.7,6.152,6.152,0,0,1-2.5,2.534,7.8,7.8,0,0,1-3.838.9,8.28,8.28,0,0,1-3.589-.784,6.366,6.366,0,0,1-2.615-2.2A6.008,6.008,0,0,1,18.75-5.933h4.189a3.129,3.129,0,0,0,.93,2.073,2.949,2.949,0,0,0,2.087.74,2.6,2.6,0,0,0,2.212-1.033,4.784,4.784,0,0,0,.776-2.922,3.956,3.956,0,0,0-.894-2.783,3.279,3.279,0,0,0-2.534-.967,3.665,3.665,0,0,0-2.446.791l-.41.381Z" transform="translate(6 34)" fill="#12263f"/>
          </g>
        </g>
      </g>
      <g id="Grupo_64168" data-name="Grupo 64168" transform="translate(193.364 664.053)">
        <g id="Grupo_39107" data-name="Grupo 39107">
          <path id="Trazado_91710" data-name="Trazado 91710" d="M448.094,325.333H419.836a2.9,2.9,0,0,1-2.893-2.892l0-1.636a.671.671,0,0,1,.671-.672h0a.672.672,0,0,1,.672.671l0,1.637a1.551,1.551,0,0,0,1.549,1.549h28.257a1.551,1.551,0,0,0,1.549-1.548V318a1.551,1.551,0,0,0-1.549-1.548H419.836A1.551,1.551,0,0,0,418.288,318v.811a.672.672,0,1,1-1.344,0V318a2.9,2.9,0,0,1,2.893-2.892h28.257A2.9,2.9,0,0,1,450.986,318v4.441A2.9,2.9,0,0,1,448.094,325.333Z" transform="translate(-416.942 -315.108)" fill="#00223d"/>
        </g>
        <g id="Grupo_39109" data-name="Grupo 39109" transform="translate(26.02 3.029)">
          <path id="Trazado_91711" data-name="Trazado 91711" d="M463.191,324.418a2.085,2.085,0,1,1,2.086-2.085A2.087,2.087,0,0,1,463.191,324.418Zm0-2.826a.741.741,0,0,0-.741.741.733.733,0,0,0,.741.741.742.742,0,0,0,.742-.741A.751.751,0,0,0,463.191,321.593Z" transform="translate(-461.107 -320.249)"/>
        </g>
        <g id="Grupo_39112" data-name="Grupo 39112" transform="translate(4.211 3.031)">
          <path id="Trazado_91714" data-name="Trazado 91714" d="M424.762,324.422a.671.671,0,0,1-.672-.672v-2.826a.672.672,0,1,1,1.344,0v2.826A.672.672,0,0,1,424.762,324.422Z" transform="translate(-424.09 -320.253)" fill="#00223d"/>
        </g>
        <g id="Grupo_39113" data-name="Grupo 39113" transform="translate(8.248 3.031)">
          <path id="Trazado_91715" data-name="Trazado 91715" d="M431.614,324.422a.671.671,0,0,1-.672-.672v-2.826a.672.672,0,1,1,1.344,0v2.826A.671.671,0,0,1,431.614,324.422Z" transform="translate(-430.942 -320.253)" fill="#00223d"/>
        </g>
        <g id="Grupo_39114" data-name="Grupo 39114" transform="translate(12.285 3.031)">
          <path id="Trazado_91716" data-name="Trazado 91716" d="M438.505,324.422a.672.672,0,0,1-.672-.662l-.038-2.826a.672.672,0,0,1,.662-.681h.009a.672.672,0,0,1,.672.663l.039,2.826a.671.671,0,0,1-.663.681Z" transform="translate(-437.795 -320.253)" fill="#00223d"/>
        </g>
        <g id="Grupo_39115" data-name="Grupo 39115" transform="translate(0 12.543)">
          <path id="Trazado_91717" data-name="Trazado 91717" d="M439.122,346.623H419.834a2.9,2.9,0,0,1-2.892-2.892v-4.44a2.9,2.9,0,0,1,2.892-2.892h28.258a2.833,2.833,0,0,1,.741.1.672.672,0,0,1-.114,1.317c-.01,0-.035.017-.062.028l-8.041,3.481a1.358,1.358,0,0,0-.823,1.241v3.391A.671.671,0,0,1,439.122,346.623Zm-19.288-8.881a1.55,1.55,0,0,0-1.548,1.548v4.44a1.55,1.55,0,0,0,1.548,1.549h18.616V342.56a2.7,2.7,0,0,1,1.631-2.473l5.418-2.345Z" transform="translate(-416.942 -336.398)" fill="#00223d"/>
        </g>
        <g id="Grupo_39116" data-name="Grupo 39116" transform="translate(4.211 15.579)">
          <path id="Trazado_91718" data-name="Trazado 91718" d="M424.762,345.721a.672.672,0,0,1-.672-.672v-2.826a.672.672,0,1,1,1.344,0v2.826A.672.672,0,0,1,424.762,345.721Z" transform="translate(-424.09 -341.551)" fill="#00223d"/>
        </g>
        <g id="Grupo_39117" data-name="Grupo 39117" transform="translate(8.248 15.579)">
          <path id="Trazado_91719" data-name="Trazado 91719" d="M431.614,345.721a.672.672,0,0,1-.672-.672v-2.826a.672.672,0,1,1,1.344,0v2.826A.672.672,0,0,1,431.614,345.721Z" transform="translate(-430.942 -341.551)" fill="#00223d"/>
        </g>
        <g id="Grupo_39118" data-name="Grupo 39118" transform="translate(12.285 15.579)">
          <path id="Trazado_91720" data-name="Trazado 91720" d="M438.505,345.721a.672.672,0,0,1-.672-.663l-.038-2.826a.671.671,0,0,1,.662-.681h.009a.672.672,0,0,1,.672.663l.039,2.826a.671.671,0,0,1-.663.681Z" transform="translate(-437.795 -341.552)" fill="#00223d"/>
        </g>
        <g id="Grupo_39119" data-name="Grupo 39119" transform="translate(0.009 25.105)">
          <path id="Trazado_91721" data-name="Trazado 91721" d="M442.657,367.946H419.849a2.9,2.9,0,0,1-2.892-2.892v-1.423a.672.672,0,0,1,1.343,0v1.423a1.551,1.551,0,0,0,1.549,1.548h21.315a15.042,15.042,0,0,1-2.1-3.49,7.5,7.5,0,0,1-.61-3v-1.048H419.849a1.551,1.551,0,0,0-1.549,1.549v1.3a.672.672,0,1,1-1.343,0v-1.3a2.9,2.9,0,0,1,2.892-2.893h19.279a.672.672,0,0,1,.672.672v1.72a6.172,6.172,0,0,0,.5,2.47,13.817,13.817,0,0,0,2.835,4.222.671.671,0,0,1-.48,1.142Z" transform="translate(-416.957 -357.721)" fill="#00223d"/>
        </g>
        <g id="Grupo_39120" data-name="Grupo 39120" transform="translate(4.211 28.127)">
          <path id="Trazado_91722" data-name="Trazado 91722" d="M424.762,367.019a.671.671,0,0,1-.672-.672v-2.826a.672.672,0,0,1,1.344,0v2.826A.672.672,0,0,1,424.762,367.019Z" transform="translate(-424.09 -362.85)" fill="#00223d"/>
        </g>
        <g id="Grupo_39121" data-name="Grupo 39121" transform="translate(8.248 28.127)">
          <path id="Trazado_91723" data-name="Trazado 91723" d="M431.614,367.019a.671.671,0,0,1-.672-.672v-2.826a.672.672,0,0,1,1.344,0v2.826A.671.671,0,0,1,431.614,367.019Z" transform="translate(-430.942 -362.85)" fill="#00223d"/>
        </g>
        <g id="Grupo_39122" data-name="Grupo 39122" transform="translate(12.285 28.127)">
          <path id="Trazado_91724" data-name="Trazado 91724" d="M438.505,367.019a.672.672,0,0,1-.672-.663l-.038-2.826a.671.671,0,0,1,.662-.681h.009a.672.672,0,0,1,.672.663l.039,2.826a.672.672,0,0,1-.663.681Z" transform="translate(-437.795 -362.85)" fill="#00223d"/>
        </g>
        <g id="Grupo_39125" data-name="Grupo 39125" transform="translate(3.341 8.882)">
          <path id="Trazado_91725" data-name="Trazado 91725" d="M449.314,335.193H423.285a.671.671,0,0,1-.672-.672v-3.665a.672.672,0,0,1,.672-.672h26.029a.672.672,0,0,1,.672.672v3.665A.671.671,0,0,1,449.314,335.193Zm-25.357-1.343h24.685v-2.322H423.957Z" transform="translate(-422.613 -330.184)" fill="#00223d"/>
        </g>
        <g id="Grupo_39126" data-name="Grupo 39126" transform="translate(3.343 21.433)">
          <path id="Trazado_91726" data-name="Trazado 91726" d="M441.453,356.5H423.288a.671.671,0,0,1-.672-.672v-3.673a.671.671,0,0,1,.672-.672h18.165a.671.671,0,0,1,.672.672v3.673A.671.671,0,0,1,441.453,356.5ZM423.96,355.16h16.822v-2.33H423.96Z" transform="translate(-422.616 -351.487)" fill="#00223d"/>
        </g>
        <g id="Grupo_39129" data-name="Grupo 39129" transform="translate(21.509 12.599)">
          <path id="Trazado_91729" data-name="Trazado 91729" d="M463.81,362.834a1.691,1.691,0,0,1-.527-.083,14.871,14.871,0,0,1-9.223-8.36,7.5,7.5,0,0,1-.61-3V342.6a2.7,2.7,0,0,1,1.631-2.473l8.058-3.488a1.528,1.528,0,0,1,.456-.125,1.585,1.585,0,0,1,.9.13l8.047,3.482a2.708,2.708,0,0,1,1.624,2.474v3.391a.672.672,0,1,1-1.343,0V342.6a1.361,1.361,0,0,0-.818-1.243l-8.054-3.486a.306.306,0,0,0-.183-.027.468.468,0,0,0-.115.034l-8.041,3.481a1.358,1.358,0,0,0-.823,1.241v8.792a6.174,6.174,0,0,0,.5,2.47,13.52,13.52,0,0,0,8.41,7.614.428.428,0,0,0,.239-.009,13.709,13.709,0,0,0,8.39-7.605,6.28,6.28,0,0,0,.494-2.469v-3.556a.672.672,0,1,1,1.343,0v3.556a7.622,7.622,0,0,1-.6,3,14.984,14.984,0,0,1-9.142,8.328A1.554,1.554,0,0,1,463.81,362.834Z" transform="translate(-453.45 -336.493)" fill="#00223d"/>
        </g>
        <g id="Grupo_39132" data-name="Grupo 39132" transform="translate(24.393 15.905)">
          <path id="Trazado_91732" data-name="Trazado 91732" d="M465.817,361.875a.667.667,0,0,1-.225-.039,11.555,11.555,0,0,1-6.826-6.347,5.01,5.01,0,0,1-.4-1.982l-.021-7.784a.673.673,0,0,1,.4-.618l6.806-2.945a.67.67,0,0,1,.534,0l6.781,2.936a.672.672,0,0,1,.4.616v7.794a5,5,0,0,1-.4,1.977,11.552,11.552,0,0,1-6.839,6.353A.659.659,0,0,1,465.817,361.875Zm-6.127-15.713.019,7.343a3.672,3.672,0,0,0,.29,1.454,10.213,10.213,0,0,0,5.817,5.529,10.213,10.213,0,0,0,5.827-5.534,3.672,3.672,0,0,0,.288-1.447v-7.353l-6.108-2.645Z" transform="translate(-458.345 -342.104)" fill="#00223d"/>
        </g>
      </g>
    </g>
    <g id="Grupo_64150" data-name="Grupo 64150" transform="translate(1044.858 22318.654)">
      <g id="Grupo_61827" data-name="Grupo 61827" transform="translate(13.816 12.727)">
        <g id="Grupo_61826" data-name="Grupo 61826">
          <g id="Grupo_61825" data-name="Grupo 61825">
            <g id="Grupo_61824" data-name="Grupo 61824">
              <path id="Trazado_133467" data-name="Trazado 133467" d="M-33.083-2.834a1.056,1.056,0,0,0-.4-.879,4.961,4.961,0,0,0-1.4-.652,13.456,13.456,0,0,1-1.641-.652,3.107,3.107,0,0,1-2.073-2.8,2.509,2.509,0,0,1,.516-1.564,3.34,3.34,0,0,1,1.461-1.055,5.686,5.686,0,0,1,2.124-.377,4.974,4.974,0,0,1,2.062.41,3.264,3.264,0,0,1,1.417,1.168A3.051,3.051,0,0,1-30.513-7.5h-2.563a1.289,1.289,0,0,0-.4-1.011,1.556,1.556,0,0,0-1.08-.359,1.755,1.755,0,0,0-1.088.3.932.932,0,0,0-.4.773.939.939,0,0,0,.439.743,5.542,5.542,0,0,0,1.545.688,9.467,9.467,0,0,1,1.816.765,3.052,3.052,0,0,1,1.729,2.747,2.6,2.6,0,0,1-1.055,2.2,4.691,4.691,0,0,1-2.893.8,5.74,5.74,0,0,1-2.347-.465A3.539,3.539,0,0,1-38.39-1.593a3.321,3.321,0,0,1-.531-1.864h2.578A1.635,1.635,0,0,0-35.9-2.194a2.094,2.094,0,0,0,1.439.406,1.655,1.655,0,0,0,1.007-.275A.907.907,0,0,0-33.083-2.834Zm12.92-2.278a6.289,6.289,0,0,1-.579,2.761A4.276,4.276,0,0,1-22.386-.5a4.579,4.579,0,0,1-2.428.648A4.643,4.643,0,0,1-27.231-.48a4.269,4.269,0,0,1-1.644-1.791,6.108,6.108,0,0,1-.619-2.673v-.6a6.316,6.316,0,0,1,.575-2.765,4.266,4.266,0,0,1,1.648-1.849,4.61,4.61,0,0,1,2.443-.652,4.566,4.566,0,0,1,2.417.645A4.343,4.343,0,0,1-20.76-8.331a6.135,6.135,0,0,1,.6,2.728Zm-2.615-.447a4.484,4.484,0,0,0-.531-2.413,1.7,1.7,0,0,0-1.52-.824q-1.934,0-2.043,2.9l-.007.784a4.612,4.612,0,0,0,.52,2.41,1.7,1.7,0,0,0,1.545.842,1.68,1.68,0,0,0,1.5-.828,4.486,4.486,0,0,0,.535-2.38Zm10.657,1.311h-4.146V0h-2.571V-10.664H-11.7v1.985h-4.563v2.454h4.146Zm10-4.431h-3.2V0H-7.888V-8.679H-11.03v-1.985h8.914Zm9.456,4.7,1.223-6.687h2.549L8.848,0H6.182L4.753-6.079,3.354,0H.7L-1.575-10.664H.981L2.2-3.977l1.465-6.687H5.852ZM17.856-1.992H14.333L13.718,0H10.972l3.911-10.664H17.3L21.24,0H18.479ZM14.949-3.977h2.292l-1.15-3.7Zm11.03.205H24.587V0H22.017V-10.664h4.2a4.684,4.684,0,0,1,2.966.841,2.851,2.851,0,0,1,1.069,2.378A3.462,3.462,0,0,1,29.8-5.6a3.2,3.2,0,0,1-1.41,1.185L30.615-.11V0H27.861ZM24.587-5.75h1.626a1.459,1.459,0,0,0,1.1-.385,1.49,1.49,0,0,0,.37-1.076,1.508,1.508,0,0,0-.374-1.083,1.446,1.446,0,0,0-1.1-.393H24.587ZM38.416-4.526H34.373v2.549h4.775V0H31.8V-10.664h7.361v1.985h-4.79v2.249h4.043Z" transform="translate(39 16)" fill="#12263f"/>
            </g>
          </g>
        </g>
      </g>
      <path id="Trazado_133466" data-name="Trazado 133466" d="M32.314,9.728H28.308V13h4.653v1H27.09V4.758H32.9v1H28.308V8.731h4.005Zm3-2.6v7.662q0,1.98-1.8,1.98a2.191,2.191,0,0,1-.717-.114v-.934a2.27,2.27,0,0,0,.533.051.8.8,0,0,0,.6-.213,1.052,1.052,0,0,0,.206-.74V7.132ZM34.017,5.31a.7.7,0,0,1,.175-.479.642.642,0,0,1,.511-.2.666.666,0,0,1,.521.2.694.694,0,0,1,.178.482.671.671,0,0,1-.178.476.678.678,0,0,1-.521.19.657.657,0,0,1-.514-.19A.685.685,0,0,1,34.017,5.31Zm5.842,8.817a3,3,0,0,1-2.272-.917,3.4,3.4,0,0,1-.876-2.453v-.216a4.121,4.121,0,0,1,.39-1.825,3.045,3.045,0,0,1,1.092-1.257A2.745,2.745,0,0,1,39.712,7a2.572,2.572,0,0,1,2.082.882,3.82,3.82,0,0,1,.743,2.526V10.9H37.884a2.441,2.441,0,0,0,.594,1.641,1.866,1.866,0,0,0,1.444.625,2.045,2.045,0,0,0,1.054-.254,2.648,2.648,0,0,0,.755-.673l.717.559A2.884,2.884,0,0,1,39.858,14.127ZM39.712,7.97a1.566,1.566,0,0,0-1.193.517,2.515,2.515,0,0,0-.6,1.45h3.44V9.849a2.237,2.237,0,0,0-.482-1.387A1.475,1.475,0,0,0,39.712,7.97Zm6.743,5.2a1.692,1.692,0,0,0,1.1-.381,1.34,1.34,0,0,0,.521-.952h1.111a2.13,2.13,0,0,1-.406,1.124,2.676,2.676,0,0,1-1,.851,2.885,2.885,0,0,1-1.323.317,2.829,2.829,0,0,1-2.231-.936,3.729,3.729,0,0,1-.828-2.561v-.2a4.135,4.135,0,0,1,.368-1.784,2.8,2.8,0,0,1,1.057-1.212A3,3,0,0,1,46.449,7a2.755,2.755,0,0,1,1.92.692,2.473,2.473,0,0,1,.816,1.8H48.074a1.618,1.618,0,0,0-.5-1.095,1.57,1.57,0,0,0-1.12-.428,1.644,1.644,0,0,0-1.387.644,3.026,3.026,0,0,0-.492,1.863V10.7a2.965,2.965,0,0,0,.489,1.828A1.651,1.651,0,0,0,46.455,13.168Zm8.1.152a2.494,2.494,0,0,1-2.012.806,2.135,2.135,0,0,1-1.673-.638,2.761,2.761,0,0,1-.581-1.888V7.132h1.174v4.437q0,1.562,1.27,1.562a1.758,1.758,0,0,0,1.79-1v-5h1.174V14H54.576Zm4.325-7.852V7.132h1.282V8.04H58.875V12.3a.953.953,0,0,0,.171.62.721.721,0,0,0,.584.207,2.843,2.843,0,0,0,.559-.076V14a3.424,3.424,0,0,1-.9.126,1.462,1.462,0,0,1-1.187-.476,2.045,2.045,0,0,1-.4-1.352V8.04H56.45V7.132H57.7V5.469ZM65.573,14a2.467,2.467,0,0,1-.165-.724,2.62,2.62,0,0,1-1.955.851,2.424,2.424,0,0,1-1.666-.574,1.859,1.859,0,0,1-.651-1.457,1.942,1.942,0,0,1,.816-1.666,3.846,3.846,0,0,1,2.295-.594h1.143V9.3a1.319,1.319,0,0,0-.368-.981,1.48,1.48,0,0,0-1.085-.365,1.712,1.712,0,0,0-1.054.317.935.935,0,0,0-.425.768H61.276a1.621,1.621,0,0,1,.365-.993,2.491,2.491,0,0,1,.99-.759A3.331,3.331,0,0,1,64.006,7a2.715,2.715,0,0,1,1.86.594,2.141,2.141,0,0,1,.7,1.635v3.161a3.865,3.865,0,0,0,.241,1.5V14Zm-1.949-.9a2.064,2.064,0,0,0,1.047-.286,1.728,1.728,0,0,0,.717-.743V10.667h-.92q-2.158,0-2.158,1.263a1.069,1.069,0,0,0,.368.863A1.415,1.415,0,0,0,63.625,13.1Zm7.9-4.919a3.519,3.519,0,0,0-.578-.044,1.547,1.547,0,0,0-1.568.984V14H68.209V7.132h1.143l.019.793A1.829,1.829,0,0,1,71.009,7a1.2,1.2,0,0,1,.521.089Zm6.154,4.094,1.6-5.148H80.54L77.779,15.06q-.641,1.714-2.038,1.714l-.222-.019-.438-.083V15.72l.317.025a1.563,1.563,0,0,0,.93-.241,1.746,1.746,0,0,0,.549-.882l.26-.7-2.45-6.792H75.97ZM31.073,28a2.467,2.467,0,0,1-.165-.724,2.62,2.62,0,0,1-1.955.851,2.424,2.424,0,0,1-1.666-.574,1.859,1.859,0,0,1-.651-1.457,1.942,1.942,0,0,1,.816-1.666,3.846,3.846,0,0,1,2.295-.594h1.143V23.3a1.319,1.319,0,0,0-.368-.981,1.48,1.48,0,0,0-1.085-.365,1.712,1.712,0,0,0-1.054.317.935.935,0,0,0-.425.768H26.775a1.621,1.621,0,0,1,.365-.993,2.491,2.491,0,0,1,.99-.759A3.331,3.331,0,0,1,29.5,21a2.715,2.715,0,0,1,1.86.594,2.141,2.141,0,0,1,.7,1.635v3.161a3.865,3.865,0,0,0,.241,1.5V28Zm-1.949-.9a2.064,2.064,0,0,0,1.047-.286,1.728,1.728,0,0,0,.717-.743V24.667h-.92q-2.158,0-2.158,1.263a1.069,1.069,0,0,0,.368.863A1.415,1.415,0,0,0,29.124,27.1Zm7.34.063a1.692,1.692,0,0,0,1.1-.381,1.34,1.34,0,0,0,.521-.952h1.111a2.13,2.13,0,0,1-.406,1.124,2.676,2.676,0,0,1-1,.851,2.885,2.885,0,0,1-1.323.317,2.829,2.829,0,0,1-2.231-.936,3.729,3.729,0,0,1-.828-2.561v-.2a4.135,4.135,0,0,1,.368-1.784,2.8,2.8,0,0,1,1.057-1.212A3,3,0,0,1,36.457,21a2.755,2.755,0,0,1,1.92.692,2.473,2.473,0,0,1,.816,1.8H38.082a1.618,1.618,0,0,0-.5-1.095,1.57,1.57,0,0,0-1.12-.428,1.644,1.644,0,0,0-1.387.644,3.026,3.026,0,0,0-.492,1.863V24.7a2.965,2.965,0,0,0,.489,1.828A1.651,1.651,0,0,0,36.464,27.168Zm5.448-7.7v1.663h1.282v.908H41.912V26.3a.953.953,0,0,0,.171.62.721.721,0,0,0,.584.207,2.843,2.843,0,0,0,.559-.076V28a3.424,3.424,0,0,1-.9.126,1.462,1.462,0,0,1-1.187-.476,2.045,2.045,0,0,1-.4-1.352V22.04h-1.25v-.908h1.25V19.469Zm6.7,7.852a2.494,2.494,0,0,1-2.012.806,2.135,2.135,0,0,1-1.673-.638,2.761,2.761,0,0,1-.581-1.888V21.132h1.174v4.437q0,1.562,1.27,1.562a1.758,1.758,0,0,0,1.79-1v-5h1.174V28H48.636ZM55.582,28a2.467,2.467,0,0,1-.165-.724,2.62,2.62,0,0,1-1.955.851,2.424,2.424,0,0,1-1.666-.574,1.859,1.859,0,0,1-.651-1.457,1.942,1.942,0,0,1,.816-1.666,3.846,3.846,0,0,1,2.295-.594H55.4V23.3a1.319,1.319,0,0,0-.368-.981,1.48,1.48,0,0,0-1.085-.365,1.712,1.712,0,0,0-1.054.317.935.935,0,0,0-.425.768H51.284a1.621,1.621,0,0,1,.365-.993,2.491,2.491,0,0,1,.99-.759A3.331,3.331,0,0,1,54.014,21a2.715,2.715,0,0,1,1.86.594,2.141,2.141,0,0,1,.7,1.635v3.161a3.865,3.865,0,0,0,.241,1.5V28Zm-1.949-.9a2.064,2.064,0,0,0,1.047-.286,1.728,1.728,0,0,0,.717-.743V24.667h-.92q-2.158,0-2.158,1.263a1.069,1.069,0,0,0,.368.863A1.415,1.415,0,0,0,53.633,27.1Zm5.861.9H58.319V18.25h1.174Zm2.96,0H61.279V21.132h1.174Zm-1.27-8.69a.7.7,0,0,1,.175-.482.655.655,0,0,1,.517-.2.666.666,0,0,1,.521.2.694.694,0,0,1,.178.482.671.671,0,0,1-.178.476.678.678,0,0,1-.521.19.667.667,0,0,1-.517-.19A.678.678,0,0,1,61.184,19.31Zm4.058,7.731H69.26V28H63.807v-.863L67.6,22.1H63.865v-.971H69.07v.832ZM74.626,28a2.467,2.467,0,0,1-.165-.724,2.62,2.62,0,0,1-1.955.851,2.424,2.424,0,0,1-1.666-.574,1.859,1.859,0,0,1-.651-1.457A1.942,1.942,0,0,1,71,24.429a3.846,3.846,0,0,1,2.295-.594h1.143V23.3a1.319,1.319,0,0,0-.368-.981,1.48,1.48,0,0,0-1.085-.365,1.712,1.712,0,0,0-1.054.317.935.935,0,0,0-.425.768H70.328a1.621,1.621,0,0,1,.365-.993,2.491,2.491,0,0,1,.99-.759A3.331,3.331,0,0,1,73.058,21a2.715,2.715,0,0,1,1.86.594,2.141,2.141,0,0,1,.7,1.635v3.161a3.865,3.865,0,0,0,.241,1.5V28Zm-1.949-.9a2.064,2.064,0,0,0,1.047-.286,1.728,1.728,0,0,0,.717-.743V24.667h-.92q-2.158,0-2.158,1.263a1.069,1.069,0,0,0,.368.863A1.415,1.415,0,0,0,72.677,27.1Zm7.9-4.919A3.519,3.519,0,0,0,80,22.141a1.547,1.547,0,0,0-1.568.984V28H77.262V21.132H78.4l.019.793A1.829,1.829,0,0,1,80.061,21a1.2,1.2,0,0,1,.521.089ZM4.311,42a2.467,2.467,0,0,1-.165-.724,2.62,2.62,0,0,1-1.955.851,2.424,2.424,0,0,1-1.666-.574A1.859,1.859,0,0,1-.126,40.1,1.942,1.942,0,0,1,.69,38.429a3.846,3.846,0,0,1,2.295-.594H4.127V37.3a1.319,1.319,0,0,0-.368-.981,1.48,1.48,0,0,0-1.085-.365,1.712,1.712,0,0,0-1.054.317.935.935,0,0,0-.425.768H.014a1.621,1.621,0,0,1,.365-.993,2.491,2.491,0,0,1,.99-.759A3.331,3.331,0,0,1,2.743,35,2.715,2.715,0,0,1,4.6,35.6a2.141,2.141,0,0,1,.7,1.635v3.161a3.865,3.865,0,0,0,.241,1.5V42Zm-1.949-.9a2.064,2.064,0,0,0,1.047-.286,1.728,1.728,0,0,0,.717-.743V38.667h-.92q-2.158,0-2.158,1.263a1.069,1.069,0,0,0,.368.863A1.415,1.415,0,0,0,2.362,41.1Zm8.825.216a2.494,2.494,0,0,1-2.012.806A2.135,2.135,0,0,1,7.5,41.489,2.761,2.761,0,0,1,6.922,39.6V35.132H8.1v4.437q0,1.562,1.27,1.562a1.758,1.758,0,0,0,1.79-1v-5H12.33V42H11.213Zm4.325-7.852v1.663h1.282v.908H15.512V40.3a.953.953,0,0,0,.171.62.721.721,0,0,0,.584.207,2.843,2.843,0,0,0,.559-.076V42a3.424,3.424,0,0,1-.9.126,1.462,1.462,0,0,1-1.187-.476,2.045,2.045,0,0,1-.4-1.352V36.04h-1.25v-.908h1.25V33.469Zm2.02,5.034a4.057,4.057,0,0,1,.4-1.815,2.96,2.96,0,0,1,1.1-1.244A3.007,3.007,0,0,1,20.649,35a2.9,2.9,0,0,1,2.269.971,3.736,3.736,0,0,1,.866,2.583v.083a4.092,4.092,0,0,1-.384,1.8,2.916,2.916,0,0,1-1.1,1.241,3.041,3.041,0,0,1-1.641.444,2.889,2.889,0,0,1-2.263-.971,3.718,3.718,0,0,1-.866-2.571Zm1.181.14a2.938,2.938,0,0,0,.53,1.834,1.8,1.8,0,0,0,2.841-.01A3.213,3.213,0,0,0,22.61,38.5a2.933,2.933,0,0,0-.536-1.831,1.705,1.705,0,0,0-1.425-.7,1.686,1.686,0,0,0-1.4.692A3.189,3.189,0,0,0,18.713,38.642Zm7.454-3.51.032.762A2.536,2.536,0,0,1,28.236,35a1.964,1.964,0,0,1,1.961,1.1,2.6,2.6,0,0,1,.892-.8,2.634,2.634,0,0,1,1.3-.3q2.26,0,2.3,2.393V42H33.511V37.468a1.577,1.577,0,0,0-.336-1.1A1.482,1.482,0,0,0,32.045,36a1.557,1.557,0,0,0-1.085.39,1.584,1.584,0,0,0-.5,1.051V42H29.277V37.5A1.31,1.31,0,0,0,27.811,36a1.571,1.571,0,0,0-1.581.984V42H25.056V35.132ZM40.5,42a2.467,2.467,0,0,1-.165-.724,2.62,2.62,0,0,1-1.955.851,2.424,2.424,0,0,1-1.666-.574,1.859,1.859,0,0,1-.651-1.457,1.942,1.942,0,0,1,.816-1.666,3.846,3.846,0,0,1,2.295-.594h1.143V37.3a1.319,1.319,0,0,0-.368-.981,1.48,1.48,0,0,0-1.085-.365,1.712,1.712,0,0,0-1.054.317.935.935,0,0,0-.425.768H36.2a1.621,1.621,0,0,1,.365-.993,2.491,2.491,0,0,1,.99-.759A3.331,3.331,0,0,1,38.934,35a2.715,2.715,0,0,1,1.86.594,2.141,2.141,0,0,1,.7,1.635v3.161a3.865,3.865,0,0,0,.241,1.5V42Zm-1.949-.9a2.064,2.064,0,0,0,1.047-.286,1.728,1.728,0,0,0,.717-.743V38.667H39.4q-2.158,0-2.158,1.263a1.069,1.069,0,0,0,.368.863A1.415,1.415,0,0,0,38.553,41.1Zm1.085-8.855H41.06l-1.7,1.866-.946,0Zm5.093,1.219v1.663h1.282v.908H44.731V40.3a.953.953,0,0,0,.171.62.721.721,0,0,0,.584.207,2.843,2.843,0,0,0,.559-.076V42a3.424,3.424,0,0,1-.9.126,1.462,1.462,0,0,1-1.187-.476,2.045,2.045,0,0,1-.4-1.352V36.04h-1.25v-.908h1.25V33.469ZM48.465,42H47.291V35.132h1.174ZM47.2,33.31a.7.7,0,0,1,.175-.482.655.655,0,0,1,.517-.2.666.666,0,0,1,.521.2.694.694,0,0,1,.178.482.671.671,0,0,1-.178.476.678.678,0,0,1-.521.19.667.667,0,0,1-.517-.19A.678.678,0,0,1,47.2,33.31ZM52.9,41.168a1.692,1.692,0,0,0,1.1-.381,1.34,1.34,0,0,0,.521-.952h1.111a2.13,2.13,0,0,1-.406,1.124,2.676,2.676,0,0,1-1,.851,2.885,2.885,0,0,1-1.323.317,2.829,2.829,0,0,1-2.231-.936,3.729,3.729,0,0,1-.828-2.561v-.2a4.135,4.135,0,0,1,.368-1.784,2.8,2.8,0,0,1,1.057-1.212A3,3,0,0,1,52.9,35a2.755,2.755,0,0,1,1.92.692,2.473,2.473,0,0,1,.816,1.8H54.523a1.618,1.618,0,0,0-.5-1.095,1.57,1.57,0,0,0-1.12-.428,1.644,1.644,0,0,0-1.387.644,3.026,3.026,0,0,0-.492,1.863V38.7a2.965,2.965,0,0,0,.489,1.828A1.651,1.651,0,0,0,52.9,41.168ZM61,42a2.467,2.467,0,0,1-.165-.724,2.62,2.62,0,0,1-1.955.851,2.424,2.424,0,0,1-1.666-.574,1.859,1.859,0,0,1-.651-1.457,1.942,1.942,0,0,1,.816-1.666,3.846,3.846,0,0,1,2.295-.594h1.143V37.3a1.319,1.319,0,0,0-.368-.981,1.48,1.48,0,0,0-1.085-.365,1.712,1.712,0,0,0-1.054.317.935.935,0,0,0-.425.768H56.7a1.621,1.621,0,0,1,.365-.993,2.491,2.491,0,0,1,.99-.759A3.331,3.331,0,0,1,59.431,35a2.715,2.715,0,0,1,1.86.594,2.141,2.141,0,0,1,.7,1.635v3.161a3.865,3.865,0,0,0,.241,1.5V42Zm-1.949-.9a2.064,2.064,0,0,0,1.047-.286,1.728,1.728,0,0,0,.717-.743V38.667h-.92q-2.158,0-2.158,1.263a1.069,1.069,0,0,0,.368.863A1.415,1.415,0,0,0,59.05,41.1Zm5.689-5.973.032.762A2.536,2.536,0,0,1,66.809,35a1.964,1.964,0,0,1,1.961,1.1,2.6,2.6,0,0,1,.892-.8,2.634,2.634,0,0,1,1.3-.3q2.26,0,2.3,2.393V42H72.084V37.468a1.577,1.577,0,0,0-.336-1.1A1.482,1.482,0,0,0,70.618,36a1.557,1.557,0,0,0-1.085.39,1.584,1.584,0,0,0-.5,1.051V42H67.85V37.5A1.31,1.31,0,0,0,66.384,36a1.571,1.571,0,0,0-1.581.984V42H63.629V35.132Zm12.945,7a3,3,0,0,1-2.272-.917,3.4,3.4,0,0,1-.876-2.453v-.216a4.121,4.121,0,0,1,.39-1.825,3.045,3.045,0,0,1,1.092-1.257A2.745,2.745,0,0,1,77.538,35a2.572,2.572,0,0,1,2.082.882,3.82,3.82,0,0,1,.743,2.526V38.9H75.71a2.441,2.441,0,0,0,.594,1.641,1.866,1.866,0,0,0,1.444.625,2.045,2.045,0,0,0,1.054-.254,2.648,2.648,0,0,0,.755-.673l.717.559A2.884,2.884,0,0,1,77.684,42.127Zm-.146-6.157a1.566,1.566,0,0,0-1.193.517,2.515,2.515,0,0,0-.6,1.45h3.44v-.089a2.237,2.237,0,0,0-.482-1.387A1.475,1.475,0,0,0,77.538,35.97Zm5.1-.838.038.863A2.5,2.5,0,0,1,84.732,35q2.177,0,2.2,2.457V42H85.754V37.455a1.581,1.581,0,0,0-.34-1.1A1.361,1.361,0,0,0,84.376,36a1.7,1.7,0,0,0-1,.3,2.069,2.069,0,0,0-.673.8V42H81.526V35.132Zm7.46-1.663v1.663H91.38v.908H90.1V40.3a.953.953,0,0,0,.171.62.721.721,0,0,0,.584.207,2.843,2.843,0,0,0,.559-.076V42a3.424,3.424,0,0,1-.9.126,1.462,1.462,0,0,1-1.187-.476,2.045,2.045,0,0,1-.4-1.352V36.04h-1.25v-.908h1.25V33.469Zm5.308,8.658a3,3,0,0,1-2.272-.917,3.4,3.4,0,0,1-.876-2.453v-.216a4.121,4.121,0,0,1,.39-1.825,3.045,3.045,0,0,1,1.092-1.257A2.745,2.745,0,0,1,95.26,35a2.572,2.572,0,0,1,2.082.882,3.82,3.82,0,0,1,.743,2.526V38.9H93.432a2.441,2.441,0,0,0,.594,1.641,1.866,1.866,0,0,0,1.444.625,2.045,2.045,0,0,0,1.054-.254,2.648,2.648,0,0,0,.755-.673L98,40.8A2.884,2.884,0,0,1,95.406,42.127ZM95.26,35.97a1.566,1.566,0,0,0-1.193.517,2.515,2.515,0,0,0-.6,1.45h3.44v-.089a2.237,2.237,0,0,0-.482-1.387A1.475,1.475,0,0,0,95.26,35.97Zm9.258,4.31,1.6-5.148h1.257l-2.761,7.928q-.641,1.714-2.038,1.714l-.222-.019-.438-.083V43.72l.317.025a1.563,1.563,0,0,0,.93-.241,1.746,1.746,0,0,0,.549-.882l.26-.7-2.45-6.792H102.8Zm-97,12.229a4.023,4.023,0,0,1,.749-2.542A2.369,2.369,0,0,1,10.225,49a2.382,2.382,0,0,1,1.911.825V46.25H13.31V56H12.231l-.057-.736a2.391,2.391,0,0,1-1.961.863,2.346,2.346,0,0,1-1.946-.978A4.069,4.069,0,0,1,7.514,52.6Zm1.174.133a3.046,3.046,0,0,0,.482,1.828,1.56,1.56,0,0,0,1.333.66,1.713,1.713,0,0,0,1.631-1V50.973A1.726,1.726,0,0,0,10.517,50a1.567,1.567,0,0,0-1.346.667A3.354,3.354,0,0,0,8.689,52.642Zm9.1,3.485a3,3,0,0,1-2.272-.917,3.4,3.4,0,0,1-.876-2.453v-.216a4.121,4.121,0,0,1,.39-1.825,3.045,3.045,0,0,1,1.092-1.257A2.745,2.745,0,0,1,17.641,49a2.572,2.572,0,0,1,2.082.882,3.82,3.82,0,0,1,.743,2.526V52.9H15.813a2.441,2.441,0,0,0,.594,1.641,1.866,1.866,0,0,0,1.444.625,2.045,2.045,0,0,0,1.054-.254,2.648,2.648,0,0,0,.755-.673l.717.559A2.884,2.884,0,0,1,17.787,56.127Zm-.146-6.157a1.566,1.566,0,0,0-1.193.517,2.515,2.515,0,0,0-.6,1.45h3.44v-.089a2.237,2.237,0,0,0-.482-1.387A1.475,1.475,0,0,0,17.641,49.97ZM25.23,56V50.04H24.144v-.908H25.23v-.7a2.339,2.339,0,0,1,.59-1.708,2.23,2.23,0,0,1,1.669-.6,3.1,3.1,0,0,1,.806.107l-.063.946a3.373,3.373,0,0,0-.635-.057,1.146,1.146,0,0,0-.882.334,1.356,1.356,0,0,0-.311.958v.726H27.87v.908H26.4V56Zm3.43-3.5a4.057,4.057,0,0,1,.4-1.815,2.96,2.96,0,0,1,1.1-1.244A3.007,3.007,0,0,1,31.776,49a2.9,2.9,0,0,1,2.269.971,3.736,3.736,0,0,1,.866,2.583v.083a4.092,4.092,0,0,1-.384,1.8,2.916,2.916,0,0,1-1.1,1.241,3.041,3.041,0,0,1-1.641.444,2.889,2.889,0,0,1-2.263-.971,3.718,3.718,0,0,1-.866-2.571Zm1.181.14a2.938,2.938,0,0,0,.53,1.834,1.8,1.8,0,0,0,2.841-.01,3.213,3.213,0,0,0,.527-1.965,2.933,2.933,0,0,0-.536-1.831,1.705,1.705,0,0,0-1.425-.7,1.686,1.686,0,0,0-1.4.692A3.189,3.189,0,0,0,29.84,52.642Zm9.669-2.457a3.519,3.519,0,0,0-.578-.044,1.547,1.547,0,0,0-1.568.984V56H36.189V49.132h1.143l.019.793A1.829,1.829,0,0,1,38.989,49a1.2,1.2,0,0,1,.521.089ZM41.5,49.132l.032.762A2.536,2.536,0,0,1,43.567,49a1.964,1.964,0,0,1,1.961,1.1,2.6,2.6,0,0,1,.892-.8,2.634,2.634,0,0,1,1.3-.3q2.26,0,2.3,2.393V56H48.842V51.468a1.577,1.577,0,0,0-.336-1.1A1.482,1.482,0,0,0,47.376,50a1.557,1.557,0,0,0-1.085.39,1.584,1.584,0,0,0-.5,1.051V56H44.608V51.5A1.31,1.31,0,0,0,43.142,50a1.571,1.571,0,0,0-1.581.984V56H40.387V49.132ZM55.833,56a2.467,2.467,0,0,1-.165-.724,2.62,2.62,0,0,1-1.955.851,2.424,2.424,0,0,1-1.666-.574A1.859,1.859,0,0,1,51.4,54.1a1.942,1.942,0,0,1,.816-1.666,3.846,3.846,0,0,1,2.295-.594h1.143V51.3a1.319,1.319,0,0,0-.368-.981,1.48,1.48,0,0,0-1.085-.365,1.712,1.712,0,0,0-1.054.317.935.935,0,0,0-.425.768H51.535a1.621,1.621,0,0,1,.365-.993,2.491,2.491,0,0,1,.99-.759A3.331,3.331,0,0,1,54.265,49a2.715,2.715,0,0,1,1.86.594,2.141,2.141,0,0,1,.7,1.635v3.161a3.865,3.865,0,0,0,.241,1.5V56Zm-1.949-.9a2.064,2.064,0,0,0,1.047-.286,1.728,1.728,0,0,0,.717-.743V52.667h-.92q-2.158,0-2.158,1.263a1.069,1.069,0,0,0,.368.863A1.415,1.415,0,0,0,53.884,55.1Zm10.928-4.919a3.519,3.519,0,0,0-.578-.044,1.547,1.547,0,0,0-1.568.984V56H61.492V49.132h1.143l.019.793A1.829,1.829,0,0,1,64.291,49a1.2,1.2,0,0,1,.521.089Zm3.734,5.941a3,3,0,0,1-2.272-.917,3.4,3.4,0,0,1-.876-2.453v-.216a4.121,4.121,0,0,1,.39-1.825,3.045,3.045,0,0,1,1.092-1.257A2.745,2.745,0,0,1,68.4,49a2.572,2.572,0,0,1,2.082.882,3.82,3.82,0,0,1,.743,2.526V52.9H66.572a2.441,2.441,0,0,0,.594,1.641,1.866,1.866,0,0,0,1.444.625,2.045,2.045,0,0,0,1.054-.254,2.648,2.648,0,0,0,.755-.673l.717.559A2.884,2.884,0,0,1,68.546,56.127ZM68.4,49.97a1.566,1.566,0,0,0-1.193.517,2.515,2.515,0,0,0-.6,1.45h3.44v-.089a2.237,2.237,0,0,0-.482-1.387A1.475,1.475,0,0,0,68.4,49.97Zm3.709,2.539a4.037,4.037,0,0,1,.743-2.555,2.56,2.56,0,0,1,3.929-.06l.057-.762H77.91v6.7a2.794,2.794,0,0,1-.79,2.1A2.916,2.916,0,0,1,75,58.7a3.532,3.532,0,0,1-1.454-.317,2.5,2.5,0,0,1-1.085-.87l.609-.7a2.3,2.3,0,0,0,1.847.933,1.8,1.8,0,0,0,1.336-.482A1.844,1.844,0,0,0,76.73,55.9v-.59a2.414,2.414,0,0,1-1.923.813,2.346,2.346,0,0,1-1.952-.971A4.244,4.244,0,0,1,72.109,52.509Zm1.181.133a3.08,3.08,0,0,0,.476,1.825,1.547,1.547,0,0,0,1.333.663,1.72,1.72,0,0,0,1.631-1.009V50.985A1.74,1.74,0,0,0,75.111,50a1.561,1.561,0,0,0-1.339.667A3.354,3.354,0,0,0,73.289,52.642Zm10.437,2.679a2.494,2.494,0,0,1-2.012.806,2.135,2.135,0,0,1-1.673-.638,2.761,2.761,0,0,1-.581-1.888V49.132h1.174v4.437q0,1.562,1.27,1.562a1.758,1.758,0,0,0,1.79-1v-5h1.174V56H83.752ZM87.734,56H86.56V46.25h1.174Zm5.924,0a2.467,2.467,0,0,1-.165-.724,2.62,2.62,0,0,1-1.955.851,2.424,2.424,0,0,1-1.666-.574,1.859,1.859,0,0,1-.651-1.457,1.942,1.942,0,0,1,.816-1.666,3.846,3.846,0,0,1,2.295-.594h1.143V51.3a1.319,1.319,0,0,0-.368-.981,1.48,1.48,0,0,0-1.085-.365,1.712,1.712,0,0,0-1.054.317.935.935,0,0,0-.425.768H89.361a1.621,1.621,0,0,1,.365-.993,2.491,2.491,0,0,1,.99-.759A3.331,3.331,0,0,1,92.09,49a2.715,2.715,0,0,1,1.86.594,2.141,2.141,0,0,1,.7,1.635v3.161a3.865,3.865,0,0,0,.241,1.5V56Zm-1.949-.9a2.064,2.064,0,0,0,1.047-.286,1.728,1.728,0,0,0,.717-.743V52.667h-.92q-2.158,0-2.158,1.263a1.069,1.069,0,0,0,.368.863A1.415,1.415,0,0,0,91.709,55.1Zm7.9-4.919a3.519,3.519,0,0,0-.578-.044,1.547,1.547,0,0,0-1.568.984V56H96.294V49.132h1.143l.019.793A1.829,1.829,0,0,1,99.093,49a1.2,1.2,0,0,1,.521.089ZM17.275,70H16.1V60.25h1.174Zm1.373-3.5a4.057,4.057,0,0,1,.4-1.815,2.96,2.96,0,0,1,1.1-1.244A3.007,3.007,0,0,1,21.764,63a2.9,2.9,0,0,1,2.269.971A3.736,3.736,0,0,1,24.9,66.56v.083a4.092,4.092,0,0,1-.384,1.8,2.916,2.916,0,0,1-1.1,1.241,3.041,3.041,0,0,1-1.641.444,2.889,2.889,0,0,1-2.263-.971,3.718,3.718,0,0,1-.866-2.571Zm1.181.14a2.938,2.938,0,0,0,.53,1.834,1.8,1.8,0,0,0,2.841-.01,3.213,3.213,0,0,0,.527-1.965,2.933,2.933,0,0,0-.536-1.831,1.705,1.705,0,0,0-1.425-.7,1.686,1.686,0,0,0-1.4.692A3.189,3.189,0,0,0,19.828,66.642Zm10.348,1.536a.865.865,0,0,0-.359-.74,3.452,3.452,0,0,0-1.25-.454,5.912,5.912,0,0,1-1.416-.457,2.014,2.014,0,0,1-.774-.635,1.518,1.518,0,0,1-.251-.876,1.782,1.782,0,0,1,.714-1.428A2.789,2.789,0,0,1,28.666,63a2.87,2.87,0,0,1,1.895.6,1.915,1.915,0,0,1,.727,1.542H30.107a1.06,1.06,0,0,0-.409-.832,1.534,1.534,0,0,0-1.031-.349,1.606,1.606,0,0,0-1,.279.879.879,0,0,0-.362.73.712.712,0,0,0,.336.641,4.139,4.139,0,0,0,1.216.413,6.334,6.334,0,0,1,1.425.47,2.079,2.079,0,0,1,.809.657,1.615,1.615,0,0,1,.263.936,1.758,1.758,0,0,1-.736,1.476,3.089,3.089,0,0,1-1.911.555,3.459,3.459,0,0,1-1.46-.292,2.375,2.375,0,0,1-.993-.816,1.966,1.966,0,0,1-.359-1.133h1.174a1.216,1.216,0,0,0,.473.936,1.835,1.835,0,0,0,1.165.346,1.894,1.894,0,0,0,1.07-.27A.829.829,0,0,0,30.177,68.178ZM39.949,70a2.467,2.467,0,0,1-.165-.724,2.62,2.62,0,0,1-1.955.851,2.424,2.424,0,0,1-1.666-.574,1.859,1.859,0,0,1-.651-1.457,1.942,1.942,0,0,1,.816-1.666,3.846,3.846,0,0,1,2.295-.594h1.143V65.3a1.319,1.319,0,0,0-.368-.981,1.48,1.48,0,0,0-1.085-.365,1.712,1.712,0,0,0-1.054.317.935.935,0,0,0-.425.768H35.652a1.621,1.621,0,0,1,.365-.993,2.491,2.491,0,0,1,.99-.759A3.331,3.331,0,0,1,38.382,63a2.715,2.715,0,0,1,1.86.594,2.141,2.141,0,0,1,.7,1.635v3.161a3.865,3.865,0,0,0,.241,1.5V70ZM38,69.1a2.064,2.064,0,0,0,1.047-.286,1.728,1.728,0,0,0,.717-.743V66.667h-.92q-2.158,0-2.158,1.263a1.069,1.069,0,0,0,.368.863A1.415,1.415,0,0,0,38,69.1Zm5.7-5.973.038.863A2.5,2.5,0,0,1,45.791,63q2.177,0,2.2,2.457V70H46.813V65.455a1.581,1.581,0,0,0-.34-1.1A1.361,1.361,0,0,0,45.436,64a1.7,1.7,0,0,0-1,.3,2.069,2.069,0,0,0-.673.8V70H42.586V63.132Zm7.46-1.663v1.663h1.282v.908H51.157V68.3a.953.953,0,0,0,.171.62.721.721,0,0,0,.584.207,2.843,2.843,0,0,0,.559-.076V70a3.424,3.424,0,0,1-.9.126,1.462,1.462,0,0,1-1.187-.476,2.045,2.045,0,0,1-.4-1.352V64.04h-1.25v-.908h1.25V61.469ZM54.891,70H53.717V63.132h1.174Zm-1.27-8.69a.7.7,0,0,1,.175-.482.655.655,0,0,1,.517-.2.666.666,0,0,1,.521.2.694.694,0,0,1,.178.482.671.671,0,0,1-.178.476.678.678,0,0,1-.521.19.667.667,0,0,1-.517-.19A.678.678,0,0,1,53.621,61.31Zm5.22,7.1,1.7-5.275h1.2L59.279,70h-.9L55.9,63.132h1.2ZM63.952,70H62.778V63.132h1.174Zm-1.27-8.69a.7.7,0,0,1,.175-.482.655.655,0,0,1,.517-.2.666.666,0,0,1,.521.2.694.694,0,0,1,.178.482.671.671,0,0,1-.178.476.678.678,0,0,1-.521.19.667.667,0,0,1-.517-.19A.678.678,0,0,1,62.683,61.31Zm6.273,2.875a3.519,3.519,0,0,0-.578-.044,1.547,1.547,0,0,0-1.568.984V70H65.636V63.132h1.143l.019.793A1.829,1.829,0,0,1,68.436,63a1.2,1.2,0,0,1,.521.089Zm5.124,5.135a2.494,2.494,0,0,1-2.012.806,2.135,2.135,0,0,1-1.673-.638,2.761,2.761,0,0,1-.581-1.888V63.132h1.174v4.437q0,1.562,1.27,1.562a1.758,1.758,0,0,0,1.79-1v-5h1.174V70H74.106Zm6.73-1.143a.864.864,0,0,0-.359-.74,3.452,3.452,0,0,0-1.25-.454,5.912,5.912,0,0,1-1.416-.457,2.014,2.014,0,0,1-.774-.635,1.518,1.518,0,0,1-.251-.876,1.782,1.782,0,0,1,.714-1.428A2.789,2.789,0,0,1,79.3,63a2.87,2.87,0,0,1,1.895.6,1.915,1.915,0,0,1,.727,1.542H80.741a1.06,1.06,0,0,0-.409-.832A1.534,1.534,0,0,0,79.3,63.97a1.606,1.606,0,0,0-1,.279.879.879,0,0,0-.362.73.712.712,0,0,0,.336.641,4.139,4.139,0,0,0,1.216.413,6.334,6.334,0,0,1,1.425.47,2.079,2.079,0,0,1,.809.657,1.615,1.615,0,0,1,.263.936,1.758,1.758,0,0,1-.736,1.476,3.089,3.089,0,0,1-1.911.555,3.459,3.459,0,0,1-1.46-.292,2.375,2.375,0,0,1-.993-.816,1.966,1.966,0,0,1-.359-1.133H77.7a1.216,1.216,0,0,0,.473.936,1.835,1.835,0,0,0,1.165.346,1.894,1.894,0,0,0,1.07-.27A.829.829,0,0,0,80.811,68.178Zm7.779.1,1.6-5.148h1.257L88.685,71.06q-.641,1.714-2.038,1.714l-.222-.019-.438-.083V71.72l.317.025a1.563,1.563,0,0,0,.93-.241,1.746,1.746,0,0,0,.549-.882l.26-.7-2.45-6.792h1.282ZM20.5,84V78.04H19.41v-.908H20.5v-.584a2.386,2.386,0,0,1,.657-1.79,2.548,2.548,0,0,1,1.857-.641,5.591,5.591,0,0,1,1.8.387l-.2.99a4.069,4.069,0,0,0-1.511-.317,1.478,1.478,0,0,0-1.089.34,1.4,1.4,0,0,0-.333,1.019v.6h1.4v.908h-1.4V84Zm4.894,0H24.209V77.132H25.39Zm5.035-5.814a3.519,3.519,0,0,0-.578-.044,1.547,1.547,0,0,0-1.568.984V84H27.105V77.132h1.143l.019.793A1.829,1.829,0,0,1,29.9,77a1.2,1.2,0,0,1,.521.089Zm3.734,5.941a3,3,0,0,1-2.272-.917,3.4,3.4,0,0,1-.876-2.453v-.216a4.121,4.121,0,0,1,.39-1.825,3.045,3.045,0,0,1,1.092-1.257A2.745,2.745,0,0,1,34.014,77a2.572,2.572,0,0,1,2.082.882,3.82,3.82,0,0,1,.743,2.526V80.9H32.185a2.441,2.441,0,0,0,.594,1.641,1.866,1.866,0,0,0,1.444.625,2.045,2.045,0,0,0,1.054-.254,2.648,2.648,0,0,0,.755-.673l.717.559A2.884,2.884,0,0,1,34.16,84.127Zm-.146-6.157a1.566,1.566,0,0,0-1.193.517,2.515,2.515,0,0,0-.6,1.45h3.44v-.089a2.237,2.237,0,0,0-.482-1.387A1.475,1.475,0,0,0,34.014,77.97Zm10.069,4.412,1.32-5.25h1.174l-2,6.868h-.952l-1.669-5.205L40.331,84h-.952l-1.993-6.868h1.168l1.352,5.142,1.6-5.142h.946ZM51.816,84a2.467,2.467,0,0,1-.165-.724,2.62,2.62,0,0,1-1.955.851,2.424,2.424,0,0,1-1.666-.574,1.859,1.859,0,0,1-.651-1.457,1.942,1.942,0,0,1,.816-1.666,3.846,3.846,0,0,1,2.295-.594h1.143V79.3a1.319,1.319,0,0,0-.368-.981,1.48,1.48,0,0,0-1.085-.365,1.712,1.712,0,0,0-1.054.317.935.935,0,0,0-.425.768H47.519a1.621,1.621,0,0,1,.365-.993,2.491,2.491,0,0,1,.99-.759A3.331,3.331,0,0,1,50.248,77a2.715,2.715,0,0,1,1.86.594,2.141,2.141,0,0,1,.7,1.635v3.161a3.865,3.865,0,0,0,.241,1.5V84Zm-1.949-.9a2.064,2.064,0,0,0,1.047-.286,1.728,1.728,0,0,0,.717-.743V80.667h-.92q-2.158,0-2.158,1.263a1.069,1.069,0,0,0,.368.863A1.415,1.415,0,0,0,49.867,83.1Zm5.861.9H54.554V74.25h1.174Zm2.96,0H57.513V74.25h1.174ZM69.2,80.642a4.113,4.113,0,0,1-.717,2.526,2.3,2.3,0,0,1-1.942.958,2.519,2.519,0,0,1-1.968-.793v3.307H63.395V77.132h1.073l.057.762A2.419,2.419,0,0,1,66.518,77a2.342,2.342,0,0,1,1.958.933,4.157,4.157,0,0,1,.72,2.6Zm-1.174-.133a3.035,3.035,0,0,0-.5-1.834A1.6,1.6,0,0,0,66.169,78a1.726,1.726,0,0,0-1.6.946v3.282a1.73,1.73,0,0,0,1.612.939,1.587,1.587,0,0,0,1.343-.67A3.312,3.312,0,0,0,68.022,80.509ZM74.733,84a2.467,2.467,0,0,1-.165-.724,2.62,2.62,0,0,1-1.955.851,2.424,2.424,0,0,1-1.666-.574A1.859,1.859,0,0,1,70.3,82.1a1.942,1.942,0,0,1,.816-1.666,3.846,3.846,0,0,1,2.295-.594h1.143V79.3a1.319,1.319,0,0,0-.368-.981,1.48,1.48,0,0,0-1.085-.365,1.712,1.712,0,0,0-1.054.317.935.935,0,0,0-.425.768H70.436a1.621,1.621,0,0,1,.365-.993,2.491,2.491,0,0,1,.99-.759A3.331,3.331,0,0,1,73.166,77a2.715,2.715,0,0,1,1.86.594,2.141,2.141,0,0,1,.7,1.635v3.161a3.865,3.865,0,0,0,.241,1.5V84Zm-1.949-.9a2.064,2.064,0,0,0,1.047-.286,1.728,1.728,0,0,0,.717-.743V80.667h-.92q-2.158,0-2.158,1.263a1.069,1.069,0,0,0,.368.863A1.415,1.415,0,0,0,72.785,83.1Zm7.9-4.919a3.519,3.519,0,0,0-.578-.044,1.547,1.547,0,0,0-1.568.984V84H77.37V77.132h1.143l.019.793A1.829,1.829,0,0,1,80.169,77a1.2,1.2,0,0,1,.521.089ZM85.56,84a2.467,2.467,0,0,1-.165-.724,2.62,2.62,0,0,1-1.955.851,2.424,2.424,0,0,1-1.666-.574,1.859,1.859,0,0,1-.651-1.457,1.942,1.942,0,0,1,.816-1.666,3.846,3.846,0,0,1,2.295-.594h1.143V79.3a1.319,1.319,0,0,0-.368-.981,1.48,1.48,0,0,0-1.085-.365,1.712,1.712,0,0,0-1.054.317.935.935,0,0,0-.425.768H81.262a1.621,1.621,0,0,1,.365-.993,2.491,2.491,0,0,1,.99-.759A3.331,3.331,0,0,1,83.992,77a2.715,2.715,0,0,1,1.86.594,2.141,2.141,0,0,1,.7,1.635v3.161a3.865,3.865,0,0,0,.241,1.5V84Zm-1.949-.9a2.064,2.064,0,0,0,1.047-.286,1.728,1.728,0,0,0,.717-.743V80.667h-.92q-2.158,0-2.158,1.263a1.069,1.069,0,0,0,.368.863A1.415,1.415,0,0,0,83.611,83.1Zm-64.23,11.4a4.037,4.037,0,0,1,.743-2.555,2.56,2.56,0,0,1,3.929-.06l.057-.762h1.073v6.7a2.794,2.794,0,0,1-.79,2.1,2.916,2.916,0,0,1-2.123.768,3.532,3.532,0,0,1-1.454-.317,2.5,2.5,0,0,1-1.085-.87l.609-.7a2.3,2.3,0,0,0,1.847.933,1.8,1.8,0,0,0,1.336-.482A1.844,1.844,0,0,0,24,97.9v-.59a2.414,2.414,0,0,1-1.923.813,2.346,2.346,0,0,1-1.952-.971A4.244,4.244,0,0,1,19.381,94.509Zm1.181.133a3.08,3.08,0,0,0,.476,1.825,1.547,1.547,0,0,0,1.333.663A1.72,1.72,0,0,0,24,96.121V92.985A1.74,1.74,0,0,0,22.383,92a1.561,1.561,0,0,0-1.339.667A3.354,3.354,0,0,0,20.562,94.642ZM31,98a2.467,2.467,0,0,1-.165-.724,2.62,2.62,0,0,1-1.955.851,2.424,2.424,0,0,1-1.666-.574,1.859,1.859,0,0,1-.651-1.457,1.942,1.942,0,0,1,.816-1.666,3.846,3.846,0,0,1,2.295-.594h1.143V93.3a1.319,1.319,0,0,0-.368-.981,1.48,1.48,0,0,0-1.085-.365,1.712,1.712,0,0,0-1.054.317.935.935,0,0,0-.425.768H26.7a1.621,1.621,0,0,1,.365-.993,2.491,2.491,0,0,1,.99-.759A3.331,3.331,0,0,1,29.431,91a2.715,2.715,0,0,1,1.86.594,2.141,2.141,0,0,1,.7,1.635v3.161a3.865,3.865,0,0,0,.241,1.5V98Zm-1.949-.9a2.064,2.064,0,0,0,1.047-.286,1.728,1.728,0,0,0,.717-.743V94.667h-.92q-2.158,0-2.158,1.263a1.069,1.069,0,0,0,.368.863A1.415,1.415,0,0,0,29.05,97.1Zm7.9-4.919a3.519,3.519,0,0,0-.578-.044,1.547,1.547,0,0,0-1.568.984V98H33.635V91.132h1.143l.019.793A1.829,1.829,0,0,1,36.434,91a1.2,1.2,0,0,1,.521.089ZM41.825,98a2.467,2.467,0,0,1-.165-.724,2.62,2.62,0,0,1-1.955.851,2.424,2.424,0,0,1-1.666-.574,1.859,1.859,0,0,1-.651-1.457,1.942,1.942,0,0,1,.816-1.666,3.846,3.846,0,0,1,2.295-.594h1.143V93.3a1.319,1.319,0,0,0-.368-.981,1.48,1.48,0,0,0-1.085-.365,1.712,1.712,0,0,0-1.054.317.935.935,0,0,0-.425.768H37.528a1.621,1.621,0,0,1,.365-.993,2.491,2.491,0,0,1,.99-.759A3.331,3.331,0,0,1,40.257,91a2.715,2.715,0,0,1,1.86.594,2.141,2.141,0,0,1,.7,1.635v3.161a3.865,3.865,0,0,0,.241,1.5V98Zm-1.949-.9a2.064,2.064,0,0,0,1.047-.286,1.728,1.728,0,0,0,.717-.743V94.667h-.92q-2.158,0-2.158,1.263a1.069,1.069,0,0,0,.368.863A1.415,1.415,0,0,0,39.876,97.1Zm5.7-5.973L45.61,92A2.5,2.5,0,0,1,47.667,91q2.177,0,2.2,2.457V98H48.689V93.455a1.581,1.581,0,0,0-.34-1.1A1.361,1.361,0,0,0,47.311,92a1.7,1.7,0,0,0-1,.3,2.069,2.069,0,0,0-.673.8V98H44.461V91.132Zm7.46-1.663v1.663h1.282v.908H53.032V96.3a.953.953,0,0,0,.171.62.721.721,0,0,0,.584.207,2.843,2.843,0,0,0,.559-.076V98a3.424,3.424,0,0,1-.9.126,1.462,1.462,0,0,1-1.187-.476,2.045,2.045,0,0,1-.4-1.352V92.04h-1.25v-.908h1.25V89.469ZM56.767,98H55.592V91.132h1.174ZM55.5,89.31a.7.7,0,0,1,.175-.482.655.655,0,0,1,.517-.2.666.666,0,0,1,.521.2.694.694,0,0,1,.178.482.671.671,0,0,1-.178.476.678.678,0,0,1-.521.19.667.667,0,0,1-.517-.19A.678.678,0,0,1,55.5,89.31Zm4.058,7.731h4.018V98H58.12v-.863L61.91,92.1H58.178v-.971h5.205v.832ZM68.939,98a2.467,2.467,0,0,1-.165-.724,2.62,2.62,0,0,1-1.955.851,2.424,2.424,0,0,1-1.666-.574A1.859,1.859,0,0,1,64.5,96.1a1.942,1.942,0,0,1,.816-1.666,3.846,3.846,0,0,1,2.295-.594h1.143V93.3a1.319,1.319,0,0,0-.368-.981,1.48,1.48,0,0,0-1.085-.365,1.712,1.712,0,0,0-1.054.317.935.935,0,0,0-.425.768H64.641a1.621,1.621,0,0,1,.365-.993,2.491,2.491,0,0,1,.99-.759A3.331,3.331,0,0,1,67.371,91a2.715,2.715,0,0,1,1.86.594,2.141,2.141,0,0,1,.7,1.635v3.161a3.865,3.865,0,0,0,.241,1.5V98Zm-1.949-.9a2.064,2.064,0,0,0,1.047-.286,1.728,1.728,0,0,0,.717-.743V94.667h-.92q-2.158,0-2.158,1.263a1.069,1.069,0,0,0,.368.863A1.415,1.415,0,0,0,66.99,97.1Zm7.9-4.919a3.519,3.519,0,0,0-.578-.044,1.547,1.547,0,0,0-1.568.984V98H71.575V91.132h1.143l.019.793A1.829,1.829,0,0,1,74.374,91a1.2,1.2,0,0,1,.521.089ZM80.078,98H78.9V88.25h1.174ZM86,98a2.467,2.467,0,0,1-.165-.724,2.62,2.62,0,0,1-1.955.851,2.424,2.424,0,0,1-1.666-.574,1.859,1.859,0,0,1-.651-1.457,1.942,1.942,0,0,1,.816-1.666,3.846,3.846,0,0,1,2.295-.594h1.143V93.3a1.319,1.319,0,0,0-.368-.981,1.48,1.48,0,0,0-1.085-.365,1.712,1.712,0,0,0-1.054.317.935.935,0,0,0-.425.768H81.7a1.621,1.621,0,0,1,.365-.993,2.491,2.491,0,0,1,.99-.759A3.331,3.331,0,0,1,84.434,91a2.715,2.715,0,0,1,1.86.594,2.141,2.141,0,0,1,.7,1.635v3.161a3.865,3.865,0,0,0,.241,1.5V98Zm-1.949-.9a2.064,2.064,0,0,0,1.047-.286,1.728,1.728,0,0,0,.717-.743V94.667H84.9q-2.158,0-2.158,1.263a1.069,1.069,0,0,0,.368.863A1.415,1.415,0,0,0,84.053,97.1Zm-63.6,13.073a.865.865,0,0,0-.359-.74,3.452,3.452,0,0,0-1.25-.454,5.912,5.912,0,0,1-1.416-.457,2.014,2.014,0,0,1-.774-.635,1.518,1.518,0,0,1-.251-.876,1.782,1.782,0,0,1,.714-1.428A2.789,2.789,0,0,1,18.94,105a2.87,2.87,0,0,1,1.895.6,1.915,1.915,0,0,1,.727,1.542H20.381a1.06,1.06,0,0,0-.409-.832,1.534,1.534,0,0,0-1.031-.349,1.606,1.606,0,0,0-1,.279.879.879,0,0,0-.362.73.712.712,0,0,0,.336.641,4.139,4.139,0,0,0,1.216.413,6.334,6.334,0,0,1,1.425.47,2.079,2.079,0,0,1,.809.657,1.615,1.615,0,0,1,.263.936,1.758,1.758,0,0,1-.736,1.476,3.089,3.089,0,0,1-1.911.555,3.459,3.459,0,0,1-1.46-.292,2.375,2.375,0,0,1-.993-.816,1.966,1.966,0,0,1-.359-1.133H17.34a1.216,1.216,0,0,0,.473.936,1.835,1.835,0,0,0,1.165.346,1.894,1.894,0,0,0,1.07-.27A.829.829,0,0,0,20.45,110.178Zm5.359,1.949a3,3,0,0,1-2.272-.917,3.4,3.4,0,0,1-.876-2.453v-.216a4.121,4.121,0,0,1,.39-1.825,3.045,3.045,0,0,1,1.092-1.257,2.745,2.745,0,0,1,1.52-.454,2.572,2.572,0,0,1,2.082.882,3.82,3.82,0,0,1,.743,2.526v.489H23.836a2.441,2.441,0,0,0,.594,1.641,1.866,1.866,0,0,0,1.444.625,2.045,2.045,0,0,0,1.054-.254,2.648,2.648,0,0,0,.755-.673l.717.559A2.884,2.884,0,0,1,25.81,112.127Zm-.146-6.157a1.566,1.566,0,0,0-1.193.517,2.515,2.515,0,0,0-.6,1.45h3.44v-.089a2.237,2.237,0,0,0-.482-1.387A1.475,1.475,0,0,0,25.664,105.97Zm3.709,2.539a4.037,4.037,0,0,1,.743-2.555,2.56,2.56,0,0,1,3.929-.06l.057-.762h1.073v6.7a2.794,2.794,0,0,1-.79,2.1,2.916,2.916,0,0,1-2.123.768,3.532,3.532,0,0,1-1.454-.317,2.5,2.5,0,0,1-1.085-.87l.609-.7a2.3,2.3,0,0,0,1.847.933,1.8,1.8,0,0,0,1.336-.482,1.844,1.844,0,0,0,.479-1.358v-.59a2.414,2.414,0,0,1-1.923.813,2.346,2.346,0,0,1-1.952-.971A4.244,4.244,0,0,1,29.372,108.509Zm1.181.133a3.08,3.08,0,0,0,.476,1.825,1.547,1.547,0,0,0,1.333.663,1.72,1.72,0,0,0,1.631-1.009v-3.136A1.74,1.74,0,0,0,32.375,106a1.561,1.561,0,0,0-1.339.667A3.354,3.354,0,0,0,30.553,108.642Zm10.437,2.679a2.494,2.494,0,0,1-2.012.806,2.135,2.135,0,0,1-1.673-.638,2.761,2.761,0,0,1-.581-1.888v-4.469H37.9v4.437q0,1.562,1.27,1.562a1.758,1.758,0,0,0,1.79-1v-5h1.174V112H41.016Zm6.051-5.135a3.519,3.519,0,0,0-.578-.044,1.547,1.547,0,0,0-1.568.984V112H43.722v-6.868h1.143l.019.793a1.829,1.829,0,0,1,1.638-.92,1.2,1.2,0,0,1,.521.089ZM49.2,112H48.027v-6.868H49.2Zm-1.27-8.69a.7.7,0,0,1,.175-.482.655.655,0,0,1,.517-.2.666.666,0,0,1,.521.2.694.694,0,0,1,.178.482.671.671,0,0,1-.178.476.678.678,0,0,1-.521.19.667.667,0,0,1-.517-.19A.678.678,0,0,1,47.932,103.31Zm2.668,5.2a4.023,4.023,0,0,1,.749-2.542,2.548,2.548,0,0,1,3.872-.136v-3.58H56.4V112H55.316l-.057-.736a2.391,2.391,0,0,1-1.961.863,2.346,2.346,0,0,1-1.946-.978A4.069,4.069,0,0,1,50.6,108.6Zm1.174.133a3.046,3.046,0,0,0,.482,1.828,1.56,1.56,0,0,0,1.333.66,1.713,1.713,0,0,0,1.631-1v-3.155A1.726,1.726,0,0,0,53.6,106a1.567,1.567,0,0,0-1.346.667A3.354,3.354,0,0,0,51.774,108.642ZM62.262,112a2.467,2.467,0,0,1-.165-.724,2.62,2.62,0,0,1-1.955.851,2.424,2.424,0,0,1-1.666-.574,1.859,1.859,0,0,1-.651-1.457,1.942,1.942,0,0,1,.816-1.666,3.846,3.846,0,0,1,2.295-.594h1.143v-.54a1.319,1.319,0,0,0-.368-.981,1.48,1.48,0,0,0-1.085-.365,1.712,1.712,0,0,0-1.054.317.935.935,0,0,0-.425.768H57.965a1.621,1.621,0,0,1,.365-.993,2.491,2.491,0,0,1,.99-.759A3.331,3.331,0,0,1,60.694,105a2.715,2.715,0,0,1,1.86.594,2.141,2.141,0,0,1,.7,1.635v3.161a3.865,3.865,0,0,0,.241,1.5v.1Zm-1.949-.9a2.064,2.064,0,0,0,1.047-.286,1.728,1.728,0,0,0,.717-.743v-1.409h-.92q-2.158,0-2.158,1.263a1.069,1.069,0,0,0,.368.863A1.415,1.415,0,0,0,60.314,111.1Zm4.3-2.6a4.023,4.023,0,0,1,.749-2.542,2.548,2.548,0,0,1,3.872-.136v-3.58h1.174V112H69.329l-.057-.736a2.391,2.391,0,0,1-1.961.863,2.346,2.346,0,0,1-1.946-.978,4.069,4.069,0,0,1-.752-2.552Zm1.174.133a3.046,3.046,0,0,0,.482,1.828,1.56,1.56,0,0,0,1.333.66,1.713,1.713,0,0,0,1.631-1v-3.155A1.726,1.726,0,0,0,67.615,106a1.567,1.567,0,0,0-1.346.667A3.354,3.354,0,0,0,65.787,108.642Zm8.985-.133a4.023,4.023,0,0,1,.749-2.542,2.548,2.548,0,0,1,3.872-.136v-3.58h1.174V112H79.489l-.057-.736a2.391,2.391,0,0,1-1.961.863,2.346,2.346,0,0,1-1.946-.978,4.069,4.069,0,0,1-.752-2.552Zm1.174.133a3.046,3.046,0,0,0,.482,1.828,1.56,1.56,0,0,0,1.333.66,1.713,1.713,0,0,0,1.631-1v-3.155A1.726,1.726,0,0,0,77.775,106a1.567,1.567,0,0,0-1.346.667A3.354,3.354,0,0,0,75.947,108.642Zm9.1,3.485a3,3,0,0,1-2.272-.917,3.4,3.4,0,0,1-.876-2.453v-.216a4.121,4.121,0,0,1,.39-1.825,3.045,3.045,0,0,1,1.092-1.257A2.745,2.745,0,0,1,84.9,105a2.572,2.572,0,0,1,2.082.882,3.82,3.82,0,0,1,.743,2.526v.489H83.071a2.441,2.441,0,0,0,.594,1.641,1.866,1.866,0,0,0,1.444.625,2.045,2.045,0,0,0,1.054-.254,2.648,2.648,0,0,0,.755-.673l.717.559A2.884,2.884,0,0,1,85.045,112.127ZM84.9,105.97a1.566,1.566,0,0,0-1.193.517,2.514,2.514,0,0,0-.6,1.45h3.44v-.089a2.237,2.237,0,0,0-.482-1.387A1.475,1.475,0,0,0,84.9,105.97ZM90.163,112H88.988v-9.75h1.174ZM35.649,124.178a.865.865,0,0,0-.359-.74,3.452,3.452,0,0,0-1.25-.454,5.912,5.912,0,0,1-1.416-.457,2.014,2.014,0,0,1-.774-.635,1.518,1.518,0,0,1-.251-.876,1.782,1.782,0,0,1,.714-1.428A2.789,2.789,0,0,1,34.138,119a2.87,2.87,0,0,1,1.895.6,1.915,1.915,0,0,1,.727,1.542H35.579a1.06,1.06,0,0,0-.409-.832,1.534,1.534,0,0,0-1.031-.349,1.606,1.606,0,0,0-1,.279.879.879,0,0,0-.362.73.712.712,0,0,0,.336.641,4.139,4.139,0,0,0,1.216.413,6.334,6.334,0,0,1,1.425.47,2.079,2.079,0,0,1,.809.657,1.615,1.615,0,0,1,.263.936,1.758,1.758,0,0,1-.736,1.476,3.089,3.089,0,0,1-1.911.555,3.459,3.459,0,0,1-1.46-.292,2.375,2.375,0,0,1-.993-.816,1.966,1.966,0,0,1-.359-1.133h1.174a1.216,1.216,0,0,0,.473.936,1.835,1.835,0,0,0,1.165.346,1.894,1.894,0,0,0,1.07-.27A.829.829,0,0,0,35.649,124.178ZM39.434,126H38.26v-6.868h1.174Zm-1.27-8.69a.7.7,0,0,1,.175-.482.655.655,0,0,1,.517-.2.666.666,0,0,1,.521.2.694.694,0,0,1,.178.482.671.671,0,0,1-.178.476.678.678,0,0,1-.521.19.667.667,0,0,1-.517-.19A.678.678,0,0,1,38.164,117.31Zm6.952,6.868a.865.865,0,0,0-.359-.74,3.452,3.452,0,0,0-1.25-.454,5.912,5.912,0,0,1-1.416-.457,2.014,2.014,0,0,1-.774-.635,1.518,1.518,0,0,1-.251-.876,1.782,1.782,0,0,1,.714-1.428A2.789,2.789,0,0,1,43.606,119a2.87,2.87,0,0,1,1.895.6,1.915,1.915,0,0,1,.727,1.542H45.047a1.06,1.06,0,0,0-.409-.832,1.534,1.534,0,0,0-1.031-.349,1.606,1.606,0,0,0-1,.279.879.879,0,0,0-.362.73.712.712,0,0,0,.336.641,4.139,4.139,0,0,0,1.216.413,6.334,6.334,0,0,1,1.425.47,2.079,2.079,0,0,1,.809.657,1.615,1.615,0,0,1,.263.936,1.758,1.758,0,0,1-.736,1.476,3.089,3.089,0,0,1-1.911.555,3.459,3.459,0,0,1-1.46-.292,2.375,2.375,0,0,1-.993-.816,1.966,1.966,0,0,1-.359-1.133h1.174a1.216,1.216,0,0,0,.473.936,1.835,1.835,0,0,0,1.165.346,1.894,1.894,0,0,0,1.07-.27A.829.829,0,0,0,45.117,124.178Zm4.1-6.709v1.663H50.5v.908H49.219V124.3a.953.953,0,0,0,.171.62.721.721,0,0,0,.584.207,2.843,2.843,0,0,0,.559-.076V126a3.424,3.424,0,0,1-.9.126,1.462,1.462,0,0,1-1.187-.476,2.045,2.045,0,0,1-.4-1.352V120.04h-1.25v-.908h1.25v-1.663Zm5.308,8.658a3,3,0,0,1-2.272-.917,3.4,3.4,0,0,1-.876-2.453v-.216a4.121,4.121,0,0,1,.39-1.825,3.045,3.045,0,0,1,1.092-1.257,2.745,2.745,0,0,1,1.52-.454,2.572,2.572,0,0,1,2.082.882,3.82,3.82,0,0,1,.743,2.526v.489H52.553a2.441,2.441,0,0,0,.594,1.641,1.866,1.866,0,0,0,1.444.625,2.045,2.045,0,0,0,1.054-.254,2.648,2.648,0,0,0,.755-.673l.717.559A2.884,2.884,0,0,1,54.528,126.127Zm-.146-6.157a1.566,1.566,0,0,0-1.193.517,2.515,2.515,0,0,0-.6,1.45h3.44v-.089a2.237,2.237,0,0,0-.482-1.387A1.475,1.475,0,0,0,54.382,119.97Zm5.093-.838.032.762A2.536,2.536,0,0,1,61.544,119a1.964,1.964,0,0,1,1.961,1.1,2.6,2.6,0,0,1,.892-.8,2.634,2.634,0,0,1,1.3-.3q2.26,0,2.3,2.393V126H66.818v-4.532a1.577,1.577,0,0,0-.336-1.1,1.482,1.482,0,0,0-1.13-.365,1.557,1.557,0,0,0-1.085.39,1.584,1.584,0,0,0-.5,1.051V126H62.585v-4.5a1.31,1.31,0,0,0-1.466-1.5,1.571,1.571,0,0,0-1.581.984V126H58.363v-6.868ZM73.809,126a2.467,2.467,0,0,1-.165-.724,2.62,2.62,0,0,1-1.955.851,2.424,2.424,0,0,1-1.666-.574,1.859,1.859,0,0,1-.651-1.457,1.942,1.942,0,0,1,.816-1.666,3.846,3.846,0,0,1,2.295-.594h1.143v-.54a1.319,1.319,0,0,0-.368-.981,1.48,1.48,0,0,0-1.085-.365,1.712,1.712,0,0,0-1.054.317.935.935,0,0,0-.425.768H69.512a1.621,1.621,0,0,1,.365-.993,2.491,2.491,0,0,1,.99-.759A3.331,3.331,0,0,1,72.241,119a2.715,2.715,0,0,1,1.86.594,2.141,2.141,0,0,1,.7,1.635v3.161a3.865,3.865,0,0,0,.241,1.5v.1Zm-1.949-.9a2.064,2.064,0,0,0,1.047-.286,1.728,1.728,0,0,0,.717-.743v-1.409H72.7q-2.158,0-2.158,1.263a1.069,1.069,0,0,0,.368.863A1.415,1.415,0,0,0,71.86,125.1Zm4.61.279a.735.735,0,0,1,.181-.508.689.689,0,0,1,.543-.2.71.71,0,0,1,.549.2.721.721,0,0,1,.187.508.681.681,0,0,1-.187.489.723.723,0,0,1-.549.2.653.653,0,0,1-.724-.686Z" transform="translate(0 38.885)"/>
      <g id="Grupo_64169" data-name="Grupo 64169" transform="translate(8.971 -0.603)">
        <g id="Grupo_61822" data-name="Grupo 61822">
          <g id="Grupo_61821" data-name="Grupo 61821">
            <path id="Trazado_133468" data-name="Trazado 133468" d="M-42.894-3.164V0h-1.482V-8.531h3.264a3.3,3.3,0,0,1,2.271.745A2.5,2.5,0,0,1-38-5.815a2.422,2.422,0,0,1-.823,1.953,3.46,3.46,0,0,1-2.306.7Zm0-1.2h1.781a1.754,1.754,0,0,0,1.207-.372,1.367,1.367,0,0,0,.416-1.075,1.475,1.475,0,0,0-.422-1.1,1.626,1.626,0,0,0-1.16-.425h-1.822Zm9.322,1.078h-1.652V0h-1.482V-8.531h3a3.49,3.49,0,0,1,2.279.663,2.344,2.344,0,0,1,.8,1.918,2.4,2.4,0,0,1-.413,1.434,2.629,2.629,0,0,1-1.151.888l1.916,3.553V0H-31.86Zm-1.652-1.2H-33.7a1.694,1.694,0,0,0,1.172-.378,1.318,1.318,0,0,0,.422-1.034,1.4,1.4,0,0,0-.39-1.061,1.655,1.655,0,0,0-1.163-.387h-1.564Zm12.814.434a5.234,5.234,0,0,1-.434,2.2A3.278,3.278,0,0,1-24.082-.39a3.409,3.409,0,0,1-1.854.507A3.417,3.417,0,0,1-27.785-.39a3.329,3.329,0,0,1-1.254-1.444A5.07,5.07,0,0,1-29.487-4v-.48a5.189,5.189,0,0,1,.442-2.2A3.325,3.325,0,0,1-27.8-8.142a3.4,3.4,0,0,1,1.849-.507,3.428,3.428,0,0,1,1.849.5,3.283,3.283,0,0,1,1.245,1.441,5.178,5.178,0,0,1,.445,2.188Zm-1.482-.445a3.729,3.729,0,0,0-.536-2.174,1.754,1.754,0,0,0-1.521-.756,1.749,1.749,0,0,0-1.5.753A3.657,3.657,0,0,0-28-4.535v.492a3.7,3.7,0,0,0,.548,2.174,1.764,1.764,0,0,0,1.521.768,1.743,1.743,0,0,0,1.515-.75,3.781,3.781,0,0,0,.53-2.191Zm8.625-2.848h-2.66V0H-19.4V-7.336h-2.637v-1.2h6.768Zm6.105,3.527h-3.5v2.625h4.1V0h-5.578V-8.531H-8.61v1.2h-4.055V-4.98h3.5ZM-.853-2.777A3.08,3.08,0,0,1-1.86-.647,3.436,3.436,0,0,1-4.2.117a3.327,3.327,0,0,1-1.8-.483,3.173,3.173,0,0,1-1.2-1.374,4.958,4.958,0,0,1-.439-2.068v-.8A4.994,4.994,0,0,1-7.2-6.732,3.224,3.224,0,0,1-5.977-8.15a3.424,3.424,0,0,1,1.849-.5,3.3,3.3,0,0,1,2.273.765,3.2,3.2,0,0,1,1,2.165H-2.329a2.107,2.107,0,0,0-.536-1.327,1.772,1.772,0,0,0-1.263-.407,1.731,1.731,0,0,0-1.485.707,3.532,3.532,0,0,0-.53,2.073v.757a3.747,3.747,0,0,0,.5,2.111,1.643,1.643,0,0,0,1.45.727,1.917,1.917,0,0,0,1.313-.393,2.047,2.047,0,0,0,.557-1.307Zm7.834,0A3.08,3.08,0,0,1,5.974-.647,3.436,3.436,0,0,1,3.636.117a3.327,3.327,0,0,1-1.8-.483A3.173,3.173,0,0,1,.642-1.74,4.958,4.958,0,0,1,.2-3.809v-.8A4.994,4.994,0,0,1,.63-6.732,3.224,3.224,0,0,1,1.857-8.15a3.424,3.424,0,0,1,1.849-.5,3.3,3.3,0,0,1,2.273.765,3.2,3.2,0,0,1,1,2.165H5.5a2.107,2.107,0,0,0-.536-1.327,1.772,1.772,0,0,0-1.263-.407,1.731,1.731,0,0,0-1.485.707,3.532,3.532,0,0,0-.53,2.073v.757a3.747,3.747,0,0,0,.5,2.111,1.643,1.643,0,0,0,1.45.727,1.917,1.917,0,0,0,1.313-.393A2.047,2.047,0,0,0,5.5-2.777ZM9.87,0H8.394V-8.531H9.87ZM18.5-4.043a5.234,5.234,0,0,1-.434,2.2A3.278,3.278,0,0,1,16.828-.39a3.409,3.409,0,0,1-1.854.507A3.417,3.417,0,0,1,13.125-.39a3.329,3.329,0,0,1-1.254-1.444A5.07,5.07,0,0,1,11.423-4v-.48a5.189,5.189,0,0,1,.442-2.2,3.325,3.325,0,0,1,1.248-1.462,3.4,3.4,0,0,1,1.849-.507,3.428,3.428,0,0,1,1.849.5,3.283,3.283,0,0,1,1.245,1.441A5.178,5.178,0,0,1,18.5-4.518Zm-1.482-.445a3.729,3.729,0,0,0-.536-2.174,1.754,1.754,0,0,0-1.521-.756,1.749,1.749,0,0,0-1.5.753,3.657,3.657,0,0,0-.554,2.13v.492a3.7,3.7,0,0,0,.548,2.174,1.764,1.764,0,0,0,1.521.768,1.743,1.743,0,0,0,1.515-.75,3.781,3.781,0,0,0,.53-2.191ZM15.4-10.816h1.623L15.4-9.041l-1.143,0ZM26.745,0H25.263l-3.8-6.053V0H19.978V-8.531H21.46l3.814,6.076V-8.531h1.471Zm4.74,0V-8.531H34a3.952,3.952,0,0,1,2.007.5A3.436,3.436,0,0,1,37.368-6.6a4.538,4.538,0,0,1,.48,2.121v.428a4.519,4.519,0,0,1-.483,2.133A3.4,3.4,0,0,1,35.988-.5,4.135,4.135,0,0,1,33.94,0Zm1.482-7.336v6.152h.967a2.226,2.226,0,0,0,1.79-.729,3.178,3.178,0,0,0,.636-2.095v-.475a3.261,3.261,0,0,0-.6-2.121A2.14,2.14,0,0,0,34-7.336ZM44.312-3.809h-3.5v2.625h4.1V0H39.325V-8.531h5.537v1.2H40.808V-4.98h3.5Z" transform="translate(45 13)" fill="#12263f"/>
          </g>
        </g>
      </g>
    </g>
  </g>
</svg>
