<svg xmlns="http://www.w3.org/2000/svg" xmlns:xlink="http://www.w3.org/1999/xlink" width="505" height="351" viewBox="0 0 505 351">
  <defs>
    <filter id="computadora-disco-duro-verde-su-interior" x="-55.5" y="-41.5" width="616" height="462" filterUnits="userSpaceOnUse">
      <feOffset dy="14" input="SourceAlpha"/>
      <feGaussianBlur stdDeviation="18.5" result="blur"/>
      <feFlood flood-color="#b0c5fd" flood-opacity="0.459"/>
      <feComposite operator="in" in2="blur"/>
      <feComposite in="SourceGraphic"/>
    </filter>
    <clipPath id="clip-path">
      <g transform="matrix(1, 0, 0, 1, 0, 0)" filter="url(#computadora-disco-duro-verde-su-interior)">
        <rect id="computadora-disco-duro-verde-su-interior-2" data-name="computadora-disco-duro-verde-su-interior" width="505" height="351" transform="translate(915 21375)" fill="#6e40fc" opacity="0.24"/>
      </g>
    </clipPath>
    <linearGradient id="linear-gradient" x1="0.5" x2="0.5" y2="1" gradientUnits="objectBoundingBox">
      <stop offset="0" stop-color="#fff"/>
      <stop offset="1" stop-color="#d2e6ee"/>
    </linearGradient>
    <linearGradient id="linear-gradient-3" x1="0.087" y1="0.521" x2="1.244" y2="0.349" gradientUnits="objectBoundingBox">
      <stop offset="0.056" stop-color="#92a3b0"/>
      <stop offset="1" stop-color="#fff"/>
    </linearGradient>
    <linearGradient id="linear-gradient-4" x1="0.086" y1="0.52" x2="1.229" y2="0.351" xlink:href="#linear-gradient-3"/>
    <linearGradient id="linear-gradient-5" x1="0.085" y1="0.518" x2="1.215" y2="0.353" xlink:href="#linear-gradient-3"/>
    <linearGradient id="linear-gradient-6" x1="0.085" y1="0.517" x2="1.2" y2="0.355" xlink:href="#linear-gradient-3"/>
    <linearGradient id="linear-gradient-7" x1="0.084" y1="0.516" x2="1.185" y2="0.357" xlink:href="#linear-gradient-3"/>
    <linearGradient id="linear-gradient-8" x1="0.083" y1="0.515" x2="1.17" y2="0.359" xlink:href="#linear-gradient-3"/>
    <linearGradient id="linear-gradient-9" x1="0.082" y1="0.514" x2="1.156" y2="0.361" xlink:href="#linear-gradient-3"/>
    <linearGradient id="linear-gradient-10" x1="0.081" y1="0.513" x2="1.141" y2="0.363" xlink:href="#linear-gradient-3"/>
    <linearGradient id="linear-gradient-11" x1="0.081" y1="0.512" x2="1.126" y2="0.365" xlink:href="#linear-gradient-3"/>
    <linearGradient id="linear-gradient-12" x1="0.08" y1="0.51" x2="1.112" y2="0.367" xlink:href="#linear-gradient-3"/>
    <linearGradient id="linear-gradient-13" x1="0.079" y1="0.509" x2="1.097" y2="0.369" xlink:href="#linear-gradient-3"/>
    <linearGradient id="linear-gradient-14" x1="0.078" y1="0.508" x2="1.082" y2="0.371" xlink:href="#linear-gradient-3"/>
    <linearGradient id="linear-gradient-15" x1="0.077" y1="0.507" x2="1.068" y2="0.373" xlink:href="#linear-gradient-3"/>
    <linearGradient id="linear-gradient-16" x1="0.076" y1="0.505" x2="1.053" y2="0.374" xlink:href="#linear-gradient-3"/>
    <linearGradient id="linear-gradient-17" x1="0.075" y1="0.504" x2="1.038" y2="0.376" xlink:href="#linear-gradient-3"/>
    <linearGradient id="linear-gradient-18" x1="0.074" y1="0.503" x2="1.024" y2="0.378" xlink:href="#linear-gradient-3"/>
    <linearGradient id="linear-gradient-19" x1="0.073" y1="0.502" x2="1.009" y2="0.38" xlink:href="#linear-gradient-3"/>
    <linearGradient id="linear-gradient-20" x1="0.072" y1="0.501" x2="0.995" y2="0.382" xlink:href="#linear-gradient-3"/>
    <linearGradient id="linear-gradient-21" x1="0.071" y1="0.5" x2="0.981" y2="0.385" xlink:href="#linear-gradient-3"/>
    <linearGradient id="linear-gradient-22" x1="0.07" y1="0.499" x2="0.967" y2="0.387" xlink:href="#linear-gradient-3"/>
    <linearGradient id="linear-gradient-23" x1="0.069" y1="0.499" x2="0.953" y2="0.39" xlink:href="#linear-gradient-3"/>
    <linearGradient id="linear-gradient-24" x1="0.069" y1="0.499" x2="0.939" y2="0.393" xlink:href="#linear-gradient-3"/>
  </defs>
  <g id="Enmascarar_grupo_1090671" data-name="Enmascarar grupo 1090671" transform="translate(-915 -21375)" clip-path="url(#clip-path)">
    <g id="Grupo_1096715" data-name="Grupo 1096715" transform="translate(658.868 21284.328)">
      <g id="Grupo_61901" data-name="Grupo 61901" transform="translate(385.532 98.594)">
        <g id="Grupo_61900" data-name="Grupo 61900">
          <path id="Trazado_132115" data-name="Trazado 132115" d="M527.386,371.394l-157.1-90.7c-6.2-3.582-5.425-9.837,1.738-13.974l89.157-51.473c7.164-4.137,18-4.585,24.2-1l157.1,90.7c6.2,3.582,5.427,9.837-1.737,13.973L551.59,370.391C544.425,374.527,533.59,374.976,527.386,371.394Z" transform="translate(-366.099 -52.72)" fill="#92b4d1" opacity="0.2"/>
          <path id="Trazado_132116" data-name="Trazado 132116" d="M527.386,367.1l-157.1-90.7c-2.764-1.6-4.142-3.722-4.186-5.956,0-.072,0-7.711,0-7.783.049-2.715,2.056,2,5.924-.233l89.157-51.475c7.163-4.137,18-4.585,24.2-1l157.1,90.7c2.071,1.2,3.573-3.88,4.11-2.266.18.538.065,7.658.077,8.216.059,2.781-1.949,5.729-5.924,8.023L551.59,366.1C544.425,370.237,533.59,370.686,527.386,367.1Z" transform="translate(-366.098 -54.458)" fill="#1e5af9"/>
          <path id="Trazado_132117" data-name="Trazado 132117" d="M527.386,361.668l-157.1-90.7c-6.2-3.583-5.425-9.839,1.738-13.974l89.157-51.475c7.164-4.135,18-4.585,24.2-1l157.1,90.7c6.2,3.582,5.427,9.837-1.737,13.974L551.59,360.664C544.425,364.8,533.59,365.251,527.386,361.668Z" transform="translate(-366.099 -56.66)" fill="url(#linear-gradient)"/>
          <path id="Trazado_132118" data-name="Trazado 132118" d="M480.882,323.587c6.2,3.583,17.04,3.133,24.2-1v-7.638c-7.163,4.137-18,4.586-24.2,1Z" transform="translate(-319.594 -10.94)" fill="#12263f" opacity="0.5"/>
          <path id="Trazado_132119" data-name="Trazado 132119" d="M527.386,343.695l-157.1-90.7c-3-1.733-4.352-4.09-4.155-6.531a3.131,3.131,0,0,0-.032.429c0,.072,0,7.711,0,7.783.044,2.234,1.422,4.36,4.187,5.956l157.1,90.7Z" transform="translate(-366.098 -38.686)" fill="#1e5af9"/>
          <path id="Trazado_132120" data-name="Trazado 132120" d="M640.746,289.995l-89.158,51.475c-7.162,4.137-18,4.585-24.2,1l-157.1-90.7c-2.573-1.485-3.927-3.433-4.14-5.5-.323,2.533,1.031,5,4.14,6.8l157.1,90.7c6.2,3.583,17.04,3.133,24.2-1l89.158-51.473c4.192-2.421,6.178-5.564,5.878-8.476C646.3,285.341,644.319,287.932,640.746,289.995Z" transform="translate(-366.098 -38.762)" fill="#fff"/>
          <path id="Trazado_132121" data-name="Trazado 132121" d="M471.771,306.817,415.86,274.538c-1.12-.648-.979-1.776.313-2.522L437.165,259.9a4.854,4.854,0,0,1,4.367-.181L497.443,292c1.12.646.979,1.775-.313,2.521l-20.991,12.119A4.85,4.85,0,0,1,471.771,306.817Z" transform="translate(-346.244 -33.493)" fill="#fff" opacity="0.3"/>
          <path id="Trazado_132122" data-name="Trazado 132122" d="M416.17,273.341l20.992-12.119a4.854,4.854,0,0,1,4.367-.181l55.911,32.28a1.691,1.691,0,0,1,.517.454A1.169,1.169,0,0,0,497.44,292l-55.911-32.281a4.854,4.854,0,0,0-4.367.181L416.17,272.015c-1.029.593-1.314,1.426-.83,2.068A2.447,2.447,0,0,1,416.17,273.341Z" transform="translate(-346.241 -33.493)" fill="#a8cff0"/>
          <path id="Trazado_132123" data-name="Trazado 132123" d="M459.249,213l9.635,5.563a4.888,4.888,0,0,0,4.423.008c1.218-.7,1.211-1.846-.014-2.555l-9.635-5.563a4.892,4.892,0,0,0-4.423-.008C458.016,211.151,458.023,212.294,459.249,213Zm16.5,9.525,4.564,2.635a4.892,4.892,0,0,0,4.423.008c1.218-.7,1.211-1.846-.014-2.555l-4.564-2.635a4.888,4.888,0,0,0-4.423-.008C474.514,220.675,474.521,221.819,475.747,222.527Zm11.427,6.6,4.564,2.636a4.887,4.887,0,0,0,4.423.007c1.217-.7,1.211-1.846-.014-2.553l-4.564-2.635a4.888,4.888,0,0,0-4.423-.008C485.941,227.272,485.947,228.416,487.173,229.123Zm11.425,6.6,4.565,2.636a4.888,4.888,0,0,0,4.423.007c1.217-.7,1.211-1.846-.014-2.553l-4.564-2.636a4.895,4.895,0,0,0-4.425-.007C497.368,233.87,497.373,235.013,498.6,235.72Zm11.427,6.6,4.564,2.636a4.888,4.888,0,0,0,4.423.007c1.218-.7,1.213-1.846-.013-2.553l-4.565-2.636a4.888,4.888,0,0,0-4.423-.007C508.794,240.467,508.8,241.611,510.025,242.317Zm11.427,6.6,4.564,2.636a4.888,4.888,0,0,0,4.423.007c1.218-.7,1.211-1.846-.014-2.553l-4.564-2.636a4.888,4.888,0,0,0-4.423-.007C520.22,247.064,520.227,248.208,521.452,248.914Zm11.427,6.6,4.564,2.635a4.888,4.888,0,0,0,4.423.008c1.218-.7,1.211-1.846-.014-2.553l-4.564-2.636a4.892,4.892,0,0,0-4.423-.008C531.646,253.661,531.653,254.8,532.879,255.512Zm11.425,6.6,4.565,2.635a4.888,4.888,0,0,0,4.423.008c1.217-.7,1.211-1.846-.014-2.555l-4.564-2.635a4.892,4.892,0,0,0-4.423-.008C543.073,260.258,543.078,261.4,544.3,262.109Zm11.427,6.6,4.564,2.635a4.891,4.891,0,0,0,4.425.008c1.217-.7,1.211-1.846-.014-2.555l-4.565-2.635a4.892,4.892,0,0,0-4.423-.008C554.5,266.855,554.505,268,555.73,268.706Zm11.427,6.6,4.564,2.635a4.888,4.888,0,0,0,4.423.008c1.218-.7,1.213-1.846-.014-2.555l-4.564-2.635a4.888,4.888,0,0,0-4.423-.008C565.926,273.453,565.932,274.595,567.157,275.3Zm11.427,6.6,4.564,2.635a4.892,4.892,0,0,0,4.423.008c1.218-.7,1.211-1.846-.014-2.555l-4.564-2.635a4.887,4.887,0,0,0-4.423-.008C577.351,280.048,577.358,281.192,578.584,281.9Zm11.427,6.6,4.564,2.635a4.888,4.888,0,0,0,4.423.007c1.218-.7,1.211-1.846-.014-2.553l-4.564-2.635a4.887,4.887,0,0,0-4.423-.008C588.778,286.645,588.785,287.789,590.01,288.5Zm11.664,6.733,4.564,2.635a4.888,4.888,0,0,0,4.423.008c1.217-.7,1.211-1.846-.014-2.553l-4.564-2.636a4.888,4.888,0,0,0-4.423-.007C600.442,293.38,600.448,294.524,601.674,295.231Zm-152.7-75.943,3.951,2.282a5.562,5.562,0,0,0,5.035.008l3.927-2.267c1.385-.8,1.379-2.1-.017-2.907l-3.951-2.281a5.567,5.567,0,0,0-5.035-.01l-3.926,2.268C447.571,217.182,447.578,218.483,448.971,219.288Zm20.413,8.888,3.926-2.266c1.387-.8,1.38-2.1-.015-2.907l-3.951-2.281a5.566,5.566,0,0,0-5.035-.01l-3.926,2.268c-1.387.8-1.38,2.1.016,2.906l3.951,2.282A5.562,5.562,0,0,0,469.384,228.176Zm2.441,4.307,3.951,2.282a5.562,5.562,0,0,0,5.035.008l3.926-2.266c1.386-.8,1.378-2.1-.015-2.907l-3.951-2.281a5.566,5.566,0,0,0-5.035-.01l-3.927,2.268C470.423,230.376,470.43,231.678,471.825,232.483Zm11.425,6.6,3.953,2.282a5.563,5.563,0,0,0,5.033.008l3.927-2.266c1.385-.8,1.378-2.1-.016-2.907l-3.951-2.282a5.566,5.566,0,0,0-5.035-.008l-3.927,2.266C481.849,236.974,481.856,238.275,483.25,239.08Zm24.323,3.714-3.951-2.282a5.563,5.563,0,0,0-5.033-.008l-3.927,2.266c-1.385.8-1.378,2.1.015,2.907l3.951,2.282a5.566,5.566,0,0,0,5.035.008l3.927-2.267C508.976,244.9,508.969,243.6,507.573,242.794Zm11.427,6.6-3.951-2.282a5.562,5.562,0,0,0-5.035-.008l-3.926,2.267c-1.387.8-1.378,2.1.016,2.907l3.951,2.281a5.566,5.566,0,0,0,5.035.01l3.927-2.268C520.4,251.5,520.4,250.2,519,249.391Zm11.427,6.6-3.951-2.282a5.562,5.562,0,0,0-5.035-.008l-3.926,2.266c-1.387.8-1.38,2.1.016,2.907l3.951,2.281a5.566,5.566,0,0,0,5.035.01l3.926-2.268C531.829,258.094,531.822,256.793,530.427,255.988Zm11.427,6.6L537.9,260.3a5.562,5.562,0,0,0-5.035-.008l-3.927,2.267c-1.386.8-1.378,2.1.017,2.907l3.951,2.281a5.566,5.566,0,0,0,5.035.01l3.926-2.268C543.254,264.691,543.247,263.39,541.853,262.585Zm11.427,6.6-3.951-2.281a5.562,5.562,0,0,0-5.035-.008l-3.927,2.267c-1.385.8-1.378,2.1.016,2.906l3.951,2.282a5.566,5.566,0,0,0,5.035.01l3.927-2.268C554.681,271.289,554.674,269.986,553.28,269.181Zm11.425,6.6-3.951-2.281a5.567,5.567,0,0,0-5.035-.01l-3.926,2.268c-1.385.8-1.378,2.1.015,2.906l3.951,2.282a5.562,5.562,0,0,0,5.035.008l3.927-2.266C566.107,277.886,566.1,276.583,564.705,275.778Zm-1.47,9.48,3.951,2.282a5.562,5.562,0,0,0,5.035.008l3.926-2.267c1.387-.8,1.38-2.1-.015-2.907l-3.951-2.28a5.566,5.566,0,0,0-5.035-.01l-3.926,2.268C561.833,283.152,561.84,284.453,563.235,285.259Zm24.323,3.714-3.951-2.28a5.566,5.566,0,0,0-5.035-.01l-3.927,2.268c-1.385.8-1.378,2.1.017,2.906l3.951,2.282a5.562,5.562,0,0,0,5.035.008l3.926-2.267C588.959,291.079,588.952,289.777,587.558,288.972Zm16.735,9.663-9.023-5.21a5.562,5.562,0,0,0-5.035-.008l-3.927,2.266c-1.386.8-1.379,2.1.017,2.907l9.022,5.209a5.562,5.562,0,0,0,5.035.008l3.926-2.267C605.7,300.742,605.689,299.439,604.294,298.636ZM438.388,225.4l9.022,5.209a5.566,5.566,0,0,0,5.035.01l3.927-2.268c1.385-.8,1.378-2.1-.015-2.906l-9.024-5.21a5.559,5.559,0,0,0-5.033-.008l-3.927,2.267C436.987,223.293,436.994,224.594,438.388,225.4Zm16.5,9.525,3.951,2.281a5.562,5.562,0,0,0,5.035.008l3.927-2.267c1.385-.8,1.378-2.1-.017-2.906l-3.951-2.282a5.566,5.566,0,0,0-5.035-.01l-3.926,2.268C453.485,232.817,453.492,234.118,454.886,234.925Zm15.378,8.878a5.562,5.562,0,0,0,5.035.008l3.926-2.266c1.387-.8,1.38-2.1-.015-2.906l-3.951-2.282a5.566,5.566,0,0,0-5.035-.01l-3.926,2.268c-1.387.8-1.38,2.1.015,2.906Zm11.427,6.6a5.562,5.562,0,0,0,5.035.008l3.926-2.266c1.385-.8,1.378-2.1-.016-2.907l-3.951-2.281a5.567,5.567,0,0,0-5.035-.01l-3.927,2.268c-1.385.8-1.378,2.1.017,2.906Zm11.386-.859-3.927,2.268c-1.385.8-1.379,2.1.015,2.906L493.117,257a5.559,5.559,0,0,0,5.033.008l3.927-2.266c1.385-.8,1.378-2.1-.016-2.907l-3.951-2.281A5.567,5.567,0,0,0,493.076,249.541ZM504.743,256l-4.409,2.546c-1.252.722-1.246,1.9.014,2.626l4.437,2.563a5.03,5.03,0,0,0,4.55.007l4.411-2.546c1.252-.722,1.245-1.9-.015-2.626l-4.436-2.562A5.029,5.029,0,0,0,504.743,256Zm11.427,6.6-4.409,2.546c-1.252.722-1.246,1.9.014,2.626l4.437,2.562a5.027,5.027,0,0,0,4.55.008l4.409-2.546c1.253-.722,1.247-1.9-.014-2.626L520.72,262.6A5.026,5.026,0,0,0,516.17,262.6Zm11.427,6.6-4.409,2.545c-1.253.724-1.246,1.9.014,2.628l4.438,2.562a5.026,5.026,0,0,0,4.55.008l4.409-2.546c1.253-.722,1.246-1.9-.014-2.626l-4.437-2.562A5.027,5.027,0,0,0,527.6,269.194Zm11.427,6.6-4.409,2.545c-1.253.724-1.246,1.9.014,2.628l4.438,2.562a5.026,5.026,0,0,0,4.55.008l4.409-2.546c1.252-.722,1.246-1.9-.014-2.626l-4.437-2.563A5.031,5.031,0,0,0,539.023,275.791Zm11.427,6.6-4.411,2.546c-1.252.724-1.246,1.9.014,2.628l4.437,2.562a5.029,5.029,0,0,0,4.551.008l4.409-2.546c1.252-.724,1.246-1.9-.014-2.626L555,282.395A5.03,5.03,0,0,0,550.45,282.386Zm16.017,14.341,4.411-2.546c1.252-.724,1.245-1.9-.015-2.628l-4.437-2.562a5.03,5.03,0,0,0-4.55-.008l-4.409,2.546c-1.252.724-1.246,1.9.014,2.628l4.438,2.562A5.03,5.03,0,0,0,566.467,296.727Zm11.427,6.6,4.409-2.546c1.253-.724,1.246-1.9-.014-2.628l-4.437-2.562a5.031,5.031,0,0,0-4.55-.008l-4.409,2.546c-1.252.724-1.246,1.9.014,2.628l4.438,2.562A5.031,5.031,0,0,0,577.894,303.325Zm16.059,1.561-4.437-2.562a5.026,5.026,0,0,0-4.55-.008l-4.409,2.546c-1.253.722-1.246,1.9.014,2.626l4.437,2.562a5.026,5.026,0,0,0,4.55.008l4.409-2.546C595.221,306.79,595.214,305.614,593.953,304.886ZM427.561,231.37l14.327,8.271a5.026,5.026,0,0,0,4.55.008l4.411-2.546c1.252-.724,1.245-1.9-.015-2.626L436.508,226.2a5.031,5.031,0,0,0-4.55-.008l-4.411,2.546C426.3,229.466,426.3,230.642,427.561,231.37Zm21.316,12.306,4.437,2.562a5.026,5.026,0,0,0,4.55.008l4.409-2.546c1.253-.724,1.246-1.9-.014-2.628l-4.437-2.562a5.03,5.03,0,0,0-4.55-.008l-4.409,2.546C447.611,241.772,447.617,242.948,448.877,243.676Zm11.427,6.6,4.438,2.562a5.03,5.03,0,0,0,4.55.008L473.7,250.3c1.252-.724,1.246-1.9-.014-2.628l-4.437-2.562a5.03,5.03,0,0,0-4.55-.008l-4.409,2.546C459.037,248.369,459.044,249.545,460.3,250.273Zm11.427,6.6,4.437,2.562a5.03,5.03,0,0,0,4.55.008l4.409-2.546c1.252-.724,1.246-1.9-.014-2.628l-4.437-2.562a5.03,5.03,0,0,0-4.55-.008l-4.411,2.546C470.463,254.966,470.47,256.143,471.731,256.87Zm20.413,9.167,4.411-2.546c1.252-.724,1.246-1.9-.014-2.628L492.1,258.3a5.029,5.029,0,0,0-4.551-.008l-4.409,2.546c-1.252.724-1.246,1.9.014,2.626l4.437,2.563A5.031,5.031,0,0,0,492.143,266.038Zm11.427,6.6,4.409-2.546c1.253-.722,1.246-1.9-.014-2.626l-4.438-2.562a5.026,5.026,0,0,0-4.55-.008l-4.409,2.546c-1.252.722-1.246,1.9.014,2.626l4.438,2.563A5.03,5.03,0,0,0,503.57,272.633Zm11.427,6.6,4.409-2.546c1.253-.722,1.246-1.9-.014-2.626l-4.438-2.562a5.026,5.026,0,0,0-4.55-.008L506,274.034c-1.253.722-1.246,1.9.014,2.626l4.438,2.562A5.026,5.026,0,0,0,515,279.231Zm11.427,6.6,4.409-2.546c1.252-.722,1.246-1.9-.014-2.626l-4.438-2.562a5.026,5.026,0,0,0-4.55-.008l-4.409,2.546c-1.253.722-1.246,1.9.014,2.626l4.438,2.562A5.026,5.026,0,0,0,526.423,285.828Zm11.427,6.6,4.409-2.546c1.252-.724,1.246-1.9-.014-2.626l-4.438-2.563a5.026,5.026,0,0,0-4.55-.007l-4.411,2.545c-1.252.724-1.245,1.9.016,2.628l4.436,2.562A5.029,5.029,0,0,0,537.85,292.425Zm11.425,6.6,4.411-2.546c1.252-.724,1.245-1.9-.016-2.628l-4.437-2.562a5.031,5.031,0,0,0-4.55-.008l-4.409,2.546c-1.252.724-1.246,1.9.014,2.628l4.438,2.562A5.026,5.026,0,0,0,549.275,299.022Zm2.439,4.027,4.437,2.562a5.031,5.031,0,0,0,4.55.008l4.409-2.546c1.253-.724,1.246-1.9-.014-2.628l-4.437-2.562a5.03,5.03,0,0,0-4.55-.008l-4.409,2.546C550.449,301.145,550.454,302.321,551.715,303.049ZM583.37,311l-11.283-6.514a5.031,5.031,0,0,0-4.55-.008l-4.409,2.546c-1.253.724-1.246,1.9.014,2.628l11.283,6.514a5.03,5.03,0,0,0,4.55.008l4.409-2.546C584.637,312.9,584.63,311.723,583.37,311ZM417.023,237.8l20.327,11.736a5.682,5.682,0,0,0,5.14.01l3.822-2.206c1.415-.818,1.408-2.146-.015-2.968l-20.328-11.736a5.683,5.683,0,0,0-5.14-.01l-3.822,2.206C415.591,235.646,415.6,236.974,417.023,237.8Zm27.908,16.113,3.846,2.22a5.682,5.682,0,0,0,5.14.01l3.822-2.206c1.415-.818,1.408-2.146-.017-2.968l-3.846-2.22a5.68,5.68,0,0,0-5.139-.01l-3.822,2.206C443.5,251.758,443.507,253.086,444.93,253.908Zm11.427,6.6,3.846,2.22a5.682,5.682,0,0,0,5.14.01l3.822-2.206c1.414-.818,1.407-2.146-.017-2.968l-3.846-2.22a5.674,5.674,0,0,0-5.14-.01l-3.821,2.206C454.927,258.354,454.934,259.684,456.357,260.506Zm11.427,6.6,3.846,2.22a5.683,5.683,0,0,0,5.14.01l3.821-2.208c1.415-.816,1.408-2.146-.016-2.966l-3.846-2.221a5.678,5.678,0,0,0-5.14-.008l-3.822,2.206C466.352,264.951,466.36,266.281,467.784,267.1Zm11.427,6.6,3.846,2.22a5.679,5.679,0,0,0,5.139.01l3.822-2.207c1.415-.816,1.408-2.146-.015-2.968l-3.846-2.22a5.678,5.678,0,0,0-5.14-.008l-3.822,2.206C477.778,271.549,477.785,272.878,479.21,273.7Zm11.425,6.6,3.846,2.22a5.678,5.678,0,0,0,5.14.008l3.822-2.206c1.415-.816,1.408-2.146-.017-2.968l-3.845-2.22a5.678,5.678,0,0,0-5.14-.008l-3.822,2.206C489.205,278.146,489.212,279.475,490.635,280.3Zm11.427,6.6,3.846,2.22a5.678,5.678,0,0,0,5.14.008l3.822-2.206c1.415-.816,1.406-2.146-.017-2.968l-3.846-2.22a5.679,5.679,0,0,0-5.139-.01l-3.822,2.207C500.632,284.743,500.639,286.072,502.062,286.894Zm11.427,6.6,3.846,2.22a5.678,5.678,0,0,0,5.14.008l3.821-2.206c1.415-.816,1.408-2.146-.016-2.968l-3.846-2.22a5.682,5.682,0,0,0-5.14-.01l-3.822,2.207C512.058,291.34,512.065,292.668,513.489,293.491Zm11.427,6.6,3.846,2.222a5.684,5.684,0,0,0,5.139.008l3.822-2.206c1.415-.818,1.408-2.146-.015-2.968l-3.846-2.22a5.682,5.682,0,0,0-5.14-.01l-3.822,2.206C523.484,297.937,523.491,299.265,524.916,300.087Zm11.425,6.6,3.846,2.22a5.683,5.683,0,0,0,5.14.01l3.822-2.206c1.415-.818,1.408-2.146-.015-2.968l-3.846-2.22a5.683,5.683,0,0,0-5.14-.01l-3.822,2.206C534.91,304.534,534.917,305.862,536.341,306.684Zm11.427,6.6,3.846,2.22a5.682,5.682,0,0,0,5.14.01l3.822-2.206c1.415-.818,1.408-2.146-.017-2.968l-3.846-2.22a5.679,5.679,0,0,0-5.139-.01l-3.822,2.206C546.337,311.132,546.344,312.459,547.767,313.281Zm24.472,3.8-3.846-2.22a5.683,5.683,0,0,0-5.14-.01l-3.822,2.206c-1.415.818-1.408,2.146.017,2.968l3.844,2.22a5.683,5.683,0,0,0,5.14.01l3.822-2.206C573.67,319.231,573.663,317.9,572.24,317.081ZM424.3,243.89l-8.917-5.148a5.682,5.682,0,0,0-5.14-.01l-3.821,2.207c-1.415.816-1.408,2.146.015,2.968l8.917,5.148a5.682,5.682,0,0,0,5.14.008l3.822-2.206C425.733,246.041,425.725,244.712,424.3,243.89Zm11.427,6.6-3.846-2.22a5.683,5.683,0,0,0-5.14-.01l-3.822,2.206c-1.414.818-1.407,2.146.017,2.968l3.846,2.22a5.682,5.682,0,0,0,5.14.01l3.821-2.206C437.158,252.637,437.151,251.309,435.728,250.487Zm11.427,6.6-3.846-2.22a5.682,5.682,0,0,0-5.14-.01l-3.822,2.206c-1.415.818-1.408,2.146.017,2.968l3.846,2.22a5.679,5.679,0,0,0,5.139.01l3.822-2.206C448.585,259.234,448.578,257.906,447.155,257.084Zm79.984,46.179-72.4-41.8a5.678,5.678,0,0,0-5.14-.01l-3.822,2.206c-1.415.818-1.408,2.146.015,2.968l72.4,41.8a5.678,5.678,0,0,0,5.14.01l3.822-2.206C528.57,305.413,528.563,304.085,527.139,303.263Zm11.427,6.6-3.846-2.22a5.682,5.682,0,0,0-5.14-.01l-3.821,2.206c-1.415.818-1.408,2.146.016,2.968l3.846,2.22a5.682,5.682,0,0,0,5.14.01l3.822-2.206C540,312.01,539.989,310.682,538.565,309.86Zm11.427,6.6-3.846-2.22a5.682,5.682,0,0,0-5.14-.01l-3.822,2.206c-1.415.818-1.408,2.146.017,2.968l3.846,2.22a5.68,5.68,0,0,0,5.139.01l3.822-2.206C551.422,318.607,551.415,317.279,549.992,316.457Zm11.664,6.733-3.846-2.22a5.678,5.678,0,0,0-5.14-.008l-3.822,2.206c-1.415.816-1.408,2.146.017,2.968l3.846,2.22a5.679,5.679,0,0,0,5.139.01l3.822-2.207C563.086,325.342,563.079,324.013,561.656,323.191Z" transform="translate(-350.189 -53.49)" fill="#00223d"/>
          <path id="Trazado_132124" data-name="Trazado 132124" d="M463.658,209.7a4.888,4.888,0,0,0-4.423-.008Zm12.088,12.07,4.564,2.636a4.888,4.888,0,0,0,4.423.007c1.218-.7,1.211-1.846-.014-2.553l-4.564-2.636a4.888,4.888,0,0,0-4.423-.007C474.514,219.918,474.521,221.062,475.747,221.769Zm11.427,6.6L491.737,231a4.888,4.888,0,0,0,4.423.008c1.217-.7,1.211-1.846-.014-2.553l-4.564-2.636a4.892,4.892,0,0,0-4.423-.008C485.941,226.516,485.947,227.659,487.173,228.366Zm11.425,6.6,4.565,2.635a4.888,4.888,0,0,0,4.423.008c1.217-.7,1.211-1.846-.014-2.555l-4.564-2.635a4.9,4.9,0,0,0-4.425-.008C497.368,233.113,497.373,234.256,498.6,234.963Zm11.427,6.6,4.564,2.635a4.888,4.888,0,0,0,4.423.008c1.218-.7,1.213-1.846-.013-2.555l-4.565-2.635a4.892,4.892,0,0,0-4.423-.008C508.794,239.71,508.8,240.852,510.025,241.56Zm11.427,6.6,4.564,2.635a4.888,4.888,0,0,0,4.423.008c1.218-.7,1.211-1.846-.014-2.555l-4.564-2.635a4.888,4.888,0,0,0-4.423-.008C520.22,246.306,520.227,247.449,521.452,248.158Zm11.427,6.6,4.564,2.635a4.892,4.892,0,0,0,4.423.008c1.218-.7,1.211-1.846-.014-2.555l-4.564-2.635a4.888,4.888,0,0,0-4.423-.008C531.646,252.9,531.653,254.047,532.879,254.755Zm11.425,6.6,4.565,2.635a4.887,4.887,0,0,0,4.423.007c1.217-.7,1.211-1.846-.014-2.553l-4.564-2.635a4.887,4.887,0,0,0-4.423-.008C543.073,259.5,543.078,260.644,544.3,261.352Zm11.427,6.6,4.564,2.636a4.89,4.89,0,0,0,4.425.007c1.217-.7,1.211-1.846-.014-2.553L560.14,265.4a4.887,4.887,0,0,0-4.423-.008C554.5,266.1,554.505,267.241,555.73,267.948Zm11.427,6.6,4.564,2.636a4.888,4.888,0,0,0,4.423.007c1.218-.7,1.213-1.846-.014-2.553L571.566,272a4.888,4.888,0,0,0-4.423-.007C565.926,272.694,565.932,273.838,567.157,274.545Zm11.427,6.6,4.564,2.635a4.883,4.883,0,0,0,4.423.008c1.218-.7,1.211-1.846-.014-2.553l-4.564-2.636a4.888,4.888,0,0,0-4.423-.007C577.351,279.291,577.358,280.435,578.584,281.142Zm11.427,6.6,4.564,2.635a4.888,4.888,0,0,0,4.423.008c1.218-.7,1.211-1.846-.014-2.555l-4.564-2.635a4.892,4.892,0,0,0-4.423-.008C588.778,285.889,588.785,287.032,590.01,287.739Zm11.664,6.735,4.564,2.635a4.892,4.892,0,0,0,4.423.008c1.217-.7,1.211-1.846-.014-2.555l-4.564-2.635a4.888,4.888,0,0,0-4.423-.008C600.442,292.622,600.448,293.766,601.674,294.474Zm-152.7-75.943,3.951,2.281a5.562,5.562,0,0,0,5.035.01l3.927-2.266c1.385-.8,1.379-2.1-.017-2.907l-3.951-2.282a5.562,5.562,0,0,0-5.035-.008l-3.926,2.266C447.571,216.425,447.578,217.726,448.971,218.531Zm20.413,8.888,3.926-2.268c1.387-.8,1.38-2.1-.015-2.906l-3.951-2.282a5.562,5.562,0,0,0-5.035-.008l-3.926,2.266c-1.387.8-1.38,2.1.016,2.907l3.951,2.281A5.566,5.566,0,0,0,469.384,227.419Zm2.441,4.307,3.951,2.281a5.566,5.566,0,0,0,5.035.01l3.926-2.268c1.386-.8,1.378-2.1-.015-2.906l-3.951-2.282a5.562,5.562,0,0,0-5.035-.008l-3.927,2.267C470.423,229.62,470.43,230.921,471.825,231.726Zm11.425,6.6L487.2,240.6a5.563,5.563,0,0,0,5.033.01l3.927-2.268c1.385-.8,1.378-2.1-.016-2.906l-3.951-2.282a5.562,5.562,0,0,0-5.035-.008l-3.927,2.267C481.849,236.215,481.856,237.518,483.25,238.323Zm24.323,3.714-3.951-2.282a5.559,5.559,0,0,0-5.033-.008l-3.927,2.266c-1.385.8-1.378,2.1.015,2.907l3.951,2.281a5.566,5.566,0,0,0,5.035.01l3.927-2.268C508.976,244.143,508.969,242.842,507.573,242.037Zm11.427,6.6-3.951-2.281a5.566,5.566,0,0,0-5.035-.01l-3.926,2.268c-1.387.8-1.378,2.1.016,2.906l3.951,2.282a5.562,5.562,0,0,0,5.035.008l3.927-2.266C520.4,250.74,520.4,249.438,519,248.633Zm11.427,6.6-3.951-2.281a5.566,5.566,0,0,0-5.035-.01l-3.926,2.268c-1.387.8-1.38,2.1.016,2.906l3.951,2.282a5.562,5.562,0,0,0,5.035.008l3.926-2.267C531.829,257.337,531.822,256.035,530.427,255.23Zm11.427,6.6-3.951-2.281a5.566,5.566,0,0,0-5.035-.01L528.94,261.8c-1.386.8-1.378,2.1.017,2.906l3.951,2.282a5.562,5.562,0,0,0,5.035.008l3.926-2.266C543.254,263.933,543.247,262.632,541.853,261.827Zm11.427,6.6-3.951-2.281a5.562,5.562,0,0,0-5.035-.01l-3.927,2.268c-1.385.8-1.378,2.1.016,2.906l3.951,2.282a5.562,5.562,0,0,0,5.035.008l3.927-2.267C554.681,270.53,554.674,269.229,553.28,268.424Zm11.425,6.6-3.951-2.282a5.567,5.567,0,0,0-5.035-.008L551.793,275c-1.385.8-1.378,2.1.015,2.907l3.951,2.282a5.571,5.571,0,0,0,5.035.008l3.927-2.267C566.107,277.128,566.1,275.826,564.705,275.021Zm-1.47,9.481,3.951,2.281a5.566,5.566,0,0,0,5.035.01l3.926-2.268c1.387-.8,1.38-2.1-.015-2.906l-3.951-2.282a5.562,5.562,0,0,0-5.035-.008l-3.926,2.267C561.833,282.4,561.84,283.7,563.235,284.5Zm24.323,3.714-3.951-2.282a5.562,5.562,0,0,0-5.035-.008l-3.927,2.266c-1.385.8-1.378,2.1.017,2.907l3.951,2.281a5.566,5.566,0,0,0,5.035.01l3.926-2.268C588.959,290.322,588.952,289.021,587.558,288.216Zm16.735,9.662-9.023-5.209a5.566,5.566,0,0,0-5.035-.01l-3.927,2.268c-1.386.8-1.379,2.1.017,2.906l9.022,5.21a5.566,5.566,0,0,0,5.035.008l3.926-2.266C605.7,299.984,605.689,298.682,604.294,297.877ZM438.388,224.642l9.022,5.209a5.562,5.562,0,0,0,5.035.008l3.927-2.267c1.385-.8,1.378-2.1-.015-2.907l-9.024-5.209a5.559,5.559,0,0,0-5.033-.008l-3.927,2.267C436.987,222.535,436.994,223.836,438.388,224.642Zm16.5,9.524,3.951,2.282a5.562,5.562,0,0,0,5.035.008l3.927-2.266c1.385-.8,1.378-2.1-.017-2.907L463.831,229a5.566,5.566,0,0,0-5.035-.01l-3.926,2.268C453.485,232.06,453.492,233.361,454.886,234.167Zm15.378,8.878a5.562,5.562,0,0,0,5.035.01l3.926-2.267c1.387-.8,1.38-2.1-.015-2.907l-3.951-2.281a5.558,5.558,0,0,0-5.035-.01l-3.926,2.267c-1.387.8-1.38,2.1.015,2.907Zm11.427,6.6a5.566,5.566,0,0,0,5.035.01l3.926-2.268c1.385-.8,1.378-2.1-.016-2.906l-3.951-2.282a5.562,5.562,0,0,0-5.035-.008l-3.927,2.267c-1.385.8-1.378,2.1.017,2.907Zm11.386-.857-3.927,2.267c-1.385.8-1.379,2.1.015,2.907l3.953,2.281a5.563,5.563,0,0,0,5.033.01l3.927-2.268c1.385-.8,1.378-2.1-.016-2.906l-3.951-2.282A5.562,5.562,0,0,0,493.076,248.784Zm11.667,6.457-4.409,2.546c-1.252.724-1.246,1.9.014,2.628l4.437,2.562a5.03,5.03,0,0,0,4.55.008l4.411-2.546c1.252-.724,1.245-1.9-.015-2.628l-4.436-2.562A5.033,5.033,0,0,0,504.743,255.241Zm11.427,6.6-4.409,2.546c-1.252.724-1.246,1.9.014,2.628l4.437,2.562a5.031,5.031,0,0,0,4.55.008l4.409-2.546c1.253-.724,1.247-1.9-.014-2.628l-4.437-2.562A5.031,5.031,0,0,0,516.17,261.838Zm11.427,6.6-4.409,2.546c-1.253.724-1.246,1.9.014,2.628l4.438,2.562a5.03,5.03,0,0,0,4.55.008l4.409-2.546c1.253-.724,1.246-1.9-.014-2.628l-4.437-2.562A5.031,5.031,0,0,0,527.6,268.435Zm11.427,6.6-4.409,2.546c-1.253.724-1.246,1.9.014,2.626l4.438,2.563a5.031,5.031,0,0,0,4.55.008l4.409-2.546c1.252-.724,1.246-1.9-.014-2.628l-4.437-2.562A5.027,5.027,0,0,0,539.023,275.032Zm11.427,6.6-4.411,2.546c-1.252.724-1.246,1.9.014,2.626l4.437,2.563a5.034,5.034,0,0,0,4.551.007l4.409-2.545c1.252-.724,1.246-1.9-.014-2.628L555,281.638A5.026,5.026,0,0,0,550.45,281.63Zm16.017,14.34,4.411-2.546c1.252-.722,1.245-1.9-.015-2.626l-4.437-2.562a5.026,5.026,0,0,0-4.55-.008l-4.409,2.546c-1.252.722-1.246,1.9.014,2.626l4.438,2.562A5.026,5.026,0,0,0,566.467,295.969Zm11.427,6.6,4.409-2.546c1.253-.722,1.246-1.9-.014-2.626l-4.437-2.562a5.027,5.027,0,0,0-4.55-.008l-4.409,2.546c-1.252.722-1.246,1.9.014,2.626l4.438,2.562A5.026,5.026,0,0,0,577.894,302.566Zm16.059,1.561-4.437-2.562a5.031,5.031,0,0,0-4.55-.008l-4.409,2.546c-1.253.724-1.246,1.9.014,2.628l4.437,2.562a5.03,5.03,0,0,0,4.55.008l4.409-2.546C595.221,306.031,595.214,304.855,593.953,304.127ZM427.561,230.612l14.327,8.272a5.026,5.026,0,0,0,4.55.007l4.411-2.545c1.252-.724,1.245-1.9-.015-2.628l-14.326-8.271a5.026,5.026,0,0,0-4.55-.008l-4.411,2.546C426.3,228.708,426.3,229.884,427.561,230.612Zm21.316,12.306,4.437,2.563a5.031,5.031,0,0,0,4.55.007l4.409-2.546c1.253-.722,1.246-1.9-.014-2.626l-4.437-2.562a5.026,5.026,0,0,0-4.55-.008l-4.409,2.546C447.611,241.014,447.617,242.19,448.877,242.918Zm11.427,6.6,4.438,2.562a5.026,5.026,0,0,0,4.55.008l4.409-2.546c1.252-.722,1.246-1.9-.014-2.626l-4.437-2.562a5.026,5.026,0,0,0-4.55-.008l-4.409,2.546C459.037,247.611,459.044,248.787,460.3,249.515Zm11.427,6.6,4.437,2.562a5.026,5.026,0,0,0,4.55.008l4.409-2.546c1.252-.722,1.246-1.9-.014-2.626l-4.437-2.563a5.03,5.03,0,0,0-4.55-.007l-4.411,2.546C470.463,254.208,470.47,255.384,471.731,256.112Zm20.413,9.167,4.411-2.546c1.252-.724,1.246-1.9-.014-2.626l-4.437-2.563a5.033,5.033,0,0,0-4.551-.007l-4.409,2.545c-1.252.724-1.246,1.9.014,2.628l4.437,2.562A5.026,5.026,0,0,0,492.143,265.279Zm11.427,6.6,4.409-2.546c1.253-.724,1.246-1.9-.014-2.626l-4.438-2.563a5.03,5.03,0,0,0-4.55-.008l-4.409,2.546c-1.252.724-1.246,1.9.014,2.628l4.438,2.562A5.026,5.026,0,0,0,503.57,271.876Zm11.427,6.6,4.409-2.546c1.253-.724,1.246-1.9-.014-2.628l-4.438-2.562a5.03,5.03,0,0,0-4.55-.008L506,273.276c-1.253.724-1.246,1.9.014,2.628l4.438,2.562A5.03,5.03,0,0,0,515,278.474Zm11.427,6.6,4.409-2.546c1.252-.724,1.246-1.9-.014-2.628l-4.438-2.562a5.03,5.03,0,0,0-4.55-.008l-4.409,2.546c-1.253.724-1.246,1.9.014,2.628l4.438,2.562A5.03,5.03,0,0,0,526.423,285.071Zm11.427,6.6,4.409-2.546c1.252-.724,1.246-1.9-.014-2.628l-4.438-2.562a5.026,5.026,0,0,0-4.55-.008l-4.411,2.546c-1.252.724-1.245,1.9.016,2.626l4.436,2.563A5.034,5.034,0,0,0,537.85,291.668Zm11.425,6.6,4.411-2.546c1.252-.724,1.245-1.9-.016-2.628l-4.437-2.562a5.026,5.026,0,0,0-4.55-.008l-4.409,2.546c-1.252.722-1.246,1.9.014,2.626l4.438,2.563A5.035,5.035,0,0,0,549.275,298.265Zm2.439,4.026,4.437,2.563a5.031,5.031,0,0,0,4.55.007l4.409-2.545c1.253-.724,1.246-1.9-.014-2.628l-4.437-2.562a5.026,5.026,0,0,0-4.55-.008l-4.409,2.546C550.449,300.387,550.454,301.563,551.715,302.291Zm31.655,7.948-11.283-6.514a5.026,5.026,0,0,0-4.55-.008l-4.409,2.546c-1.253.722-1.246,1.9.014,2.626l11.283,6.514a5.026,5.026,0,0,0,4.55.008l4.409-2.546C584.637,312.142,584.63,310.966,583.37,310.238Zm-166.347-73.2,20.327,11.736a5.682,5.682,0,0,0,5.14.01l3.822-2.208c1.415-.816,1.408-2.144-.015-2.966l-20.328-11.737a5.678,5.678,0,0,0-5.14-.008l-3.822,2.206C415.591,234.887,415.6,236.217,417.023,237.039Zm27.908,16.113,3.846,2.22a5.682,5.682,0,0,0,5.14.01l3.822-2.207c1.415-.816,1.408-2.146-.017-2.968l-3.846-2.22a5.675,5.675,0,0,0-5.139-.008l-3.822,2.206C443.5,251,443.507,252.329,444.93,253.152Zm11.427,6.6,3.846,2.22a5.678,5.678,0,0,0,5.14.008l3.822-2.206c1.414-.816,1.407-2.146-.017-2.968l-3.846-2.22a5.682,5.682,0,0,0-5.14-.01l-3.821,2.208C454.927,257.6,454.934,258.927,456.357,259.749Zm11.427,6.6,3.846,2.22a5.678,5.678,0,0,0,5.14.008l3.821-2.206c1.415-.816,1.408-2.146-.016-2.968l-3.846-2.22a5.683,5.683,0,0,0-5.14-.01l-3.822,2.207C466.352,264.195,466.36,265.522,467.784,266.346Zm11.427,6.6,3.846,2.22a5.675,5.675,0,0,0,5.139.01l3.822-2.206c1.415-.818,1.408-2.146-.015-2.968l-3.846-2.22a5.682,5.682,0,0,0-5.14-.01l-3.822,2.207C477.778,270.792,477.785,272.12,479.21,272.942Zm11.425,6.6,3.846,2.22a5.683,5.683,0,0,0,5.14.01l3.822-2.206c1.415-.818,1.408-2.146-.017-2.968l-3.845-2.22a5.682,5.682,0,0,0-5.14-.01l-3.822,2.206C489.205,277.389,489.212,278.717,490.635,279.539Zm11.427,6.6,3.846,2.22a5.682,5.682,0,0,0,5.14.01l3.822-2.206c1.415-.818,1.406-2.146-.017-2.968l-3.846-2.22a5.68,5.68,0,0,0-5.139-.01l-3.822,2.206C500.632,283.986,500.639,285.314,502.062,286.136Zm11.427,6.6,3.846,2.22a5.683,5.683,0,0,0,5.14.01l3.821-2.206c1.415-.818,1.408-2.146-.016-2.968l-3.846-2.222a5.687,5.687,0,0,0-5.14-.008l-3.822,2.206C512.058,290.583,512.065,291.911,513.489,292.733Zm11.427,6.6,3.846,2.22a5.679,5.679,0,0,0,5.139.01l3.822-2.208c1.415-.816,1.408-2.144-.015-2.966l-3.846-2.221a5.678,5.678,0,0,0-5.14-.008l-3.822,2.206C523.484,297.179,523.491,298.508,524.916,299.33Zm11.425,6.6,3.846,2.22a5.682,5.682,0,0,0,5.14.01l3.822-2.207c1.415-.816,1.408-2.146-.015-2.966l-3.846-2.222a5.678,5.678,0,0,0-5.14-.008l-3.822,2.206C534.91,303.776,534.917,305.105,536.341,305.927Zm11.427,6.6,3.846,2.22a5.678,5.678,0,0,0,5.14.008l3.822-2.206c1.415-.816,1.408-2.146-.017-2.968l-3.846-2.22a5.675,5.675,0,0,0-5.139-.008l-3.822,2.206C546.337,310.373,546.344,311.7,547.767,312.525Zm24.472,3.8-3.846-2.22a5.678,5.678,0,0,0-5.14-.008l-3.822,2.206c-1.415.816-1.408,2.146.017,2.968l3.844,2.22a5.683,5.683,0,0,0,5.14.01l3.822-2.207C573.67,318.474,573.663,317.145,572.24,316.323ZM424.3,243.133l-8.917-5.148a5.682,5.682,0,0,0-5.14-.01l-3.821,2.206c-1.415.818-1.408,2.146.015,2.968l8.917,5.148a5.682,5.682,0,0,0,5.14.01l3.822-2.207C425.733,245.283,425.725,243.955,424.3,243.133Zm11.427,6.6-3.846-2.22a5.678,5.678,0,0,0-5.14-.008l-3.822,2.206c-1.414.816-1.407,2.146.017,2.968l3.846,2.22a5.682,5.682,0,0,0,5.14.01l3.821-2.207C437.158,251.88,437.151,250.552,435.728,249.729Zm11.427,6.6-3.846-2.22a5.678,5.678,0,0,0-5.14-.008l-3.822,2.206c-1.415.816-1.408,2.146.017,2.968l3.846,2.22a5.675,5.675,0,0,0,5.139.008l3.822-2.206C448.585,258.477,448.578,257.148,447.155,256.326Zm79.984,46.18-72.4-41.8a5.682,5.682,0,0,0-5.14-.01l-3.822,2.207c-1.415.816-1.408,2.146.015,2.968l72.4,41.8a5.683,5.683,0,0,0,5.14.01l3.822-2.207C528.57,304.656,528.563,303.328,527.139,302.506Zm11.427,6.6-3.846-2.222a5.678,5.678,0,0,0-5.14-.008l-3.821,2.206c-1.415.816-1.408,2.146.016,2.968l3.846,2.22a5.682,5.682,0,0,0,5.14.01l3.822-2.208C540,311.253,539.989,309.924,538.565,309.1Zm11.427,6.6-3.846-2.22a5.678,5.678,0,0,0-5.14-.008l-3.822,2.206c-1.415.816-1.408,2.146.017,2.968l3.846,2.22a5.679,5.679,0,0,0,5.139.01l3.822-2.207C551.422,317.85,551.415,316.521,549.992,315.7Zm11.664,6.735-3.846-2.22a5.682,5.682,0,0,0-5.14-.01l-3.822,2.206c-1.415.818-1.408,2.146.017,2.968l3.846,2.22a5.68,5.68,0,0,0,5.139.01l3.822-2.206C563.086,324.584,563.079,323.256,561.656,322.434Z" transform="translate(-350.189 -53.797)" fill="#dee4f0"/>
          <g id="Grupo_61899" data-name="Grupo 61899" transform="translate(111.919)">
            <path id="Trazado_132125" data-name="Trazado 132125" d="M607.725,335.485,456.36,248.043c-5.861-3.382-10.612-12.459-10.612-20.273V109.026c0-7.813,4.751-11.4,10.612-8.021l151.365,87.442c5.859,3.382,10.61,12.459,10.61,20.273V327.464C618.335,335.277,613.584,338.868,607.725,335.485Z" transform="translate(-445.748 -98.133)" fill="url(#linear-gradient)"/>
            <path id="Trazado_132126" data-name="Trazado 132126" d="M607.372,327.411l-149.751-86.5c-4.716-3-7.633-8.986-7.633-15.114V106.478a1.882,1.882,0,0,1,2.833-1.62l.333.194,149.87,86.584c5.613,3.236,7.633,8.986,7.633,15.114V325.791a2.031,2.031,0,0,1-3.036,1.762Z" transform="translate(-444.03 -96.162)" fill="#1e5af9"/>
            <path id="Trazado_132127" data-name="Trazado 132127" d="M603.025,191.634l-149.87-86.582-.333-.194a1.882,1.882,0,0,0-2.833,1.62V225.8c0,6.128,2.917,12.117,7.633,15.114l149.751,86.5.249.142a2.031,2.031,0,0,0,3.036-1.762V206.75C610.658,200.622,608.638,194.872,603.025,191.634Zm6.441,134.156a.845.845,0,0,1-.843.84.812.812,0,0,1-.412-.114L458.219,239.88c-4.259-2.708-7.037-8.245-7.037-14.082V106.478a.692.692,0,0,1,.693-.689.682.682,0,0,1,.346.1l150.207,86.78c5.817,3.353,7.038,9.509,7.038,14.082Z" transform="translate(-444.03 -96.162)" fill="#022652"/>
            <path id="Trazado_132128" data-name="Trazado 132128" d="M609.576,187.311,458.21,99.868c-2.318-1.339-4.464-1.586-6.209-.912-.222.086-3.18,1.658-3.389,1.773l-.01.006c1.808-.877,4.1-.714,6.6.731l151.365,87.442c5.859,3.382,10.61,12.459,10.61,20.273V327.925c0,4.876-1.851,8.106-4.667,9.025a1.767,1.767,0,0,0,.93-.316c.133-.077,3.344-1.89,3.474-1.978,2.015-1.412,3.27-4.312,3.27-8.328V207.584C620.186,199.77,615.435,190.694,609.576,187.311Z" transform="translate(-444.592 -98.594)" fill="#12263f"/>
            <path id="Trazado_132129" data-name="Trazado 132129" d="M609.576,187.311,458.21,99.868c-2.318-1.339-4.464-1.586-6.209-.912-.222.086-3.18,1.658-3.389,1.773l-.01.006c1.808-.877,4.1-.714,6.6.731l151.365,87.442Z" transform="translate(-444.592 -98.594)" fill="#12263f"/>
            <path id="Trazado_132130" data-name="Trazado 132130" d="M606.87,188.262,455.5,100.821c-2.4-1.388-4.612-1.586-6.391-.818a7.837,7.837,0,0,1,5.118,1.2L605.6,188.644c5.861,3.384,10.61,12.461,10.61,20.275V327.661c0,4.61-1.659,7.733-4.22,8.838,3.274-.519,5.493-3.882,5.493-9.219V208.537C617.48,200.723,612.729,191.646,606.87,188.262Z" transform="translate(-444.384 -98.204)" fill="#fff" style="mix-blend-mode: screen;isolation: isolate"/>
          </g>
        </g>
      </g>
      <path id="Trazado_132131" data-name="Trazado 132131" d="M638.687,187.751l-126.535-71.9c-.323,16.843-.031,69.624-.125,86.87-.153,27.924-4.331,49.919-36.569,75.153-10.256,8.029-55.515,32.684-92.238,51.981-14.9,7.83-16.03,11.133-23.564,17.514-7.3,6.184-18.5,11.932-21.774,13.842l125.7,72.683c2.349-1.393,14.577-7.527,22.607-14.328,7.534-6.382,8.666-13.187,23.564-21.017,36.724-19.3,99.642-57.938,110.811-64.641,14.33-8.6,18-14.011,18-36.618C638.557,279.946,638.355,204.284,638.687,187.751Z" transform="translate(8.001 6.991)" fill="#001a46" opacity="0.1"/>
      <path id="Trazado_132132" data-name="Trazado 132132" d="M638.159,188.113l-126.535-71.9c-.323,8.057-.031,74.87-.125,92.117-.153,27.924-4.331,35.885-36.569,61.118-10.256,8.029-55.515,32.684-92.238,51.981-14.9,7.829-17.3,17.82-24.837,24.2-7.3,6.184-15.4,7.876-18.672,9.784L464.88,428.1c2.349-1.394,11.474-3.471,19.5-10.273,7.534-6.381,9.939-16.371,24.837-24.2,36.723-19.3,81.98-43.953,92.238-51.982,32.238-25.234,36.416-33.194,36.569-61.118C638.124,263.182,637.827,195.859,638.159,188.113Z" transform="translate(8.529 7.138)" fill="#fff"/>
      <g id="Grupo_61902" data-name="Grupo 61902" transform="translate(531.46 148.572)">
        <path id="Trazado_132133" data-name="Trazado 132133" d="M469.951,134.162l3.694,2.133a7.254,7.254,0,0,1,2.8,2.771,7.954,7.954,0,0,1,.936,3.916v1.806q0,2.224-.936,2.836t-2.8-.468l-1.186-.684v7.457l-2.508-1.447Zm3.694,10.377q.616.354.923.141t.308-1.158v-2.171a3.19,3.19,0,0,0-.308-1.513,2.366,2.366,0,0,0-.923-.926l-1.186-.684v5.626Z" transform="translate(-469.951 -134.162)" fill="#12263f"/>
        <path id="Trazado_132134" data-name="Trazado 132134" d="M476.215,137.779l3.718,2.146a7.443,7.443,0,0,1,2.827,2.666,7.3,7.3,0,0,1,.889,3.694v1.124q0,2.854-1.643,2.664v.052a4.6,4.6,0,0,1,1.289,2.026,9.309,9.309,0,0,1,.378,2.809v3.219c0,.523.014.954.045,1.294a5.119,5.119,0,0,0,.228,1.088l-2.555-1.474a6.68,6.68,0,0,1-.183-.944c-.03-.278-.045-.759-.045-1.439v-3.35a4.438,4.438,0,0,0-.353-1.957,2.982,2.982,0,0,0-1.221-1.2l-.866-.5v7.851l-2.51-1.447Zm3.42,9.825q.754.436,1.13.208c.251-.152.377-.578.377-1.274v-1.414a3.661,3.661,0,0,0-.308-1.617,2.371,2.371,0,0,0-.969-1l-1.14-.658v5.234Z" transform="translate(-467.413 -132.697)" fill="#12263f"/>
        <path id="Trazado_132135" data-name="Trazado 132135" d="M482.756,141.555,485.264,143v18.318l-2.508-1.447Z" transform="translate(-464.763 -131.167)" fill="#12263f"/>
        <path id="Trazado_132136" data-name="Trazado 132136" d="M485.4,143.083l2.532,1.461,1.641,15.157.045.025,1.643-13.262,2.3,1.331-2.418,16.922-3.329-1.922Z" transform="translate(-463.691 -130.548)" fill="#12263f"/>
        <path id="Trazado_132137" data-name="Trazado 132137" d="M493.747,147.467l3.4,1.963,2.6,19.818-2.508-1.447-.457-3.9v.052l-2.85-1.645-.457,3.322-2.327-1.343Zm2.736,13.828-1.117-9.7-.046-.027-1.095,8.422Z" transform="translate(-461.364 -128.772)" fill="#12263f"/>
        <path id="Trazado_132138" data-name="Trazado 132138" d="M498.925,167.939a7.9,7.9,0,0,1-.946-3.868v-9.84q0-2.146.946-2.777t2.748.409a7.115,7.115,0,0,1,2.748,2.764,7.908,7.908,0,0,1,.946,3.87v1.936L503,159.064v-2.12a2.574,2.574,0,0,0-1.256-2.425q-1.252-.725-1.253.978v10.231a2.554,2.554,0,0,0,1.253,2.4q1.256.723,1.256-.951v-2.8l2.37,1.37v2.591q0,2.146-.946,2.777t-2.748-.409A7.1,7.1,0,0,1,498.925,167.939Z" transform="translate(-458.596 -127.253)" fill="#12263f"/>
        <path id="Trazado_132139" data-name="Trazado 132139" d="M506.677,165.886l-3.034-12.271,2.67,1.54,1.709,7.713.046.025,1.711-5.737,2.439,1.409-3.032,8.768v7.8l-2.51-1.447Z" transform="translate(-456.301 -126.281)" fill="#12263f"/>
        <path id="Trazado_132140" data-name="Trazado 132140" d="M513.154,159.1l3.694,2.133a7.245,7.245,0,0,1,2.8,2.771,7.961,7.961,0,0,1,.936,3.916v1.806q0,2.224-.936,2.836t-2.8-.468l-1.186-.684v7.459l-2.508-1.449Zm3.694,10.377c.41.236.718.284.923.141s.309-.528.309-1.156v-2.172a3.182,3.182,0,0,0-.309-1.512,2.361,2.361,0,0,0-.923-.927l-1.186-.683V168.8Z" transform="translate(-452.447 -124.056)" fill="#12263f"/>
        <path id="Trazado_132141" data-name="Trazado 132141" d="M520.27,180.225a8.058,8.058,0,0,1-.981-3.97v-9.629q0-2.2.981-2.836t2.827.429a7.363,7.363,0,0,1,2.829,2.837,8.05,8.05,0,0,1,.981,3.968v9.629q0,2.2-.981,2.836t-2.829-.429A7.366,7.366,0,0,1,520.27,180.225Zm4.127-.836v-10a2.709,2.709,0,0,0-1.3-2.557q-1.3-.75-1.3,1.055v10a2.71,2.71,0,0,0,1.3,2.556Q524.4,181.194,524.4,179.388Z" transform="translate(-449.962 -122.255)" fill="#12263f"/>
        <path id="Trazado_132142" data-name="Trazado 132142" d="M525.91,166.47l2.509,1.449v15.7L532.547,186v2.616l-6.636-3.832Z" transform="translate(-447.279 -121.073)" fill="#12263f"/>
        <path id="Trazado_132143" data-name="Trazado 132143" d="M531.493,169.694l2.51,1.449V189.46l-2.51-1.449Z" transform="translate(-445.018 -119.766)" fill="#12263f"/>
        <path id="Trazado_132144" data-name="Trazado 132144" d="M535.442,189.023a7.907,7.907,0,0,1-.946-3.87v-9.84q0-2.146.946-2.777t2.749.409a7.115,7.115,0,0,1,2.748,2.764,7.906,7.906,0,0,1,.946,3.87v1.936l-2.371-1.369v-2.119a2.573,2.573,0,0,0-1.255-2.425q-1.254-.725-1.255.977v10.232a2.548,2.548,0,0,0,1.255,2.4q1.254.725,1.255-.95v-2.8l2.371,1.37v2.591q0,2.146-.946,2.777t-2.748-.409A7.105,7.105,0,0,1,535.442,189.023Z" transform="translate(-443.801 -118.711)" fill="#12263f"/>
        <path id="Trazado_132145" data-name="Trazado 132145" d="M543.194,186.968,540.16,174.7l2.669,1.54,1.71,7.713.046.027,1.71-5.739,2.441,1.409-3.034,8.768v7.8l-2.508-1.447Z" transform="translate(-441.506 -117.739)" fill="#12263f"/>
      </g>
      <g id="Grupo_61904" data-name="Grupo 61904" transform="translate(376.728 179.1)">
        <path id="Trazado_132146" data-name="Trazado 132146" d="M405.52,265.02q-1.987,1.069-3.908,2.1l89.033,51.552q2-1.062,3.972-2.109Z" transform="translate(-342.906 -111.673)" fill="#dee4f0"/>
        <path id="Trazado_132147" data-name="Trazado 132147" d="M411.4,261.847q-1.964,1.064-3.9,2.106l89.119,51.553,3.961-2.119Z" transform="translate(-340.52 -112.959)" fill="#dee4f0"/>
        <path id="Trazado_132148" data-name="Trazado 132148" d="M423.076,255.453q-1.926,1.064-3.863,2.129l89.307,51.56q1.994-1.083,3.935-2.14Z" transform="translate(-335.775 -115.55)" fill="#dee4f0"/>
        <path id="Trazado_132149" data-name="Trazado 132149" d="M417.25,258.659q-1.945,1.062-3.88,2.116l89.209,51.555q2-1.073,3.95-2.127Z" transform="translate(-338.143 -114.251)" fill="#dee4f0"/>
        <path id="Trazado_132150" data-name="Trazado 132150" d="M428.865,252.226q-1.9,1.066-3.839,2.146l89.411,51.566q1.994-1.092,3.916-2.153Z" transform="translate(-333.42 -116.857)" fill="#dee4f0"/>
        <path id="Trazado_132151" data-name="Trazado 132151" d="M383.438,264.157c-1.377.729-4.421,2.143-5.65,2.792L447.1,306.81c1.156-.763,4.11-2.229,5.43-2.966Z" transform="translate(-352.559 -112.023)" fill="#1e5af9"/>
        <path id="Trazado_132152" data-name="Trazado 132152" d="M375.764,267.8l-1.754.922c-.746.392-1.442.793-2.111,1.2l107.474,61.97q1.425-1.311,3.076-2.616Z" transform="translate(-354.944 -110.548)" fill="#dee4f0"/>
        <path id="Trazado_132153" data-name="Trazado 132153" d="M424.474,241.642c-1.249.714-4.374,2.371-5.664,3.1l72.42,41.505c1.325-.735,4.487-2.394,5.756-3.1Z" transform="translate(-335.939 -121.145)" fill="#1e5af9"/>
        <path id="Trazado_132154" data-name="Trazado 132154" d="M362.258,279.915c-.766.989-1.568,1.974-2.425,2.948l108.113,62.473c.579-.422,1.152-.866,1.714-1.34a16.825,16.825,0,0,0,1.346-1.284Z" transform="translate(-359.833 -105.639)" fill="#dee4f0"/>
        <path id="Trazado_132155" data-name="Trazado 132155" d="M468.82,163.428l65.518,36.662c0-1.863,0-5.1-.007-6.9l-65.519-37.307v2.051C468.815,159.787,468.818,161.621,468.82,163.428Z" transform="translate(-315.681 -155.888)" fill="#1e5af9"/>
        <path id="Trazado_132156" data-name="Trazado 132156" d="M468.826,169.01l106.845,60.149q0-1.315,0-2.642c0-.6,0-1.163,0-1.752L468.822,164.7Q468.824,166.9,468.826,169.01Z" transform="translate(-315.676 -152.318)" fill="#dee4f0"/>
        <path id="Trazado_132157" data-name="Trazado 132157" d="M370.015,271.192a33.794,33.794,0,0,0-2.948,2.645l108.645,62.691c.784-.96,1.63-1.938,2.54-2.924Z" transform="translate(-356.902 -109.173)" fill="#dee4f0"/>
        <path id="Trazado_132158" data-name="Trazado 132158" d="M365.7,275.36c-.8.989-1.563,1.993-2.32,3.008l108.919,62.9c.423-.556.851-1.131,1.3-1.731.326-.437.66-.885,1-1.336Z" transform="translate(-358.397 -107.484)" fill="#dee4f0"/>
        <path id="Trazado_132159" data-name="Trazado 132159" d="M464.225,207.429c-.617,1.072-1.291,2.136-2.011,3.2l109.472,62.159a35.211,35.211,0,0,0,2.053-3.245Z" transform="translate(-318.354 -135.006)" fill="#dee4f0"/>
        <path id="Trazado_132160" data-name="Trazado 132160" d="M466.49,202.267c-.438,1.192-.927,2.358-1.461,3.51l109.379,62.036a32.043,32.043,0,0,0,1.2-3.729Z" transform="translate(-317.213 -137.098)" fill="#dee4f0"/>
        <path id="Trazado_132161" data-name="Trazado 132161" d="M467.889,194.936c-.26,1.311-.552,4.955-.891,6.2l88.45,49.881c.19-1.325.336-5.068.443-6.525Z" transform="translate(-316.415 -140.068)" fill="#1e5af9"/>
        <path id="Trazado_132162" data-name="Trazado 132162" d="M468.828,171.21c0,1.5,0,2.944,0,4.315l106.852,60.233q0-2.16-.006-4.4Z" transform="translate(-315.674 -149.68)" fill="#dee4f0"/>
        <path id="Trazado_132163" data-name="Trazado 132163" d="M468.83,177.724c0,1.607-.006,3.059-.01,4.314l106.871,60.322q0-2.116,0-4.4Z" transform="translate(-315.677 -147.041)" fill="#dee4f0"/>
        <path id="Trazado_132164" data-name="Trazado 132164" d="M468.823,184.218c-.03,1.461-.079,2.872-.142,4.245l107.061,60.5c0-1.332,0-2.8.006-4.4Z" transform="translate(-315.734 -144.41)" fill="#dee4f0"/>
        <path id="Trazado_132165" data-name="Trazado 132165" d="M443.987,228.431q-1.551,1.239-3.188,2.526l107.627,61.432c1.387-.88,2.578-1.664,3.59-2.359Z" transform="translate(-327.03 -126.497)" fill="#dee4f0"/>
        <path id="Trazado_132166" data-name="Trazado 132166" d="M439.184,232.183c-1.038.718-2.22,1.5-3.516,2.338l107,61.132q2-1.189,3.759-2.258Z" transform="translate(-329.109 -124.977)" fill="#dee4f0"/>
        <path id="Trazado_132167" data-name="Trazado 132167" d="M433.853,235.658q-1.754,1.081-3.683,2.241l106.712,61.024q1.99-1.142,3.828-2.215Z" transform="translate(-331.336 -123.569)" fill="#dee4f0"/>
        <path id="Trazado_132168" data-name="Trazado 132168" d="M461.133,212.141c-.771.979-1.577,1.96-2.446,2.952l109.149,62.044q1.438-1.488,2.65-2.9Z" transform="translate(-319.783 -133.097)" fill="#dee4f0"/>
        <path id="Trazado_132169" data-name="Trazado 132169" d="M454.591,219.535c-.956.87-3.344,3.274-4.378,4.175l77.276,43.961c1.1-.9,3.545-3.294,4.548-4.141Z" transform="translate(-323.216 -130.102)" fill="#1e5af9"/>
        <path id="Trazado_132170" data-name="Trazado 132170" d="M448.684,224.577q-1.5,1.26-3.11,2.571l108.188,61.689c1.114-.878,2.2-1.734,3.233-2.564Z" transform="translate(-325.095 -128.059)" fill="#dee4f0"/>
        <g id="Grupo_61903" data-name="Grupo 61903" transform="translate(53.776 131.813)">
          <path id="Trazado_132171" data-name="Trazado 132171" d="M426.761,253.057a5.327,5.327,0,0,1-4.818-.008c-1.335-.771-1.342-2.016-.015-2.782a5.327,5.327,0,0,1,4.818.008C428.081,251.047,428.088,252.292,426.761,253.057Z" transform="translate(-388.853 -249.695)" fill="#1e5af9"/>
          <path id="Trazado_132172" data-name="Trazado 132172" d="M421.053,256.2a5.33,5.33,0,0,1-4.82-.008c-1.335-.771-1.34-2.016-.014-2.782a5.326,5.326,0,0,1,4.818.008C422.373,254.191,422.38,255.438,421.053,256.2Z" transform="translate(-391.166 -248.421)" fill="#1e5af9"/>
          <ellipse id="Elipse_4113" data-name="Elipse 4113" cx="1.967" cy="3.407" rx="1.967" ry="3.407" transform="matrix(0.005, -1, 1, 0.005, 16.031, 12.757)" fill="#1e5af9"/>
          <path id="Trazado_132173" data-name="Trazado 132173" d="M409.636,262.5a5.322,5.322,0,0,1-4.818-.01c-1.335-.77-1.342-2.015-.016-2.781a5.322,5.322,0,0,1,4.818.008C410.956,260.483,410.963,261.73,409.636,262.5Z" transform="translate(-395.791 -245.871)" fill="#1e5af9"/>
          <path id="Trazado_132174" data-name="Trazado 132174" d="M403.928,265.642a5.325,5.325,0,0,1-4.82-.01c-1.335-.77-1.341-2.016-.014-2.782a5.323,5.323,0,0,1,4.818.01C405.248,263.63,405.255,264.876,403.928,265.642Z" transform="translate(-398.104 -244.597)" fill="#1e5af9"/>
        </g>
      </g>
      <g id="Grupo_61914" data-name="Grupo 61914" transform="translate(418.41 106.207)">
        <g id="Grupo_61905" data-name="Grupo 61905" transform="translate(67.869)">
          <path id="Trazado_132175" data-name="Trazado 132175" d="M437.8,285.282s48.686-1.411,66.952-10.544,27.4-35.831,27.4-49.18,2.108-45.667,2.108-45.667-23.185-7.026-46.37-26.7c-13.52-11.473-38.642-49.18-38.642-49.18v120.14C449.246,249.445,437.8,285.282,437.8,285.282Z" transform="translate(-437.797 -104.012)" opacity="0.1" fill="url(#linear-gradient-3)" style="mix-blend-mode: multiply;isolation: isolate"/>
          <path id="Trazado_132176" data-name="Trazado 132176" d="M437.8,284.616s47.606-1.686,65.481-10.723c18.242-9.3,27.083-35.578,27.083-48.674s2.068-45.93,2.068-45.93S509.684,173.2,486.938,153.9c-13.265-11.255-37.908-48.247-37.908-48.247V224.646C449.03,249.458,437.8,284.616,437.8,284.616Z" transform="translate(-437.797 -103.346)" opacity="0.143" fill="url(#linear-gradient-4)" style="mix-blend-mode: multiply;isolation: isolate"/>
          <path id="Trazado_132177" data-name="Trazado 132177" d="M437.8,283.951s46.555-1.905,64.009-10.9c18.249-9.4,26.767-35.325,26.767-48.168s2.028-46.193,2.028-46.193-22.305-5.15-44.612-24.076C472.98,143.575,448.812,107.3,448.812,107.3V225.14C448.812,249.473,437.8,283.951,437.8,283.951Z" transform="translate(-437.797 -102.681)" opacity="0.186" fill="url(#linear-gradient-5)" style="mix-blend-mode: multiply;isolation: isolate"/>
          <path id="Trazado_132178" data-name="Trazado 132178" d="M437.8,283.285s45.487-2.158,62.536-11.08c18.239-9.544,26.451-35.074,26.451-47.663s1.987-46.456,1.987-46.456-21.866-4.211-43.731-22.765C472.286,144.5,448.6,108.94,448.6,108.94V225.632C448.6,249.486,437.8,283.285,437.8,283.285Z" transform="translate(-437.797 -102.015)" opacity="0.229" fill="url(#linear-gradient-6)" style="mix-blend-mode: multiply;isolation: isolate"/>
          <path id="Trazado_132179" data-name="Trazado 132179" d="M437.8,282.619s44.418-2.414,61.065-11.258c18.226-9.686,26.133-34.821,26.133-47.157s1.948-46.718,1.948-46.718-21.427-3.273-42.853-21.452c-12.5-10.6-35.712-45.451-35.712-45.451V226.125C448.378,249.5,437.8,282.619,437.8,282.619Z" transform="translate(-437.797 -101.35)" opacity="0.271" fill="url(#linear-gradient-7)" style="mix-blend-mode: multiply;isolation: isolate"/>
          <path id="Trazado_132180" data-name="Trazado 132180" d="M437.8,281.954s43.349-2.673,59.592-11.437c18.215-9.829,25.817-34.568,25.817-46.651s1.907-46.981,1.907-46.981-20.986-2.334-41.973-20.141c-12.239-10.385-34.978-44.518-34.978-44.518V226.619C448.161,249.515,437.8,281.954,437.8,281.954Z" transform="translate(-437.797 -100.684)" opacity="0.314" fill="url(#linear-gradient-8)" style="mix-blend-mode: multiply;isolation: isolate"/>
          <path id="Trazado_132181" data-name="Trazado 132181" d="M437.8,281.288s42.277-2.933,58.121-11.615c18.2-9.975,25.5-34.315,25.5-46.145s1.869-47.244,1.869-47.244-20.548-1.4-41.095-18.83c-11.983-10.166-34.246-43.585-34.246-43.585V227.113C447.944,249.527,437.8,281.288,437.8,281.288Z" transform="translate(-437.797 -100.018)" opacity="0.357" fill="url(#linear-gradient-9)" style="mix-blend-mode: multiply;isolation: isolate"/>
          <path id="Trazado_132182" data-name="Trazado 132182" d="M437.8,280.622s41.2-3.2,56.648-11.793c18.188-10.123,25.182-34.062,25.182-45.639s1.828-47.507,1.828-47.507-20.108-.458-40.215-17.518c-11.726-9.95-33.513-42.653-33.513-42.653V227.606C447.727,249.542,437.8,280.622,437.8,280.622Z" transform="translate(-437.797 -99.353)" opacity="0.4" fill="url(#linear-gradient-10)" style="mix-blend-mode: multiply;isolation: isolate"/>
          <path id="Trazado_132183" data-name="Trazado 132183" d="M437.8,279.957s40.13-3.465,55.176-11.972c18.174-10.274,24.865-33.809,24.865-45.133s1.789-47.768,1.789-47.768-19.669.479-39.337-16.208c-11.47-9.732-32.781-41.72-32.781-41.72V228.1C447.509,249.555,437.8,279.957,437.8,279.957Z" transform="translate(-437.797 -98.687)" opacity="0.443" fill="url(#linear-gradient-11)" style="mix-blend-mode: multiply;isolation: isolate"/>
          <path id="Trazado_132184" data-name="Trazado 132184" d="M437.8,279.292s39.053-3.735,53.7-12.15c18.156-10.429,24.548-33.556,24.548-44.628s1.748-48.031,1.748-48.031-19.228,1.418-38.457-14.9c-11.213-9.514-32.047-40.789-32.047-40.789v109.8C447.293,249.57,437.8,279.292,437.8,279.292Z" transform="translate(-437.797 -98.022)" opacity="0.486" fill="url(#linear-gradient-12)" style="mix-blend-mode: multiply;isolation: isolate"/>
          <path id="Trazado_132185" data-name="Trazado 132185" d="M437.8,278.626s37.975-4.009,52.232-12.329c18.139-10.586,24.232-33.3,24.232-44.122s1.707-48.293,1.707-48.293S497.18,176.238,478.39,160.3c-10.957-9.3-31.315-39.856-31.315-39.856V229.086C447.075,249.583,437.8,278.626,437.8,278.626Z" transform="translate(-437.797 -97.356)" opacity="0.529" fill="url(#linear-gradient-13)" style="mix-blend-mode: multiply;isolation: isolate"/>
          <path id="Trazado_132186" data-name="Trazado 132186" d="M437.8,277.96s36.9-4.284,50.76-12.507c18.119-10.747,23.916-33.052,23.916-43.616s1.668-48.556,1.668-48.556-18.35,3.3-36.7-12.275c-10.7-9.079-30.582-38.923-30.582-38.923v107.5C446.859,249.6,437.8,277.96,437.8,277.96Z" transform="translate(-437.797 -96.691)" opacity="0.571" fill="url(#linear-gradient-14)" style="mix-blend-mode: multiply;isolation: isolate"/>
          <path id="Trazado_132187" data-name="Trazado 132187" d="M437.8,277.295s35.816-4.564,49.288-12.686c18.1-10.911,23.6-32.8,23.6-43.11s1.629-48.819,1.629-48.819-17.91,4.232-35.819-10.963c-10.446-8.862-29.851-37.991-29.851-37.991V230.073C446.641,249.612,437.8,277.295,437.8,277.295Z" transform="translate(-437.797 -96.025)" opacity="0.614" fill="url(#linear-gradient-15)" style="mix-blend-mode: multiply;isolation: isolate"/>
          <path id="Trazado_132188" data-name="Trazado 132188" d="M437.8,276.629s34.734-4.845,47.816-12.864c18.072-11.078,23.281-32.546,23.281-42.6s1.589-49.082,1.589-49.082-17.47,5.171-34.94-9.652c-10.189-8.644-29.117-37.058-29.117-37.058v105.2C446.425,249.625,437.8,276.629,437.8,276.629Z" transform="translate(-437.797 -95.359)" opacity="0.657" fill="url(#linear-gradient-16)" style="mix-blend-mode: multiply;isolation: isolate"/>
          <path id="Trazado_132189" data-name="Trazado 132189" d="M437.8,275.963s33.65-5.129,46.345-13.043c18.045-11.25,22.963-32.293,22.963-42.1s1.549-49.345,1.549-49.345-17.03,6.11-34.061-8.341c-9.932-8.427-28.385-36.125-28.385-36.125V231.06C446.207,249.639,437.8,275.963,437.8,275.963Z" transform="translate(-437.797 -94.694)" opacity="0.7" fill="url(#linear-gradient-17)" style="mix-blend-mode: multiply;isolation: isolate"/>
          <path id="Trazado_132190" data-name="Trazado 132190" d="M437.8,275.3s32.564-5.415,44.872-13.221c18.015-11.425,22.647-32.04,22.647-41.592s1.508-49.607,1.508-49.607-16.591,7.048-33.181-7.03c-9.676-8.209-27.652-35.192-27.652-35.192v102.9C445.99,249.652,437.8,275.3,437.8,275.3Z" transform="translate(-437.797 -94.028)" opacity="0.743" fill="url(#linear-gradient-18)" style="mix-blend-mode: multiply;isolation: isolate"/>
          <path id="Trazado_132191" data-name="Trazado 132191" d="M437.8,274.632s31.477-5.7,43.4-13.4c17.983-11.607,22.331-31.787,22.331-41.086S505,170.276,505,170.276s-16.152,7.987-32.3-5.718c-9.419-7.992-26.92-34.262-26.92-34.262V232.046C445.773,249.667,437.8,274.632,437.8,274.632Z" transform="translate(-437.797 -93.363)" opacity="0.786" fill="url(#linear-gradient-19)" style="mix-blend-mode: multiply;isolation: isolate"/>
          <path id="Trazado_132192" data-name="Trazado 132192" d="M437.8,273.967s30.388-6,41.928-13.578c17.947-11.791,22.013-31.534,22.013-40.581s1.428-50.131,1.428-50.131-15.711,8.923-31.423-4.408c-9.163-7.775-26.186-33.329-26.186-33.329v100.6C445.556,249.68,437.8,273.967,437.8,273.967Z" transform="translate(-437.797 -92.697)" opacity="0.829" fill="url(#linear-gradient-20)" style="mix-blend-mode: multiply;isolation: isolate"/>
          <path id="Trazado_132193" data-name="Trazado 132193" d="M437.8,273.3s29.3-6.289,40.456-13.756c17.907-11.982,21.7-31.283,21.7-40.075s1.388-50.394,1.388-50.394a26.055,26.055,0,0,1-30.545-3.1c-8.906-7.557-25.453-32.4-25.453-32.4v99.451C445.34,249.695,437.8,273.3,437.8,273.3Z" transform="translate(-437.797 -92.031)" opacity="0.871" fill="url(#linear-gradient-21)" style="mix-blend-mode: multiply;isolation: isolate"/>
          <path id="Trazado_132194" data-name="Trazado 132194" d="M437.8,272.635S466,266.049,476.78,258.7a49.192,49.192,0,0,0,21.379-39.569c0-8.54,1.349-50.657,1.349-50.657s-14.833,10.8-29.665-1.786c-8.65-7.339-24.721-31.463-24.721-31.463v98.3C445.122,249.708,437.8,272.635,437.8,272.635Z" transform="translate(-437.797 -91.366)" opacity="0.914" fill="url(#linear-gradient-22)" style="mix-blend-mode: multiply;isolation: isolate"/>
          <path id="Trazado_132195" data-name="Trazado 132195" d="M437.8,271.97s27.108-6.884,37.512-14.113a48.593,48.593,0,0,0,21.062-39.063c0-8.288,1.31-50.92,1.31-50.92s-14.394,11.739-28.787-.474c-8.393-7.123-23.987-30.531-23.987-30.531v97.152C444.906,249.722,437.8,271.97,437.8,271.97Z" transform="translate(-437.797 -90.7)" opacity="0.957" fill="url(#linear-gradient-23)" style="mix-blend-mode: multiply;isolation: isolate"/>
          <path id="Trazado_132196" data-name="Trazado 132196" d="M437.8,271.3s26.012-7.185,36.039-14.292a48,48,0,0,0,20.746-38.557c0-8.035,1.269-51.182,1.269-51.182s-13.953,12.677-27.908.837c-8.137-6.9-23.255-29.6-23.255-29.6v96C444.688,249.736,437.8,271.3,437.8,271.3Z" transform="translate(-437.797 -90.034)" fill="url(#linear-gradient-24)" style="mix-blend-mode: multiply;isolation: isolate"/>
        </g>
        <path id="Trazado_132197" data-name="Trazado 132197" d="M502.315,180.739c-17.746-10.04-35.1-27.167-49.638-48.989l-.2-.112c-14.542,5.029-31.893,2.122-49.64-8.33l-.677-.4.957,33.159c3.368,51.4,20.9,73.77,49.114,121.558l.687.4c28.215-15.207,45.747-17.335,49.114-64.846l.958-32.053Z" transform="translate(-384.365 -96.356)" fill="url(#linear-gradient)"/>
        <path id="Trazado_132198" data-name="Trazado 132198" d="M512.27,175.311c-17.747-10.04-35.1-27.166-49.64-48.988l-.2-.114c-14.54,5.03-31.891,2.122-49.638-8.33l-.679-.4-9.819,7.74.489.287c17.746,10.451,35.1,13.359,49.638,8.33l.2.112c14.542,21.822,31.891,38.949,49.64,48.989l.677.384-.958,32.053c-2.2,31.01-10.432,42.684-23.73,51.284,16.614-9.812,31.27-24.055,33.74-58.911l.958-32.051Z" transform="translate(-384.311 -98.555)" fill="#1e5af9"/>
        <path id="Trazado_132199" data-name="Trazado 132199" d="M498.5,173.179l-.679-.385c-17.747-10.04-35.1-27.166-49.64-48.988l-.2-.114-10.009,7.627.2.112c14.542,21.822,31.891,38.949,49.64,48.989l.677.384Z" transform="translate(-369.858 -96.038)" fill="#1e5af9"/>
        <path id="Trazado_132200" data-name="Trazado 132200" d="M481.039,166.537l-.958,32.053c-2.2,31.01-10.432,42.684-23.73,51.284,16.614-9.812,31.27-24.055,33.74-58.911l.958-32.051Z" transform="translate(-362.411 -81.77)" fill="#103391"/>
        <path id="Trazado_132201" data-name="Trazado 132201" d="M445.978,250.813c-21.9-36.331-32.92-54.61-35.577-94.486l-.606-20.932c14.063,6.358,27.545,8.386,39.691,5.968,12.143,16.442,25.626,29.982,39.69,39.863l-.606,20.234c-2.657,36.812-13.675,42.368-35.581,53.411q-1.72.868-3.5,1.772Z" transform="translate(-381.273 -91.298)" fill="#1e5af9"/>
        <ellipse id="Elipse_4114" data-name="Elipse 4114" cx="30.353" cy="52.574" rx="30.353" ry="52.574" transform="translate(13.857 73.123) rotate(-30.311)" fill="#1e5af9" style="mix-blend-mode: multiply;isolation: isolate"/>
        <path id="Trazado_132202" data-name="Trazado 132202" d="M454.784,253.286c-1.147.58-2.313,1.168-3.5,1.772q-1.79-2.97-3.509-5.827c-21.9-36.333-32.921-54.611-35.578-94.488l-.535-18.54c-.621-.266-1.241-.528-1.863-.809l.606,20.932c2.657,39.877,13.673,58.155,35.577,94.486l3.509,5.829q1.785-.906,3.5-1.772c8.938-4.5,16.061-8.1,21.545-13.273C469.317,245.951,462.779,249.256,454.784,253.286Z" transform="translate(-381.273 -91.298)" fill="#12263f"/>
        <path id="Trazado_132203" data-name="Trazado 132203" d="M502.757,180.175c-17.747-10.041-35.1-27.167-49.64-48.989l-.2-.114c-14.542,5.03-31.891,2.122-49.638-8.33l-.648.686c17.715,10.407,35.032,13.3,49.548,8.276l.2.114c14.542,21.822,31.893,38.949,49.638,48.989l.679.384-.958,32.053c-1.824,25.734-7.806,38.151-17.386,46.547,10.013-8.406,16.255-20.792,18.125-47.179l.958-32.053Z" transform="translate(-384.174 -96.424)" fill="#fff"/>
        <g id="Grupo_61906" data-name="Grupo 61906" transform="translate(0 49.56)">
          <path id="Trazado_132204" data-name="Trazado 132204" d="M390.2,174a.7.7,0,0,1-.7-.7q0-1.448.066-2.841a.7.7,0,1,1,1.4.065q-.061,1.362-.063,2.777A.7.7,0,0,1,390.2,174Zm.419-7.009a.62.62,0,0,1-.089-.006.7.7,0,0,1-.61-.783q.179-1.446.434-2.819a.7.7,0,0,1,1.381.257q-.247,1.332-.422,2.734A.7.7,0,0,1,390.618,166.993Zm1.394-6.874a.686.686,0,0,1-.2-.028.7.7,0,0,1-.478-.871c.27-.925.573-1.839.9-2.715a.7.7,0,0,1,1.318.492c-.316.843-.608,1.724-.867,2.616A.706.706,0,0,1,392.012,160.119Zm2.609-6.507a.7.7,0,0,1-.62-1.033c.452-.849.947-1.681,1.471-2.47a.7.7,0,0,1,1.172.777c-.5.753-.971,1.544-1.4,2.354A.7.7,0,0,1,394.622,153.611Zm4.045-5.713a.694.694,0,0,1-.479-.19.7.7,0,0,1-.034-.993,24.3,24.3,0,0,1,2.1-1.99.7.7,0,0,1,.9,1.076,22.739,22.739,0,0,0-1.974,1.874A.7.7,0,0,1,398.667,147.9Zm5.494-4.329a.7.7,0,0,1-.346-1.315,23.683,23.683,0,0,1,2.607-1.259.7.7,0,0,1,.533,1.3,21.731,21.731,0,0,0-2.449,1.183A.692.692,0,0,1,404.161,143.569Zm6.547-2.452a.7.7,0,0,1-.145-1.39,26.673,26.673,0,0,1,2.851-.443.727.727,0,0,1,.767.628.7.7,0,0,1-.628.77,25.368,25.368,0,0,0-2.7.419A.736.736,0,0,1,410.708,141.117Z" transform="translate(-389.497 -139.282)" fill="#00223d"/>
        </g>
        <g id="Grupo_61907" data-name="Grupo 61907" transform="translate(7.657 116.912)">
          <path id="Trazado_132205" data-name="Trazado 132205" d="M416.068,220.386a.705.705,0,0,1-.517-.228q-.953-1.039-1.884-2.108a.7.7,0,1,1,1.058-.925q.921,1.058,1.862,2.081a.7.7,0,0,1-.043.993A.7.7,0,0,1,416.068,220.386Zm-4.572-5.328a.7.7,0,0,1-.548-.263q-.883-1.1-1.742-2.227a.7.7,0,0,1,1.117-.854q.849,1.115,1.72,2.2a.7.7,0,0,1-.547,1.142Zm-4.218-5.616a.7.7,0,0,1-.576-.3q-.809-1.155-1.6-2.333a.7.7,0,0,1,1.169-.781q.776,1.163,1.579,2.306a.7.7,0,0,1-.171.978A.693.693,0,0,1,407.278,209.442Zm-3.863-5.868a.7.7,0,0,1-.6-.333q-.742-1.2-1.453-2.425a.7.7,0,0,1,1.216-.707q.7,1.206,1.433,2.394a.7.7,0,0,1-.6,1.071Zm-3.5-6.09a.705.705,0,0,1-.62-.372q-.664-1.248-1.3-2.508a.7.7,0,1,1,1.255-.632q.628,1.246,1.289,2.479a.705.705,0,0,1-.621,1.034Zm-3.124-6.3a.7.7,0,0,1-.638-.409q-.592-1.288-1.148-2.585a.7.7,0,0,1,1.293-.554q.548,1.282,1.131,2.553a.7.7,0,0,1-.638.995Z" transform="translate(-394.946 -187.215)" fill="#00223d"/>
        </g>
        <g id="Grupo_61908" data-name="Grupo 61908" transform="translate(11.902 64.639)">
          <path id="Trazado_132206" data-name="Trazado 132206" d="M433.644,237.265c-19.672-11.359-35.677-38.966-35.677-61.541,0-11.042,3.77-19.3,10.619-23.254,6.906-3.988,16.055-3.1,25.761,2.5a57.621,57.621,0,0,1,9.545,6.989l-.936,1.047a56.225,56.225,0,0,0-9.312-6.819c-9.25-5.341-17.9-6.23-24.355-2.5-6.393,3.693-9.916,11.519-9.916,22.037,0,22.128,15.69,49.189,34.974,60.324Z" transform="translate(-397.967 -150.014)" fill="#103391"/>
        </g>
        <path id="Trazado_132207" data-name="Trazado 132207" d="M426.269,213.5c-.055,1.156-.849,1.661-1.773,1.127a3.632,3.632,0,0,1-1.574-3.059c.056-1.155.849-1.659,1.773-1.126A3.627,3.627,0,0,1,426.269,213.5Z" transform="translate(-375.956 -60.979)" fill="#37a3a5"/>
        <g id="Grupo_61909" data-name="Grupo 61909" transform="translate(53.262 72.885)">
          <path id="Trazado_132208" data-name="Trazado 132208" d="M433.368,161.584l-5.434-1.359a.7.7,0,1,1,.34-1.363l2.852.714-1.017-2.746a.7.7,0,1,1,1.318-.489Z" transform="translate(-427.402 -155.882)" fill="#103391"/>
        </g>
        <g id="Grupo_61913" data-name="Grupo 61913" transform="translate(20.625 74.265)">
          <g id="Grupo_61910" data-name="Grupo 61910" transform="translate(0.261)">
            <path id="Trazado_132209" data-name="Trazado 132209" d="M411.283,179.74c.385-14.08,10.619-19.676,23.174-12.427,6.462,3.731,12.312,10.161,16.524,17.5l4.631-1.165c-5.276-9.57-12.805-18.011-21.156-22.834-15.8-9.121-28.671-1.911-28.863,16.057l3.705,3.365Z" transform="translate(-403.861 -156.864)" fill="#f5b500"/>
            <path id="Trazado_132210" data-name="Trazado 132210" d="M446.593,216.755c-3.426.313-7.394-.642-11.636-3.093-11.892-6.866-21.711-22.855-23.044-36.868l-5.667-2.857c.01.1-1.894.489-1.884.592,1.64,17.442,15.79,37.082,30.6,45.629,5.376,3.105,9.015,4.737,13.331,4.279.181-.02,1.758-.468,1.936-.493Z" transform="translate(-404.361 -149.947)" fill="#f5b500"/>
            <path id="Trazado_132211" data-name="Trazado 132211" d="M440.685,180.118a44.343,44.343,0,0,1,4.492,18.277c0,8.414-3.428,13.939-8.755,15.747l3.587,7.1c6.6-2.269,10.829-9.146,10.829-19.584,0-7.286-2.064-15.216-5.55-22.7Z" transform="translate(-391.371 -147.912)" fill="#f5b500"/>
          </g>
          <path id="Trazado_132212" data-name="Trazado 132212" d="M437.58,195.663a19.773,19.773,0,0,1-4.071-4.873c-.672-1.127-.649-2.349.006-2.73a5.2,5.2,0,0,0,2.078-2.317c.714.2,1.6-.066,1.6-1.044a3.869,3.869,0,0,0-1.03-2.633c-.174-4.272-1.633-8.66-6.545-11.5-1.717-.992-3.013-1.305-3.978-1.121-.225.042-2.172.555-2.362.651-1.332.662-.107,2.092-.205,4.408-.59-.131-1.03.445-1.03,1.444a4.72,4.72,0,0,0,1.6,2.889,23.239,23.239,0,0,0,2.077,4.716c.655,1.138.679,2.387.006,2.737a5.36,5.36,0,0,1-4.069.173,3.059,3.059,0,0,0-1.7-.069c-.143.041-1.893.495-2.023.559-.913.454.129,1.12.129,2.67v4.4a2.969,2.969,0,0,0,1.346,2.323l18.871,12.49c.327.19,2.181-.469,2.414-.558a.883.883,0,0,0,.486-.908v-4.4A10.489,10.489,0,0,0,437.58,195.663Z" transform="translate(-398.755 -151.785)" fill="#f5b500"/>
          <g id="Grupo_61911" data-name="Grupo 61911" transform="translate(0.725 0.363)">
            <path id="Trazado_132213" data-name="Trazado 132213" d="M410.38,180c.385-14.08,10.619-19.676,23.174-12.428,6.462,3.732,12.312,10.162,16.525,17.5l4.631-1.165c-5.276-9.57-12.805-18.011-21.156-22.834-15.8-9.121-28.671-1.911-28.863,16.057Z" transform="translate(-404.691 -157.122)" fill="#fff"/>
            <path id="Trazado_132214" data-name="Trazado 132214" d="M445.146,217.013c-3.426.313-7.394-.642-11.636-3.093-11.892-6.866-21.711-22.855-23.044-36.868L404.8,174.2c1.523,17.515,13.818,37.623,28.711,46.221,5.6,3.235,10.835,4.408,15.267,3.786Z" transform="translate(-404.647 -150.205)" fill="#fff"/>
            <path id="Trazado_132215" data-name="Trazado 132215" d="M439.782,180.376a44.343,44.343,0,0,1,4.492,18.277c0,8.415-3.429,13.939-8.755,15.747l3.587,7.1c6.6-2.269,10.829-9.146,10.829-19.584,0-7.286-2.064-15.215-5.55-22.7Z" transform="translate(-392.201 -148.17)" fill="#fff"/>
          </g>
          <path id="Trazado_132216" data-name="Trazado 132216" d="M436.532,195.921a19.773,19.773,0,0,1-4.071-4.873c-.672-1.127-.649-2.349.006-2.73A5.2,5.2,0,0,0,434.545,186c.714.2,1.6-.066,1.6-1.044a3.866,3.866,0,0,0-1.03-2.633c-.174-4.272-1.633-8.66-6.545-11.5s-6.371-.132-6.545,3.937c-.59-.131-1.03.445-1.03,1.444a4.72,4.72,0,0,0,1.6,2.889,23.214,23.214,0,0,0,2.077,4.716c.655,1.138.679,2.387.006,2.737a5.36,5.36,0,0,1-4.069.173c-2.063-.624-3.594.621-3.594,3.16v4.4a2.97,2.97,0,0,0,1.346,2.323L438.78,208.4c.743.43,1.346.086,1.346-.767v-4.4A10.489,10.489,0,0,0,436.532,195.921Z" transform="translate(-398.975 -151.681)" fill="#fff"/>
          <g id="Grupo_61912" data-name="Grupo 61912" transform="translate(0 0.544)">
            <path id="Trazado_132217" data-name="Trazado 132217" d="M409.864,180.127c.385-14.08,10.619-19.676,23.174-12.428,6.462,3.732,12.312,10.162,16.525,17.5l4.631-1.165c-5.276-9.57-12.805-18.011-21.156-22.834-15.8-9.121-28.671-1.911-28.863,16.057Z" transform="translate(-404.175 -157.251)" fill="#ffd70f"/>
            <path id="Trazado_132218" data-name="Trazado 132218" d="M444.63,217.142c-3.426.313-7.394-.642-11.636-3.093-11.892-6.866-21.711-22.855-23.044-36.868l-5.667-2.857c1.523,17.515,13.818,37.623,28.711,46.221,5.6,3.235,10.835,4.408,15.267,3.785Z" transform="translate(-404.131 -150.334)" fill="#ffd70f"/>
            <path id="Trazado_132219" data-name="Trazado 132219" d="M439.266,180.5a44.343,44.343,0,0,1,4.492,18.277c0,8.415-3.429,13.939-8.755,15.747l3.587,7.1c6.6-2.269,10.83-9.146,10.83-19.584,0-7.286-2.064-15.215-5.55-22.7Z" transform="translate(-391.685 -148.299)" fill="#ffd70f"/>
          </g>
          <path id="Trazado_132220" data-name="Trazado 132220" d="M436.016,196.05a19.774,19.774,0,0,1-4.071-4.873c-.672-1.127-.649-2.349.006-2.73a5.2,5.2,0,0,0,2.078-2.317c.714.2,1.6-.066,1.6-1.044a3.866,3.866,0,0,0-1.03-2.633c-.174-4.272-1.633-8.66-6.545-11.5s-6.371-.132-6.545,3.937c-.59-.131-1.03.445-1.03,1.444a4.72,4.72,0,0,0,1.6,2.889,23.209,23.209,0,0,0,2.077,4.716c.655,1.138.679,2.387.006,2.737a5.36,5.36,0,0,1-4.069.173c-2.063-.624-3.594.621-3.594,3.16v4.4a2.967,2.967,0,0,0,1.346,2.323l20.425,11.792c.743.43,1.346.086,1.346-.767v-4.4A10.489,10.489,0,0,0,436.016,196.05Z" transform="translate(-399.184 -151.629)" fill="#ffd70f"/>
        </g>
      </g>
      <g id="Grupo_61917" data-name="Grupo 61917" transform="translate(614.292 234.296)">
        <path id="Trazado_132221" data-name="Trazado 132221" d="M589.148,256.362l-54.611-31.579c-3.114-1.8-5.637-6.62-5.637-10.77V201.071c0-4.151,2.524-6.059,5.637-4.262l54.611,31.579c3.114,1.8,5.638,6.62,5.638,10.77V252.1C594.786,256.251,592.262,258.159,589.148,256.362Z" transform="translate(-528.9 -194.779)" fill="#1e5af9"/>
        <path id="Trazado_132222" data-name="Trazado 132222" d="M588.962,249.383,535.208,218.3a9.584,9.584,0,0,1-4.055-8.029V201a1,1,0,0,1,1.5-.86l.177.1,53.817,31.123c2.983,1.719,4.055,4.773,4.055,8.029v9.128a1.078,1.078,0,0,1-1.613.936Z" transform="translate(-527.987 -193.212)" fill="#0739bd"/>
        <path id="Trazado_132223" data-name="Trazado 132223" d="M589.995,248.718l-.131-.074-53.755-31.079a9.587,9.587,0,0,1-4.054-8.029V200.26a1.011,1.011,0,0,1,.035-.254,1,1,0,0,0-.937.992v9.275a9.584,9.584,0,0,0,4.055,8.029l53.754,31.079.132.074a1.077,1.077,0,0,0,1.56-.61A1.052,1.052,0,0,1,589.995,248.718Z" transform="translate(-527.987 -193.21)" fill="#00223d"/>
        <path id="Trazado_132224" data-name="Trazado 132224" d="M591.19,227.425l-54.612-31.579a3.809,3.809,0,0,0-3.3-.485c-.118.045-2.747,1.387-2.858,1.447l-.006,0a3.69,3.69,0,0,1,3.507.386l54.611,31.581c3.114,1.8,5.638,6.618,5.638,10.769V252.49c0,2.591-.984,4.307-2.479,4.794a.932.932,0,0,0,.493-.167c.072-.041,2.834-1.509,2.9-1.557,1.071-.75,1.737-2.29,1.737-4.425V238.195C596.826,234.044,594.3,229.223,591.19,227.425Z" transform="translate(-528.286 -195.169)" fill="#00223d"/>
        <path id="Trazado_132225" data-name="Trazado 132225" d="M591.19,227.425l-54.612-31.579a3.809,3.809,0,0,0-3.3-.485c-.118.045-2.747,1.387-2.858,1.447l-.006,0a3.69,3.69,0,0,1,3.507.386l54.611,31.581Z" transform="translate(-528.286 -195.169)" fill="#00223d"/>
        <path id="Trazado_132226" data-name="Trazado 132226" d="M588.7,228.29l-54.612-31.579a3.744,3.744,0,0,0-3.395-.434,4.158,4.158,0,0,1,2.719.638l54.613,31.579c3.112,1.8,5.636,6.618,5.636,10.769V252.2c0,2.449-.882,4.109-2.241,4.7,1.738-.277,2.917-2.063,2.917-4.9V239.061C594.331,234.91,591.808,230.088,588.7,228.29Z" transform="translate(-528.176 -194.816)" fill="#fff" opacity="0.7"/>
        <g id="Grupo_61915" data-name="Grupo 61915" transform="translate(12.566 16.486)">
          <path id="Trazado_132227" data-name="Trazado 132227" d="M562.8,223.8a7.49,7.49,0,0,0,3.4,5.862c1.877,1.083,3.4.216,3.4-1.938a7.488,7.488,0,0,0-3.4-5.862C564.318,220.78,562.8,221.647,562.8,223.8Z" transform="translate(-527.733 -201.03)" fill="#001a46"/>
          <path id="Trazado_132228" data-name="Trazado 132228" d="M556.558,220.177a7.486,7.486,0,0,0,3.4,5.862c1.877,1.083,3.4.216,3.4-1.938a7.49,7.49,0,0,0-3.4-5.862C558.078,217.156,556.558,218.024,556.558,220.177Z" transform="translate(-530.261 -202.498)" fill="#001a46"/>
          <path id="Trazado_132229" data-name="Trazado 132229" d="M550.32,216.554a7.484,7.484,0,0,0,3.4,5.861c1.877,1.085,3.4.216,3.4-1.938a7.487,7.487,0,0,0-3.4-5.861C551.84,213.533,550.32,214.4,550.32,216.554Z" transform="translate(-532.788 -203.966)" fill="#001a46"/>
          <path id="Trazado_132230" data-name="Trazado 132230" d="M544.081,212.93a7.49,7.49,0,0,0,3.4,5.862c1.877,1.083,3.4.216,3.4-1.938a7.488,7.488,0,0,0-3.4-5.862C545.6,209.909,544.081,210.776,544.081,212.93Z" transform="translate(-535.316 -205.434)" fill="#001a46"/>
          <path id="Trazado_132231" data-name="Trazado 132231" d="M537.843,209.306a7.488,7.488,0,0,0,3.4,5.862c1.877,1.083,3.4.216,3.4-1.938a7.489,7.489,0,0,0-3.4-5.862C539.365,206.285,537.843,207.153,537.843,209.306Z" transform="translate(-537.843 -206.902)" fill="#001a46"/>
        </g>
        <g id="Grupo_61916" data-name="Grupo 61916" transform="translate(11.515 16.557)">
          <path id="Trazado_132232" data-name="Trazado 132232" d="M562.047,223.851a7.49,7.49,0,0,0,3.4,5.862c1.877,1.083,3.4.216,3.4-1.938a7.486,7.486,0,0,0-3.4-5.862C563.569,220.83,562.047,221.7,562.047,223.851Z" transform="translate(-526.986 -201.08)" fill="url(#linear-gradient)"/>
          <path id="Trazado_132233" data-name="Trazado 132233" d="M555.809,220.227a7.488,7.488,0,0,0,3.4,5.862c1.876,1.083,3.4.216,3.4-1.938a7.492,7.492,0,0,0-3.4-5.862C557.331,217.206,555.809,218.075,555.809,220.227Z" transform="translate(-529.513 -202.548)" fill="url(#linear-gradient)"/>
          <path id="Trazado_132234" data-name="Trazado 132234" d="M549.571,216.6a7.488,7.488,0,0,0,3.4,5.861c1.876,1.083,3.4.216,3.4-1.938a7.49,7.49,0,0,0-3.4-5.861C551.093,213.583,549.571,214.45,549.571,216.6Z" transform="translate(-532.04 -204.016)" fill="url(#linear-gradient)"/>
          <path id="Trazado_132235" data-name="Trazado 132235" d="M543.333,212.98a7.492,7.492,0,0,0,3.4,5.862c1.877,1.083,3.4.215,3.4-1.938a7.488,7.488,0,0,0-3.4-5.862C544.855,209.959,543.333,210.826,543.333,212.98Z" transform="translate(-534.568 -205.484)" fill="url(#linear-gradient)"/>
          <path id="Trazado_132236" data-name="Trazado 132236" d="M537.1,209.356a7.49,7.49,0,0,0,3.4,5.862c1.877,1.083,3.4.216,3.4-1.938a7.49,7.49,0,0,0-3.4-5.862C538.617,206.335,537.1,207.2,537.1,209.356Z" transform="translate(-537.095 -206.952)" fill="url(#linear-gradient)"/>
        </g>
      </g>
      <g id="Grupo_61921" data-name="Grupo 61921" transform="translate(371.567 259.047)">
        <path id="Trazado_132237" data-name="Trazado 132237" d="M429.961,296.078c0,1.085,1.511,1.964,3.374,1.964s3.374-.88,3.374-1.964-1.511-1.964-3.374-1.964S429.961,294.994,429.961,296.078Z" transform="translate(-326.26 -179.833)" fill="#1e5af9"/>
        <g id="Grupo_61918" data-name="Grupo 61918" transform="translate(305.916)">
          <path id="Trazado_132238" data-name="Trazado 132238" d="M585,233.244a.7.7,0,0,1-.7-.7V229.73a.7.7,0,0,1,1.405,0v2.812A.7.7,0,0,1,585,233.244Zm0-7.027a.7.7,0,0,1-.7-.689,9.879,9.879,0,0,0-.393-2.587.7.7,0,0,1,1.35-.393,11.4,11.4,0,0,1,.448,2.954.7.7,0,0,1-.689.715Zm-2.365-6.478a.7.7,0,0,1-.545-.26,9.844,9.844,0,0,0-1.9-1.793.7.7,0,0,1,.821-1.142,11.316,11.316,0,0,1,2.175,2.05.7.7,0,0,1-.547,1.145Zm-5.64-4.111a.694.694,0,0,1-.36-.1l-2.415-1.439a.7.7,0,1,1,.719-1.207l2.415,1.437a.7.7,0,0,1-.36,1.307Z" transform="translate(-573.872 -212.784)" fill="#00223d"/>
        </g>
        <g id="Grupo_61919" data-name="Grupo 61919" transform="translate(31.664 26.594)">
          <path id="Trazado_132239" data-name="Trazado 132239" d="M429.339,260.94a.69.69,0,0,1-.354-.1l-1.962-1.145a.7.7,0,1,1,.708-1.213l1.962,1.145a.7.7,0,0,1-.354,1.31Zm-5.6-3.271a.69.69,0,0,1-.354-.1l-2.428-1.416a.7.7,0,0,1,.708-1.213l2.428,1.416a.7.7,0,0,1-.354,1.31Zm-6.067-3.542a.688.688,0,0,1-.354-.1l-2.427-1.418a.7.7,0,1,1,.708-1.213l2.427,1.416a.7.7,0,0,1-.354,1.31Zm-6.067-3.542a.69.69,0,0,1-.354-.1l-2.427-1.416a.7.7,0,1,1,.708-1.213l2.427,1.416a.7.7,0,0,1-.354,1.31Zm-6.067-3.542a.688.688,0,0,1-.354-.1l-2.427-1.418a.7.7,0,0,1,.708-1.213l2.427,1.418a.7.7,0,0,1-.354,1.308Zm-6.067-3.542a.689.689,0,0,1-.353-.1l-2.428-1.416a.7.7,0,1,1,.708-1.213l2.427,1.416a.7.7,0,0,1-.354,1.31Zm-6.067-3.542a.689.689,0,0,1-.354-.1l-2.427-1.418a.7.7,0,1,1,.708-1.213l2.427,1.416a.7.7,0,0,1-.354,1.31Zm-6.067-3.542a.69.69,0,0,1-.354-.1l-2.427-1.416a.7.7,0,0,1,.708-1.213l2.427,1.416a.7.7,0,0,1-.354,1.31Zm-7.935-1.5a.7.7,0,0,1-.7-.7,2.518,2.518,0,0,1,2.47-2.507h.011a.7.7,0,0,1,.011,1.405,1.11,1.11,0,0,0-1.088,1.1A.7.7,0,0,1,379.4,234.919Z" transform="translate(-378.695 -231.71)" fill="#1e5af9"/>
        </g>
        <g id="Grupo_61920" data-name="Grupo 61920" transform="translate(1.102 16.479)">
          <path id="Trazado_132240" data-name="Trazado 132240" d="M384.317,241.551a.709.709,0,0,1-.355-.1l-2.425-1.421a.7.7,0,0,1,.711-1.214l2.425,1.422a.7.7,0,0,1-.356,1.31ZM378.255,238a.707.707,0,0,1-.355-.1l-2.424-1.422a.7.7,0,1,1,.711-1.213l2.424,1.422a.7.7,0,0,1-.356,1.308Zm-6.06-3.554a.711.711,0,0,1-.355-.1l-2.425-1.421a.7.7,0,0,1,.711-1.213l2.425,1.419a.7.7,0,0,1-.355,1.31Zm-6.062-3.552a.709.709,0,0,1-.356-.1l-2.424-1.421a.7.7,0,0,1,.711-1.214l2.424,1.422a.7.7,0,0,1-.355,1.31Zm-6.06-3.554a.707.707,0,0,1-.355-.1l-2.425-1.422a.7.7,0,0,1,.711-1.211l2.425,1.421a.7.7,0,0,1-.356,1.308Z" transform="translate(-356.945 -224.511)" fill="#1e5af9"/>
        </g>
        <path id="Trazado_132241" data-name="Trazado 132241" d="M363.469,225.986l-4.333,3.162-2.976-5.094Z" transform="translate(-356.16 -208.218)" fill="#1e5af9"/>
      </g>
      <g id="Grupo_61925" data-name="Grupo 61925" transform="translate(619.831 303.523)">
        <path id="Trazado_132242" data-name="Trazado 132242" d="M579.009,334.3l-43.136-24.829c-4.489-2.591-3.926-7.118,1.258-10.11h0c5.182-2.993,22.329-3.01,26.817-.419l38.244,22.069c6.891,4.066.069,9.646-5.67,12.562h0C591.338,336.568,583.5,336.892,579.009,334.3Z" transform="translate(-532.842 -223.117)" fill="#92b4d1" opacity="0.2"/>
        <path id="Trazado_132243" data-name="Trazado 132243" d="M595.654,293.158,533.285,269.9v46.257c-.2,1.5.593,2.966,2.435,4.029l42.176,24.426c3.653,2.109,10.034,1.845,14.254-.59h0c2.231-1.289,3.41-2.927,3.485-4.5l.021.008Z" transform="translate(-532.676 -234.12)" fill="url(#linear-gradient)"/>
        <path id="Trazado_132244" data-name="Trazado 132244" d="M577.895,299.99l-42.176-24.426c-3.655-2.109-3.2-5.793,1.023-8.23h0c4.218-2.435,10.6-2.7,14.254-.59l42.176,24.426c3.653,2.109,3.2,5.793-1.023,8.23h0C587.929,301.835,581.548,302.1,577.895,299.99Z" transform="translate(-532.676 -235.974)" fill="#1e5af9"/>
        <path id="Trazado_132245" data-name="Trazado 132245" d="M592.148,296.969c-4.22,2.435-10.6,2.7-14.254.592l-42.175-24.426a4.36,4.36,0,0,1-2.442-3.26c-.176,1.481.622,2.921,2.442,3.971l42.175,24.426c3.653,2.109,10.034,1.845,14.254-.59,2.458-1.419,3.628-3.261,3.464-4.97C595.435,294.208,594.267,295.745,592.148,296.969Z" transform="translate(-532.676 -234.129)" fill="#fff"/>
        <g id="Grupo_61924" data-name="Grupo 61924" transform="translate(9.461)">
          <path id="Trazado_132246" data-name="Trazado 132246" d="M566.063,246.821h0a17.669,17.669,0,0,0-26.488,15.31v19.162h0a.27.27,0,0,1,0,.027c0,1.879,2.6,3.391,5.8,3.391s5.8-1.512,5.8-3.377c0-.023-.006-.044-.006-.066h.062V264.6a7.487,7.487,0,0,1,11.217-6.492h0a18.674,18.674,0,0,1,9.369,16.19v25.55h.062c.063,1.834,2.63,3.309,5.793,3.309,3.184,0,5.765-1.494,5.8-3.344h0V276.941A34.762,34.762,0,0,0,566.063,246.821Z" transform="translate(-539.575 -244.436)" fill="url(#linear-gradient)"/>
        </g>
        <path id="Trazado_132251" data-name="Trazado 132251" d="M559.066,298.89a12.605,12.605,0,0,0-5.719-9.864c-3.159-1.822-5.719-.363-5.719,3.261a12.442,12.442,0,0,0,2.892,7.369v11.48l5.654,3.266V302.92C557.9,302.788,559.066,301.334,559.066,298.89Z" transform="translate(-526.852 -226.688)" fill="#1e5af9"/>
        <path id="Trazado_132252" data-name="Trazado 132252" d="M551.506,310.693v-11.48a12.442,12.442,0,0,1-2.892-7.369,4.083,4.083,0,0,1,1.5-3.554c-1.5.316-2.487,1.73-2.487,3.977a12.442,12.442,0,0,0,2.892,7.369v11.48l5.654,3.266v-.993Z" transform="translate(-526.852 -226.668)" fill="#001a46"/>
      </g>
      <g id="Grupo_61926" data-name="Grupo 61926" transform="translate(326.08 246.158)">
        <path id="Trazado_132253" data-name="Trazado 132253" d="M348.735,221.592a4.172,4.172,0,0,1-3.771.007.652.652,0,0,0-.59,0l-14.7,8.49-1.969-1.137a.18.18,0,0,1,0-.34l16.668-9.624a.652.652,0,0,1,.59,0,4.172,4.172,0,0,0,3.771-.007,1.343,1.343,0,0,0,.783-1.071l.008,0v2.573l-.016-.006A1.3,1.3,0,0,1,348.735,221.592Z" transform="translate(-322.251 -197.819)" fill="#00223d"/>
        <path id="Trazado_132254" data-name="Trazado 132254" d="M346.011,215.641a2.806,2.806,0,0,0,1.662,2.38,4.172,4.172,0,0,0,3.771-.007,1.15,1.15,0,0,0,.013-2.178c-.163-.093-.162-.246,0-.34l16.669-9.624a.649.649,0,0,1,.589,0l9.517,5.494c.162.094.16.246,0,.34l-1.966,1.135-7.548-4.357a.649.649,0,0,0-.589,0l-15.87,9.162v1.86l-.034-.02a1.3,1.3,0,0,1-.78,1.138,4.167,4.167,0,0,1-3.771.007,2.94,2.94,0,0,1-1.629-2.1l-.058-.058v-2.85Z" transform="translate(-314.795 -202.723)" fill="#00223d"/>
        <path id="Trazado_132255" data-name="Trazado 132255" d="M339.747,227.355a5.2,5.2,0,0,0,4.714-.008l21.28-12.285c1.305-.755,1.312-1.973.014-2.722a5.209,5.209,0,0,0-4.714.008l-21.28,12.285C338.456,225.388,338.449,226.606,339.747,227.355Z" transform="translate(-317.715 -200.301)" fill="#1e5af9"/>
        <path id="Trazado_132256" data-name="Trazado 132256" d="M346.954,222.946a.18.18,0,0,1,0,.34l-.8.46v-2.052l.049.01A1.225,1.225,0,0,0,346.954,222.946Z" transform="translate(-314.726 -196.285)" fill="#084c94"/>
        <path id="Trazado_132257" data-name="Trazado 132257" d="M325.45,229.237l9.516,5.494a9,9,0,0,0,8.133-.014l16.668-9.624a2.774,2.774,0,0,0,1.671-2.5l.025,0v2.928l-.03-.008a2.943,2.943,0,0,1-1.666,2.188L343.1,237.329a9,9,0,0,1-8.133.014l-9.516-5.494a2.934,2.934,0,0,1-1.63-2.1l-.014-.017v-2.681A2.894,2.894,0,0,0,325.45,229.237Z" transform="translate(-323.781 -195.921)" fill="#00223d"/>
        <path id="Trazado_132258" data-name="Trazado 132258" d="M339.743,226.718a5.2,5.2,0,0,0,4.714-.008l21.28-12.285a1.852,1.852,0,0,0,.933-1.072v2.009c.164.59-.142,1.217-.933,1.674l-21.28,12.287a5.214,5.214,0,0,1-4.714.008,1.831,1.831,0,0,1-.919-1.05h-.011v-.069a1.1,1.1,0,0,1,0-.464V225.6A1.765,1.765,0,0,0,339.743,226.718Z" transform="translate(-317.711 -199.664)" fill="#00223d"/>
        <path id="Trazado_132259" data-name="Trazado 132259" d="M347.668,218.907a4.167,4.167,0,0,0,3.771-.006,1.15,1.15,0,0,0,.013-2.178c-.163-.093-.162-.246,0-.34l16.669-9.624a.653.653,0,0,1,.589,0l9.517,5.494c.162.094.16.246,0,.34l-16.669,9.624a.649.649,0,0,1-.589,0,4.167,4.167,0,0,0-3.771.007,1.149,1.149,0,0,0-.011,2.177,9,9,0,0,0,8.132-.014l16.669-9.624c2.248-1.3,2.259-3.4.025-4.695l-9.516-5.494a9,9,0,0,0-8.133.014l-16.668,9.624C345.445,215.511,345.434,217.618,347.668,218.907Z" transform="translate(-314.789 -203.611)" fill="#1e5af9"/>
        <path id="Trazado_132260" data-name="Trazado 132260" d="M354.19,221.9a9,9,0,0,0,8.132-.014l16.669-9.624a2.8,2.8,0,0,0,1.676-2.462l.031-.02v2.968l-.055.013a2.991,2.991,0,0,1-1.652,2.113L362.321,224.5a9,9,0,0,1-8.132.014,1.393,1.393,0,0,1-.749-.926l-.048,0v-2.77l.024.01A1.32,1.32,0,0,0,354.19,221.9Z" transform="translate(-311.794 -201.111)" fill="#00223d"/>
        <path id="Trazado_132261" data-name="Trazado 132261" d="M325.457,231.731l9.516,5.494a9,9,0,0,0,8.132-.014l16.669-9.624c2.25-1.3,2.261-3.4.025-4.7a4.169,4.169,0,0,0-3.77.007,1.15,1.15,0,0,0-.013,2.178.18.18,0,0,1,0,.34l-16.669,9.624a.653.653,0,0,1-.589,0l-9.517-5.494c-.162-.094-.16-.246,0-.34l16.669-9.624a.649.649,0,0,1,.589,0,4.172,4.172,0,0,0,3.771-.007,1.149,1.149,0,0,0,.011-2.177,9,9,0,0,0-8.132.014l-16.669,9.624C323.234,228.335,323.222,230.442,325.457,231.731Z" transform="translate(-323.788 -198.415)" fill="#1e5af9"/>
        <path id="Trazado_132262" data-name="Trazado 132262" d="M339.737,226.567a5.2,5.2,0,0,0,4.714-.008l21.28-12.285a1.847,1.847,0,0,0,.934-1.075,1.127,1.127,0,0,1,.015.218,1.757,1.757,0,0,1-.95,1.173l-21.28,12.285a5.2,5.2,0,0,1-4.714.008,1.723,1.723,0,0,1-.934-1.156,1.2,1.2,0,0,1,.014-.212A1.825,1.825,0,0,0,339.737,226.567Z" transform="translate(-317.705 -199.727)" fill="#72b5e8"/>
        <path id="Trazado_132263" data-name="Trazado 132263" d="M376.446,211.4l-9.3-5.368a.653.653,0,0,0-.589,0l-16.473,9.511a2.15,2.15,0,0,0-.2-.141.2.2,0,0,1-.035-.031.2.2,0,0,1,.037-.032l16.669-9.624a.653.653,0,0,1,.589,0l9.517,5.494a.245.245,0,0,1,.035.031.283.283,0,0,1-.038.032Z" transform="translate(-313.228 -202.785)" fill="#72b5e8"/>
        <path id="Trazado_132264" data-name="Trazado 132264" d="M354.176,221.629a9,9,0,0,0,8.132-.014l16.669-9.624a3.021,3.021,0,0,0,1.645-2.063c.008.059.007.119.011.178a2.912,2.912,0,0,1-1.657,2.2l-16.669,9.624a9,9,0,0,1-8.132.014,1.384,1.384,0,0,1-.748-.926.847.847,0,0,1,.023-.177A1.51,1.51,0,0,0,354.176,221.629Z" transform="translate(-311.78 -201.052)" fill="#72b5e8"/>
        <path id="Trazado_132265" data-name="Trazado 132265" d="M347.657,214.932a4.167,4.167,0,0,0,3.771-.006,1.545,1.545,0,0,0,.736-.8.827.827,0,0,1,.022.176,1.413,1.413,0,0,1-.759.937,4.167,4.167,0,0,1-3.771.006,2.865,2.865,0,0,1-1.631-2.174c0-.06,0-.119.013-.18A2.972,2.972,0,0,0,347.657,214.932Z" transform="translate(-314.779 -199.849)" fill="#72b5e8"/>
        <path id="Trazado_132266" data-name="Trazado 132266" d="M344.35,218.756a.649.649,0,0,1,.589,0,4.172,4.172,0,0,0,3.771-.007,1.539,1.539,0,0,0,.736-.8.923.923,0,0,1,.022.176,1.411,1.411,0,0,1-.759.937,4.167,4.167,0,0,1-3.771.007.649.649,0,0,0-.589,0l-16.451,9.5-.221-.128a.244.244,0,0,1-.035-.03.286.286,0,0,1,.038-.032Z" transform="translate(-322.227 -197.801)" fill="#72b5e8"/>
        <path id="Trazado_132267" data-name="Trazado 132267" d="M325.446,228.959l9.516,5.494a9,9,0,0,0,8.132-.014l16.669-9.624a3.02,3.02,0,0,0,1.645-2.064,1.527,1.527,0,0,1,.011.18,2.905,2.905,0,0,1-1.657,2.2l-16.669,9.624a9,9,0,0,1-8.132.014l-9.516-5.494a2.862,2.862,0,0,1-1.631-2.174c0-.06,0-.121.011-.18A2.974,2.974,0,0,0,325.446,228.959Z" transform="translate(-323.778 -195.856)" fill="#72b5e8"/>
      </g>
      <g id="Grupo_61931" data-name="Grupo 61931" transform="translate(318.132 301.904)">
        <path id="Trazado_132268" data-name="Trazado 132268" d="M319.893,283.007c-2.337-1.349-2.348-3.537-.027-4.877l19.193-11.081a13.04,13.04,0,0,1,11.784.021c3.259,1.881,3.275,4.933.037,6.8l-17.147,9.9a1.441,1.441,0,0,1-1.3,0,.4.4,0,0,1,0-.755l17.146-9.9c2.521-1.454,2.508-3.83-.028-5.295a10.149,10.149,0,0,0-9.173-.017l-19.193,11.081c-1.6.926-1.6,2.438.018,3.37a6.462,6.462,0,0,0,5.837.011l18.382-10.613a.8.8,0,0,0-.008-1.523,2.924,2.924,0,0,0-2.639-.006l-15.315,8.843c-.083.048-.081.125,0,.173a.33.33,0,0,0,.3,0l11.265-6.5a1.448,1.448,0,0,1,1.305,0,.4.4,0,0,1,0,.753l-11.264,6.5a3.218,3.218,0,0,1-2.91-.006.888.888,0,0,1-.01-1.681l15.315-8.841a5.812,5.812,0,0,1,5.25.008c1.452.839,1.459,2.2.017,3.031L328.34,283.022A9.349,9.349,0,0,1,319.893,283.007Z" transform="translate(-318.132 -234.221)" fill="#92b4d1" opacity="0.2"/>
        <path id="Trazado_132269" data-name="Trazado 132269" d="M319.893,282.656c-2.337-1.349-2.348-3.537-.027-4.877L339.059,266.7a13.04,13.04,0,0,1,11.784.021c3.259,1.881,3.275,4.932.037,6.8l-17.147,9.9a1.437,1.437,0,0,1-1.3,0,.4.4,0,0,1,0-.753l17.146-9.9c2.521-1.456,2.508-3.83-.028-5.3a10.153,10.153,0,0,0-9.173-.015l-19.193,11.081c-1.6.926-1.6,2.438.018,3.37a6.458,6.458,0,0,0,5.837.01L345.413,271.3a.805.805,0,0,0-.008-1.525,2.924,2.924,0,0,0-2.639,0l-15.315,8.843c-.083.048-.081.125,0,.173a.334.334,0,0,0,.3,0l11.265-6.5a1.444,1.444,0,0,1,1.305,0,.4.4,0,0,1,0,.753l-11.264,6.5a3.226,3.226,0,0,1-2.91-.006.888.888,0,0,1-.01-1.681l15.315-8.843a5.811,5.811,0,0,1,5.25.01c1.452.837,1.459,2.2.017,3.031L328.34,282.671A9.354,9.354,0,0,1,319.893,282.656Z" transform="translate(-318.132 -234.363)" fill="#00223d"/>
        <g id="Grupo_61927" data-name="Grupo 61927" transform="translate(0.026 31.51)">
          <path id="Trazado_132270" data-name="Trazado 132270" d="M342.735,268.227a2.925,2.925,0,0,0-2.639,0l-15.315,8.843a.091.091,0,0,0,0,.173.333.333,0,0,0,.3,0l11.265-6.5a1.271,1.271,0,0,1,.43-.1l3.319-1.917a2.924,2.924,0,0,1,2.639,0,1.04,1.04,0,0,1,.467.521C343.347,268.888,343.213,268.5,342.735,268.227Z" transform="translate(-315.49 -264.816)" fill="#21587b"/>
          <path id="Trazado_132271" data-name="Trazado 132271" d="M324,277.488a3.218,3.218,0,0,0,2.91,0l11.264-6.5c.294-.169.333-.42.148-.622a.561.561,0,0,1-.148.129L326.915,277a3.218,3.218,0,0,1-2.91-.006,1.123,1.123,0,0,1-.524-.6A.885.885,0,0,0,324,277.488Z" transform="translate(-316.012 -263.821)" fill="#21587b"/>
          <path id="Trazado_132272" data-name="Trazado 132272" d="M349,266.811a10.157,10.157,0,0,0-9.173-.017l-19.193,11.082a1.888,1.888,0,0,0-1.156,1.921,2.151,2.151,0,0,1,1.156-1.428l19.193-11.082a10.153,10.153,0,0,1,9.173.018,3.36,3.36,0,0,1,1.87,2.411A3.08,3.08,0,0,0,349,266.811Z" transform="translate(-317.621 -265.708)" fill="#21587b"/>
          <path id="Trazado_132273" data-name="Trazado 132273" d="M346.833,271.706l-17.147,9.9a1.439,1.439,0,0,1-1.305,0,.637.637,0,0,1-.15-.132c-.187.2-.145.455.15.625a1.44,1.44,0,0,0,1.305,0l17.147-9.9c1.724-1,2.5-2.326,2.377-3.635A4.208,4.208,0,0,1,346.833,271.706Z" transform="translate(-314.113 -264.551)" fill="#21587b"/>
          <path id="Trazado_132274" data-name="Trazado 132274" d="M347.75,268.862a1.96,1.96,0,0,1-1.036,1.259l-18.382,10.613a9.354,9.354,0,0,1-8.448-.014,3.1,3.1,0,0,1-1.719-2.2,2.824,2.824,0,0,0,1.719,2.7,9.349,9.349,0,0,0,8.448.015l18.382-10.614A1.691,1.691,0,0,0,347.75,268.862Z" transform="translate(-318.151 -264.43)" fill="#21587b"/>
        </g>
        <g id="Grupo_61929" data-name="Grupo 61929" transform="translate(3.358)">
          <path id="Trazado_132276" data-name="Trazado 132276" d="M353.927,260.638c2.335-1.349,2.348-3.537.027-4.877L334.759,244.68a13.037,13.037,0,0,0-11.782.021c-3.259,1.882-3.275,4.934-.037,6.8l17.146,9.9a1.443,1.443,0,0,0,1.305,0c.361-.209.364-.547,0-.755l-17.146-9.9c-2.521-1.456-2.508-3.83.028-5.295a10.146,10.146,0,0,1,9.171-.017l19.194,11.081c1.6.926,1.6,2.438-.018,3.37a6.458,6.458,0,0,1-5.837.011l-18.382-10.613a.8.8,0,0,1,.008-1.523,2.913,2.913,0,0,1,2.637,0l15.316,8.841a.091.091,0,0,1,0,.173.33.33,0,0,1-.3,0l-11.265-6.5a1.448,1.448,0,0,0-1.305,0c-.361.209-.363.547,0,.753l11.265,6.5a3.222,3.222,0,0,0,2.91-.006.888.888,0,0,0,.01-1.681L332.362,247a5.808,5.808,0,0,0-5.248.008c-1.452.837-1.459,2.2-.017,3.031l18.382,10.613A9.349,9.349,0,0,0,353.927,260.638Z" transform="translate(-320.522 -243.283)" fill="#00223d"/>
          <g id="Grupo_61928" data-name="Grupo 61928" transform="translate(0.027 0.627)">
            <path id="Trazado_132277" data-name="Trazado 132277" d="M352.1,255.9,332.91,244.815a10.154,10.154,0,0,0-9.171.017,3.1,3.1,0,0,0-1.874,2.878,3.339,3.339,0,0,1,1.874-2.438,10.15,10.15,0,0,1,9.171-.017L352.1,256.336a2.139,2.139,0,0,1,1.161,1.456A1.9,1.9,0,0,0,352.1,255.9Z" transform="translate(-320.01 -243.729)" fill="#21587b"/>
            <path id="Trazado_132278" data-name="Trazado 132278" d="M326.289,246.687a2.924,2.924,0,0,1,2.639,0l3.48,2.011a1.293,1.293,0,0,1,.268.063l11.265,6.5a.33.33,0,0,0,.3,0,.091.091,0,0,0,0-.173l-15.315-8.843a2.924,2.924,0,0,0-2.639,0,.806.806,0,0,0-.476.986A1.017,1.017,0,0,1,326.289,246.687Z" transform="translate(-318.423 -242.837)" fill="#21587b"/>
            <path id="Trazado_132279" data-name="Trazado 132279" d="M344,255.022a3.214,3.214,0,0,1-2.91.007l-11.265-6.5a.6.6,0,0,1-.178-.156c-.156.2-.1.434.178.594l11.265,6.5a3.218,3.218,0,0,0,2.91-.006.892.892,0,0,0,.532-1.064A1.1,1.1,0,0,1,344,255.022Z" transform="translate(-316.885 -241.849)" fill="#21587b"/>
            <path id="Trazado_132280" data-name="Trazado 132280" d="M341.566,259.473a.607.607,0,0,1-.183.159,1.439,1.439,0,0,1-1.305,0l-17.146-9.9a4.188,4.188,0,0,1-2.382-3.17c-.107,1.3.669,2.619,2.382,3.608l17.146,9.9a1.444,1.444,0,0,0,1.305,0C341.665,259.908,341.722,259.669,341.566,259.473Z" transform="translate(-320.541 -242.58)" fill="#21587b"/>
            <path id="Trazado_132281" data-name="Trazado 132281" d="M352.337,258.749a9.358,9.358,0,0,1-8.448.015l-18.382-10.613a1.945,1.945,0,0,1-1.041-1.287,1.7,1.7,0,0,0,1.041,1.726L343.889,259.2a9.349,9.349,0,0,0,8.448-.015,2.842,2.842,0,0,0,1.723-2.668A3.089,3.089,0,0,1,352.337,258.749Z" transform="translate(-318.959 -242.459)" fill="#21587b"/>
          </g>
        </g>
        <path id="Trazado_132282" data-name="Trazado 132282" d="M356.784,265.5c-3.039.469-6.506-.46-7.725-2.073l-10.083-13.335c-1.7-2.25.364-4.613,4.6-5.268s9.074.641,10.776,2.892l9.008,11.911c.188.249-.039.511-.51.583a1.381,1.381,0,0,1-1.194-.32l-9.008-11.911c-1.324-1.751-5.087-2.761-8.387-2.251s-4.908,2.351-3.585,4.1l10.085,13.333c.842,1.116,3.236,1.758,5.337,1.433s3.124-1.5,2.282-2.611l-9.659-12.77a2.8,2.8,0,0,0-2.413-.648c-.949.148-1.412.676-1.03,1.18l8.046,10.64a.32.32,0,0,0,.274.073c.108-.017.16-.077.118-.133L347.8,252.5c-.19-.249.039-.51.51-.583a1.376,1.376,0,0,1,1.193.32l5.918,7.825c.42.556-.09,1.14-1.137,1.3a3.082,3.082,0,0,1-2.661-.715l-8.047-10.64c-.757-1,.162-2.054,2.051-2.347s4.043.285,4.8,1.287l9.658,12.771C361.3,263.336,359.823,265.03,356.784,265.5Z" transform="translate(-309.93 -242.728)" fill="#92b4d1" opacity="0.2"/>
        <path id="Trazado_132283" data-name="Trazado 132283" d="M356.784,265.07c-3.039.469-6.506-.461-7.725-2.073l-10.083-13.335c-1.7-2.25.364-4.613,4.6-5.268s9.074.641,10.776,2.89l9.008,11.913c.188.249-.039.51-.51.583a1.381,1.381,0,0,1-1.194-.32L352.65,247.55c-1.324-1.752-5.087-2.761-8.387-2.251s-4.908,2.349-3.585,4.1l10.085,13.333c.842,1.114,3.236,1.756,5.337,1.432s3.124-1.5,2.282-2.609l-9.659-12.77a2.791,2.791,0,0,0-2.413-.648c-.949.146-1.412.676-1.03,1.18l8.046,10.64a.32.32,0,0,0,.274.073c.108-.017.16-.077.118-.134l-5.918-7.827c-.19-.25.039-.511.51-.583a1.376,1.376,0,0,1,1.193.32l5.918,7.825c.42.555-.09,1.14-1.137,1.3a3.086,3.086,0,0,1-2.661-.714l-8.047-10.64c-.757-1,.162-2.056,2.051-2.347s4.043.285,4.8,1.287l9.658,12.77C361.3,262.905,359.823,264.6,356.784,265.07Z" transform="translate(-309.93 -242.902)" fill="#21587b"/>
        <g id="Grupo_61930" data-name="Grupo 61930" transform="translate(28.477 1.716)">
          <path id="Trazado_132284" data-name="Trazado 132284" d="M345.2,249.51c-.157.115-.214.267-.1.42l5.566,7.36a.336.336,0,0,0,.235.052c.108-.017.16-.077.118-.135Z" transform="translate(-335.709 -242.477)" fill="#00223d"/>
          <path id="Trazado_132285" data-name="Trazado 132285" d="M356.423,260.049l-9.656-12.77a2.8,2.8,0,0,0-2.414-.648c-.9.139-1.341.624-1.057,1.1a1.449,1.449,0,0,1,1.057-.556,2.8,2.8,0,0,1,2.414.648l9.656,12.77a1.425,1.425,0,0,1,.244.5A1.2,1.2,0,0,0,356.423,260.049Z" transform="translate(-336.449 -243.659)" fill="#00223d"/>
          <path id="Trazado_132286" data-name="Trazado 132286" d="M362.728,258.956a.9.9,0,0,1-.413.164,1.385,1.385,0,0,1-1.194-.32l-9.008-11.911c-1.324-1.752-5.087-2.761-8.387-2.251-2.684.415-4.217,1.71-4,3.121.208-1.186,1.667-2.213,4-2.573,3.3-.51,7.064.5,8.387,2.251l9.008,11.911a1.381,1.381,0,0,0,1.194.32c.471-.073.7-.334.51-.585Z" transform="translate(-337.869 -244.505)" fill="#00223d"/>
          <path id="Trazado_132287" data-name="Trazado 132287" d="M342.15,248.317l8.046,10.64a3.08,3.08,0,0,0,2.661.714c.977-.15,1.453-.669,1.179-1.187a1.563,1.563,0,0,1-1.179.639,3.089,3.089,0,0,1-2.661-.714l-8.046-10.64a1.344,1.344,0,0,1-.214-.422A1.078,1.078,0,0,0,342.15,248.317Z" transform="translate(-336.981 -243.353)" fill="#00223d"/>
          <path id="Trazado_132288" data-name="Trazado 132288" d="M356.776,263.5c-3.039.471-6.506-.459-7.725-2.073L338.965,248.1a2.686,2.686,0,0,1-.542-1.353,2.488,2.488,0,0,0,.542,1.9l10.085,13.335c1.22,1.612,4.686,2.542,7.725,2.073,2.488-.385,3.9-1.592,3.676-2.9C360.249,262.235,358.91,263.172,356.776,263.5Z" transform="translate(-338.399 -243.598)" fill="#00223d"/>
        </g>
      </g>
    </g>
  </g>
</svg>
