<svg xmlns="http://www.w3.org/2000/svg" xmlns:xlink="http://www.w3.org/1999/xlink" width="220.973" height="206.963" viewBox="0 0 220.973 206.963">
  <defs>
    <linearGradient id="linear-gradient" x1="0.5" x2="0.5" y2="1" gradientUnits="objectBoundingBox">
      <stop offset="0" stop-color="#fff"/>
      <stop offset="1" stop-color="#d2e6ee"/>
    </linearGradient>
  </defs>
  <g id="Grupo_57101" data-name="Grupo 57101" transform="translate(-490.583 -423.5)">
    <g id="Grupo_29278" data-name="Grupo 29278" transform="translate(490.583 423.5)">
      <g id="Shadow" transform="translate(113.753 143.411)">
        <path id="Shadow-2" data-name="Shadow" d="M252.468,336.777l34.993,20.12a1.612,1.612,0,0,0,1.461,0l61.942-35.762a.445.445,0,0,0,0-.844l-34.993-20.12a1.612,1.612,0,0,0-1.461,0l-61.942,35.762A.445.445,0,0,0,252.468,336.777Z" transform="translate(-252.165 -299.996)" fill="#e0e0e0"/>
        <path id="Shadow-3" data-name="Shadow" d="M400.108,371.515c-.114-.9-1.187-1.35-1.779-1.691l-23.9-13.837a3.422,3.422,0,0,0-3.418-.024L347.126,369.74c-.7.406-1.855,1.184-1.855,2.093s.629,1.11,1.786,1.779l23.72,13.7a3.906,3.906,0,0,0,3.907,0l24.475-14.021A1.833,1.833,0,0,0,400.108,371.515Z" transform="translate(-292.901 -324.288)" fill="#e0e0e0"/>
      </g>
      <g id="Servers" transform="translate(0 0)">
        <g id="Server" transform="translate(66.26)">
          <g id="Grupo_29191" data-name="Grupo 29191" transform="translate(66.259 108.269)">
            <path id="Trazado_69480" data-name="Trazado 69480" d="M297.728,255.136l5.637-3.254a2.693,2.693,0,0,1,2.436,0l35.339,20.4" transform="translate(-290.866 -243.676)" fill="none" stroke="#12263f" stroke-miterlimit="10" stroke-width="1"/>
            <path id="Trazado_69481" data-name="Trazado 69481" d="M293.665,251.765l7.922-4.573a2.689,2.689,0,0,1,2.436,0l37.624,21.722" transform="translate(-289.088 -241.623)" fill="none" stroke="#12263f" stroke-miterlimit="10" stroke-width="1"/>
            <path id="Trazado_69482" data-name="Trazado 69482" d="M342.154,265.542,302.246,242.5a2.693,2.693,0,0,0-2.436,0L289.6,248.389" transform="translate(-287.311 -239.571)" fill="none" stroke="#12263f" stroke-miterlimit="10" stroke-width="1"/>
            <path id="Trazado_69483" data-name="Trazado 69483" d="M342.656,262.171l-42.194-24.36a2.693,2.693,0,0,0-2.436,0l-12.5,7.213" transform="translate(-285.528 -237.519)" fill="none" stroke="#12263f" stroke-miterlimit="10" stroke-width="1"/>
          </g>
          <g id="Grupo_29201" data-name="Grupo 29201" transform="translate(0 0.111)">
            <path id="Trazado_69484" data-name="Trazado 69484" d="M205.353,45.52,168.947,66.539a2.692,2.692,0,0,0-1.218,2.109v100.08a2.692,2.692,0,0,0,1.218,2.109l36.406,21.019a2.694,2.694,0,0,0,2.436,0l36.405-21.019a2.691,2.691,0,0,0,1.218-2.109V68.648a2.692,2.692,0,0,0-1.218-2.109L207.789,45.52A2.689,2.689,0,0,0,205.353,45.52Z" transform="translate(-167.729 -45.229)" fill="url(#linear-gradient)"/>
            <path id="Trazado_69485" data-name="Trazado 69485" d="M275.625,85.821V185.9a2.7,2.7,0,0,1-1.216,2.109L238,209.031a2.44,2.44,0,0,1-1.214.292V106.43a2.518,2.518,0,0,0,1.214-.292l36.409-21.02.332-.276.433-.36A2.524,2.524,0,0,1,275.625,85.821Z" transform="translate(-197.943 -62.403)" fill="url(#linear-gradient)"/>
            <g id="Grupo_29192" data-name="Grupo 29192" transform="translate(4.57 33.103)">
              <path id="Trazado_69486" data-name="Trazado 69486" d="M177.071,104.248l27.267,15.743a2.691,2.691,0,0,1,1.218,2.109v10.379c0,.776-.545,1.091-1.218.7l-27.267-15.743a2.692,2.692,0,0,1-1.218-2.109V104.951C175.853,104.174,176.4,103.86,177.071,104.248Z" transform="translate(-175.853 -104.081)" fill="#455a64"/>
              <path id="Trazado_69487" data-name="Trazado 69487" d="M179.915,111.892a2.611,2.611,0,0,0,1.218,2.022l22.7,13.1c.673.388,1.218.112,1.218-.616a2.612,2.612,0,0,0-1.218-2.023l-22.7-13.1C180.46,110.887,179.915,111.164,179.915,111.892Z" transform="translate(-177.63 -107.152)" fill="#37a3a5"/>
              <path id="Trazado_69488" data-name="Trazado 69488" d="M179.915,121.273a2.611,2.611,0,0,0,1.218,2.022l22.7,13.1c.673.388,1.218.112,1.218-.616a2.612,2.612,0,0,0-1.218-2.023l-22.7-13.1C180.46,120.269,179.915,120.545,179.915,121.273Z" transform="translate(-177.63 -111.257)" fill="#263238"/>
              <path id="Trazado_69489" data-name="Trazado 69489" d="M181.133,120.657l12.491,7.212v2.638L181.133,123.3a2.611,2.611,0,0,1-1.218-2.022C179.915,120.545,180.46,120.269,181.133,120.657Z" transform="translate(-177.63 -111.257)" fill="#37a3a5"/>
            </g>
            <g id="Grupo_29193" data-name="Grupo 29193" transform="translate(4.57 51.571)">
              <path id="Trazado_69490" data-name="Trazado 69490" d="M177.071,137.081l27.267,15.743a2.691,2.691,0,0,1,1.218,2.109v10.379c0,.776-.545,1.091-1.218.7l-27.267-15.743a2.694,2.694,0,0,1-1.218-2.109V137.784C175.853,137.007,176.4,136.693,177.071,137.081Z" transform="translate(-175.853 -136.914)" fill="#455a64"/>
              <path id="Trazado_69491" data-name="Trazado 69491" d="M179.915,144.725a2.611,2.611,0,0,0,1.218,2.022l22.7,13.1c.673.388,1.218.112,1.218-.616a2.612,2.612,0,0,0-1.218-2.023l-22.7-13.1C180.46,143.721,179.915,144,179.915,144.725Z" transform="translate(-177.63 -139.985)" fill="#37a3a5"/>
              <path id="Trazado_69492" data-name="Trazado 69492" d="M179.915,154.106a2.611,2.611,0,0,0,1.218,2.022l22.7,13.1c.673.388,1.218.112,1.218-.616a2.611,2.611,0,0,0-1.218-2.022l-22.7-13.1C180.46,153.1,179.915,153.378,179.915,154.106Z" transform="translate(-177.63 -144.09)" fill="#263238"/>
              <path id="Trazado_69493" data-name="Trazado 69493" d="M181.133,153.49l19.346,11.169V167.3l-19.346-11.169a2.611,2.611,0,0,1-1.218-2.022C179.915,153.378,180.46,153.1,181.133,153.49Z" transform="translate(-177.63 -144.09)" fill="#37a3a5"/>
            </g>
            <g id="Grupo_29194" data-name="Grupo 29194" transform="translate(4.57 70.039)">
              <path id="Trazado_69494" data-name="Trazado 69494" d="M177.071,169.914l27.267,15.743a2.691,2.691,0,0,1,1.218,2.109v10.379c0,.776-.545,1.091-1.218.7l-27.267-15.743A2.694,2.694,0,0,1,175.853,181V170.617C175.853,169.84,176.4,169.526,177.071,169.914Z" transform="translate(-175.853 -169.747)" fill="#455a64"/>
              <path id="Trazado_69495" data-name="Trazado 69495" d="M179.915,177.558a2.611,2.611,0,0,0,1.218,2.022l22.7,13.1c.673.388,1.218.112,1.218-.616a2.61,2.61,0,0,0-1.218-2.022l-22.7-13.1C180.46,176.554,179.915,176.83,179.915,177.558Z" transform="translate(-177.63 -172.818)" fill="#37a3a5"/>
              <path id="Trazado_69496" data-name="Trazado 69496" d="M179.915,186.939a2.61,2.61,0,0,0,1.218,2.022l22.7,13.1c.673.388,1.218.112,1.218-.616a2.611,2.611,0,0,0-1.218-2.022l-22.7-13.1C180.46,185.935,179.915,186.211,179.915,186.939Z" transform="translate(-177.63 -176.923)" fill="#263238"/>
              <path id="Trazado_69497" data-name="Trazado 69497" d="M181.133,186.323l7.921,4.573v2.638l-7.921-4.573a2.61,2.61,0,0,1-1.218-2.022C179.915,186.211,180.46,185.935,181.133,186.323Z" transform="translate(-177.63 -176.923)" fill="#37a3a5"/>
            </g>
            <g id="Grupo_29195" data-name="Grupo 29195" transform="translate(4.57 88.506)">
              <path id="Trazado_69498" data-name="Trazado 69498" d="M177.071,202.747l27.267,15.743a2.692,2.692,0,0,1,1.218,2.109v10.379c0,.777-.545,1.091-1.218.7l-27.267-15.743a2.694,2.694,0,0,1-1.218-2.109V203.45C175.853,202.674,176.4,202.359,177.071,202.747Z" transform="translate(-175.853 -202.581)" fill="#455a64"/>
              <path id="Trazado_69499" data-name="Trazado 69499" d="M179.915,210.391a2.611,2.611,0,0,0,1.218,2.022l22.7,13.1c.673.388,1.218.113,1.218-.616a2.611,2.611,0,0,0-1.218-2.022l-22.7-13.1C180.46,209.387,179.915,209.663,179.915,210.391Z" transform="translate(-177.63 -205.652)" fill="#37a3a5"/>
              <path id="Trazado_69500" data-name="Trazado 69500" d="M179.915,219.772a2.612,2.612,0,0,0,1.218,2.023l22.7,13.1c.673.388,1.218.113,1.218-.616a2.611,2.611,0,0,0-1.218-2.022l-22.7-13.1C180.46,218.768,179.915,219.044,179.915,219.772Z" transform="translate(-177.63 -209.756)" fill="#263238"/>
              <path id="Trazado_69501" data-name="Trazado 69501" d="M181.133,219.156l12.491,7.212v2.638l-12.491-7.211a2.612,2.612,0,0,1-1.218-2.023C179.915,219.044,180.46,218.768,181.133,219.156Z" transform="translate(-177.63 -209.756)" fill="#37a3a5"/>
            </g>
            <g id="Grupo_29196" data-name="Grupo 29196" transform="translate(4.57 106.974)">
              <path id="Trazado_69502" data-name="Trazado 69502" d="M177.071,235.58l27.267,15.743a2.692,2.692,0,0,1,1.218,2.109v10.379c0,.777-.545,1.091-1.218.7l-27.267-15.743a2.693,2.693,0,0,1-1.218-2.109V236.283C175.853,235.507,176.4,235.192,177.071,235.58Z" transform="translate(-175.853 -235.414)" fill="#455a64"/>
              <path id="Trazado_69503" data-name="Trazado 69503" d="M179.915,243.224a2.612,2.612,0,0,0,1.218,2.023l22.7,13.1c.673.388,1.218.113,1.218-.616a2.611,2.611,0,0,0-1.218-2.022l-22.7-13.1C180.46,242.22,179.915,242.5,179.915,243.224Z" transform="translate(-177.63 -238.485)" fill="#37a3a5"/>
              <path id="Trazado_69504" data-name="Trazado 69504" d="M179.915,252.605a2.612,2.612,0,0,0,1.218,2.023l22.7,13.1c.673.389,1.218.112,1.218-.616a2.611,2.611,0,0,0-1.218-2.022l-22.7-13.1C180.46,251.6,179.915,251.877,179.915,252.605Z" transform="translate(-177.63 -242.589)" fill="#263238"/>
              <path id="Trazado_69505" data-name="Trazado 69505" d="M181.133,251.989l17.061,9.85v2.638l-17.061-9.85a2.612,2.612,0,0,1-1.218-2.023C179.915,251.877,180.46,251.6,181.133,251.989Z" transform="translate(-177.63 -242.589)" fill="#37a3a5"/>
            </g>
            <g id="Grupo_29197" data-name="Grupo 29197" transform="translate(42.268 34.254)">
              <path id="Trazado_69506" data-name="Trazado 69506" d="M245.161,134.566c1.262-.731,2.285-.065,2.285,1.488v60.337a5.236,5.236,0,0,1-2.285,4.137c-1.262.732-2.285.066-2.285-1.488V138.7A5.238,5.238,0,0,1,245.161,134.566Z" transform="translate(-242.876 -118.44)" fill="#37474f"/>
              <path id="Trazado_69507" data-name="Trazado 69507" d="M246.05,200.327a2.611,2.611,0,0,0,1.142-2.066V137.755c0-.776-.512-1.111-1.143-.746a2.613,2.613,0,0,0-1.142,2.066V199.58C244.908,200.357,245.419,200.691,246.05,200.327Z" transform="translate(-243.765 -119.574)" fill="#263238"/>
              <path id="Trazado_69508" data-name="Trazado 69508" d="M246.05,225.585a2.611,2.611,0,0,0,1.142-2.066V194.591l-2.285,1.319v28.929C244.908,225.615,245.419,225.95,246.05,225.585Z" transform="translate(-243.765 -144.833)" fill="#37a3a5"/>
              <path id="Trazado_69509" data-name="Trazado 69509" d="M257.348,127.531c1.262-.732,2.285-.065,2.285,1.488v60.337a5.238,5.238,0,0,1-2.285,4.137c-1.262.732-2.285.065-2.285-1.488V131.668A5.236,5.236,0,0,1,257.348,127.531Z" transform="translate(-248.208 -115.362)" fill="#37474f"/>
              <path id="Trazado_69510" data-name="Trazado 69510" d="M258.237,193.292a2.613,2.613,0,0,0,1.142-2.066V130.72c0-.777-.512-1.111-1.142-.746a2.609,2.609,0,0,0-1.142,2.065v60.506C257.094,193.321,257.606,193.656,258.237,193.292Z" transform="translate(-249.097 -116.496)" fill="#37a3a5"/>
              <path id="Trazado_69511" data-name="Trazado 69511" d="M269.534,120.5c1.262-.731,2.285-.065,2.285,1.488v60.337a5.239,5.239,0,0,1-2.285,4.137c-1.262.731-2.285.065-2.285-1.488V124.632A5.239,5.239,0,0,1,269.534,120.5Z" transform="translate(-253.54 -112.284)" fill="#37474f"/>
              <path id="Trazado_69512" data-name="Trazado 69512" d="M270.423,186.256a2.612,2.612,0,0,0,1.142-2.065V123.685c0-.777-.511-1.111-1.142-.747A2.611,2.611,0,0,0,269.28,125V185.51C269.281,186.286,269.792,186.62,270.423,186.256Z" transform="translate(-254.428 -113.418)" fill="#263238"/>
              <path id="Trazado_69513" data-name="Trazado 69513" d="M270.423,197.662a2.612,2.612,0,0,0,1.142-2.065V148.859l-2.285,1.319v46.737C269.281,197.692,269.792,198.026,270.423,197.662Z" transform="translate(-254.428 -124.824)" fill="#37a3a5"/>
              <path id="Trazado_69514" data-name="Trazado 69514" d="M281.72,113.46c1.262-.731,2.285-.065,2.285,1.488v60.337a5.236,5.236,0,0,1-2.285,4.137c-1.262.732-2.285.066-2.285-1.488V117.6A5.239,5.239,0,0,1,281.72,113.46Z" transform="translate(-258.872 -109.206)" fill="#37474f"/>
              <path id="Trazado_69515" data-name="Trazado 69515" d="M282.609,179.221a2.611,2.611,0,0,0,1.142-2.066V116.649c0-.776-.512-1.111-1.143-.746a2.612,2.612,0,0,0-1.142,2.066v60.506C281.467,179.251,281.978,179.585,282.609,179.221Z" transform="translate(-259.76 -110.34)" fill="#263238"/>
              <path id="Trazado_69516" data-name="Trazado 69516" d="M282.609,219.038a2.611,2.611,0,0,0,1.142-2.066V206.76l-2.285,1.319v10.212C281.467,219.068,281.978,219.4,282.609,219.038Z" transform="translate(-259.76 -150.157)" fill="#37a3a5"/>
              <path id="Trazado_69517" data-name="Trazado 69517" d="M293.907,106.425c1.262-.732,2.285-.065,2.285,1.488V168.25a5.237,5.237,0,0,1-2.285,4.137c-1.262.731-2.285.065-2.285-1.488V110.562A5.234,5.234,0,0,1,293.907,106.425Z" transform="translate(-264.204 -106.128)" fill="#37474f"/>
              <path id="Trazado_69518" data-name="Trazado 69518" d="M294.8,172.186a2.611,2.611,0,0,0,1.142-2.066V109.614c0-.777-.512-1.111-1.142-.746a2.608,2.608,0,0,0-1.142,2.065v60.506C293.653,172.215,294.165,172.55,294.8,172.186Z" transform="translate(-265.092 -107.262)" fill="#263238"/>
              <path id="Trazado_69519" data-name="Trazado 69519" d="M294.8,195.391a2.611,2.611,0,0,0,1.142-2.066V161.758l-2.285,1.319v31.567C293.653,195.421,294.164,195.755,294.8,195.391Z" transform="translate(-265.092 -130.467)" fill="#37a3a5"/>
            </g>
            <g id="Grupo_29200" data-name="Grupo 29200" transform="translate(42.269 106.207)">
              <path id="Trazado_69520" data-name="Trazado 69520" d="M243.851,251.526l30.039-17.343c.538-.31.974-.059.974.563v10.941a2.152,2.152,0,0,1-.974,1.687l-30.039,17.343c-.538.31-.974.058-.974-.562V253.214A2.155,2.155,0,0,1,243.851,251.526Z" transform="translate(-242.877 -234.051)" fill="#37474f"/>
              <g id="Grupo_29198" data-name="Grupo 29198" transform="translate(2.209 4.007)">
                <path id="Trazado_69521" data-name="Trazado 69521" d="M246.805,257.888c0,.728.546,1,1.218.616l25.133-14.515a2.61,2.61,0,0,0,1.218-2.022c0-.729-.545-1-1.218-.616l-25.134,14.515A2.609,2.609,0,0,0,246.805,257.888Z" transform="translate(-246.805 -241.174)" fill="#263238"/>
                <path id="Trazado_69522" data-name="Trazado 69522" d="M246.805,261.1c0,.728.545,1,1.218.616L266.3,251.16v-2.638L248.022,259.08A2.608,2.608,0,0,0,246.805,261.1Z" transform="translate(-246.805 -244.389)" fill="#37a3a5"/>
              </g>
              <g id="Grupo_29199" data-name="Grupo 29199" transform="translate(2.209 9.284)">
                <path id="Trazado_69523" data-name="Trazado 69523" d="M246.805,267.269c0,.728.546,1,1.218.616l25.133-14.515a2.612,2.612,0,0,0,1.218-2.023c0-.728-.545-1-1.218-.615l-25.134,14.515A2.608,2.608,0,0,0,246.805,267.269Z" transform="translate(-246.805 -250.556)" fill="#263238"/>
                <path id="Trazado_69524" data-name="Trazado 69524" d="M246.805,275.618c0,.728.546,1,1.218.616l6.854-3.958v-2.638l-6.855,3.958A2.609,2.609,0,0,0,246.805,275.618Z" transform="translate(-246.805 -258.905)" fill="#37a3a5"/>
              </g>
            </g>
            <path id="Trazado_69525" data-name="Trazado 69525" d="M244.749,66.539,208.343,45.52a2.689,2.689,0,0,0-2.435,0L169.5,66.539a.742.742,0,0,0,0,1.406l36.406,21.019a2.69,2.69,0,0,0,2.436,0l36.405-21.019A.742.742,0,0,0,244.749,66.539Z" transform="translate(-168.284 -45.229)" fill="url(#linear-gradient)"/>
          </g>
          <g id="Grupo_29202" data-name="Grupo 29202" transform="translate(9.139 2.584)">
            <path id="Trazado_69526" data-name="Trazado 69526" d="M212.948,85.893,184.708,69.588a1.614,1.614,0,0,1-.731-1.266v-.951a1.614,1.614,0,0,1,.731-1.266L212.948,49.8a1.616,1.616,0,0,1,1.461,0l28.241,16.305a1.616,1.616,0,0,1,.731,1.266v.951a1.615,1.615,0,0,1-.731,1.266L214.41,85.893A1.617,1.617,0,0,1,212.948,85.893Z" transform="translate(-183.976 -49.627)" fill="#263238"/>
            <path id="Trazado_69527" data-name="Trazado 69527" d="M185.04,67.388l28.241,16.305a1.617,1.617,0,0,0,1.462,0l28.241-16.305a.445.445,0,0,0,0-.844L214.742,50.8a1.616,1.616,0,0,0-1.461,0L185.04,66.544A.445.445,0,0,0,185.04,67.388Z" transform="translate(-184.309 -50.064)" fill="url(#linear-gradient)"/>
            <path id="Trazado_69528" data-name="Trazado 69528" d="M213.68,96.321v2.638a1.479,1.479,0,0,1-.731-.174L184.707,82.478a1.607,1.607,0,0,1-.731-1.266v-.951a1.624,1.624,0,0,1,.6-1.17c-.264.231-.219.546.135.748l28.242,16.306A1.478,1.478,0,0,0,213.68,96.321Z" transform="translate(-183.976 -62.518)" fill="#37474f"/>
          </g>
          <g id="Grupo_29205" data-name="Grupo 29205" transform="translate(18.278)">
            <path id="Trazado_69529" data-name="Trazado 69529" d="M220.057,75.968l-19.1-11.028a1.616,1.616,0,0,1-.731-1.266v-.951a1.615,1.615,0,0,1,.731-1.266L213.2,54.387a4.866,4.866,0,0,0,1.233-1.1l5.849-7.879a.969.969,0,0,1,1.234-.255l19.1,11.028a1.616,1.616,0,0,1,.731,1.266v6.228a1.616,1.616,0,0,1-.731,1.266l-19.1,11.028A1.617,1.617,0,0,1,220.057,75.968Z" transform="translate(-200.225 -45.032)" fill="#263238"/>
            <path id="Trazado_69530" data-name="Trazado 69530" d="M221.852,73.33,234.1,66.259a4.184,4.184,0,0,0,.64-.475,4.377,4.377,0,0,0,.595-.624l5.849-7.88a.734.734,0,0,0-.228-1.1l-19.1-11.028a.969.969,0,0,0-1.234.255l-5.849,7.879a4.628,4.628,0,0,1-1.132,1.144l-12.349,7.026a.445.445,0,0,0,0,.844l19.1,11.028A1.616,1.616,0,0,0,221.852,73.33Z" transform="translate(-200.558 -45.032)" fill="#455a64"/>
            <path id="Trazado_69531" data-name="Trazado 69531" d="M251.211,56.181l-19.1-11.028a.969.969,0,0,0-1.234.255l-5.849,7.879a4.319,4.319,0,0,1-.6.623s20.559,11.878,20.565,11.872a4.357,4.357,0,0,0,.6-.623l5.849-7.88A.734.734,0,0,0,251.211,56.181Z" transform="translate(-210.814 -45.032)" fill="#37474f"/>
            <g id="Grupo_29203" data-name="Grupo 29203" transform="translate(5.011 11.964)">
              <path id="Trazado_69532" data-name="Trazado 69532" d="M209.488,74.42a1.892,1.892,0,0,1,1.713,0,.522.522,0,0,1,0,.989,1.892,1.892,0,0,1-1.713,0A.522.522,0,0,1,209.488,74.42Z" transform="translate(-209.133 -69.764)" fill="#27debf"/>
              <path id="Trazado_69533" data-name="Trazado 69533" d="M215.581,77.937a1.9,1.9,0,0,1,1.713,0,.522.522,0,0,1,0,.989,1.892,1.892,0,0,1-1.713,0A.522.522,0,0,1,215.581,77.937Z" transform="translate(-211.799 -71.303)" fill="#27debf"/>
              <path id="Trazado_69534" data-name="Trazado 69534" d="M221.674,81.455a1.892,1.892,0,0,1,1.713,0,.522.522,0,0,1,0,.989,1.892,1.892,0,0,1-1.713,0A.522.522,0,0,1,221.674,81.455Z" transform="translate(-214.465 -72.842)" fill="#263238"/>
              <path id="Trazado_69535" data-name="Trazado 69535" d="M227.766,84.973a1.893,1.893,0,0,1,1.714,0,.522.522,0,0,1,0,.989,1.9,1.9,0,0,1-1.714,0A.522.522,0,0,1,227.766,84.973Z" transform="translate(-217.13 -74.381)" fill="#263238"/>
              <ellipse id="Elipse_3371" data-name="Elipse 3371" cx="1.212" cy="0.7" rx="1.212" ry="0.7" transform="translate(2.57 2.966)" fill="#27debf"/>
              <path id="Trazado_69536" data-name="Trazado 69536" d="M220.15,75.3a1.893,1.893,0,0,1,1.714,0,.522.522,0,0,1,0,.989,1.893,1.893,0,0,1-1.714,0A.522.522,0,0,1,220.15,75.3Z" transform="translate(-213.798 -70.149)" fill="#263238"/>
              <ellipse id="Elipse_3372" data-name="Elipse 3372" cx="1.212" cy="0.7" rx="1.212" ry="0.7" transform="translate(9.424 6.924)" fill="#27debf"/>
              <path id="Trazado_69537" data-name="Trazado 69537" d="M232.336,82.334a1.9,1.9,0,0,1,1.713,0,.522.522,0,0,1,0,.989,1.892,1.892,0,0,1-1.713,0A.522.522,0,0,1,232.336,82.334Z" transform="translate(-219.13 -73.227)" fill="#263238"/>
              <path id="Trazado_69538" data-name="Trazado 69538" d="M218.627,69.143a1.892,1.892,0,0,1,1.713,0,.522.522,0,0,1,0,.989,1.9,1.9,0,0,1-1.713,0A.522.522,0,0,1,218.627,69.143Z" transform="translate(-213.132 -67.455)" fill="#263238"/>
              <path id="Trazado_69539" data-name="Trazado 69539" d="M224.72,72.66a1.9,1.9,0,0,1,1.713,0,.522.522,0,0,1,0,.989,1.892,1.892,0,0,1-1.713,0A.522.522,0,0,1,224.72,72.66Z" transform="translate(-215.797 -68.994)" fill="#27debf"/>
              <path id="Trazado_69540" data-name="Trazado 69540" d="M230.812,76.178a1.893,1.893,0,0,1,1.714,0,.522.522,0,0,1,0,.989,1.893,1.893,0,0,1-1.714,0A.522.522,0,0,1,230.812,76.178Z" transform="translate(-218.463 -70.533)" fill="#263238"/>
              <path id="Trazado_69541" data-name="Trazado 69541" d="M233.894,88.42a1.892,1.892,0,0,1,1.713,0,.522.522,0,0,1,0,.989,1.892,1.892,0,0,1-1.713,0A.522.522,0,0,1,233.894,88.42Z" transform="translate(-219.811 -75.889)" fill="#27debf"/>
              <ellipse id="Elipse_3373" data-name="Elipse 3373" cx="1.212" cy="0.7" rx="1.212" ry="0.7" transform="translate(16.298 10.841)" fill="#263238"/>
              <path id="Trazado_69542" data-name="Trazado 69542" d="M236.905,79.7a1.893,1.893,0,0,1,1.714,0,.522.522,0,0,1,0,.989,1.9,1.9,0,0,1-1.714,0A.522.522,0,0,1,236.905,79.7Z" transform="translate(-221.129 -72.074)" fill="#263238"/>
              <path id="Trazado_69543" data-name="Trazado 69543" d="M223.2,66.507a1.9,1.9,0,0,1,1.714,0,.522.522,0,0,1,0,.989,1.893,1.893,0,0,1-1.714,0A.522.522,0,0,1,223.2,66.507Z" transform="translate(-215.131 -66.302)" fill="#27debf"/>
              <ellipse id="Elipse_3374" data-name="Elipse 3374" cx="1.212" cy="0.7" rx="1.212" ry="0.7" transform="translate(11.138 1.978)" fill="#263238"/>
              <path id="Trazado_69544" data-name="Trazado 69544" d="M235.382,73.543a1.893,1.893,0,0,1,1.714,0,.522.522,0,0,1,0,.989,1.9,1.9,0,0,1-1.714,0A.522.522,0,0,1,235.382,73.543Z" transform="translate(-220.463 -69.38)" fill="#27debf"/>
              <ellipse id="Elipse_3375" data-name="Elipse 3375" cx="1.212" cy="0.7" rx="1.212" ry="0.7" transform="translate(17.992 5.936)" fill="#263238"/>
              <path id="Trazado_69545" data-name="Trazado 69545" d="M243.033,83.146a1.892,1.892,0,0,1,1.713,0,.522.522,0,0,1,0,.989,1.892,1.892,0,0,1-1.713,0A.522.522,0,0,1,243.033,83.146Z" transform="translate(-223.81 -73.582)" fill="#27debf"/>
              <path id="Trazado_69546" data-name="Trazado 69546" d="M247.6,80.508a1.893,1.893,0,0,1,1.714,0,.522.522,0,0,1,0,.989,1.9,1.9,0,0,1-1.714,0A.522.522,0,0,1,247.6,80.508Z" transform="translate(-225.809 -72.428)" fill="#263238"/>
            </g>
            <path id="Trazado_69547" data-name="Trazado 69547" d="M220.83,86.355v2.632a1.508,1.508,0,0,1-.771-.169l-19.1-11.03a1.607,1.607,0,0,1-.731-1.266v-.951a1.624,1.624,0,0,1,.6-1.17c-.264.231-.219.546.135.748l19.1,11.03A1.511,1.511,0,0,0,220.83,86.355Z" transform="translate(-200.225 -57.882)" fill="#37474f"/>
            <g id="Grupo_29204" data-name="Grupo 29204" transform="translate(16.634 2.118)">
              <path id="Trazado_69548" data-name="Trazado 69548" d="M229.9,58.91l.017-.022a.645.645,0,0,1,.822-.171l16.623,9.6a.489.489,0,0,1,.151.732l-.017.023a.647.647,0,0,1-.823.169l-16.619-9.595A.492.492,0,0,1,229.9,58.91Z" transform="translate(-229.798 -53.102)" fill="#263238"/>
              <path id="Trazado_69549" data-name="Trazado 69549" d="M229.9,58.91l.017-.022a.645.645,0,0,1,.822-.171L243.1,65.851l-.69.925-12.354-7.133A.492.492,0,0,1,229.9,58.91Z" transform="translate(-229.798 -53.102)" fill="#27debf"/>
              <path id="Trazado_69550" data-name="Trazado 69550" d="M232.344,55.631l.017-.023a.645.645,0,0,1,.821-.172l16.623,9.6a.488.488,0,0,1,.151.732l-.017.024a.647.647,0,0,1-.823.169L232.5,56.365A.492.492,0,0,1,232.344,55.631Z" transform="translate(-230.867 -51.668)" fill="#263238"/>
              <path id="Trazado_69551" data-name="Trazado 69551" d="M232.344,55.631l.017-.023a.645.645,0,0,1,.821-.172l4.132,2.385-.69.925L232.5,56.365A.492.492,0,0,1,232.344,55.631Z" transform="translate(-230.867 -51.668)" fill="#27debf"/>
              <path id="Trazado_69552" data-name="Trazado 69552" d="M234.788,52.352l.017-.022a.644.644,0,0,1,.821-.171l16.623,9.6a.488.488,0,0,1,.151.732l-.017.024a.648.648,0,0,1-.823.169l-16.619-9.595A.491.491,0,0,1,234.788,52.352Z" transform="translate(-231.936 -50.233)" fill="#263238"/>
              <path id="Trazado_69553" data-name="Trazado 69553" d="M234.788,52.352l.017-.022a.646.646,0,0,1,.822-.172l8.658,4.984-.69.925-8.654-4.981A.489.489,0,0,1,234.788,52.352Z" transform="translate(-231.936 -50.233)" fill="#27debf"/>
              <path id="Trazado_69554" data-name="Trazado 69554" d="M237.231,49.073l.017-.023a.644.644,0,0,1,.821-.172l16.623,9.6a.488.488,0,0,1,.151.732l-.017.024A.647.647,0,0,1,254,59.4l-16.619-9.595A.491.491,0,0,1,237.231,49.073Z" transform="translate(-233.005 -48.798)" fill="#263238"/>
              <path id="Trazado_69555" data-name="Trazado 69555" d="M237.231,49.073l.017-.023a.644.644,0,0,1,.821-.172l15.09,8.712-.69.925-15.086-8.709A.491.491,0,0,1,237.231,49.073Z" transform="translate(-233.005 -48.798)" fill="#27debf"/>
            </g>
          </g>
        </g>
        <g id="Server-2" data-name="Server" transform="translate(0 38.249)">
          <g id="Grupo_29206" data-name="Grupo 29206" transform="translate(68.536 105.732)">
            <path id="Trazado_69556" data-name="Trazado 69556" d="M183.977,313.7l5.637-3.254a2.7,2.7,0,0,1,2.436,0l33.481,19.33a1.239,1.239,0,0,0,1.858-1.073V301.008" transform="translate(-177.115 -301.008)" fill="none" stroke="#12263f" stroke-miterlimit="10" stroke-width="1"/>
            <path id="Trazado_69557" data-name="Trazado 69557" d="M179.915,312.378l7.921-4.573a2.7,2.7,0,0,1,2.436,0l35.766,20.649a1.239,1.239,0,0,0,1.858-1.073V301.008" transform="translate(-175.338 -301.008)" fill="none" stroke="#12263f" stroke-miterlimit="10" stroke-width="1"/>
            <path id="Trazado_69558" data-name="Trazado 69558" d="M175.854,311.177l10.206-5.889a2.7,2.7,0,0,1,2.436,0l38.05,21.968a1.239,1.239,0,0,0,1.858-1.073v-24.9" transform="translate(-173.561 -301.131)" fill="none" stroke="#12263f" stroke-miterlimit="10" stroke-width="1"/>
            <path id="Trazado_69559" data-name="Trazado 69559" d="M171.777,309.862l12.5-7.212a2.7,2.7,0,0,1,2.436,0l40.335,23.288a1.239,1.239,0,0,0,1.858-1.073V301.288" transform="translate(-171.777 -301.131)" fill="none" stroke="#12263f" stroke-miterlimit="10" stroke-width="1"/>
          </g>
          <g id="Grupo_29216" data-name="Grupo 29216" transform="translate(0 0.111)">
            <path id="Trazado_69560" data-name="Trazado 69560" d="M87.553,113.521,51.147,134.54a2.691,2.691,0,0,0-1.218,2.109v100.08a2.691,2.691,0,0,0,1.218,2.109l36.407,21.019a2.692,2.692,0,0,0,2.436,0l36.405-21.019a2.691,2.691,0,0,0,1.218-2.109V136.649a2.691,2.691,0,0,0-1.218-2.109L89.988,113.521A2.693,2.693,0,0,0,87.553,113.521Z" transform="translate(-49.929 -113.23)" fill="url(#linear-gradient)"/>
            <path id="Trazado_69561" data-name="Trazado 69561" d="M157.825,153.821V253.9a2.7,2.7,0,0,1-1.215,2.109L120.2,277.031a2.443,2.443,0,0,1-1.215.293V174.43a2.52,2.52,0,0,0,1.215-.293l36.409-21.02.332-.276.433-.36A2.524,2.524,0,0,1,157.825,153.821Z" transform="translate(-80.143 -130.403)" fill="url(#linear-gradient)"/>
            <g id="Grupo_29207" data-name="Grupo 29207" transform="translate(4.57 33.103)">
              <path id="Trazado_69562" data-name="Trazado 69562" d="M59.271,172.248,86.538,187.99a2.693,2.693,0,0,1,1.218,2.109v10.379c0,.777-.546,1.091-1.218.7L59.271,185.44a2.691,2.691,0,0,1-1.218-2.109V172.951C58.053,172.175,58.6,171.86,59.271,172.248Z" transform="translate(-58.053 -172.082)" fill="#455a64"/>
              <path id="Trazado_69563" data-name="Trazado 69563" d="M62.115,179.892a2.612,2.612,0,0,0,1.218,2.023l22.7,13.1c.672.389,1.218.112,1.218-.616a2.612,2.612,0,0,0-1.218-2.022l-22.7-13.1C62.66,178.888,62.115,179.164,62.115,179.892Z" transform="translate(-59.83 -175.153)" fill="#37a3a5"/>
              <path id="Trazado_69564" data-name="Trazado 69564" d="M62.115,189.274a2.611,2.611,0,0,0,1.218,2.022l22.7,13.1c.672.388,1.218.112,1.218-.616a2.612,2.612,0,0,0-1.218-2.022l-22.7-13.1C62.66,188.269,62.115,188.545,62.115,189.274Z" transform="translate(-59.83 -179.257)" fill="#263238"/>
              <path id="Trazado_69565" data-name="Trazado 69565" d="M63.333,188.657l12.491,7.212v2.638L63.333,191.3a2.611,2.611,0,0,1-1.218-2.022C62.115,188.545,62.66,188.269,63.333,188.657Z" transform="translate(-59.83 -179.257)" fill="#37a3a5"/>
            </g>
            <g id="Grupo_29208" data-name="Grupo 29208" transform="translate(4.57 51.571)">
              <path id="Trazado_69566" data-name="Trazado 69566" d="M59.271,205.081l27.267,15.743a2.693,2.693,0,0,1,1.218,2.109v10.379c0,.777-.546,1.091-1.218.7L59.271,218.273a2.691,2.691,0,0,1-1.218-2.109V205.784C58.053,205.008,58.6,204.693,59.271,205.081Z" transform="translate(-58.053 -204.915)" fill="#455a64"/>
              <path id="Trazado_69567" data-name="Trazado 69567" d="M62.115,212.726a2.611,2.611,0,0,0,1.218,2.022l22.7,13.1c.672.389,1.218.113,1.218-.616a2.612,2.612,0,0,0-1.218-2.022l-22.7-13.1C62.66,211.721,62.115,212,62.115,212.726Z" transform="translate(-59.83 -207.986)" fill="#37a3a5"/>
              <path id="Trazado_69568" data-name="Trazado 69568" d="M62.115,222.107a2.611,2.611,0,0,0,1.218,2.022l22.7,13.1c.672.389,1.218.113,1.218-.616a2.612,2.612,0,0,0-1.218-2.022l-22.7-13.1C62.66,221.1,62.115,221.378,62.115,222.107Z" transform="translate(-59.83 -212.09)" fill="#263238"/>
              <path id="Trazado_69569" data-name="Trazado 69569" d="M63.333,221.49l19.346,11.17V235.3L63.333,224.129a2.611,2.611,0,0,1-1.218-2.022C62.115,221.378,62.66,221.1,63.333,221.49Z" transform="translate(-59.83 -212.09)" fill="#37a3a5"/>
            </g>
            <g id="Grupo_29209" data-name="Grupo 29209" transform="translate(4.57 70.038)">
              <path id="Trazado_69570" data-name="Trazado 69570" d="M59.271,237.914l27.267,15.743a2.692,2.692,0,0,1,1.218,2.109v10.379c0,.777-.546,1.092-1.218.7L59.271,251.106A2.691,2.691,0,0,1,58.053,249V238.617C58.053,237.841,58.6,237.526,59.271,237.914Z" transform="translate(-58.053 -237.748)" fill="#455a64"/>
              <path id="Trazado_69571" data-name="Trazado 69571" d="M62.115,245.559a2.611,2.611,0,0,0,1.218,2.022l22.7,13.1c.672.389,1.218.112,1.218-.616a2.612,2.612,0,0,0-1.218-2.022l-22.7-13.1C62.66,244.554,62.115,244.83,62.115,245.559Z" transform="translate(-59.83 -240.819)" fill="#37a3a5"/>
              <path id="Trazado_69572" data-name="Trazado 69572" d="M62.115,254.94a2.611,2.611,0,0,0,1.218,2.022l22.7,13.1c.672.389,1.218.113,1.218-.616a2.612,2.612,0,0,0-1.218-2.022l-22.7-13.1C62.66,253.935,62.115,254.211,62.115,254.94Z" transform="translate(-59.83 -244.923)" fill="#263238"/>
              <path id="Trazado_69573" data-name="Trazado 69573" d="M63.333,254.324l7.921,4.573v2.638l-7.922-4.573a2.611,2.611,0,0,1-1.218-2.022C62.115,254.211,62.66,253.935,63.333,254.324Z" transform="translate(-59.83 -244.923)" fill="#37a3a5"/>
            </g>
            <g id="Grupo_29210" data-name="Grupo 29210" transform="translate(4.57 88.506)">
              <path id="Trazado_69574" data-name="Trazado 69574" d="M59.271,270.748,86.538,286.49a2.692,2.692,0,0,1,1.218,2.109v10.379c0,.777-.546,1.092-1.218.7L59.271,283.939a2.691,2.691,0,0,1-1.218-2.109V271.451C58.053,270.674,58.6,270.359,59.271,270.748Z" transform="translate(-58.053 -270.581)" fill="#455a64"/>
              <path id="Trazado_69575" data-name="Trazado 69575" d="M62.115,278.392a2.611,2.611,0,0,0,1.218,2.022l22.7,13.1c.672.389,1.218.112,1.218-.616a2.612,2.612,0,0,0-1.218-2.022l-22.7-13.1C62.66,277.387,62.115,277.663,62.115,278.392Z" transform="translate(-59.83 -273.652)" fill="#37a3a5"/>
              <path id="Trazado_69576" data-name="Trazado 69576" d="M62.115,287.773a2.611,2.611,0,0,0,1.218,2.022l22.7,13.1c.672.388,1.218.112,1.218-.616a2.612,2.612,0,0,0-1.218-2.022l-22.7-13.1C62.66,286.768,62.115,287.044,62.115,287.773Z" transform="translate(-59.83 -277.756)" fill="#263238"/>
              <path id="Trazado_69577" data-name="Trazado 69577" d="M63.333,287.157l12.491,7.211v2.638l-12.491-7.211a2.611,2.611,0,0,1-1.218-2.022C62.115,287.044,62.66,286.768,63.333,287.157Z" transform="translate(-59.83 -277.756)" fill="#37a3a5"/>
            </g>
            <g id="Grupo_29211" data-name="Grupo 29211" transform="translate(4.57 106.974)">
              <path id="Trazado_69578" data-name="Trazado 69578" d="M59.271,303.581l27.267,15.742a2.691,2.691,0,0,1,1.218,2.109v10.379c0,.777-.546,1.092-1.218.7L59.271,316.772a2.691,2.691,0,0,1-1.218-2.109V304.284C58.053,303.507,58.6,303.192,59.271,303.581Z" transform="translate(-58.053 -303.414)" fill="#455a64"/>
              <path id="Trazado_69579" data-name="Trazado 69579" d="M62.115,311.225a2.611,2.611,0,0,0,1.218,2.022l22.7,13.1c.672.388,1.218.112,1.218-.617a2.612,2.612,0,0,0-1.218-2.022l-22.7-13.1C62.66,310.22,62.115,310.5,62.115,311.225Z" transform="translate(-59.83 -306.485)" fill="#37a3a5"/>
              <path id="Trazado_69580" data-name="Trazado 69580" d="M62.115,320.606a2.611,2.611,0,0,0,1.218,2.022l22.7,13.1c.672.388,1.218.112,1.218-.616a2.612,2.612,0,0,0-1.218-2.022l-22.7-13.1C62.66,319.6,62.115,319.878,62.115,320.606Z" transform="translate(-59.83 -310.589)" fill="#263238"/>
              <path id="Trazado_69581" data-name="Trazado 69581" d="M63.333,319.99l17.061,9.849v2.638l-17.061-9.849a2.611,2.611,0,0,1-1.218-2.022C62.115,319.878,62.66,319.6,63.333,319.99Z" transform="translate(-59.83 -310.589)" fill="#37a3a5"/>
            </g>
            <g id="Grupo_29212" data-name="Grupo 29212" transform="translate(42.269 34.254)">
              <path id="Trazado_69582" data-name="Trazado 69582" d="M127.362,202.567c1.262-.732,2.285-.066,2.285,1.488v60.337a5.239,5.239,0,0,1-2.285,4.137c-1.262.731-2.285.065-2.285-1.488V206.7A5.235,5.235,0,0,1,127.362,202.567Z" transform="translate(-125.077 -186.441)" fill="#37474f"/>
              <path id="Trazado_69583" data-name="Trazado 69583" d="M128.25,268.327a2.608,2.608,0,0,0,1.142-2.065V205.756c0-.777-.511-1.111-1.142-.747a2.611,2.611,0,0,0-1.142,2.066v60.506C127.108,268.357,127.62,268.691,128.25,268.327Z" transform="translate(-125.966 -187.575)" fill="#263238"/>
              <path id="Trazado_69584" data-name="Trazado 69584" d="M128.25,293.585a2.609,2.609,0,0,0,1.142-2.065V262.591l-2.285,1.319v28.929C127.108,293.616,127.62,293.95,128.25,293.585Z" transform="translate(-125.966 -212.833)" fill="#37a3a5"/>
              <path id="Trazado_69585" data-name="Trazado 69585" d="M139.548,195.531c1.262-.731,2.285-.065,2.285,1.488v60.337a5.237,5.237,0,0,1-2.285,4.137c-1.262.732-2.285.066-2.285-1.488V199.668A5.239,5.239,0,0,1,139.548,195.531Z" transform="translate(-130.409 -183.363)" fill="#37474f"/>
              <path id="Trazado_69586" data-name="Trazado 69586" d="M140.437,261.292a2.613,2.613,0,0,0,1.142-2.066V198.72c0-.777-.511-1.111-1.142-.747a2.611,2.611,0,0,0-1.142,2.066v60.506C139.295,261.322,139.806,261.656,140.437,261.292Z" transform="translate(-131.297 -184.497)" fill="#37a3a5"/>
              <path id="Trazado_69587" data-name="Trazado 69587" d="M151.734,188.5c1.262-.732,2.285-.065,2.285,1.488v60.337a5.237,5.237,0,0,1-2.285,4.137c-1.262.732-2.285.065-2.285-1.488V192.633A5.237,5.237,0,0,1,151.734,188.5Z" transform="translate(-135.74 -180.284)" fill="#37474f"/>
              <path id="Trazado_69588" data-name="Trazado 69588" d="M152.623,254.257a2.611,2.611,0,0,0,1.142-2.066V191.685c0-.777-.511-1.111-1.142-.746A2.612,2.612,0,0,0,151.48,193V253.51C151.481,254.286,151.992,254.621,152.623,254.257Z" transform="translate(-136.629 -181.419)" fill="#263238"/>
              <path id="Trazado_69589" data-name="Trazado 69589" d="M152.623,265.662a2.611,2.611,0,0,0,1.142-2.066V216.859l-2.285,1.319v46.737C151.481,265.692,151.992,266.026,152.623,265.662Z" transform="translate(-136.629 -192.824)" fill="#37a3a5"/>
              <path id="Trazado_69590" data-name="Trazado 69590" d="M163.921,181.461c1.262-.732,2.285-.066,2.285,1.488v60.337a5.237,5.237,0,0,1-2.285,4.137c-1.262.731-2.285.065-2.285-1.488V185.6A5.235,5.235,0,0,1,163.921,181.461Z" transform="translate(-141.073 -177.206)" fill="#37474f"/>
              <path id="Trazado_69591" data-name="Trazado 69591" d="M164.809,247.221a2.611,2.611,0,0,0,1.142-2.065V184.65c0-.777-.512-1.111-1.142-.747a2.612,2.612,0,0,0-1.143,2.066v60.506C163.667,247.251,164.178,247.585,164.809,247.221Z" transform="translate(-141.961 -178.34)" fill="#263238"/>
              <path id="Trazado_69592" data-name="Trazado 69592" d="M164.809,287.038a2.611,2.611,0,0,0,1.142-2.065V274.76l-2.285,1.319v10.212C163.667,287.068,164.178,287.4,164.809,287.038Z" transform="translate(-141.961 -218.157)" fill="#37a3a5"/>
              <path id="Trazado_69593" data-name="Trazado 69593" d="M176.107,174.425c1.262-.731,2.285-.065,2.285,1.488V236.25a5.237,5.237,0,0,1-2.285,4.137c-1.262.732-2.285.066-2.285-1.488V178.562A5.237,5.237,0,0,1,176.107,174.425Z" transform="translate(-146.404 -174.128)" fill="#37474f"/>
              <path id="Trazado_69594" data-name="Trazado 69594" d="M177,240.186a2.613,2.613,0,0,0,1.142-2.066V177.614c0-.776-.511-1.111-1.142-.746a2.611,2.611,0,0,0-1.142,2.065v60.507C175.854,240.216,176.365,240.55,177,240.186Z" transform="translate(-147.293 -175.262)" fill="#263238"/>
              <path id="Trazado_69595" data-name="Trazado 69595" d="M177,263.391a2.613,2.613,0,0,0,1.142-2.066V229.758l-2.285,1.319v31.568C175.854,263.421,176.365,263.756,177,263.391Z" transform="translate(-147.293 -198.468)" fill="#37a3a5"/>
            </g>
            <g id="Grupo_29215" data-name="Grupo 29215" transform="translate(42.269 106.207)">
              <path id="Trazado_69596" data-name="Trazado 69596" d="M126.052,319.527l30.039-17.343c.538-.31.974-.058.974.563v10.942a2.156,2.156,0,0,1-.974,1.687l-30.039,17.343c-.538.311-.974.059-.974-.562V321.214A2.152,2.152,0,0,1,126.052,319.527Z" transform="translate(-125.078 -302.051)" fill="#37474f"/>
              <g id="Grupo_29213" data-name="Grupo 29213" transform="translate(2.209 4.007)">
                <path id="Trazado_69597" data-name="Trazado 69597" d="M129.005,325.888c0,.728.546,1,1.218.616l25.132-14.515a2.611,2.611,0,0,0,1.218-2.022c0-.728-.545-1-1.217-.616l-25.134,14.515A2.611,2.611,0,0,0,129.005,325.888Z" transform="translate(-129.005 -309.175)" fill="#263238"/>
                <path id="Trazado_69598" data-name="Trazado 69598" d="M129.005,329.1c0,.728.546,1,1.218.615L148.5,319.16v-2.638L130.222,327.08A2.61,2.61,0,0,0,129.005,329.1Z" transform="translate(-129.005 -312.39)" fill="#37a3a5"/>
              </g>
              <g id="Grupo_29214" data-name="Grupo 29214" transform="translate(2.209 9.284)">
                <path id="Trazado_69599" data-name="Trazado 69599" d="M129.005,335.27c0,.728.546,1,1.218.616l25.132-14.515a2.611,2.611,0,0,0,1.218-2.022c0-.728-.545-1-1.217-.616l-25.134,14.515A2.609,2.609,0,0,0,129.005,335.27Z" transform="translate(-129.005 -318.556)" fill="#263238"/>
                <path id="Trazado_69600" data-name="Trazado 69600" d="M129.005,343.618c0,.728.546,1,1.218.616l6.854-3.958v-2.638l-6.855,3.958A2.609,2.609,0,0,0,129.005,343.618Z" transform="translate(-129.005 -326.905)" fill="#37a3a5"/>
              </g>
            </g>
            <path id="Trazado_69601" data-name="Trazado 69601" d="M126.949,134.54,90.543,113.521a2.694,2.694,0,0,0-2.436,0L51.7,134.54a.742.742,0,0,0,0,1.406l36.407,21.019a2.693,2.693,0,0,0,2.436,0l36.405-21.019A.742.742,0,0,0,126.949,134.54Z" transform="translate(-50.484 -113.23)" fill="url(#linear-gradient)"/>
          </g>
          <g id="Grupo_29217" data-name="Grupo 29217" transform="translate(9.139 2.584)">
            <path id="Trazado_69602" data-name="Trazado 69602" d="M95.149,153.893,66.908,137.588a1.616,1.616,0,0,1-.731-1.266v-.951a1.614,1.614,0,0,1,.731-1.266L95.148,117.8a1.617,1.617,0,0,1,1.462,0l28.241,16.306a1.613,1.613,0,0,1,.731,1.266v.951a1.614,1.614,0,0,1-.731,1.266L96.61,153.893A1.616,1.616,0,0,1,95.149,153.893Z" transform="translate(-66.176 -117.627)" fill="#263238"/>
            <path id="Trazado_69603" data-name="Trazado 69603" d="M67.24,135.388l28.241,16.305a1.612,1.612,0,0,0,1.461,0l28.241-16.3a.445.445,0,0,0,0-.844L96.943,118.8a1.617,1.617,0,0,0-1.462,0L67.24,134.544A.445.445,0,0,0,67.24,135.388Z" transform="translate(-66.509 -118.064)" fill="url(#linear-gradient)"/>
            <path id="Trazado_69604" data-name="Trazado 69604" d="M95.88,164.321v2.638a1.48,1.48,0,0,1-.731-.174L66.907,150.478a1.607,1.607,0,0,1-.731-1.266v-.951a1.624,1.624,0,0,1,.6-1.17c-.264.231-.219.546.135.748l28.242,16.306A1.48,1.48,0,0,0,95.88,164.321Z" transform="translate(-66.176 -130.518)" fill="#37474f"/>
          </g>
          <g id="Grupo_29220" data-name="Grupo 29220" transform="translate(18.278)">
            <path id="Trazado_69605" data-name="Trazado 69605" d="M102.258,143.968l-19.1-11.028a1.615,1.615,0,0,1-.731-1.266v-.951a1.616,1.616,0,0,1,.731-1.266L95.4,122.387a4.853,4.853,0,0,0,1.234-1.1l5.849-7.88a.97.97,0,0,1,1.234-.255l19.1,11.028a1.615,1.615,0,0,1,.731,1.266v6.228a1.615,1.615,0,0,1-.731,1.266l-19.1,11.028A1.612,1.612,0,0,1,102.258,143.968Z" transform="translate(-82.425 -113.032)" fill="#263238"/>
            <path id="Trazado_69606" data-name="Trazado 69606" d="M104.052,141.33l12.247-7.071a4.282,4.282,0,0,0,.639-.475,4.374,4.374,0,0,0,.595-.625l5.849-7.879a.734.734,0,0,0-.228-1.1l-19.1-11.028a.97.97,0,0,0-1.234.255l-5.849,7.88a4.606,4.606,0,0,1-1.132,1.143l-12.349,7.026a.445.445,0,0,0,0,.844l19.1,11.028A1.616,1.616,0,0,0,104.052,141.33Z" transform="translate(-82.758 -113.032)" fill="#455a64"/>
            <path id="Trazado_69607" data-name="Trazado 69607" d="M133.411,124.181l-19.1-11.028a.97.97,0,0,0-1.234.255l-5.849,7.88a4.314,4.314,0,0,1-.6.622s20.56,11.878,20.566,11.873a4.379,4.379,0,0,0,.6-.623l5.849-7.879A.735.735,0,0,0,133.411,124.181Z" transform="translate(-93.014 -113.032)" fill="#37474f"/>
            <g id="Grupo_29218" data-name="Grupo 29218" transform="translate(5.011 11.964)">
              <path id="Trazado_69608" data-name="Trazado 69608" d="M91.688,142.42a1.893,1.893,0,0,1,1.714,0,.522.522,0,0,1,0,.989,1.893,1.893,0,0,1-1.714,0A.522.522,0,0,1,91.688,142.42Z" transform="translate(-91.333 -137.764)" fill="#57cc98"/>
              <path id="Trazado_69609" data-name="Trazado 69609" d="M97.781,145.938a1.892,1.892,0,0,1,1.713,0,.522.522,0,0,1,0,.989,1.892,1.892,0,0,1-1.713,0A.522.522,0,0,1,97.781,145.938Z" transform="translate(-93.999 -139.303)" fill="#57cc98"/>
              <path id="Trazado_69610" data-name="Trazado 69610" d="M103.874,149.455a1.9,1.9,0,0,1,1.713,0,.522.522,0,0,1,0,.989,1.892,1.892,0,0,1-1.713,0A.522.522,0,0,1,103.874,149.455Z" transform="translate(-96.665 -140.842)" fill="#263238"/>
              <path id="Trazado_69611" data-name="Trazado 69611" d="M109.967,152.973a1.892,1.892,0,0,1,1.713,0,.522.522,0,0,1,0,.989,1.892,1.892,0,0,1-1.713,0A.522.522,0,0,1,109.967,152.973Z" transform="translate(-99.33 -142.381)" fill="#263238"/>
              <path id="Trazado_69612" data-name="Trazado 69612" d="M96.257,139.782a1.893,1.893,0,0,1,1.714,0,.522.522,0,0,1,0,.989,1.893,1.893,0,0,1-1.714,0A.522.522,0,0,1,96.257,139.782Z" transform="translate(-93.332 -136.61)" fill="#57cc98"/>
              <ellipse id="Elipse_3376" data-name="Elipse 3376" cx="1.212" cy="0.7" rx="1.212" ry="0.7" transform="translate(5.997 4.945)" fill="#263238"/>
              <path id="Trazado_69613" data-name="Trazado 69613" d="M108.443,146.817a1.893,1.893,0,0,1,1.714,0,.522.522,0,0,1,0,.989,1.893,1.893,0,0,1-1.714,0A.522.522,0,0,1,108.443,146.817Z" transform="translate(-98.664 -139.688)" fill="#57cc98"/>
              <ellipse id="Elipse_3377" data-name="Elipse 3377" cx="1.212" cy="0.7" rx="1.212" ry="0.7" transform="translate(12.851 8.902)" fill="#263238"/>
              <path id="Trazado_69614" data-name="Trazado 69614" d="M100.827,137.143a1.893,1.893,0,0,1,1.714,0,.522.522,0,0,1,0,.989,1.893,1.893,0,0,1-1.714,0A.522.522,0,0,1,100.827,137.143Z" transform="translate(-95.332 -135.455)" fill="#263238"/>
              <path id="Trazado_69615" data-name="Trazado 69615" d="M106.92,140.661a1.893,1.893,0,0,1,1.714,0,.522.522,0,0,1,0,.989,1.893,1.893,0,0,1-1.714,0A.522.522,0,0,1,106.92,140.661Z" transform="translate(-97.998 -136.995)" fill="#57cc98"/>
              <path id="Trazado_69616" data-name="Trazado 69616" d="M113.013,144.179a1.892,1.892,0,0,1,1.713,0,.522.522,0,0,1,0,.989,1.892,1.892,0,0,1-1.713,0A.522.522,0,0,1,113.013,144.179Z" transform="translate(-100.664 -138.534)" fill="#263238"/>
              <path id="Trazado_69617" data-name="Trazado 69617" d="M116.094,156.42a1.9,1.9,0,0,1,1.713,0,.522.522,0,0,1,0,.989,1.892,1.892,0,0,1-1.713,0A.522.522,0,0,1,116.094,156.42Z" transform="translate(-102.012 -143.89)" fill="#57cc98"/>
              <path id="Trazado_69618" data-name="Trazado 69618" d="M120.663,153.782a1.893,1.893,0,0,1,1.714,0,.522.522,0,0,1,0,.989,1.894,1.894,0,0,1-1.714,0A.522.522,0,0,1,120.663,153.782Z" transform="translate(-104.011 -142.735)" fill="#263238"/>
              <path id="Trazado_69619" data-name="Trazado 69619" d="M119.106,147.7a1.892,1.892,0,0,1,1.713,0,.522.522,0,0,1,0,.989,1.892,1.892,0,0,1-1.713,0A.522.522,0,0,1,119.106,147.7Z" transform="translate(-103.329 -140.074)" fill="#263238"/>
              <ellipse id="Elipse_3378" data-name="Elipse 3378" cx="1.212" cy="0.7" rx="1.212" ry="0.7" transform="translate(7.711)" fill="#57cc98"/>
              <path id="Trazado_69620" data-name="Trazado 69620" d="M111.489,138.025a1.9,1.9,0,0,1,1.714,0,.522.522,0,0,1,0,.989,1.893,1.893,0,0,1-1.714,0A.522.522,0,0,1,111.489,138.025Z" transform="translate(-99.997 -135.842)" fill="#263238"/>
              <ellipse id="Elipse_3379" data-name="Elipse 3379" cx="1.212" cy="0.7" rx="1.212" ry="0.7" transform="translate(14.565 3.957)" fill="#57cc98"/>
              <path id="Trazado_69621" data-name="Trazado 69621" d="M123.675,145.061a1.893,1.893,0,0,1,1.714,0,.522.522,0,0,1,0,.989,1.9,1.9,0,0,1-1.714,0A.522.522,0,0,1,123.675,145.061Z" transform="translate(-105.328 -138.92)" fill="#263238"/>
              <path id="Trazado_69622" data-name="Trazado 69622" d="M125.233,151.147a1.892,1.892,0,0,1,1.713,0,.522.522,0,0,1,0,.989,1.892,1.892,0,0,1-1.713,0A.522.522,0,0,1,125.233,151.147Z" transform="translate(-106.01 -141.582)" fill="#57cc98"/>
              <ellipse id="Elipse_3380" data-name="Elipse 3380" cx="1.212" cy="0.7" rx="1.212" ry="0.7" transform="translate(21.438 7.875)" fill="#263238"/>
            </g>
            <path id="Trazado_69623" data-name="Trazado 69623" d="M103.029,154.355v2.632a1.51,1.51,0,0,1-.771-.169l-19.1-11.03a1.607,1.607,0,0,1-.731-1.266v-.951a1.624,1.624,0,0,1,.6-1.17c-.264.231-.219.546.135.748l19.1,11.03A1.513,1.513,0,0,0,103.029,154.355Z" transform="translate(-82.425 -125.882)" fill="#37474f"/>
            <g id="Grupo_29219" data-name="Grupo 29219" transform="translate(16.634 2.119)">
              <path id="Trazado_69624" data-name="Trazado 69624" d="M112.1,126.911l.017-.023a.645.645,0,0,1,.821-.171l16.623,9.6a.488.488,0,0,1,.151.732l-.017.023a.648.648,0,0,1-.823.17l-16.619-9.6A.491.491,0,0,1,112.1,126.911Z" transform="translate(-111.998 -121.103)" fill="#263238"/>
              <path id="Trazado_69625" data-name="Trazado 69625" d="M112.1,126.911l.017-.023a.645.645,0,0,1,.821-.171l12.359,7.135-.69.925-12.355-7.133A.491.491,0,0,1,112.1,126.911Z" transform="translate(-111.998 -121.103)" fill="#37a3a5"/>
              <path id="Trazado_69626" data-name="Trazado 69626" d="M114.545,123.632l.017-.023a.645.645,0,0,1,.821-.171l16.623,9.6a.488.488,0,0,1,.151.732l-.017.023a.648.648,0,0,1-.823.17l-16.619-9.6A.491.491,0,0,1,114.545,123.632Z" transform="translate(-113.067 -119.668)" fill="#263238"/>
              <path id="Trazado_69627" data-name="Trazado 69627" d="M114.545,123.632l.017-.023a.645.645,0,0,1,.821-.171l4.132,2.384-.69.925-4.127-2.382A.491.491,0,0,1,114.545,123.632Z" transform="translate(-113.067 -119.668)" fill="#37a3a5"/>
              <path id="Trazado_69628" data-name="Trazado 69628" d="M116.988,120.353l.017-.023a.645.645,0,0,1,.821-.171l16.623,9.6a.489.489,0,0,1,.151.732l-.017.023a.648.648,0,0,1-.823.17l-16.618-9.6A.491.491,0,0,1,116.988,120.353Z" transform="translate(-114.136 -118.234)" fill="#263238"/>
              <path id="Trazado_69629" data-name="Trazado 69629" d="M116.988,120.352l.017-.023a.645.645,0,0,1,.822-.172l8.658,4.983-.69.925-8.654-4.981A.49.49,0,0,1,116.988,120.352Z" transform="translate(-114.136 -118.234)" fill="#37a3a5"/>
              <path id="Trazado_69630" data-name="Trazado 69630" d="M119.431,117.074l.017-.023a.645.645,0,0,1,.821-.171l16.623,9.6a.489.489,0,0,1,.151.732l-.017.023a.648.648,0,0,1-.823.17l-16.618-9.6A.491.491,0,0,1,119.431,117.074Z" transform="translate(-115.205 -116.799)" fill="#263238"/>
              <path id="Trazado_69631" data-name="Trazado 69631" d="M119.431,117.074l.017-.023a.645.645,0,0,1,.821-.171l15.089,8.712-.69.925-15.085-8.709A.491.491,0,0,1,119.431,117.074Z" transform="translate(-115.205 -116.799)" fill="#37a3a5"/>
            </g>
          </g>
        </g>
      </g>
      <g id="Desk" transform="translate(113.325 89.299)">
        <g id="Desk-2" data-name="Desk" transform="translate(0 0)">
          <g id="Desk-3" data-name="Desk" transform="translate(0 20.605)">
            <g id="Grupo_29223" data-name="Grupo 29223" transform="translate(2.879 38.038)">
              <g id="Grupo_29221" data-name="Grupo 29221">
                <path id="Trazado_69632" data-name="Trazado 69632" d="M256.523,308.474v30.805a.807.807,0,0,0,.366.633l29.528,17.027a.809.809,0,0,0,.731,0l.983-.568a.808.808,0,0,0,.365-.633V324.933a.422.422,0,0,0-.422-.422l-31.129-16.459A.422.422,0,0,0,256.523,308.474Z" transform="translate(-256.523 -308.052)" fill="#fafafa"/>
              </g>
              <g id="Grupo_29222" data-name="Grupo 29222" transform="translate(30.258 16.459)">
                <path id="Trazado_69633" data-name="Trazado 69633" d="M311.61,337.314h-.87a.422.422,0,0,0-.422.422V369.53c0,.233.164.327.366.211l.983-.568a.808.808,0,0,0,.365-.633V337.736A.422.422,0,0,0,311.61,337.314Z" transform="translate(-310.318 -337.314)" fill="#f5f5f5"/>
              </g>
            </g>
            <g id="Grupo_29226" data-name="Grupo 29226" transform="translate(61.683 2.74)">
              <g id="Grupo_29224" data-name="Grupo 29224">
                <path id="Trazado_69634" data-name="Trazado 69634" d="M361.068,245.718v30.805a.807.807,0,0,0,.366.632l30.694,17.707a.808.808,0,0,0,.731,0l.983-.568a.808.808,0,0,0,.366-.633V262.857a.422.422,0,0,0-.422-.422L361.49,245.3A.422.422,0,0,0,361.068,245.718Z" transform="translate(-361.068 -245.296)" fill="#e0e0e0"/>
              </g>
              <g id="Grupo_29225" data-name="Grupo 29225" transform="translate(31.424 17.139)">
                <path id="Trazado_69635" data-name="Trazado 69635" d="M418.228,275.766h-.87a.422.422,0,0,0-.422.422v31.794c0,.233.164.327.366.211l.983-.568a.807.807,0,0,0,.366-.633V276.188A.422.422,0,0,0,418.228,275.766Z" transform="translate(-416.936 -275.766)" fill="#ebebeb"/>
              </g>
            </g>
            <g id="Grupo_29230" data-name="Grupo 29230">
              <g id="Grupo_29227" data-name="Grupo 29227">
                <path id="Trazado_69636" data-name="Trazado 69636" d="M251.4,277.919v-.291a1.615,1.615,0,0,1,.731-1.266L314.077,240.6a1.616,1.616,0,0,1,1.461,0l32.811,18.943a1.616,1.616,0,0,1,.731,1.266v.291a1.615,1.615,0,0,1-.731,1.266l-61.942,35.762a1.615,1.615,0,0,1-1.461,0l-32.811-18.943A1.615,1.615,0,0,1,251.4,277.919Z" transform="translate(-251.404 -240.426)" fill="#f5f5f5"/>
              </g>
              <g id="Grupo_29228" data-name="Grupo 29228" transform="translate(0.001 36.033)">
                <path id="Trazado_69637" data-name="Trazado 69637" d="M285.677,324.354v1.98a1.544,1.544,0,0,1-.731-.174l-32.809-18.944a1.616,1.616,0,0,1-.731-1.266v-.293a1.614,1.614,0,0,1,.6-1.17c-.264.225-.219.54.135.748l32.809,18.944A1.48,1.48,0,0,0,285.677,324.354Z" transform="translate(-251.405 -304.487)" fill="#ebebeb"/>
              </g>
              <g id="Grupo_29229" data-name="Grupo 29229" transform="translate(0.428)">
                <path id="Trazado_69638" data-name="Trazado 69638" d="M252.468,277.206l32.811,18.943a1.616,1.616,0,0,0,1.461,0l61.942-35.762a.445.445,0,0,0,0-.844L315.871,240.6a1.616,1.616,0,0,0-1.461,0l-61.942,35.762A.445.445,0,0,0,252.468,277.206Z" transform="translate(-252.165 -240.426)" fill="#fafafa"/>
              </g>
              <path id="Trazado_69639" data-name="Trazado 69639" d="M346.526,273.844l18.55-10.731a1.328,1.328,0,0,1,1.2,0l5.873,3.43a.366.366,0,0,1,0,.693L353.6,277.967a1.328,1.328,0,0,1-1.2,0l-5.873-3.43A.366.366,0,0,1,346.526,273.844Z" transform="translate(-292.914 -250.289)" fill="#ebebeb"/>
              <path id="Trazado_69640" data-name="Trazado 69640" d="M341.407,261.617l-.017-.009-1.965-1.137a.3.3,0,0,1,0-.562l15.414-8.9a.3.3,0,0,0,0-.562l-.157-.091a1.077,1.077,0,0,0-.974,0L338.729,259c-.269.155-.519.169-.527.027a1.084,1.084,0,0,1,.016-.257l.85-4.4a.84.84,0,0,0-.382-.831l-.154-.088a.377.377,0,0,0-.594.273l-.98,5.106a1.708,1.708,0,0,0-.009.567.819.819,0,0,1-.334.821l-9.35,5.4a.3.3,0,0,0,0,.562l.159.092a1.073,1.073,0,0,0,.974,0l8.935-5.16a2.137,2.137,0,0,1,.525-.254.287.287,0,0,0,.038.026l3.039,1.755a1.08,1.08,0,0,0,.975,0l6.358-3.661c.269-.155.358-.354.2-.444a1.033,1.033,0,0,0-.8.081l-5.739,2.762A5.736,5.736,0,0,1,341.407,261.617Z" transform="translate(-284.507 -244.719)" fill="#ebebeb"/>
            </g>
          </g>
          <g id="Device" transform="translate(42.278)">
            <g id="Keyboard" transform="translate(11.261 31.864)">
              <path id="Trazado_69641" data-name="Trazado 69641" d="M366.333,260.587l5.556,3.208a1.127,1.127,0,0,1,0,1.993l-17.943,10.36a1.327,1.327,0,0,1-1.2,0l-5.556-3.208a1.127,1.127,0,0,1,0-1.993l17.943-10.36A1.324,1.324,0,0,1,366.333,260.587Z" transform="translate(-346.589 -260.443)" fill="#37474f"/>
              <path id="Trazado_69642" data-name="Trazado 69642" d="M353.346,284.2a1.227,1.227,0,0,1-.6-.143l-5.556-3.208a1.127,1.127,0,0,1,0-1.993l.577-.334h5.579Z" transform="translate(-346.589 -268.354)" fill="#263238"/>
              <path id="Trazado_69643" data-name="Trazado 69643" d="M347.457,270.947,365.4,260.587a1.328,1.328,0,0,1,1.2,0l5.557,3.208a.366.366,0,0,1,0,.693l-17.943,10.36a1.327,1.327,0,0,1-1.2,0l-5.557-3.208A.366.366,0,0,1,347.457,270.947Z" transform="translate(-346.86 -260.444)" fill="#455a64"/>
              <path id="Trazado_69644" data-name="Trazado 69644" d="M364.535,265.847l.565-.326c.024-.014.023-.037,0-.052l-.654-.377a.1.1,0,0,0-.09,0l-.565.326c-.024.013-.022.037,0,.052l.654.377A.1.1,0,0,0,364.535,265.847Zm-1.115-1.3-.565.326c-.024.013-.022.037,0,.052l.653.377a.1.1,0,0,0,.091,0l.565-.326c.024-.014.022-.037,0-.052l-.653-.377A.1.1,0,0,0,363.42,264.551ZM361.6,265.6l-.956.552c-.024.013-.022.037,0,.052l.653.377a.1.1,0,0,0,.09,0l.956-.552c.024-.014.023-.037,0-.052l-.653-.377A.1.1,0,0,0,361.6,265.6Zm1-.577-.565.326c-.024.014-.022.037,0,.052l.653.377a.1.1,0,0,0,.091,0l.565-.326c.024-.014.022-.037,0-.052l-.653-.377A.1.1,0,0,0,362.595,265.027Zm-2.217,1.28-.565.326c-.024.014-.023.037,0,.052l.653.377a.1.1,0,0,0,.09,0l.565-.326c.024-.014.023-.037,0-.052l-.654-.377A.1.1,0,0,0,360.378,266.307Zm-.826.477-.565.326c-.024.014-.022.037,0,.052l.654.377a.1.1,0,0,0,.09,0l.565-.326c.024-.014.023-.037,0-.052l-.654-.377A.1.1,0,0,0,359.552,266.784Zm2.57,1.534.565-.326c.024-.014.022-.037,0-.052l-.654-.377a.1.1,0,0,0-.09,0l-.565.326c-.024.014-.023.037,0,.052l.654.377A.1.1,0,0,0,362.122,268.318Zm-.826.476.565-.326c.024-.013.023-.037,0-.052l-.653-.378a.1.1,0,0,0-.09,0l-.565.326c-.024.014-.022.037,0,.052l.653.377A.1.1,0,0,0,361.3,268.794Zm-.826.477.565-.326c.024-.014.022-.037,0-.052l-.654-.377a.1.1,0,0,0-.09,0l-.565.326c-.024.014-.022.037,0,.052l.654.377A.1.1,0,0,0,360.471,269.271Zm-.826.476.565-.326c.024-.013.022-.037,0-.052l-.653-.378a.1.1,0,0,0-.09,0l-.565.326c-.024.014-.022.037,0,.052l.654.377A.1.1,0,0,0,359.645,269.748Zm4.064-3.424.565-.326c.024-.014.022-.037,0-.052l-.654-.377a.1.1,0,0,0-.09,0l-.565.326c-.024.014-.023.037,0,.052l.654.377A.1.1,0,0,0,363.71,266.323Zm-.762,1.518,1.26-.727c.024-.014.023-.037,0-.052l-1.587-.916a.1.1,0,0,0-.09,0l-.652.376c-.024.014-.022.037,0,.052l.84.485c.026.015.027.038,0,.052l-.521.3c-.024.013-.022.037,0,.052l.654.377A.1.1,0,0,0,362.948,267.841Zm-4.221-.58-.565.326c-.024.014-.022.037,0,.052l.653.377a.1.1,0,0,0,.09,0l.565-.326c.024-.014.023-.037,0-.052l-.653-.377A.1.1,0,0,0,358.727,267.26Zm-.826.477-.565.326c-.024.014-.023.037,0,.052l.653.377a.1.1,0,0,0,.09,0l.565-.326c.024-.013.023-.037,0-.052l-.654-.377A.1.1,0,0,0,357.9,267.737Zm-4.126,5.346a.1.1,0,0,0,.09,0l.565-.326c.024-.014.022-.037,0-.052l-.653-.377a.1.1,0,0,0-.09,0l-.565.326c-.024.014-.022.037,0,.052Zm-2.48-1.532-.565.326c-.024.014-.023.037,0,.052l.653.377a.1.1,0,0,0,.09,0l.565-.326c.024-.014.023-.037,0-.052l-.653-.377A.1.1,0,0,0,351.3,271.551Zm1.329,1.119a.1.1,0,0,0,.09,0l.565-.326c.024-.014.022-.037,0-.052l-.654-.377a.1.1,0,0,0-.09,0l-.565.326c-.024.014-.022.037,0,.052Zm2.609.7.565-.326c.024-.014.022-.037,0-.052l-.653-.377a.1.1,0,0,0-.09,0l-.565.326c-.024.014-.022.037,0,.052l.653.377A.1.1,0,0,0,355.233,273.373Zm-.916.475a.1.1,0,0,0,.091,0l.565-.326c.024-.014.022-.037,0-.052l-.653-.377a.1.1,0,0,0-.09,0l-.565.326c-.024.014-.022.037,0,.052Zm-2.2-2.773-.565.326c-.024.013-.022.037,0,.052l.653.377a.1.1,0,0,0,.09,0l.565-.326c.024-.014.023-.037,0-.052l-.654-.377A.1.1,0,0,0,352.121,271.075Zm4.129-2.384-.565.326c-.024.014-.023.037,0,.052l.653.377a.1.1,0,0,0,.09,0l.565-.326c.024-.014.022-.037,0-.052l-.654-.377A.1.1,0,0,0,356.249,268.691Zm-3.3,1.907-.565.326c-.024.014-.022.037,0,.052l.653.377a.1.1,0,0,0,.09,0l.565-.326c.024-.014.022-.037,0-.052l-.653-.377A.1.1,0,0,0,352.947,270.6Zm4.129-2.384-.565.327c-.024.014-.023.037,0,.052l.653.377a.1.1,0,0,0,.09,0l.565-.326c.024-.014.022-.037,0-.052l-.653-.377A.1.1,0,0,0,357.075,268.214Zm-1.651.954-.565.326c-.024.014-.022.037,0,.052l.654.377a.1.1,0,0,0,.09,0l.565-.326c.024-.014.022-.037,0-.052l-.654-.377A.1.1,0,0,0,355.424,269.168Zm-.826.476-.565.326c-.024.014-.023.037,0,.052l.653.377a.1.1,0,0,0,.09,0l.565-.326c.024-.014.022-.037,0-.052l-.653-.377A.1.1,0,0,0,354.6,269.644Zm-.826.477-.565.326c-.024.013-.022.037,0,.052l.654.377a.1.1,0,0,0,.09,0l.565-.326c.024-.014.022-.037,0-.052l-.653-.377A.1.1,0,0,0,353.772,270.121Zm4.221.58.565-.326c.024-.014.023-.038,0-.052l-.654-.377a.1.1,0,0,0-.09,0l-.565.326c-.024.014-.022.037,0,.052l.654.377A.1.1,0,0,0,357.994,270.7Zm7.252-7.2-.565.326c-.024.014-.022.037,0,.052l.654.377a.1.1,0,0,0,.09,0l.565-.326c.024-.014.023-.037,0-.052l-.653-.377A.1.1,0,0,0,365.246,263.5Zm-1,.577-.565.326c-.024.014-.022.037,0,.052l.653.377a.1.1,0,0,0,.091,0l.565-.326c.024-.014.022-.038,0-.052l-.653-.377A.1.1,0,0,0,364.246,264.074Zm1.825-1.054-.565.326c-.024.014-.023.037,0,.052l.653.377a.1.1,0,0,0,.091,0l.565-.326c.024-.014.023-.037,0-.052l-.653-.377A.1.1,0,0,0,366.071,263.02Zm-4.274,4.407.565-.326c.024-.013.022-.037,0-.052l-.653-.377a.1.1,0,0,0-.091,0l-.565.326c-.024.014-.022.037,0,.052l.653.377A.1.1,0,0,0,361.8,267.428Zm5.19-4.882a.1.1,0,0,0-.09,0l-.565.326c-.024.014-.022.037,0,.052l.654.377a.1.1,0,0,0,.09,0l.565-.326c.024-.013.022-.037,0-.052Zm-8.168,7.679.565-.326c.024-.014.023-.037,0-.052l-.653-.377a.1.1,0,0,0-.09,0l-.565.326c-.024.013-.023.037,0,.052l.653.377A.1.1,0,0,0,358.819,270.225Zm10.126-5.846.565-.326c.024-.013.022-.037,0-.052l-.654-.377a.1.1,0,0,0-.09,0l-.565.326c-.024.014-.022.037,0,.052l.654.377A.1.1,0,0,0,368.945,264.378Zm-1.759-.062.565-.326c.024-.014.022-.037,0-.052l-.654-.377a.1.1,0,0,0-.09,0l-.565.326c-.024.014-.023.038,0,.052l.654.377A.1.1,0,0,0,367.186,264.316Zm.734-1.232a.1.1,0,0,0-.09,0l-.565.326c-.024.014-.023.037,0,.052l.654.377a.1.1,0,0,0,.09,0l.565-.326c.024-.013.022-.037,0-.052Zm.174-.1,1.587.916a.1.1,0,0,0,.09,0l.565-.326c.024-.014.023-.037,0-.052l-1.587-.916a.1.1,0,0,0-.09,0l-.565.326C368.067,262.946,368.068,262.969,368.094,262.984Zm-1.915,1.052-.565.326c-.024.014-.023.037,0,.052l.654.377a.1.1,0,0,0,.09,0l.565-.326c.024-.014.023-.038,0-.052l-.654-.377A.1.1,0,0,0,366.179,264.036Zm-6.215,3.588-.565.326c-.024.014-.023.037,0,.052l.653.377a.1.1,0,0,0,.09,0l.565-.326c.024-.014.023-.038,0-.052l-.653-.377A.1.1,0,0,0,359.964,267.624Zm8.065-2.77a.1.1,0,0,0,.09,0l.565-.326c.024-.014.023-.037,0-.052l-.654-.377a.1.1,0,0,0-.09,0l-.565.326c-.024.013-.022.037,0,.052Zm-7.24,2.294-.565.326c-.024.014-.023.038,0,.052l.653.377a.1.1,0,0,0,.09,0l.565-.326c.024-.014.022-.037,0-.052l-.653-.377A.1.1,0,0,0,360.79,267.147Zm-6.19,5.459a.1.1,0,0,0,.091,0l.565-.326c.024-.014.022-.037,0-.052l-.653-.377a.1.1,0,0,0-.09,0l-.565.326c-.024.014-.022.037,0,.052Zm-1.242-1.168-.565.326c-.024.013-.022.037,0,.052l.653.377a.1.1,0,0,0,.09,0l.565-.326c.024-.014.023-.037,0-.052l-.653-.377A.1.1,0,0,0,353.358,271.438Zm2.158.694.565-.326c.024-.013.022-.037,0-.052l-.653-.377a.1.1,0,0,0-.09,0l-.565.326c-.024.014-.022.037,0,.052l.654.377A.1.1,0,0,0,355.517,272.131Zm.826-.476.565-.326c.024-.014.023-.037,0-.052l-.654-.377a.1.1,0,0,0-.09,0l-.565.326c-.024.014-.022.037,0,.052l.654.377A.1.1,0,0,0,356.342,271.655Zm.826-.477.565-.326c.024-.014.022-.037,0-.052l-.654-.377a.1.1,0,0,0-.09,0l-.565.326c-.024.014-.022.037,0,.052l.653.377A.1.1,0,0,0,357.168,271.178Zm-2.984-.217-.565.326c-.024.014-.022.037,0,.052l.654.377a.1.1,0,0,0,.09,0l.565-.326c.024-.013.023-.037,0-.052l-.653-.377A.1.1,0,0,0,354.184,270.961Zm.826-.477-.565.326c-.024.014-.022.037,0,.052l.653.377a.1.1,0,0,0,.09,0l.565-.326c.024-.014.022-.037,0-.052l-.654-.377A.1.1,0,0,0,355.01,270.484Zm3.3-1.907-.565.326c-.024.014-.023.037,0,.052l.653.377a.1.1,0,0,0,.09,0l.565-.326c.024-.014.022-.037,0-.052l-.654-.377A.1.1,0,0,0,358.313,268.577Zm-.826.477-.565.326c-.024.014-.022.037,0,.052l.653.377a.1.1,0,0,0,.09,0l.565-.326c.024-.014.022-.037,0-.052l-.653-.377A.1.1,0,0,0,357.487,269.054Zm1.651-.953-.565.326c-.024.014-.022.037,0,.052l.653.377a.1.1,0,0,0,.09,0l.565-.326c.024-.014.022-.037,0-.052l-.653-.377A.1.1,0,0,0,359.138,268.1Zm-3.3,1.907-.565.326c-.024.013-.022.037,0,.052l.653.377a.1.1,0,0,0,.09,0l.565-.326c.024-.014.022-.037,0-.052l-.653-.377A.1.1,0,0,0,355.835,270.008Zm.826-.477-.565.326c-.024.014-.022.037,0,.052l.653.377a.1.1,0,0,0,.09,0l.565-.326c.024-.014.022-.037,0-.052l-.654-.377A.1.1,0,0,0,356.661,269.531Zm-.6,3.366.565-.326c.024-.014.023-.037,0-.052l-.653-.377a.1.1,0,0,0-.09,0l-.565.326c-.024.014-.023.037,0,.052l.653.377A.1.1,0,0,0,356.058,272.9Zm-4.845-.489-.654-.377a.1.1,0,0,0-.09,0l-.565.326c-.024.013-.022.037,0,.052l.653.377a.1.1,0,0,0,.09,0l.565-.326C351.24,272.445,351.239,272.422,351.213,272.407Zm1.237.363-.653-.377a.1.1,0,0,0-.091,0l-.869.5c-.024.014-.022.037,0,.052l.653.377a.1.1,0,0,0,.09,0l.87-.5C352.478,272.808,352.476,272.785,352.45,272.77Zm-2.24-1.093-.653-.377a.1.1,0,0,0-.091,0l-.7.4c-.024.014-.022.037,0,.052l.653.377a.1.1,0,0,0,.09,0l.7-.4C350.238,271.716,350.237,271.693,350.211,271.678Zm.533-.308a.1.1,0,0,0,.09,0l.565-.326c.024-.014.023-.037,0-.052l-.654-.377a.1.1,0,0,0-.09,0l-.565.326c-.024.014-.023.037,0,.052Zm2.857,1.813-.653-.377a.1.1,0,0,0-.09,0l-1.087.627c-.024.014-.023.037,0,.052l.653.377a.1.1,0,0,0,.09,0l1.087-.627C353.628,273.222,353.627,273.2,353.6,273.183Zm.542.765-.653-.377a.1.1,0,0,0-.09,0l-.7.4c-.024.013-.022.037,0,.052l.653.377a.1.1,0,0,0,.091,0l.7-.4C354.171,273.987,354.169,273.963,354.143,273.948Zm2.74-6.122a.1.1,0,0,0,.09,0l.565-.326c.024-.014.022-.037,0-.052l-.653-.377a.1.1,0,0,0-.09,0l-.565.326c-.024.014-.023.037,0,.052Zm-1.651.953a.1.1,0,0,0,.09,0l.565-.326c.024-.014.023-.037,0-.052l-.653-.377a.1.1,0,0,0-.09,0l-.565.326c-.024.013-.022.037,0,.052Zm-3.662,2.114a.1.1,0,0,0,.09,0l.565-.326c.024-.014.023-.037,0-.052l-.654-.377a.1.1,0,0,0-.09,0l-.565.326c-.024.013-.023.037,0,.052Zm4.487-2.591a.1.1,0,0,0,.091,0l.565-.326c.024-.014.022-.038,0-.052l-.653-.377a.1.1,0,0,0-.09,0l-.565.326c-.024.014-.022.037,0,.052Zm-1.651.953a.1.1,0,0,0,.091,0l.565-.326c.024-.014.023-.037,0-.052l-.653-.377a.1.1,0,0,0-.09,0l-.565.326c-.024.014-.023.037,0,.052Zm.191,4.754a.1.1,0,0,0-.09,0l-.869.5c-.024.013-.022.037,0,.052l.654.377a.1.1,0,0,0,.09,0l.869-.5c.024-.014.023-.037,0-.052Zm-1.376-4.07a.1.1,0,0,0,.09,0l.565-.326c.024-.014.022-.037,0-.052l-.654-.377a.1.1,0,0,0-.09,0l-.565.326c-.024.014-.023.037,0,.052Zm-.826.477a.1.1,0,0,0,.09,0l.565-.326c.024-.013.023-.037,0-.052l-.654-.377a.1.1,0,0,0-.09,0l-.565.326c-.024.014-.022.037,0,.052Zm17.5-5.239a.1.1,0,0,0-.091,0l-1.39.8c-.024.013-.022.037,0,.052l.653.377a.1.1,0,0,0,.09,0l1.391-.8c.024-.014.023-.037,0-.052Zm-1.825,1.053a.1.1,0,0,0-.09,0l-.565.326c-.024.013-.022.037,0,.052l.653.377a.1.1,0,0,0,.09,0l.565-.326c.024-.014.022-.037,0-.052Zm-11.185,6.188.565-.326c.024-.014.022-.037,0-.052l-.653-.377a.1.1,0,0,0-.09,0l-.565.326c-.024.014-.023.037,0,.052l.653.377A.1.1,0,0,0,356.884,272.419Zm9.533-5.235a.1.1,0,0,0-.091,0l-.565.326c-.024.014-.022.037,0,.052l.653.377a.1.1,0,0,0,.09,0l.565-.326c.024-.013.022-.037,0-.052Zm4.3-2.484a.1.1,0,0,0-.09,0l-.565.326c-.024.013-.022.037,0,.052l.653.377a.1.1,0,0,0,.09,0l.565-.326c.024-.014.022-.037,0-.052Zm1.479-.1-1.587-.916a.1.1,0,0,0-.09,0l-.565.326c-.024.014-.023.037,0,.052l1.586.916a.1.1,0,0,0,.09,0l.565-.326C372.227,264.639,372.225,264.616,372.2,264.6Zm-8.867,4.365a.1.1,0,0,0-.09,0l-.7.4c-.024.014-.023.037,0,.052l.654.377a.1.1,0,0,0,.09,0l.7-.4c.024-.014.022-.038,0-.052Zm2.086-1.2a.1.1,0,0,0-.091,0l-.869.5c-.024.014-.023.037,0,.052l.653.377a.1.1,0,0,0,.091,0l.869-.5c.024-.014.023-.037,0-.052Zm-4,2.308a.1.1,0,0,0-.091,0l-4.65,2.685c-.024.014-.023.037,0,.052l.653.377a.1.1,0,0,0,.09,0l4.651-2.685c.024-.013.022-.037,0-.052Zm-4.911,2.835a.1.1,0,0,0-.091,0l-.7.4c-.024.014-.022.037,0,.052l.653.377a.1.1,0,0,0,.09,0l.7-.4c.024-.014.022-.037,0-.052Zm5.867-3.387a.1.1,0,0,0-.09,0l-.7.4c-.024.014-.023.037,0,.052l.654.377a.1.1,0,0,0,.09,0l.7-.4c.024-.014.023-.037,0-.052Zm-6.823,3.939a.1.1,0,0,0-.09,0l-.7.4c-.024.014-.023.037,0,.052l.654.377a.1.1,0,0,0,.09,0l.7-.4c.024-.014.023-.037,0-.052Zm8.735-5.043a.1.1,0,0,0-.09,0l-.7.4c-.024.013-.023.037,0,.052l.653.377a.1.1,0,0,0,.091,0l.7-.4c.024-.013.022-.037,0-.052Zm2.955-1.706a.1.1,0,0,0-.091,0l-.565.326c-.024.014-.022.037,0,.052l.653.377a.1.1,0,0,0,.09,0l.565-.326c.024-.014.022-.037,0-.052Zm1.809-1.314.565-.326c.024-.014.022-.037,0-.052l-.653-.377a.1.1,0,0,0-.091,0l-.565.326c-.024.014-.023.037,0,.052l.653.377A.1.1,0,0,0,369.053,265.394Zm-3.692-.024.565-.326c.024-.014.023-.038,0-.052l-.654-.377a.1.1,0,0,0-.09,0l-.565.326c-.024.014-.023.037,0,.052l.654.377A.1.1,0,0,0,365.361,265.37Zm-1.871,3.236,1.651-.954c.024-.013.022-.037,0-.052l-.654-.377a.1.1,0,0,0-.09,0l-1.651.953c-.024.014-.022.037,0,.052l.653.377A.1.1,0,0,0,363.49,268.606Zm4.647-2.737a.1.1,0,0,0,.09,0l.565-.326c.024-.014.023-.037,0-.052l-.653-.377a.1.1,0,0,0-.091,0l-.565.326c-.024.014-.023.037,0,.052Zm-.843-.537.565-.326c.024-.014.023-.037,0-.052l-.654-.377a.1.1,0,0,0-.09,0l-.565.326c-.024.014-.023.037,0,.052l.654.377A.1.1,0,0,0,367.294,265.332Zm-4.629,3.751.565-.326c.024-.014.022-.037,0-.052l-.653-.377a.1.1,0,0,0-.09,0l-.565.326c-.024.014-.022.037,0,.052l.653.377A.1.1,0,0,0,362.664,269.082Zm3.647-2.159a.1.1,0,0,0,.09,0l.565-.326c.024-.014.022-.037,0-.052l-.653-.377a.1.1,0,0,0-.091,0l-.565.326c-.024.014-.023.038,0,.052Zm-7.776,4.543.565-.326c.024-.014.022-.037,0-.052l-.653-.377a.1.1,0,0,0-.09,0l-.565.326c-.024.013-.022.037,0,.052l.653.377A.1.1,0,0,0,358.536,271.466Zm.826-.477.565-.326c.024-.013.022-.037,0-.052l-.653-.377a.1.1,0,0,0-.09,0l-.565.326c-.024.013-.022.037,0,.052l.653.377A.1.1,0,0,0,359.362,270.989Zm-1.651.953.565-.326c.024-.014.022-.037,0-.052l-.653-.377a.1.1,0,0,0-.09,0l-.565.326c-.024.014-.023.037,0,.052l.653.377A.1.1,0,0,0,357.71,271.942Zm3.3-1.907.565-.326c.024-.013.023-.037,0-.052l-.653-.377a.1.1,0,0,0-.09,0l-.565.326c-.024.013-.022.037,0,.052l.653.377A.1.1,0,0,0,361.013,270.036Zm-.826.477.565-.326c.024-.014.023-.037,0-.052l-.653-.377a.1.1,0,0,0-.09,0l-.565.326c-.024.014-.022.038,0,.052l.653.377A.1.1,0,0,0,360.187,270.513Zm1.651-.953.565-.326c.024-.014.023-.037,0-.052l-.653-.377a.1.1,0,0,0-.09,0l-.565.326c-.024.014-.022.037,0,.052l.653.377A.1.1,0,0,0,361.838,269.559Zm3.778-7.053a.1.1,0,0,0,.09,0l.565-.326c.024-.014.023-.037,0-.052l-.174-.1a.1.1,0,0,0-.09,0l-.565.326c-.024.013-.023.037,0,.052Zm-4.063,2.623a.1.1,0,0,0,.09,0l.565-.326c.024-.014.022-.037,0-.052l-.654-.377a.1.1,0,0,0-.09,0l-.565.326c-.024.013-.023.037,0,.052Zm1.651-.953a.1.1,0,0,0,.09,0l.565-.326c.024-.014.022-.037,0-.052l-.654-.377a.1.1,0,0,0-.09,0l-.565.326c-.024.013-.023.037,0,.052Zm-2.66,1.536a.1.1,0,0,0,.09,0l.565-.326c.024-.014.022-.037,0-.052l-.653-.377a.1.1,0,0,0-.09,0l-.565.326c-.024.014-.022.038,0,.052Zm1.834-1.059a.1.1,0,0,0,.09,0l.565-.326c.024-.014.023-.038,0-.052l-.654-.377a.1.1,0,0,0-.09,0l-.565.326c-.024.014-.023.037,0,.052Zm-3.486,2.013a.1.1,0,0,0,.09,0l.565-.326c.024-.014.022-.037,0-.052l-.653-.377a.1.1,0,0,0-.09,0l-.565.326c-.024.014-.023.037,0,.052Zm.826-.477a.1.1,0,0,0,.09,0l.565-.326c.024-.014.023-.038,0-.052l-.653-.377a.1.1,0,0,0-.09,0l-.565.326c-.024.014-.023.037,0,.052Zm4.246-2.727a.1.1,0,0,0,.09,0l.565-.326c.024-.014.023-.037,0-.052l-.174-.1a.1.1,0,0,0-.09,0l-.565.326c-.024.014-.022.037,0,.052Zm2.477-1.43a.1.1,0,0,0,.09,0l.565-.326c.024-.013.022-.037,0-.052l-.174-.1a.1.1,0,0,0-.09,0l-.565.326c-.024.013-.022.037,0,.052Zm1.372.793a.1.1,0,0,0,.091,0l.565-.326c.024-.014.023-.037,0-.052l-.654-.377a.1.1,0,0,0-.09,0l-.565.326c-.024.014-.023.037,0,.052Zm2.064,2.095.565-.326c.024-.014.022-.037,0-.052l-.653-.377a.1.1,0,0,0-.091,0l-.565.326c-.024.013-.023.037,0,.052l.653.377A.1.1,0,0,0,369.878,264.917Zm-5.088-1.934a.1.1,0,0,0,.09,0l.565-.326c.024-.013.022-.037,0-.052l-.174-.1a.1.1,0,0,0-.09,0l-.565.326c-.024.014-.022.037,0,.052Zm-6.723,4.158a.1.1,0,0,0,.09,0l.565-.326c.024-.014.023-.037,0-.052l-.653-.377a.1.1,0,0,0-.091,0l-.565.326c-.024.014-.022.037,0,.052Z" transform="translate(-347.537 -260.924)" fill="#57cc98"/>
            </g>
            <g id="Computer">
              <g id="Grupo_29231" data-name="Grupo 29231" transform="translate(10.144 24.509)">
                <path id="Trazado_69645" data-name="Trazado 69645" d="M356.837,255.82l-6.751,3.9-.034-.017-2.548-1.474a1.385,1.385,0,0,1-.624-1.361l.956-4.95,5.625-4.55,1.125.652-.951,4.95a1.381,1.381,0,0,0,.619,1.361Z" transform="translate(-345.592 -247.367)" fill="#455a64"/>
                <path id="Trazado_69646" data-name="Trazado 69646" d="M349.1,262.756v1.3l-3.527-2.036a2.074,2.074,0,0,1-.939-2.053l1.085-5.659,1.131.647-.956,4.95a1.385,1.385,0,0,0,.624,1.361l2.548,1.474Z" transform="translate(-344.604 -250.403)" fill="#263238"/>
                <path id="Trazado_69647" data-name="Trazado 69647" d="M359.346,262.4l-6.751,3.9v1.3l6.752-3.9Z" transform="translate(-348.1 -253.942)" fill="#37474f"/>
              </g>
              <g id="Grupo_29232" data-name="Grupo 29232">
                <path id="Trazado_69648" data-name="Trazado 69648" d="M354.159,203.922a1.289,1.289,0,0,1,.563,1.018v20.719a1.325,1.325,0,0,1-.6,1.039L328.3,241.61a1.128,1.128,0,0,1-1.726-1V219.894a1.328,1.328,0,0,1,.6-1.04L353,203.943A1.289,1.289,0,0,1,354.159,203.922Z" transform="translate(-326.569 -203.794)" fill="#455a64"/>
                <path id="Trazado_69649" data-name="Trazado 69649" d="M328.3,253.673a1.128,1.128,0,0,1-1.726-1V231.958a1.228,1.228,0,0,1,.176-.592l20.094,11.6Z" transform="translate(-326.569 -215.857)" fill="#263238"/>
                <path id="Trazado_69650" data-name="Trazado 69650" d="M355.6,226.218V205.5c0-.382-.269-.538-.6-.346l-25.826,14.911a1.326,1.326,0,0,0-.6,1.04v20.719c0,.383.269.538.6.346L355,227.258A1.325,1.325,0,0,0,355.6,226.218Z" transform="translate(-327.445 -204.352)" fill="#37474f"/>
                <path id="Trazado_69651" data-name="Trazado 69651" d="M354.565,207.223,330.052,221.37a1.061,1.061,0,0,0-.48.832v18.4c0,.306.215.43.48.277l24.513-14.148a1.062,1.062,0,0,0,.48-.831V207.5C355.045,207.194,354.831,207.07,354.565,207.223Z" transform="translate(-327.883 -205.265)" fill="#fff"/>
              </g>
            </g>
          </g>
          <g id="Box" transform="translate(19.417 43.357)">
            <path id="Trazado_69652" data-name="Trazado 69652" d="M301.2,306.586,286.663,298.2a1.613,1.613,0,0,1-.731-1.265l0-8.867a1.615,1.615,0,0,1,.731-1.265l9.965-5.751a1.615,1.615,0,0,1,1.461,0l14.529,8.388a1.615,1.615,0,0,1,.731,1.266l.005,8.866a1.612,1.612,0,0,1-.73,1.266l-9.96,5.751A1.616,1.616,0,0,1,301.2,306.586Z" transform="translate(-285.927 -280.875)" fill="#263238"/>
            <path id="Trazado_69653" data-name="Trazado 69653" d="M302.991,296.034l9.959-5.752a.445.445,0,0,0,0-.844L298.42,281.05a1.615,1.615,0,0,0-1.461,0l-9.965,5.751a.445.445,0,0,0,0,.843l14.536,8.389A1.614,1.614,0,0,0,302.991,296.034Z" transform="translate(-286.26 -280.875)" fill="#455a64"/>
            <path id="Trazado_69654" data-name="Trazado 69654" d="M301.928,300.93v10.552a1.544,1.544,0,0,1-.731-.174l-14.534-8.387a1.616,1.616,0,0,1-.731-1.266l-.006-8.87a1.636,1.636,0,0,1,.556-1.121c-.205.227-.15.511.176.7l14.54,8.392A1.527,1.527,0,0,0,301.928,300.93Z" transform="translate(-285.925 -285.596)" fill="#37474f"/>
            <g id="Grupo_29234" data-name="Grupo 29234" transform="translate(4.182 2.161)">
              <path id="Trazado_69655" data-name="Trazado 69655" d="M293.552,292.275a1.049,1.049,0,0,1,.96,0l10.45,6.033c.269.155.276.406.015.56a1.053,1.053,0,0,1-.96,0l-10.45-6.034C293.3,292.679,293.291,292.428,293.552,292.275Z" transform="translate(-293.361 -287.974)" fill="#37474f"/>
              <path id="Trazado_69656" data-name="Trazado 69656" d="M293.552,292.275a1.05,1.05,0,0,1,.96,0l6.362,3.673-.946.557-6.362-3.674C293.3,292.679,293.291,292.428,293.552,292.275Z" transform="translate(-293.361 -287.974)" fill="#37a3a5"/>
              <path id="Trazado_69657" data-name="Trazado 69657" d="M296.774,290.414a1.052,1.052,0,0,1,.96,0l10.45,6.033c.269.155.276.406.015.56a1.051,1.051,0,0,1-.96,0l-10.45-6.033C296.52,290.818,296.513,290.568,296.774,290.414Z" transform="translate(-294.77 -287.16)" fill="#37474f"/>
              <path id="Trazado_69658" data-name="Trazado 69658" d="M296.774,290.414a1.053,1.053,0,0,1,.96,0l.853.49-.945.557-.852-.49C296.52,290.818,296.513,290.567,296.774,290.414Z" transform="translate(-294.77 -287.16)" fill="#37a3a5"/>
              <path id="Trazado_69659" data-name="Trazado 69659" d="M300,288.553a1.052,1.052,0,0,1,.96,0l10.45,6.033c.269.155.276.406.015.56a1.053,1.053,0,0,1-.96,0l-10.45-6.034C299.742,288.958,299.735,288.707,300,288.553Z" transform="translate(-296.18 -286.346)" fill="#37474f"/>
              <path id="Trazado_69660" data-name="Trazado 69660" d="M300,288.553a1.052,1.052,0,0,1,.96,0l3.695,2.133-.945.557-3.695-2.133C299.742,288.958,299.735,288.707,300,288.553Z" transform="translate(-296.18 -286.346)" fill="#37a3a5"/>
              <g id="Grupo_29233" data-name="Grupo 29233" transform="translate(5.438)">
                <path id="Trazado_69661" data-name="Trazado 69661" d="M303.22,286.693a1.052,1.052,0,0,1,.96,0l10.45,6.033c.269.155.276.406.015.56a1.052,1.052,0,0,1-.96,0l-10.45-6.033C302.965,287.1,302.959,286.847,303.22,286.693Z" transform="translate(-303.028 -285.532)" fill="#37474f"/>
                <path id="Trazado_69662" data-name="Trazado 69662" d="M303.22,286.693a1.052,1.052,0,0,1,.96,0l7.484,4.32-.946.557-7.483-4.32C302.965,287.1,302.959,286.847,303.22,286.693Z" transform="translate(-303.028 -285.532)" fill="#37a3a5"/>
                <path id="Trazado_69663" data-name="Trazado 69663" d="M306.441,284.832a1.052,1.052,0,0,1,.96,0l10.45,6.034c.269.155.276.406.015.56a1.052,1.052,0,0,1-.96,0l-10.45-6.033C306.187,285.236,306.181,284.986,306.441,284.832Z" transform="translate(-304.438 -284.718)" fill="#37474f"/>
                <path id="Trazado_69664" data-name="Trazado 69664" d="M306.441,284.832a1.053,1.053,0,0,1,.96,0l9.412,5.432-.945.557-9.412-5.432C306.187,285.236,306.181,284.986,306.441,284.832Z" transform="translate(-304.438 -284.718)" fill="#37a3a5"/>
              </g>
            </g>
            <g id="Grupo_29237" data-name="Grupo 29237" transform="translate(17.142 18.758)">
              <g id="Grupo_29235" data-name="Grupo 29235" transform="translate(0 1.035)">
                <path id="Trazado_69665" data-name="Trazado 69665" d="M316.4,319.1v-1.8a1.463,1.463,0,0,1,.571-1.174c.316-.182.571.048.571.514v1.8a1.462,1.462,0,0,1-.571,1.173C316.657,319.793,316.4,319.563,316.4,319.1Z" transform="translate(-316.401 -316.065)" fill="#37474f"/>
                <path id="Trazado_69666" data-name="Trazado 69666" d="M317.171,316.616a.836.836,0,0,0-.379.656c0,.241.17.339.379.218a.836.836,0,0,0,.379-.656C317.55,316.593,317.38,316.495,317.171,316.616Z" transform="translate(-316.572 -316.283)" fill="#57cc98"/>
              </g>
              <g id="Grupo_29236" data-name="Grupo 29236" transform="translate(1.803)">
                <path id="Trazado_69667" data-name="Trazado 69667" d="M319.607,317.257v-1.8a1.464,1.464,0,0,1,.571-1.173c.316-.182.571.048.571.514v1.8a1.463,1.463,0,0,1-.571,1.173C319.863,317.954,319.607,317.724,319.607,317.257Z" transform="translate(-319.607 -314.225)" fill="#37474f"/>
                <path id="Trazado_69668" data-name="Trazado 69668" d="M320.328,318.455a.839.839,0,0,0-.379.656c0,.241.17.339.379.219a.837.837,0,0,0,.378-.656C320.707,318.433,320.537,318.335,320.328,318.455Z" transform="translate(-319.757 -316.053)" fill="#57cc98"/>
              </g>
            </g>
          </g>
        </g>
      </g>
      <g id="Character" transform="translate(160.958 115.129)">
        <g id="Grupo_29277" data-name="Grupo 29277" transform="translate(0 0)">
          <g id="Legs" transform="translate(0 38.522)">
            <g id="Grupo_29241" data-name="Grupo 29241" transform="translate(9.353)">
              <g id="Grupo_29238" data-name="Grupo 29238" transform="translate(0 20.68)">
                <path id="Trazado_69669" data-name="Trazado 69669" d="M367.768,357.275a7.671,7.671,0,0,1,.47,1.826,4.06,4.06,0,0,1,.145,2.008,4,4,0,0,1-2.268,1.773,5.078,5.078,0,0,1-4-.774c-1.392-.832-2.443-1.844-4.426-2.409a10.072,10.072,0,0,1-3.913-1.776c-1.1-.883-1.808-2.2.294-2.768,2.121-.569,5.919.311,10.078.492Z" transform="translate(-352.718 -354.967)" fill="#263238"/>
              </g>
              <g id="Grupo_29239" data-name="Grupo 29239" transform="translate(10.487 20.388)">
                <path id="Trazado_69670" data-name="Trazado 69670" d="M375.925,354.448v3.116s-.428,1.036-2.2,1.1a2.683,2.683,0,0,1-2.357-1.128v-3.09Z" transform="translate(-371.363 -354.448)" fill="#ffa8a7"/>
              </g>
              <g id="Grupo_29240" data-name="Grupo 29240" transform="translate(9.097)">
                <path id="Trazado_69671" data-name="Trazado 69671" d="M368.892,318.2c-.022,3.877,1.089,21.754,1.089,21.754s1.585,2.006,5.029,0l1.169-19.837Z" transform="translate(-368.892 -318.201)" fill="#37474f"/>
              </g>
            </g>
            <g id="Grupo_29245" data-name="Grupo 29245" transform="translate(0 6.094)">
              <g id="Grupo_29242" data-name="Grupo 29242" transform="translate(0 20.68)">
                <path id="Trazado_69672" data-name="Trazado 69672" d="M351.139,368.109a7.671,7.671,0,0,1,.47,1.826,4.053,4.053,0,0,1,.145,2.008,4,4,0,0,1-2.268,1.772,5.078,5.078,0,0,1-4-.773c-1.392-.832-2.443-1.844-4.425-2.408a10.074,10.074,0,0,1-3.914-1.776c-1.1-.883-1.808-2.2.295-2.768,2.12-.569,5.918.31,10.078.492Z" transform="translate(-336.089 -365.801)" fill="#263238"/>
              </g>
              <g id="Grupo_29243" data-name="Grupo 29243" transform="translate(10.487 20.387)">
                <path id="Trazado_69673" data-name="Trazado 69673" d="M359.3,365.281V368.4s-.428,1.036-2.2,1.1a2.684,2.684,0,0,1-2.357-1.129v-3.09Z" transform="translate(-354.734 -365.281)" fill="#ffa8a7"/>
              </g>
              <g id="Grupo_29244" data-name="Grupo 29244" transform="translate(9.098)">
                <path id="Trazado_69674" data-name="Trazado 69674" d="M352.264,329.035c-.022,3.877,1.088,21.753,1.088,21.753s1.585,2.006,5.029,0l1.169-19.836Z" transform="translate(-352.263 -329.035)" fill="#37474f"/>
              </g>
            </g>
          </g>
          <g id="Chair" transform="translate(14.55 38.594)">
            <g id="Grupo_29259" data-name="Grupo 29259">
              <g id="Grupo_29258" data-name="Grupo 29258">
                <g id="Grupo_29256" data-name="Grupo 29256" transform="translate(5.394 10.937)">
                  <g id="Grupo_29255" data-name="Grupo 29255" transform="translate(0 14.481)">
                    <g id="Grupo_29246" data-name="Grupo 29246" transform="translate(0 13.601)">
                      <path id="Trazado_69675" data-name="Trazado 69675" d="M373.692,392.034a2.064,2.064,0,0,0,.047.435,1,1,0,0,0,.393.608l.014.01a1.149,1.149,0,0,0,1.207-.093,3.667,3.667,0,0,0,1.66-2.877,1.177,1.177,0,0,0-.467-1.052l0-.005-.079-.047h-.005a1.029,1.029,0,0,0-.706-.028,1.92,1.92,0,0,0-.407.178A3.666,3.666,0,0,0,373.692,392.034Z" transform="translate(-372.485 -388.24)" fill="#455a64"/>
                      <path id="Trazado_69676" data-name="Trazado 69676" d="M373.207,387.924a1.52,1.52,0,0,1,.739-.224.878.878,0,0,1,.468.131l.042.024,1.071.617a1.029,1.029,0,0,0-.706-.028,1.923,1.923,0,0,0-.407.178,3.666,3.666,0,0,0-1.66,2.873,2.067,2.067,0,0,0,.047.435,1,1,0,0,0,.393.608l-1.1-.636-.019-.009-.094-.056a.1.1,0,0,1-.028-.019,1.221,1.221,0,0,1-.407-1.02A3.665,3.665,0,0,1,373.207,387.924Z" transform="translate(-371.546 -387.699)" fill="#263238"/>
                    </g>
                    <g id="Grupo_29247" data-name="Grupo 29247" transform="translate(17.965 3.941)">
                      <path id="Trazado_69677" data-name="Trazado 69677" d="M405.63,374.859a2.1,2.1,0,0,0,.047.435,1,1,0,0,0,.393.608l.014.01a1.148,1.148,0,0,0,1.207-.094,3.666,3.666,0,0,0,1.66-2.877,1.179,1.179,0,0,0-.467-1.053l0,0-.08-.047h0a1.031,1.031,0,0,0-.706-.028,1.889,1.889,0,0,0-.407.178A3.666,3.666,0,0,0,405.63,374.859Z" transform="translate(-404.423 -371.066)" fill="#455a64"/>
                      <path id="Trazado_69678" data-name="Trazado 69678" d="M405.145,370.75a1.52,1.52,0,0,1,.739-.224.878.878,0,0,1,.468.131l.042.023,1.071.618a1.03,1.03,0,0,0-.706-.028,1.891,1.891,0,0,0-.407.178,3.666,3.666,0,0,0-1.661,2.872,2.1,2.1,0,0,0,.047.435,1,1,0,0,0,.393.608l-1.1-.636-.019-.01-.094-.056a.11.11,0,0,1-.028-.019,1.223,1.223,0,0,1-.407-1.02A3.666,3.666,0,0,1,405.145,370.75Z" transform="translate(-403.485 -370.525)" fill="#263238"/>
                    </g>
                    <g id="Grupo_29248" data-name="Grupo 29248" transform="translate(12.646 17.373)">
                      <path id="Trazado_69679" data-name="Trazado 69679" d="M397.35,398.74a2.064,2.064,0,0,1-.047.435,1,1,0,0,1-.393.608l-.014.01a1.149,1.149,0,0,1-1.207-.093,3.667,3.667,0,0,1-1.66-2.877,1.177,1.177,0,0,1,.467-1.052l0-.005.079-.047h.005a1.028,1.028,0,0,1,.706-.028,1.913,1.913,0,0,1,.407.178A3.666,3.666,0,0,1,397.35,398.74Z" transform="translate(-394.029 -394.946)" fill="#455a64"/>
                      <path id="Trazado_69680" data-name="Trazado 69680" d="M397.322,394.63a1.521,1.521,0,0,0-.739-.224.877.877,0,0,0-.468.131l-.042.023-1.071.618a1.029,1.029,0,0,1,.706-.028,1.922,1.922,0,0,1,.407.178,3.665,3.665,0,0,1,1.66,2.873,2.065,2.065,0,0,1-.047.435,1,1,0,0,1-.393.608l1.1-.636.019-.01.094-.056a.1.1,0,0,0,.028-.019,1.221,1.221,0,0,0,.407-1.02A3.666,3.666,0,0,0,397.322,394.63Z" transform="translate(-394.455 -394.405)" fill="#263238"/>
                    </g>
                    <g id="Grupo_29249" data-name="Grupo 29249" transform="translate(24.307 11.66)">
                      <path id="Trazado_69681" data-name="Trazado 69681" d="M418.083,388.584a2.064,2.064,0,0,1-.047.435,1,1,0,0,1-.393.608l-.014.009a1.147,1.147,0,0,1-1.207-.093,3.667,3.667,0,0,1-1.66-2.877,1.177,1.177,0,0,1,.468-1.052l-.005,0,.08-.047h0a1.03,1.03,0,0,1,.706-.028,1.874,1.874,0,0,1,.407.178A3.666,3.666,0,0,1,418.083,388.584Z" transform="translate(-414.761 -384.79)" fill="#455a64"/>
                      <path id="Trazado_69682" data-name="Trazado 69682" d="M418.054,384.474a1.521,1.521,0,0,0-.739-.225.884.884,0,0,0-.468.131l-.042.024-1.071.618a1.03,1.03,0,0,1,.706-.028,1.875,1.875,0,0,1,.407.178,3.666,3.666,0,0,1,1.661,2.872,2.062,2.062,0,0,1-.047.435,1,1,0,0,1-.393.608l1.1-.636.019-.01.093-.056a.1.1,0,0,0,.028-.019,1.224,1.224,0,0,0,.407-1.02A3.665,3.665,0,0,0,418.054,384.474Z" transform="translate(-415.187 -384.249)" fill="#263238"/>
                    </g>
                    <g id="Grupo_29250" data-name="Grupo 29250" transform="translate(1.766 4.654)">
                      <path id="Trazado_69683" data-name="Trazado 69683" d="M378.006,376.129a2.065,2.065,0,0,1-.047.435,1,1,0,0,1-.393.609l-.014.009a1.148,1.148,0,0,1-1.207-.093,3.667,3.667,0,0,1-1.661-2.877,1.177,1.177,0,0,1,.468-1.052l0-.005.079-.047h0a1.028,1.028,0,0,1,.707-.028,1.892,1.892,0,0,1,.407.177A3.666,3.666,0,0,1,378.006,376.129Z" transform="translate(-374.685 -372.335)" fill="#455a64"/>
                      <path id="Trazado_69684" data-name="Trazado 69684" d="M377.978,372.019a1.517,1.517,0,0,0-.739-.224.878.878,0,0,0-.467.131l-.042.024-1.072.617a1.027,1.027,0,0,1,.707-.028,1.888,1.888,0,0,1,.407.177,3.666,3.666,0,0,1,1.66,2.873,2.06,2.06,0,0,1-.047.435,1,1,0,0,1-.393.609l1.1-.637.019-.009.093-.056a.1.1,0,0,0,.028-.019,1.224,1.224,0,0,0,.407-1.02A3.666,3.666,0,0,0,377.978,372.019Z" transform="translate(-375.111 -371.794)" fill="#263238"/>
                    </g>
                    <g id="Grupo_29251" data-name="Grupo 29251" transform="translate(14.416 2.955)">
                      <path id="Trazado_69685" data-name="Trazado 69685" d="M398.214,370.976l5.929-1.7v1.266l-5.929,3.421Z" transform="translate(-397.63 -368.993)" fill="#f5f5f5"/>
                      <path id="Trazado_69686" data-name="Trazado 69686" d="M397.76,370.756l-.585-.358,5.947-1.625.567.283Z" transform="translate(-397.175 -368.773)" fill="#fafafa"/>
                    </g>
                    <g id="Grupo_29252" data-name="Grupo 29252" transform="translate(4.03 4.123)">
                      <path id="Trazado_69687" data-name="Trazado 69687" d="M387.116,375.57l-8.406-3.149v-1.282l8.406.751Z" transform="translate(-378.711 -370.976)" fill="#f5f5f5"/>
                      <path id="Trazado_69688" data-name="Trazado 69688" d="M378.711,371.012l.618-.163,8.288.535-.5.379Z" transform="translate(-378.711 -370.849)" fill="#fafafa"/>
                    </g>
                    <path id="Trazado_69689" data-name="Trazado 69689" d="M393.254,371.831c0,.952,2.924.952,2.924,0v-8.312h-2.924Z" transform="translate(-381.044 -363.519)" fill="#fafafa"/>
                    <g id="Grupo_29253" data-name="Grupo 29253" transform="translate(13.406 6.149)">
                      <path id="Trazado_69690" data-name="Trazado 69690" d="M396.376,374.452l1.608,10.437h-1.1l-1.5-10.437A1.8,1.8,0,0,0,396.376,374.452Z" transform="translate(-395.381 -374.452)" fill="#fafafa"/>
                      <path id="Trazado_69691" data-name="Trazado 69691" d="M395.381,374.452v2.866l1.5,9.338v-1.767Z" transform="translate(-395.381 -374.452)" fill="#f5f5f5"/>
                      <rect id="Rectngulo_26594" data-name="Rectngulo 26594" width="1.099" height="1.767" transform="translate(1.504 10.438)" fill="#ebebeb"/>
                    </g>
                    <g id="Grupo_29254" data-name="Grupo 29254" transform="translate(1.39 5.842)">
                      <path id="Trazado_69692" data-name="Trazado 69692" d="M386.06,377.239l-10.839,5.682v-1.75l10.839-6.705Z" transform="translate(-374.544 -374.151)" fill="#f5f5f5"/>
                      <path id="Trazado_69693" data-name="Trazado 69693" d="M385.534,374.221a1.207,1.207,0,0,1-.7-.315l-10.82,6.564.677.457Z" transform="translate(-374.018 -373.906)" fill="#fafafa"/>
                      <path id="Trazado_69694" data-name="Trazado 69694" d="M374.695,387.782v-1.75l-.677-.457v1.7Z" transform="translate(-374.018 -379.012)" fill="#ebebeb"/>
                    </g>
                    <path id="Trazado_69695" data-name="Trazado 69695" d="M409.779,380.823l-11.58-3.965v-2.6l11.58,4.817Z" transform="translate(-383.207 -368.217)" fill="#f5f5f5"/>
                    <path id="Trazado_69696" data-name="Trazado 69696" d="M398.2,373.908c.094-.025.134-.194.142-.449l11.78,5.125-.343.141Z" transform="translate(-383.207 -367.868)" fill="#fafafa"/>
                    <path id="Trazado_69697" data-name="Trazado 69697" d="M419.129,382.569v1.693l-.342.2V382.71Z" transform="translate(-392.215 -371.854)" fill="#ebebeb"/>
                  </g>
                  <path id="Trazado_69698" data-name="Trazado 69698" d="M396.4,337.774h-4.951v17.144c0,1.423,4.951,1.423,4.951,0Z" transform="translate(-380.255 -337.774)" fill="#f0f0f0"/>
                </g>
                <g id="Grupo_29257" data-name="Grupo 29257">
                  <path id="Trazado_69699" data-name="Trazado 69699" d="M361.957,330.8h0a2.474,2.474,0,0,1,1.237-2.142l17.321-10a2.475,2.475,0,0,1,2.474,0l17.32,10a2.475,2.475,0,0,1,1.237,2.142h0l-19.795,11.43Z" transform="translate(-361.957 -318.329)" fill="#37a3a5"/>
                  <path id="Trazado_69700" data-name="Trazado 69700" d="M361.957,340.506v1.431l18.571,10.722a2.449,2.449,0,0,0,2.447,0l18.571-10.722v-1.431l-18.571,10.721a2.421,2.421,0,0,1-2.447,0Z" transform="translate(-361.957 -328.032)" fill="#fafafa"/>
                  <path id="Trazado_69701" data-name="Trazado 69701" d="M361.957,340.506v1.431l18.571,10.722a2.426,2.426,0,0,0,1.221.327v-1.427a2.43,2.43,0,0,1-1.221-.332Z" transform="translate(-361.957 -328.032)" fill="#f5f5f5"/>
                </g>
              </g>
              <path id="Trazado_69702" data-name="Trazado 69702" d="M361.957,339.648a2.464,2.464,0,0,1,.265-1.1l18.712,10.8a1.629,1.629,0,0,0,1.63,0l18.719-10.8a2.469,2.469,0,0,1,.263,1.1l-19.795,11.429-19.8-11.429Z" transform="translate(-361.957 -327.174)" opacity="0.1"/>
            </g>
          </g>
          <g id="Character-2" data-name="Character" transform="translate(2.598)">
            <g id="Grupo_29270" data-name="Grupo 29270" transform="translate(6.49)">
              <g id="Grupo_29260" data-name="Grupo 29260" transform="translate(7.964 36.105)">
                <path id="Trazado_69703" data-name="Trazado 69703" d="M397.5,321.071s-16.067-4.848-18.86-5.613-8.152-2.052-9.717-1.351-2.361,1.515-2.5,3.774c-.029.424,0,2.491,0,2.491s7.766,2.4,14.129,2.4S397.5,321.071,397.5,321.071Z" transform="translate(-366.405 -313.905)" fill="#263238"/>
              </g>
              <g id="Grupo_29261" data-name="Grupo 29261" transform="translate(25.326 14.455)">
                <path id="Trazado_69704" data-name="Trazado 69704" d="M397.273,276.921l1.068,5.761,5.906.681-.852-7.951Z" transform="translate(-397.273 -275.413)" fill="#ffa8a7"/>
              </g>
              <g id="Grupo_29266" data-name="Grupo 29266" transform="translate(18.431)">
                <g id="Grupo_29262" data-name="Grupo 29262" transform="translate(0.798 11.363)">
                  <path id="Trazado_69705" data-name="Trazado 69705" d="M387.016,269.917s-.775,2.376-.538,2.523a4.164,4.164,0,0,0,1.292.075Z" transform="translate(-386.433 -269.917)" fill="#f28f8f"/>
                </g>
                <g id="Grupo_29263" data-name="Grupo 29263" transform="translate(1.241 1.867)">
                  <path id="Trazado_69706" data-name="Trazado 69706" d="M388.883,254.914c-1.017,1.07-1.984,2.863-1.558,7.4.467,4.975,1.954,6.3,2.581,6.592.936.436,4.121-.327,5.157-1.09a11.783,11.783,0,0,0,4.373-6.264c.747-3.447-.209-7.365-2.729-8.157A8.614,8.614,0,0,0,388.883,254.914Z" transform="translate(-387.222 -253.035)" fill="#ffa8a7"/>
                </g>
                <g id="Grupo_29264" data-name="Grupo 29264">
                  <path id="Trazado_69707" data-name="Trazado 69707" d="M385.6,255.91c.6,1.139,1.745,3.972,4.977,4.776,0,0,.179-1.931,1.779-1.95s2.146,1.952,1.352,3.33-1.794,1.06-1.794,1.06.16,2.712,2.119,3.681a5.068,5.068,0,0,0,4.5-.3c.966-.616,2.082-3.286,2.657-5.431,1.218-4.536,1-8.009-1.883-8.714a3.268,3.268,0,0,0-3.4-2.633c-3.905-.258-6.429,2.633-9.676,2.633C384.534,252.364,384.906,254.608,385.6,255.91Z" transform="translate(-385.015 -249.715)" fill="#263238"/>
                </g>
                <g id="Grupo_29265" data-name="Grupo 29265" transform="translate(14.128 1.49)">
                  <path id="Trazado_69708" data-name="Trazado 69708" d="M410.218,253.846l1.955-.837a1.063,1.063,0,1,0-1.955.837Z" transform="translate(-410.132 -252.364)" fill="#263238"/>
                </g>
              </g>
              <g id="Grupo_29267" data-name="Grupo 29267" transform="translate(0 40.245)">
                <path id="Trazado_69709" data-name="Trazado 69709" d="M391.267,322.36c-.006,3.086.29,6.3-1,8.56-1.244,2.186-7.118,6.916-13.684,5.811-4.289-.722-18.151-6-18.151-6s-6.135-2.27-6.162-3.883c-.007-.395-.043-.8-.017-1.232.129-2.147,1-4.461,5.488-4.342,4.9.13,19.455,2.513,19.455,2.513Z" transform="translate(-352.247 -321.265)" fill="#37474f"/>
              </g>
              <g id="Grupo_29268" data-name="Grupo 29268" transform="translate(19.969 18.349)">
                <path id="Trazado_69710" data-name="Trazado 69710" d="M405.657,285.375c-.53-1.612-2.576-3.366-4.622-2.986-3.76.7-7.873,1.916-8.963,2.238h0s.489,8.285-3.762,10.793l-.561,10.551a9.039,9.039,0,0,0,2.676,3.134,12.456,12.456,0,0,0,8.616,2.424,10.864,10.864,0,0,0,7.8-4.27s-.047-9.97-.216-14.433A31.178,31.178,0,0,0,405.657,285.375Z" transform="translate(-387.748 -282.337)" fill="#455a64"/>
              </g>
              <g id="Grupo_29269" data-name="Grupo 29269" transform="translate(20.378 28.498)">
                <path id="Trazado_69711" data-name="Trazado 69711" d="M388.518,305.359a14.078,14.078,0,0,0,3-4.978,7.908,7.908,0,0,1-3.046,6.026Z" transform="translate(-388.475 -300.38)" fill="#37474f"/>
              </g>
            </g>
            <g id="Grupo_29273" data-name="Grupo 29273" transform="translate(14.948 20.639)">
              <g id="Grupo_29271" data-name="Grupo 29271">
                <path id="Trazado_69712" data-name="Trazado 69712" d="M383.117,286.408c-2.321.7-3.735.822-6.3,4.768s-8.181,11.77-8.737,12.71a4.182,4.182,0,0,0-.439,4.067c.624,1.122,2.439.63,4.984-1.6a95.166,95.166,0,0,0,7.336-8.266A42.035,42.035,0,0,0,383.117,286.408Z" transform="translate(-367.283 -286.408)" fill="#ffa8a7"/>
              </g>
              <g id="Grupo_29272" data-name="Grupo 29272" transform="translate(5.571)">
                <path id="Trazado_69713" data-name="Trazado 69713" d="M387.45,286.408a17.764,17.764,0,0,0-3.355,1.063,5.354,5.354,0,0,0-2.537,2.083c-1.794,2.981-4.359,7.223-4.359,7.223s-.438,3.7,4.05,4.984l2.387-2.576a13.366,13.366,0,0,0,2.378-3.542C387.024,293.422,388.177,289.894,387.45,286.408Z" transform="translate(-377.187 -286.408)" fill="#455a64"/>
              </g>
            </g>
            <path id="Trazado_69714" data-name="Trazado 69714" d="M356.8,309.877c-2.146-.26-6.957-6.853-8.562-8.95a14.358,14.358,0,0,0-4.393-4.133,5.79,5.79,0,0,1-3.092-4.571c-.367-2.351,1.824-3.85,3.616-1.486,1.138,1.5,2.286,2.449,2.346,2.2s-.354-1.3-.344-2.384c.012-1.31.93-.449,1.2.01a16.346,16.346,0,0,1,.968,2.164c.458,1.172.268,2.359.826,3.158s8.037,7.966,8.037,7.966Z" transform="translate(-340.708 -267.142)" fill="#ffa8a7"/>
          </g>
          <g id="Grupo_29276" data-name="Grupo 29276" transform="translate(35.941 21.604)">
            <path id="Trazado_69715" data-name="Trazado 69715" d="M420.389,289.7v22.123L402.826,322V299.884Z" transform="translate(-401.229 -288.811)" fill="#12263f"/>
            <path id="Trazado_69717" data-name="Trazado 69717" d="M399.987,320.387l1.6.922V301.029c0-.96.291-1.438.677-1.65,1.338-.824,3.108.927,3.108.927l.006-1.473,16.966-9.825c-1.6-.922-2.644-1.527-5.865.3s-12.674,7.293-14.169,8.215a3.921,3.921,0,0,0-2.318,3.61C399.988,304.616,399.987,320.387,399.987,320.387Z" transform="translate(-399.987 -288.124)" fill="#37a3a5"/>
            <path id="Trazado_69718" data-name="Trazado 69718" d="M404.109,297.525c1.474-.957,10.949-6.388,14.169-8.215s4.268-1.223,5.865-.3l-16.966,9.825A4.257,4.257,0,0,0,404.109,297.525Z" transform="translate(-401.791 -288.124)" fill="#21587b" opacity="0.4"/>
            <path id="Trazado_69719" data-name="Trazado 69719" d="M409.554,300.993l16.971-9.862V289.7L409.56,299.52Z" transform="translate(-404.173 -288.812)" fill="#21587b"/>
            <g id="Grupo_29274" data-name="Grupo 29274" transform="translate(3.171 26.293)">
              <path id="Trazado_69721" data-name="Trazado 69721" d="M408.09,348.8a1.541,1.541,0,0,0,1.537-1.538v-11.6a.786.786,0,1,0-1.572,0V347.2l-1.25-.722a.786.786,0,0,0-.786,1.362l1.3.753A1.532,1.532,0,0,0,408.09,348.8Z" transform="translate(-405.626 -334.869)" fill="#e6e6e6"/>
            </g>
            <g id="Grupo_29275" data-name="Grupo 29275" transform="translate(12.773 20.697)">
              <path id="Trazado_69722" data-name="Trazado 69722" d="M425.161,338.851a1.536,1.536,0,0,0,.769-.209,1.52,1.52,0,0,0,.768-1.33V325.707a.786.786,0,0,0-1.572,0V337.25l-1.25-.722a.786.786,0,1,0-.786,1.362l1.3.753A1.539,1.539,0,0,0,425.161,338.851Z" transform="translate(-422.696 -324.921)" fill="#e6e6e6"/>
            </g>
          </g>
        </g>
      </g>
    </g>
  </g>
</svg>
