<svg xmlns="http://www.w3.org/2000/svg" xmlns:xlink="http://www.w3.org/1999/xlink" width="122.087" height="94.986" viewBox="0 0 122.087 94.986">
  <defs>
    <linearGradient id="linear-gradient" x1="0.5" x2="0.5" y2="1" gradientUnits="objectBoundingBox">
      <stop offset="0" stop-color="#fff"/>
      <stop offset="1" stop-color="#d2e6ee"/>
    </linearGradient>
    <clipPath id="clip-path">
      <path id="Trazado_132517" data-name="Trazado 132517" d="M2235.669,1015.551l-6.369-23.727-20.553-.065-10.393,12.4-3.256,8.139,6.887,16.529,4.528-2.457a14.873,14.873,0,0,0,8.575,2.7c7.19,0,12.439-4.62,13.865-11.386Z" transform="translate(-2195.098 -991.76)" fill="none"/>
    </clipPath>
    <clipPath id="clip-path-2">
      <path id="Trazado_132497" data-name="Trazado 132497" d="M2240.2,1043.708s1.122-2.109,5.864-3.13,6.013.008,6.608.471c.564-.366.6-2.181-.275-3.458-1.471-2.157-13.094-.381-13.337,2.917A4.078,4.078,0,0,0,2240.2,1043.708Z" transform="translate(-2239.062 -1036.647)" fill="#3569b3"/>
    </clipPath>
  </defs>
  <g id="thift" transform="translate(0 1.912)">
    <g id="data_protection" data-name="data protection">
      <path id="Trazado_132454" data-name="Trazado 132454" d="M2132.609,1082.183s-25.361-10.42-18.256-23.92,32.9-17.455,21.133-29.329c-9.542-9.631-13.206-23.32-2.248-32.873,21.116-18.409,33.04,10.184,59.565,0s51.354,10.933,35.486,39.116c-21.578,38.326,5.115,46.679,5.115,46.679Z" transform="translate(-2113.097 -989.724)" fill="#f3f9ff"/>
      <g id="Grupo_62014" data-name="Grupo 62014" transform="translate(10.146 54.038)">
        <g id="Grupo_62012" data-name="Grupo 62012" transform="translate(0 10.754)">
          <path id="Trazado_132455" data-name="Trazado 132455" d="M2158.314,1276.41a8.709,8.709,0,0,0-1.026,3.224l.951.108a7.841,7.841,0,0,0,.26,3.061l-.917.267a8.73,8.73,0,0,0,1.553,3.005l.167-.131.582-.463a7.767,7.767,0,0,0,2.349,1.978l-.461.839a8.64,8.64,0,0,0,3.226,1.023l.108-.951a7.778,7.778,0,0,0,3.059-.257l.267.916a8.749,8.749,0,0,0,3.007-1.556l0,0-.17-.218-.421-.53a7.749,7.749,0,0,0,1.976-2.346l.84.461a8.661,8.661,0,0,0,1.024-3.229l-.95-.108a7.763,7.763,0,0,0-.259-3.056l.916-.267a8.753,8.753,0,0,0-1.556-3.007l-.749.594a7.756,7.756,0,0,0-2.346-1.976l.461-.839a8.653,8.653,0,0,0-3.229-1.024l-.108.95a7.777,7.777,0,0,0-3.056.259l-.266-.916a8.7,8.7,0,0,0-3.007,1.556l0,.007.392.492.2.25a7.764,7.764,0,0,0-1.976,2.346Zm3.966,2.178a4.232,4.232,0,1,1,1.669,5.747A4.23,4.23,0,0,1,2162.28,1278.588Z" transform="translate(-2157.289 -1271.927)" fill="#1e5af9"/>
        </g>
        <g id="Grupo_62013" data-name="Grupo 62013" transform="translate(13.733)">
          <path id="Trazado_132456" data-name="Trazado 132456" d="M2218.68,1226.365a4.839,4.839,0,0,0-1.115,1.514l.481.227a4.357,4.357,0,0,0-.409,1.658l-.53-.023a4.853,4.853,0,0,0,.281,1.859l.112-.039.388-.14a4.322,4.322,0,0,0,.884,1.46l-.393.359a4.8,4.8,0,0,0,1.515,1.114l.227-.481a4.334,4.334,0,0,0,1.656.411l-.023.53a4.864,4.864,0,0,0,1.86-.282v0l-.051-.145-.127-.354a4.308,4.308,0,0,0,1.459-.883l.359.393a4.8,4.8,0,0,0,1.115-1.517l-.481-.226a4.32,4.32,0,0,0,.409-1.655l.53.023a4.855,4.855,0,0,0-.283-1.861l-.5.179a4.307,4.307,0,0,0-.883-1.459l.393-.359a4.812,4.812,0,0,0-1.517-1.115l-.226.481a4.32,4.32,0,0,0-1.655-.409l.023-.53a4.844,4.844,0,0,0-1.861.283v0l.118.329.06.167a4.317,4.317,0,0,0-1.459.882Zm1.7,1.854a2.352,2.352,0,1,1-.146,3.323A2.351,2.351,0,0,1,2220.379,1228.219Z" transform="translate(-2217.102 -1225.087)" fill="none" stroke="#12263f" stroke-miterlimit="10" stroke-width="0.582"/>
        </g>
      </g>
      <path id="Trazado_132457" data-name="Trazado 132457" d="M2291.241,1391.025H2187.257a.608.608,0,0,1-.608-.608h0a.608.608,0,0,1,.608-.608h103.984a.608.608,0,0,1,.608.608h0A.608.608,0,0,1,2291.241,1391.025Z" transform="translate(-2169.762 -1297.951)"/>
      <rect id="Rectángulo_29957" data-name="Rectángulo 29957" width="82.522" height="52.666" rx="8.349" transform="translate(28.486 36.24)" fill="url(#linear-gradient)"/>
      <rect id="Rectángulo_29958" data-name="Rectángulo 29958" width="51.954" height="81.81" rx="2" transform="translate(110.652 36.596) rotate(90)" fill="#00223d"/>
      <g id="Grupo_62015" data-name="Grupo 62015" transform="translate(31.273 38.369)">
        <rect id="Rectángulo_29959" data-name="Rectángulo 29959" width="77.031" height="48.163" fill="url(#linear-gradient)"/>
      </g>
      <path id="Trazado_132458" data-name="Trazado 132458" d="M2302.824,1376.951v1.283a1.533,1.533,0,0,1-.012.193,1.668,1.668,0,0,1-1.657,1.476h-91.537a1.668,1.668,0,0,1-1.657-1.476,1.489,1.489,0,0,1-.011-.193v-1.283Z" transform="translate(-2186.171 -1288.046)" fill="#00223d"/>
      <path id="Trazado_132459" data-name="Trazado 132459" d="M2302.852,1383.38a1.669,1.669,0,0,1-1.658,1.476h-91.537a1.668,1.668,0,0,1-1.657-1.476Z" transform="translate(-2186.21 -1292.999)" fill="#21587b"/>
      <g id="Grupo_62021" data-name="Grupo 62021" transform="translate(65.915 17.076)">
        <g id="Grupo_62019" data-name="Grupo 62019">
          <g id="Grupo_62018" data-name="Grupo 62018">
            <g id="Grupo_62017" data-name="Grupo 62017">
              <g id="Grupo_62016" data-name="Grupo 62016" transform="translate(0.579 0.848)">
                <path id="Trazado_132460" data-name="Trazado 132460" d="M2423.519,1067.828l-.035-.037c-4.809,5.151-12.483,9.373-20.695,11.172,0,.548-.016,3.587-.079,17.592-.083,18.683,17.7,27.812,20.457,29.213C2415.058,1092.941,2421.41,1073.086,2423.519,1067.828Z" transform="translate(-2402.71 -1067.791)" fill="#1e5af9"/>
                <path id="Trazado_132461" data-name="Trazado 132461" d="M2478.709,1067.951c-2.108,5.258-8.461,25.113-.351,57.941,2.674-1.231,20.679-10.346,20.762-29.029.063-14.005.076-17.044.079-17.592C2491.024,1077.4,2483.474,1073.129,2478.709,1067.951Z" transform="translate(-2457.9 -1067.914)" fill="#1e5af9"/>
              </g>
              <path id="Trazado_132462" data-name="Trazado 132462" d="M2421.213,1123.565l-.25-.127a45.068,45.068,0,0,1-11.443-8.234c-6.228-6.244-9.367-13.478-9.331-21.5l.029-6.5c.038-8.514.047-10.646.05-11.1l0-.464.453-.1c7.969-1.746,15.594-5.858,20.4-11l.423-.453.462.493c4.768,5.181,12.317,9.348,20.193,11.147l.453.1,0,.464c0,.549-.016,3.587-.079,17.592-.087,19.324-18.949,28.562-21.1,29.552Zm-19.79-46.985c0,1.012-.017,3.716-.048,10.635l-.029,6.5c-.073,16.409,13.68,25.364,19.889,28.566,3-1.43,20.092-10.384,20.173-28.387.052-11.849.071-15.848.076-17.131-7.723-1.854-15.106-5.917-19.947-10.973C2416.66,1070.789,2409.219,1074.785,2401.423,1076.581Z" transform="translate(-2400.189 -1064.097)" fill="#00223d"/>
            </g>
            <path id="Trazado_132463" data-name="Trazado 132463" d="M2431.86,1135.481l-.32-.166a39.249,39.249,0,0,1-9.313-6.811c-5.52-5.493-8.3-11.84-8.272-18.866l.069-15.467.52-.135a40.531,40.531,0,0,0,17.066-8.862l.491-.451.471.472-.454.527.474-.509a40.544,40.544,0,0,0,16.948,8.981l.519.138-.069,15.468c-.031,7.024-2.87,13.346-8.44,18.791a39.508,39.508,0,0,1-9.111,6.59Zm-16.449-40.234-.064,14.4c-.03,6.639,2.615,12.652,7.862,17.873a37.9,37.9,0,0,0,8.656,6.395,38.1,38.1,0,0,0,8.713-6.317c5.294-5.174,7.992-11.164,8.022-17.8l.064-14.4a42.106,42.106,0,0,1-16.587-8.77A42.1,42.1,0,0,1,2415.411,1095.247Zm16.7-9.523,0,0Z" transform="translate(-2410.795 -1079.988)" fill="url(#linear-gradient)"/>
          </g>
        </g>
        <g id="Grupo_62020" data-name="Grupo 62020" transform="translate(12.995 18.501)">
          <path id="Trazado_132464" data-name="Trazado 132464" d="M2456.79,1182.031v12.263c0,1.365,16.672,1.365,16.672,0v-12.263Zm9.18,6.512v3.476a.843.843,0,1,1-1.687,0v-3.484a2.051,2.051,0,1,1,1.687.008Z" transform="translate(-2456.79 -1173.455)" fill="url(#linear-gradient)"/>
          <path id="Trazado_132465" data-name="Trazado 132465" d="M2476.9,1152.379h-1.688v-.826a5.189,5.189,0,1,0-10.377,0v.826h-1.688v-.826a6.876,6.876,0,1,1,13.753,0Z" transform="translate(-2461.691 -1144.677)" fill="url(#linear-gradient)"/>
        </g>
      </g>
      <g id="Grupo_62030" data-name="Grupo 62030" transform="translate(38.713 48.499)">
        <g id="Grupo_62026" data-name="Grupo 62026" transform="translate(0 9.153)">
          <g id="Grupo_62023" data-name="Grupo 62023" transform="translate(0 6.01)">
            <rect id="Rectángulo_29960" data-name="Rectángulo 29960" width="22.921" height="4.53" fill="#fff"/>
            <g id="Grupo_62022" data-name="Grupo 62022" transform="translate(3.593 1.431)">
              <circle id="Elipse_4137" data-name="Elipse 4137" cx="0.989" cy="0.989" r="0.989" transform="translate(0 0)" fill="#00223d"/>
              <circle id="Elipse_4138" data-name="Elipse 4138" cx="0.989" cy="0.989" r="0.989" transform="translate(3.392 0)" fill="#00223d"/>
              <circle id="Elipse_4139" data-name="Elipse 4139" cx="0.989" cy="0.989" r="0.989" transform="translate(6.785 0)" fill="#00223d"/>
              <path id="Trazado_132466" data-name="Trazado 132466" d="M2343.661,1274.229a.989.989,0,1,1-.989-.99A.989.989,0,0,1,2343.661,1274.229Z" transform="translate(-2331.505 -1273.239)" fill="#00223d"/>
              <circle id="Elipse_4140" data-name="Elipse 4140" cx="0.989" cy="0.989" r="0.989" transform="translate(13.569 0)" fill="#00223d"/>
            </g>
          </g>
          <g id="Grupo_62025" data-name="Grupo 62025">
            <rect id="Rectángulo_29961" data-name="Rectángulo 29961" width="22.921" height="4.53" fill="#fff"/>
            <g id="Grupo_62024" data-name="Grupo 62024" transform="translate(3.593 1.431)">
              <circle id="Elipse_4141" data-name="Elipse 4141" cx="0.989" cy="0.989" r="0.989" fill="#00223d"/>
              <circle id="Elipse_4142" data-name="Elipse 4142" cx="0.989" cy="0.989" r="0.989" transform="translate(3.392)" fill="#00223d"/>
              <circle id="Elipse_4143" data-name="Elipse 4143" cx="0.989" cy="0.989" r="0.989" transform="translate(6.785)" fill="#00223d"/>
              <path id="Trazado_132467" data-name="Trazado 132467" d="M2343.661,1248.05a.989.989,0,1,1-.989-.99A.989.989,0,0,1,2343.661,1248.05Z" transform="translate(-2331.505 -1247.061)" fill="#00223d"/>
              <circle id="Elipse_4144" data-name="Elipse 4144" cx="0.989" cy="0.989" r="0.989" transform="translate(13.569)" fill="#00223d"/>
            </g>
          </g>
          <rect id="Rectángulo_29962" data-name="Rectángulo 29962" width="9.284" height="3.149" rx="1" transform="translate(6.725 13.76)" fill="#00223d"/>
        </g>
        <g id="Grupo_62029" data-name="Grupo 62029" transform="translate(7.834)">
          <circle id="Elipse_4145" data-name="Elipse 4145" cx="3.687" cy="3.687" r="3.687" fill="#fff"/>
          <g id="Grupo_62028" data-name="Grupo 62028" transform="translate(1.637 1.212)">
            <g id="Grupo_62027" data-name="Grupo 62027" transform="translate(0.892)">
              <path id="Trazado_132468" data-name="Trazado 132468" d="M2328.008,1208.567a1.165,1.165,0,0,0,.9-.443,1.135,1.135,0,0,0,.249-.72,1.159,1.159,0,1,0-2.317,0,1.133,1.133,0,0,0,.249.72A1.168,1.168,0,0,0,2328.008,1208.567Z" transform="translate(-2326.845 -1206.241)" fill="#00223d"/>
            </g>
            <path id="Trazado_132469" data-name="Trazado 132469" d="M2327.058,1219.524c0,.734-4.1.734-4.1,0v-.855c.162-1.169,3.764-1.218,4.1,0Z" transform="translate(-2322.96 -1215.126)" fill="#00223d"/>
          </g>
        </g>
      </g>
    </g>
    <g id="Grupo_62043" data-name="Grupo 62043" transform="translate(16.24 -1.912)">
      <g id="Grupo_62042" data-name="Grupo 62042" clip-path="url(#clip-path)">
        <ellipse id="Elipse_4146" data-name="Elipse 4146" cx="13.218" cy="13.365" rx="13.218" ry="13.365" transform="translate(7.335 11.336)" fill="#00223d"/>
        <g id="Grupo_62041" data-name="Grupo 62041" transform="translate(1.336 1.693)">
          <path id="Trazado_132470" data-name="Trazado 132470" d="M2260.3,1080.654l-19.407,4.316s-1.1-4.571-1.906-9.385c-.758-4.526-1.258-9.266-.345-10.622,1.885-2.794,13.561-5.531,15.877-2.911,1.163,1.315,2.614,5.994,3.771,10.33C2259.443,1076.686,2260.3,1080.654,2260.3,1080.654Z" transform="translate(-2228.159 -1044.468)" fill="#21587b"/>
          <path id="Trazado_132471" data-name="Trazado 132471" d="M2253.294,1055.5c.43,3.588-7.63,9.233-7.63,9.233s-9.116-4.466-9.913-6.294c-1.734-3.958,2.738-6.12,7.232-7.049S2252.751,1050.975,2253.294,1055.5Z" transform="translate(-2226.107 -1037.103)" fill="#21587b"/>
          <path id="Trazado_132472" data-name="Trazado 132472" d="M2249.159,1054.748c-2.753.6-5.694,2.7-4.858,4.463s7.343,5.812,7.343,5.812,5.783-5.345,5.457-8.127S2251.913,1054.151,2249.159,1054.748Z" transform="translate(-2232.582 -1039.625)" style="mix-blend-mode: soft-light;isolation: isolate"/>
          <g id="Grupo_62035" data-name="Grupo 62035" transform="translate(10.233 6.945)">
            <g id="Grupo_62031" data-name="Grupo 62031" transform="translate(0.951 1.408)">
              <path id="Trazado_132473" data-name="Trazado 132473" d="M2255.379,1036.861c.987,10.142-10.467,11.3-12.544,1.351C2241.085,1028,2254.471,1026.874,2255.379,1036.861Z" transform="translate(-2242.677 -1029.934)" fill="#f7a58e"/>
            </g>
            <g id="Grupo_62034" data-name="Grupo 62034">
              <path id="Trazado_132474" data-name="Trazado 132474" d="M2269.722,1063.623a1.244,1.244,0,0,1-.214-.017.086.086,0,1,1,.031-.17c.006,0,.6.1.851-.3.2-.333-.317-1.113-.535-1.386a.086.086,0,1,1,.134-.108c.088.11.852,1.089.548,1.584A.92.92,0,0,1,2269.722,1063.623Z" transform="translate(-2261.444 -1051.87)" fill="#b55b41"/>
              <path id="Trazado_132475" data-name="Trazado 132475" d="M2257.224,1063.609c.065.315-.035.6-.225.642s-.4-.185-.461-.5.036-.6.225-.642S2257.159,1063.293,2257.224,1063.609Z" transform="translate(-2251.925 -1052.967)"/>
              <path id="Trazado_132476" data-name="Trazado 132476" d="M2279.847,1058.9c.065.315-.035.6-.224.642s-.4-.185-.461-.5.035-.6.225-.642S2279.781,1058.584,2279.847,1058.9Z" transform="translate(-2268.594 -1049.498)"/>
              <path id="Trazado_132477" data-name="Trazado 132477" d="M2242.954,1065.182a1.059,1.059,0,1,1-1.252-.822A1.059,1.059,0,0,1,2242.954,1065.182Z" transform="translate(-2240.385 -1053.876)" fill="#f7a58e"/>
              <path id="Trazado_132478" data-name="Trazado 132478" d="M2289.614,1055.444a1.059,1.059,0,1,1-1.251-.822A1.059,1.059,0,0,1,2289.614,1055.444Z" transform="translate(-2274.767 -1046.701)" fill="#f7a58e"/>
              <path id="Trazado_132479" data-name="Trazado 132479" d="M2242.554,1038.889c-.375-1.568-.709-4.493,1.031-4.728,2.215-.3,6.866-1.18,8.314-1.519,1.178-.276,2.1,2.234,2.365,3.81a16.111,16.111,0,0,0-.166-3.5c-.2-.771-1.494-5.829-7.67-4.552s-5.189,6.69-4.945,7.842A12.084,12.084,0,0,0,2242.554,1038.889Z" transform="translate(-2240.694 -1027.244)" fill="#bd5f45"/>
              <path id="Trazado_132480" data-name="Trazado 132480" d="M2265.185,1076.79c-.375-.512.59-1.335,1.66-1.522s2.293.28,1.984.924-1.041-.007-1.854.2C2266.271,1076.58,2265.72,1077.522,2265.185,1076.79Z" transform="translate(-2258.25 -1061.899)" fill="#80412e"/>
              <path id="Trazado_132481" data-name="Trazado 132481" d="M2274,1054.167c.44-.859.721-1.517,1.456-1.659a.889.889,0,0,1,.884.2,1.207,1.207,0,0,0-.918.326C2275,1053.344,2274.788,1054.044,2274,1054.167Z" transform="translate(-2264.806 -1045.137)" fill="#bd5f45"/>
              <path id="Trazado_132482" data-name="Trazado 132482" d="M2252.936,1059.37a9.657,9.657,0,0,0,2.789.471,1.966,1.966,0,0,1-1.429.33A1.475,1.475,0,0,1,2252.936,1059.37Z" transform="translate(-2249.284 -1050.216)" fill="#bd5f45"/>
              <path id="Trazado_132483" data-name="Trazado 132483" d="M2264.02,1059.674a.475.475,0,0,1,.338.387.444.444,0,0,1-.216.412.827.827,0,0,0,.127-.38A.768.768,0,0,0,2264.02,1059.674Z" transform="translate(-2257.452 -1050.44)" fill="#b55b41"/>
              <path id="Trazado_132484" data-name="Trazado 132484" d="M2239.966,1032.353s-.664-6.681,5.351-7.609c4.94-1.021,7.193,3.136,7.657,4.666A29.213,29.213,0,0,0,2239.966,1032.353Z" transform="translate(-2239.712 -1024.585)" fill="#00223d"/>
              <path id="Trazado_132485" data-name="Trazado 132485" d="M2256.581,1052.824s1.016,4.844-2.284,4.625a.035.035,0,0,1,0,.007,10.425,10.425,0,0,0-5.288,1.188c0-.006,0-.011,0-.017-2.452,1.473-3.968-2.942-3.968-2.942a5.739,5.739,0,0,0,2.552,5.015c1.81,1.817,5.1,1.466,5.1,1.466a5.728,5.728,0,0,0,3.512-3.035A6.955,6.955,0,0,0,2256.581,1052.824Zm-4.121,7.992c-1.44.3-2.788-.008-2.922-.653s.878-1.645,2.313-1.941,2.764.213,2.9.864S2253.9,1060.518,2252.459,1060.816Z" transform="translate(-2243.448 -1045.392)" fill="#bd5f45"/>
              <g id="Grupo_62033" data-name="Grupo 62033" transform="translate(0 3.174)">
                <path id="Trazado_132486" data-name="Trazado 132486" d="M2240.2,1043.708s1.122-2.109,5.864-3.13,6.013.008,6.608.471c.564-.366.6-2.181-.275-3.458-1.471-2.157-13.094-.381-13.337,2.917A4.078,4.078,0,0,0,2240.2,1043.708Z" transform="translate(-2239.062 -1036.647)" fill="#1e5af9"/>
                <g id="Grupo_62032" data-name="Grupo 62032" clip-path="url(#clip-path-2)">
                  <path id="Trazado_132487" data-name="Trazado 132487" d="M2242.839,1048.076a1.941,1.941,0,0,1-.4-.458c-.118-.162-.231-.329-.335-.5a5.932,5.932,0,0,1-.515-1.06,4.471,4.471,0,0,1-.229-2.32,3.618,3.618,0,0,1,.455-1.219.082.082,0,0,0-.141-.083,4,4,0,0,0-.528,2.355,5.4,5.4,0,0,0,.763,2.318c.12.2.25.4.389.59a2.187,2.187,0,0,0,.462.517c.086.061.167-.081.082-.141Z" transform="translate(-2240.586 -1040.884)" fill="#12263f" style="mix-blend-mode: soft-light;isolation: isolate"/>
                  <path id="Trazado_132488" data-name="Trazado 132488" d="M2247.678,1044.744a1.908,1.908,0,0,1-.773-.882,5.351,5.351,0,0,1-.437-1.156,5.666,5.666,0,0,1-.065-2.48,5.431,5.431,0,0,1,.45-1.337c.046-.094-.094-.177-.141-.082a5.764,5.764,0,0,0,0,5.036,2.159,2.159,0,0,0,.883,1.042c.094.047.177-.094.082-.141Z" transform="translate(-2244.272 -1038.208)" fill="#12263f" style="mix-blend-mode: soft-light;isolation: isolate"/>
                  <path id="Trazado_132489" data-name="Trazado 132489" d="M2252.557,1042.772a7.234,7.234,0,0,1-.732-4.2,6.94,6.94,0,0,1,.261-1.2c.031-.1-.126-.144-.157-.043a7.388,7.388,0,0,0,.015,4.372,7.208,7.208,0,0,0,.472,1.148c.049.093.189.011.141-.082Z" transform="translate(-2248.305 -1037.111)" fill="#12263f" style="mix-blend-mode: soft-light;isolation: isolate"/>
                  <path id="Trazado_132490" data-name="Trazado 132490" d="M2257.588,1042.3a8.3,8.3,0,0,1-.645-4.036,8.065,8.065,0,0,1,.191-1.154c.024-.1-.133-.146-.158-.043a8.4,8.4,0,0,0,.471,5.317c.042.1.183.013.141-.083Z" transform="translate(-2252.094 -1036.916)" fill="#12263f" style="mix-blend-mode: soft-light;isolation: isolate"/>
                  <path id="Trazado_132491" data-name="Trazado 132491" d="M2261.9,1039.969l-.554-3.914q-.079-.557-.158-1.114c-.014-.1-.172-.059-.157.043l.554,3.914q.079.557.158,1.114c.014.1.172.059.157-.044Z" transform="translate(-2255.245 -1035.347)" fill="#12263f" style="mix-blend-mode: soft-light;isolation: isolate"/>
                  <path id="Trazado_132492" data-name="Trazado 132492" d="M2267.575,1039.013a17.018,17.018,0,0,0-.436-3.9q-.126-.545-.289-1.082a.082.082,0,0,0-.157.043,16.787,16.787,0,0,1,.688,3.834q.034.551.031,1.1a.082.082,0,0,0,.164,0Z" transform="translate(-2259.419 -1034.677)" fill="#12263f" style="mix-blend-mode: soft-light;isolation: isolate"/>
                  <path id="Trazado_132493" data-name="Trazado 132493" d="M2272.471,1037.636a11.739,11.739,0,0,0-.377-4.3,1.236,1.236,0,0,0-.478-.805.082.082,0,0,0-.083.141,1.071,1.071,0,0,1,.4.694q.141.5.236,1.009a11.555,11.555,0,0,1,.139,3.26c-.01.1.154.1.164,0Z" transform="translate(-2262.959 -1033.606)" fill="#12263f" style="mix-blend-mode: soft-light;isolation: isolate"/>
                  <path id="Trazado_132494" data-name="Trazado 132494" d="M2278.6,1038.715a10.36,10.36,0,0,0,.084-2.063c-.021-.345-.06-.69-.115-1.031a5.37,5.37,0,0,0-.2-.87,2.5,2.5,0,0,0-.474-.853c-.07-.079-.185.037-.115.116a3.083,3.083,0,0,1,.617,1.549,10.086,10.086,0,0,1,.14,1.987,9.978,9.978,0,0,1-.093,1.122c-.015.1.143.147.157.043Z" transform="translate(-2267.577 -1034.602)" fill="#12263f" style="mix-blend-mode: soft-light;isolation: isolate"/>
                  <path id="Trazado_132495" data-name="Trazado 132495" d="M2282.6,1039.265a8.432,8.432,0,0,0-.575-3.881,3.839,3.839,0,0,0-.563-.841c-.07-.079-.185.037-.116.116a5.334,5.334,0,0,1,1.087,3.45c.011.385.007.771,0,1.156a.082.082,0,0,0,.164,0Z" transform="translate(-2270.206 -1035.077)" fill="#12263f" style="mix-blend-mode: soft-light;isolation: isolate"/>
                  <path id="Trazado_132496" data-name="Trazado 132496" d="M2286.46,1037.252a8.238,8.238,0,0,0-.415-4.7,3.365,3.365,0,0,0-.635-1.131c-.073-.075-.189.04-.115.116a3.031,3.031,0,0,1,.562.984,8.08,8.08,0,0,1,.6,3.39,7.889,7.889,0,0,1-.158,1.3c-.021.1.136.146.157.044Z" transform="translate(-2273.111 -1032.776)" fill="#12263f" style="mix-blend-mode: soft-light;isolation: isolate"/>
                </g>
              </g>
            </g>
          </g>
          <g id="Grupo_62038" data-name="Grupo 62038" transform="translate(0 7.906)">
            <g id="Grupo_62036" data-name="Grupo 62036" transform="translate(8.292 0.015)">
              <path id="Trazado_132498" data-name="Trazado 132498" d="M2234.444,1033.92a9.249,9.249,0,0,1,.68-2.468c.3-.183.671.275.417,1.16S2234.966,1034.077,2234.444,1033.92Z" transform="translate(-2233.718 -1030.593)" fill="#21587b"/>
              <path id="Trazado_132499" data-name="Trazado 132499" d="M2234.111,1031.8a7.7,7.7,0,0,1,2.55-3.507c.377.033.567.327.314.712a11.949,11.949,0,0,1-.889,1.072l-.567,2.449Z" transform="translate(-2233.473 -1028.296)" fill="#21587b"/>
              <path id="Trazado_132500" data-name="Trazado 132500" d="M2231.778,1037.153s.977-2.6,1.673-3.123,1.243.3,1.365.894.47,2.836-.413,4.019S2231.192,1039.529,2231.778,1037.153Z" transform="translate(-2231.685 -1032.399)" fill="#21587b"/>
              <path id="Trazado_132501" data-name="Trazado 132501" d="M2237.3,1031.212a3.97,3.97,0,0,1,2.79-1.411.509.509,0,0,1-.012.818c-.478.45-1.339.153-1.476,1.538C2238.5,1032.777,2236.646,1032.507,2237.3,1031.212Z" transform="translate(-2235.721 -1029.404)" fill="#21587b"/>
            </g>
            <path id="Trazado_132502" data-name="Trazado 132502" d="M2210.069,1050.765l-2.986-.478c1.516-.277,1.717-1.621,3.5-3.319,2.536-2.085-1.371-6.159-3.017-4.755,0,0-8.018,6.029-7.355,10.473.489,3.271,8.08,7.052,11.238,7.893C2211.224,1059.563,2210.043,1050.895,2210.069,1050.765Z" transform="translate(-2200.175 -1038.323)" fill="#21587b"/>
            <g id="Grupo_62037" data-name="Grupo 62037" transform="translate(9.218)">
              <path id="Trazado_132503" data-name="Trazado 132503" d="M2235.237,1031.035a.034.034,0,0,1-.016,0,.034.034,0,0,1-.015-.046,6.911,6.911,0,0,1,2.221-2.743.035.035,0,0,1,.048.011.035.035,0,0,1-.011.048,6.839,6.839,0,0,0-2.2,2.714A.034.034,0,0,1,2235.237,1031.035Z" transform="translate(-2235.202 -1028.238)" fill="#21587b"/>
              <path id="Trazado_132504" data-name="Trazado 132504" d="M2236.811,1031.353a.034.034,0,0,1-.021-.007.035.035,0,0,1-.007-.049,3.719,3.719,0,0,1,3.021-1.606.035.035,0,0,1-.005.069,3.653,3.653,0,0,0-2.96,1.579A.034.034,0,0,1,2236.811,1031.353Z" transform="translate(-2236.362 -1029.307)" fill="#21587b"/>
            </g>
            <path id="Trazado_132505" data-name="Trazado 132505" d="M2242.087,1035.754a.033.033,0,0,1-.025-.011.034.034,0,0,1,0-.049,2.662,2.662,0,0,0,.553-1.814,8.91,8.91,0,0,0-.292-2.358c-.009-.014-.091-.206.416-.539a2.168,2.168,0,0,1,.257-.129c.31-.141.777-.354.844-.663a.539.539,0,0,0-.172-.461.035.035,0,0,1,.052-.046.6.6,0,0,1,.187.521c-.073.343-.56.565-.882.712a2.267,2.267,0,0,0-.248.123c-.453.3-.391.455-.39.456a8.9,8.9,0,0,1,.3,2.384,2.673,2.673,0,0,1-.575,1.863A.033.033,0,0,1,2242.087,1035.754Z" transform="translate(-2231.032 -1029.295)" fill="#21587b"/>
          </g>
          <g id="Grupo_62039" data-name="Grupo 62039" transform="translate(25.675 4.353)">
            <path id="Trazado_132506" data-name="Trazado 132506" d="M2298.172,1027.744l3.593-3.622c-1-1.034-2.079-3.246-3.557-5.218-1.934-2.581,2.667-5.264,4.173-3.71,0,0,6.931,6.671,5.849,11.033-.8,3.21-4.871,9.05-7.436,11.074C2300.6,1036.278,2298.248,1027.852,2298.172,1027.744Z" transform="translate(-2297.741 -1014.735)" fill="#21587b"/>
          </g>
          <path id="Trazado_132507" data-name="Trazado 132507" d="M2279.509,1069.508a.082.082,0,0,1-.054-.143l.316-.275c1.727-1.5,4.338-3.768,5.26-5.209a3.144,3.144,0,0,0-.164-4.1l-.061-.082a.082.082,0,0,1,.132-.1l.06.082a3.32,3.32,0,0,1,.171,4.285c-.934,1.461-3.452,3.647-5.291,5.244l-.316.275A.083.083,0,0,1,2279.509,1069.508Z" transform="translate(-2258.572 -1043.417)" fill="#12263f" style="mix-blend-mode: soft-light;isolation: isolate"/>
          <path id="Trazado_132508" data-name="Trazado 132508" d="M2243.9,1077.053a.082.082,0,0,1-.048-.016,16.837,16.837,0,0,0-3.012-1.544c-2.954-1.29-6.3-2.752-5.592-6.716a.081.081,0,0,1,.094-.066.082.082,0,0,1,.066.095c-.689,3.837,2.6,5.272,5.5,6.537a16.918,16.918,0,0,1,3.042,1.562.082.082,0,0,1-.047.148Z" transform="translate(-2225.946 -1050.153)" fill="#12263f" style="mix-blend-mode: soft-light;isolation: isolate"/>
          <path id="Trazado_132509" data-name="Trazado 132509" d="M2300.947,1013.9a1.174,1.174,0,0,0-.957-.955,4.558,4.558,0,0,0-2.846,2.155c-.14.373.238.808.475,1.094C2298.224,1016.916,2300.916,1014.754,2300.947,1013.9Z" transform="translate(-2271.603 -1009.057)" fill="#1e3d66"/>
          <g id="Grupo_62040" data-name="Grupo 62040" transform="translate(19.972)">
            <path id="Trazado_132510" data-name="Trazado 132510" d="M2298.992,1010.8c.18.479-1.855,2.21-2.16,1.724l-.988-1.683,1.815-1.448Z" transform="translate(-2290.64 -1006.443)" fill="#1e5af9"/>
            <path id="Trazado_132511" data-name="Trazado 132511" d="M2292.03,1004.645a5.265,5.265,0,0,1,.337.726,2.424,2.424,0,0,1,.182.742,2.261,2.261,0,0,1-2.409,1.637,1.8,1.8,0,0,1-.714-.286,5.833,5.833,0,0,1-1.192-1.177l-.013-.015c-.121-.156-.21-.275-.274-.35-.013-.015-.019-.023-.018-.037a.434.434,0,0,0-.037-.059c-.332-.614,2.831-2.4,3.576-1.884A2.563,2.563,0,0,1,2292.03,1004.645Z" transform="translate(-2284.763 -1002.362)" fill="#1e5af9"/>
            <path id="Trazado_132512" data-name="Trazado 132512" d="M2279,1003.769l5.489-2.933a1.46,1.46,0,0,0,2.338-1.216l-1.169.608-.609-1.172,1.148-.6a1.458,1.458,0,0,0-2.3,1.243l-5.489,2.933a1.461,1.461,0,0,0-2.338,1.215l1.169-.608.609,1.172-1.148.6a1.459,1.459,0,0,0,2.3-1.242Z" transform="translate(-2276.07 -998.194)" fill="#595959"/>
            <path id="Trazado_132513" data-name="Trazado 132513" d="M2288.628,1006.757s.49.767,2.1-.17,1.645-1.594,1.373-1.924S2287.747,1005.871,2288.628,1006.757Z" transform="translate(-2285.232 -1002.927)" fill="#1e5af9"/>
            <path id="Trazado_132514" data-name="Trazado 132514" d="M2290.207,1010.7c-.66.023-1.836-.2-2.164-.785-.4-.714,1.351-1.886,1.862-2.138.592.157.171.974-.375,1.257,1.216-.13,2.256.184,2.051.671A1.611,1.611,0,0,1,2290.207,1010.7Z" transform="translate(-2284.848 -1005.256)" fill="#1e5af9"/>
            <path id="Trazado_132515" data-name="Trazado 132515" d="M2291.832,1009.107a.037.037,0,0,1-.015,0,3.568,3.568,0,0,0-1.645-.142h-.006l-.008-.069h0c.027-.005.227-.055.478-.452a.641.641,0,0,0,.142-.5.4.4,0,0,0-.244-.227,5.6,5.6,0,0,0-1.634,1.292.035.035,0,0,1-.049,0,.034.034,0,0,1,0-.049,5.669,5.669,0,0,1,1.672-1.318l.014-.007.014.006a.469.469,0,0,1,.3.276.7.7,0,0,1-.149.562,1.416,1.416,0,0,1-.343.394,3.27,3.27,0,0,1,1.49.169.035.035,0,0,1,.018.046A.035.035,0,0,1,2291.832,1009.107Z" transform="translate(-2285.482 -1005.149)" fill="#1e5af9"/>
          </g>
          <path id="Trazado_132516" data-name="Trazado 132516" d="M2262.646,1112.54l-19.407,4.316s-1.1-4.571-1.906-9.385c2.288,1.938,7.458,3.894,13.38,2.065a10.472,10.472,0,0,0,5.923-5.268C2261.786,1108.572,2262.646,1112.54,2262.646,1112.54Z" transform="translate(-2230.502 -1076.354)" fill="#0f1e33"/>
        </g>
      </g>
    </g>
  </g>
</svg>
