<svg xmlns="http://www.w3.org/2000/svg" xmlns:xlink="http://www.w3.org/1999/xlink" width="91.927" height="91.927" viewBox="0 0 91.927 91.927">
  <defs>
    <radialGradient id="radial-gradient" cx="0.076" cy="0.019" r="1.465" gradientTransform="translate(0.001)" gradientUnits="objectBoundingBox">
      <stop offset="0" stop-color="#f6f6f7"/>
      <stop offset="0.477" stop-color="#f9f9fa"/>
      <stop offset="0.715" stop-color="#fff"/>
    </radialGradient>
  </defs>
  <g id="Grupo_64215" data-name="Grupo 64215" transform="translate(-217 -741.333)">
    <g id="Grupo_42274" data-name="Grupo 42274" transform="translate(142 768.333)">
      <g id="Grupo_18423" data-name="Grupo 18423" transform="translate(75 -27)">
        <g id="Grupo_18421" data-name="Grupo 18421">
          <g id="Grupo_18420" data-name="Grupo 18420">
            <g id="Grupo_18419" data-name="Grupo 18419">
              <path id="Trazado_40936" data-name="Trazado 40936" d="M286.55,2191.684a45.964,45.964,0,1,1-45.963-45.962A45.963,45.963,0,0,1,286.55,2191.684Z" transform="translate(-194.623 -2145.721)" fill="#fff"/>
            </g>
          </g>
        </g>
        <path id="Trazado_40937" data-name="Trazado 40937" d="M286.23,2191.334a45.963,45.963,0,1,0-45.963,45.965A45.782,45.782,0,0,0,286.23,2191.334Z" transform="translate(-194.303 -2145.372)" fill="url(#radial-gradient)"/>
        <path id="Trazado_40938" data-name="Trazado 40938" d="M272.56,2188.562a35.084,35.084,0,1,0-35.084,35.084A34.953,34.953,0,0,0,272.56,2188.562Z" transform="translate(-191.373 -2142.446)" fill="none" stroke="#1e5af9" stroke-miterlimit="10" stroke-width="4"/>
        <g id="Grupo_18422" data-name="Grupo 18422" transform="translate(8.143 25.805)">
          <path id="Trazado_40939" data-name="Trazado 40939" d="M279.682,2164.488a45.969,45.969,0,0,1-79.137,45.773,45.823,45.823,0,0,0,79.137-45.773Z" transform="translate(-200.545 -2164.488)" fill="#eceef0"/>
        </g>
      </g>
    </g>
    <g id="fdJcr5.tif" transform="translate(241.645 765.387)">
      <g id="Grupo_56634" data-name="Grupo 56634">
        <path id="Trazado_122991" data-name="Trazado 122991" d="M-490.865,248.4h-4.447c-.179.686-.334,1.341-.526,1.981A17.091,17.091,0,0,1-498,255.014a.519.519,0,0,0,.072.8c.95.91,1.871,1.85,2.749,2.722l-4.69,4.692-3.022-3.136a18.955,18.955,0,0,1-7.114,2.98v4.473h-6.622V263.08a18.883,18.883,0,0,1-7.057-2.929l-3.123,3.165-4.669-4.7,3.132-3.094a18.9,18.9,0,0,1-2.952-7.1h-4.487v-6.633h4.405a31.3,31.3,0,0,1,.944-3.045c.515-1.223,1.157-2.4,1.791-3.567.182-.338.22-.519-.082-.8-.957-.9-1.882-1.839-2.76-2.705l4.684-4.694,3.039,3.119a19,19,0,0,1,7.116-2.982v-4.468h6.624v4.468a18.733,18.733,0,0,1,7.053,2.929l3.134-3.153,4.69,4.724c-.853.849-1.738,1.767-2.665,2.642a.653.653,0,0,0-.131,1.02,16.735,16.735,0,0,1,2.456,5.953c.085.427.258.572.705.562,1.292-.034,2.585-.013,3.913-.013Zm-8.459,7.167a18.062,18.062,0,0,0,3.315-7.969h4.354v-5.026h-4.363a18,18,0,0,0-3.307-7.959l3.053-3.037-3.539-3.522-3.03,3.047a18.051,18.051,0,0,0-7.974-3.326v-4.344h-5.03v4.35a18.072,18.072,0,0,0-8.033,3.368l-2.933-3.049-3.609,3.6,2.965,2.878c-.7,1.326-1.457,2.549-2,3.86s-.866,2.705-1.316,4.16h-4.217v5.009h4.35a18.083,18.083,0,0,0,3.33,7.986l-3.047,3.032,3.537,3.531,3.037-3.047a18.066,18.066,0,0,0,7.957,3.3v4.342h5.03v-4.35a18.208,18.208,0,0,0,8.029-3.364l2.933,3.056,3.541-3.541Z" transform="translate(535.78 -222.644)" fill="#12263f" stroke="#000" stroke-miterlimit="10" stroke-width="0.5"/>
        <path id="Trazado_122992" data-name="Trazado 122992" d="M-506.552,238.883c0,1.694,0,3.387,0,5.081,0,1.069-.361,1.44-1.406,1.449a7.194,7.194,0,0,0-2.293.059c-.663.247-1.149.959-1.725,1.451a10.5,10.5,0,0,1-14.467-.933,1.513,1.513,0,0,0-1.354-.585,18.709,18.709,0,0,1-1.917,0,1.1,1.1,0,0,1-1.189-1.2q-.016-5.366,0-10.729a1.109,1.109,0,0,1,1.233-1.221c.733-.019,1.47.03,2.2-.021a1.294,1.294,0,0,0,.807-.361,10.55,10.55,0,0,1,15.9.038,1.138,1.138,0,0,0,.71.325c.75.042,1.5,0,2.257.019a1.118,1.118,0,0,1,1.246,1.263C-506.546,235.305-506.552,237.094-506.552,238.883Zm-12.21,5.735q5.306,0,10.613,0c.8,0,.807-.006.807-.83q0-5,0-10c0-.726-.019-.745-.775-.745q-10.643,0-21.286-.011c-.532,0-.733.148-.729.7q.028,5.084,0,10.165c0,.572.192.735.754.731C-525.838,244.607-522.3,244.62-518.762,244.618Zm7.123-12.4c-4.143-4.625-11.314-3.664-14.1,0Zm-14.144,13.23a9.529,9.529,0,0,0,14.1,0Z" transform="translate(541.19 -216.381)" fill="#12263f"/>
        <path id="Trazado_122993" data-name="Trazado 122993" d="M-527.558,235.68l-.864,1.183-.672-.786,1.1-.872-.089-.173h-1.436v-.807h1.411l.1-.158-1.151-.779.108-.247.743-.435.731.976.2-.116v-1.4h.811v1.413l.152.074.923-1.214.511.786.2.072-1.109.828.1.175h1.4v.8h-1.577l1.13,1.183-.688.393-.99-.946v1.542h-.815v-1.379Z" transform="translate(542.747 -212.167)" fill="#12263f"/>
        <path id="Trazado_122994" data-name="Trazado 122994" d="M-522.911,233.187l.731-.741.935,1.151.148-.1v-1.423h.781v1.565l1.221-1.13.494.558-1.092,1.142c.492,0,.849.011,1.206,0,.279-.011.408.078.41.384s-.091.45-.418.431a3.055,3.055,0,0,0-1.1.116l1.147.952-.671.57-.133.12-.866-1.166-.173.106v1.449h-.788v-1.586l-1.1,1.254-.568-.771,1.039-.842-.1-.175h-1.4v-.836h1.379l.055-.116Z" transform="translate(549.765 -212.161)" fill="#12263f"/>
        <path id="Trazado_122995" data-name="Trazado 122995" d="M-522.654,234.223h1.41v.783h-1.41l-.133.186,1.288.832-.794.686-.836-1.117-.239.141-.063,1.43h-.743l-.076-1.518-1.126,1.077-.543-.716,1.037-.851-.057-.12h-1.411v-.83h1.539l-1.109-1.17.64-.638.923,1.147.131-.063v-1.411h.815v1.4l.139.084.8-1.132.251.078.412.572.186.135-1.13.866Z" transform="translate(546.264 -212.164)" fill="#12263f"/>
      </g>
    </g>
  </g>
</svg>
