<svg xmlns="http://www.w3.org/2000/svg" xmlns:xlink="http://www.w3.org/1999/xlink" width="91.927" height="91.927" viewBox="0 0 91.927 91.927">
  <defs>
    <radialGradient id="radial-gradient" cx="0.076" cy="0.019" r="1.465" gradientTransform="translate(0.001)" gradientUnits="objectBoundingBox">
      <stop offset="0" stop-color="#f6f6f7"/>
      <stop offset="0.477" stop-color="#f9f9fa"/>
      <stop offset="0.715" stop-color="#fff"/>
    </radialGradient>
  </defs>
  <g id="Grupo_64217" data-name="Grupo 64217" transform="translate(-217 -741.333)">
    <g id="Grupo_42274" data-name="Grupo 42274" transform="translate(142 768.333)">
      <g id="Grupo_18423" data-name="Grupo 18423" transform="translate(75 -27)">
        <g id="Grupo_18421" data-name="Grupo 18421">
          <g id="Grupo_18420" data-name="Grupo 18420">
            <g id="Grupo_18419" data-name="Grupo 18419">
              <path id="Trazado_40936" data-name="Trazado 40936" d="M286.55,2191.684a45.964,45.964,0,1,1-45.963-45.962A45.963,45.963,0,0,1,286.55,2191.684Z" transform="translate(-194.623 -2145.721)" fill="#fff"/>
            </g>
          </g>
        </g>
        <path id="Trazado_40937" data-name="Trazado 40937" d="M286.23,2191.334a45.963,45.963,0,1,0-45.963,45.965A45.782,45.782,0,0,0,286.23,2191.334Z" transform="translate(-194.303 -2145.372)" fill="url(#radial-gradient)"/>
        <path id="Trazado_40938" data-name="Trazado 40938" d="M272.56,2188.562a35.084,35.084,0,1,0-35.084,35.084A34.953,34.953,0,0,0,272.56,2188.562Z" transform="translate(-191.373 -2142.446)" fill="none" stroke="#1e5af9" stroke-miterlimit="10" stroke-width="4"/>
        <g id="Grupo_18422" data-name="Grupo 18422" transform="translate(8.143 25.805)">
          <path id="Trazado_40939" data-name="Trazado 40939" d="M279.682,2164.488a45.969,45.969,0,0,1-79.137,45.773,45.823,45.823,0,0,0,79.137-45.773Z" transform="translate(-200.545 -2164.488)" fill="#eceef0"/>
        </g>
      </g>
    </g>
    <g id="PEZHOx.tif" transform="translate(244.886 767.388)">
      <g id="Grupo_61747" data-name="Grupo 61747">
        <path id="Trazado_132028" data-name="Trazado 132028" d="M1463.01,1468.012l1.6,5.311h2.117v1.3h-15.854v-1.29h2.113l1.6-5.323h-13.552a1.969,1.969,0,0,1-2.123-2.112q0-14.442,0-28.883a1.987,1.987,0,0,1,2.166-2.159l35.509,0a1.962,1.962,0,0,1,2.1,2.088q0,14.483,0,28.965a1.966,1.966,0,0,1-2.1,2.1q-6.525,0-13.051,0Zm-22.779-5.33h37.131v-.355q0-12.535,0-25.069c0-.906-.176-1.073-1.1-1.073h-35.01c-.824,0-1.02.2-1.02,1.029v25.469Zm37.125,1.381h-37.122v1.557c0,.9.172,1.07,1.057,1.07h33.019c.76,0,1.52,0,2.279-.006a.676.676,0,0,0,.762-.692C1477.371,1465.358,1477.357,1464.724,1477.357,1464.063Zm-15.747,3.95c-1.826,0-3.619,0-5.411.011a.423.423,0,0,0-.288.253c-.178.52-.324,1.051-.482,1.578-.341,1.143-.682,2.286-1.027,3.443h8.792Z" transform="translate(-1438.906 -1434.859)" fill="#12263f"/>
        <path id="Trazado_132029" data-name="Trazado 132029" d="M1610.593,1556.6q-4.909,0-9.819,0a1.967,1.967,0,0,1-2.122-2.112q0-6.858,0-13.716a1.963,1.963,0,0,1,2.081-2.071c2.431,0,4.861,0,7.292,0a1.989,1.989,0,0,1,1.48.624c.554.559,1.121,1.106,1.666,1.674a1.125,1.125,0,0,0,.881.361c2.8-.009,5.607-.005,8.411,0a1.96,1.96,0,0,1,2.053,2.056q.005,5.594,0,11.188a1.964,1.964,0,0,1-2.023,2.006q-4.951,0-9.9,0Zm-.008-1.323h9.651c.745,0,.957-.213.957-.963q0-5.324,0-10.647c0-.8-.2-.988-1.011-.988-2.761,0-5.523-.005-8.284,0a2.118,2.118,0,0,1-1.592-.66c-.542-.552-1.072-1.118-1.65-1.63a1.4,1.4,0,0,0-.83-.35c-2.305-.027-4.611-.017-6.917-.015-.718,0-.929.215-.93.945q0,6.628,0,13.257c0,.86.183,1.046,1.043,1.047Q1605.8,1555.275,1610.585,1555.272Z" transform="translate(-1585.388 -1530.073)" fill="#12263f"/>
        <path id="Trazado_132030" data-name="Trazado 132030" d="M1491.875,1470.9l-.979,1.012c-.359-.386-.714-.749-1.048-1.131a.371.371,0,0,0-.5-.1c-.659.28-1.323.549-1.995.8a.79.79,0,0,1-.5,0c-.492-.178-.96-.427-1.458-.582a1.428,1.428,0,0,1-.98-1c-.216-.608-.5-1.192-.765-1.8-.533,0-1.057-.014-1.58.012-.1.005-.244.147-.295.259-.3.652-.561,1.319-.865,1.968a.856.856,0,0,1-.388.381c-.588.271-1.185.524-1.792.745a.98.98,0,0,1-.617-.007c-.635-.227-1.262-.48-1.879-.755a.442.442,0,0,0-.6.134c-.255.29-.558.538-.808.831a.5.5,0,0,0-.082.416c.243.659.536,1.3.77,1.962a1.023,1.023,0,0,1-.01.654,5.57,5.57,0,0,1-.888,1.977,5.633,5.633,0,0,1-2,.939.609.609,0,0,0-.471.72c.039.41-.123.92.068,1.213a1.919,1.919,0,0,0,1.087.524,2.736,2.736,0,0,1,1.968,1.974,2.175,2.175,0,0,1,0,1.979c-.222.392-.338.843-.522,1.259a.371.371,0,0,0,.095.5,10.768,10.768,0,0,1,.849.849.374.374,0,0,0,.5.092c.634-.271,1.27-.537,1.918-.77a.983.983,0,0,1,.617-.01c.543.195,1.067.44,1.641.683l-.5,1.225c-.4-.16-.77-.332-1.157-.453a.963.963,0,0,0-.578,0c-.762.281-1.514.591-2.264.9a.386.386,0,0,1-.5-.1c-.691-.715-1.408-1.4-2.1-2.123a.525.525,0,0,1-.092-.449c.275-.75.6-1.481.869-2.233a1.381,1.381,0,0,0,0-.7,1.8,1.8,0,0,0-1.385-1.449,10.194,10.194,0,0,1-1.557-.665.527.527,0,0,1-.262-.375q-.032-1.512,0-3.025a.526.526,0,0,1,.268-.371c.7-.325,1.406-.637,2.125-.916a1.137,1.137,0,0,0,.593-.624,1.755,1.755,0,0,0,.022-1.822c-.278-.519-.444-1.1-.674-1.642a.382.382,0,0,1,.083-.5q1.073-1.036,2.109-2.11a.386.386,0,0,1,.5-.084c.712.3,1.433.57,2.143.872a1.069,1.069,0,0,0,.786.012,1.936,1.936,0,0,0,1.408-1.392c.163-.537.444-1.038.649-1.564a.382.382,0,0,1,.427-.279c.98.013,1.961.015,2.941,0a.409.409,0,0,1,.447.311c.3.728.6,1.454.933,2.164a1.291,1.291,0,0,0,.465.465,1.9,1.9,0,0,0,2.085.032,12.431,12.431,0,0,1,1.571-.632.412.412,0,0,1,.353.043C1490.694,1469.718,1491.287,1470.314,1491.875,1470.9Z" transform="translate(-1468.178 -1464.107)" fill="#12263f"/>
        <path id="Trazado_132031" data-name="Trazado 132031" d="M1538.375,1539.4l.563,1.123a5.385,5.385,0,0,0,0,9.572l-.561,1.129a6.565,6.565,0,0,1-.006-11.825Z" transform="translate(-1526.718 -1530.717)" fill="#12263f"/>
        <path id="Trazado_132032" data-name="Trazado 132032" d="M1649.533,1620.5l-.957.92-3.658-3.7,3.717-3.716.818.869-2.79,2.773Z" transform="translate(-1627.815 -1599.127)" fill="#12263f"/>
        <path id="Trazado_132033" data-name="Trazado 132033" d="M1788.757,1617.287l-3.722,3.724-.893-.854,2.809-2.8-2.882-2.828.99-.958Z" transform="translate(-1755.415 -1598.736)" fill="#12263f"/>
        <path id="Trazado_132034" data-name="Trazado 132034" d="M1720.607,1629.38l-1.168-.656,3.319-5.972,1.172.648Z" transform="translate(-1696.15 -1607.153)" fill="#12263f"/>
      </g>
    </g>
  </g>
</svg>
