<svg xmlns="http://www.w3.org/2000/svg" xmlns:xlink="http://www.w3.org/1999/xlink" width="272.849" height="361.707" viewBox="0 0 272.849 361.707">
  <defs>
    <linearGradient id="linear-gradient" x1="0.5" x2="0.5" y2="1" gradientUnits="objectBoundingBox">
      <stop offset="0" stop-color="#fff"/>
      <stop offset="1" stop-color="#f8f8f8"/>
    </linearGradient>
    <linearGradient id="linear-gradient-2" x1="0.5" x2="0.5" y2="1" gradientUnits="objectBoundingBox">
      <stop offset="0" stop-color="#fff"/>
      <stop offset="1" stop-color="#d2e6ee"/>
    </linearGradient>
  </defs>
  <g id="Grupo_62058" data-name="Grupo 62058" transform="translate(-134.909 -971.945)">
    <g id="Grupo_57070" data-name="Grupo 57070" transform="translate(134.909 971.945)">
      <g id="Grupo_57069" data-name="Grupo 57069" transform="translate(0 0)" opacity="0.7" style="mix-blend-mode: multiply;isolation: isolate">
        <rect id="Rectángulo_29501" data-name="Rectángulo 29501" width="272.849" height="361.707" rx="9.04" transform="translate(0 0)" fill="#fff" opacity="0"/>
        <rect id="Rectángulo_29502" data-name="Rectángulo 29502" width="270.375" height="359.234" rx="9.04" transform="translate(1.237 1.237)" fill="#f3f3f3" opacity="0.048"/>
        <rect id="Rectángulo_29503" data-name="Rectángulo 29503" width="267.902" height="356.76" rx="9.04" transform="translate(2.473 2.474)" fill="#e7e7e7" opacity="0.095"/>
        <rect id="Rectángulo_29504" data-name="Rectángulo 29504" width="265.428" height="354.287" rx="9.04" transform="translate(3.71 3.71)" fill="#dbdbdb" opacity="0.143"/>
        <rect id="Rectángulo_29505" data-name="Rectángulo 29505" width="262.955" height="351.813" rx="9.04" transform="translate(4.947 4.947)" fill="#cecece" opacity="0.19"/>
        <rect id="Rectángulo_29506" data-name="Rectángulo 29506" width="260.481" height="349.34" rx="9.04" transform="translate(6.184 6.184)" fill="#c2c2c2" opacity="0.238"/>
        <rect id="Rectángulo_29507" data-name="Rectángulo 29507" width="258.008" height="346.866" rx="9.04" transform="translate(7.42 7.42)" fill="#b6b6b6" opacity="0.286"/>
        <rect id="Rectángulo_29508" data-name="Rectángulo 29508" width="255.534" height="344.393" rx="9.04" transform="translate(8.657 8.657)" fill="#aaa" opacity="0.333"/>
        <rect id="Rectángulo_29509" data-name="Rectángulo 29509" width="253.061" height="341.919" rx="9.04" transform="translate(9.894 9.894)" fill="#9e9e9e" opacity="0.381"/>
        <rect id="Rectángulo_29510" data-name="Rectángulo 29510" width="250.587" height="339.446" rx="9.04" transform="translate(11.131 11.131)" fill="#929292" opacity="0.429"/>
        <rect id="Rectángulo_29511" data-name="Rectángulo 29511" width="248.114" height="336.972" rx="9.04" transform="translate(12.367 12.367)" fill="#868686" opacity="0.476"/>
        <rect id="Rectángulo_29512" data-name="Rectángulo 29512" width="245.64" height="334.499" rx="9.04" transform="translate(13.604 13.604)" fill="#797979" opacity="0.524"/>
        <rect id="Rectángulo_29513" data-name="Rectángulo 29513" width="243.167" height="332.025" rx="9.04" transform="translate(14.841 14.841)" fill="#6d6d6d" opacity="0.571"/>
        <rect id="Rectángulo_29514" data-name="Rectángulo 29514" width="240.693" height="329.552" rx="9.04" transform="translate(16.078 16.078)" fill="#616161" opacity="0.619"/>
        <rect id="Rectángulo_29515" data-name="Rectángulo 29515" width="238.22" height="327.078" rx="9.04" transform="translate(17.314 17.314)" fill="#555" opacity="0.667"/>
        <rect id="Rectángulo_29516" data-name="Rectángulo 29516" width="235.746" height="324.605" rx="9.04" transform="translate(18.551 18.551)" fill="#494949" opacity="0.714"/>
        <rect id="Rectángulo_29517" data-name="Rectángulo 29517" width="233.273" height="322.131" rx="9.04" transform="translate(19.788 19.788)" fill="#3d3d3d" opacity="0.762"/>
        <rect id="Rectángulo_29518" data-name="Rectángulo 29518" width="230.799" height="319.658" rx="9.04" transform="translate(21.025 21.025)" fill="#313131" opacity="0.81"/>
        <rect id="Rectángulo_29519" data-name="Rectángulo 29519" width="228.326" height="317.184" rx="9.04" transform="translate(22.261 22.261)" fill="#242424" opacity="0.857"/>
        <rect id="Rectángulo_29520" data-name="Rectángulo 29520" width="225.852" height="314.711" rx="9.04" transform="translate(23.498 23.498)" fill="#181818" opacity="0.905"/>
        <rect id="Rectángulo_29521" data-name="Rectángulo 29521" width="223.379" height="312.237" rx="9.04" transform="translate(24.735 24.735)" fill="#0c0c0c" opacity="0.952"/>
        <rect id="Rectángulo_29522" data-name="Rectángulo 29522" width="220.905" height="309.764" rx="9.04" transform="translate(25.972 25.972)"/>
      </g>
      <rect id="Rectángulo_29523" data-name="Rectángulo 29523" width="252.868" height="341.726" transform="translate(8.793 10.308)" fill="url(#linear-gradient)"/>
      <path id="Trazado_123976" data-name="Trazado 123976" d="M185.015,982.253H437.883v12.858H334.317l-23.373,12.322-24.488-12.59-101.441.268Z" transform="translate(-176.222 -971.945)" fill="#37a3a5"/>
      <path id="Trazado_123977" data-name="Trazado 123977" d="M284.548,988.8,272,998.621a3.623,3.623,0,0,1-4.432.027L254.3,988.517" transform="translate(-135.895 -971.945)" fill="none" stroke="#12263f" stroke-linecap="round" stroke-miterlimit="10" stroke-width="0.806"/>
      <path id="Trazado_133722" data-name="Trazado 133722" d="M26.715,11.688a4.58,4.58,0,0,1-.168,1.324,2.959,2.959,0,0,1-.535.957q-.375.461-1.094,1.215a2.674,2.674,0,0,0-.8,1.527L24.1,17a1.752,1.752,0,0,0,.453,1.3,1.775,1.775,0,0,0,1.3.449,1.821,1.821,0,0,0,1.27-.441,1.48,1.48,0,0,0,.488-1.152h1.445a2.7,2.7,0,0,1-.895,2.055,3.3,3.3,0,0,1-2.309.8,3.326,3.326,0,0,1-2.367-.785,2.85,2.85,0,0,1-.836-2.184A4.076,4.076,0,0,1,23.9,14.32l.852-.883a2.638,2.638,0,0,0,.516-1.75Zm.063-2.473a.869.869,0,0,1-.215.6.8.8,0,0,1-.637.243.817.817,0,0,1-.641-.243.86.86,0,0,1-.219-.6.821.821,0,0,1,.219-.581.832.832,0,0,1,.641-.235.819.819,0,0,1,.637.235A.83.83,0,0,1,26.777,9.215ZM39.7,11.68a7.026,7.026,0,0,1-.523,2.84,4.388,4.388,0,0,1-1.469,1.863l2.031,1.594-1.023.945-2.4-1.906a4.88,4.88,0,0,1-1.187.141,4.244,4.244,0,0,1-4-2.543,6.752,6.752,0,0,1-.59-2.832v-.82a6.953,6.953,0,0,1,.57-2.9,4.218,4.218,0,0,1,4-2.594,4.4,4.4,0,0,1,2.418.664,4.284,4.284,0,0,1,1.605,1.91,7.016,7.016,0,0,1,.563,2.91Zm-1.5-.734a5.162,5.162,0,0,0-.8-3.1,2.89,2.89,0,0,0-4.516-.008,5,5,0,0,0-.84,3v.836a5.147,5.147,0,0,0,.816,3.078,2.885,2.885,0,0,0,4.52.066,5.079,5.079,0,0,0,.82-3.035ZM47,16.164a3.07,3.07,0,0,1-2.477.992,2.628,2.628,0,0,1-2.059-.785,3.4,3.4,0,0,1-.715-2.324v-5.5H43.2v5.461q0,1.922,1.563,1.922a2.163,2.163,0,0,0,2.2-1.234V8.547H48.41V17H47.035Zm7.109.992a3.693,3.693,0,0,1-2.8-1.129,4.19,4.19,0,0,1-1.078-3.02v-.266a5.073,5.073,0,0,1,.48-2.246,3.748,3.748,0,0,1,1.344-1.547,3.378,3.378,0,0,1,1.871-.559A3.166,3.166,0,0,1,56.5,9.477a4.7,4.7,0,0,1,.914,3.109v.6H51.684a3,3,0,0,0,.73,2.02,2.3,2.3,0,0,0,1.777.77,2.517,2.517,0,0,0,1.3-.312,3.259,3.259,0,0,0,.93-.828l.883.688A3.55,3.55,0,0,1,54.113,17.156Zm-.18-7.578a1.928,1.928,0,0,0-1.469.637A3.1,3.1,0,0,0,51.73,12h4.234v-.109a2.753,2.753,0,0,0-.594-1.707A1.815,1.815,0,0,0,53.934,9.578ZM54.637,5h1.75L54.293,7.3l-1.164,0ZM64.41,8.547l.047,1.063a3.08,3.08,0,0,1,2.531-1.219q2.68,0,2.7,3.023V17H68.246V11.406a1.946,1.946,0,0,0-.418-1.352,1.675,1.675,0,0,0-1.277-.437,2.086,2.086,0,0,0-1.234.375,2.546,2.546,0,0,0-.828.984V17H63.043V8.547Zm10.969,8.609a3.693,3.693,0,0,1-2.8-1.129,4.19,4.19,0,0,1-1.078-3.02v-.266a5.073,5.073,0,0,1,.48-2.246,3.748,3.748,0,0,1,1.344-1.547A3.378,3.378,0,0,1,75.2,8.391a3.166,3.166,0,0,1,2.563,1.086,4.7,4.7,0,0,1,.914,3.109v.6H72.949a3,3,0,0,0,.73,2.02,2.3,2.3,0,0,0,1.777.77,2.517,2.517,0,0,0,1.3-.312,3.259,3.259,0,0,0,.93-.828l.883.688A3.55,3.55,0,0,1,75.379,17.156ZM75.2,9.578a1.928,1.928,0,0,0-1.469.637A3.1,3.1,0,0,0,73,12H77.23v-.109a2.753,2.753,0,0,0-.594-1.707A1.815,1.815,0,0,0,75.2,9.578Zm8.539,6.4a2.082,2.082,0,0,0,1.352-.469,1.649,1.649,0,0,0,.641-1.172H87.1a2.621,2.621,0,0,1-.5,1.383,3.293,3.293,0,0,1-1.23,1.047,3.55,3.55,0,0,1-1.629.391A3.482,3.482,0,0,1,80.992,16a4.59,4.59,0,0,1-1.02-3.152v-.242a5.089,5.089,0,0,1,.453-2.2,3.451,3.451,0,0,1,1.3-1.492,3.7,3.7,0,0,1,2-.531,3.39,3.39,0,0,1,2.363.852,3.043,3.043,0,0,1,1,2.211H85.73a1.992,1.992,0,0,0-.621-1.348,1.932,1.932,0,0,0-1.379-.527,2.023,2.023,0,0,0-1.707.793,3.724,3.724,0,0,0-.605,2.293v.273a3.65,3.65,0,0,0,.6,2.25A2.033,2.033,0,0,0,83.738,15.977Zm8.492,1.18a3.693,3.693,0,0,1-2.8-1.129,4.19,4.19,0,0,1-1.078-3.02v-.266a5.073,5.073,0,0,1,.48-2.246A3.748,3.748,0,0,1,90.18,8.949a3.378,3.378,0,0,1,1.871-.559,3.166,3.166,0,0,1,2.563,1.086,4.7,4.7,0,0,1,.914,3.109v.6H89.8a3,3,0,0,0,.73,2.02,2.3,2.3,0,0,0,1.777.77,2.517,2.517,0,0,0,1.3-.312,3.259,3.259,0,0,0,.93-.828l.883.688A3.55,3.55,0,0,1,92.23,17.156Zm-.18-7.578a1.928,1.928,0,0,0-1.469.637A3.1,3.1,0,0,0,89.848,12h4.234v-.109a2.753,2.753,0,0,0-.594-1.707A1.815,1.815,0,0,0,92.051,9.578Zm10.07,5.18a1.064,1.064,0,0,0-.441-.91,4.249,4.249,0,0,0-1.539-.559,7.277,7.277,0,0,1-1.742-.562,2.479,2.479,0,0,1-.953-.781,1.869,1.869,0,0,1-.309-1.078,2.193,2.193,0,0,1,.879-1.758,3.432,3.432,0,0,1,2.246-.719,3.532,3.532,0,0,1,2.332.742,2.357,2.357,0,0,1,.895,1.9h-1.453a1.3,1.3,0,0,0-.5-1.023,1.888,1.888,0,0,0-1.27-.43,1.976,1.976,0,0,0-1.234.344,1.082,1.082,0,0,0-.445.9.877.877,0,0,0,.414.789,5.1,5.1,0,0,0,1.5.508,7.8,7.8,0,0,1,1.754.578,2.558,2.558,0,0,1,1,.809,1.988,1.988,0,0,1,.324,1.152,2.163,2.163,0,0,1-.906,1.816,3.8,3.8,0,0,1-2.352.684,4.257,4.257,0,0,1-1.8-.359,2.922,2.922,0,0,1-1.223-1,2.42,2.42,0,0,1-.441-1.395h1.445a1.5,1.5,0,0,0,.582,1.152,2.258,2.258,0,0,0,1.434.426,2.331,2.331,0,0,0,1.316-.332A1.02,1.02,0,0,0,102.121,14.758ZM107.02,17h-1.445V8.547h1.445ZM105.457,6.3a.863.863,0,0,1,.215-.594.807.807,0,0,1,.637-.242.819.819,0,0,1,.641.242.854.854,0,0,1,.219.594.826.826,0,0,1-.219.586.834.834,0,0,1-.641.234.821.821,0,0,1-.637-.234A.834.834,0,0,1,105.457,6.3Zm5.836.2V8.547h1.578V9.664h-1.578v5.249a1.173,1.173,0,0,0,.211.763.888.888,0,0,0,.719.254,3.5,3.5,0,0,0,.688-.094V17a4.215,4.215,0,0,1-1.109.155,1.8,1.8,0,0,1-1.461-.586,2.517,2.517,0,0,1-.492-1.664V9.664h-1.539V8.547h1.539V6.5Zm2.727,6.2a4.993,4.993,0,0,1,.488-2.234,3.643,3.643,0,0,1,1.359-1.531,3.7,3.7,0,0,1,1.988-.539,3.565,3.565,0,0,1,2.793,1.2,4.6,4.6,0,0,1,1.066,3.18v.1a5.036,5.036,0,0,1-.473,2.215,3.589,3.589,0,0,1-1.352,1.527,3.743,3.743,0,0,1-2.02.547,3.556,3.556,0,0,1-2.785-1.2A4.575,4.575,0,0,1,114.02,12.8Zm1.453.172a3.616,3.616,0,0,0,.652,2.258,2.211,2.211,0,0,0,3.5-.012,3.955,3.955,0,0,0,.648-2.418,3.61,3.61,0,0,0-.66-2.254,2.1,2.1,0,0,0-1.754-.863,2.075,2.075,0,0,0-1.727.852A3.925,3.925,0,0,0,115.473,12.867Zm19.156,0a5.062,5.062,0,0,1-.883,3.109,2.829,2.829,0,0,1-2.391,1.18,3.1,3.1,0,0,1-2.422-.977v4.07h-1.445V8.547h1.32l.07.938a2.977,2.977,0,0,1,2.453-1.094,2.882,2.882,0,0,1,2.41,1.148,5.117,5.117,0,0,1,.887,3.2Zm-1.445-.164a3.735,3.735,0,0,0-.609-2.258,1.963,1.963,0,0,0-1.672-.828,2.125,2.125,0,0,0-1.969,1.164V14.82a2.129,2.129,0,0,0,1.984,1.156,1.954,1.954,0,0,0,1.652-.824A4.077,4.077,0,0,0,133.184,12.7Zm7.367-2.859a4.331,4.331,0,0,0-.711-.055A1.9,1.9,0,0,0,137.91,11v6h-1.445V8.547h1.406l.023.977a2.251,2.251,0,0,1,2.016-1.133,1.477,1.477,0,0,1,.641.109Zm.789,2.852a4.993,4.993,0,0,1,.488-2.234,3.642,3.642,0,0,1,1.359-1.531,3.7,3.7,0,0,1,1.988-.539,3.565,3.565,0,0,1,2.793,1.2,4.6,4.6,0,0,1,1.066,3.18v.1a5.036,5.036,0,0,1-.473,2.215,3.589,3.589,0,0,1-1.352,1.527,3.743,3.743,0,0,1-2.02.547,3.556,3.556,0,0,1-2.785-1.2A4.575,4.575,0,0,1,141.34,12.8Zm1.453.172a3.616,3.616,0,0,0,.652,2.258,2.211,2.211,0,0,0,3.5-.012,3.954,3.954,0,0,0,.648-2.418,3.61,3.61,0,0,0-.66-2.254,2.1,2.1,0,0,0-1.754-.863,2.075,2.075,0,0,0-1.727.852A3.925,3.925,0,0,0,142.793,12.867ZM152.809,6.5V8.547h1.578V9.664h-1.578v5.249a1.173,1.173,0,0,0,.211.763.888.888,0,0,0,.719.254,3.5,3.5,0,0,0,.688-.094V17a4.215,4.215,0,0,1-1.109.155,1.8,1.8,0,0,1-1.461-.586,2.517,2.517,0,0,1-.492-1.664V9.664h-1.539V8.547h1.539V6.5Zm6.773,10.656a3.693,3.693,0,0,1-2.8-1.129,4.19,4.19,0,0,1-1.078-3.02v-.266a5.073,5.073,0,0,1,.48-2.246,3.748,3.748,0,0,1,1.344-1.547,3.378,3.378,0,0,1,1.871-.559,3.166,3.166,0,0,1,2.563,1.086,4.7,4.7,0,0,1,.914,3.109v.6h-5.727a3,3,0,0,0,.73,2.02,2.3,2.3,0,0,0,1.777.77,2.517,2.517,0,0,0,1.3-.312,3.258,3.258,0,0,0,.93-.828l.883.688A3.55,3.55,0,0,1,159.582,17.156Zm-.18-7.578a1.928,1.928,0,0,0-1.469.637A3.1,3.1,0,0,0,157.2,12h4.234v-.109a2.753,2.753,0,0,0-.594-1.707A1.815,1.815,0,0,0,159.4,9.578Zm4.8,3.125a4.968,4.968,0,0,1,.914-3.145,3.151,3.151,0,0,1,4.836-.074l.07-.937h1.32V16.8a3.439,3.439,0,0,1-.973,2.586,3.589,3.589,0,0,1-2.613.945,4.348,4.348,0,0,1-1.789-.391,3.08,3.08,0,0,1-1.336-1.07l.75-.867a2.826,2.826,0,0,0,2.273,1.148,2.214,2.214,0,0,0,1.645-.594,2.269,2.269,0,0,0,.59-1.672v-.727a2.971,2.971,0,0,1-2.367,1,2.887,2.887,0,0,1-2.4-1.2A5.224,5.224,0,0,1,164.207,12.7Zm1.453.164a3.79,3.79,0,0,0,.586,2.246,1.9,1.9,0,0,0,1.641.816,2.117,2.117,0,0,0,2.008-1.242V10.828A2.142,2.142,0,0,0,167.9,9.617a1.921,1.921,0,0,0-1.648.82A4.128,4.128,0,0,0,165.66,12.867Zm11.375,4.289a3.693,3.693,0,0,1-2.8-1.129,4.19,4.19,0,0,1-1.078-3.02v-.266a5.073,5.073,0,0,1,.48-2.246,3.748,3.748,0,0,1,1.344-1.547,3.378,3.378,0,0,1,1.871-.559,3.166,3.166,0,0,1,2.563,1.086,4.7,4.7,0,0,1,.914,3.109v.6h-5.727a3,3,0,0,0,.73,2.02,2.3,2.3,0,0,0,1.777.77,2.517,2.517,0,0,0,1.3-.312,3.258,3.258,0,0,0,.93-.828l.883.688A3.55,3.55,0,0,1,177.035,17.156Zm-.18-7.578a1.928,1.928,0,0,0-1.469.637A3.1,3.1,0,0,0,174.652,12h4.234v-.109a2.753,2.753,0,0,0-.594-1.707A1.815,1.815,0,0,0,176.855,9.578Zm9.234.266a4.331,4.331,0,0,0-.711-.055A1.9,1.9,0,0,0,183.449,11v6H182V8.547h1.406l.023.977a2.251,2.251,0,0,1,2.016-1.133,1.477,1.477,0,0,1,.641.109Zm3.023,3.94a4.663,4.663,0,0,1,.211-1.466,3.761,3.761,0,0,1,.8-1.193l1.023-1.053a2.36,2.36,0,0,0,.656-1.59,1.815,1.815,0,0,0-.43-1.282,1.62,1.62,0,0,0-1.25-.464,1.881,1.881,0,0,0-1.281.422,1.426,1.426,0,0,0-.484,1.133H186.91a2.632,2.632,0,0,1,.9-2.043,3.374,3.374,0,0,1,2.309-.777,3.185,3.185,0,0,1,2.3.792,2.87,2.87,0,0,1,.824,2.172,3.926,3.926,0,0,1-1.266,2.691l-.852.842a2.623,2.623,0,0,0-.57,1.818Zm-.062,2.482a.861.861,0,0,1,.215-.6.81.81,0,0,1,.637-.241.822.822,0,0,1,.641.241.852.852,0,0,1,.219.6.824.824,0,0,1-.219.588.837.837,0,0,1-.641.233.774.774,0,0,1-.852-.82ZM47.074,35.688a4.58,4.58,0,0,1-.168,1.324,2.959,2.959,0,0,1-.535.957q-.375.461-1.094,1.215a2.674,2.674,0,0,0-.8,1.527L44.457,41a1.752,1.752,0,0,0,.453,1.3,1.775,1.775,0,0,0,1.3.449,1.821,1.821,0,0,0,1.27-.441,1.48,1.48,0,0,0,.488-1.152h1.445a2.7,2.7,0,0,1-.895,2.055,3.85,3.85,0,0,1-4.676.012,2.85,2.85,0,0,1-.836-2.184,4.076,4.076,0,0,1,1.25-2.719l.852-.883a2.638,2.638,0,0,0,.516-1.75Zm.063-2.473a.869.869,0,0,1-.215.6.8.8,0,0,1-.637.243.817.817,0,0,1-.641-.243.86.86,0,0,1-.219-.6.821.821,0,0,1,.219-.581.832.832,0,0,1,.641-.235.819.819,0,0,1,.637.235A.83.83,0,0,1,47.137,33.215ZM60.059,35.68a7.026,7.026,0,0,1-.523,2.84,4.388,4.388,0,0,1-1.469,1.863L60.1,41.977l-1.023.945-2.4-1.906a4.88,4.88,0,0,1-1.187.141,4.244,4.244,0,0,1-4-2.543,6.752,6.752,0,0,1-.59-2.832v-.82a6.953,6.953,0,0,1,.57-2.9,4.218,4.218,0,0,1,4-2.594,4.4,4.4,0,0,1,2.418.664,4.284,4.284,0,0,1,1.605,1.91,7.016,7.016,0,0,1,.563,2.91Zm-1.5-.734a5.162,5.162,0,0,0-.8-3.1,2.89,2.89,0,0,0-4.516-.008,5,5,0,0,0-.84,3v.836a5.147,5.147,0,0,0,.816,3.078,2.885,2.885,0,0,0,4.52.066,5.079,5.079,0,0,0,.82-3.035Zm8.8,5.219a3.07,3.07,0,0,1-2.477.992,2.628,2.628,0,0,1-2.059-.785,3.4,3.4,0,0,1-.715-2.324v-5.5h1.445v5.461q0,1.922,1.563,1.922a2.163,2.163,0,0,0,2.2-1.234V32.547H68.77V41H67.395Zm7.109.992a3.693,3.693,0,0,1-2.8-1.129,4.19,4.19,0,0,1-1.078-3.02v-.266a5.073,5.073,0,0,1,.48-2.246,3.748,3.748,0,0,1,1.344-1.547,3.378,3.378,0,0,1,1.871-.559,3.166,3.166,0,0,1,2.563,1.086,4.7,4.7,0,0,1,.914,3.109v.6H72.043a3,3,0,0,0,.73,2.02,2.3,2.3,0,0,0,1.777.77,2.517,2.517,0,0,0,1.3-.312,3.259,3.259,0,0,0,.93-.828l.883.688A3.55,3.55,0,0,1,74.473,41.156Zm-.18-7.578a1.928,1.928,0,0,0-1.469.637A3.1,3.1,0,0,0,72.09,36h4.234v-.109a2.753,2.753,0,0,0-.594-1.707A1.815,1.815,0,0,0,74.293,33.578ZM75,29h1.75l-2.094,2.3-1.164,0Zm12.492,4.844a4.331,4.331,0,0,0-.711-.055A1.9,1.9,0,0,0,84.848,35v6H83.4V32.547h1.406l.023.977a2.251,2.251,0,0,1,2.016-1.133,1.477,1.477,0,0,1,.641.109Zm4.836,7.313a3.693,3.693,0,0,1-2.8-1.129,4.19,4.19,0,0,1-1.078-3.02v-.266a5.073,5.073,0,0,1,.48-2.246,3.748,3.748,0,0,1,1.344-1.547,3.378,3.378,0,0,1,1.871-.559,3.166,3.166,0,0,1,2.563,1.086,4.7,4.7,0,0,1,.914,3.109v.6H89.895a3,3,0,0,0,.73,2.02,2.3,2.3,0,0,0,1.777.77,2.517,2.517,0,0,0,1.3-.312,3.259,3.259,0,0,0,.93-.828l.883.688A3.55,3.55,0,0,1,92.324,41.156Zm-.18-7.578a1.928,1.928,0,0,0-1.469.637A3.1,3.1,0,0,0,89.941,36h4.234v-.109a2.753,2.753,0,0,0-.594-1.707A1.815,1.815,0,0,0,92.145,33.578Zm4.8,3.125a4.968,4.968,0,0,1,.914-3.145,3.151,3.151,0,0,1,4.836-.074l.07-.937h1.32V40.8a3.439,3.439,0,0,1-.973,2.586,3.589,3.589,0,0,1-2.613.945,4.348,4.348,0,0,1-1.789-.391,3.08,3.08,0,0,1-1.336-1.07l.75-.867a2.826,2.826,0,0,0,2.273,1.148,2.214,2.214,0,0,0,1.645-.594,2.269,2.269,0,0,0,.59-1.672v-.727a2.971,2.971,0,0,1-2.367,1,2.887,2.887,0,0,1-2.4-1.2A5.224,5.224,0,0,1,96.949,36.7Zm1.453.164a3.79,3.79,0,0,0,.586,2.246,1.9,1.9,0,0,0,1.641.816,2.117,2.117,0,0,0,2.008-1.242V34.828a2.142,2.142,0,0,0-1.992-1.211,1.921,1.921,0,0,0-1.648.82A4.128,4.128,0,0,0,98.4,36.867Zm13.086,3.3a3.07,3.07,0,0,1-2.477.992,2.628,2.628,0,0,1-2.059-.785,3.4,3.4,0,0,1-.715-2.324v-5.5h1.445v5.461q0,1.922,1.563,1.922a2.163,2.163,0,0,0,2.2-1.234V32.547h1.445V41H111.52ZM116.66,41h-1.445V29h1.445Zm7.531,0a3.036,3.036,0,0,1-.2-.891,3.225,3.225,0,0,1-2.406,1.047,2.984,2.984,0,0,1-2.051-.707,2.288,2.288,0,0,1-.8-1.793,2.39,2.39,0,0,1,1-2.051,4.733,4.733,0,0,1,2.824-.73h1.406v-.664A1.623,1.623,0,0,0,123.512,34a1.821,1.821,0,0,0-1.336-.449,2.107,2.107,0,0,0-1.3.391,1.151,1.151,0,0,0-.523.945H118.9a2,2,0,0,1,.449-1.223,3.066,3.066,0,0,1,1.219-.934,4.1,4.1,0,0,1,1.691-.344,3.342,3.342,0,0,1,2.289.73,2.635,2.635,0,0,1,.859,2.012v3.891a4.757,4.757,0,0,0,.3,1.852V41Zm-2.4-1.1a2.54,2.54,0,0,0,1.289-.352,2.127,2.127,0,0,0,.883-.914V36.9h-1.133q-2.656,0-2.656,1.555a1.316,1.316,0,0,0,.453,1.063A1.742,1.742,0,0,0,121.793,39.9Zm9.273.078a2.082,2.082,0,0,0,1.352-.469,1.649,1.649,0,0,0,.641-1.172h1.367a2.621,2.621,0,0,1-.5,1.383,3.293,3.293,0,0,1-1.23,1.047,3.55,3.55,0,0,1-1.629.391A3.482,3.482,0,0,1,128.32,40a4.59,4.59,0,0,1-1.02-3.152v-.242a5.089,5.089,0,0,1,.453-2.2,3.451,3.451,0,0,1,1.3-1.492,3.7,3.7,0,0,1,2-.531,3.39,3.39,0,0,1,2.363.852,3.043,3.043,0,0,1,1,2.211h-1.367a1.992,1.992,0,0,0-.621-1.348,1.932,1.932,0,0,0-1.379-.527,2.023,2.023,0,0,0-1.707.793,3.724,3.724,0,0,0-.605,2.293v.273a3.65,3.65,0,0,0,.6,2.25A2.033,2.033,0,0,0,131.066,39.977ZM137.621,41h-1.445V32.547h1.445Zm-1.562-10.7a.863.863,0,0,1,.215-.594.807.807,0,0,1,.637-.242.819.819,0,0,1,.641.242.854.854,0,0,1,.219.594.826.826,0,0,1-.219.586.834.834,0,0,1-.641.234.821.821,0,0,1-.637-.234A.834.834,0,0,1,136.059,30.3Zm3.492,6.391a4.993,4.993,0,0,1,.488-2.234A3.642,3.642,0,0,1,141.4,32.93a3.7,3.7,0,0,1,1.988-.539,3.565,3.565,0,0,1,2.793,1.2,4.6,4.6,0,0,1,1.066,3.18v.1a5.036,5.036,0,0,1-.473,2.215,3.589,3.589,0,0,1-1.352,1.527,3.743,3.743,0,0,1-2.02.547,3.556,3.556,0,0,1-2.785-1.2,4.575,4.575,0,0,1-1.066-3.164Zm1.453.172a3.616,3.616,0,0,0,.652,2.258,2.211,2.211,0,0,0,3.5-.012A3.954,3.954,0,0,0,145.8,36.7a3.61,3.61,0,0,0-.66-2.254,2.1,2.1,0,0,0-1.754-.863,2.075,2.075,0,0,0-1.727.852A3.925,3.925,0,0,0,141,36.867Zm9.422-4.32.047,1.063A3.08,3.08,0,0,1,153,32.391q2.68,0,2.7,3.023V41h-1.445V35.406a1.946,1.946,0,0,0-.418-1.352,1.675,1.675,0,0,0-1.277-.437,2.086,2.086,0,0,0-1.234.375,2.546,2.546,0,0,0-.828.984V41h-1.445V32.547Zm10.969,8.609a3.693,3.693,0,0,1-2.8-1.129,4.19,4.19,0,0,1-1.078-3.02v-.266A5.073,5.073,0,0,1,158,34.5a3.748,3.748,0,0,1,1.344-1.547,3.378,3.378,0,0,1,1.871-.559,3.166,3.166,0,0,1,2.563,1.086,4.7,4.7,0,0,1,.914,3.109v.6h-5.727a3,3,0,0,0,.73,2.02,2.3,2.3,0,0,0,1.777.77,2.517,2.517,0,0,0,1.3-.312,3.258,3.258,0,0,0,.93-.828l.883.688A3.55,3.55,0,0,1,161.395,41.156Zm-.18-7.578a1.928,1.928,0,0,0-1.469.637A3.1,3.1,0,0,0,159.012,36h4.234v-.109a2.753,2.753,0,0,0-.594-1.707A1.815,1.815,0,0,0,161.215,33.578Zm10.07,5.18a1.064,1.064,0,0,0-.441-.91,4.249,4.249,0,0,0-1.539-.559,7.277,7.277,0,0,1-1.742-.562,2.479,2.479,0,0,1-.953-.781,1.869,1.869,0,0,1-.309-1.078,2.193,2.193,0,0,1,.879-1.758,3.432,3.432,0,0,1,2.246-.719,3.532,3.532,0,0,1,2.332.742,2.357,2.357,0,0,1,.895,1.9H171.2a1.3,1.3,0,0,0-.5-1.023,1.888,1.888,0,0,0-1.27-.43,1.976,1.976,0,0,0-1.234.344,1.082,1.082,0,0,0-.445.9.877.877,0,0,0,.414.789,5.1,5.1,0,0,0,1.5.508,7.8,7.8,0,0,1,1.754.578,2.558,2.558,0,0,1,1,.809,1.988,1.988,0,0,1,.324,1.152,2.163,2.163,0,0,1-.906,1.816,3.8,3.8,0,0,1-2.352.684,4.257,4.257,0,0,1-1.8-.359,2.922,2.922,0,0,1-1.223-1,2.42,2.42,0,0,1-.441-1.395h1.445a1.5,1.5,0,0,0,.582,1.152,2.258,2.258,0,0,0,1.434.426,2.331,2.331,0,0,0,1.316-.332A1.02,1.02,0,0,0,171.285,38.758ZM26.938,60.7a4.968,4.968,0,0,1,.914-3.145,3.151,3.151,0,0,1,4.836-.074l.07-.937h1.32V64.8a3.439,3.439,0,0,1-.973,2.586,3.589,3.589,0,0,1-2.613.945,4.348,4.348,0,0,1-1.789-.391,3.08,3.08,0,0,1-1.336-1.07l.75-.867a2.826,2.826,0,0,0,2.273,1.148,2.214,2.214,0,0,0,1.645-.594,2.269,2.269,0,0,0,.59-1.672v-.727a2.971,2.971,0,0,1-2.367,1,2.887,2.887,0,0,1-2.4-1.2A5.224,5.224,0,0,1,26.938,60.7Zm1.453.164a3.79,3.79,0,0,0,.586,2.246,1.9,1.9,0,0,0,1.641.816,2.117,2.117,0,0,0,2.008-1.242V58.828a2.142,2.142,0,0,0-1.992-1.211,1.921,1.921,0,0,0-1.648.82A4.128,4.128,0,0,0,28.391,60.867Zm13.086,3.3A3.07,3.07,0,0,1,39,65.156a2.628,2.628,0,0,1-2.059-.785,3.4,3.4,0,0,1-.715-2.324v-5.5h1.445v5.461q0,1.922,1.563,1.922a2.163,2.163,0,0,0,2.2-1.234V56.547h1.445V65H41.508Zm10.758-3.3a5.026,5.026,0,0,1-.891,3.113,2.846,2.846,0,0,1-2.391,1.176,2.947,2.947,0,0,1-2.477-1.133l-.07.977H45.078V53h1.445v4.477a2.93,2.93,0,0,1,2.414-1.086,2.863,2.863,0,0,1,2.418,1.164,5.177,5.177,0,0,1,.879,3.188ZM50.789,60.7a3.906,3.906,0,0,0-.57-2.281,1.888,1.888,0,0,0-1.641-.8,2.122,2.122,0,0,0-2.055,1.328V62.6a2.181,2.181,0,0,0,2.07,1.328,1.878,1.878,0,0,0,1.617-.8A4.153,4.153,0,0,0,50.789,60.7Zm6.773,4.453a3.693,3.693,0,0,1-2.8-1.129,4.19,4.19,0,0,1-1.078-3.02v-.266a5.073,5.073,0,0,1,.48-2.246,3.748,3.748,0,0,1,1.344-1.547,3.378,3.378,0,0,1,1.871-.559,3.166,3.166,0,0,1,2.563,1.086,4.7,4.7,0,0,1,.914,3.109v.6H55.133a3,3,0,0,0,.73,2.02,2.3,2.3,0,0,0,1.777.77,2.517,2.517,0,0,0,1.3-.312,3.258,3.258,0,0,0,.93-.828l.883.688A3.55,3.55,0,0,1,57.563,65.156Zm-.18-7.578a1.928,1.928,0,0,0-1.469.637A3.1,3.1,0,0,0,55.18,60h4.234v-.109a2.753,2.753,0,0,0-.594-1.707A1.815,1.815,0,0,0,57.383,57.578Zm9.234.266a4.331,4.331,0,0,0-.711-.055A1.9,1.9,0,0,0,63.977,59v6H62.531V56.547h1.406l.023.977a2.251,2.251,0,0,1,2.016-1.133,1.477,1.477,0,0,1,.641.109Zm2.7-1.3.047,1.063a3.08,3.08,0,0,1,2.531-1.219q2.68,0,2.7,3.023V65H73.148V59.406a1.946,1.946,0,0,0-.418-1.352,1.675,1.675,0,0,0-1.277-.437,2.086,2.086,0,0,0-1.234.375,2.546,2.546,0,0,0-.828.984V65H67.945V56.547ZM81.992,65a3.036,3.036,0,0,1-.2-.891,3.225,3.225,0,0,1-2.406,1.047,2.984,2.984,0,0,1-2.051-.707,2.288,2.288,0,0,1-.8-1.793,2.39,2.39,0,0,1,1-2.051,4.733,4.733,0,0,1,2.824-.73h1.406v-.664A1.623,1.623,0,0,0,81.313,58a1.821,1.821,0,0,0-1.336-.449,2.107,2.107,0,0,0-1.3.391,1.151,1.151,0,0,0-.523.945H76.7a2,2,0,0,1,.449-1.223,3.066,3.066,0,0,1,1.219-.934,4.1,4.1,0,0,1,1.691-.344,3.342,3.342,0,0,1,2.289.73,2.635,2.635,0,0,1,.859,2.012v3.891a4.757,4.757,0,0,0,.3,1.852V65Zm-2.4-1.1a2.54,2.54,0,0,0,1.289-.352,2.127,2.127,0,0,0,.883-.914V60.9H80.633q-2.656,0-2.656,1.555a1.316,1.316,0,0,0,.453,1.063A1.742,1.742,0,0,0,79.594,63.9Zm7.242-7.352.039.938a3.122,3.122,0,0,1,2.508-1.094A2.417,2.417,0,0,1,91.8,57.75a3.2,3.2,0,0,1,1.1-.984,3.242,3.242,0,0,1,1.6-.375q2.781,0,2.828,2.945V65H95.875V59.422a1.941,1.941,0,0,0-.414-1.355,1.823,1.823,0,0,0-1.391-.449,1.916,1.916,0,0,0-1.336.48,1.949,1.949,0,0,0-.617,1.293V65H90.664V59.461a1.613,1.613,0,0,0-1.8-1.844,1.934,1.934,0,0,0-1.945,1.211V65H85.469V56.547Zm16.172,8.609a3.693,3.693,0,0,1-2.8-1.129,4.19,4.19,0,0,1-1.078-3.02v-.266a5.073,5.073,0,0,1,.48-2.246,3.748,3.748,0,0,1,1.344-1.547,3.378,3.378,0,0,1,1.871-.559,3.166,3.166,0,0,1,2.563,1.086,4.7,4.7,0,0,1,.914,3.109v.6h-5.727a3,3,0,0,0,.73,2.02,2.3,2.3,0,0,0,1.777.77,2.517,2.517,0,0,0,1.3-.312,3.259,3.259,0,0,0,.93-.828l.883.688A3.55,3.55,0,0,1,103.008,65.156Zm-.18-7.578a1.928,1.928,0,0,0-1.469.637A3.1,3.1,0,0,0,100.625,60h4.234v-.109a2.753,2.753,0,0,0-.594-1.707A1.815,1.815,0,0,0,102.828,57.578Zm6.516-1.031.047,1.063a3.08,3.08,0,0,1,2.531-1.219q2.68,0,2.7,3.023V65H113.18V59.406a1.946,1.946,0,0,0-.418-1.352,1.675,1.675,0,0,0-1.277-.437,2.086,2.086,0,0,0-1.234.375,2.546,2.546,0,0,0-.828.984V65h-1.445V56.547Zm9.422-2.047v2.047h1.578v1.117h-1.578v5.249a1.173,1.173,0,0,0,.211.763.888.888,0,0,0,.719.254,3.5,3.5,0,0,0,.688-.094V65a4.215,4.215,0,0,1-1.109.155,1.8,1.8,0,0,1-1.461-.586,2.517,2.517,0,0,1-.492-1.664V57.664h-1.539V56.547h1.539V54.5ZM127.25,65a3.036,3.036,0,0,1-.2-.891,3.225,3.225,0,0,1-2.406,1.047,2.984,2.984,0,0,1-2.051-.707,2.288,2.288,0,0,1-.8-1.793,2.39,2.39,0,0,1,1-2.051,4.733,4.733,0,0,1,2.824-.73h1.406v-.664A1.623,1.623,0,0,0,126.57,58a1.821,1.821,0,0,0-1.336-.449,2.107,2.107,0,0,0-1.3.391,1.151,1.151,0,0,0-.523.945h-1.453a2,2,0,0,1,.449-1.223,3.066,3.066,0,0,1,1.219-.934,4.1,4.1,0,0,1,1.691-.344,3.342,3.342,0,0,1,2.289.73,2.635,2.635,0,0,1,.859,2.012v3.891a4.757,4.757,0,0,0,.3,1.852V65Zm-2.4-1.1a2.54,2.54,0,0,0,1.289-.352,2.127,2.127,0,0,0,.883-.914V60.9h-1.133q-2.656,0-2.656,1.555a1.316,1.316,0,0,0,.453,1.063A1.742,1.742,0,0,0,124.852,63.9ZM132.3,65h-1.445V53H132.3Zm5.82.156a3.693,3.693,0,0,1-2.8-1.129,4.19,4.19,0,0,1-1.078-3.02v-.266a5.073,5.073,0,0,1,.48-2.246,3.748,3.748,0,0,1,1.344-1.547,3.378,3.378,0,0,1,1.871-.559,3.166,3.166,0,0,1,2.563,1.086,4.7,4.7,0,0,1,.914,3.109v.6H135.7a3,3,0,0,0,.73,2.02,2.3,2.3,0,0,0,1.777.77,2.517,2.517,0,0,0,1.3-.312,3.258,3.258,0,0,0,.93-.828l.883.688A3.55,3.55,0,0,1,138.125,65.156Zm-.18-7.578a1.928,1.928,0,0,0-1.469.637A3.1,3.1,0,0,0,135.742,60h4.234v-.109a2.753,2.753,0,0,0-.594-1.707A1.815,1.815,0,0,0,137.945,57.578Zm10.07,5.18a1.064,1.064,0,0,0-.441-.91,4.249,4.249,0,0,0-1.539-.559,7.277,7.277,0,0,1-1.742-.562,2.479,2.479,0,0,1-.953-.781,1.869,1.869,0,0,1-.309-1.078,2.193,2.193,0,0,1,.879-1.758,3.432,3.432,0,0,1,2.246-.719,3.532,3.532,0,0,1,2.332.742,2.357,2.357,0,0,1,.895,1.9H147.93a1.3,1.3,0,0,0-.5-1.023,1.888,1.888,0,0,0-1.27-.43,1.976,1.976,0,0,0-1.234.344,1.082,1.082,0,0,0-.445.9.877.877,0,0,0,.414.789,5.1,5.1,0,0,0,1.5.508,7.8,7.8,0,0,1,1.754.578,2.558,2.558,0,0,1,1,.809,1.988,1.988,0,0,1,.324,1.152,2.163,2.163,0,0,1-.906,1.816,3.8,3.8,0,0,1-2.352.684,4.257,4.257,0,0,1-1.8-.359,2.922,2.922,0,0,1-1.223-1,2.42,2.42,0,0,1-.441-1.395h1.445a1.5,1.5,0,0,0,.582,1.152,2.258,2.258,0,0,0,1.434.426,2.331,2.331,0,0,0,1.316-.332A1.02,1.02,0,0,0,148.016,62.758Zm6.938-2.055a4.952,4.952,0,0,1,.922-3.129,3.137,3.137,0,0,1,4.766-.168V53h1.445V65h-1.328l-.07-.906a2.943,2.943,0,0,1-2.414,1.063,2.887,2.887,0,0,1-2.395-1.2,5.008,5.008,0,0,1-.926-3.141Zm1.445.164a3.749,3.749,0,0,0,.594,2.25,1.919,1.919,0,0,0,1.641.813,2.108,2.108,0,0,0,2.008-1.234V58.813a2.125,2.125,0,0,0-1.992-1.2,1.929,1.929,0,0,0-1.656.82A4.128,4.128,0,0,0,156.4,60.867Zm11.438,4.289a3.693,3.693,0,0,1-2.8-1.129,4.19,4.19,0,0,1-1.078-3.02v-.266a5.073,5.073,0,0,1,.48-2.246,3.748,3.748,0,0,1,1.344-1.547,3.378,3.378,0,0,1,1.871-.559,3.166,3.166,0,0,1,2.563,1.086,4.7,4.7,0,0,1,.914,3.109v.6h-5.727a3,3,0,0,0,.73,2.02,2.3,2.3,0,0,0,1.777.77,2.517,2.517,0,0,0,1.3-.312,3.258,3.258,0,0,0,.93-.828l.883.688A3.55,3.55,0,0,1,167.836,65.156Zm-.18-7.578a1.928,1.928,0,0,0-1.469.637A3.1,3.1,0,0,0,165.453,60h4.234v-.109a2.753,2.753,0,0,0-.594-1.707A1.815,1.815,0,0,0,167.656,57.578Zm12.3,3.289a5.026,5.026,0,0,1-.891,3.113,2.846,2.846,0,0,1-2.391,1.176,2.947,2.947,0,0,1-2.477-1.133l-.07.977H172.8V53h1.445v4.477a2.93,2.93,0,0,1,2.414-1.086,2.863,2.863,0,0,1,2.418,1.164,5.177,5.177,0,0,1,.879,3.188Zm-1.445-.164a3.906,3.906,0,0,0-.57-2.281,1.888,1.888,0,0,0-1.641-.8,2.122,2.122,0,0,0-2.055,1.328V62.6a2.181,2.181,0,0,0,2.07,1.328,1.878,1.878,0,0,0,1.617-.8A4.153,4.153,0,0,0,178.516,60.7ZM181.4,60.7a4.993,4.993,0,0,1,.488-2.234,3.642,3.642,0,0,1,1.359-1.531,3.7,3.7,0,0,1,1.988-.539,3.565,3.565,0,0,1,2.793,1.2,4.6,4.6,0,0,1,1.066,3.18v.1a5.036,5.036,0,0,1-.473,2.215,3.589,3.589,0,0,1-1.352,1.527,3.743,3.743,0,0,1-2.02.547,3.556,3.556,0,0,1-2.785-1.2A4.575,4.575,0,0,1,181.4,60.8Zm1.453.172a3.616,3.616,0,0,0,.652,2.258,2.211,2.211,0,0,0,3.5-.012,3.954,3.954,0,0,0,.648-2.418,3.61,3.61,0,0,0-.66-2.254,2.1,2.1,0,0,0-1.754-.863,2.075,2.075,0,0,0-1.727.852A3.925,3.925,0,0,0,182.852,60.867ZM88.328,86.758a1.064,1.064,0,0,0-.441-.91,4.249,4.249,0,0,0-1.539-.559,7.277,7.277,0,0,1-1.742-.562,2.478,2.478,0,0,1-.953-.781,1.869,1.869,0,0,1-.309-1.078,2.193,2.193,0,0,1,.879-1.758,3.432,3.432,0,0,1,2.246-.719,3.532,3.532,0,0,1,2.332.742,2.357,2.357,0,0,1,.895,1.9H88.242a1.3,1.3,0,0,0-.5-1.023,1.888,1.888,0,0,0-1.27-.43,1.976,1.976,0,0,0-1.234.344,1.082,1.082,0,0,0-.445.9.877.877,0,0,0,.414.789,5.1,5.1,0,0,0,1.5.508,7.8,7.8,0,0,1,1.754.578,2.559,2.559,0,0,1,1,.809,1.988,1.988,0,0,1,.324,1.152,2.163,2.163,0,0,1-.906,1.816,3.8,3.8,0,0,1-2.352.684,4.257,4.257,0,0,1-1.8-.359,2.922,2.922,0,0,1-1.223-1,2.42,2.42,0,0,1-.441-1.395H84.5a1.5,1.5,0,0,0,.582,1.152,2.258,2.258,0,0,0,1.434.426,2.331,2.331,0,0,0,1.316-.332A1.02,1.02,0,0,0,88.328,86.758Zm6.836,2.4a3.693,3.693,0,0,1-2.8-1.129,4.19,4.19,0,0,1-1.078-3.02v-.266a5.073,5.073,0,0,1,.48-2.246,3.748,3.748,0,0,1,1.344-1.547,3.378,3.378,0,0,1,1.871-.559,3.166,3.166,0,0,1,2.563,1.086,4.7,4.7,0,0,1,.914,3.109v.6H92.734a3,3,0,0,0,.73,2.02,2.3,2.3,0,0,0,1.777.77,2.517,2.517,0,0,0,1.3-.312,3.259,3.259,0,0,0,.93-.828l.883.688A3.55,3.55,0,0,1,95.164,89.156Zm-.18-7.578a1.928,1.928,0,0,0-1.469.637A3.1,3.1,0,0,0,92.781,84h4.234v-.109a2.753,2.753,0,0,0-.594-1.707A1.815,1.815,0,0,0,94.984,81.578Zm4.8,3.125a4.968,4.968,0,0,1,.914-3.145,3.151,3.151,0,0,1,4.836-.074l.07-.937h1.32V88.8a3.439,3.439,0,0,1-.973,2.586,3.589,3.589,0,0,1-2.613.945,4.348,4.348,0,0,1-1.789-.391,3.08,3.08,0,0,1-1.336-1.07l.75-.867a2.826,2.826,0,0,0,2.273,1.148,2.214,2.214,0,0,0,1.645-.594,2.269,2.269,0,0,0,.59-1.672v-.727a2.971,2.971,0,0,1-2.367,1,2.887,2.887,0,0,1-2.4-1.2A5.224,5.224,0,0,1,99.789,84.7Zm1.453.164a3.79,3.79,0,0,0,.586,2.246,1.9,1.9,0,0,0,1.641.816,2.117,2.117,0,0,0,2.008-1.242V82.828a2.142,2.142,0,0,0-1.992-1.211,1.921,1.921,0,0,0-1.648.82A4.128,4.128,0,0,0,101.242,84.867Zm13.086,3.3a3.07,3.07,0,0,1-2.477.992,2.628,2.628,0,0,1-2.059-.785,3.4,3.4,0,0,1-.715-2.324v-5.5h1.445v5.461q0,1.922,1.563,1.922a2.163,2.163,0,0,0,2.2-1.234V80.547h1.445V89h-1.375ZM119.5,89h-1.445V80.547H119.5Zm-1.562-10.7a.863.863,0,0,1,.215-.594.807.807,0,0,1,.637-.242.819.819,0,0,1,.641.242.854.854,0,0,1,.219.594.826.826,0,0,1-.219.586.834.834,0,0,1-.641.234.821.821,0,0,1-.637-.234A.834.834,0,0,1,117.938,78.3Zm7.961,3.539a4.331,4.331,0,0,0-.711-.055A1.9,1.9,0,0,0,123.258,83v6h-1.445V80.547h1.406l.023.977a2.251,2.251,0,0,1,2.016-1.133,1.477,1.477,0,0,1,.641.109Zm3.023,3.94a4.663,4.663,0,0,1,.211-1.466,3.761,3.761,0,0,1,.8-1.193l1.023-1.053a2.36,2.36,0,0,0,.656-1.59,1.815,1.815,0,0,0-.43-1.282,1.62,1.62,0,0,0-1.25-.464,1.881,1.881,0,0,0-1.281.422,1.426,1.426,0,0,0-.484,1.133h-1.445a2.632,2.632,0,0,1,.9-2.043,3.374,3.374,0,0,1,2.309-.777,3.185,3.185,0,0,1,2.3.792,2.87,2.87,0,0,1,.824,2.172,3.926,3.926,0,0,1-1.266,2.691l-.852.842a2.623,2.623,0,0,0-.57,1.818Zm-.062,2.482a.861.861,0,0,1,.215-.6.81.81,0,0,1,.637-.241.822.822,0,0,1,.641.241.852.852,0,0,1,.219.6.824.824,0,0,1-.219.588.837.837,0,0,1-.641.233.774.774,0,0,1-.852-.82Z" transform="translate(28.313 209.358)" fill="#12263f"/>
      <g id="Grupo_62059" data-name="Grupo 62059" transform="translate(70.073 82.672)">
        <g id="illutration">
          <g id="verification" transform="translate(0 0)">
            <path id="Trazado_132292" data-name="Trazado 132292" d="M321.007,1086.177s-16.639-9.508-10.156-21.825,27.476-16.051,19.016-28.74c-7.347-11.021-12.533-21.177-4.97-30.037,11.713-13.721,47.324,2.809,71.527-6.483s51.413,16.148,24.723,36.34c-32,24.212-1.67,50.447-1.67,50.447Z" transform="translate(-305.453 -994.516)" fill="#f3f9ff"/>
            <g id="Grupo_61970" data-name="Grupo 61970">
              <path id="Trazado_132293" data-name="Trazado 132293" d="M452.512,1386.412H349.276a.528.528,0,1,1,0-1.057H452.512a.528.528,0,1,1,0,1.057Z" transform="translate(-335.864 -1294.199)"/>
              <g id="Grupo_61937" data-name="Grupo 61937" transform="translate(38.416)">
                <g id="Grupo_61936" data-name="Grupo 61936">
                  <path id="Trazado_132294" data-name="Trazado 132294" d="M519.289,990.45c-.725-4.295-7.339-6.234-7.209-3.43l-30.318.178a4.046,4.046,0,0,0-3.8,4.222l-.063,79.737a4.174,4.174,0,0,0,3.871,4.387l30.95.265a2.476,2.476,0,0,0,1.118,1.077c3.549.075,5.252-1.677,5.874-3.659a4.774,4.774,0,0,0,.308-1.74C519.89,1070.449,519.513,991.457,519.289,990.45Z" transform="translate(-473.97 -985.707)" fill="#12263f"/>
                  <path id="Trazado_132295" data-name="Trazado 132295" d="M500.221,1076.936l-35.526-.229a4.291,4.291,0,0,1-4.006-4.506l.133-82a4.163,4.163,0,0,1,3.943-4.329l34.836-.113a4.186,4.186,0,0,1,4,4.323l.631,82.381A4.221,4.221,0,0,1,500.221,1076.936Z" transform="translate(-460.689 -985.746)" fill="#00223d"/>
                  <path id="Trazado_132296" data-name="Trazado 132296" d="M502.742,1078.19a3.193,3.193,0,0,1-.449.028l-35.515-.269a3.747,3.747,0,0,1-3.459-3.943l.123-81.912a3.634,3.634,0,0,1,3.4-3.789l34.833-.151c.055,0,.11,0,.164,0a3.3,3.3,0,0,1,2.308,1.123,3.936,3.936,0,0,1,.981,2.608l.623,82.465A3.7,3.7,0,0,1,502.742,1078.19Z" transform="translate(-462.719 -987.596)" fill="#21587b"/>
                  <path id="Trazado_132297" data-name="Trazado 132297" d="M507.909,1006.345l.6,82.178-40.01-.24.1-81.938Z" transform="translate(-466.718 -1001.638)" fill="url(#linear-gradient-2)"/>
                </g>
              </g>
              <g id="Grupo_61950" data-name="Grupo 61950" transform="translate(14.048 53.924)">
                <path id="Trazado_132298" data-name="Trazado 132298" d="M379.812,1244.021a23.478,23.478,0,0,0-5.268,7.5c-.452-1.172-.341-.915-1.43-3.492-.5-1.211-3.739-.526-3.821.54,0,0-.582,7.424,2.847,10.347s13.094-9.284,13.094-9.284A3.922,3.922,0,0,0,379.812,1244.021Z" transform="translate(-365.742 -1238.377)" fill="#37a3a5"/>
                <g id="Grupo_61941" data-name="Grupo 61941" transform="translate(3.558 25.117)">
                  <path id="Trazado_132299" data-name="Trazado 132299" d="M404.845,1338.958c-3.644,7.11-30.226,4.578-34.8.709-3.381-4.964,8.867-7.389,9.139-7.4,6.02-.164,14.315.371,17.372.371C403.663,1333.734,405.646,1336.251,404.845,1338.958Z" transform="translate(-369.454 -1332.239)" fill="#00223d"/>
                  <path id="Trazado_132300" data-name="Trazado 132300" d="M411.859,1348.614a36.255,36.255,0,0,0,14.724.729s-8.259,3.651-8.3,3.786S411.859,1348.614,411.859,1348.614Z" transform="translate(-402.187 -1344.879)" fill="#051733"/>
                  <path id="Trazado_132301" data-name="Trazado 132301" d="M439.833,1349.347c-5.325,5.9-28.047,5.329-23.677-.032a123.117,123.117,0,0,0,15.827-3.666C435.332,1342.934,442,1346.156,439.833,1349.347Z" transform="translate(-405.076 -1341.804)" fill="#00223d"/>
                  <g id="Grupo_61940" data-name="Grupo 61940" transform="translate(0.365 2.113)">
                    <g id="Grupo_61938" data-name="Grupo 61938" transform="translate(21.86 6.684)">
                      <path id="Trazado_132302" data-name="Trazado 132302" d="M490.537,1375.6c-.264-1.186-1.631-1.942-3.092-2.418a7.831,7.831,0,0,0-1.74,4.917C488.947,1378.825,490.99,1377.635,490.537,1375.6Z" transform="translate(-481.414 -1372.639)" fill="#37a3a5"/>
                      <path id="Trazado_132303" data-name="Trazado 132303" d="M468.812,1370.817a1.585,1.585,0,0,0-1.757,1.392,1.975,1.975,0,0,0,.8,2.519,13.062,13.062,0,0,0,3.334,1.537,7.831,7.831,0,0,1,1.74-4.917A13.607,13.607,0,0,0,468.812,1370.817Z" transform="translate(-466.894 -1370.806)" fill="#37a3a5"/>
                    </g>
                    <path id="Trazado_132304" data-name="Trazado 132304" d="M394.406,1348.385c2.593.621,1.261,3.818-.075,3.629,1.455.206-25.749.209-23.1-8.019h.011a5.8,5.8,0,0,1,6.751-2.1A70.58,70.58,0,0,0,394.406,1348.385Z" transform="translate(-371.053 -1341.503)" fill="#00223d"/>
                    <g id="Grupo_61939" data-name="Grupo 61939" transform="translate(22.643 7.208)">
                      <path id="Trazado_132305" data-name="Trazado 132305" d="M472.006,1376.229s-2.314-.181-1.511-2.04a1.567,1.567,0,0,1,2.43-.769A2.123,2.123,0,0,1,472.006,1376.229Z" transform="translate(-470.326 -1373.102)" fill="#37a3a5"/>
                      <path id="Trazado_132306" data-name="Trazado 132306" d="M477.817,1377.424a.106.106,0,0,1-.106-.1,4.141,4.141,0,0,1,1.03-2.847.106.106,0,1,1,.152.147,4,4,0,0,0-.971,2.693.106.106,0,0,1-.1.109Z" transform="translate(-476.025 -1374.138)" fill="#fff"/>
                      <path id="Trazado_132307" data-name="Trazado 132307" d="M480.684,1378.52a.106.106,0,0,1-.106-.1,4.142,4.142,0,0,1,1.03-2.847.106.106,0,0,1,.152.147,4,4,0,0,0-.971,2.693.106.106,0,0,1-.1.109Z" transform="translate(-478.238 -1374.984)" fill="#fff"/>
                      <path id="Trazado_132308" data-name="Trazado 132308" d="M483.72,1379.28a.105.105,0,0,1-.106-.1,4.142,4.142,0,0,1,1.03-2.847.106.106,0,0,1,.152.147,4,4,0,0,0-.971,2.692.106.106,0,0,1-.1.109Z" transform="translate(-480.581 -1375.57)" fill="#fff"/>
                    </g>
                  </g>
                  <path id="Trazado_132309" data-name="Trazado 132309" d="M393.644,1359.88c-.555.307-14.573.959-22.378-4.067a2.937,2.937,0,0,1-1.2-3.983S371.881,1358.634,393.644,1359.88Z" transform="translate(-369.653 -1347.361)" fill="#051733"/>
                  <path id="Trazado_132310" data-name="Trazado 132310" d="M417.277,1349.671a.153.153,0,0,1-.045-.007c-10.1-2.993-14.76-6.093-14.806-6.124a.158.158,0,0,1,.177-.263c.045.031,4.667,3.105,14.719,6.083a.158.158,0,0,1-.045.31Z" transform="translate(-394.851 -1340.739)" fill="#051733"/>
                  <path id="Trazado_132311" data-name="Trazado 132311" d="M439.176,1352.873a.159.159,0,0,1-.028-.315c.064-.011,6.435-1.157,8.9-2.215a.159.159,0,0,1,.125.292c-2.5,1.071-8.708,2.188-8.971,2.235Z" transform="translate(-423.151 -1346.204)" fill="#051733"/>
                </g>
                <path id="Trazado_132312" data-name="Trazado 132312" d="M424.516,1260.846c.222,1.7-11.879,2.105-18.068-.359-.926-3.837-4.121-21.3,5.423-21.249C422.176,1239.3,423.537,1256.214,424.516,1260.846Z" transform="translate(-393.478 -1235.334)" fill="#fff"/>
                <path id="Trazado_132313" data-name="Trazado 132313" d="M370.523,1258.024l-.143-2.162,2.273-.342.859,1.944C373.609,1258.039,370.62,1258.6,370.523,1258.024Z" transform="translate(-366.61 -1247.902)" fill="#f7a594"/>
                <g id="Grupo_61943" data-name="Grupo 61943" transform="translate(0 1.194)">
                  <path id="Trazado_132314" data-name="Trazado 132314" d="M375.326,1245.057l.551-3.5s-.8-.225-.876.726-1.627,1.552-1.226,2.478S375.326,1245.057,375.326,1245.057Z" transform="translate(-369.179 -1238.296)" fill="#f7a594"/>
                  <path id="Trazado_132315" data-name="Trazado 132315" d="M364.436,1241.255s-1.7-2.6-1.852-4.08c-.016-.541.225-.7.225-.7l3.879,3.8s.25.776-.05,1.1A1.524,1.524,0,0,1,364.436,1241.255Z" transform="translate(-360.592 -1234.394)" fill="#f7a594"/>
                  <path id="Trazado_132316" data-name="Trazado 132316" d="M376.438,1248.863s.039.616-.314.49c-1.036-.3-1.1-1.826-1.1-1.826Z" transform="translate(-370.197 -1242.926)" fill="#cc7767"/>
                  <g id="Grupo_61942" data-name="Grupo 61942">
                    <path id="Trazado_132317" data-name="Trazado 132317" d="M362.068,1234.06l-7.216-6.7a.742.742,0,0,0-.413.092l7.611,6.979A.924.924,0,0,0,362.068,1234.06Z" transform="translate(-354.305 -1227.356)" fill="#404040"/>
                    <path id="Trazado_132318" data-name="Trazado 132318" d="M353.987,1227.765c-.11.075-.18.21-.1.458.2.614,6.572,6.483,7.216,6.7.315.107.443-.022.492-.182Z" transform="translate(-353.853 -1227.672)"/>
                  </g>
                  <path id="Trazado_132319" data-name="Trazado 132319" d="M362.582,1237.173s.073-.6,1.16.137c1.319.9,2.205,2.5,1.908,2.911C365.27,1240.744,362.294,1238.374,362.582,1237.173Z" transform="translate(-360.576 -1234.755)" fill="#f7a594"/>
                </g>
                <path id="Trazado_132320" data-name="Trazado 132320" d="M408.637,1240.507c-6.844,1.5-5,17.847-4.52,21.39a57.019,57.019,0,0,0,7.119,1.813C407.946,1255.926,406.219,1241.25,408.637,1240.507Z" transform="translate(-392.199 -1236.313)" fill="#37a3a5"/>
                <path id="Trazado_132321" data-name="Trazado 132321" d="M425.686,1226.547c-.761,3.708-4.839,3.613-4.892,1.532a.914.914,0,0,1-.01-.169l-.328-4.5-.042-.549.359-.074,3.243-.644.116-.021.095.285.412,1.173Z" transform="translate(-405.232 -1222.12)" fill="#f7a594"/>
                <path id="Trazado_132322" data-name="Trazado 132322" d="M441.554,1240.289c-1.29,3.031.415,18.857,1.6,23.58,3.193,1.079,8.008-.5,9.295-2.118C451.531,1257.432,450.071,1242.343,441.554,1240.289Z" transform="translate(-421.194 -1236.145)" fill="#37a3a5"/>
                <g id="Grupo_61949" data-name="Grupo 61949" transform="translate(11.847 6.8)">
                  <path id="Trazado_132323" data-name="Trazado 132323" d="M441.237,1254.783c-.5,2.725.45,7.451,1.187,9.908,1.956,1.439,4.995.7,4.995-1.515a29.64,29.64,0,0,0-.572-6.764C446.374,1250.719,441.482,1250.771,441.237,1254.783Z" transform="translate(-433.045 -1251.934)" fill="#37a3a5"/>
                  <g id="Grupo_61944" data-name="Grupo 61944" transform="translate(2.92 6.402)">
                    <path id="Trazado_132324" data-name="Trazado 132324" d="M420.871,1280.118c-2.014-.727-3.052,2.167-1.585,3.17,3.487,2.353,8.9,5.518,9.867,3.5C430.562,1283.841,425.461,1281.573,420.871,1280.118Z" transform="translate(-418.597 -1280.003)" fill="#37a3a5"/>
                  </g>
                  <g id="Grupo_61948" data-name="Grupo 61948" transform="translate(0 2.588)">
                    <path id="Trazado_132325" data-name="Trazado 132325" d="M414.427,1281.03l-1.491-.788c-.937-.727.713-2.221,1.383-1.98l1.16.728C416.066,1279.545,415.231,1280.968,414.427,1281.03Z" transform="translate(-411.09 -1274.824)" fill="#f7a594"/>
                    <g id="Grupo_61947" data-name="Grupo 61947">
                      <g id="Grupo_61945" data-name="Grupo 61945" transform="translate(1.166 1.224)">
                        <path id="Trazado_132326" data-name="Trazado 132326" d="M411.727,1272.873c-1.22-.26-.8-1.493-.523-2.9C410.221,1265.748,415.6,1272.986,411.727,1272.873Z" transform="translate(-410.904 -1268.648)" fill="#f7a594"/>
                      </g>
                      <path id="Trazado_132327" data-name="Trazado 132327" d="M411.219,1265.289s-.4-.621-1.276-2.007c-.4.075-.607.769-.075,1.377C410.335,1265.192,411.011,1265.554,411.219,1265.289Z" transform="translate(-408.694 -1263.282)" fill="#f7a594"/>
                      <g id="Grupo_61946" data-name="Grupo 61946" transform="translate(0 1.536)">
                        <path id="Trazado_132328" data-name="Trazado 132328" d="M407.12,1270.118c-.882-.5-1.51.954-1.278,2.089.354,1.737,1.647.879,2.033.415C408.581,1271.774,408.2,1270.729,407.12,1270.118Z" transform="translate(-405.794 -1270.017)" fill="#f7a594"/>
                      </g>
                    </g>
                  </g>
                  <path id="Trazado_132329" data-name="Trazado 132329" d="M441.019,1263.3a.105.105,0,0,1-.1-.088,17.871,17.871,0,0,1,.141-6.491.106.106,0,0,1,.2.06,17.648,17.648,0,0,0-.135,6.4.105.105,0,0,1-.087.121Z" transform="translate(-432.715 -1255.573)" fill="#00223d"/>
                  <path id="Trazado_132330" data-name="Trazado 132330" d="M444.837,1283.325a9.975,9.975,0,0,1-3.924-1.159.106.106,0,1,1,.1-.186c.04.021,4.011,2.126,5.463.534,1.274-1.4.325-7.448.315-7.509a.106.106,0,1,1,.209-.033c.04.253.974,6.213-.368,7.685A2.333,2.333,0,0,1,444.837,1283.325Z" transform="translate(-432.86 -1269.648)" fill="#00223d"/>
                  <path id="Trazado_132331" data-name="Trazado 132331" d="M432.222,1281.78a.106.106,0,0,1-.043-.009c-2.544-1.131-5.73-2.156-5.762-2.166a.106.106,0,1,1,.064-.2c.032.01,3.228,1.038,5.783,2.174a.106.106,0,0,1-.043.2Z" transform="translate(-421.656 -1273.135)" fill="#fff"/>
                </g>
                <path id="Trazado_132332" data-name="Trazado 132332" d="M420.981,1228.052c-.095-.995-.641-4.739-.009-5.195l3.243-.644C424.959,1226.3,422.188,1228.341,420.981,1228.052Z" transform="translate(-405.431 -1222.192)" fill="#d97661"/>
              </g>
              <g id="Grupo_61952" data-name="Grupo 61952" transform="translate(21.145 46.257)">
                <path id="Trazado_132333" data-name="Trazado 132333" d="M407.214,1197.711c-.157,3.342-3.134,5.936-5.348,5.813s-4.935-2.948-4.778-6.29,2.552-5.945,5.348-5.813S407.372,1194.369,407.214,1197.711Z" transform="translate(-394.319 -1190.752)" fill="#f7a594"/>
                <path id="Trazado_132334" data-name="Trazado 132334" d="M394.854,1189.647c-2.8-2.3-4.694-.695-6.442,1.037-1.227,1.215-2.1,2.09-3.443,2.129,2.145,3.517,7.486,2.03,9.482-.984a3.887,3.887,0,0,0,3.413,3.636C398.6,1193.491,397.7,1189.206,394.854,1189.647Z" transform="translate(-384.969 -1188.507)" fill="#21587b"/>
                <path id="Trazado_132335" data-name="Trazado 132335" d="M436.435,1215.865a1.154,1.154,0,1,1-1-1.287A1.154,1.154,0,0,1,436.435,1215.865Z" transform="translate(-422.921 -1208.625)" fill="#f7a594"/>
                <g id="Grupo_61951" data-name="Grupo 61951" transform="translate(3.6 6.07)">
                  <path id="Trazado_132336" data-name="Trazado 132336" d="M410.848,1225.182a.4.4,0,0,1-.233-.066c-.29-.2-.005-1.919.088-2.44a.068.068,0,0,1,.08-.055.068.068,0,0,1,.055.079,5.9,5.9,0,0,0-.144,2.3c.2.138.657-.107.818-.213a.068.068,0,1,1,.075.114A1.647,1.647,0,0,1,410.848,1225.182Z" transform="translate(-408.268 -1220.91)" fill="#bd4a31"/>
                  <path id="Trazado_132337" data-name="Trazado 132337" d="M420.951,1219.329c.059.267.214.46.346.431s.192-.269.133-.537-.214-.46-.346-.431S420.892,1219.062,420.951,1219.329Z" transform="translate(-416.327 -1217.952)" fill="#0e0e0e"/>
                  <path id="Trazado_132338" data-name="Trazado 132338" d="M402.395,1224.028c.055.249.2.429.323.4s.179-.251.124-.5-.2-.429-.323-.4S402.34,1223.779,402.395,1224.028Z" transform="translate(-402.004 -1221.607)" fill="#0e0e0e"/>
                  <path id="Trazado_132339" data-name="Trazado 132339" d="M419.859,1230.84a1.5,1.5,0,0,1-.187-.01.068.068,0,1,1,.018-.135,1.7,1.7,0,0,0,1.193-.331,1.617,1.617,0,0,0,.506-1.237.071.071,0,0,1,.07-.066.068.068,0,0,1,.066.071,1.582,1.582,0,0,1-1.666,1.709Z" transform="translate(-415.311 -1225.88)" fill="#803221"/>
                  <path id="Trazado_132340" data-name="Trazado 132340" d="M418.628,1215.806h0a.068.068,0,0,1-.065-.071.638.638,0,0,1,.482-.581.662.662,0,0,1,.741.222.068.068,0,0,1-.111.08.527.527,0,0,0-.591-.171.508.508,0,0,0-.385.457A.068.068,0,0,1,418.628,1215.806Z" transform="translate(-414.498 -1215.12)" fill="#803221"/>
                  <path id="Trazado_132341" data-name="Trazado 132341" d="M400.822,1220.059h-.006a.069.069,0,0,1-.062-.074.6.6,0,0,1,.495-.612.577.577,0,0,1,.606.408.068.068,0,0,1-.129.045.441.441,0,0,0-.46-.318c-.162.02-.346.159-.375.488A.068.068,0,0,1,400.822,1220.059Z" transform="translate(-400.754 -1218.399)" fill="#803221"/>
                </g>
              </g>
              <g id="Grupo_61958" data-name="Grupo 61958" transform="translate(51.631 16.806)">
                <g id="Grupo_61956" data-name="Grupo 61956">
                  <g id="Grupo_61955" data-name="Grupo 61955">
                    <g id="Grupo_61954" data-name="Grupo 61954">
                      <g id="Grupo_61953" data-name="Grupo 61953" transform="translate(0.142 0.206)">
                        <path id="Trazado_132342" data-name="Trazado 132342" d="M527.719,1060.307l-.015-.015a16.754,16.754,0,0,1-8.427,4.549c0,.223-.007,1.46-.032,7.163-.034,7.607,7.206,11.325,8.33,11.9C524.273,1070.533,526.86,1062.448,527.719,1060.307Z" transform="translate(-519.245 -1060.292)" fill="#37a3a5"/>
                        <path id="Trazado_132343" data-name="Trazado 132343" d="M550.384,1060.358c-.859,2.141-3.445,10.226-.143,23.593,1.089-.5,8.42-4.213,8.454-11.82.026-5.7.031-6.94.032-7.163A16.674,16.674,0,0,1,550.384,1060.358Z" transform="translate(-541.911 -1060.343)" fill="#37a3a5"/>
                      </g>
                      <path id="Trazado_132344" data-name="Trazado 132344" d="M527.092,1083.359l-.061-.031c-2.538-1.288-8.439-5.039-8.408-12.022l.033-7.277.111-.024a16.634,16.634,0,0,0,8.353-4.507l.1-.11.12.126a16.6,16.6,0,0,0,8.27,4.567l.111.025v.114c0,.223-.007,1.461-.032,7.163-.035,7.809-7.667,11.548-8.537,11.948Zm-8.154-19.1-.031,7.05c-.03,6.77,5.667,10.444,8.191,11.737,1.1-.519,8.276-4.189,8.31-11.664.023-5.083.029-6.619.031-7.05a16.935,16.935,0,0,1-8.216-4.53A16.99,16.99,0,0,1,518.939,1064.256Z" transform="translate(-518.623 -1059.387)" fill="#fff"/>
                    </g>
                    <path id="Trazado_132345" data-name="Trazado 132345" d="M531.251,1087.847l-.235-.013a16,16,0,0,1-3.792-2.772,10.534,10.534,0,0,1-3.368-7.682l.028-6.3.211-.055a16.5,16.5,0,0,0,6.949-3.608l.2-.184.192.192-.185.215.193-.208a16.5,16.5,0,0,0,6.9,3.656l.211.056-.029,6.3a10.534,10.534,0,0,1-3.436,7.651,16.1,16.1,0,0,1-3.71,2.685Zm-6.8-16.328-.026,5.862a9.988,9.988,0,0,0,3.2,7.278,15.432,15.432,0,0,0,3.525,2.6,15.517,15.517,0,0,0,3.548-2.572,9.989,9.989,0,0,0,3.266-7.249l.026-5.864a17.132,17.132,0,0,1-6.754-3.57A17.162,17.162,0,0,1,524.447,1071.519Z" transform="translate(-522.661 -1065.444)" fill="#fff"/>
                  </g>
                </g>
                <g id="Grupo_61957" data-name="Grupo 61957" transform="translate(5.198 7.395)">
                  <path id="Trazado_132346" data-name="Trazado 132346" d="M541.412,1107.117v4.993c0,.556,6.789.556,6.789,0v-4.993Zm3.738,2.652v1.415a.343.343,0,1,1-.687,0v-1.418a.835.835,0,1,1,.687,0Z" transform="translate(-541.412 -1103.625)" fill="#fff"/>
                  <path id="Trazado_132347" data-name="Trazado 132347" d="M549.619,1094.942h-.687v-.336a2.113,2.113,0,1,0-4.225,0v.336h-.687v-.336a2.8,2.8,0,1,1,5.6,0Z" transform="translate(-543.424 -1091.806)" fill="#fff"/>
                </g>
              </g>
              <g id="Grupo_61961" data-name="Grupo 61961" transform="translate(50.089 44.579)">
                <g id="Grupo_61960" data-name="Grupo 61960">
                  <rect id="Rectángulo_29930" data-name="Rectángulo 29930" width="19.624" height="3.879" fill="url(#linear-gradient)"/>
                  <g id="Grupo_61959" data-name="Grupo 61959" transform="translate(3.076 1.226)">
                    <circle id="Elipse_4127" data-name="Elipse 4127" cx="0.847" cy="0.847" r="0.847" fill="#00223d"/>
                    <circle id="Elipse_4128" data-name="Elipse 4128" cx="0.847" cy="0.847" r="0.847" transform="translate(2.904)" fill="#00223d"/>
                    <circle id="Elipse_4129" data-name="Elipse 4129" cx="0.847" cy="0.847" r="0.847" transform="translate(5.809)" fill="#00223d"/>
                    <circle id="Elipse_4130" data-name="Elipse 4130" cx="0.847" cy="0.847" r="0.847" transform="translate(8.713)" fill="#00223d"/>
                    <circle id="Elipse_4131" data-name="Elipse 4131" cx="0.847" cy="0.847" r="0.847" transform="translate(11.617)" fill="#00223d"/>
                  </g>
                </g>
              </g>
              <g id="Grupo_61962" data-name="Grupo 61962" transform="translate(46.874 58.574)">
                <rect id="Rectángulo_29931" data-name="Rectángulo 29931" width="16.185" height="1.214" transform="translate(5.215)" fill="url(#linear-gradient)"/>
                <rect id="Rectángulo_29932" data-name="Rectángulo 29932" width="26.84" height="1.214" transform="translate(0 2.698)" fill="url(#linear-gradient)"/>
                <rect id="Rectángulo_29933" data-name="Rectángulo 29933" width="24.592" height="1.214" transform="translate(1.124 5.395)" fill="url(#linear-gradient)"/>
              </g>
              <g id="Grupo_61965" data-name="Grupo 61965" transform="translate(0 38)">
                <g id="Grupo_61963" data-name="Grupo 61963">
                  <rect id="Rectángulo_29934" data-name="Rectángulo 29934" width="17.539" height="8.706" rx="4.353" fill="#00223d"/>
                  <path id="Trazado_132348" data-name="Trazado 132348" d="M342.919,1184.051v3.928l-4-4Z" transform="translate(-328.275 -1176.752)" fill="#00223d"/>
                </g>
                <g id="Grupo_61964" data-name="Grupo 61964" transform="translate(2.591 3.67)">
                  <circle id="Elipse_4132" data-name="Elipse 4132" cx="0.764" cy="0.764" r="0.764" fill="url(#linear-gradient-2)"/>
                  <circle id="Elipse_4133" data-name="Elipse 4133" cx="0.764" cy="0.764" r="0.764" transform="translate(2.563)" fill="url(#linear-gradient-2)"/>
                  <path id="Trazado_132349" data-name="Trazado 132349" d="M327.621,1169.159a.764.764,0,1,1-.764-.764A.764.764,0,0,1,327.621,1169.159Z" transform="translate(-320.967 -1168.395)" fill="url(#linear-gradient-2)"/>
                  <path id="Trazado_132350" data-name="Trazado 132350" d="M338.856,1169.159a.764.764,0,1,1-.764-.764A.764.764,0,0,1,338.856,1169.159Z" transform="translate(-329.639 -1168.395)" fill="url(#linear-gradient-2)"/>
                  <circle id="Elipse_4134" data-name="Elipse 4134" cx="0.764" cy="0.764" r="0.764" transform="translate(10.25)" fill="url(#linear-gradient-2)"/>
                </g>
              </g>
              <g id="Grupo_61969" data-name="Grupo 61969" transform="translate(21.209 24.339)">
                <g id="Grupo_61967" data-name="Grupo 61967">
                  <g id="Grupo_61966" data-name="Grupo 61966">
                    <rect id="Rectángulo_29935" data-name="Rectángulo 29935" width="12.717" height="10.315" rx="5.157" fill="#37a3a5"/>
                    <path id="Trazado_132351" data-name="Trazado 132351" d="M405.418,1136.23l1.457,2.557,1.6-2.557Z" transform="translate(-400.818 -1126.236)" fill="#37a3a5"/>
                  </g>
                </g>
                <g id="Grupo_61968" data-name="Grupo 61968" transform="translate(3.333 3.003)">
                  <path id="Trazado_132352" data-name="Trazado 132352" d="M403.331,1107.493l-2.538-1.913h5.064Z" transform="translate(-400.58 -1105.579)" fill="url(#linear-gradient-2)"/>
                  <path id="Trazado_132353" data-name="Trazado 132353" d="M405.35,1107.74v3.321h-5.489v-3.321l2.751,2.063Z" transform="translate(-399.861 -1107.248)" fill="url(#linear-gradient-2)"/>
                </g>
              </g>
            </g>
            <g id="Grupo_61976" data-name="Grupo 61976" transform="translate(86.102 14.47)">
              <path id="Trazado_132354" data-name="Trazado 132354" d="M730.493,1054.121l-18.415.029,3.908,10.668Z" transform="translate(-702.424 -1052.986)" fill="url(#linear-gradient)"/>
              <path id="Trazado_132355" data-name="Trazado 132355" d="M690.226,1053.707s-6.807,1.1-5.872,15.02c1.23,1.191,13.779-.047,13.779-.047-2.1-2.156-2.8-6.635-2.929-12.036C695.2,1056.644,694.928,1053.195,690.226,1053.707Z" transform="translate(-680.956 -1052.627)" fill="#21587b"/>
              <path id="Trazado_132356" data-name="Trazado 132356" d="M738.548,1082.833l7.387-2,6.98-6.306,1.357,1.156s-5.383,6.805-6.736,8.02c-1.2,1.078-8.277,4.1-8.277,4.1Z" transform="translate(-722.857 -1068.74)" fill="#ffa599"/>
              <path id="Trazado_132357" data-name="Trazado 132357" d="M697.107,1114.231c.314,1.7,3.37,9.255,3.37,9.255,0,1.846,8.942,1.846,8.942,0,.108-2.821.359-8.11.321-11.236a8.565,8.565,0,0,0-3.556-4.351C702.438,1107.08,695.479,1108.042,697.107,1114.231Z" transform="translate(-690.681 -1094.304)" fill="#00223d"/>
              <path id="Trazado_132358" data-name="Trazado 132358" d="M686.374,1226.847h7.958a40.95,40.95,0,0,1-1.4,4.827c-3.24,8.878-4.821,20.764-8.241,28.594,0,0-1.472.763-2.449,0,.668-5.892.621-9.547,2.54-19.307C685.447,1238.121,685.178,1231.336,686.374,1226.847Z" transform="translate(-679.39 -1186.315)" fill="#ffa599"/>
              <path id="Trazado_132359" data-name="Trazado 132359" d="M730.623,1226.847c1.032,9.844,2.929,31.109,3.138,33.3l-2.529.013c-1.658-5.635-3.774-10.69-3.961-17.838-1.29-3.933-3.438-10.548-5.049-15.479Z" transform="translate(-710.254 -1186.315)" fill="#ffa599"/>
              <path id="Trazado_132360" data-name="Trazado 132360" d="M695.358,1235.455l6.009.5,1.459.121,6.45.535c.28,2.732.592,5.977.9,9.314-1.941.8-4.651,1.967-4.884,2.071l-3.159-9.672c-.925,3.013-2.056,6.953-2.91,10.028a23.93,23.93,0,0,0-5.061-1.773C694.474,1243.012,694.865,1238.918,695.358,1235.455Z" transform="translate(-688.592 -1192.959)" fill="#e87c5d"/>
              <path id="Trazado_132361" data-name="Trazado 132361" d="M717.534,1106.448s2.516,1.72,1.576,3.007c-.809,1.108-2.8-.155-2.8-.155s-.336,1.714-1.677,1.485c-1.865-.318-2.255-3.065-1.475-3.961S716.623,1105.986,717.534,1106.448Z" transform="translate(-702.961 -1093.125)" fill="#fff"/>
              <path id="Trazado_132362" data-name="Trazado 132362" d="M713.764,1098.866a2.3,2.3,0,0,0,2.674,1.512c.93-.135,1.4-.8,1.182-1.561l-.246-.975-.691-2.778-3.418.4Z" transform="translate(-703.34 -1084.591)" fill="#ffa599"/>
              <path id="Trazado_132363" data-name="Trazado 132363" d="M713.316,1091.556c.572,1.12,1.583,1.93,3.829,1.867l-.691-2.778-3.172.382Z" transform="translate(-703.354 -1081.179)" fill="#e87c5d"/>
              <path id="Trazado_132364" data-name="Trazado 132364" d="M677.553,1199.833a31.25,31.25,0,0,0,8.317,1.509c5.939.34,12.757-.644,13.368-1.718a140.534,140.534,0,0,0-4.739-22.54h-8.928a14.133,14.133,0,0,0-3.927,5.708A103.9,103.9,0,0,0,677.553,1199.833Z" transform="translate(-675.774 -1147.902)" fill="#00223d"/>
              <g id="Grupo_61971" data-name="Grupo 61971" transform="translate(20.715 73.834)">
                <path id="Trazado_132365" data-name="Trazado 132365" d="M768.169,1375.413c0-.032-1.5-.033-3.111-.026-1.85.006-4.153.026-4.153.026a8.383,8.383,0,0,1,.163-2.547l2.9-.015a19.691,19.691,0,0,1,2.211.565c.093.028.192.049.294.073C768.722,1374.01,768.169,1375.479,768.169,1375.413Z" transform="translate(-760.807 -1372.851)" fill="#00223d"/>
                <path id="Trazado_132366" data-name="Trazado 132366" d="M782.07,1377.324c0-.032-1.5-.033-3.11-.026a1.425,1.425,0,0,1-.076-.463,1.622,1.622,0,0,1,1.195-1.509c.093.026.192.049.294.073C782.623,1375.922,782.07,1377.39,782.07,1377.324Z" transform="translate(-774.708 -1374.762)" fill="#80b3ff"/>
                <rect id="Rectángulo_29936" data-name="Rectángulo 29936" width="7.51" height="0.456" transform="translate(0 2.108)" fill="#80b3ff"/>
              </g>
              <g id="Grupo_61972" data-name="Grupo 61972" transform="translate(0 73.938)">
                <path id="Trazado_132367" data-name="Trazado 132367" d="M675.261,1375.867c-.043,0-.779-.009-1.692-.017-1.486-.014-3.439-.026-3.622.017-.517-1.251.556-1.893,1.545-2.247.421-.149.828-.246,1.089-.315l2.517.014A8.374,8.374,0,0,1,675.261,1375.867Z" transform="translate(-669.799 -1373.305)" fill="#00223d"/>
                <rect id="Rectángulo_29937" data-name="Rectángulo 29937" width="5.561" height="0.456" transform="translate(5.561 2.563) rotate(180)" fill="#80b3ff"/>
              </g>
              <path id="Trazado_132368" data-name="Trazado 132368" d="M673.569,1376.862c-1.486-.014-3.439-.026-3.622.017-.517-1.251.556-1.893,1.545-2.247a2.053,2.053,0,0,1,1.768.583A1.42,1.42,0,0,1,673.569,1376.862Z" transform="translate(-669.799 -1300.38)" fill="#80b3ff"/>
              <path id="Trazado_132369" data-name="Trazado 132369" d="M716.41,1177.518a11.03,11.03,0,0,1-4.46-.923.2.2,0,1,1,.164-.373,11.326,11.326,0,0,0,8.752,0,.2.2,0,0,1,.178.367A11.75,11.75,0,0,1,716.41,1177.518Z" transform="translate(-702.232 -1147.223)" fill="#fff"/>
              <g id="Grupo_61973" data-name="Grupo 61973" transform="translate(6.118 0.891)">
                <path id="Trazado_132370" data-name="Trazado 132370" d="M706.353,1063.8a4.582,4.582,0,0,1-6.345-1.855c-1.843-2.461-2.424-5.454-.346-7.087a4.085,4.085,0,0,1,6.728,2.7,4.942,4.942,0,0,1,.915,1.818,2.392,2.392,0,0,1,.124.606A4.42,4.42,0,0,1,706.353,1063.8Z" transform="translate(-697.941 -1053.697)" fill="#ffa599"/>
                <path id="Trazado_132371" data-name="Trazado 132371" d="M697.11,1059.714a67.451,67.451,0,0,1,8.694-2.755c-.682-2.082-3.389-5.339-7.28-3.215C695.226,1055.477,697.11,1059.714,697.11,1059.714Z" transform="translate(-696.574 -1053.053)" fill="#21587b"/>
                <path id="Trazado_132372" data-name="Trazado 132372" d="M699.957,1067.168c-.6,2.53-.409,6.873,3.519,11.812l-1.6.258s-1.819-.327-4.648-6.734C695.557,1068.158,698.225,1066.542,699.957,1067.168Z" transform="translate(-696.669 -1063.848)" fill="#21587b"/>
              </g>
              <path id="Trazado_132373" data-name="Trazado 132373" d="M689.832,1118.264c-.28,1.689-2.927,7.5-2.927,7.5l2.014,10.32-1.606.634s-3.976-8.541-3.948-11.006c.036-3.126,2.693-8.817,2.693-8.817C687.431,1114.429,690.34,1115.2,689.832,1118.264Z" transform="translate(-680.261 -1100.31)" fill="#ffa599"/>
              <path id="Trazado_132374" data-name="Trazado 132374" d="M698.557,1204s-1.066,3.422.029,4.111,1.756-3.008,1.756-3.008.47.612.686.5-.422-1.49-.862-1.892A.939.939,0,0,0,698.557,1204Z" transform="translate(-691.628 -1168.2)" fill="#ffa599"/>
              <g id="Grupo_61975" data-name="Grupo 61975" transform="translate(27.897)">
                <path id="Trazado_132375" data-name="Trazado 132375" d="M797.143,1073.127s.5-.507.731.265c.81.29,1.547-.647,1.869.2C800.252,1074.936,797.635,1075.466,797.143,1073.127Z" transform="translate(-795.984 -1067.531)" fill="#ffa599"/>
                <path id="Trazado_132376" data-name="Trazado 132376" d="M799.311,1062.248a5.218,5.218,0,0,0-1.8-2.27c-.439-.212-.659-.074-.659-.074l1.695,4.6C799.363,1065.077,800.054,1063.826,799.311,1062.248Z" transform="translate(-795.755 -1057.416)" fill="#ffa599"/>
                <g id="Grupo_61974" data-name="Grupo 61974">
                  <path id="Trazado_132377" data-name="Trazado 132377" d="M794.906,1058.043l-2.846-8.41a.669.669,0,0,1,.228-.305l2.927,8.836A.835.835,0,0,1,794.906,1058.043Z" transform="translate(-792.06 -1049.286)" fill="#404040"/>
                  <path id="Trazado_132378" data-name="Trazado 132378" d="M793.06,1049.188c.1-.062.239-.07.413.089a49.422,49.422,0,0,1,2.845,8.409c-.028.3-.182.356-.331.338Z" transform="translate(-792.832 -1049.146)"/>
                </g>
                <path id="Trazado_132379" data-name="Trazado 132379" d="M797.175,1059.817s-.522-.162-.316,1c.251,1.416,1.054,2.188,1.5,2.1C798.84,1062.817,798.211,1060.013,797.175,1059.817Z" transform="translate(-795.727 -1057.377)" fill="#ffa599"/>
              </g>
              <path id="Trazado_132380" data-name="Trazado 132380" d="M730.239,1077.1a.044.044,0,0,1-.012-.086c.119-.033.431-.153.447-.305.014-.13-.519-.541-.9-.79a.044.044,0,0,1,.048-.073c.161.105.965.642.941.873s-.46.366-.51.38Z" transform="translate(-716.067 -1069.751)" fill="#bd4a31"/>
              <path id="Trazado_132381" data-name="Trazado 132381" d="M725.037,1086.816a3.931,3.931,0,0,1-2.775.345C723.441,1088.113,724.743,1088.542,725.037,1086.816Z" transform="translate(-710.285 -1078.224)" fill="#bd4a31"/>
              <path id="Trazado_132382" data-name="Trazado 132382" d="M720.688,1077.009c.055.168.031.326-.052.353s-.2-.087-.25-.255-.031-.326.052-.353S720.633,1076.841,720.688,1077.009Z" transform="translate(-708.814 -1070.453)" fill="#0e0e0e"/>
              <path id="Trazado_132383" data-name="Trazado 132383" d="M733.438,1072.99c.047.146.027.283-.045.307s-.169-.076-.217-.221-.027-.283.045-.307S733.391,1072.844,733.438,1072.99Z" transform="translate(-718.69 -1067.378)" fill="#0e0e0e"/>
              <path id="Trazado_132384" data-name="Trazado 132384" d="M720.122,1082.8c.035.167.321.248.638.182s.546-.256.511-.423-.321-.248-.638-.181S720.087,1082.638,720.122,1082.8Z" transform="translate(-708.631 -1074.783)" fill="#ff8f80"/>
              <path id="Trazado_132385" data-name="Trazado 132385" d="M735.941,1078.524h-.012c-.322.062-.606-.012-.643-.185s.2-.347.507-.421h.025A2.4,2.4,0,0,1,735.941,1078.524Z" transform="translate(-720.335 -1071.355)" fill="#ff8f80"/>
            </g>
          </g>
        </g>
      </g>
    </g>
    <line id="Línea_1692" data-name="Línea 1692" x2="53.181" transform="translate(243.123 1309.833)" fill="none" stroke="#37a3a5" stroke-linecap="round" stroke-miterlimit="10" stroke-width="0.806"/>
  </g>
</svg>
