<svg xmlns="http://www.w3.org/2000/svg" xmlns:xlink="http://www.w3.org/1999/xlink" width="272.849" height="361.707" viewBox="0 0 272.849 361.707">
  <defs>
    <linearGradient id="linear-gradient" x1="0.5" x2="0.5" y2="1" gradientUnits="objectBoundingBox">
      <stop offset="0" stop-color="#fff"/>
      <stop offset="1" stop-color="#f8f8f8"/>
    </linearGradient>
    <linearGradient id="linear-gradient-2" x1="0.5" x2="0.5" y2="1" gradientUnits="objectBoundingBox">
      <stop offset="0" stop-color="#fff"/>
      <stop offset="1" stop-color="#d2e6ee"/>
    </linearGradient>
  </defs>
  <g id="Grupo_62060" data-name="Grupo 62060" transform="translate(-134.909 -971.945)">
    <g id="Grupo_57070" data-name="Grupo 57070" transform="translate(134.909 971.945)">
      <g id="Grupo_57069" data-name="Grupo 57069" transform="translate(0 0)" opacity="0.7" style="mix-blend-mode: multiply;isolation: isolate">
        <rect id="Rectángulo_29501" data-name="Rectángulo 29501" width="272.849" height="361.707" rx="9.04" transform="translate(0 0)" fill="#fff" opacity="0"/>
        <rect id="Rectángulo_29502" data-name="Rectángulo 29502" width="270.375" height="359.234" rx="9.04" transform="translate(1.237 1.237)" fill="#f3f3f3" opacity="0.048"/>
        <rect id="Rectángulo_29503" data-name="Rectángulo 29503" width="267.902" height="356.76" rx="9.04" transform="translate(2.473 2.474)" fill="#e7e7e7" opacity="0.095"/>
        <rect id="Rectángulo_29504" data-name="Rectángulo 29504" width="265.428" height="354.287" rx="9.04" transform="translate(3.71 3.71)" fill="#dbdbdb" opacity="0.143"/>
        <rect id="Rectángulo_29505" data-name="Rectángulo 29505" width="262.955" height="351.813" rx="9.04" transform="translate(4.947 4.947)" fill="#cecece" opacity="0.19"/>
        <rect id="Rectángulo_29506" data-name="Rectángulo 29506" width="260.481" height="349.34" rx="9.04" transform="translate(6.184 6.184)" fill="#c2c2c2" opacity="0.238"/>
        <rect id="Rectángulo_29507" data-name="Rectángulo 29507" width="258.008" height="346.866" rx="9.04" transform="translate(7.42 7.42)" fill="#b6b6b6" opacity="0.286"/>
        <rect id="Rectángulo_29508" data-name="Rectángulo 29508" width="255.534" height="344.393" rx="9.04" transform="translate(8.657 8.657)" fill="#aaa" opacity="0.333"/>
        <rect id="Rectángulo_29509" data-name="Rectángulo 29509" width="253.061" height="341.919" rx="9.04" transform="translate(9.894 9.894)" fill="#9e9e9e" opacity="0.381"/>
        <rect id="Rectángulo_29510" data-name="Rectángulo 29510" width="250.587" height="339.446" rx="9.04" transform="translate(11.131 11.131)" fill="#929292" opacity="0.429"/>
        <rect id="Rectángulo_29511" data-name="Rectángulo 29511" width="248.114" height="336.972" rx="9.04" transform="translate(12.367 12.367)" fill="#868686" opacity="0.476"/>
        <rect id="Rectángulo_29512" data-name="Rectángulo 29512" width="245.64" height="334.499" rx="9.04" transform="translate(13.604 13.604)" fill="#797979" opacity="0.524"/>
        <rect id="Rectángulo_29513" data-name="Rectángulo 29513" width="243.167" height="332.025" rx="9.04" transform="translate(14.841 14.841)" fill="#6d6d6d" opacity="0.571"/>
        <rect id="Rectángulo_29514" data-name="Rectángulo 29514" width="240.693" height="329.552" rx="9.04" transform="translate(16.078 16.078)" fill="#616161" opacity="0.619"/>
        <rect id="Rectángulo_29515" data-name="Rectángulo 29515" width="238.22" height="327.078" rx="9.04" transform="translate(17.314 17.314)" fill="#555" opacity="0.667"/>
        <rect id="Rectángulo_29516" data-name="Rectángulo 29516" width="235.746" height="324.605" rx="9.04" transform="translate(18.551 18.551)" fill="#494949" opacity="0.714"/>
        <rect id="Rectángulo_29517" data-name="Rectángulo 29517" width="233.273" height="322.131" rx="9.04" transform="translate(19.788 19.788)" fill="#3d3d3d" opacity="0.762"/>
        <rect id="Rectángulo_29518" data-name="Rectángulo 29518" width="230.799" height="319.658" rx="9.04" transform="translate(21.025 21.025)" fill="#313131" opacity="0.81"/>
        <rect id="Rectángulo_29519" data-name="Rectángulo 29519" width="228.326" height="317.184" rx="9.04" transform="translate(22.261 22.261)" fill="#242424" opacity="0.857"/>
        <rect id="Rectángulo_29520" data-name="Rectángulo 29520" width="225.852" height="314.711" rx="9.04" transform="translate(23.498 23.498)" fill="#181818" opacity="0.905"/>
        <rect id="Rectángulo_29521" data-name="Rectángulo 29521" width="223.379" height="312.237" rx="9.04" transform="translate(24.735 24.735)" fill="#0c0c0c" opacity="0.952"/>
        <rect id="Rectángulo_29522" data-name="Rectángulo 29522" width="220.905" height="309.764" rx="9.04" transform="translate(25.972 25.972)"/>
      </g>
      <rect id="Rectángulo_29523" data-name="Rectángulo 29523" width="252.868" height="341.726" transform="translate(8.793 10.308)" fill="url(#linear-gradient)"/>
      <path id="Trazado_123976" data-name="Trazado 123976" d="M185.015,982.253H437.883v12.858H334.317l-23.373,12.322-24.488-12.59-101.441.268Z" transform="translate(-176.222 -971.945)" fill="#37a3a5"/>
      <path id="Trazado_123977" data-name="Trazado 123977" d="M284.548,988.8,272,998.621a3.623,3.623,0,0,1-4.432.027L254.3,988.517" transform="translate(-135.895 -971.945)" fill="none" stroke="#12263f" stroke-linecap="round" stroke-miterlimit="10" stroke-width="0.806"/>
      <path id="Trazado_133723" data-name="Trazado 133723" d="M21.758,11.688a4.58,4.58,0,0,1-.168,1.324,2.959,2.959,0,0,1-.535.957q-.375.461-1.094,1.215a2.674,2.674,0,0,0-.8,1.527L19.141,17a1.752,1.752,0,0,0,.453,1.3,1.775,1.775,0,0,0,1.3.449,1.821,1.821,0,0,0,1.27-.441,1.48,1.48,0,0,0,.488-1.152H24.1a2.7,2.7,0,0,1-.895,2.055,3.3,3.3,0,0,1-2.309.8,3.326,3.326,0,0,1-2.367-.785,2.85,2.85,0,0,1-.836-2.184,4.076,4.076,0,0,1,1.25-2.719l.852-.883a2.638,2.638,0,0,0,.516-1.75Zm.063-2.473a.869.869,0,0,1-.215.6.8.8,0,0,1-.637.243.817.817,0,0,1-.641-.243.86.86,0,0,1-.219-.6.821.821,0,0,1,.219-.581.832.832,0,0,1,.641-.235.819.819,0,0,1,.637.235A.83.83,0,0,1,21.82,9.215Zm12.6,4.176a4.185,4.185,0,0,1-1.332,2.785,4.365,4.365,0,0,1-2.98.98,4.008,4.008,0,0,1-3.23-1.445,5.815,5.815,0,0,1-1.215-3.867V10.75a6.481,6.481,0,0,1,.566-2.789,4.231,4.231,0,0,1,1.605-1.848,4.47,4.47,0,0,1,2.406-.645A4.11,4.11,0,0,1,33.148,6.48a4.235,4.235,0,0,1,1.273,2.8H32.914a3.268,3.268,0,0,0-.848-1.975A2.565,2.565,0,0,0,30.242,6.7a2.684,2.684,0,0,0-2.254,1.063,4.882,4.882,0,0,0-.816,3.026v1.1a5.018,5.018,0,0,0,.773,2.948,2.5,2.5,0,0,0,2.164,1.095,2.886,2.886,0,0,0,1.918-.566,3.143,3.143,0,0,0,.887-1.973Zm1.438-.7a4.993,4.993,0,0,1,.488-2.234A3.643,3.643,0,0,1,37.707,8.93,3.7,3.7,0,0,1,39.7,8.391a3.565,3.565,0,0,1,2.793,1.2,4.6,4.6,0,0,1,1.066,3.18v.1a5.036,5.036,0,0,1-.473,2.215,3.589,3.589,0,0,1-1.352,1.527,3.743,3.743,0,0,1-2.02.547,3.556,3.556,0,0,1-2.785-1.2A4.575,4.575,0,0,1,35.859,12.8Zm1.453.172a3.616,3.616,0,0,0,.652,2.258,2.211,2.211,0,0,0,3.5-.012,3.955,3.955,0,0,0,.648-2.418,3.61,3.61,0,0,0-.66-2.254A2.1,2.1,0,0,0,39.7,9.578a2.075,2.075,0,0,0-1.727.852A3.925,3.925,0,0,0,37.313,12.867ZM40.352,5H42.1L40.008,7.3l-1.164,0Zm6.375,3.547.039.938a3.122,3.122,0,0,1,2.508-1.094A2.417,2.417,0,0,1,51.688,9.75a3.2,3.2,0,0,1,1.1-.984,3.242,3.242,0,0,1,1.6-.375q2.781,0,2.828,2.945V17H55.766V11.422a1.941,1.941,0,0,0-.414-1.355,1.823,1.823,0,0,0-1.391-.449,1.917,1.917,0,0,0-1.336.48,1.949,1.949,0,0,0-.617,1.293V17H50.555V11.461a1.613,1.613,0,0,0-1.8-1.844A1.934,1.934,0,0,0,46.8,10.828V17H45.359V8.547ZM59.008,12.7a4.993,4.993,0,0,1,.488-2.234A3.643,3.643,0,0,1,60.855,8.93a3.7,3.7,0,0,1,1.988-.539,3.565,3.565,0,0,1,2.793,1.2,4.6,4.6,0,0,1,1.066,3.18v.1a5.036,5.036,0,0,1-.473,2.215,3.589,3.589,0,0,1-1.352,1.527,3.743,3.743,0,0,1-2.02.547,3.556,3.556,0,0,1-2.785-1.2A4.575,4.575,0,0,1,59.008,12.8Zm1.453.172a3.616,3.616,0,0,0,.652,2.258,2.211,2.211,0,0,0,3.5-.012,3.955,3.955,0,0,0,.648-2.418,3.61,3.61,0,0,0-.66-2.254,2.1,2.1,0,0,0-1.754-.863,2.075,2.075,0,0,0-1.727.852A3.925,3.925,0,0,0,60.461,12.867ZM77.7,17a3.036,3.036,0,0,1-.2-.891,3.225,3.225,0,0,1-2.406,1.047,2.984,2.984,0,0,1-2.051-.707,2.288,2.288,0,0,1-.8-1.793,2.39,2.39,0,0,1,1-2.051,4.733,4.733,0,0,1,2.824-.73h1.406v-.664A1.623,1.623,0,0,0,77.016,10a1.821,1.821,0,0,0-1.336-.449,2.108,2.108,0,0,0-1.3.391,1.151,1.151,0,0,0-.523.945H72.406a2,2,0,0,1,.449-1.223,3.066,3.066,0,0,1,1.219-.934,4.1,4.1,0,0,1,1.691-.344,3.342,3.342,0,0,1,2.289.73,2.635,2.635,0,0,1,.859,2.012v3.891a4.757,4.757,0,0,0,.3,1.852V17Zm-2.4-1.1a2.54,2.54,0,0,0,1.289-.352,2.127,2.127,0,0,0,.883-.914V12.9H76.336q-2.656,0-2.656,1.555a1.316,1.316,0,0,0,.453,1.063A1.742,1.742,0,0,0,75.3,15.9Zm11.1.266a3.07,3.07,0,0,1-2.477.992,2.628,2.628,0,0,1-2.059-.785,3.4,3.4,0,0,1-.715-2.324v-5.5h1.445v5.461q0,1.922,1.563,1.922a2.163,2.163,0,0,0,2.2-1.234V8.547H87.8V17H86.43Zm3.25-3.461a4.952,4.952,0,0,1,.922-3.129,3.137,3.137,0,0,1,4.766-.168V5h1.445V17H95.453l-.07-.906a2.943,2.943,0,0,1-2.414,1.063,2.887,2.887,0,0,1-2.395-1.2,5.008,5.008,0,0,1-.926-3.141Zm1.445.164a3.749,3.749,0,0,0,.594,2.25,1.92,1.92,0,0,0,1.641.813A2.108,2.108,0,0,0,95.336,14.7V10.813a2.125,2.125,0,0,0-1.992-1.2,1.929,1.929,0,0,0-1.656.82A4.128,4.128,0,0,0,91.094,12.867Zm9.5,4.133H99.148V8.547h1.445ZM99.031,6.3a.863.863,0,0,1,.215-.594.807.807,0,0,1,.637-.242.819.819,0,0,1,.641.242.854.854,0,0,1,.219.594.826.826,0,0,1-.219.586.834.834,0,0,1-.641.234.821.821,0,0,1-.637-.234A.834.834,0,0,1,99.031,6.3Zm5.836.2V8.547h1.578V9.664h-1.578v5.249a1.173,1.173,0,0,0,.211.763.888.888,0,0,0,.719.254,3.5,3.5,0,0,0,.688-.094V17a4.215,4.215,0,0,1-1.109.155,1.8,1.8,0,0,1-1.461-.586,2.517,2.517,0,0,1-.492-1.664V9.664h-1.539V8.547h1.539V6.5ZM113.352,17a3.036,3.036,0,0,1-.2-.891,3.225,3.225,0,0,1-2.406,1.047,2.984,2.984,0,0,1-2.051-.707,2.288,2.288,0,0,1-.8-1.793,2.39,2.39,0,0,1,1-2.051,4.733,4.733,0,0,1,2.824-.73h1.406v-.664A1.623,1.623,0,0,0,112.672,10a1.821,1.821,0,0,0-1.336-.449,2.108,2.108,0,0,0-1.3.391,1.151,1.151,0,0,0-.523.945h-1.453a2,2,0,0,1,.449-1.223,3.066,3.066,0,0,1,1.219-.934,4.1,4.1,0,0,1,1.691-.344,3.342,3.342,0,0,1,2.289.73,2.635,2.635,0,0,1,.859,2.012v3.891a4.757,4.757,0,0,0,.3,1.852V17Zm-2.4-1.1a2.54,2.54,0,0,0,1.289-.352,2.127,2.127,0,0,0,.883-.914V12.9h-1.133q-2.656,0-2.656,1.555a1.316,1.316,0,0,0,.453,1.063A1.742,1.742,0,0,0,110.953,15.9Zm9.969-6.055a4.331,4.331,0,0,0-.711-.055A1.9,1.9,0,0,0,118.281,11v6h-1.445V8.547h1.406l.023.977a2.251,2.251,0,0,1,2.016-1.133,1.477,1.477,0,0,1,.641.109Zm6.648-1.3.039.938a3.122,3.122,0,0,1,2.508-1.094,2.417,2.417,0,0,1,2.414,1.359,3.2,3.2,0,0,1,1.1-.984,3.242,3.242,0,0,1,1.6-.375q2.781,0,2.828,2.945V17h-1.445V11.422a1.941,1.941,0,0,0-.414-1.355,1.823,1.823,0,0,0-1.391-.449,1.917,1.917,0,0,0-1.336.48,1.949,1.949,0,0,0-.617,1.293V17H131.4V11.461a1.613,1.613,0,0,0-1.8-1.844,1.934,1.934,0,0,0-1.945,1.211V17H126.2V8.547ZM141.8,17h-1.445V8.547H141.8ZM140.242,6.3a.863.863,0,0,1,.215-.594.807.807,0,0,1,.637-.242.819.819,0,0,1,.641.242.854.854,0,0,1,.219.594.826.826,0,0,1-.219.586.834.834,0,0,1-.641.234.821.821,0,0,1-.637-.234A.834.834,0,0,1,140.242,6.3Zm14.977,6.563a5.062,5.062,0,0,1-.883,3.109,2.829,2.829,0,0,1-2.391,1.18,3.1,3.1,0,0,1-2.422-.977v4.07h-1.445V8.547h1.32l.07.938a2.977,2.977,0,0,1,2.453-1.094,2.882,2.882,0,0,1,2.41,1.148,5.117,5.117,0,0,1,.887,3.2Zm-1.445-.164a3.735,3.735,0,0,0-.609-2.258,1.963,1.963,0,0,0-1.672-.828,2.125,2.125,0,0,0-1.969,1.164V14.82a2.129,2.129,0,0,0,1.984,1.156,1.954,1.954,0,0,0,1.652-.824A4.077,4.077,0,0,0,153.773,12.7Zm4.852,4.3H157.18V5h1.445Zm7.531,0a3.036,3.036,0,0,1-.2-.891,3.225,3.225,0,0,1-2.406,1.047,2.984,2.984,0,0,1-2.051-.707,2.287,2.287,0,0,1-.8-1.793,2.39,2.39,0,0,1,1-2.051,4.733,4.733,0,0,1,2.824-.73h1.406v-.664A1.623,1.623,0,0,0,165.477,10a1.821,1.821,0,0,0-1.336-.449,2.107,2.107,0,0,0-1.3.391,1.151,1.151,0,0,0-.523.945h-1.453a2,2,0,0,1,.449-1.223,3.066,3.066,0,0,1,1.219-.934,4.1,4.1,0,0,1,1.691-.344,3.342,3.342,0,0,1,2.289.73,2.635,2.635,0,0,1,.859,2.012v3.891a4.757,4.757,0,0,0,.3,1.852V17Zm-2.4-1.1a2.54,2.54,0,0,0,1.289-.352,2.127,2.127,0,0,0,.883-.914V12.9H164.8q-2.656,0-2.656,1.555a1.316,1.316,0,0,0,.453,1.063A1.742,1.742,0,0,0,163.758,15.9Zm7.25-7.352.047,1.063a3.08,3.08,0,0,1,2.531-1.219q2.68,0,2.7,3.023V17h-1.445V11.406a1.946,1.946,0,0,0-.418-1.352,1.675,1.675,0,0,0-1.277-.437,2.086,2.086,0,0,0-1.234.375,2.546,2.546,0,0,0-.828.984V17h-1.445V8.547Zm11.07,4.156A4.952,4.952,0,0,1,183,9.574a3.137,3.137,0,0,1,4.766-.168V5h1.445V17h-1.328l-.07-.906a2.943,2.943,0,0,1-2.414,1.063,2.887,2.887,0,0,1-2.395-1.2,5.008,5.008,0,0,1-.926-3.141Zm1.445.164a3.749,3.749,0,0,0,.594,2.25,1.919,1.919,0,0,0,1.641.813,2.108,2.108,0,0,0,2.008-1.234V10.813a2.125,2.125,0,0,0-1.992-1.2,1.929,1.929,0,0,0-1.656.82A4.128,4.128,0,0,0,183.523,12.867Zm11.438,4.289a3.693,3.693,0,0,1-2.8-1.129,4.19,4.19,0,0,1-1.078-3.02v-.266a5.073,5.073,0,0,1,.48-2.246,3.748,3.748,0,0,1,1.344-1.547,3.378,3.378,0,0,1,1.871-.559,3.166,3.166,0,0,1,2.563,1.086,4.7,4.7,0,0,1,.914,3.109v.6h-5.727a3,3,0,0,0,.73,2.02,2.3,2.3,0,0,0,1.777.77,2.517,2.517,0,0,0,1.3-.312,3.258,3.258,0,0,0,.93-.828l.883.688A3.55,3.55,0,0,1,194.961,17.156Zm-.18-7.578a1.928,1.928,0,0,0-1.469.637A3.1,3.1,0,0,0,192.578,12h4.234v-.109a2.753,2.753,0,0,0-.594-1.707A1.815,1.815,0,0,0,194.781,9.578Zm-144,29.18a1.064,1.064,0,0,0-.441-.91,4.249,4.249,0,0,0-1.539-.559,7.277,7.277,0,0,1-1.742-.562,2.479,2.479,0,0,1-.953-.781,1.869,1.869,0,0,1-.309-1.078,2.193,2.193,0,0,1,.879-1.758,3.432,3.432,0,0,1,2.246-.719,3.532,3.532,0,0,1,2.332.742,2.357,2.357,0,0,1,.895,1.9H50.7a1.3,1.3,0,0,0-.5-1.023,1.888,1.888,0,0,0-1.27-.43,1.976,1.976,0,0,0-1.234.344,1.082,1.082,0,0,0-.445.9.877.877,0,0,0,.414.789,5.1,5.1,0,0,0,1.5.508,7.8,7.8,0,0,1,1.754.578,2.558,2.558,0,0,1,1,.809,1.988,1.988,0,0,1,.324,1.152,2.163,2.163,0,0,1-.906,1.816,3.8,3.8,0,0,1-2.352.684,4.257,4.257,0,0,1-1.8-.359,2.922,2.922,0,0,1-1.223-1,2.42,2.42,0,0,1-.441-1.395h1.445a1.5,1.5,0,0,0,.582,1.152,2.258,2.258,0,0,0,1.434.426,2.331,2.331,0,0,0,1.316-.332A1.02,1.02,0,0,0,50.785,38.758Zm6.836,2.4a3.693,3.693,0,0,1-2.8-1.129,4.19,4.19,0,0,1-1.078-3.02v-.266a5.073,5.073,0,0,1,.48-2.246,3.748,3.748,0,0,1,1.344-1.547,3.378,3.378,0,0,1,1.871-.559A3.166,3.166,0,0,1,60,33.477a4.7,4.7,0,0,1,.914,3.109v.6H55.191a3,3,0,0,0,.73,2.02,2.3,2.3,0,0,0,1.777.77,2.517,2.517,0,0,0,1.3-.312,3.258,3.258,0,0,0,.93-.828l.883.688A3.55,3.55,0,0,1,57.621,41.156Zm-.18-7.578a1.928,1.928,0,0,0-1.469.637A3.1,3.1,0,0,0,55.238,36h4.234v-.109a2.753,2.753,0,0,0-.594-1.707A1.815,1.815,0,0,0,57.441,33.578Zm4.8,3.125a4.968,4.968,0,0,1,.914-3.145A3.151,3.151,0,0,1,68,33.484l.07-.937h1.32V40.8a3.439,3.439,0,0,1-.973,2.586,3.589,3.589,0,0,1-2.613.945,4.348,4.348,0,0,1-1.789-.391,3.08,3.08,0,0,1-1.336-1.07l.75-.867A2.826,2.826,0,0,0,65.7,43.148a2.214,2.214,0,0,0,1.645-.594,2.269,2.269,0,0,0,.59-1.672v-.727a2.971,2.971,0,0,1-2.367,1,2.887,2.887,0,0,1-2.4-1.2A5.224,5.224,0,0,1,62.246,36.7Zm1.453.164a3.79,3.79,0,0,0,.586,2.246,1.9,1.9,0,0,0,1.641.816,2.117,2.117,0,0,0,2.008-1.242V34.828a2.142,2.142,0,0,0-1.992-1.211,1.921,1.921,0,0,0-1.648.82A4.128,4.128,0,0,0,63.7,36.867Zm13.086,3.3a3.07,3.07,0,0,1-2.477.992,2.628,2.628,0,0,1-2.059-.785,3.4,3.4,0,0,1-.715-2.324v-5.5H72.98v5.461q0,1.922,1.563,1.922a2.163,2.163,0,0,0,2.2-1.234V32.547h1.445V41H76.816Zm7.688-6.32a4.331,4.331,0,0,0-.711-.055A1.9,1.9,0,0,0,81.832,35v6H80.387V32.547h1.406l.023.977a2.251,2.251,0,0,1,2.016-1.133,1.477,1.477,0,0,1,.641.109ZM87.371,41H85.926V32.547h1.445ZM85.809,30.3a.863.863,0,0,1,.215-.594.807.807,0,0,1,.637-.242.819.819,0,0,1,.641.242.854.854,0,0,1,.219.594.826.826,0,0,1-.219.586.834.834,0,0,1-.641.234.821.821,0,0,1-.637-.234A.834.834,0,0,1,85.809,30.3Zm3.523,6.4a4.952,4.952,0,0,1,.922-3.129,3.137,3.137,0,0,1,4.766-.168V29h1.445V41H95.137l-.07-.906a2.943,2.943,0,0,1-2.414,1.063,2.887,2.887,0,0,1-2.395-1.2,5.008,5.008,0,0,1-.926-3.141Zm1.445.164a3.749,3.749,0,0,0,.594,2.25,1.92,1.92,0,0,0,1.641.813A2.108,2.108,0,0,0,95.02,38.7V34.813a2.125,2.125,0,0,0-1.992-1.2,1.929,1.929,0,0,0-1.656.82A4.128,4.128,0,0,0,90.777,36.867ZM103.926,41a3.036,3.036,0,0,1-.2-.891,3.225,3.225,0,0,1-2.406,1.047,2.984,2.984,0,0,1-2.051-.707,2.288,2.288,0,0,1-.8-1.793,2.39,2.39,0,0,1,1-2.051,4.733,4.733,0,0,1,2.824-.73H103.7v-.664A1.623,1.623,0,0,0,103.246,34a1.821,1.821,0,0,0-1.336-.449,2.107,2.107,0,0,0-1.3.391,1.151,1.151,0,0,0-.523.945H98.637a2,2,0,0,1,.449-1.223,3.066,3.066,0,0,1,1.219-.934A4.1,4.1,0,0,1,102,32.391a3.342,3.342,0,0,1,2.289.73,2.635,2.635,0,0,1,.859,2.012v3.891a4.757,4.757,0,0,0,.3,1.852V41Zm-2.4-1.1a2.54,2.54,0,0,0,1.289-.352,2.127,2.127,0,0,0,.883-.914V36.9h-1.133q-2.656,0-2.656,1.555a1.316,1.316,0,0,0,.453,1.063A1.742,1.742,0,0,0,101.527,39.9Zm5.531-3.2a4.952,4.952,0,0,1,.922-3.129,3.137,3.137,0,0,1,4.766-.168V29h1.445V41h-1.328l-.07-.906a2.943,2.943,0,0,1-2.414,1.063,2.887,2.887,0,0,1-2.395-1.2,5.008,5.008,0,0,1-.926-3.141Zm1.445.164a3.749,3.749,0,0,0,.594,2.25,1.92,1.92,0,0,0,1.641.813,2.108,2.108,0,0,0,2.008-1.234V34.813a2.125,2.125,0,0,0-1.992-1.2,1.929,1.929,0,0,0-1.656.82A4.128,4.128,0,0,0,108.5,36.867Zm11.539-.164a4.952,4.952,0,0,1,.922-3.129,3.137,3.137,0,0,1,4.766-.168V29h1.445V41h-1.328l-.07-.906a2.943,2.943,0,0,1-2.414,1.063,2.887,2.887,0,0,1-2.395-1.2,5.008,5.008,0,0,1-.926-3.141Zm1.445.164a3.749,3.749,0,0,0,.594,2.25,1.92,1.92,0,0,0,1.641.813A2.108,2.108,0,0,0,125.73,38.7V34.813a2.125,2.125,0,0,0-1.992-1.2,1.929,1.929,0,0,0-1.656.82A4.128,4.128,0,0,0,121.488,36.867Zm11.438,4.289a3.693,3.693,0,0,1-2.8-1.129,4.19,4.19,0,0,1-1.078-3.02v-.266a5.073,5.073,0,0,1,.48-2.246,3.748,3.748,0,0,1,1.344-1.547,3.378,3.378,0,0,1,1.871-.559,3.166,3.166,0,0,1,2.563,1.086,4.7,4.7,0,0,1,.914,3.109v.6H130.5a3,3,0,0,0,.73,2.02,2.3,2.3,0,0,0,1.777.77,2.517,2.517,0,0,0,1.3-.312,3.258,3.258,0,0,0,.93-.828l.883.688A3.55,3.55,0,0,1,132.926,41.156Zm-.18-7.578a1.928,1.928,0,0,0-1.469.637A3.1,3.1,0,0,0,130.543,36h4.234v-.109a2.753,2.753,0,0,0-.594-1.707A1.815,1.815,0,0,0,132.746,33.578Zm13.2.266a4.331,4.331,0,0,0-.711-.055A1.9,1.9,0,0,0,143.3,35v6h-1.445V32.547h1.406l.023.977a2.251,2.251,0,0,1,2.016-1.133,1.477,1.477,0,0,1,.641.109Zm4.836,7.313a3.693,3.693,0,0,1-2.8-1.129,4.19,4.19,0,0,1-1.078-3.02v-.266a5.073,5.073,0,0,1,.48-2.246,3.748,3.748,0,0,1,1.344-1.547,3.378,3.378,0,0,1,1.871-.559,3.166,3.166,0,0,1,2.563,1.086,4.7,4.7,0,0,1,.914,3.109v.6h-5.727a3,3,0,0,0,.73,2.02,2.3,2.3,0,0,0,1.777.77,2.517,2.517,0,0,0,1.3-.312,3.258,3.258,0,0,0,.93-.828l.883.688A3.55,3.55,0,0,1,150.777,41.156Zm-.18-7.578a1.928,1.928,0,0,0-1.469.637A3.1,3.1,0,0,0,148.395,36h4.234v-.109a2.753,2.753,0,0,0-.594-1.707A1.815,1.815,0,0,0,150.6,33.578Zm4.8,3.125a4.952,4.952,0,0,1,.922-3.129,3.137,3.137,0,0,1,4.766-.168V29h1.445V41H161.2l-.07-.906a2.943,2.943,0,0,1-2.414,1.063,2.887,2.887,0,0,1-2.395-1.2,5.008,5.008,0,0,1-.926-3.141Zm1.445.164a3.749,3.749,0,0,0,.594,2.25,1.919,1.919,0,0,0,1.641.813,2.108,2.108,0,0,0,2.008-1.234V34.813a2.125,2.125,0,0,0-1.992-1.2,1.929,1.929,0,0,0-1.656.82A4.128,4.128,0,0,0,156.84,36.867Zm9.625.917a4.663,4.663,0,0,1,.211-1.466,3.761,3.761,0,0,1,.8-1.193l1.023-1.053a2.36,2.36,0,0,0,.656-1.59,1.815,1.815,0,0,0-.43-1.282,1.62,1.62,0,0,0-1.25-.464,1.881,1.881,0,0,0-1.281.422,1.426,1.426,0,0,0-.484,1.133h-1.445a2.632,2.632,0,0,1,.9-2.043,3.374,3.374,0,0,1,2.309-.777,3.185,3.185,0,0,1,2.3.792,2.87,2.87,0,0,1,.824,2.172,3.926,3.926,0,0,1-1.266,2.691l-.852.842a2.623,2.623,0,0,0-.57,1.818Zm-.062,2.482a.861.861,0,0,1,.215-.6.81.81,0,0,1,.637-.241.822.822,0,0,1,.641.241.852.852,0,0,1,.219.6.824.824,0,0,1-.219.588.837.837,0,0,1-.641.233.774.774,0,0,1-.852-.82Z" transform="translate(28.313 209.358)" fill="#12263f"/>
      <g id="cloud" transform="translate(72.916 70.819)">
        <g id="Grupo_61977" data-name="Grupo 61977" transform="translate(44.335 28.488)">
          <path id="Trazado_132386" data-name="Trazado 132386" d="M1423.754,1040.071a.274.274,0,0,1-.274-.273.294.294,0,0,1,.274-.3.256.256,0,0,1,.273.252v.044A.274.274,0,0,1,1423.754,1040.071Z" transform="translate(-1423.48 -1039.502)" fill="#2e97e6"/>
          <path id="Trazado_132387" data-name="Trazado 132387" d="M1423.754,1073.918a.274.274,0,0,1-.274-.273v-.089a.274.274,0,1,1,.547,0v.089A.274.274,0,0,1,1423.754,1073.918Zm0-2.312a.274.274,0,0,1-.274-.274v-.089a.274.274,0,1,1,.547,0v.089A.274.274,0,0,1,1423.754,1071.606Zm0-2.312a.274.274,0,0,1-.274-.274v-.09a.274.274,0,0,1,.547,0v.09A.274.274,0,0,1,1423.754,1069.293Zm0-2.313a.274.274,0,0,1-.274-.273v-.089a.274.274,0,1,1,.547,0v.089A.274.274,0,0,1,1423.754,1066.98Zm0-2.312a.274.274,0,0,1-.274-.274v-.089a.274.274,0,0,1,.547,0v.089A.274.274,0,0,1,1423.754,1064.668Zm0-2.312a.274.274,0,0,1-.274-.273v-.089a.274.274,0,1,1,.547,0v.089A.274.274,0,0,1,1423.754,1062.355Zm0-2.313a.274.274,0,0,1-.274-.273v-.089a.274.274,0,1,1,.547,0v.089A.274.274,0,0,1,1423.754,1060.042Zm0-2.312a.274.274,0,0,1-.274-.274v-.089a.274.274,0,0,1,.547,0v.089A.274.274,0,0,1,1423.754,1057.73Zm0-2.312a.274.274,0,0,1-.274-.273v-.089a.274.274,0,1,1,.547,0v.089A.274.274,0,0,1,1423.754,1055.417Zm0-2.312a.274.274,0,0,1-.274-.274v-.09a.274.274,0,1,1,.547,0v.09A.274.274,0,0,1,1423.754,1053.105Zm0-2.313a.274.274,0,0,1-.274-.274v-.089a.274.274,0,0,1,.547,0v.089A.274.274,0,0,1,1423.754,1050.792Z" transform="translate(-1423.48 -1047.91)" fill="#2e97e6"/>
          <path id="Trazado_132388" data-name="Trazado 132388" d="M1423.754,1171.5a.274.274,0,0,1-.274-.274.293.293,0,0,1,.274-.295.256.256,0,0,1,.273.251v.044A.274.274,0,0,1,1423.754,1171.5Z" transform="translate(-1423.48 -1143.222)" fill="#2e97e6"/>
        </g>
        <g id="Grupo_61978" data-name="Grupo 61978" transform="translate(70.036 28.582)">
          <path id="Trazado_132389" data-name="Trazado 132389" d="M1545.667,1040.516a.274.274,0,0,1-.273-.273.293.293,0,0,1,.273-.295.255.255,0,0,1,.274.251v.044A.274.274,0,0,1,1545.667,1040.516Z" transform="translate(-1545.394 -1039.948)" fill="#2e97e6"/>
          <path id="Trazado_132390" data-name="Trazado 132390" d="M1545.667,1074.359a.274.274,0,0,1-.273-.273V1074a.274.274,0,1,1,.547,0v.089A.274.274,0,0,1,1545.667,1074.359Zm0-2.312a.274.274,0,0,1-.273-.274v-.089a.274.274,0,1,1,.547,0v.089A.274.274,0,0,1,1545.667,1072.047Zm0-2.312a.274.274,0,0,1-.273-.274v-.09a.274.274,0,0,1,.547,0v.09A.274.274,0,0,1,1545.667,1069.734Zm0-2.313a.274.274,0,0,1-.273-.273v-.089a.274.274,0,1,1,.547,0v.089A.274.274,0,0,1,1545.667,1067.421Zm0-2.312a.274.274,0,0,1-.273-.274v-.088a.274.274,0,1,1,.547,0v.088A.274.274,0,0,1,1545.667,1065.109Zm0-2.312a.274.274,0,0,1-.273-.273v-.089a.274.274,0,0,1,.547,0v.089A.274.274,0,0,1,1545.667,1062.8Zm0-2.313a.274.274,0,0,1-.273-.274v-.089a.274.274,0,1,1,.547,0v.089A.274.274,0,0,1,1545.667,1060.483Zm0-2.312a.274.274,0,0,1-.273-.274v-.089a.274.274,0,0,1,.547,0v.089A.274.274,0,0,1,1545.667,1058.171Zm0-2.312a.274.274,0,0,1-.273-.273v-.089a.274.274,0,1,1,.547,0v.089A.274.274,0,0,1,1545.667,1055.858Zm0-2.312a.274.274,0,0,1-.273-.274v-.09a.274.274,0,1,1,.547,0v.09A.274.274,0,0,1,1545.667,1053.546Zm0-2.314a.274.274,0,0,1-.273-.273v-.089a.274.274,0,0,1,.547,0v.089A.274.274,0,0,1,1545.667,1051.233Z" transform="translate(-1545.394 -1048.352)" fill="#2e97e6"/>
          <path id="Trazado_132391" data-name="Trazado 132391" d="M1545.667,1171.939a.274.274,0,0,1-.273-.274.293.293,0,0,1,.273-.295.256.256,0,0,1,.274.252v.043A.274.274,0,0,1,1545.667,1171.939Z" transform="translate(-1545.394 -1143.664)" fill="#2e97e6"/>
        </g>
        <g id="Grupo_61979" data-name="Grupo 61979" transform="translate(52.902 26.998)">
          <path id="Trazado_132392" data-name="Trazado 132392" d="M1464.391,1033.006a.274.274,0,0,1-.274-.274.294.294,0,0,1,.274-.3.255.255,0,0,1,.273.251v.045A.274.274,0,0,1,1464.391,1033.006Z" transform="translate(-1464.117 -1032.436)" fill="#2e97e6"/>
          <path id="Trazado_132393" data-name="Trazado 132393" d="M1464.391,1066.847a.274.274,0,0,1-.274-.274v-.089a.273.273,0,0,1,.547,0v.089A.274.274,0,0,1,1464.391,1066.847Zm0-2.312a.274.274,0,0,1-.274-.273v-.089a.273.273,0,0,1,.547,0v.089A.274.274,0,0,1,1464.391,1064.535Zm0-2.312a.274.274,0,0,1-.274-.274v-.09a.273.273,0,1,1,.547,0v.09A.274.274,0,0,1,1464.391,1062.222Zm0-2.313a.273.273,0,0,1-.274-.273v-.089a.273.273,0,0,1,.547,0v.089A.273.273,0,0,1,1464.391,1059.909Zm0-2.312a.274.274,0,0,1-.274-.273v-.089a.273.273,0,1,1,.547,0v.089A.274.274,0,0,1,1464.391,1057.6Zm0-2.312a.274.274,0,0,1-.274-.274v-.089a.273.273,0,1,1,.547,0v.089A.274.274,0,0,1,1464.391,1055.284Zm0-2.313a.273.273,0,0,1-.274-.273v-.089a.273.273,0,0,1,.547,0v.089A.273.273,0,0,1,1464.391,1052.971Zm0-2.312a.274.274,0,0,1-.274-.274v-.089a.273.273,0,1,1,.547,0v.089A.274.274,0,0,1,1464.391,1050.659Zm0-2.312a.274.274,0,0,1-.274-.274v-.089a.273.273,0,1,1,.547,0v.089A.274.274,0,0,1,1464.391,1048.346Zm0-2.312a.273.273,0,0,1-.274-.273v-.09a.273.273,0,0,1,.547,0v.09A.273.273,0,0,1,1464.391,1046.034Zm0-2.313a.274.274,0,0,1-.274-.274v-.089a.273.273,0,1,1,.547,0v.089A.274.274,0,0,1,1464.391,1043.721Z" transform="translate(-1464.117 -1040.84)" fill="#2e97e6"/>
          <path id="Trazado_132394" data-name="Trazado 132394" d="M1464.391,1164.432a.274.274,0,0,1-.274-.273.293.293,0,0,1,.274-.295.255.255,0,0,1,.273.251v.044A.274.274,0,0,1,1464.391,1164.432Z" transform="translate(-1464.117 -1136.157)" fill="#2e97e6"/>
        </g>
        <g id="Grupo_61980" data-name="Grupo 61980" transform="translate(61.469 26.904)">
          <path id="Trazado_132395" data-name="Trazado 132395" d="M1505.028,1032.56a.274.274,0,0,1-.274-.274.294.294,0,0,1,.274-.3.256.256,0,0,1,.273.252v.044A.274.274,0,0,1,1505.028,1032.56Z" transform="translate(-1504.754 -1031.99)" fill="#2e97e6"/>
          <path id="Trazado_132396" data-name="Trazado 132396" d="M1505.028,1066.406a.274.274,0,0,1-.274-.274v-.089a.273.273,0,0,1,.547,0v.089A.274.274,0,0,1,1505.028,1066.406Zm0-2.312a.274.274,0,0,1-.274-.273v-.089a.273.273,0,0,1,.547,0v.089A.274.274,0,0,1,1505.028,1064.094Zm0-2.312a.274.274,0,0,1-.274-.274v-.09a.273.273,0,1,1,.547,0v.09A.274.274,0,0,1,1505.028,1061.781Zm0-2.313a.274.274,0,0,1-.274-.274v-.089a.273.273,0,0,1,.547,0v.089A.274.274,0,0,1,1505.028,1059.468Zm0-2.312a.274.274,0,0,1-.274-.274v-.089a.273.273,0,1,1,.547,0v.089A.274.274,0,0,1,1505.028,1057.156Zm0-2.312a.274.274,0,0,1-.274-.274v-.089a.273.273,0,1,1,.547,0v.089A.274.274,0,0,1,1505.028,1054.844Zm0-2.314a.274.274,0,0,1-.274-.273v-.089a.273.273,0,0,1,.547,0v.089A.273.273,0,0,1,1505.028,1052.53Zm0-2.312a.274.274,0,0,1-.274-.274v-.089a.273.273,0,1,1,.547,0v.089A.274.274,0,0,1,1505.028,1050.218Zm0-2.312a.274.274,0,0,1-.274-.274v-.089a.273.273,0,1,1,.547,0v.089A.274.274,0,0,1,1505.028,1047.906Zm0-2.312a.274.274,0,0,1-.274-.273v-.09a.273.273,0,1,1,.547,0v.09A.274.274,0,0,1,1505.028,1045.593Zm0-2.313a.274.274,0,0,1-.274-.274v-.089a.273.273,0,1,1,.547,0v.089A.273.273,0,0,1,1505.028,1043.28Z" transform="translate(-1504.754 -1040.398)" fill="#2e97e6"/>
          <path id="Trazado_132397" data-name="Trazado 132397" d="M1505.028,1163.987a.274.274,0,0,1-.274-.273.294.294,0,0,1,.274-.3.256.256,0,0,1,.273.252v.044A.274.274,0,0,1,1505.028,1163.987Z" transform="translate(-1504.754 -1135.711)" fill="#2e97e6"/>
        </g>
        <path id="Trazado_132398" data-name="Trazado 132398" d="M1354.269,1149.627c-23.328-18.648,4.525-49.971-15.232-61.656-19.332-11.9-36.115,8.369-69.681,6.161-22.174-1.459-28.114,10.268-25.646,22.324s6.6,21.478,4.085,32.531Z" transform="translate(-1236.862 -1046.291)" fill="#f3f9ff"/>
        <g id="Grupo_61984" data-name="Grupo 61984" transform="translate(14.27 57.89)">
          <g id="Grupo_61981" data-name="Grupo 61981" transform="translate(71.217 27.468)">
            <path id="Trazado_132399" data-name="Trazado 132399" d="M1622.466,1310.28a7.537,7.537,0,0,0-2.2,1.925l.655.506a6.79,6.79,0,0,0-1.18,2.38l-.8-.214a7.557,7.557,0,0,0-.2,2.919l.183-.022.637-.082a6.717,6.717,0,0,0,.851,2.516l-.717.414a7.475,7.475,0,0,0,1.927,2.2l.506-.654a6.733,6.733,0,0,0,2.378,1.181l-.214.8a7.568,7.568,0,0,0,2.921.2v0l-.028-.237-.074-.58a6.705,6.705,0,0,0,2.513-.849l.414.717a7.489,7.489,0,0,0,2.2-1.929l-.654-.506a6.718,6.718,0,0,0,1.178-2.376l.8.214a7.568,7.568,0,0,0,.2-2.922l-.82.1a6.7,6.7,0,0,0-.85-2.513l.717-.414a7.482,7.482,0,0,0-1.929-2.2l-.506.654a6.723,6.723,0,0,0-2.376-1.179l.214-.8a7.514,7.514,0,0,0-2.922-.2v.007l.069.54.035.273a6.713,6.713,0,0,0-2.513.849Zm1.957,3.388a3.66,3.66,0,1,1-1.341,5A3.658,3.658,0,0,1,1624.423,1313.668Z" transform="translate(-1618.681 -1309.266)" fill="#00223d"/>
          </g>
          <g id="Grupo_61982" data-name="Grupo 61982">
            <path id="Trazado_132400" data-name="Trazado 132400" d="M1284.65,1179.987a7.528,7.528,0,0,0-2.2,1.925l.655.506a6.792,6.792,0,0,0-1.18,2.38l-.8-.214a7.555,7.555,0,0,0-.2,2.919l.183-.022.637-.082a6.722,6.722,0,0,0,.851,2.516l-.718.414a7.472,7.472,0,0,0,1.927,2.2l.506-.655a6.737,6.737,0,0,0,2.378,1.181l-.214.8a7.573,7.573,0,0,0,2.922.2l0,0-.028-.237-.074-.58a6.708,6.708,0,0,0,2.513-.85l.414.718a7.5,7.5,0,0,0,2.2-1.929l-.655-.506a6.713,6.713,0,0,0,1.179-2.376l.8.214a7.568,7.568,0,0,0,.2-2.922l-.82.1a6.708,6.708,0,0,0-.85-2.513l.717-.414a7.486,7.486,0,0,0-1.929-2.205l-.506.655a6.719,6.719,0,0,0-2.376-1.178l.213-.8a7.518,7.518,0,0,0-2.922-.2v.007l.069.54.035.273a6.72,6.72,0,0,0-2.513.85Zm1.957,3.388a3.66,3.66,0,1,1-1.341,5A3.658,3.658,0,0,1,1286.607,1183.375Z" transform="translate(-1280.865 -1178.972)" fill="#37a3a5"/>
          </g>
          <g id="Grupo_61983" data-name="Grupo 61983" transform="translate(84.406 21.798)">
            <path id="Trazado_132401" data-name="Trazado 132401" d="M1684.549,1282.372a4.184,4.184,0,0,0-1.5.62l.254.383a3.775,3.775,0,0,0-1.046,1.042l-.382-.255a4.2,4.2,0,0,0-.625,1.5l.1.021.35.071a3.731,3.731,0,0,0,0,1.476l-.452.09a4.154,4.154,0,0,0,.622,1.5l.383-.254a3.745,3.745,0,0,0,1.041,1.046l-.255.381a4.209,4.209,0,0,0,1.5.625v0l.027-.13.065-.319a3.737,3.737,0,0,0,1.474,0l.09.451a4.165,4.165,0,0,0,1.5-.622l-.254-.383a3.735,3.735,0,0,0,1.044-1.041l.382.255a4.205,4.205,0,0,0,.625-1.5l-.45-.092a3.724,3.724,0,0,0,0-1.474l.452-.09a4.162,4.162,0,0,0-.622-1.5l-.383.254a3.735,3.735,0,0,0-1.04-1.044l.255-.382a4.18,4.18,0,0,0-1.5-.625v0l-.06.3-.031.15a3.729,3.729,0,0,0-1.474,0Zm.425,2.132a2.034,2.034,0,1,1-1.6,2.392A2.033,2.033,0,0,1,1684.974,1284.5Z" transform="translate(-1681.245 -1282.372)" fill="none" stroke="#37a3a5" stroke-miterlimit="10" stroke-width="0.548"/>
          </g>
        </g>
        <g id="Grupo_62001" data-name="Grupo 62001" transform="translate(23.051 41.957)">
          <path id="Trazado_132402" data-name="Trazado 132402" d="M1352.5,1149.55v-2.791a2.3,2.3,0,0,0-2.295-2.3h-24.432a2.3,2.3,0,0,0-2.3,2.3V1196.1h63.2V1149.55Z" transform="translate(-1323.278 -1135.806)" fill="#00223d"/>
          <path id="Trazado_132403" data-name="Trazado 132403" d="M1333.523,1176.921v44.624h58.546V1176.7Z" transform="translate(-1331.203 -1161.247)" fill="#fff"/>
          <path id="Trazado_132404" data-name="Trazado 132404" d="M1346.39,1176.921v44.624h59.047V1176.7Z" transform="translate(-1341.358 -1161.247)" fill="#00223d"/>
          <path id="Trazado_132405" data-name="Trazado 132405" d="M1411.221,1168.594H1353a2.206,2.206,0,0,0-2.247,1.914v44.638H1414.3v-43.505A3.148,3.148,0,0,0,1411.221,1168.594Z" transform="translate(-1344.802 -1154.849)" fill="#fff"/>
          <g id="Grupo_61986" data-name="Grupo 61986" transform="translate(18.367 5.152)">
            <g id="Grupo_61985" data-name="Grupo 61985" transform="translate(0 0)">
              <rect id="Rectángulo_29938" data-name="Rectángulo 29938" width="37.528" height="28.52" transform="matrix(1, -0.003, 0.003, 1, 0, 0.105)" fill="#ebf3ff"/>
              <rect id="Rectángulo_29939" data-name="Rectángulo 29939" width="35.608" height="26.219" transform="translate(0.943 1.033) rotate(-0.16)" fill="#37a3a5"/>
              <path id="Trazado_132406" data-name="Trazado 132406" d="M1428.7,1201.906l22.883-.064-12.512-12Z" transform="translate(-1424.685 -1176.767)" fill="#e3eeff"/>
              <path id="Trazado_132407" data-name="Trazado 132407" d="M1478.06,1209.6l19.227-.054-10.433-9.92Z" transform="translate(-1463.637 -1184.493)" fill="#e3eeff"/>
              <path id="Trazado_132408" data-name="Trazado 132408" d="M1504.531,1167.245a2.65,2.65,0,1,1-2.657-2.642A2.65,2.65,0,0,1,1504.531,1167.245Z" transform="translate(-1480.345 -1156.851)" fill="#e3eeff"/>
            </g>
          </g>
          <g id="Grupo_61989" data-name="Grupo 61989" transform="translate(26.085 0)">
            <g id="Grupo_61987" data-name="Grupo 61987" transform="translate(0)">
              <rect id="Rectángulo_29940" data-name="Rectángulo 29940" width="34.792" height="30.256" transform="matrix(1, -0.003, 0.003, 1, 0, 0.111)" fill="#ebf3ff"/>
              <rect id="Rectángulo_29941" data-name="Rectángulo 29941" width="32.816" height="27.815" transform="matrix(1, -0.003, 0.003, 1, 0.971, 1.096)" fill="#00223d"/>
            </g>
            <g id="Grupo_61988" data-name="Grupo 61988" transform="translate(4.194 4.936)">
              <rect id="Rectángulo_29942" data-name="Rectángulo 29942" width="13.069" height="1.148" transform="translate(0)" fill="#cce5ff"/>
              <rect id="Rectángulo_29943" data-name="Rectángulo 29943" width="26.59" height="1.148" transform="translate(0 3.101)" fill="#cce5ff"/>
              <rect id="Rectángulo_29944" data-name="Rectángulo 29944" width="26.59" height="1.148" transform="translate(0 6.258)" fill="#cce5ff"/>
            </g>
          </g>
          <path id="Trazado_132409" data-name="Trazado 132409" d="M1417.168,1171.651v43.5h-63.136v-44.647a2.21,2.21,0,0,1,2.238-1.907H1414.1A3.14,3.14,0,0,1,1417.168,1171.651Z" transform="translate(-1347.389 -1154.853)" fill="url(#linear-gradient-2)"/>
          <rect id="Rectángulo_29945" data-name="Rectángulo 29945" width="6.369" height="0.598" transform="translate(0 59.7)" fill="#fff"/>
          <path id="Trazado_132410" data-name="Trazado 132410" d="M1323.161,1267.8l2.219,1.385h3.587l.714.693v-.658h63.094v-1.42Z" transform="translate(-1323.025 -1233.142)" opacity="0.5" style="mix-blend-mode: darken;isolation: isolate"/>
          <g id="Grupo_61991" data-name="Grupo 61991" transform="translate(0.192 27.882)">
            <g id="Grupo_61990" data-name="Grupo 61990">
              <path id="Trazado_132518" data-name="Trazado 132518" d="M0,0H70.261V7.411H0Z" fill="#21587b"/>
              <rect id="Rectángulo_29947" data-name="Rectángulo 29947" width="63.936" height="7.411" transform="translate(6.325)" fill="#37a3a5"/>
            </g>
          </g>
          <g id="Grupo_62000" data-name="Grupo 62000" transform="translate(13.282 27.836)">
            <path id="Trazado_132411" data-name="Trazado 132411" d="M1429.715,1235.652v7.409h5.186l-3.636-7.409Z" transform="translate(-1420.399 -1235.606)" fill="#21587b"/>
            <g id="Grupo_61996" data-name="Grupo 61996" transform="translate(7.438)">
              <g id="Grupo_61993" data-name="Grupo 61993" transform="translate(0.66 0.049)">
                <path id="Trazado_132412" data-name="Trazado 132412" d="M1425.31,1235.664h-1.377v7.406h1.377c.451,0,.86-.407,1.154-1.09a6.584,6.584,0,0,0,.48-2.621C1426.944,1237.324,1426.213,1235.664,1425.31,1235.664Zm-.129,3.695c0-.618.2-1.123.459-1.2.258.082.459.586.459,1.2,0,.635-.2,1.14-.459,1.221C1425.382,1240.5,1425.181,1239.994,1425.181,1239.359Z" transform="translate(-1423.933 -1235.664)" fill="#00223d"/>
                <g id="Grupo_61992" data-name="Grupo 61992">
                  <path id="Trazado_132413" data-name="Trazado 132413" d="M1424.533,1235.664h-.6v7.406h.6c.472,0,.9-.407,1.207-1.09a6.332,6.332,0,0,0,.5-2.621C1426.243,1237.324,1425.478,1235.664,1424.533,1235.664Zm.39,4.916c-.27-.081-.48-.586-.48-1.221,0-.618.21-1.123.48-1.2a1.444,1.444,0,0,1,0,2.425Z" transform="translate(-1423.933 -1235.664)" fill="#00223d"/>
                </g>
              </g>
              <g id="Grupo_61995" data-name="Grupo 61995">
                <path id="Trazado_132414" data-name="Trazado 132414" d="M1422.18,1235.664H1420.8v7.406h1.377c.451,0,.86-.407,1.154-1.09a6.584,6.584,0,0,0,.48-2.621C1423.814,1237.324,1423.083,1235.664,1422.18,1235.664Zm-.129,3.695c0-.618.2-1.123.459-1.2.258.082.458.586.458,1.2,0,.635-.2,1.14-.458,1.221C1422.252,1240.5,1422.051,1239.994,1422.051,1239.359Z" transform="translate(-1420.803 -1235.615)" fill="#00223d"/>
                <g id="Grupo_61994" data-name="Grupo 61994" transform="translate(0 0.049)">
                  <path id="Trazado_132415" data-name="Trazado 132415" d="M1421.4,1235.664h-.6v7.406h.6c.473,0,.9-.407,1.207-1.09a6.33,6.33,0,0,0,.5-2.621C1423.113,1237.324,1422.348,1235.664,1421.4,1235.664Zm.57,4.916c-.27-.081-.48-.586-.48-1.221,0-.618.21-1.123.48-1.2.27.082.48.586.48,1.2C1422.453,1239.994,1422.243,1240.5,1421.973,1240.58Z" transform="translate(-1420.803 -1235.664)" fill="#21587b"/>
                </g>
                <path id="Trazado_132416" data-name="Trazado 132416" d="M1427.162,1242.937h-.009a.048.048,0,0,1,0-.1,1.045,1.045,0,0,0,.691-.333c.388-.375.85-1.225.85-3.153,0-3.507-1.535-3.822-1.55-3.825a.048.048,0,0,1-.039-.056.047.047,0,0,1,.056-.039c.067.011,1.63.323,1.63,3.92,0,1.966-.48,2.839-.883,3.226A1.139,1.139,0,0,1,1427.162,1242.937Z" transform="translate(-1425.779 -1235.434)" fill="#00223d"/>
              </g>
            </g>
            <g id="Grupo_61997" data-name="Grupo 61997" transform="translate(1.788 2.622)">
              <path id="Trazado_132417" data-name="Trazado 132417" d="M1400.824,1250.509c-.065.016-.114.033-.179.049.016.016.016.016,0,.016a6.352,6.352,0,0,0-4.558,6.071v6.187H1394v-6.187a8.427,8.427,0,0,1,6.576-8.2,1.323,1.323,0,0,1,.244-.065C1401.427,1248.246,1401.476,1250.411,1400.824,1250.509Z" transform="translate(-1394.004 -1248.266)" fill="#fff"/>
              <path id="Trazado_132418" data-name="Trazado 132418" d="M1438.054,1247.872v2.072a6.4,6.4,0,0,1,5.431,4.942.686.686,0,0,1,.032.162,3.761,3.761,0,0,1,.065.423,6.26,6.26,0,0,1,.049.781v6.187h2.067v-6.187A8.451,8.451,0,0,0,1438.054,1247.872Z" transform="translate(-1428.768 -1247.872)" fill="#fff"/>
              <path id="Trazado_132419" data-name="Trazado 132419" d="M1405.939,1255.39c-4.885.857-5.515,6.176-5.515,6.176v6.761h.733v-6.187a6.374,6.374,0,0,1,4.732-6.134c.208-.067.337-.675.337-.675S1406.1,1255.36,1405.939,1255.39Z" transform="translate(-1399.07 -1253.759)" fill="#e6e6e6"/>
              <path id="Trazado_132420" data-name="Trazado 132420" d="M1438.054,1255.612v.44a6.4,6.4,0,0,1,5.431,4.942A6.083,6.083,0,0,0,1438.054,1255.612Z" transform="translate(-1428.768 -1253.98)" fill="#e6e6e6"/>
              <path id="Trazado_132421" data-name="Trazado 132421" d="M1425.442,1250.509c-.065.016-.113.033-.179.049a2.194,2.194,0,0,0,.346-1.044c.033-.635-.183-1.064-.411-1.072a1.326,1.326,0,0,1,.244-.065C1426.045,1248.246,1426.094,1250.411,1425.442,1250.509Z" transform="translate(-1418.622 -1248.266)" fill="#e6e6e6"/>
            </g>
            <g id="Grupo_61999" data-name="Grupo 61999" transform="translate(0 15.488)">
              <rect id="Rectángulo_29948" data-name="Rectángulo 29948" width="20.526" height="16.934" transform="translate(0 0.014)" fill="#37a3a5"/>
              <g id="Grupo_61998" data-name="Grupo 61998" transform="translate(7.61 4.142)">
                <path id="Trazado_132422" data-name="Trazado 132422" d="M1421.622,1331.1a2.564,2.564,0,0,0,1.5,2.333v4.321a1.056,1.056,0,0,0,.831,1.035H1424a.548.548,0,0,0,.163.016,1.054,1.054,0,0,0,1.041-1.052v-4.321a2.581,2.581,0,0,0,1.5-2.333,2.541,2.541,0,0,0-2.539-2.547.785.785,0,0,0-.2.016A2.524,2.524,0,0,0,1421.622,1331.1Z" transform="translate(-1421.622 -1328.55)" fill="#00ccc3"/>
                <path id="Trazado_132423" data-name="Trazado 132423" d="M1421.622,1331.158a2.563,2.563,0,0,0,1.5,2.333v4.321a1.056,1.056,0,0,0,.831,1.036H1424a1.056,1.056,0,0,0,.83-1.036v-4.321a2.581,2.581,0,0,0,1.5-2.333,2.358,2.358,0,1,0-4.7,0Z" transform="translate(-1421.622 -1328.612)" fill="#00223d"/>
              </g>
              <path id="Trazado_132424" data-name="Trazado 132424" d="M1451.991,1325.745h6.513v-16.778H1456.7S1457.178,1321.347,1451.991,1325.745Z" transform="translate(-1437.979 -1308.953)" fill="#00223d"/>
              <rect id="Rectángulo_29949" data-name="Rectángulo 29949" width="1.676" height="16.762" transform="translate(0.674)" fill="#00223d"/>
            </g>
          </g>
        </g>
        <g id="Grupo_62004" data-name="Grupo 62004" transform="translate(34.671 0)">
          <g id="Grupo_62002" data-name="Grupo 62002" transform="translate(0 0)">
            <rect id="Rectángulo_29950" data-name="Rectángulo 29950" width="44.206" height="12.496" rx="6.248" transform="translate(0 15.027)" fill="#00223d"/>
            <circle id="Elipse_4135" data-name="Elipse 4135" cx="9.77" cy="9.77" r="9.77" transform="translate(14.945 7.206) rotate(-21.641)" fill="#00223d"/>
            <circle id="Elipse_4136" data-name="Elipse 4136" cx="6.587" cy="6.587" r="6.587" transform="translate(7.692 6.628)" fill="#00223d"/>
          </g>
          <g id="Grupo_62003" data-name="Grupo 62003" transform="translate(17.846 12.194)">
            <path id="Trazado_132425" data-name="Trazado 132425" d="M1469.772,965.036l-.41.458,2.953.041-.368-2.93-.554.619a5.805,5.805,0,0,0-9.1,4.715l2.4,0a3.413,3.413,0,0,1,.859-2.178A3.449,3.449,0,0,1,1469.772,965.036Z" transform="translate(-1462.291 -962.213)" fill="#fff"/>
            <path id="Trazado_132426" data-name="Trazado 132426" d="M1477.469,993a5.808,5.808,0,0,0,1.464-3.792l-2.4,0a3.414,3.414,0,0,1-.859,2.178,3.449,3.449,0,0,1-4.219.721l.409-.457-2.953-.042.368,2.93.553-.619A5.852,5.852,0,0,0,1477.469,993Z" transform="translate(-1467.514 -983.519)" fill="#fff"/>
          </g>
        </g>
        <g id="Grupo_62011" data-name="Grupo 62011" transform="translate(59.418 59.026)">
          <path id="Trazado_132427" data-name="Trazado 132427" d="M1559.237,1220.958a3.564,3.564,0,0,1,.782,3.16,5.773,5.773,0,0,1,1.658,5.194c2.969,2.691,2.238,6.536.167,7.666-1.974,1.078-4.863.058-6.049-2.461-1.889-3.157-3.734-9.053-.761-12.151C1554.409,1220.186,1558.382,1219.832,1559.237,1220.958Z" transform="translate(-1541.149 -1212.75)" fill="#0e0e0e"/>
          <g id="Grupo_62007" data-name="Grupo 62007" transform="translate(7.806 5.051)">
            <path id="Trazado_132428" data-name="Trazado 132428" d="M1544.338,1216.584l-2.933-2.98,0-5.157-.969-.128s-.793,4.691-.79,5.687c0,.885,2.972,4.731,2.972,4.731Z" transform="translate(-1538.048 -1208.319)" fill="#ffa599"/>
            <path id="Trazado_132429" data-name="Trazado 132429" d="M1558.276,1249.377l-1.619,4.445h-4.295s-.281-2.748-.339-4.21a5.749,5.749,0,0,1,.006-.783c.144-1.057,1.886-2.494,1.886-2.494a.181.181,0,0,0,.039-.007c.346-.039,2.7-.3,3.564.424C1558.439,1247.537,1558.276,1249.377,1558.276,1249.377Z" transform="translate(-1547.806 -1238.255)" fill="#006662"/>
            <path id="Trazado_132430" data-name="Trazado 132430" d="M1566.141,1308.024h-3.823a19.687,19.687,0,0,0,.674,2.319c1.556,4.264,2.316,9.973,3.958,13.734,0,0,.707.366,1.176,0a80.579,80.579,0,0,0-1.22-9.273C1566.586,1313.439,1566.715,1310.18,1566.141,1308.024Z" transform="translate(-1555.938 -1287.005)" fill="#ffa599"/>
            <path id="Trazado_132431" data-name="Trazado 132431" d="M1544.311,1308.024c-.5,4.729-1.407,14.942-1.507,16l1.215.006c.8-2.706,1.813-5.135,1.9-8.568.62-1.889,1.651-5.066,2.425-7.435Z" transform="translate(-1540.537 -1287.005)" fill="#ffa599"/>
            <path id="Trazado_132432" data-name="Trazado 132432" d="M1554.309,1312.5l-2.886.238-.7.058-3.1.257c-.134,1.312-.284,2.871-.431,4.473.932.386,2.234.945,2.345.995l1.518-4.646c.444,1.447.987,3.34,1.4,4.816a11.507,11.507,0,0,1,2.431-.851C1554.734,1316.127,1554.546,1314.16,1554.309,1312.5Z" transform="translate(-1544.002 -1290.535)" fill="#e87c5d"/>
            <path id="Trazado_132433" data-name="Trazado 132433" d="M1575.861,1221.455l2.843-2.18-.908-4.8,1.036-.319s2.241,4.532,2.238,5.529c0,.885-4.111,4.386-4.111,4.386C1576.287,1224.389,1575.283,1222.9,1575.861,1221.455Z" transform="translate(-1566.49 -1212.925)" fill="#ffa599"/>
            <path id="Trazado_132434" data-name="Trazado 132434" d="M1559.948,1245.444s-1.208.826-.757,1.444c.389.532,1.347-.074,1.347-.074s.161.823.805.713a1.305,1.305,0,0,0,.708-1.9A2.39,2.39,0,0,0,1559.948,1245.444Z" transform="translate(-1553.39 -1237.493)" fill="#fff"/>
            <path id="Trazado_132435" data-name="Trazado 132435" d="M1564.729,1241.848c0,.359-.6.875-1.43.833-.529-.026-.826-.326-.74-.7l.091-.477.255-1.358,1.94.052Z" transform="translate(-1556.116 -1233.439)" fill="#ffa599"/>
            <path id="Trazado_132436" data-name="Trazado 132436" d="M1565.111,1240.456c-.267.56-.8.989-2.063,1.051l.255-1.358,1.8.052Z" transform="translate(-1556.514 -1233.439)" fill="#e87c5d"/>
            <path id="Trazado_132437" data-name="Trazado 132437" d="M1563.391,1222.891a2.207,2.207,0,0,1-2.891,1.313,2.081,2.081,0,0,1-.39-2.778,1.948,1.948,0,0,1,2.962-1.927C1564.17,1220.132,1564.1,1221.592,1563.391,1222.891Z" transform="translate(-1553.907 -1216.933)" fill="#ffa599"/>
            <path id="Trazado_132438" data-name="Trazado 132438" d="M1553.317,1293.09a15.006,15.006,0,0,1-3.995.725c-2.853.163-6.127-.309-6.421-.825a67.484,67.484,0,0,1,2.276-10.826h4.288a6.785,6.785,0,0,1,1.886,2.741A49.9,49.9,0,0,1,1553.317,1293.09Z" transform="translate(-1540.615 -1266.596)" fill="#006662"/>
            <g id="Grupo_62005" data-name="Grupo 62005" transform="translate(0 37.014)">
              <path id="Trazado_132439" data-name="Trazado 132439" d="M1532.281,1385.127c0-.015.722-.016,1.494-.012.888,0,1.995.012,1.995.012a4.029,4.029,0,0,0-.078-1.223l-1.392-.007a9.48,9.48,0,0,0-1.062.271c-.045.013-.093.023-.141.035C1532.016,1384.454,1532.281,1385.159,1532.281,1385.127Z" transform="translate(-1532.21 -1383.897)" fill="#fdfeff"/>
              <path id="Trazado_132440" data-name="Trazado 132440" d="M1532.281,1386.143c0-.015.722-.016,1.494-.012a.682.682,0,0,0,.037-.222.779.779,0,0,0-.574-.724c-.045.012-.093.023-.141.035C1532.016,1385.469,1532.281,1386.175,1532.281,1386.143Z" transform="translate(-1532.21 -1384.913)" fill="#d9ecff"/>
              <rect id="Rectángulo_29951" data-name="Rectángulo 29951" width="3.607" height="0.219" transform="translate(3.607 1.232) rotate(180)" fill="#d9ecff"/>
            </g>
            <g id="Grupo_62006" data-name="Grupo 62006" transform="translate(10.886 37.064)">
              <path id="Trazado_132441" data-name="Trazado 132441" d="M1583.861,1385.363l.813-.008c.714-.007,1.651-.012,1.74.008.248-.6-.267-.909-.742-1.079-.2-.072-.4-.119-.523-.151l-1.209.007A4.034,4.034,0,0,0,1583.861,1385.363Z" transform="translate(-1583.813 -1384.133)" fill="#fdfeff"/>
              <rect id="Rectángulo_29952" data-name="Rectángulo 29952" width="2.671" height="0.219" transform="translate(0 1.012)" fill="#d9ecff"/>
            </g>
            <path id="Trazado_132442" data-name="Trazado 132442" d="M1587.524,1385.893c.714-.007,1.652-.012,1.74.008.248-.6-.267-.909-.742-1.079a.986.986,0,0,0-.849.28A.682.682,0,0,0,1587.524,1385.893Z" transform="translate(-1575.778 -1347.607)" fill="#d9ecff"/>
            <path id="Trazado_132443" data-name="Trazado 132443" d="M1555.518,1282.338a5.638,5.638,0,0,1-2.226-.445.1.1,0,0,1,.085-.176,5.44,5.44,0,0,0,4.2,0,.1.1,0,1,1,.079.179A5.3,5.3,0,0,1,1555.518,1282.338Z" transform="translate(-1548.771 -1266.235)" fill="#fff"/>
            <path id="Trazado_132444" data-name="Trazado 132444" d="M1554.413,1219.5c1.335,1.6,3.087-1.585,4.265-.586,0,0,.1,2.385.906,1.583.25-.3.531-1.708-.135-2.177.016-.771-1.267-1.532-2.769-1.171a1.912,1.912,0,0,0-1.423,1.4A.686.686,0,0,0,1554.413,1219.5Z" transform="translate(-1549.63 -1215.211)" fill="#0e0e0e"/>
          </g>
          <g id="Grupo_62008" data-name="Grupo 62008" transform="translate(0)">
            <rect id="Rectángulo_29953" data-name="Rectángulo 29953" width="26.667" height="2.708" transform="translate(0.486 0.211) rotate(10.348)" fill="#00223d"/>
            <rect id="Rectángulo_29954" data-name="Rectángulo 29954" width="26.667" height="0.18" transform="translate(0.496 0.16) rotate(10.348)" fill="#fff"/>
            <path id="Trazado_132445" data-name="Trazado 132445" d="M1616.327,1184.625a7.112,7.112,0,1,0,5.72,8.272A7.116,7.116,0,0,0,1616.327,1184.625Zm3.22,7.591c-.006.071-.019.148-.032.218a4.536,4.536,0,0,1-8.954-.173,4.464,4.464,0,0,1,.026-1.459,4.538,4.538,0,0,1,8.966,1.382A.056.056,0,0,1,1619.547,1192.216Z" transform="translate(-1584.136 -1184.477)" fill="#00223d"/>
            <rect id="Rectángulo_29955" data-name="Rectángulo 29955" width="2.503" height="5.251" transform="translate(2.173 1.478) rotate(10.348)" fill="#00223d"/>
            <rect id="Rectángulo_29956" data-name="Rectángulo 29956" width="2.503" height="3.98" transform="matrix(0.984, 0.18, -0.18, 0.984, 6.862, 2.751)" fill="#00223d"/>
            <path id="Trazado_132446" data-name="Trazado 132446" d="M1628.936,1200.226a4.538,4.538,0,0,0-8.966-1.382,4.465,4.465,0,0,0-.026,1.459,4.281,4.281,0,0,1-.116-1,4.6,4.6,0,0,1,9.2,0A4.407,4.407,0,0,1,1628.936,1200.226Z" transform="translate(-1593.518 -1192.52)" fill="#0a3366"/>
            <path id="Trazado_132447" data-name="Trazado 132447" d="M1616.385,1184.369a7.311,7.311,0,0,0-7.083,4.651l.255.041a6.864,6.864,0,0,1,6.828-4.438Z" transform="translate(-1585.211 -1184.361)" fill="#fff"/>
          </g>
          <g id="Grupo_62009" data-name="Grupo 62009" transform="translate(10.171 3.995)">
            <path id="Trazado_132448" data-name="Trazado 132448" d="M1544.2,1204.68s.38-.092.484-.742.12-.5.12-.5-.358-.185-.548.567c-.562-.038-1.012.23-.981.592C1543.3,1204.82,1544.132,1204.781,1544.2,1204.68Z" transform="translate(-1543.275 -1203.396)" fill="#ffa599"/>
            <path id="Trazado_132449" data-name="Trazado 132449" d="M1543.335,1204.32l-.054-.034a1.056,1.056,0,0,1,.956-.4c.109-.426.314-.626.58-.565l-.015.063c-.3-.069-.44.257-.509.543l-.006.026h-.027A1.024,1.024,0,0,0,1543.335,1204.32Z" transform="translate(-1543.28 -1203.312)" fill="#ff7e59"/>
          </g>
          <g id="Grupo_62010" data-name="Grupo 62010" transform="translate(18.354 5.439)">
            <path id="Trazado_132450" data-name="Trazado 132450" d="M1583.023,1211.656s-.56-.187-.781-1.352c.36-.256.5.421.5.421a2.6,2.6,0,0,1,1.024.154c.22.1.273.221.4.533C1584.481,1212.082,1583.023,1211.656,1583.023,1211.656Z" transform="translate(-1582.21 -1210.228)" fill="#ffa599"/>
            <path id="Trazado_132451" data-name="Trazado 132451" d="M1584.038,1211.374a.033.033,0,0,1-.03-.021s-.041-.106-.122-.286c-.233-.456-1.25-.38-1.26-.379l-.026,0-.007-.025a2.219,2.219,0,0,0-.142-.345.161.161,0,0,0-.1-.087.332.332,0,0,0-.218.032.032.032,0,0,1-.043-.014.032.032,0,0,1,.013-.043.4.4,0,0,1,.267-.036.225.225,0,0,1,.134.12,2.419,2.419,0,0,1,.138.332c.168-.01,1.063-.041,1.3.417.083.183.124.289.124.29a.032.032,0,0,1-.019.042Z" transform="translate(-1582.09 -1210.16)" fill="#ff7e59"/>
          </g>
          <path id="Trazado_132452" data-name="Trazado 132452" d="M1576.31,1233.759a.443.443,0,1,0,.443-.443A.443.443,0,0,0,1576.31,1233.759Z" transform="translate(-1559.174 -1222.996)" fill="#ffa599"/>
        </g>
        <path id="Trazado_132453" data-name="Trazado 132453" d="M1337.225,1390.528H1213.752a.575.575,0,0,1-.575-.575h0a.575.575,0,0,1,.575-.575h123.473a.575.575,0,0,1,.575.575h0A.575.575,0,0,1,1337.225,1390.528Z" transform="translate(-1213.177 -1287.131)"/>
      </g>
    </g>
    <line id="Línea_1692" data-name="Línea 1692" x2="53.181" transform="translate(243.123 1309.833)" fill="none" stroke="#37a3a5" stroke-linecap="round" stroke-miterlimit="10" stroke-width="0.806"/>
  </g>
</svg>
