<svg xmlns="http://www.w3.org/2000/svg" xmlns:xlink="http://www.w3.org/1999/xlink" width="272.849" height="361.707" viewBox="0 0 272.849 361.707">
  <defs>
    <linearGradient id="linear-gradient" x1="0.5" x2="0.5" y2="1" gradientUnits="objectBoundingBox">
      <stop offset="0" stop-color="#fff"/>
      <stop offset="1" stop-color="#f8f8f8"/>
    </linearGradient>
    <linearGradient id="linear-gradient-2" x1="0.5" x2="0.5" y2="1" gradientUnits="objectBoundingBox">
      <stop offset="0" stop-color="#fff"/>
      <stop offset="1" stop-color="#d2e6ee"/>
    </linearGradient>
    <clipPath id="clip-path">
      <path id="Trazado_132517" data-name="Trazado 132517" d="M2229.925,1012.183l-5.467-20.368-17.644-.056-8.922,10.641-2.795,6.987,5.912,14.189,3.887-2.109a12.768,12.768,0,0,0,7.361,2.322,11.8,11.8,0,0,0,11.9-9.774Z" transform="translate(-2195.098 -991.76)" fill="none"/>
    </clipPath>
    <clipPath id="clip-path-2">
      <path id="Trazado_132497" data-name="Trazado 132497" d="M2240.041,1042.709s.963-1.811,5.034-2.687,5.162.006,5.673.4c.485-.314.511-1.872-.236-2.968-1.263-1.852-11.24-.327-11.449,2.5A3.5,3.5,0,0,0,2240.041,1042.709Z" transform="translate(-2239.062 -1036.647)" fill="#3569b3"/>
    </clipPath>
  </defs>
  <g id="Grupo_62061" data-name="Grupo 62061" transform="translate(-134.909 -971.945)">
    <g id="Grupo_57070" data-name="Grupo 57070" transform="translate(134.909 971.945)">
      <g id="Grupo_57069" data-name="Grupo 57069" transform="translate(0 0)" opacity="0.7" style="mix-blend-mode: multiply;isolation: isolate">
        <rect id="Rectángulo_29501" data-name="Rectángulo 29501" width="272.849" height="361.707" rx="9.04" transform="translate(0 0)" fill="#fff" opacity="0"/>
        <rect id="Rectángulo_29502" data-name="Rectángulo 29502" width="270.375" height="359.234" rx="9.04" transform="translate(1.237 1.237)" fill="#f3f3f3" opacity="0.048"/>
        <rect id="Rectángulo_29503" data-name="Rectángulo 29503" width="267.902" height="356.76" rx="9.04" transform="translate(2.473 2.474)" fill="#e7e7e7" opacity="0.095"/>
        <rect id="Rectángulo_29504" data-name="Rectángulo 29504" width="265.428" height="354.287" rx="9.04" transform="translate(3.71 3.71)" fill="#dbdbdb" opacity="0.143"/>
        <rect id="Rectángulo_29505" data-name="Rectángulo 29505" width="262.955" height="351.813" rx="9.04" transform="translate(4.947 4.947)" fill="#cecece" opacity="0.19"/>
        <rect id="Rectángulo_29506" data-name="Rectángulo 29506" width="260.481" height="349.34" rx="9.04" transform="translate(6.184 6.184)" fill="#c2c2c2" opacity="0.238"/>
        <rect id="Rectángulo_29507" data-name="Rectángulo 29507" width="258.008" height="346.866" rx="9.04" transform="translate(7.42 7.42)" fill="#b6b6b6" opacity="0.286"/>
        <rect id="Rectángulo_29508" data-name="Rectángulo 29508" width="255.534" height="344.393" rx="9.04" transform="translate(8.657 8.657)" fill="#aaa" opacity="0.333"/>
        <rect id="Rectángulo_29509" data-name="Rectángulo 29509" width="253.061" height="341.919" rx="9.04" transform="translate(9.894 9.894)" fill="#9e9e9e" opacity="0.381"/>
        <rect id="Rectángulo_29510" data-name="Rectángulo 29510" width="250.587" height="339.446" rx="9.04" transform="translate(11.131 11.131)" fill="#929292" opacity="0.429"/>
        <rect id="Rectángulo_29511" data-name="Rectángulo 29511" width="248.114" height="336.972" rx="9.04" transform="translate(12.367 12.367)" fill="#868686" opacity="0.476"/>
        <rect id="Rectángulo_29512" data-name="Rectángulo 29512" width="245.64" height="334.499" rx="9.04" transform="translate(13.604 13.604)" fill="#797979" opacity="0.524"/>
        <rect id="Rectángulo_29513" data-name="Rectángulo 29513" width="243.167" height="332.025" rx="9.04" transform="translate(14.841 14.841)" fill="#6d6d6d" opacity="0.571"/>
        <rect id="Rectángulo_29514" data-name="Rectángulo 29514" width="240.693" height="329.552" rx="9.04" transform="translate(16.078 16.078)" fill="#616161" opacity="0.619"/>
        <rect id="Rectángulo_29515" data-name="Rectángulo 29515" width="238.22" height="327.078" rx="9.04" transform="translate(17.314 17.314)" fill="#555" opacity="0.667"/>
        <rect id="Rectángulo_29516" data-name="Rectángulo 29516" width="235.746" height="324.605" rx="9.04" transform="translate(18.551 18.551)" fill="#494949" opacity="0.714"/>
        <rect id="Rectángulo_29517" data-name="Rectángulo 29517" width="233.273" height="322.131" rx="9.04" transform="translate(19.788 19.788)" fill="#3d3d3d" opacity="0.762"/>
        <rect id="Rectángulo_29518" data-name="Rectángulo 29518" width="230.799" height="319.658" rx="9.04" transform="translate(21.025 21.025)" fill="#313131" opacity="0.81"/>
        <rect id="Rectángulo_29519" data-name="Rectángulo 29519" width="228.326" height="317.184" rx="9.04" transform="translate(22.261 22.261)" fill="#242424" opacity="0.857"/>
        <rect id="Rectángulo_29520" data-name="Rectángulo 29520" width="225.852" height="314.711" rx="9.04" transform="translate(23.498 23.498)" fill="#181818" opacity="0.905"/>
        <rect id="Rectángulo_29521" data-name="Rectángulo 29521" width="223.379" height="312.237" rx="9.04" transform="translate(24.735 24.735)" fill="#0c0c0c" opacity="0.952"/>
        <rect id="Rectángulo_29522" data-name="Rectángulo 29522" width="220.905" height="309.764" rx="9.04" transform="translate(25.972 25.972)"/>
      </g>
      <rect id="Rectángulo_29523" data-name="Rectángulo 29523" width="252.868" height="341.726" transform="translate(8.793 10.308)" fill="url(#linear-gradient)"/>
      <path id="Trazado_123976" data-name="Trazado 123976" d="M185.015,982.253H437.883v12.858H334.317l-23.373,12.322-24.488-12.59-101.441.268Z" transform="translate(-176.222 -971.945)" fill="#37a3a5"/>
      <path id="Trazado_123977" data-name="Trazado 123977" d="M284.548,988.8,272,998.621a3.623,3.623,0,0,1-4.432.027L254.3,988.517" transform="translate(-135.895 -971.945)" fill="none" stroke="#12263f" stroke-linecap="round" stroke-miterlimit="10" stroke-width="0.806"/>
      <path id="Trazado_133724" data-name="Trazado 133724" d="M17.449,11.688a4.58,4.58,0,0,1-.168,1.324,2.959,2.959,0,0,1-.535.957q-.375.461-1.094,1.215a2.674,2.674,0,0,0-.8,1.527L14.832,17a1.752,1.752,0,0,0,.453,1.3,1.775,1.775,0,0,0,1.3.449,1.821,1.821,0,0,0,1.27-.441,1.48,1.48,0,0,0,.488-1.152h1.445a2.7,2.7,0,0,1-.895,2.055,3.3,3.3,0,0,1-2.309.8,3.326,3.326,0,0,1-2.367-.785,2.85,2.85,0,0,1-.836-2.184,4.076,4.076,0,0,1,1.25-2.719l.852-.883A2.638,2.638,0,0,0,16,11.688Zm.063-2.473a.869.869,0,0,1-.215.6.8.8,0,0,1-.637.243.817.817,0,0,1-.641-.243.86.86,0,0,1-.219-.6.821.821,0,0,1,.219-.581A.832.832,0,0,1,16.66,8.4a.819.819,0,0,1,.637.235A.83.83,0,0,1,17.512,9.215ZM30.434,11.68a7.026,7.026,0,0,1-.523,2.84,4.388,4.388,0,0,1-1.469,1.863l2.031,1.594-1.023.945-2.4-1.906a4.88,4.88,0,0,1-1.187.141,4.244,4.244,0,0,1-4-2.543,6.752,6.752,0,0,1-.59-2.832v-.82a6.953,6.953,0,0,1,.57-2.9,4.218,4.218,0,0,1,4-2.594,4.4,4.4,0,0,1,2.418.664,4.284,4.284,0,0,1,1.605,1.91,7.016,7.016,0,0,1,.563,2.91Zm-1.5-.734a5.162,5.162,0,0,0-.8-3.1,2.89,2.89,0,0,0-4.516-.008,5,5,0,0,0-.84,3v.836a5.147,5.147,0,0,0,.816,3.078,2.885,2.885,0,0,0,4.52.066,5.079,5.079,0,0,0,.82-3.035Zm8.8,5.219a3.07,3.07,0,0,1-2.477.992,2.628,2.628,0,0,1-2.059-.785,3.4,3.4,0,0,1-.715-2.324v-5.5h1.445v5.461q0,1.922,1.563,1.922A2.163,2.163,0,0,0,37.7,14.7V8.547h1.445V17H37.77Zm7.109.992a3.693,3.693,0,0,1-2.8-1.129,4.19,4.19,0,0,1-1.078-3.02v-.266a5.073,5.073,0,0,1,.48-2.246A3.748,3.748,0,0,1,42.8,8.949a3.378,3.378,0,0,1,1.871-.559A3.166,3.166,0,0,1,47.23,9.477a4.7,4.7,0,0,1,.914,3.109v.6H42.418a3,3,0,0,0,.73,2.02,2.3,2.3,0,0,0,1.777.77,2.517,2.517,0,0,0,1.3-.312,3.259,3.259,0,0,0,.93-.828l.883.688A3.55,3.55,0,0,1,44.848,17.156Zm-.18-7.578a1.928,1.928,0,0,0-1.469.637A3.1,3.1,0,0,0,42.465,12H46.7v-.109a2.753,2.753,0,0,0-.594-1.707A1.815,1.815,0,0,0,44.668,9.578ZM45.371,5h1.75L45.027,7.3l-1.164,0Zm9.852,4.57a3.073,3.073,0,0,1,2.5-1.18q2.68,0,2.7,3.023V17H58.98V11.406a1.946,1.946,0,0,0-.418-1.352,1.675,1.675,0,0,0-1.277-.437,2.086,2.086,0,0,0-1.234.375,2.546,2.546,0,0,0-.828.984V17H53.777V5h1.445ZM66.1,17.156a3.693,3.693,0,0,1-2.8-1.129,4.19,4.19,0,0,1-1.078-3.02v-.266A5.073,5.073,0,0,1,62.7,10.5a3.748,3.748,0,0,1,1.344-1.547,3.378,3.378,0,0,1,1.871-.559A3.166,3.166,0,0,1,68.48,9.477a4.7,4.7,0,0,1,.914,3.109v.6H63.668a3,3,0,0,0,.73,2.02,2.3,2.3,0,0,0,1.777.77,2.517,2.517,0,0,0,1.3-.312,3.259,3.259,0,0,0,.93-.828l.883.688A3.55,3.55,0,0,1,66.1,17.156Zm-.18-7.578a1.928,1.928,0,0,0-1.469.637A3.1,3.1,0,0,0,63.715,12h4.234v-.109a2.753,2.753,0,0,0-.594-1.707A1.815,1.815,0,0,0,65.918,9.578Zm9.234.266a4.331,4.331,0,0,0-.711-.055A1.9,1.9,0,0,0,72.512,11v6H71.066V8.547h1.406l.023.977a2.251,2.251,0,0,1,2.016-1.133,1.477,1.477,0,0,1,.641.109Zm5.414,0a4.331,4.331,0,0,0-.711-.055A1.9,1.9,0,0,0,77.926,11v6H76.48V8.547h1.406l.023.977a2.251,2.251,0,0,1,2.016-1.133,1.477,1.477,0,0,1,.641.109ZM86.8,17a3.036,3.036,0,0,1-.2-.891,3.225,3.225,0,0,1-2.406,1.047,2.984,2.984,0,0,1-2.051-.707,2.288,2.288,0,0,1-.8-1.793,2.39,2.39,0,0,1,1-2.051,4.733,4.733,0,0,1,2.824-.73h1.406v-.664A1.623,1.623,0,0,0,86.121,10a1.821,1.821,0,0,0-1.336-.449,2.108,2.108,0,0,0-1.3.391,1.151,1.151,0,0,0-.523.945H81.512a2,2,0,0,1,.449-1.223,3.066,3.066,0,0,1,1.219-.934,4.1,4.1,0,0,1,1.691-.344,3.342,3.342,0,0,1,2.289.73,2.635,2.635,0,0,1,.859,2.012v3.891a4.757,4.757,0,0,0,.3,1.852V17Zm-2.4-1.1a2.54,2.54,0,0,0,1.289-.352,2.127,2.127,0,0,0,.883-.914V12.9H85.441q-2.656,0-2.656,1.555a1.316,1.316,0,0,0,.453,1.063A1.742,1.742,0,0,0,84.4,15.9Zm7.242-7.352.039.938a3.122,3.122,0,0,1,2.508-1.094A2.417,2.417,0,0,1,96.605,9.75a3.2,3.2,0,0,1,1.1-.984,3.242,3.242,0,0,1,1.6-.375q2.781,0,2.828,2.945V17h-1.445V11.422a1.941,1.941,0,0,0-.414-1.355,1.823,1.823,0,0,0-1.391-.449,1.916,1.916,0,0,0-1.336.48,1.949,1.949,0,0,0-.617,1.293V17H95.473V11.461a1.613,1.613,0,0,0-1.8-1.844,1.934,1.934,0,0,0-1.945,1.211V17H90.277V8.547ZM105.879,17h-1.445V8.547h1.445ZM104.316,6.3a.863.863,0,0,1,.215-.594.807.807,0,0,1,.637-.242.819.819,0,0,1,.641.242.854.854,0,0,1,.219.594.826.826,0,0,1-.219.586.834.834,0,0,1-.641.234.821.821,0,0,1-.637-.234A.834.834,0,0,1,104.316,6.3ZM111.7,17.156a3.693,3.693,0,0,1-2.8-1.129,4.19,4.19,0,0,1-1.078-3.02v-.266a5.073,5.073,0,0,1,.48-2.246,3.748,3.748,0,0,1,1.344-1.547,3.378,3.378,0,0,1,1.871-.559,3.166,3.166,0,0,1,2.563,1.086A4.7,4.7,0,0,1,115,12.586v.6H109.27a3,3,0,0,0,.73,2.02,2.3,2.3,0,0,0,1.777.77,2.517,2.517,0,0,0,1.3-.312,3.259,3.259,0,0,0,.93-.828l.883.688A3.55,3.55,0,0,1,111.7,17.156Zm-.18-7.578a1.928,1.928,0,0,0-1.469.637A3.1,3.1,0,0,0,109.316,12h4.234v-.109a2.753,2.753,0,0,0-.594-1.707A1.815,1.815,0,0,0,111.52,9.578Zm6.516-1.031.047,1.063a3.08,3.08,0,0,1,2.531-1.219q2.68,0,2.7,3.023V17h-1.445V11.406a1.946,1.946,0,0,0-.418-1.352,1.675,1.675,0,0,0-1.277-.437,2.086,2.086,0,0,0-1.234.375,2.546,2.546,0,0,0-.828.984V17h-1.445V8.547ZM127.457,6.5V8.547h1.578V9.664h-1.578v5.249a1.173,1.173,0,0,0,.211.763.888.888,0,0,0,.719.254,3.5,3.5,0,0,0,.688-.094V17a4.215,4.215,0,0,1-1.109.155,1.8,1.8,0,0,1-1.461-.586,2.517,2.517,0,0,1-.492-1.664V9.664h-1.539V8.547h1.539V6.5ZM135.941,17a3.036,3.036,0,0,1-.2-.891,3.225,3.225,0,0,1-2.406,1.047,2.984,2.984,0,0,1-2.051-.707,2.287,2.287,0,0,1-.8-1.793,2.39,2.39,0,0,1,1-2.051,4.733,4.733,0,0,1,2.824-.73h1.406v-.664A1.623,1.623,0,0,0,135.262,10a1.821,1.821,0,0,0-1.336-.449,2.107,2.107,0,0,0-1.3.391,1.151,1.151,0,0,0-.523.945h-1.453a2,2,0,0,1,.449-1.223,3.066,3.066,0,0,1,1.219-.934,4.1,4.1,0,0,1,1.691-.344,3.342,3.342,0,0,1,2.289.73,2.635,2.635,0,0,1,.859,2.012v3.891a4.757,4.757,0,0,0,.3,1.852V17Zm-2.4-1.1a2.54,2.54,0,0,0,1.289-.352,2.127,2.127,0,0,0,.883-.914V12.9h-1.133q-2.656,0-2.656,1.555a1.316,1.316,0,0,0,.453,1.063A1.742,1.742,0,0,0,133.543,15.9Zm10.8-1.141a1.064,1.064,0,0,0-.441-.91,4.249,4.249,0,0,0-1.539-.559,7.277,7.277,0,0,1-1.742-.562,2.479,2.479,0,0,1-.953-.781,1.869,1.869,0,0,1-.309-1.078,2.193,2.193,0,0,1,.879-1.758,3.432,3.432,0,0,1,2.246-.719,3.532,3.532,0,0,1,2.332.742,2.357,2.357,0,0,1,.895,1.9h-1.453a1.3,1.3,0,0,0-.5-1.023,1.888,1.888,0,0,0-1.27-.43,1.976,1.976,0,0,0-1.234.344,1.082,1.082,0,0,0-.445.9.877.877,0,0,0,.414.789,5.1,5.1,0,0,0,1.5.508,7.8,7.8,0,0,1,1.754.578,2.558,2.558,0,0,1,1,.809,1.988,1.988,0,0,1,.324,1.152,2.163,2.163,0,0,1-.906,1.816,3.8,3.8,0,0,1-2.352.684,4.257,4.257,0,0,1-1.8-.359,2.922,2.922,0,0,1-1.223-1,2.42,2.42,0,0,1-.441-1.395h1.445a1.5,1.5,0,0,0,.582,1.152,2.258,2.258,0,0,0,1.434.426,2.331,2.331,0,0,0,1.316-.332A1.02,1.02,0,0,0,144.348,14.758Zm14.43-1.891a5.062,5.062,0,0,1-.883,3.109,2.829,2.829,0,0,1-2.391,1.18,3.1,3.1,0,0,1-2.422-.977v4.07h-1.445V8.547h1.32l.07.938a2.977,2.977,0,0,1,2.453-1.094,2.882,2.882,0,0,1,2.41,1.148,5.117,5.117,0,0,1,.887,3.2Zm-1.445-.164a3.735,3.735,0,0,0-.609-2.258,1.963,1.963,0,0,0-1.672-.828,2.125,2.125,0,0,0-1.969,1.164V14.82a2.129,2.129,0,0,0,1.984,1.156,1.954,1.954,0,0,0,1.652-.824A4.077,4.077,0,0,0,157.332,12.7Zm8.5,3.461a3.07,3.07,0,0,1-2.477.992,2.628,2.628,0,0,1-2.059-.785,3.4,3.4,0,0,1-.715-2.324v-5.5h1.445v5.461q0,1.922,1.563,1.922a2.163,2.163,0,0,0,2.2-1.234V8.547h1.445V17h-1.375Zm7.109.992a3.693,3.693,0,0,1-2.8-1.129,4.19,4.19,0,0,1-1.078-3.02v-.266a5.073,5.073,0,0,1,.48-2.246,3.748,3.748,0,0,1,1.344-1.547,3.378,3.378,0,0,1,1.871-.559,3.166,3.166,0,0,1,2.563,1.086,4.7,4.7,0,0,1,.914,3.109v.6h-5.727a3,3,0,0,0,.73,2.02,2.3,2.3,0,0,0,1.777.77,2.517,2.517,0,0,0,1.3-.312,3.258,3.258,0,0,0,.93-.828l.883.688A3.55,3.55,0,0,1,172.941,17.156Zm-.18-7.578a1.928,1.928,0,0,0-1.469.637A3.1,3.1,0,0,0,170.559,12h4.234v-.109a2.753,2.753,0,0,0-.594-1.707A1.815,1.815,0,0,0,172.762,9.578Zm4.8,3.125a4.952,4.952,0,0,1,.922-3.129,3.137,3.137,0,0,1,4.766-.168V5h1.445V17h-1.328l-.07-.906a2.943,2.943,0,0,1-2.414,1.063,2.887,2.887,0,0,1-2.395-1.2,5.008,5.008,0,0,1-.926-3.141Zm1.445.164a3.749,3.749,0,0,0,.594,2.25,1.919,1.919,0,0,0,1.641.813,2.108,2.108,0,0,0,2.008-1.234V10.813a2.125,2.125,0,0,0-1.992-1.2,1.929,1.929,0,0,0-1.656.82A4.128,4.128,0,0,0,179,12.867Zm11.438,4.289a3.693,3.693,0,0,1-2.8-1.129,4.19,4.19,0,0,1-1.078-3.02v-.266a5.073,5.073,0,0,1,.48-2.246,3.748,3.748,0,0,1,1.344-1.547,3.378,3.378,0,0,1,1.871-.559,3.166,3.166,0,0,1,2.563,1.086,4.7,4.7,0,0,1,.914,3.109v.6h-5.727a3,3,0,0,0,.73,2.02,2.3,2.3,0,0,0,1.777.77,2.517,2.517,0,0,0,1.3-.312,3.258,3.258,0,0,0,.93-.828l.883.688A3.55,3.55,0,0,1,190.441,17.156Zm-.18-7.578a1.928,1.928,0,0,0-1.469.637A3.1,3.1,0,0,0,188.059,12h4.234v-.109a2.753,2.753,0,0,0-.594-1.707A1.815,1.815,0,0,0,190.262,9.578Zm6.516-1.031.047,1.063a3.08,3.08,0,0,1,2.531-1.219q2.68,0,2.7,3.023V17h-1.445V11.406a1.946,1.946,0,0,0-.418-1.352,1.675,1.675,0,0,0-1.277-.437,2.086,2.086,0,0,0-1.234.375,2.546,2.546,0,0,0-.828.984V17H195.41V8.547ZM7.6,38.758a1.064,1.064,0,0,0-.441-.91,4.249,4.249,0,0,0-1.539-.559,7.277,7.277,0,0,1-1.742-.562,2.479,2.479,0,0,1-.953-.781,1.869,1.869,0,0,1-.309-1.078,2.193,2.193,0,0,1,.879-1.758,3.432,3.432,0,0,1,2.246-.719,3.532,3.532,0,0,1,2.332.742,2.357,2.357,0,0,1,.895,1.9H7.512a1.3,1.3,0,0,0-.5-1.023,1.888,1.888,0,0,0-1.27-.43,1.976,1.976,0,0,0-1.234.344,1.082,1.082,0,0,0-.445.9.877.877,0,0,0,.414.789,5.1,5.1,0,0,0,1.5.508,7.8,7.8,0,0,1,1.754.578,2.558,2.558,0,0,1,1,.809,1.988,1.988,0,0,1,.324,1.152,2.163,2.163,0,0,1-.906,1.816,3.8,3.8,0,0,1-2.352.684,4.257,4.257,0,0,1-1.8-.359,2.922,2.922,0,0,1-1.223-1A2.42,2.42,0,0,1,2.324,38.4H3.77a1.5,1.5,0,0,0,.582,1.152,2.258,2.258,0,0,0,1.434.426A2.331,2.331,0,0,0,7.1,39.645,1.02,1.02,0,0,0,7.6,38.758ZM10.543,36.7a4.993,4.993,0,0,1,.488-2.234,3.643,3.643,0,0,1,1.359-1.531,3.7,3.7,0,0,1,1.988-.539,3.565,3.565,0,0,1,2.793,1.2,4.6,4.6,0,0,1,1.066,3.18v.1a5.036,5.036,0,0,1-.473,2.215,3.589,3.589,0,0,1-1.352,1.527,3.743,3.743,0,0,1-2.02.547,3.556,3.556,0,0,1-2.785-1.2A4.575,4.575,0,0,1,10.543,36.8ZM12,36.867a3.616,3.616,0,0,0,.652,2.258,2.211,2.211,0,0,0,3.5-.012,3.955,3.955,0,0,0,.648-2.418,3.61,3.61,0,0,0-.66-2.254,2.1,2.1,0,0,0-1.754-.863,2.075,2.075,0,0,0-1.727.852A3.925,3.925,0,0,0,12,36.867Zm15.2,0a5.062,5.062,0,0,1-.883,3.109,2.829,2.829,0,0,1-2.391,1.18A3.1,3.1,0,0,1,21.5,40.18v4.07H20.051v-11.7h1.32l.07.938a2.977,2.977,0,0,1,2.453-1.094,2.882,2.882,0,0,1,2.41,1.148,5.117,5.117,0,0,1,.887,3.2ZM25.746,36.7a3.735,3.735,0,0,0-.609-2.258,1.963,1.963,0,0,0-1.672-.828A2.125,2.125,0,0,0,21.5,34.781V38.82a2.129,2.129,0,0,0,1.984,1.156,1.954,1.954,0,0,0,1.652-.824A4.077,4.077,0,0,0,25.746,36.7Zm2.9-.008a4.993,4.993,0,0,1,.488-2.234,3.643,3.643,0,0,1,1.359-1.531,3.7,3.7,0,0,1,1.988-.539,3.565,3.565,0,0,1,2.793,1.2,4.6,4.6,0,0,1,1.066,3.18v.1a5.036,5.036,0,0,1-.473,2.215,3.589,3.589,0,0,1-1.352,1.527,3.743,3.743,0,0,1-2.02.547,3.556,3.556,0,0,1-2.785-1.2A4.575,4.575,0,0,1,28.645,36.8Zm1.453.172a3.616,3.616,0,0,0,.652,2.258,2.211,2.211,0,0,0,3.5-.012,3.955,3.955,0,0,0,.648-2.418,3.61,3.61,0,0,0-.66-2.254,2.1,2.1,0,0,0-1.754-.863,2.075,2.075,0,0,0-1.727.852A3.925,3.925,0,0,0,30.1,36.867Zm12.141-3.023a4.331,4.331,0,0,0-.711-.055A1.9,1.9,0,0,0,39.6,35v6H38.152V32.547h1.406l.023.977A2.251,2.251,0,0,1,41.6,32.391a1.477,1.477,0,0,1,.641.109Zm3.68-3.344v2.047H47.5v1.117H45.918v5.249a1.173,1.173,0,0,0,.211.763.888.888,0,0,0,.719.254,3.5,3.5,0,0,0,.688-.094V41a4.215,4.215,0,0,1-1.109.155,1.8,1.8,0,0,1-1.461-.586,2.517,2.517,0,0,1-.492-1.664V33.664H42.934V32.547h1.539V30.5ZM54.4,41a3.036,3.036,0,0,1-.2-.891,3.225,3.225,0,0,1-2.406,1.047,2.984,2.984,0,0,1-2.051-.707,2.287,2.287,0,0,1-.8-1.793,2.39,2.39,0,0,1,1-2.051,4.733,4.733,0,0,1,2.824-.73h1.406v-.664A1.623,1.623,0,0,0,53.723,34a1.821,1.821,0,0,0-1.336-.449,2.107,2.107,0,0,0-1.3.391,1.151,1.151,0,0,0-.523.945H49.113a2,2,0,0,1,.449-1.223,3.066,3.066,0,0,1,1.219-.934,4.1,4.1,0,0,1,1.691-.344,3.342,3.342,0,0,1,2.289.73,2.635,2.635,0,0,1,.859,2.012v3.891a4.757,4.757,0,0,0,.3,1.852V41ZM52,39.9a2.54,2.54,0,0,0,1.289-.352,2.127,2.127,0,0,0,.883-.914V36.9H53.043q-2.656,0-2.656,1.555a1.316,1.316,0,0,0,.453,1.063A1.742,1.742,0,0,0,52,39.9Zm9.969-6.055a4.331,4.331,0,0,0-.711-.055A1.9,1.9,0,0,0,59.332,35v6H57.887V32.547h1.406l.023.977a2.251,2.251,0,0,1,2.016-1.133,1.477,1.477,0,0,1,.641.109Zm6.648-1.3.039.938a3.122,3.122,0,0,1,2.508-1.094,2.417,2.417,0,0,1,2.414,1.359,3.2,3.2,0,0,1,1.1-.984,3.242,3.242,0,0,1,1.6-.375q2.781,0,2.828,2.945V41H77.66V35.422a1.941,1.941,0,0,0-.414-1.355,1.823,1.823,0,0,0-1.391-.449,1.916,1.916,0,0,0-1.336.48,1.949,1.949,0,0,0-.617,1.293V41H72.449V35.461a1.613,1.613,0,0,0-1.8-1.844A1.934,1.934,0,0,0,68.7,34.828V41H67.254V32.547ZM82.855,41H81.41V32.547h1.445ZM81.293,30.3a.863.863,0,0,1,.215-.594.807.807,0,0,1,.637-.242.819.819,0,0,1,.641.242A.854.854,0,0,1,83,30.3a.826.826,0,0,1-.219.586.834.834,0,0,1-.641.234.821.821,0,0,1-.637-.234A.834.834,0,0,1,81.293,30.3ZM96.27,36.867a5.062,5.062,0,0,1-.883,3.109A2.829,2.829,0,0,1,93,41.156a3.1,3.1,0,0,1-2.422-.977v4.07H89.129v-11.7h1.32l.07.938a2.977,2.977,0,0,1,2.453-1.094,2.882,2.882,0,0,1,2.41,1.148,5.117,5.117,0,0,1,.887,3.2ZM94.824,36.7a3.735,3.735,0,0,0-.609-2.258,1.963,1.963,0,0,0-1.672-.828,2.125,2.125,0,0,0-1.969,1.164V38.82a2.129,2.129,0,0,0,1.984,1.156,1.954,1.954,0,0,0,1.652-.824A4.077,4.077,0,0,0,94.824,36.7ZM99.676,41H98.23V29h1.445Zm7.531,0a3.036,3.036,0,0,1-.2-.891,3.225,3.225,0,0,1-2.406,1.047,2.984,2.984,0,0,1-2.051-.707,2.288,2.288,0,0,1-.8-1.793,2.39,2.39,0,0,1,1-2.051,4.733,4.733,0,0,1,2.824-.73h1.406v-.664A1.623,1.623,0,0,0,106.527,34a1.821,1.821,0,0,0-1.336-.449,2.107,2.107,0,0,0-1.3.391,1.151,1.151,0,0,0-.523.945h-1.453a2,2,0,0,1,.449-1.223,3.066,3.066,0,0,1,1.219-.934,4.1,4.1,0,0,1,1.691-.344,3.342,3.342,0,0,1,2.289.73,2.635,2.635,0,0,1,.859,2.012v3.891a4.757,4.757,0,0,0,.3,1.852V41Zm-2.4-1.1a2.54,2.54,0,0,0,1.289-.352,2.127,2.127,0,0,0,.883-.914V36.9h-1.133q-2.656,0-2.656,1.555a1.316,1.316,0,0,0,.453,1.063A1.742,1.742,0,0,0,104.809,39.9Zm7.25-7.352.047,1.063a3.08,3.08,0,0,1,2.531-1.219q2.68,0,2.7,3.023V41h-1.445V35.406a1.946,1.946,0,0,0-.418-1.352,1.675,1.675,0,0,0-1.277-.437,2.086,2.086,0,0,0-1.234.375,2.546,2.546,0,0,0-.828.984V41h-1.445V32.547Zm11.07,4.156a4.952,4.952,0,0,1,.922-3.129,3.137,3.137,0,0,1,4.766-.168V29h1.445V41h-1.328l-.07-.906a2.943,2.943,0,0,1-2.414,1.063,2.887,2.887,0,0,1-2.395-1.2,5.008,5.008,0,0,1-.926-3.141Zm1.445.164a3.749,3.749,0,0,0,.594,2.25,1.92,1.92,0,0,0,1.641.813,2.108,2.108,0,0,0,2.008-1.234V34.813a2.125,2.125,0,0,0-1.992-1.2,1.929,1.929,0,0,0-1.656.82A4.128,4.128,0,0,0,124.574,36.867Zm11.438,4.289a3.693,3.693,0,0,1-2.8-1.129,4.19,4.19,0,0,1-1.078-3.02v-.266a5.073,5.073,0,0,1,.48-2.246,3.748,3.748,0,0,1,1.344-1.547,3.378,3.378,0,0,1,1.871-.559,3.166,3.166,0,0,1,2.563,1.086,4.7,4.7,0,0,1,.914,3.109v.6h-5.727a3,3,0,0,0,.73,2.02,2.3,2.3,0,0,0,1.777.77,2.517,2.517,0,0,0,1.3-.312,3.258,3.258,0,0,0,.93-.828l.883.688A3.55,3.55,0,0,1,136.012,41.156Zm-.18-7.578a1.928,1.928,0,0,0-1.469.637A3.1,3.1,0,0,0,133.629,36h4.234v-.109a2.753,2.753,0,0,0-.594-1.707A1.815,1.815,0,0,0,135.832,33.578Zm14.031,5.18a1.064,1.064,0,0,0-.441-.91,4.249,4.249,0,0,0-1.539-.559,7.277,7.277,0,0,1-1.742-.562,2.479,2.479,0,0,1-.953-.781,1.869,1.869,0,0,1-.309-1.078,2.193,2.193,0,0,1,.879-1.758A3.432,3.432,0,0,1,148,32.391a3.532,3.532,0,0,1,2.332.742,2.357,2.357,0,0,1,.895,1.9h-1.453a1.3,1.3,0,0,0-.5-1.023,1.888,1.888,0,0,0-1.27-.43,1.976,1.976,0,0,0-1.234.344,1.082,1.082,0,0,0-.445.9.877.877,0,0,0,.414.789,5.1,5.1,0,0,0,1.5.508,7.8,7.8,0,0,1,1.754.578,2.558,2.558,0,0,1,1,.809,1.988,1.988,0,0,1,.324,1.152,2.163,2.163,0,0,1-.906,1.816,3.8,3.8,0,0,1-2.352.684,4.257,4.257,0,0,1-1.8-.359,2.922,2.922,0,0,1-1.223-1,2.42,2.42,0,0,1-.441-1.395h1.445a1.5,1.5,0,0,0,.582,1.152,2.258,2.258,0,0,0,1.434.426,2.331,2.331,0,0,0,1.316-.332A1.02,1.02,0,0,0,149.863,38.758Zm6.836,2.4a3.693,3.693,0,0,1-2.8-1.129,4.19,4.19,0,0,1-1.078-3.02v-.266a5.073,5.073,0,0,1,.48-2.246,3.748,3.748,0,0,1,1.344-1.547,3.378,3.378,0,0,1,1.871-.559,3.166,3.166,0,0,1,2.563,1.086A4.7,4.7,0,0,1,160,36.586v.6H154.27a3,3,0,0,0,.73,2.02,2.3,2.3,0,0,0,1.777.77,2.517,2.517,0,0,0,1.3-.312,3.258,3.258,0,0,0,.93-.828l.883.688A3.55,3.55,0,0,1,156.7,41.156Zm-.18-7.578a1.928,1.928,0,0,0-1.469.637A3.1,3.1,0,0,0,154.316,36h4.234v-.109a2.753,2.753,0,0,0-.594-1.707A1.815,1.815,0,0,0,156.52,33.578Zm4.8,3.125a4.968,4.968,0,0,1,.914-3.145,3.151,3.151,0,0,1,4.836-.074l.07-.937h1.32V40.8a3.439,3.439,0,0,1-.973,2.586,3.589,3.589,0,0,1-2.613.945,4.348,4.348,0,0,1-1.789-.391,3.08,3.08,0,0,1-1.336-1.07L162.5,42a2.826,2.826,0,0,0,2.273,1.148,2.214,2.214,0,0,0,1.645-.594,2.269,2.269,0,0,0,.59-1.672v-.727a2.971,2.971,0,0,1-2.367,1,2.887,2.887,0,0,1-2.4-1.2A5.224,5.224,0,0,1,161.324,36.7Zm1.453.164a3.79,3.79,0,0,0,.586,2.246A1.9,1.9,0,0,0,165,39.93a2.117,2.117,0,0,0,2.008-1.242V34.828a2.142,2.142,0,0,0-1.992-1.211,1.921,1.921,0,0,0-1.648.82A4.128,4.128,0,0,0,162.777,36.867Zm13.086,3.3a3.07,3.07,0,0,1-2.477.992,2.628,2.628,0,0,1-2.059-.785,3.4,3.4,0,0,1-.715-2.324v-5.5h1.445v5.461q0,1.922,1.563,1.922a2.163,2.163,0,0,0,2.2-1.234V32.547h1.445V41h-1.375Zm7.688-6.32a4.331,4.331,0,0,0-.711-.055A1.9,1.9,0,0,0,180.91,35v6h-1.445V32.547h1.406l.023.977a2.251,2.251,0,0,1,2.016-1.133,1.477,1.477,0,0,1,.641.109Zm2.9,7.156H185V32.547h1.445Zm-1.562-10.7a.863.863,0,0,1,.215-.594.807.807,0,0,1,.637-.242.819.819,0,0,1,.641.242.854.854,0,0,1,.219.594.826.826,0,0,1-.219.586.834.834,0,0,1-.641.234.821.821,0,0,1-.637-.234A.834.834,0,0,1,184.887,30.3Zm3.523,6.4a4.952,4.952,0,0,1,.922-3.129,3.137,3.137,0,0,1,4.766-.168V29h1.445V41h-1.328l-.07-.906a2.943,2.943,0,0,1-2.414,1.063,2.887,2.887,0,0,1-2.395-1.2,5.008,5.008,0,0,1-.926-3.141Zm1.445.164a3.749,3.749,0,0,0,.594,2.25,1.919,1.919,0,0,0,1.641.813A2.108,2.108,0,0,0,194.1,38.7V34.813a2.125,2.125,0,0,0-1.992-1.2,1.929,1.929,0,0,0-1.656.82A4.128,4.128,0,0,0,189.855,36.867ZM203,41a3.036,3.036,0,0,1-.2-.891,3.225,3.225,0,0,1-2.406,1.047,2.984,2.984,0,0,1-2.051-.707,2.287,2.287,0,0,1-.8-1.793,2.39,2.39,0,0,1,1-2.051,4.733,4.733,0,0,1,2.824-.73h1.406v-.664A1.623,1.623,0,0,0,202.324,34a1.821,1.821,0,0,0-1.336-.449,2.107,2.107,0,0,0-1.3.391,1.151,1.151,0,0,0-.523.945h-1.453a2,2,0,0,1,.449-1.223,3.066,3.066,0,0,1,1.219-.934,4.1,4.1,0,0,1,1.691-.344,3.342,3.342,0,0,1,2.289.73,2.635,2.635,0,0,1,.859,2.012v3.891a4.757,4.757,0,0,0,.3,1.852V41Zm-2.4-1.1a2.54,2.54,0,0,0,1.289-.352,2.127,2.127,0,0,0,.883-.914V36.9h-1.133q-2.656,0-2.656,1.555a1.316,1.316,0,0,0,.453,1.063A1.742,1.742,0,0,0,200.605,39.9Zm5.531-3.2a4.952,4.952,0,0,1,.922-3.129,3.137,3.137,0,0,1,4.766-.168V29h1.445V41h-1.328l-.07-.906a2.943,2.943,0,0,1-2.414,1.063,2.887,2.887,0,0,1-2.395-1.2,5.008,5.008,0,0,1-.926-3.141Zm1.445.164a3.749,3.749,0,0,0,.594,2.25,1.919,1.919,0,0,0,1.641.813,2.108,2.108,0,0,0,2.008-1.234V34.813a2.125,2.125,0,0,0-1.992-1.2,1.929,1.929,0,0,0-1.656.82A4.128,4.128,0,0,0,207.582,36.867ZM82.777,60.7a4.952,4.952,0,0,1,.922-3.129,3.137,3.137,0,0,1,4.766-.168V53H89.91V65H88.582l-.07-.906A2.943,2.943,0,0,1,86.1,65.156a2.887,2.887,0,0,1-2.395-1.2,5.008,5.008,0,0,1-.926-3.141Zm1.445.164a3.749,3.749,0,0,0,.594,2.25,1.92,1.92,0,0,0,1.641.813A2.108,2.108,0,0,0,88.465,62.7V58.813a2.125,2.125,0,0,0-1.992-1.2,1.929,1.929,0,0,0-1.656.82A4.128,4.128,0,0,0,84.223,60.867ZM95.66,65.156a3.693,3.693,0,0,1-2.8-1.129,4.19,4.19,0,0,1-1.078-3.02v-.266a5.073,5.073,0,0,1,.48-2.246,3.748,3.748,0,0,1,1.344-1.547,3.378,3.378,0,0,1,1.871-.559,3.166,3.166,0,0,1,2.563,1.086,4.7,4.7,0,0,1,.914,3.109v.6H93.23a3,3,0,0,0,.73,2.02,2.3,2.3,0,0,0,1.777.77,2.517,2.517,0,0,0,1.3-.312,3.259,3.259,0,0,0,.93-.828l.883.688A3.55,3.55,0,0,1,95.66,65.156Zm-.18-7.578a1.928,1.928,0,0,0-1.469.637A3.1,3.1,0,0,0,93.277,60h4.234v-.109a2.753,2.753,0,0,0-.594-1.707A1.815,1.815,0,0,0,95.48,57.578Zm13.2.266a4.331,4.331,0,0,0-.711-.055A1.9,1.9,0,0,0,106.035,59v6H104.59V56.547H106l.023.977a2.251,2.251,0,0,1,2.016-1.133,1.477,1.477,0,0,1,.641.109Zm4.836,7.313a3.693,3.693,0,0,1-2.8-1.129,4.19,4.19,0,0,1-1.078-3.02v-.266a5.073,5.073,0,0,1,.48-2.246,3.748,3.748,0,0,1,1.344-1.547,3.378,3.378,0,0,1,1.871-.559,3.166,3.166,0,0,1,2.563,1.086,4.7,4.7,0,0,1,.914,3.109v.6h-5.727a3,3,0,0,0,.73,2.02,2.3,2.3,0,0,0,1.777.77,2.517,2.517,0,0,0,1.3-.312,3.259,3.259,0,0,0,.93-.828l.883.688A3.55,3.55,0,0,1,113.512,65.156Zm-.18-7.578a1.928,1.928,0,0,0-1.469.637A3.1,3.1,0,0,0,111.129,60h4.234v-.109a2.753,2.753,0,0,0-.594-1.707A1.815,1.815,0,0,0,113.332,57.578Zm4.8,3.125a4.952,4.952,0,0,1,.922-3.129,3.137,3.137,0,0,1,4.766-.168V53h1.445V65h-1.328l-.07-.906a2.943,2.943,0,0,1-2.414,1.063,2.887,2.887,0,0,1-2.395-1.2,5.008,5.008,0,0,1-.926-3.141Zm1.445.164a3.749,3.749,0,0,0,.594,2.25,1.92,1.92,0,0,0,1.641.813,2.108,2.108,0,0,0,2.008-1.234V58.813a2.125,2.125,0,0,0-1.992-1.2,1.929,1.929,0,0,0-1.656.82A4.128,4.128,0,0,0,119.574,60.867Zm9.625.917a4.663,4.663,0,0,1,.211-1.466,3.761,3.761,0,0,1,.8-1.193l1.023-1.053a2.36,2.36,0,0,0,.656-1.59,1.815,1.815,0,0,0-.43-1.282,1.62,1.62,0,0,0-1.25-.464,1.881,1.881,0,0,0-1.281.422,1.426,1.426,0,0,0-.484,1.133H127a2.632,2.632,0,0,1,.9-2.043,3.374,3.374,0,0,1,2.309-.777,3.185,3.185,0,0,1,2.3.792,2.87,2.87,0,0,1,.824,2.172,3.926,3.926,0,0,1-1.266,2.691l-.852.842a2.623,2.623,0,0,0-.57,1.818Zm-.062,2.482a.861.861,0,0,1,.215-.6.81.81,0,0,1,.637-.241.822.822,0,0,1,.641.241.852.852,0,0,1,.219.6.824.824,0,0,1-.219.588.837.837,0,0,1-.641.233.774.774,0,0,1-.852-.82Z" transform="translate(28.313 209.358)" fill="#12263f"/>
      <g id="thift" transform="translate(74.895 82.638)">
        <g id="data_protection" data-name="data protection">
          <path id="Trazado_132454" data-name="Trazado 132454" d="M2132.3,1080.7s-24.954-10.253-17.963-23.536,32.368-17.175,20.793-28.858c-9.389-9.476-12.993-22.945-2.212-32.345,20.777-18.113,32.509,10.02,58.608,0s50.528,10.758,34.915,38.487c-21.231,37.71,5.033,45.928,5.033,45.928Z" transform="translate(-2113.097 -989.725)" fill="#f3f9ff"/>
          <g id="Grupo_62014" data-name="Grupo 62014" transform="translate(9.983 53.17)">
            <g id="Grupo_62012" data-name="Grupo 62012" transform="translate(0 10.581)">
              <path id="Trazado_132455" data-name="Trazado 132455" d="M2158.3,1276.338a8.574,8.574,0,0,0-1.009,3.172l.936.106a7.717,7.717,0,0,0,.256,3.012l-.9.262a8.593,8.593,0,0,0,1.528,2.957l.165-.129.572-.456a7.643,7.643,0,0,0,2.312,1.946l-.454.826a8.5,8.5,0,0,0,3.174,1.006l.106-.936a7.653,7.653,0,0,0,3.01-.253l.262.9a8.61,8.61,0,0,0,2.959-1.531l0,0-.167-.214-.415-.521a7.621,7.621,0,0,0,1.944-2.308l.826.454a8.52,8.52,0,0,0,1.007-3.177l-.935-.106a7.641,7.641,0,0,0-.255-3.007l.9-.262a8.611,8.611,0,0,0-1.531-2.959l-.737.585a7.636,7.636,0,0,0-2.309-1.944l.453-.826a8.514,8.514,0,0,0-3.177-1.008l-.106.935a7.65,7.65,0,0,0-3.007.255l-.262-.9a8.558,8.558,0,0,0-2.959,1.531l0,.007.386.484.2.246a7.637,7.637,0,0,0-1.944,2.308Zm3.9,2.143a4.164,4.164,0,1,1,1.643,5.655A4.162,4.162,0,0,1,2162.2,1278.481Z" transform="translate(-2157.289 -1271.927)" fill="#37a3a5"/>
            </g>
            <g id="Grupo_62013" data-name="Grupo 62013" transform="translate(13.512)">
              <path id="Trazado_132456" data-name="Trazado 132456" d="M2218.655,1226.345a4.76,4.76,0,0,0-1.1,1.49l.473.223a4.293,4.293,0,0,0-.4,1.631l-.521-.023a4.775,4.775,0,0,0,.277,1.829l.11-.039.382-.138a4.251,4.251,0,0,0,.87,1.437l-.386.354a4.724,4.724,0,0,0,1.491,1.1l.223-.474a4.261,4.261,0,0,0,1.629.4l-.022.521a4.788,4.788,0,0,0,1.831-.278v0l-.05-.143-.125-.348a4.239,4.239,0,0,0,1.435-.868l.354.386a4.729,4.729,0,0,0,1.1-1.493l-.473-.223a4.247,4.247,0,0,0,.4-1.628l.521.023a4.781,4.781,0,0,0-.278-1.831l-.492.177a4.242,4.242,0,0,0-.868-1.435l.386-.354a4.736,4.736,0,0,0-1.493-1.1l-.223.473a4.251,4.251,0,0,0-1.628-.4l.023-.522a4.764,4.764,0,0,0-1.831.278v0l.116.324.059.164a4.246,4.246,0,0,0-1.435.868Zm1.671,1.824a2.314,2.314,0,1,1-.144,3.27A2.313,2.313,0,0,1,2220.326,1228.169Z" transform="translate(-2217.102 -1225.087)" fill="none" stroke="#12263f" stroke-miterlimit="10" stroke-width="0.582"/>
            </g>
          </g>
          <path id="Trazado_132457" data-name="Trazado 132457" d="M2289.56,1391.005H2187.247a.6.6,0,0,1-.6-.6h0a.6.6,0,0,1,.6-.6H2289.56a.6.6,0,0,1,.6.6h0A.6.6,0,0,1,2289.56,1391.005Z" transform="translate(-2170.033 -1299.427)"/>
          <rect id="Rectángulo_29957" data-name="Rectángulo 29957" width="81.196" height="51.819" rx="8.349" transform="translate(28.028 35.657)" fill="url(#linear-gradient-2)"/>
          <rect id="Rectángulo_29958" data-name="Rectángulo 29958" width="51.119" height="80.495" rx="2" transform="translate(108.874 36.007) rotate(90)" fill="#00223d"/>
          <g id="Grupo_62015" data-name="Grupo 62015" transform="translate(30.771 37.752)">
            <rect id="Rectángulo_29959" data-name="Rectángulo 29959" width="75.793" height="47.389" fill="url(#linear-gradient-2)"/>
          </g>
          <path id="Trazado_132458" data-name="Trazado 132458" d="M2301.3,1376.951v1.262a1.485,1.485,0,0,1-.011.19,1.642,1.642,0,0,1-1.631,1.452h-90.066a1.641,1.641,0,0,1-1.63-1.452,1.485,1.485,0,0,1-.011-.19v-1.262Z" transform="translate(-2186.522 -1289.475)" fill="#00223d"/>
          <path id="Trazado_132459" data-name="Trazado 132459" d="M2301.327,1383.38a1.642,1.642,0,0,1-1.631,1.452H2209.63a1.641,1.641,0,0,1-1.63-1.452Z" transform="translate(-2186.561 -1294.452)" fill="#21587b"/>
          <g id="Grupo_62021" data-name="Grupo 62021" transform="translate(64.855 16.801)">
            <g id="Grupo_62019" data-name="Grupo 62019">
              <g id="Grupo_62018" data-name="Grupo 62018">
                <g id="Grupo_62017" data-name="Grupo 62017">
                  <g id="Grupo_62016" data-name="Grupo 62016" transform="translate(0.57 0.834)">
                    <path id="Trazado_132460" data-name="Trazado 132460" d="M2423.184,1067.827l-.035-.036c-4.732,5.069-12.282,9.223-20.362,10.992,0,.54-.016,3.529-.077,17.309-.082,18.382,17.412,27.365,20.128,28.744C2414.859,1092.537,2421.11,1073,2423.184,1067.827Z" transform="translate(-2402.71 -1067.791)" fill="#37a3a5"/>
                    <path id="Trazado_132461" data-name="Trazado 132461" d="M2478.639,1067.951c-2.074,5.174-8.325,24.71-.346,57.009,2.631-1.211,20.347-10.18,20.429-28.562.062-13.78.075-16.77.077-17.309C2490.756,1077.251,2483.328,1073.045,2478.639,1067.951Z" transform="translate(-2458.165 -1067.915)" fill="#37a3a5"/>
                  </g>
                  <path id="Trazado_132462" data-name="Trazado 132462" d="M2420.875,1122.609l-.246-.125a44.344,44.344,0,0,1-11.259-8.1c-6.128-6.144-9.216-13.261-9.181-21.153l.029-6.391c.037-8.377.047-10.474.049-10.918l0-.457.446-.1c7.841-1.718,15.343-5.764,20.067-10.825l.416-.446.455.485c4.692,5.1,12.119,9.2,19.868,10.968l.446.1,0,.457c0,.54-.016,3.53-.078,17.309-.085,19.014-18.644,28.1-20.76,29.077ZM2401.4,1076.38c0,1-.016,3.656-.047,10.464l-.029,6.391c-.072,16.145,13.46,24.956,19.57,28.107,2.948-1.407,19.769-10.217,19.848-27.931.052-11.658.07-15.594.075-16.856-7.6-1.824-14.863-5.822-19.627-10.8C2416.4,1070.682,2409.073,1074.613,2401.4,1076.38Z" transform="translate(-2400.189 -1064.097)" fill="#00223d"/>
                </g>
                <path id="Trazado_132463" data-name="Trazado 132463" d="M2431.573,1134.665l-.314-.163a38.615,38.615,0,0,1-9.163-6.7c-5.431-5.405-8.17-11.65-8.139-18.562l.068-15.218.511-.132a39.877,39.877,0,0,0,16.792-8.719l.483-.444.464.464-.446.518.466-.5a39.891,39.891,0,0,0,16.676,8.836l.51.136-.068,15.219c-.03,6.911-2.824,13.132-8.3,18.489a38.872,38.872,0,0,1-8.964,6.484Zm-16.185-39.587-.063,14.167c-.029,6.532,2.573,12.449,7.736,17.586a37.283,37.283,0,0,0,8.516,6.292,37.486,37.486,0,0,0,8.573-6.215c5.209-5.091,7.864-10.984,7.893-17.517l.063-14.165a41.427,41.427,0,0,1-16.32-8.629A41.429,41.429,0,0,1,2415.388,1095.078Zm16.435-9.37,0,0Z" transform="translate(-2410.846 -1080.064)" fill="url(#linear-gradient-2)"/>
              </g>
            </g>
            <g id="Grupo_62020" data-name="Grupo 62020" transform="translate(12.786 18.203)">
              <path id="Trazado_132464" data-name="Trazado 132464" d="M2456.79,1182.031V1194.1c0,1.343,16.4,1.343,16.4,0v-12.066Zm9.032,6.407v3.42a.83.83,0,1,1-1.66,0v-3.428a2.018,2.018,0,1,1,1.66.008Z" transform="translate(-2456.79 -1173.593)" fill="url(#linear-gradient-2)"/>
              <path id="Trazado_132465" data-name="Trazado 132465" d="M2476.684,1152.255h-1.66v-.812a5.105,5.105,0,1,0-10.21,0v.813h-1.661v-.812a6.766,6.766,0,1,1,13.531,0Z" transform="translate(-2461.715 -1144.677)" fill="url(#linear-gradient-2)"/>
            </g>
          </g>
          <g id="Grupo_62030" data-name="Grupo 62030" transform="translate(38.09 47.719)">
            <g id="Grupo_62026" data-name="Grupo 62026" transform="translate(0 9.006)">
              <g id="Grupo_62023" data-name="Grupo 62023" transform="translate(0 5.914)">
                <rect id="Rectángulo_29960" data-name="Rectángulo 29960" width="22.553" height="4.458" fill="#fff"/>
                <g id="Grupo_62022" data-name="Grupo 62022" transform="translate(3.535 1.408)">
                  <circle id="Elipse_4137" data-name="Elipse 4137" cx="0.974" cy="0.974" r="0.974" transform="translate(0 0)" fill="#00223d"/>
                  <circle id="Elipse_4138" data-name="Elipse 4138" cx="0.974" cy="0.974" r="0.974" transform="translate(3.338 0)" fill="#00223d"/>
                  <circle id="Elipse_4139" data-name="Elipse 4139" cx="0.974" cy="0.974" r="0.974" transform="translate(6.676 0)" fill="#00223d"/>
                  <path id="Trazado_132466" data-name="Trazado 132466" d="M2343.629,1274.213a.973.973,0,1,1-.973-.974A.974.974,0,0,1,2343.629,1274.213Z" transform="translate(-2331.669 -1273.239)" fill="#00223d"/>
                  <circle id="Elipse_4140" data-name="Elipse 4140" cx="0.974" cy="0.974" r="0.974" transform="translate(13.351 0)" fill="#00223d"/>
                </g>
              </g>
              <g id="Grupo_62025" data-name="Grupo 62025">
                <rect id="Rectángulo_29961" data-name="Rectángulo 29961" width="22.553" height="4.458" fill="#fff"/>
                <g id="Grupo_62024" data-name="Grupo 62024" transform="translate(3.535 1.408)">
                  <circle id="Elipse_4141" data-name="Elipse 4141" cx="0.974" cy="0.974" r="0.974" fill="#00223d"/>
                  <circle id="Elipse_4142" data-name="Elipse 4142" cx="0.974" cy="0.974" r="0.974" transform="translate(3.338)" fill="#00223d"/>
                  <circle id="Elipse_4143" data-name="Elipse 4143" cx="0.974" cy="0.974" r="0.974" transform="translate(6.676)" fill="#00223d"/>
                  <path id="Trazado_132467" data-name="Trazado 132467" d="M2343.629,1248.035a.973.973,0,1,1-.973-.974A.973.973,0,0,1,2343.629,1248.035Z" transform="translate(-2331.669 -1247.061)" fill="#00223d"/>
                  <circle id="Elipse_4144" data-name="Elipse 4144" cx="0.974" cy="0.974" r="0.974" transform="translate(13.351)" fill="#00223d"/>
                </g>
              </g>
              <rect id="Rectángulo_29962" data-name="Rectángulo 29962" width="9.135" height="3.099" rx="1" transform="translate(6.617 13.539)" fill="#00223d"/>
            </g>
            <g id="Grupo_62029" data-name="Grupo 62029" transform="translate(7.708)">
              <circle id="Elipse_4145" data-name="Elipse 4145" cx="3.628" cy="3.628" r="3.628" fill="#fff"/>
              <g id="Grupo_62028" data-name="Grupo 62028" transform="translate(1.611 1.193)">
                <g id="Grupo_62027" data-name="Grupo 62027" transform="translate(0.878)">
                  <path id="Trazado_132468" data-name="Trazado 132468" d="M2327.99,1208.53a1.146,1.146,0,0,0,.89-.436,1.118,1.118,0,0,0,.245-.708,1.14,1.14,0,1,0-2.28,0,1.115,1.115,0,0,0,.245.708A1.149,1.149,0,0,0,2327.99,1208.53Z" transform="translate(-2326.845 -1206.241)" fill="#00223d"/>
                </g>
                <path id="Trazado_132469" data-name="Trazado 132469" d="M2326.993,1219.5c0,.722-4.033.722-4.033,0v-.841c.159-1.15,3.7-1.2,4.032,0Z" transform="translate(-2322.96 -1215.168)" fill="#00223d"/>
              </g>
            </g>
          </g>
        </g>
        <g id="Grupo_62043" data-name="Grupo 62043" transform="translate(18.524 0.46)">
          <g id="Grupo_62042" data-name="Grupo 62042" clip-path="url(#clip-path)">
            <ellipse id="Elipse_4146" data-name="Elipse 4146" cx="11.347" cy="11.473" rx="11.347" ry="11.473" transform="translate(6.297 9.731)" fill="#00223d"/>
            <g id="Grupo_62041" data-name="Grupo 62041" transform="translate(1.147 1.453)">
              <path id="Trazado_132470" data-name="Trazado 132470" d="M2257.167,1077.871l-16.659,3.705s-.943-3.924-1.636-8.056c-.651-3.885-1.08-7.955-.3-9.118,1.618-2.4,11.641-4.748,13.629-2.5,1,1.129,2.244,5.145,3.237,8.868C2256.429,1074.465,2257.167,1077.871,2257.167,1077.871Z" transform="translate(-2229.574 -1046.807)" fill="#21587b"/>
              <path id="Trazado_132471" data-name="Trazado 132471" d="M2250.756,1054.859c.369,3.08-6.55,7.926-6.55,7.926s-7.826-3.833-8.51-5.4c-1.489-3.4,2.35-5.253,6.208-6.051S2250.291,1050.978,2250.756,1054.859Z" transform="translate(-2227.418 -1039.07)" fill="#21587b"/>
              <path id="Trazado_132472" data-name="Trazado 132472" d="M2248.451,1054.7c-2.364.513-4.888,2.317-4.171,3.831s6.3,4.99,6.3,4.99,4.964-4.589,4.684-6.977S2250.815,1054.19,2248.451,1054.7Z" transform="translate(-2234.221 -1041.719)" style="mix-blend-mode: soft-light;isolation: isolate"/>
              <g id="Grupo_62035" data-name="Grupo 62035" transform="translate(8.785 5.962)">
                <g id="Grupo_62031" data-name="Grupo 62031" transform="translate(0.817 1.208)">
                  <path id="Trazado_132473" data-name="Trazado 132473" d="M2253.581,1035.881c.848,8.706-8.985,9.7-10.768,1.16C2241.31,1028.274,2252.8,1027.307,2253.581,1035.881Z" transform="translate(-2242.677 -1029.934)" fill="#f7a58e"/>
                </g>
                <g id="Grupo_62034" data-name="Grupo 62034">
                  <path id="Trazado_132474" data-name="Trazado 132474" d="M2269.682,1063.339a1.081,1.081,0,0,1-.184-.014.074.074,0,1,1,.027-.146c.005,0,.519.09.731-.254.175-.285-.272-.956-.46-1.19a.074.074,0,1,1,.115-.093c.076.094.732.935.47,1.36A.79.79,0,0,1,2269.682,1063.339Z" transform="translate(-2262.576 -1053.25)" fill="#b55b41"/>
                  <path id="Trazado_132475" data-name="Trazado 132475" d="M2257.125,1063.537c.056.271-.031.518-.193.551s-.34-.158-.4-.429.031-.518.193-.551S2257.069,1063.267,2257.125,1063.537Z" transform="translate(-2252.575 -1054.403)"/>
                  <path id="Trazado_132476" data-name="Trazado 132476" d="M2279.747,1058.828c.056.271-.03.517-.193.551s-.34-.159-.4-.429.031-.517.193-.551S2279.691,1058.557,2279.747,1058.828Z" transform="translate(-2270.088 -1050.757)"/>
                  <path id="Trazado_132477" data-name="Trazado 132477" d="M2242.657,1065.063a.909.909,0,1,1-1.074-.706A.909.909,0,0,1,2242.657,1065.063Z" transform="translate(-2240.452 -1055.357)" fill="#f7a58e"/>
                  <path id="Trazado_132478" data-name="Trazado 132478" d="M2289.317,1055.325a.909.909,0,1,1-1.074-.706A.909.909,0,0,1,2289.317,1055.325Z" transform="translate(-2276.572 -1047.819)" fill="#f7a58e"/>
                  <path id="Trazado_132479" data-name="Trazado 132479" d="M2242.374,1037.375c-.322-1.346-.608-3.857.885-4.058,1.9-.256,5.894-1.013,7.137-1.3,1.011-.237,1.8,1.918,2.031,3.271a13.835,13.835,0,0,0-.142-3.006c-.174-.662-1.282-5-6.584-3.907s-4.454,5.743-4.245,6.732A10.374,10.374,0,0,0,2242.374,1037.375Z" transform="translate(-2240.777 -1027.378)" fill="#bd5f45"/>
                  <path id="Trazado_132480" data-name="Trazado 132480" d="M2265.173,1076.568c-.322-.439.507-1.146,1.425-1.306s1.968.24,1.7.793-.893-.006-1.591.176C2266.105,1076.388,2265.633,1077.2,2265.173,1076.568Z" transform="translate(-2259.22 -1063.786)" fill="#80412e"/>
                  <path id="Trazado_132481" data-name="Trazado 132481" d="M2274,1053.928c.378-.738.619-1.3,1.249-1.424a.763.763,0,0,1,.759.17,1.037,1.037,0,0,0-.788.28C2274.862,1053.221,2274.677,1053.822,2274,1053.928Z" transform="translate(-2266.107 -1046.177)" fill="#bd5f45"/>
                  <path id="Trazado_132482" data-name="Trazado 132482" d="M2252.936,1059.37a8.285,8.285,0,0,0,2.394.4,1.687,1.687,0,0,1-1.227.283A1.265,1.265,0,0,1,2252.936,1059.37Z" transform="translate(-2249.802 -1051.512)" fill="#bd5f45"/>
                  <path id="Trazado_132483" data-name="Trazado 132483" d="M2264.02,1059.674a.408.408,0,0,1,.29.332.381.381,0,0,1-.186.354.713.713,0,0,0,.11-.326A.659.659,0,0,0,2264.02,1059.674Z" transform="translate(-2258.382 -1051.747)" fill="#b55b41"/>
                  <path id="Trazado_132484" data-name="Trazado 132484" d="M2239.963,1031.253s-.57-5.735,4.594-6.531c4.24-.877,6.174,2.692,6.573,4.005A25.077,25.077,0,0,0,2239.963,1031.253Z" transform="translate(-2239.746 -1024.585)" fill="#00223d"/>
                  <path id="Trazado_132485" data-name="Trazado 132485" d="M2254.943,1052.824s.872,4.159-1.96,3.97a.028.028,0,0,1,0,.006,8.948,8.948,0,0,0-4.54,1.02c0-.005,0-.01,0-.015-2.1,1.264-3.406-2.525-3.406-2.525a4.927,4.927,0,0,0,2.191,4.3c1.554,1.559,4.377,1.258,4.377,1.258a4.917,4.917,0,0,0,3.015-2.605A5.97,5.97,0,0,0,2254.943,1052.824Zm-3.538,6.861c-1.236.256-2.394-.006-2.508-.56s.754-1.412,1.986-1.666,2.373.182,2.488.741S2252.642,1059.429,2251.406,1059.685Z" transform="translate(-2243.67 -1046.445)" fill="#bd5f45"/>
                  <g id="Grupo_62033" data-name="Grupo 62033" transform="translate(0 2.725)">
                    <path id="Trazado_132486" data-name="Trazado 132486" d="M2240.041,1042.709s.963-1.811,5.034-2.687,5.162.006,5.673.4c.485-.314.511-1.872-.236-2.968-1.263-1.852-11.24-.327-11.449,2.5A3.5,3.5,0,0,0,2240.041,1042.709Z" transform="translate(-2239.062 -1036.647)" fill="#37a3a5"/>
                    <g id="Grupo_62032" data-name="Grupo 62032" clip-path="url(#clip-path-2)">
                      <path id="Trazado_132487" data-name="Trazado 132487" d="M2242.6,1047.272a1.669,1.669,0,0,1-.346-.394q-.153-.209-.288-.429a5.114,5.114,0,0,1-.442-.91,3.84,3.84,0,0,1-.2-1.991,3.1,3.1,0,0,1,.39-1.047.07.07,0,0,0-.121-.071,3.432,3.432,0,0,0-.453,2.022,4.636,4.636,0,0,0,.655,1.99c.1.174.215.343.334.506a1.877,1.877,0,0,0,.4.444c.073.052.144-.069.071-.121Z" transform="translate(-2240.664 -1041.098)" fill="#12263f" style="mix-blend-mode: soft-light;isolation: isolate"/>
                      <path id="Trazado_132488" data-name="Trazado 132488" d="M2247.46,1043.9a1.637,1.637,0,0,1-.664-.757,4.593,4.593,0,0,1-.375-.992,4.862,4.862,0,0,1-.056-2.129,4.657,4.657,0,0,1,.386-1.147c.04-.081-.081-.152-.121-.071a4.95,4.95,0,0,0,0,4.323,1.856,1.856,0,0,0,.758.894c.08.04.152-.081.071-.121Z" transform="translate(-2244.536 -1038.287)" fill="#12263f" style="mix-blend-mode: soft-light;isolation: isolate"/>
                      <path id="Trazado_132489" data-name="Trazado 132489" d="M2252.423,1041.995a6.211,6.211,0,0,1-.628-3.6,5.959,5.959,0,0,1,.224-1.027c.027-.087-.108-.123-.135-.037a6.342,6.342,0,0,0,.013,3.753,6.2,6.2,0,0,0,.406.986c.042.08.163.009.121-.071Z" transform="translate(-2248.772 -1037.135)" fill="#12263f" style="mix-blend-mode: soft-light;isolation: isolate"/>
                      <path id="Trazado_132490" data-name="Trazado 132490" d="M2257.469,1041.555a7.12,7.12,0,0,1-.553-3.465,6.941,6.941,0,0,1,.164-.991c.021-.088-.114-.125-.135-.037a7.21,7.21,0,0,0,.4,4.564c.036.082.157.011.121-.071Z" transform="translate(-2252.752 -1036.93)" fill="#12263f" style="mix-blend-mode: soft-light;isolation: isolate"/>
                      <path id="Trazado_132491" data-name="Trazado 132491" d="M2261.772,1039.249l-.476-3.36-.135-.956c-.012-.089-.148-.051-.135.037l.476,3.36q.067.478.135.956c.013.089.148.051.135-.037Z" transform="translate(-2256.064 -1035.281)" fill="#12263f" style="mix-blend-mode: soft-light;isolation: isolate"/>
                      <path id="Trazado_132492" data-name="Trazado 132492" d="M2267.45,1038.3a14.6,14.6,0,0,0-.375-3.348q-.108-.468-.248-.928a.07.07,0,0,0-.135.037,14.413,14.413,0,0,1,.59,3.291q.029.473.027.948a.07.07,0,0,0,.14,0Z" transform="translate(-2260.448 -1034.578)" fill="#12263f" style="mix-blend-mode: soft-light;isolation: isolate"/>
                      <path id="Trazado_132493" data-name="Trazado 132493" d="M2272.333,1036.912a10.076,10.076,0,0,0-.324-3.69,1.062,1.062,0,0,0-.41-.691.07.07,0,0,0-.071.121.919.919,0,0,1,.343.6q.12.428.2.866a9.9,9.9,0,0,1,.119,2.8c-.009.09.132.089.141,0Z" transform="translate(-2264.168 -1033.453)" fill="#12263f" style="mix-blend-mode: soft-light;isolation: isolate"/>
                      <path id="Trazado_132494" data-name="Trazado 132494" d="M2278.485,1038.03a8.9,8.9,0,0,0,.073-1.771c-.018-.3-.051-.592-.1-.885a4.636,4.636,0,0,0-.174-.747,2.144,2.144,0,0,0-.407-.732c-.06-.068-.159.031-.1.1a2.646,2.646,0,0,1,.53,1.33,8.726,8.726,0,0,1,.041,2.669c-.012.088.123.126.135.037Z" transform="translate(-2269.019 -1034.499)" fill="#12263f" style="mix-blend-mode: soft-light;isolation: isolate"/>
                      <path id="Trazado_132495" data-name="Trazado 132495" d="M2282.424,1038.593a7.238,7.238,0,0,0-.494-3.331,3.286,3.286,0,0,0-.483-.722c-.06-.068-.159.032-.1.1a4.578,4.578,0,0,1,.934,2.962c.01.331.006.661,0,.992a.07.07,0,0,0,.14,0Z" transform="translate(-2271.781 -1034.998)" fill="#12263f" style="mix-blend-mode: soft-light;isolation: isolate"/>
                      <path id="Trazado_132496" data-name="Trazado 132496" d="M2286.292,1036.423a7.073,7.073,0,0,0-.357-4.037,2.887,2.887,0,0,0-.545-.971c-.063-.065-.162.035-.1.1a2.6,2.6,0,0,1,.483.845,6.89,6.89,0,0,1,.312.944,6.969,6.969,0,0,1,.206,1.966,6.8,6.8,0,0,1-.135,1.117c-.018.088.117.126.135.037Z" transform="translate(-2274.833 -1032.581)" fill="#12263f" style="mix-blend-mode: soft-light;isolation: isolate"/>
                    </g>
                  </g>
                </g>
              </g>
              <g id="Grupo_62038" data-name="Grupo 62038" transform="translate(0 6.787)">
                <g id="Grupo_62036" data-name="Grupo 62036" transform="translate(7.118 0.013)">
                  <path id="Trazado_132498" data-name="Trazado 132498" d="M2234.444,1033.565a7.94,7.94,0,0,1,.584-2.118c.259-.157.576.236.358,1S2234.892,1033.7,2234.444,1033.565Z" transform="translate(-2233.821 -1030.709)" fill="#21587b"/>
                  <path id="Trazado_132499" data-name="Trazado 132499" d="M2234.111,1031.306a6.61,6.61,0,0,1,2.189-3.01c.324.028.487.28.27.611a10.267,10.267,0,0,1-.763.92l-.487,2.1Z" transform="translate(-2233.563 -1028.296)" fill="#21587b"/>
                  <path id="Trazado_132500" data-name="Trazado 132500" d="M2231.765,1036.687a9.523,9.523,0,0,1,1.437-2.681c.6-.446,1.067.26,1.172.768s.4,2.435-.354,3.45S2231.262,1038.727,2231.765,1036.687Z" transform="translate(-2231.685 -1032.607)" fill="#21587b"/>
                  <path id="Trazado_132501" data-name="Trazado 132501" d="M2237.283,1031.012a3.408,3.408,0,0,1,2.395-1.211.437.437,0,0,1-.01.7c-.41.386-1.149.131-1.267,1.32C2238.308,1032.356,2236.72,1032.124,2237.283,1031.012Z" transform="translate(-2235.925 -1029.46)" fill="#21587b"/>
                </g>
                <path id="Trazado_132502" data-name="Trazado 132502" d="M2208.669,1049.514l-2.563-.411c1.3-.237,1.474-1.392,3.007-2.849,2.177-1.79-1.177-5.287-2.59-4.082,0,0-6.883,5.176-6.313,8.99.42,2.808,6.936,6.053,9.647,6.775C2209.66,1057.066,2208.646,1049.625,2208.669,1049.514Z" transform="translate(-2200.176 -1038.833)" fill="#21587b"/>
                <g id="Grupo_62037" data-name="Grupo 62037" transform="translate(7.913)">
                  <path id="Trazado_132503" data-name="Trazado 132503" d="M2235.232,1030.639a.031.031,0,0,1-.013,0,.029.029,0,0,1-.013-.04,5.932,5.932,0,0,1,1.907-2.354.03.03,0,0,1,.041.01.03.03,0,0,1-.01.041,5.871,5.871,0,0,0-1.885,2.33A.029.029,0,0,1,2235.232,1030.639Z" transform="translate(-2235.202 -1028.238)" fill="#21587b"/>
                  <path id="Trazado_132504" data-name="Trazado 132504" d="M2236.806,1031.117a.03.03,0,0,1-.024-.048,3.193,3.193,0,0,1,2.593-1.379.03.03,0,0,1,0,.059,3.136,3.136,0,0,0-2.541,1.355A.029.029,0,0,1,2236.806,1031.117Z" transform="translate(-2236.421 -1029.361)" fill="#21587b"/>
                </g>
                <path id="Trazado_132505" data-name="Trazado 132505" d="M2242.083,1034.893a.029.029,0,0,1-.021-.009.029.029,0,0,1,0-.042,2.285,2.285,0,0,0,.475-1.557,7.644,7.644,0,0,0-.251-2.024c-.008-.012-.078-.177.357-.463a1.867,1.867,0,0,1,.221-.111c.266-.121.667-.3.724-.569a.464.464,0,0,0-.147-.4.03.03,0,0,1,0-.042.03.03,0,0,1,.042,0,.517.517,0,0,1,.161.447c-.063.295-.481.485-.757.611a1.9,1.9,0,0,0-.213.106c-.389.256-.336.39-.335.392a7.649,7.649,0,0,1,.256,2.046,2.292,2.292,0,0,1-.494,1.6A.028.028,0,0,1,2242.083,1034.893Z" transform="translate(-2232.593 -1029.349)" fill="#21587b"/>
              </g>
              <g id="Grupo_62039" data-name="Grupo 62039" transform="translate(22.041 3.737)">
                <path id="Trazado_132506" data-name="Trazado 132506" d="M2298.112,1025.9l3.084-3.109c-.859-.888-1.785-2.786-3.053-4.48-1.66-2.216,2.289-4.518,3.582-3.185,0,0,5.95,5.727,5.021,9.471-.683,2.756-4.181,7.769-6.383,9.506C2300.2,1033.228,2298.177,1026,2298.112,1025.9Z" transform="translate(-2297.742 -1014.735)" fill="#21587b"/>
              </g>
              <path id="Trazado_132507" data-name="Trazado 132507" d="M2279.5,1068.1a.07.07,0,0,1-.046-.123l.271-.236a29.871,29.871,0,0,0,4.515-4.471,2.7,2.7,0,0,0-.141-3.52l-.052-.071a.07.07,0,1,1,.113-.083l.052.07a2.85,2.85,0,0,1,.146,3.679,29.338,29.338,0,0,1-4.542,4.5l-.271.236A.071.071,0,0,1,2279.5,1068.1Z" transform="translate(-2261.524 -1045.704)" fill="#12263f" style="mix-blend-mode: soft-light;isolation: isolate"/>
              <path id="Trazado_132508" data-name="Trazado 132508" d="M2242.66,1075.872a.07.07,0,0,1-.041-.013,14.457,14.457,0,0,0-2.586-1.326c-2.536-1.107-5.41-2.362-4.8-5.765a.07.07,0,0,1,.081-.057.07.07,0,0,1,.057.081c-.591,3.294,2.229,4.526,4.718,5.612a14.533,14.533,0,0,1,2.611,1.341.07.07,0,0,1-.041.127Z" transform="translate(-2227.249 -1052.78)" fill="#12263f" style="mix-blend-mode: soft-light;isolation: isolate"/>
              <path id="Trazado_132509" data-name="Trazado 132509" d="M2300.4,1013.76a1.008,1.008,0,0,0-.822-.819,3.913,3.913,0,0,0-2.443,1.85c-.12.321.2.694.408.939C2298.067,1016.353,2300.378,1014.5,2300.4,1013.76Z" transform="translate(-2275.214 -1009.607)" fill="#1e3d66"/>
              <g id="Grupo_62040" data-name="Grupo 62040" transform="translate(17.145)">
                <path id="Trazado_132510" data-name="Trazado 132510" d="M2298.547,1010.6c.154.411-1.593,1.9-1.854,1.48l-.849-1.445,1.558-1.243Z" transform="translate(-2291.377 -1006.86)" fill="#37a3a5"/>
                <path id="Trazado_132511" data-name="Trazado 132511" d="M2291.441,1004.532a4.521,4.521,0,0,1,.289.623,2.073,2.073,0,0,1,.156.637,1.941,1.941,0,0,1-2.067,1.406,1.546,1.546,0,0,1-.613-.245,5.005,5.005,0,0,1-1.023-1.01l-.011-.013c-.1-.134-.18-.236-.236-.3-.011-.013-.017-.019-.016-.031a.366.366,0,0,0-.032-.05c-.284-.527,2.43-2.063,3.07-1.618A2.2,2.2,0,0,1,2291.441,1004.532Z" transform="translate(-2285.202 -1002.572)" fill="#37a3a5"/>
                <path id="Trazado_132512" data-name="Trazado 132512" d="M2278.583,1002.98l4.712-2.518a1.254,1.254,0,0,0,2.007-1.044l-1,.522-.523-1.006.986-.513a1.252,1.252,0,0,0-1.972,1.067l-4.712,2.518a1.254,1.254,0,0,0-2.007,1.043l1-.522.523,1.006-.986.513a1.252,1.252,0,0,0,1.972-1.067Z" transform="translate(-2276.07 -998.194)" fill="#595959"/>
                <path id="Trazado_132513" data-name="Trazado 132513" d="M2288.611,1006.454s.421.659,1.8-.146,1.412-1.368,1.178-1.652S2287.854,1005.693,2288.611,1006.454Z" transform="translate(-2285.695 -1003.166)" fill="#37a3a5"/>
                <path id="Trazado_132514" data-name="Trazado 132514" d="M2289.892,1010.287c-.567.02-1.576-.173-1.858-.674-.344-.613,1.16-1.619,1.6-1.835.508.135.147.836-.322,1.079,1.044-.111,1.937.158,1.76.576A1.382,1.382,0,0,1,2289.892,1010.287Z" transform="translate(-2285.292 -1005.613)" fill="#37a3a5"/>
                <path id="Trazado_132515" data-name="Trazado 132515" d="M2291.409,1008.9l-.012,0a3.063,3.063,0,0,0-1.412-.122h-.005l-.007-.059h0c.023,0,.195-.048.41-.388a.55.55,0,0,0,.122-.432.339.339,0,0,0-.209-.195,4.806,4.806,0,0,0-1.4,1.109.03.03,0,1,1-.046-.038,4.875,4.875,0,0,1,1.435-1.131l.012-.006.012.005a.4.4,0,0,1,.255.237.6.6,0,0,1-.128.482,1.218,1.218,0,0,1-.294.338,2.806,2.806,0,0,1,1.279.145.03.03,0,0,1-.012.057Z" transform="translate(-2285.958 -1005.501)" fill="#00b8af"/>
              </g>
              <path id="Trazado_132516" data-name="Trazado 132516" d="M2259.628,1111.369l-16.659,3.7s-.943-3.924-1.636-8.056a12.643,12.643,0,0,0,11.486,1.772,8.989,8.989,0,0,0,5.085-4.522C2258.891,1107.962,2259.628,1111.369,2259.628,1111.369Z" transform="translate(-2232.035 -1080.305)" fill="#0f1e33"/>
            </g>
          </g>
        </g>
      </g>
    </g>
    <line id="Línea_1692" data-name="Línea 1692" x2="53.181" transform="translate(243.123 1309.833)" fill="none" stroke="#37a3a5" stroke-linecap="round" stroke-miterlimit="10" stroke-width="0.806"/>
  </g>
</svg>
