<svg xmlns="http://www.w3.org/2000/svg" xmlns:xlink="http://www.w3.org/1999/xlink" width="269.077" height="222.603" viewBox="0 0 269.077 222.603">
  <defs>
    <linearGradient id="linear-gradient" x1="0.5" x2="0.5" y2="1" gradientUnits="objectBoundingBox">
      <stop offset="0" stop-color="#fff"/>
      <stop offset="1" stop-color="#d2e6ee"/>
    </linearGradient>
    <clipPath id="clip-path">
      <path id="Trazado_132517" data-name="Trazado 132517" d="M2280.181,1041.654,2266.825,991.9l-43.1-.136-21.8,26-6.828,17.07,14.444,34.663,9.5-5.153a31.192,31.192,0,0,0,17.983,5.673c15.08,0,26.087-9.689,29.079-23.879Z" transform="translate(-2195.098 -991.76)" fill="none"/>
    </clipPath>
    <clipPath id="clip-path-2">
      <path id="Trazado_132497" data-name="Trazado 132497" d="M2241.454,1051.456s2.353-4.424,12.3-6.564,12.61.016,13.858.988c1.183-.767,1.249-4.574-.578-7.252-3.086-4.524-27.459-.8-27.971,6.118C2239.086,1048.279,2240.094,1050.163,2241.454,1051.456Z" transform="translate(-2239.062 -1036.647)" fill="#3569b3"/>
    </clipPath>
  </defs>
  <g id="thift" transform="translate(-24.389 -1.123)">
    <g id="data_protection" data-name="data protection">
      <g id="Grupo_62014" data-name="Grupo 62014" transform="translate(24.389 129.894)">
        <g id="Grupo_62012" data-name="Grupo 62012" transform="translate(0 25.85)">
          <path id="Trazado_132455" data-name="Trazado 132455" d="M2159.754,1282.7a20.947,20.947,0,0,0-2.465,7.75l2.286.26a18.843,18.843,0,0,0,.626,7.358l-2.2.641a20.988,20.988,0,0,0,3.734,7.224l.4-.316,1.4-1.113a18.665,18.665,0,0,0,5.647,4.753l-1.108,2.018a20.77,20.77,0,0,0,7.754,2.458l.259-2.285a18.7,18.7,0,0,0,7.354-.618l.641,2.2a21.039,21.039,0,0,0,7.228-3.741l-.008,0-.409-.523-1.013-1.273a18.613,18.613,0,0,0,4.749-5.64l2.019,1.108a20.8,20.8,0,0,0,2.46-7.762l-2.284-.26a18.664,18.664,0,0,0-.622-7.346l2.2-.641a21.044,21.044,0,0,0-3.74-7.228l-1.8,1.429a18.662,18.662,0,0,0-5.64-4.749l1.107-2.018a20.8,20.8,0,0,0-7.762-2.462l-.259,2.285a18.688,18.688,0,0,0-7.346.622l-.641-2.2a20.9,20.9,0,0,0-7.229,3.741l.011.016.942,1.184.477.6a18.666,18.666,0,0,0-4.75,5.64Zm9.533,5.236a10.173,10.173,0,1,1,4.013,13.815A10.167,10.167,0,0,1,2169.287,1287.939Z" transform="translate(-2157.289 -1271.927)" fill="#37a3a5"/>
        </g>
        <g id="Grupo_62013" data-name="Grupo 62013" transform="translate(33.01)">
          <path id="Trazado_132456" data-name="Trazado 132456" d="M2220.9,1228.159a11.623,11.623,0,0,0-2.68,3.639l1.156.545a10.478,10.478,0,0,0-.983,3.985l-1.274-.056a11.651,11.651,0,0,0,.676,4.469l.268-.095.934-.337a10.382,10.382,0,0,0,2.125,3.51l-.943.864a11.539,11.539,0,0,0,3.643,2.678l.545-1.157a10.414,10.414,0,0,0,3.981.987l-.055,1.273a11.7,11.7,0,0,0,4.472-.679l0,0-.122-.349-.306-.85a10.357,10.357,0,0,0,3.506-2.121l.864.943a11.542,11.542,0,0,0,2.681-3.646l-1.156-.544a10.372,10.372,0,0,0,.984-3.978l1.274.055a11.67,11.67,0,0,0-.68-4.473l-1.2.431a10.365,10.365,0,0,0-2.122-3.506l.943-.864a11.567,11.567,0,0,0-3.646-2.681l-.544,1.156a10.387,10.387,0,0,0-3.979-.984l.056-1.274a11.637,11.637,0,0,0-4.473.679l0,.01.285.792.145.4a10.378,10.378,0,0,0-3.507,2.121Zm4.083,4.456a5.654,5.654,0,1,1-.353,7.988A5.651,5.651,0,0,1,2224.979,1232.615Z" transform="translate(-2217.102 -1225.087)" fill="none" stroke="#12263f" stroke-miterlimit="10" stroke-width="0.582"/>
        </g>
      </g>
      <path id="Trazado_132457" data-name="Trazado 132457" d="M2438.061,1392.733H2188.11a1.462,1.462,0,0,1-1.462-1.463h0a1.462,1.462,0,0,1,1.462-1.462h249.95a1.462,1.462,0,0,1,1.462,1.462h0A1.462,1.462,0,0,1,2438.061,1392.733Z" transform="translate(-2146.056 -1169.007)"/>
      <rect id="Rectángulo_29957" data-name="Rectángulo 29957" width="198.362" height="126.595" rx="8.349" transform="translate(68.473 87.111)" fill="url(#linear-gradient)"/>
      <rect id="Rectángulo_29958" data-name="Rectángulo 29958" width="124.885" height="196.651" rx="2" transform="translate(265.98 87.966) rotate(90)" fill="#00223d"/>
      <g id="Grupo_62015" data-name="Grupo 62015" transform="translate(75.173 92.229)">
        <rect id="Rectángulo_29959" data-name="Rectángulo 29959" width="185.163" height="115.771" fill="url(#linear-gradient)"/>
      </g>
      <path id="Trazado_132458" data-name="Trazado 132458" d="M2436,1376.951v3.083a3.572,3.572,0,0,1-.028.465,4.01,4.01,0,0,1-3.984,3.547H2211.96a4.009,4.009,0,0,1-3.983-3.547,3.661,3.661,0,0,1-.027-.465v-3.083Z" transform="translate(-2155.602 -1163.246)" fill="#00223d"/>
      <path id="Trazado_132459" data-name="Trazado 132459" d="M2436,1383.38a4.011,4.011,0,0,1-3.984,3.548H2211.983a4.009,4.009,0,0,1-3.983-3.548Z" transform="translate(-2155.624 -1166.126)" fill="#21587b"/>
      <g id="Grupo_62021" data-name="Grupo 62021" transform="translate(158.443 41.045)">
        <g id="Grupo_62019" data-name="Grupo 62019">
          <g id="Grupo_62018" data-name="Grupo 62018">
            <g id="Grupo_62017" data-name="Grupo 62017">
              <g id="Grupo_62016" data-name="Grupo 62016" transform="translate(1.391 2.039)">
                <path id="Trazado_132460" data-name="Trazado 132460" d="M2452.729,1067.88c-.028-.03-.058-.058-.084-.089-11.561,12.383-30.006,22.531-49.746,26.854-.005,1.318-.039,8.622-.189,42.287-.2,44.908,42.539,66.854,49.174,70.221C2432.391,1128.245,2447.662,1080.519,2452.729,1067.88Z" transform="translate(-2402.709 -1067.791)" fill="#37a3a5"/>
                <path id="Trazado_132461" data-name="Trazado 132461" d="M2484.831,1067.951c-5.067,12.64-20.338,60.366-.844,139.274,6.428-2.959,49.707-24.87,49.908-69.778.15-33.665.183-40.969.189-42.287C2514.431,1090.671,2496.284,1080.4,2484.831,1067.951Z" transform="translate(-2434.811 -1067.863)" fill="#37a3a5"/>
              </g>
              <path id="Trazado_132462" data-name="Trazado 132462" d="M2450.725,1207.044l-.6-.3a108.334,108.334,0,0,1-27.505-19.791c-14.97-15.01-22.515-32.4-22.429-51.677l.069-15.614c.091-20.465.114-25.589.119-26.672l0-1.115,1.09-.239c19.156-4.2,37.482-14.082,49.024-26.445l1.016-1.089,1.111,1.185c11.461,12.453,29.606,22.47,48.537,26.794l1.089.248-.006,1.116c-.007,1.319-.039,8.623-.19,42.287-.208,46.451-45.548,68.656-50.717,71.036ZM2403.156,1094.1c-.011,2.433-.04,8.933-.114,25.564l-.07,15.614c-.176,39.443,32.883,60.968,47.809,68.665,7.2-3.438,48.3-24.96,48.49-68.235.126-28.482.17-38.1.184-41.179-18.564-4.455-36.311-14.223-47.949-26.376C2439.781,1080.183,2421.894,1089.788,2403.156,1094.1Z" transform="translate(-2400.189 -1064.097)" fill="#00223d"/>
            </g>
            <path id="Trazado_132463" data-name="Trazado 132463" d="M2456.994,1206.73l-.768-.4a94.319,94.319,0,0,1-22.386-16.371c-13.268-13.2-19.958-28.461-19.883-45.348l.166-37.178,1.25-.323c15.97-4.121,30.539-11.685,41.022-21.3l1.18-1.085,1.133,1.133-1.09,1.267,1.139-1.223c10.392,9.674,24.861,17.341,40.739,21.587l1.246.332-.167,37.181c-.073,16.885-6.9,32.081-20.287,45.169a94.944,94.944,0,0,1-21.9,15.84Zm-39.539-96.712-.155,34.61c-.071,15.958,6.287,30.413,18.9,42.962A91.062,91.062,0,0,0,2457,1202.961a91.58,91.58,0,0,0,20.944-15.184c12.726-12.438,19.212-26.835,19.283-42.794l.155-34.606c-15.392-4.306-29.452-11.74-39.87-21.082C2447.017,1098.54,2432.893,1105.849,2417.455,1110.018Zm40.15-22.891.007-.009Z" transform="translate(-2406.357 -1073.34)" fill="url(#linear-gradient)"/>
          </g>
        </g>
        <g id="Grupo_62020" data-name="Grupo 62020" transform="translate(31.238 44.471)">
          <path id="Trazado_132464" data-name="Trazado 132464" d="M2456.79,1182.031v29.477c0,3.281,40.076,3.281,40.076,0v-29.477Zm22.066,15.653v8.355a2.027,2.027,0,1,1-4.054,0v-8.374a4.93,4.93,0,1,1,4.054.019Z" transform="translate(-2456.79 -1161.416)" fill="url(#linear-gradient)"/>
          <path id="Trazado_132465" data-name="Trazado 132465" d="M2496.209,1163.191h-4.056v-1.985a12.472,12.472,0,1,0-24.945,0v1.985h-4.057v-1.985a16.529,16.529,0,1,1,33.057,0Z" transform="translate(-2459.641 -1144.677)" fill="url(#linear-gradient)"/>
        </g>
      </g>
      <g id="Grupo_62030" data-name="Grupo 62030" transform="translate(93.055 116.578)">
        <g id="Grupo_62026" data-name="Grupo 62026" transform="translate(0 22.001)">
          <g id="Grupo_62023" data-name="Grupo 62023" transform="translate(0 14.448)">
            <rect id="Rectángulo_29960" data-name="Rectángulo 29960" width="55.097" height="10.89" fill="#fff"/>
            <g id="Grupo_62022" data-name="Grupo 62022" transform="translate(8.636 3.441)">
              <circle id="Elipse_4137" data-name="Elipse 4137" cx="2.378" cy="2.378" r="2.378" transform="translate(0 0)" fill="#00223d"/>
              <circle id="Elipse_4138" data-name="Elipse 4138" cx="2.378" cy="2.378" r="2.378" transform="translate(8.154 0)" fill="#00223d"/>
              <circle id="Elipse_4139" data-name="Elipse 4139" cx="2.378" cy="2.378" r="2.378" transform="translate(16.308 0)" fill="#00223d"/>
              <path id="Trazado_132466" data-name="Trazado 132466" d="M2346.438,1275.618a2.378,2.378,0,1,1-2.378-2.379A2.378,2.378,0,0,1,2346.438,1275.618Z" transform="translate(-2317.219 -1273.239)" fill="#00223d"/>
              <circle id="Elipse_4140" data-name="Elipse 4140" cx="2.378" cy="2.378" r="2.378" transform="translate(32.617 0)" fill="#00223d"/>
            </g>
          </g>
          <g id="Grupo_62025" data-name="Grupo 62025">
            <rect id="Rectángulo_29961" data-name="Rectángulo 29961" width="55.097" height="10.89" fill="#fff"/>
            <g id="Grupo_62024" data-name="Grupo 62024" transform="translate(8.636 3.441)">
              <circle id="Elipse_4141" data-name="Elipse 4141" cx="2.378" cy="2.378" r="2.378" fill="#00223d"/>
              <circle id="Elipse_4142" data-name="Elipse 4142" cx="2.378" cy="2.378" r="2.378" transform="translate(8.154)" fill="#00223d"/>
              <circle id="Elipse_4143" data-name="Elipse 4143" cx="2.378" cy="2.378" r="2.378" transform="translate(16.308)" fill="#00223d"/>
              <path id="Trazado_132467" data-name="Trazado 132467" d="M2346.438,1249.439a2.378,2.378,0,1,1-2.378-2.378A2.378,2.378,0,0,1,2346.438,1249.439Z" transform="translate(-2317.219 -1247.061)" fill="#00223d"/>
              <circle id="Elipse_4144" data-name="Elipse 4144" cx="2.378" cy="2.378" r="2.378" transform="translate(32.617)" fill="#00223d"/>
            </g>
          </g>
          <rect id="Rectángulo_29962" data-name="Rectángulo 29962" width="22.317" height="7.571" rx="1" transform="translate(16.165 33.076)" fill="#00223d"/>
        </g>
        <g id="Grupo_62029" data-name="Grupo 62029" transform="translate(18.83)">
          <circle id="Elipse_4145" data-name="Elipse 4145" cx="8.863" cy="8.863" r="8.863" fill="#fff"/>
          <g id="Grupo_62028" data-name="Grupo 62028" transform="translate(3.935 2.915)">
            <g id="Grupo_62027" data-name="Grupo 62027" transform="translate(2.144)">
              <path id="Trazado_132468" data-name="Trazado 132468" d="M2329.641,1211.832a2.8,2.8,0,0,0,2.175-1.065,2.734,2.734,0,0,0,.6-1.73,2.785,2.785,0,1,0-5.57,0,2.725,2.725,0,0,0,.6,1.73A2.808,2.808,0,0,0,2329.641,1211.832Z" transform="translate(-2326.845 -1206.241)" fill="#00223d"/>
            </g>
            <path id="Trazado_132469" data-name="Trazado 132469" d="M2332.812,1221.981c0,1.764-9.852,1.764-9.852,0l0-2.056c.39-2.81,9.048-2.929,9.851,0Z" transform="translate(-2322.959 -1211.409)" fill="#00223d"/>
          </g>
        </g>
      </g>
    </g>
    <g id="Grupo_62043" data-name="Grupo 62043" transform="translate(45.255 1.123)">
      <g id="Grupo_62042" data-name="Grupo 62042" clip-path="url(#clip-path)">
        <ellipse id="Elipse_4146" data-name="Elipse 4146" cx="27.721" cy="28.029" rx="27.721" ry="28.029" transform="translate(15.383 23.773)" fill="#00223d"/>
        <g id="Grupo_62041" data-name="Grupo 62041" transform="translate(2.802 3.551)">
          <path id="Trazado_132470" data-name="Trazado 132470" d="M2284.6,1102.223l-40.7,9.052s-2.3-9.587-4-19.682c-1.59-9.492-2.638-19.433-.723-22.276,3.953-5.859,28.439-11.6,33.3-6.106,2.438,2.757,5.482,12.569,7.908,21.664C2282.8,1093.9,2284.6,1102.223,2284.6,1102.223Z" transform="translate(-2217.193 -1026.336)" fill="#21587b"/>
          <path id="Trazado_132471" data-name="Trazado 132471" d="M2272.962,1060.429c.9,7.524-16,19.363-16,19.363s-19.118-9.365-20.79-13.2c-3.637-8.3,5.741-12.834,15.168-14.783S2271.824,1050.949,2272.962,1060.429Z" transform="translate(-2215.945 -1021.857)" fill="#21587b"/>
          <path id="Trazado_132472" data-name="Trazado 132472" d="M2254.648,1055.107c-5.774,1.252-11.941,5.66-10.189,9.359s15.4,12.19,15.4,12.19,12.128-11.21,11.444-17.044S2260.423,1053.856,2254.648,1055.107Z" transform="translate(-2219.884 -1023.39)" style="mix-blend-mode: soft-light;isolation: isolate"/>
          <g id="Grupo_62035" data-name="Grupo 62035" transform="translate(21.461 14.565)">
            <g id="Grupo_62031" data-name="Grupo 62031" transform="translate(1.995 2.952)">
              <path id="Trazado_132473" data-name="Trazado 132473" d="M2269.314,1044.462c2.071,21.269-21.95,23.692-26.306,2.834C2239.337,1025.88,2267.412,1023.516,2269.314,1044.462Z" transform="translate(-2242.677 -1029.934)" fill="#f7a58e"/>
            </g>
            <g id="Grupo_62034" data-name="Grupo 62034">
              <path id="Trazado_132474" data-name="Trazado 132474" d="M2270.034,1065.827a2.666,2.666,0,0,1-.448-.035.181.181,0,1,1,.065-.356c.013,0,1.269.22,1.785-.62.428-.7-.665-2.335-1.123-2.907a.181.181,0,0,1,.282-.226c.185.231,1.787,2.284,1.149,3.322A1.929,1.929,0,0,1,2270.034,1065.827Z" transform="translate(-2252.674 -1041.179)" fill="#b55b41"/>
              <path id="Trazado_132475" data-name="Trazado 132475" d="M2258,1064.162c.136.661-.075,1.265-.471,1.346s-.83-.387-.967-1.048.075-1.264.471-1.347S2257.862,1063.5,2258,1064.162Z" transform="translate(-2246.885 -1041.846)"/>
              <path id="Trazado_132476" data-name="Trazado 132476" d="M2280.621,1059.453c.136.661-.074,1.264-.471,1.346s-.83-.388-.967-1.049.075-1.264.472-1.346S2280.483,1058.792,2280.621,1059.453Z" transform="translate(-2257.022 -1039.736)"/>
              <path id="Trazado_132477" data-name="Trazado 132477" d="M2245.253,1066.109a2.221,2.221,0,1,1-2.625-1.725A2.221,2.221,0,0,1,2245.253,1066.109Z" transform="translate(-2239.867 -1042.399)" fill="#f7a58e"/>
              <path id="Trazado_132478" data-name="Trazado 132478" d="M2291.914,1056.37a2.221,2.221,0,1,1-2.625-1.724A2.221,2.221,0,0,1,2291.914,1056.37Z" transform="translate(-2260.776 -1038.035)" fill="#f7a58e"/>
              <path id="Trazado_132479" data-name="Trazado 132479" d="M2243.956,1050.624c-.785-3.289-1.485-9.423,2.162-9.915,4.646-.625,14.4-2.474,17.436-3.186,2.469-.579,4.408,4.685,4.961,7.99,0,0,.267-5-.348-7.343-.424-1.617-3.133-12.224-16.085-9.545s-10.882,14.03-10.37,16.446A25.343,25.343,0,0,0,2243.956,1050.624Z" transform="translate(-2240.055 -1026.202)" fill="#bd5f45"/>
              <path id="Trazado_132480" data-name="Trazado 132480" d="M2265.275,1078.505c-.785-1.073,1.238-2.8,3.482-3.191,2.268-.4,4.809.586,4.161,1.938s-2.182-.015-3.886.429C2267.552,1078.066,2266.4,1080.041,2265.275,1078.505Z" transform="translate(-2250.731 -1047.278)" fill="#80412e"/>
              <path id="Trazado_132481" data-name="Trazado 132481" d="M2274,1056.021c.922-1.8,1.511-3.182,3.052-3.48a1.866,1.866,0,0,1,1.854.415,2.532,2.532,0,0,0-1.925.683C2276.106,1054.293,2275.654,1055.762,2274,1056.021Z" transform="translate(-2254.719 -1037.084)" fill="#bd5f45"/>
              <path id="Trazado_132482" data-name="Trazado 132482" d="M2252.936,1059.37a20.245,20.245,0,0,0,5.849.988,4.12,4.12,0,0,1-3,.692A3.091,3.091,0,0,1,2252.936,1059.37Z" transform="translate(-2245.279 -1040.172)" fill="#bd5f45"/>
              <path id="Trazado_132483" data-name="Trazado 132483" d="M2264.02,1059.674a1,1,0,0,1,.708.811.93.93,0,0,1-.454.865,1.744,1.744,0,0,0,.268-.8A1.609,1.609,0,0,0,2264.02,1059.674Z" transform="translate(-2250.246 -1040.309)" fill="#b55b41"/>
              <path id="Trazado_132484" data-name="Trazado 132484" d="M2239.99,1040.875s-1.392-14.012,11.222-15.956c10.36-2.142,15.084,6.577,16.057,9.785C2250.367,1034.967,2239.99,1040.875,2239.99,1040.875Z" transform="translate(-2239.458 -1024.585)" fill="#00223d"/>
              <path id="Trazado_132485" data-name="Trazado 132485" d="M2269.27,1052.824s2.13,10.16-4.79,9.7a.085.085,0,0,1,0,.015,21.861,21.861,0,0,0-11.09,2.492c0-.012-.006-.024-.011-.036-5.141,3.089-8.32-6.169-8.32-6.169-.528,5.586,3.573,9.217,5.353,10.517,3.8,3.809,10.693,3.074,10.693,3.074s4.433-.9,7.365-6.365A14.586,14.586,0,0,0,2269.27,1052.824Zm-8.643,16.761c-3.021.625-5.847-.015-6.128-1.369s1.842-3.448,4.852-4.071,5.8.446,6.079,1.811S2263.647,1068.961,2260.627,1069.585Z" transform="translate(-2241.729 -1037.239)" fill="#bd5f45"/>
              <g id="Grupo_62033" data-name="Grupo 62033" transform="translate(0 6.657)">
                <path id="Trazado_132486" data-name="Trazado 132486" d="M2241.454,1051.456s2.353-4.424,12.3-6.564,12.61.016,13.858.988c1.183-.767,1.249-4.574-.578-7.252-3.086-4.524-27.459-.8-27.971,6.118C2239.086,1048.279,2240.094,1050.163,2241.454,1051.456Z" transform="translate(-2239.062 -1036.647)" fill="#37a3a5"/>
                <g id="Grupo_62032" data-name="Grupo 62032" clip-path="url(#clip-path-2)">
                  <path id="Trazado_132487" data-name="Trazado 132487" d="M2244.713,1054.306a4.073,4.073,0,0,1-.844-.961c-.248-.34-.484-.69-.7-1.049a12.478,12.478,0,0,1-1.079-2.222,9.377,9.377,0,0,1-.48-4.865,7.581,7.581,0,0,1,.953-2.557.171.171,0,0,0-.3-.173,8.383,8.383,0,0,0-1.107,4.94,11.327,11.327,0,0,0,1.6,4.862c.251.426.525.839.815,1.237a4.6,4.6,0,0,0,.969,1.085c.179.128.352-.17.172-.3Z" transform="translate(-2239.99 -1039.224)" fill="#12263f" style="mix-blend-mode: soft-light;isolation: isolate"/>
                  <path id="Trazado_132488" data-name="Trazado 132488" d="M2249.373,1051.3a4,4,0,0,1-1.621-1.849,11.185,11.185,0,0,1-.917-2.423,11.878,11.878,0,0,1-.136-5.2,11.369,11.369,0,0,1,.944-2.8c.1-.2-.2-.371-.3-.173a12.1,12.1,0,0,0,0,10.561,4.536,4.536,0,0,0,1.853,2.184c.2.1.37-.2.172-.3Z" transform="translate(-2242.231 -1037.596)" fill="#12263f" style="mix-blend-mode: soft-light;isolation: isolate"/>
                  <path id="Trazado_132489" data-name="Trazado 132489" d="M2253.6,1048.8a15.171,15.171,0,0,1-1.535-8.8,14.555,14.555,0,0,1,.548-2.509c.065-.212-.265-.3-.331-.091a15.494,15.494,0,0,0,.031,9.17,15.17,15.17,0,0,0,.991,2.408c.1.2.4.023.3-.173Z" transform="translate(-2244.683 -1036.929)" fill="#12263f" style="mix-blend-mode: soft-light;isolation: isolate"/>
                  <path id="Trazado_132490" data-name="Trazado 132490" d="M2258.511,1048.111a17.393,17.393,0,0,1-1.352-8.465,17.027,17.027,0,0,1,.4-2.42c.052-.214-.279-.305-.331-.091a17.609,17.609,0,0,0,.987,11.15c.088.2.384.028.3-.174Z" transform="translate(-2246.987 -1036.811)" fill="#12263f" style="mix-blend-mode: soft-light;isolation: isolate"/>
                  <path id="Trazado_132491" data-name="Trazado 132491" d="M2262.85,1045.551l-1.162-8.208q-.166-1.168-.331-2.336c-.031-.217-.361-.125-.331.091l1.162,8.209q.165,1.168.33,2.336c.031.217.361.124.331-.092Z" transform="translate(-2248.904 -1035.856)" fill="#12263f" style="mix-blend-mode: soft-light;isolation: isolate"/>
                  <path id="Trazado_132492" data-name="Trazado 132492" d="M2268.548,1044.541a35.715,35.715,0,0,0-.915-8.18q-.265-1.143-.605-2.268a.171.171,0,0,0-.33.091,35.242,35.242,0,0,1,1.442,8.041q.071,1.156.065,2.316a.172.172,0,0,0,.343,0Z" transform="translate(-2251.442 -1035.449)" fill="#12263f" style="mix-blend-mode: soft-light;isolation: isolate"/>
                  <path id="Trazado_132493" data-name="Trazado 132493" d="M2273.543,1043.248a24.613,24.613,0,0,0-.791-9.015,2.6,2.6,0,0,0-1-1.689.172.172,0,0,0-.173.3,2.244,2.244,0,0,1,.836,1.455q.294,1.046.495,2.115a24.258,24.258,0,0,1,.291,6.837c-.021.219.322.218.343,0Z" transform="translate(-2253.595 -1034.798)" fill="#12263f" style="mix-blend-mode: soft-light;isolation: isolate"/>
                  <path id="Trazado_132494" data-name="Trazado 132494" d="M2279.529,1044.03a21.737,21.737,0,0,0,.177-4.327c-.043-.724-.125-1.446-.239-2.162a11.4,11.4,0,0,0-.425-1.826,5.227,5.227,0,0,0-.994-1.788c-.146-.166-.388.077-.242.242a6.471,6.471,0,0,1,1.294,3.249,21.191,21.191,0,0,1,.295,4.167,20.97,20.97,0,0,1-.2,2.353c-.03.216.3.309.331.091Z" transform="translate(-2256.404 -1035.403)" fill="#12263f" style="mix-blend-mode: soft-light;isolation: isolate"/>
                  <path id="Trazado_132495" data-name="Trazado 132495" d="M2284,1044.475c.029-2.748.038-5.616-1.207-8.139a8.019,8.019,0,0,0-1.181-1.764c-.146-.165-.389.078-.242.242,1.748,1.972,2.205,4.688,2.28,7.236.024.808.016,1.616.007,2.424a.172.172,0,0,0,.344,0Z" transform="translate(-2258.002 -1035.692)" fill="#12263f" style="mix-blend-mode: soft-light;isolation: isolate"/>
                  <path id="Trazado_132496" data-name="Trazado 132496" d="M2287.765,1043.68a17.276,17.276,0,0,0-.872-9.863,7.055,7.055,0,0,0-1.331-2.372c-.154-.158-.4.085-.242.242a6.35,6.35,0,0,1,1.179,2.064,16.965,16.965,0,0,1,1.266,7.109,16.667,16.667,0,0,1-.331,2.729c-.045.215.287.308.331.091Z" transform="translate(-2259.769 -1034.293)" fill="#12263f" style="mix-blend-mode: soft-light;isolation: isolate"/>
                </g>
              </g>
            </g>
          </g>
          <g id="Grupo_62038" data-name="Grupo 62038" transform="translate(0 16.581)">
            <g id="Grupo_62036" data-name="Grupo 62036" transform="translate(17.39 0.032)">
              <path id="Trazado_132498" data-name="Trazado 132498" d="M2234.444,1036.671s.7-4.387,1.426-5.175c.632-.384,1.408.577.876,2.434S2235.538,1037,2234.444,1036.671Z" transform="translate(-2232.921 -1029.693)" fill="#21587b"/>
              <path id="Trazado_132499" data-name="Trazado 132499" d="M2234.111,1035.65s1.777-5.1,5.348-7.354c.791.069,1.19.685.659,1.494a25.012,25.012,0,0,1-1.864,2.249l-1.189,5.136Z" transform="translate(-2232.772 -1028.296)" fill="#21587b"/>
              <path id="Trazado_132500" data-name="Trazado 132500" d="M2231.88,1040.76s2.048-5.463,3.509-6.55,2.607.636,2.864,1.876.986,5.948-.866,8.427S2230.653,1045.744,2231.88,1040.76Z" transform="translate(-2231.685 -1030.791)" fill="#21587b"/>
              <path id="Trazado_132501" data-name="Trazado 132501" d="M2237.457,1032.761s2.521-3.068,5.851-2.958a1.067,1.067,0,0,1-.026,1.716c-1,.943-2.808.32-3.1,3.225C2239.961,1036.044,2236.081,1035.478,2237.457,1032.761Z" transform="translate(-2234.139 -1028.97)" fill="#21587b"/>
            </g>
            <path id="Trazado_132502" data-name="Trazado 132502" d="M2220.924,1060.465l-6.261-1c3.18-.58,3.6-3.4,7.345-6.961,5.319-4.373-2.874-12.917-6.328-9.972,0,0-16.815,12.644-15.424,21.964,1.025,6.86,16.944,14.788,23.568,16.552C2223.346,1078.916,2220.869,1060.736,2220.924,1060.465Z" transform="translate(-2200.175 -1034.371)" fill="#21587b"/>
            <g id="Grupo_62037" data-name="Grupo 62037" transform="translate(19.331)">
              <path id="Trazado_132503" data-name="Trazado 132503" d="M2235.275,1034.1a.078.078,0,0,1-.033-.008.072.072,0,0,1-.032-.1,14.5,14.5,0,0,1,4.658-5.752.073.073,0,1,1,.076.125,14.338,14.338,0,0,0-4.6,5.692A.073.073,0,0,1,2235.275,1034.1Z" transform="translate(-2235.202 -1028.238)" fill="#21587b"/>
              <path id="Trazado_132504" data-name="Trazado 132504" d="M2236.849,1033.178a.07.07,0,0,1-.043-.014.073.073,0,0,1-.015-.1,7.8,7.8,0,0,1,6.335-3.369.073.073,0,0,1-.01.145,7.663,7.663,0,0,0-6.208,3.311A.07.07,0,0,1,2236.849,1033.178Z" transform="translate(-2235.907 -1028.888)" fill="#21587b"/>
            </g>
            <path id="Trazado_132505" data-name="Trazado 132505" d="M2242.125,1042.426a.07.07,0,0,1-.052-.022.072.072,0,0,1,0-.1,5.586,5.586,0,0,0,1.16-3.8,18.628,18.628,0,0,0-.614-4.944c-.018-.03-.19-.432.873-1.131a4.493,4.493,0,0,1,.54-.27c.649-.3,1.629-.742,1.769-1.391a1.131,1.131,0,0,0-.359-.966.073.073,0,0,1,.006-.1.072.072,0,0,1,.1.007,1.264,1.264,0,0,1,.393,1.093c-.154.72-1.175,1.186-1.851,1.493a4.542,4.542,0,0,0-.52.259c-.951.624-.82.954-.818.957a18.7,18.7,0,0,1,.624,5c-.038,2.747-1.157,3.861-1.206,3.907A.069.069,0,0,1,2242.125,1042.426Z" transform="translate(-2218.941 -1028.88)" fill="#21587b"/>
          </g>
          <g id="Grupo_62039" data-name="Grupo 62039" transform="translate(53.846 9.129)">
            <path id="Trazado_132506" data-name="Trazado 132506" d="M2298.645,1042.017l7.535-7.6c-2.1-2.169-4.361-6.807-7.459-10.944-4.056-5.413,5.592-11.038,8.751-7.781,0,0,14.536,13.991,12.267,23.137-1.669,6.732-10.215,18.979-15.595,23.224C2303.74,1059.914,2298.8,1042.244,2298.645,1042.017Z" transform="translate(-2297.742 -1014.735)" fill="#21587b"/>
          </g>
          <path id="Trazado_132507" data-name="Trazado 132507" d="M2279.6,1080.413a.171.171,0,0,1-.112-.3l.662-.576c3.623-3.147,9.1-7.9,11.031-10.924,2.786-4.355.826-7.011-.345-8.6l-.127-.173a.171.171,0,1,1,.276-.2l.126.171c1.143,1.549,3.271,4.433.358,8.987-1.96,3.063-7.24,7.649-11.095,11l-.662.576A.175.175,0,0,1,2279.6,1080.413Z" transform="translate(-2235.689 -1025.697)" fill="#12263f" style="mix-blend-mode: soft-light;isolation: isolate"/>
          <path id="Trazado_132508" data-name="Trazado 132508" d="M2253.5,1086.207a.167.167,0,0,1-.1-.032,35.347,35.347,0,0,0-6.317-3.239c-6.2-2.705-13.218-5.771-11.727-14.084a.171.171,0,0,1,.337.06c-1.444,8.047,5.447,11.056,11.527,13.71a35.491,35.491,0,0,1,6.38,3.275.171.171,0,0,1-.1.311Z" transform="translate(-2215.848 -1029.793)" fill="#12263f" style="mix-blend-mode: soft-light;isolation: isolate"/>
          <path id="Trazado_132509" data-name="Trazado 132509" d="M2305.153,1014.946a2.463,2.463,0,0,0-2.008-2c-.967-.144-5.116,2.243-5.969,4.52-.293.783.5,1.7,1,2.294C2299.443,1021.281,2305.09,1016.747,2305.153,1014.946Z" transform="translate(-2243.614 -1004.801)" fill="#1e3d66"/>
          <g id="Grupo_62040" data-name="Grupo 62040" transform="translate(41.885)">
            <path id="Trazado_132510" data-name="Trazado 132510" d="M2302.447,1012.342c.377,1-3.891,4.634-4.53,3.615l-2.073-3.53,3.806-3.038Z" transform="translate(-2284.931 -1003.21)" fill="#37a3a5"/>
            <path id="Trazado_132511" data-name="Trazado 132511" d="M2296.6,1005.517a11.036,11.036,0,0,1,.706,1.523,5.065,5.065,0,0,1,.381,1.557c-.3,2.063-2.836,3.662-5.051,3.434a3.78,3.78,0,0,1-1.5-.6,12.243,12.243,0,0,1-2.5-2.468l-.026-.031c-.255-.328-.441-.577-.576-.734-.026-.032-.041-.047-.038-.077a.87.87,0,0,0-.079-.123c-.695-1.287,5.937-5.04,7.5-3.952A5.382,5.382,0,0,1,2296.6,1005.517Z" transform="translate(-2281.357 -1000.728)" fill="#37a3a5"/>
            <path id="Trazado_132512" data-name="Trazado 132512" d="M2282.209,1009.886l11.511-6.152a3.063,3.063,0,0,0,4.9-2.55l-2.452,1.275-1.277-2.457,2.408-1.252a3.059,3.059,0,0,0-4.818,2.606l-11.511,6.151a3.063,3.063,0,0,0-4.9,2.549l2.452-1.275,1.277,2.457-2.407,1.252a3.059,3.059,0,0,0,4.818-2.606Z" transform="translate(-2276.069 -998.194)" fill="#595959"/>
            <path id="Trazado_132513" data-name="Trazado 132513" d="M2288.764,1009.105s1.029,1.609,4.409-.357,3.449-3.343,2.878-4.035S2286.916,1007.246,2288.764,1009.105Z" transform="translate(-2281.641 -1001.072)" fill="#37a3a5"/>
            <path id="Trazado_132514" data-name="Trazado 132514" d="M2292.646,1013.908c-1.385.049-3.851-.422-4.539-1.647-.84-1.5,2.833-3.956,3.906-4.484,1.24.329.359,2.043-.788,2.635,2.55-.272,4.731.386,4.3,1.407A3.375,3.375,0,0,1,2292.646,1013.908Z" transform="translate(-2281.409 -1002.489)" fill="#37a3a5"/>
            <path id="Trazado_132515" data-name="Trazado 132515" d="M2295.112,1010.723a.074.074,0,0,1-.031-.006,7.484,7.484,0,0,0-3.45-.3l-.013,0-.017-.145.01,0c.056-.011.477-.116,1-.949a1.341,1.341,0,0,0,.3-1.057.826.826,0,0,0-.512-.476,11.748,11.748,0,0,0-3.427,2.71.073.073,0,1,1-.112-.093,11.9,11.9,0,0,1,3.506-2.763l.03-.014.03.013a.983.983,0,0,1,.624.579,1.467,1.467,0,0,1-.314,1.178,2.979,2.979,0,0,1-.719.826,6.855,6.855,0,0,1,3.124.354.073.073,0,0,1-.029.139Z" transform="translate(-2281.793 -1002.424)" fill="#00b8af"/>
          </g>
          <path id="Trazado_132516" data-name="Trazado 132516" d="M2286.029,1121.615l-40.7,9.051s-2.3-9.586-4-19.681c4.8,4.066,15.641,8.166,28.06,4.33,6.58-2.035,10.815-7.7,12.422-11.047C2284.227,1113.293,2286.029,1121.615,2286.029,1121.615Z" transform="translate(-2218.619 -1045.727)" fill="#0f1e33"/>
        </g>
      </g>
    </g>
  </g>
</svg>
