<svg id="cloud" xmlns="http://www.w3.org/2000/svg" xmlns:xlink="http://www.w3.org/1999/xlink" width="293.213" height="243.271" viewBox="0 0 293.213 243.271">
  <defs>
    <linearGradient id="linear-gradient" x1="0.5" x2="0.5" y2="1" gradientUnits="objectBoundingBox">
      <stop offset="0" stop-color="#fff"/>
      <stop offset="1" stop-color="#d2e6ee"/>
    </linearGradient>
  </defs>
  <g id="Grupo_61977" data-name="Grupo 61977" transform="translate(104.312 67.026)">
    <path id="Trazado_132386" data-name="Trazado 132386" d="M1424.124,1040.842a.644.644,0,0,1-.644-.643.691.691,0,0,1,.644-.7.6.6,0,0,1,.643.594v.1A.644.644,0,0,1,1424.124,1040.842Z" transform="translate(-1423.48 -1039.502)" fill="#2e97e6"/>
    <path id="Trazado_132387" data-name="Trazado 132387" d="M1424.124,1106.063a.644.644,0,0,1-.644-.643v-.208a.644.644,0,1,1,1.287,0v.208A.644.644,0,0,1,1424.124,1106.063Zm0-5.44a.644.644,0,0,1-.644-.644v-.208a.644.644,0,1,1,1.287,0v.208A.644.644,0,0,1,1424.124,1100.623Zm0-5.441a.644.644,0,0,1-.644-.644v-.211a.644.644,0,0,1,1.287,0v.211A.644.644,0,0,1,1424.124,1095.182Zm0-5.443a.644.644,0,0,1-.644-.643v-.209a.644.644,0,1,1,1.287,0v.209A.644.644,0,0,1,1424.124,1089.739Zm0-5.44a.644.644,0,0,1-.644-.644v-.209a.644.644,0,0,1,1.287,0v.209A.644.644,0,0,1,1424.124,1084.3Zm0-5.44a.644.644,0,0,1-.644-.643v-.209a.644.644,0,0,1,1.287,0v.209A.644.644,0,0,1,1424.124,1078.859Zm0-5.443a.644.644,0,0,1-.644-.643v-.209a.644.644,0,1,1,1.287,0v.209A.644.644,0,0,1,1424.124,1073.416Zm0-5.44a.644.644,0,0,1-.644-.644v-.209a.644.644,0,0,1,1.287,0v.209A.644.644,0,0,1,1424.124,1067.976Zm0-5.441a.644.644,0,0,1-.644-.643v-.209a.644.644,0,1,1,1.287,0v.209A.644.644,0,0,1,1424.124,1062.535Zm0-5.44a.644.644,0,0,1-.644-.644v-.211a.644.644,0,1,1,1.287,0v.211A.644.644,0,0,1,1424.124,1057.095Zm0-5.443a.644.644,0,0,1-.644-.644v-.209a.644.644,0,0,1,1.287,0v.209A.644.644,0,0,1,1424.124,1051.652Z" transform="translate(-1423.48 -1044.872)" fill="#2e97e6"/>
    <path id="Trazado_132388" data-name="Trazado 132388" d="M1424.124,1172.266a.644.644,0,0,1-.644-.644.689.689,0,0,1,.644-.694.6.6,0,0,1,.643.591v.1A.644.644,0,0,1,1424.124,1172.266Z" transform="translate(-1423.48 -1105.74)" fill="#2e97e6"/>
  </g>
  <g id="Grupo_61978" data-name="Grupo 61978" transform="translate(164.782 67.247)">
    <path id="Trazado_132389" data-name="Trazado 132389" d="M1546.037,1041.285a.644.644,0,0,1-.643-.643.688.688,0,0,1,.643-.694.6.6,0,0,1,.644.591v.1A.644.644,0,0,1,1546.037,1041.285Z" transform="translate(-1545.394 -1039.948)" fill="#2e97e6"/>
    <path id="Trazado_132390" data-name="Trazado 132390" d="M1546.037,1106.5a.644.644,0,0,1-.643-.643v-.209a.643.643,0,1,1,1.287,0v.209A.644.644,0,0,1,1546.037,1106.5Zm0-5.44a.644.644,0,0,1-.643-.644v-.208a.643.643,0,1,1,1.287,0v.208A.644.644,0,0,1,1546.037,1101.064Zm0-5.44a.644.644,0,0,1-.643-.644v-.211a.643.643,0,0,1,1.287,0v.211A.644.644,0,0,1,1546.037,1095.624Zm0-5.443a.643.643,0,0,1-.643-.643v-.209a.643.643,0,1,1,1.287,0v.209A.644.644,0,0,1,1546.037,1090.18Zm0-5.44a.644.644,0,0,1-.643-.644v-.208a.643.643,0,1,1,1.287,0v.208A.644.644,0,0,1,1546.037,1084.74Zm0-5.441a.644.644,0,0,1-.643-.643v-.208a.643.643,0,0,1,1.287,0v.208A.644.644,0,0,1,1546.037,1079.3Zm0-5.443a.644.644,0,0,1-.643-.644V1073a.643.643,0,0,1,1.287,0v.208A.644.644,0,0,1,1546.037,1073.857Zm0-5.44a.644.644,0,0,1-.643-.644v-.208a.643.643,0,1,1,1.287,0v.208A.644.644,0,0,1,1546.037,1068.417Zm0-5.441a.644.644,0,0,1-.643-.643v-.208a.643.643,0,1,1,1.287,0v.208A.644.644,0,0,1,1546.037,1062.976Zm0-5.44a.644.644,0,0,1-.643-.644v-.211a.643.643,0,1,1,1.287,0v.211A.644.644,0,0,1,1546.037,1057.536Zm0-5.443a.644.644,0,0,1-.643-.644v-.209a.643.643,0,1,1,1.287,0v.209A.644.644,0,0,1,1546.037,1052.093Z" transform="translate(-1545.394 -1045.315)" fill="#2e97e6"/>
    <path id="Trazado_132391" data-name="Trazado 132391" d="M1546.037,1172.708a.644.644,0,0,1-.643-.644.689.689,0,0,1,.643-.694.6.6,0,0,1,.644.593v.1A.644.644,0,0,1,1546.037,1172.708Z" transform="translate(-1545.394 -1106.184)" fill="#2e97e6"/>
  </g>
  <g id="Grupo_61979" data-name="Grupo 61979" transform="translate(124.468 63.521)">
    <path id="Trazado_132392" data-name="Trazado 132392" d="M1464.761,1033.776a.644.644,0,0,1-.644-.644.691.691,0,0,1,.644-.7.6.6,0,0,1,.643.591v.106A.644.644,0,0,1,1464.761,1033.776Z" transform="translate(-1464.117 -1032.436)" fill="#2e97e6"/>
    <path id="Trazado_132393" data-name="Trazado 132393" d="M1464.761,1098.992a.644.644,0,0,1-.644-.644v-.208a.644.644,0,0,1,1.287,0v.208A.644.644,0,0,1,1464.761,1098.992Zm0-5.441a.644.644,0,0,1-.644-.643v-.209a.644.644,0,0,1,1.287,0v.209A.644.644,0,0,1,1464.761,1093.552Zm0-5.44a.644.644,0,0,1-.644-.644v-.211a.644.644,0,1,1,1.287,0v.211A.644.644,0,0,1,1464.761,1088.112Zm0-5.443a.644.644,0,0,1-.644-.643v-.209a.644.644,0,0,1,1.287,0v.209A.643.643,0,0,1,1464.761,1082.668Zm0-5.44a.644.644,0,0,1-.644-.643v-.209a.644.644,0,1,1,1.287,0v.209A.644.644,0,0,1,1464.761,1077.228Zm0-5.44a.644.644,0,0,1-.644-.644v-.208a.644.644,0,1,1,1.287,0v.208A.644.644,0,0,1,1464.761,1071.788Zm0-5.443a.643.643,0,0,1-.644-.643v-.209a.644.644,0,0,1,1.287,0v.209A.643.643,0,0,1,1464.761,1066.345Zm0-5.44a.644.644,0,0,1-.644-.644v-.208a.644.644,0,1,1,1.287,0v.208A.644.644,0,0,1,1464.761,1060.9Zm0-5.44a.644.644,0,0,1-.644-.644v-.208a.644.644,0,1,1,1.287,0v.208A.644.644,0,0,1,1464.761,1055.464Zm0-5.441a.644.644,0,0,1-.644-.643v-.211a.644.644,0,0,1,1.287,0v.211A.643.643,0,0,1,1464.761,1050.024Zm0-5.443a.644.644,0,0,1-.644-.644v-.208a.644.644,0,1,1,1.287,0v.208A.644.644,0,0,1,1464.761,1044.581Z" transform="translate(-1464.117 -1037.803)" fill="#2e97e6"/>
    <path id="Trazado_132394" data-name="Trazado 132394" d="M1464.761,1165.2a.644.644,0,0,1-.644-.643.689.689,0,0,1,.644-.694.6.6,0,0,1,.643.591v.1A.644.644,0,0,1,1464.761,1165.2Z" transform="translate(-1464.117 -1098.675)" fill="#2e97e6"/>
  </g>
  <g id="Grupo_61980" data-name="Grupo 61980" transform="translate(144.624 63.3)">
    <path id="Trazado_132395" data-name="Trazado 132395" d="M1505.4,1033.33a.644.644,0,0,1-.643-.644.691.691,0,0,1,.643-.7.6.6,0,0,1,.643.593v.1A.644.644,0,0,1,1505.4,1033.33Z" transform="translate(-1504.754 -1031.99)" fill="#2e97e6"/>
    <path id="Trazado_132396" data-name="Trazado 132396" d="M1505.4,1098.552a.644.644,0,0,1-.643-.644v-.209a.643.643,0,0,1,1.287,0v.209A.644.644,0,0,1,1505.4,1098.552Zm0-5.441a.644.644,0,0,1-.643-.643v-.209a.643.643,0,0,1,1.287,0v.209A.644.644,0,0,1,1505.4,1093.111Zm0-5.44a.644.644,0,0,1-.643-.644v-.211a.643.643,0,1,1,1.287,0v.211A.644.644,0,0,1,1505.4,1087.671Zm0-5.443a.644.644,0,0,1-.643-.644v-.209a.643.643,0,0,1,1.287,0v.209A.644.644,0,0,1,1505.4,1082.228Zm0-5.44a.644.644,0,0,1-.643-.644v-.209a.643.643,0,1,1,1.287,0v.209A.644.644,0,0,1,1505.4,1076.787Zm0-5.44a.644.644,0,0,1-.643-.644v-.208a.643.643,0,1,1,1.287,0v.208A.644.644,0,0,1,1505.4,1071.347Zm0-5.443a.644.644,0,0,1-.643-.643v-.209a.643.643,0,0,1,1.287,0v.209A.643.643,0,0,1,1505.4,1065.9Zm0-5.44a.644.644,0,0,1-.643-.644v-.208a.643.643,0,1,1,1.287,0v.208A.644.644,0,0,1,1505.4,1060.464Zm0-5.44a.644.644,0,0,1-.643-.644v-.208a.643.643,0,1,1,1.287,0v.208A.644.644,0,0,1,1505.4,1055.024Zm0-5.441a.644.644,0,0,1-.643-.643v-.211a.643.643,0,1,1,1.287,0v.211A.644.644,0,0,1,1505.4,1049.583Zm0-5.443a.644.644,0,0,1-.643-.644v-.208a.643.643,0,1,1,1.287,0v.208A.643.643,0,0,1,1505.4,1044.14Z" transform="translate(-1504.754 -1037.36)" fill="#2e97e6"/>
    <path id="Trazado_132397" data-name="Trazado 132397" d="M1505.4,1164.758a.644.644,0,0,1-.643-.643.691.691,0,0,1,.643-.7.6.6,0,0,1,.643.594v.1A.644.644,0,0,1,1505.4,1164.758Z" transform="translate(-1504.754 -1098.228)" fill="#2e97e6"/>
  </g>
  <g id="Grupo_61984" data-name="Grupo 61984" transform="translate(33.574 136.204)">
    <g id="Grupo_61981" data-name="Grupo 61981" transform="translate(167.559 64.627)">
      <path id="Trazado_132399" data-name="Trazado 132399" d="M1627.587,1311.653a17.728,17.728,0,0,0-5.184,4.529l1.54,1.191a15.975,15.975,0,0,0-2.775,5.6l-1.876-.5a17.787,17.787,0,0,0-.467,6.868l.43-.052,1.5-.193a15.8,15.8,0,0,0,2,5.919l-1.688.974a17.6,17.6,0,0,0,4.535,5.181l1.191-1.54a15.832,15.832,0,0,0,5.594,2.779l-.5,1.876a17.8,17.8,0,0,0,6.873.464l0-.007-.067-.558-.174-1.366a15.78,15.78,0,0,0,5.912-2l.975,1.688a17.618,17.618,0,0,0,5.187-4.539l-1.54-1.19a15.8,15.8,0,0,0,2.772-5.591l1.876.5a17.815,17.815,0,0,0,.463-6.874l-1.93.244a15.771,15.771,0,0,0-2-5.912l1.687-.975a17.606,17.606,0,0,0-4.538-5.187l-1.191,1.54a15.816,15.816,0,0,0-5.591-2.773l.5-1.875a17.67,17.67,0,0,0-6.874-.464v.017l.163,1.27.082.643a15.792,15.792,0,0,0-5.913,2Zm4.6,7.972a8.611,8.611,0,1,1-3.156,11.761A8.608,8.608,0,0,1,1632.191,1319.625Z" transform="translate(-1618.681 -1309.266)" fill="#00223d"/>
    </g>
    <g id="Grupo_61982" data-name="Grupo 61982">
      <path id="Trazado_132400" data-name="Trazado 132400" d="M1289.771,1181.36a17.708,17.708,0,0,0-5.185,4.528l1.54,1.19a15.979,15.979,0,0,0-2.776,5.6l-1.875-.5a17.779,17.779,0,0,0-.467,6.868l.431-.053,1.5-.192a15.824,15.824,0,0,0,2,5.919l-1.688.974a17.583,17.583,0,0,0,4.535,5.181l1.19-1.54a15.847,15.847,0,0,0,5.594,2.78l-.5,1.875a17.819,17.819,0,0,0,6.874.464l0-.007-.067-.558-.175-1.366a15.786,15.786,0,0,0,5.913-2l.974,1.688a17.633,17.633,0,0,0,5.188-4.539l-1.541-1.191a15.792,15.792,0,0,0,2.773-5.591l1.876.5a17.809,17.809,0,0,0,.463-6.874l-1.93.245a15.787,15.787,0,0,0-2-5.912l1.687-.974a17.605,17.605,0,0,0-4.538-5.188l-1.19,1.54a15.811,15.811,0,0,0-5.59-2.772l.5-1.876a17.683,17.683,0,0,0-6.874-.464v.017l.162,1.27.082.643a15.811,15.811,0,0,0-5.912,2Zm4.6,7.971a8.611,8.611,0,1,1-3.156,11.762A8.607,8.607,0,0,1,1294.375,1189.331Z" transform="translate(-1280.865 -1178.972)" fill="#37a3a5"/>
    </g>
    <g id="Grupo_61983" data-name="Grupo 61983" transform="translate(198.592 51.287)">
      <path id="Trazado_132401" data-name="Trazado 132401" d="M1689.018,1282.372a9.844,9.844,0,0,0-3.537,1.458l.6.9a8.884,8.884,0,0,0-2.46,2.453l-.9-.6a9.887,9.887,0,0,0-1.471,3.531l.236.049.823.167a8.784,8.784,0,0,0,0,3.473l-1.062.211a9.764,9.764,0,0,0,1.462,3.536l.9-.6a8.81,8.81,0,0,0,2.449,2.462l-.6.9a9.906,9.906,0,0,0,3.535,1.471v0l.064-.306.152-.75a8.8,8.8,0,0,0,3.469,0l.212,1.062a9.792,9.792,0,0,0,3.54-1.463l-.6-.9a8.787,8.787,0,0,0,2.457-2.448l.9.6a9.888,9.888,0,0,0,1.47-3.535l-1.06-.216a8.75,8.75,0,0,0,0-3.468l1.063-.212a9.8,9.8,0,0,0-1.463-3.54l-.9.6a8.782,8.782,0,0,0-2.448-2.457l.6-.9a9.841,9.841,0,0,0-3.536-1.47l0,.009-.14.7-.072.353a8.774,8.774,0,0,0-3.469,0Zm1,5.017a4.786,4.786,0,1,1-3.76,5.628A4.784,4.784,0,0,1,1690.019,1287.389Z" transform="translate(-1681.245 -1282.372)" fill="none" stroke="#37a3a5" stroke-miterlimit="10" stroke-width="0.548"/>
    </g>
  </g>
  <g id="Grupo_62001" data-name="Grupo 62001" transform="translate(54.234 98.716)">
    <path id="Trazado_132402" data-name="Trazado 132402" d="M1391.766,1156.431v-6.568a5.4,5.4,0,0,0-5.4-5.4h-57.485a5.4,5.4,0,0,0-5.4,5.4v116.1h148.7V1156.431Z" transform="translate(-1323.004 -1124.092)" fill="#00223d"/>
    <path id="Trazado_132403" data-name="Trazado 132403" d="M1333.524,1177.218v104.991H1471.27V1176.7Z" transform="translate(-1328.065 -1140.34)" fill="#fff"/>
    <path id="Trazado_132404" data-name="Trazado 132404" d="M1346.39,1177.218v104.991h138.927V1176.7Z" transform="translate(-1334.549 -1140.34)" fill="#00223d"/>
    <path id="Trazado_132405" data-name="Trazado 132405" d="M1493.022,1168.594H1356.04a5.191,5.191,0,0,0-5.286,4.5v105.024h149.5v-102.36A7.407,7.407,0,0,0,1493.022,1168.594Z" transform="translate(-1336.75 -1136.254)" fill="#fff"/>
    <g id="Grupo_61986" data-name="Grupo 61986" transform="translate(43.215 12.122)">
      <g id="Grupo_61985" data-name="Grupo 61985" transform="translate(0 0)">
        <rect id="Rectángulo_29938" data-name="Rectángulo 29938" width="88.296" height="67.103" transform="matrix(1, -0.003, 0.003, 1, 0, 0.247)" fill="#ebf3ff"/>
        <rect id="Rectángulo_29939" data-name="Rectángulo 29939" width="83.78" height="61.689" transform="translate(2.219 2.431) rotate(-0.16)" fill="#37a3a5"/>
        <path id="Trazado_132406" data-name="Trazado 132406" d="M1428.7,1218.23l53.839-.151-29.437-28.241Z" transform="translate(-1419.25 -1159.083)" fill="#e3eeff"/>
        <path id="Trazado_132407" data-name="Trazado 132407" d="M1478.06,1223.1l45.237-.126-24.547-23.341Z" transform="translate(-1444.125 -1164.017)" fill="#e3eeff"/>
        <path id="Trazado_132408" data-name="Trazado 132408" d="M1511.7,1170.82a6.235,6.235,0,1,1-6.252-6.217A6.234,6.234,0,0,1,1511.7,1170.82Z" transform="translate(-1454.795 -1146.364)" fill="#e3eeff"/>
      </g>
    </g>
    <g id="Grupo_61989" data-name="Grupo 61989" transform="translate(61.374 0)">
      <g id="Grupo_61987" data-name="Grupo 61987" transform="translate(0)">
        <rect id="Rectángulo_29940" data-name="Rectángulo 29940" width="81.858" height="71.187" transform="matrix(1, -0.003, 0.003, 1, 0, 0.262)" fill="#ebf3ff"/>
        <rect id="Rectángulo_29941" data-name="Rectángulo 29941" width="77.209" height="65.443" transform="matrix(1, -0.003, 0.003, 1, 2.285, 2.579)" fill="#00223d"/>
      </g>
      <g id="Grupo_61988" data-name="Grupo 61988" transform="translate(9.868 11.613)">
        <rect id="Rectángulo_29942" data-name="Rectángulo 29942" width="30.75" height="2.702" transform="translate(0)" fill="#cce5ff"/>
        <rect id="Rectángulo_29943" data-name="Rectángulo 29943" width="62.561" height="2.702" transform="translate(0 7.295)" fill="#cce5ff"/>
        <rect id="Rectángulo_29944" data-name="Rectángulo 29944" width="62.561" height="2.702" transform="translate(0 14.723)" fill="#cce5ff"/>
      </g>
    </g>
    <path id="Trazado_132409" data-name="Trazado 132409" d="M1502.578,1175.78v102.352H1354.032V1173.087a5.2,5.2,0,0,1,5.266-4.488h136.071A7.388,7.388,0,0,1,1502.578,1175.78Z" transform="translate(-1338.401 -1136.256)" fill="url(#linear-gradient)"/>
    <rect id="Rectángulo_29945" data-name="Rectángulo 29945" width="14.986" height="1.406" transform="translate(0 140.462)" fill="#fff"/>
    <path id="Trazado_132410" data-name="Trazado 132410" d="M1323.161,1267.8l5.22,3.259h8.44l1.681,1.63v-1.548H1486.95V1267.8Z" transform="translate(-1322.842 -1186.254)" opacity="0.5" style="mix-blend-mode: darken;isolation: isolate"/>
    <g id="Grupo_61991" data-name="Grupo 61991" transform="translate(0.453 65.602)">
      <g id="Grupo_61990" data-name="Grupo 61990">
        <path id="Trazado_132518" data-name="Trazado 132518" d="M0,0H165.31V17.438H0Z" fill="#21587b"/>
        <rect id="Rectángulo_29947" data-name="Rectángulo 29947" width="150.429" height="17.438" transform="translate(14.881)" fill="#37a3a5"/>
      </g>
    </g>
    <g id="Grupo_62000" data-name="Grupo 62000" transform="translate(31.251 65.493)">
      <path id="Trazado_132411" data-name="Trazado 132411" d="M1429.715,1235.652v17.432h12.2l-8.556-17.432Z" transform="translate(-1407.795 -1235.544)" fill="#21587b"/>
      <g id="Grupo_61996" data-name="Grupo 61996" transform="translate(17.499)">
        <g id="Grupo_61993" data-name="Grupo 61993" transform="translate(1.553 0.114)">
          <path id="Trazado_132412" data-name="Trazado 132412" d="M1427.174,1235.664h-3.241v17.426h3.241c1.062,0,2.023-.957,2.714-2.565a15.491,15.491,0,0,0,1.13-6.167C1431.018,1239.571,1429.3,1235.664,1427.174,1235.664Zm-.3,8.694c0-1.455.472-2.642,1.079-2.834.607.192,1.079,1.379,1.079,2.834,0,1.494-.472,2.681-1.079,2.872C1427.342,1247.039,1426.87,1245.852,1426.87,1244.358Z" transform="translate(-1423.933 -1235.664)" fill="#00223d"/>
          <g id="Grupo_61992" data-name="Grupo 61992">
            <path id="Trazado_132413" data-name="Trazado 132413" d="M1425.345,1235.664h-1.412v17.426h1.412c1.111,0,2.116-.957,2.84-2.565a14.9,14.9,0,0,0,1.182-6.167C1429.367,1239.571,1427.568,1235.664,1425.345,1235.664Zm.918,11.566c-.635-.191-1.13-1.378-1.13-2.872,0-1.455.494-2.642,1.13-2.834a3.4,3.4,0,0,1,0,5.706Z" transform="translate(-1423.933 -1235.664)" fill="#00223d"/>
          </g>
        </g>
        <g id="Grupo_61995" data-name="Grupo 61995">
          <path id="Trazado_132414" data-name="Trazado 132414" d="M1424.043,1235.664h-3.24v17.426h3.24c1.062,0,2.023-.957,2.715-2.565a15.493,15.493,0,0,0,1.13-6.167C1427.888,1239.571,1426.168,1235.664,1424.043,1235.664Zm-.3,8.694c0-1.455.472-2.642,1.079-2.834.606.192,1.079,1.379,1.079,2.834,0,1.494-.472,2.681-1.079,2.872C1424.212,1247.039,1423.74,1245.852,1423.74,1244.358Z" transform="translate(-1420.803 -1235.55)" fill="#00223d"/>
          <g id="Grupo_61994" data-name="Grupo 61994" transform="translate(0 0.114)">
            <path id="Trazado_132415" data-name="Trazado 132415" d="M1422.214,1235.664H1420.8v17.426h1.411c1.112,0,2.117-.957,2.841-2.565a14.9,14.9,0,0,0,1.182-6.167C1426.238,1239.571,1424.438,1235.664,1422.214,1235.664Zm1.341,11.566c-.635-.191-1.129-1.378-1.129-2.872,0-1.455.494-2.642,1.129-2.834.635.192,1.129,1.379,1.129,2.834C1424.684,1245.852,1424.19,1247.039,1423.555,1247.23Z" transform="translate(-1420.803 -1235.664)" fill="#21587b"/>
          </g>
          <path id="Trazado_132416" data-name="Trazado 132416" d="M1427.237,1253.087h-.02a.113.113,0,0,1,.009-.227,2.458,2.458,0,0,0,1.625-.783c.912-.881,2-2.883,2-7.417,0-8.252-3.612-8.993-3.648-9a.113.113,0,0,1-.092-.131.111.111,0,0,1,.131-.092c.157.027,3.836.759,3.836,9.223,0,4.625-1.129,6.68-2.077,7.589A2.682,2.682,0,0,1,1427.237,1253.087Z" transform="translate(-1423.981 -1235.434)" fill="#00223d"/>
        </g>
      </g>
      <g id="Grupo_61997" data-name="Grupo 61997" transform="translate(4.207 6.169)">
        <path id="Trazado_132417" data-name="Trazado 132417" d="M1410.05,1253.4c-.153.038-.267.077-.42.115.039.039.039.039,0,.039a14.946,14.946,0,0,0-10.723,14.285V1282.4H1394v-14.557a19.826,19.826,0,0,1,15.473-19.3,3.151,3.151,0,0,1,.573-.152C1411.468,1248.078,1411.583,1253.171,1410.05,1253.4Z" transform="translate(-1394.004 -1248.124)" fill="#fff"/>
        <path id="Trazado_132418" data-name="Trazado 132418" d="M1438.054,1247.872v4.875a15.05,15.05,0,0,1,12.778,11.627,1.606,1.606,0,0,1,.076.382,8.825,8.825,0,0,1,.153,1,14.737,14.737,0,0,1,.115,1.838v14.557h4.864v-14.557A19.884,19.884,0,0,0,1438.054,1247.872Z" transform="translate(-1416.205 -1247.872)" fill="#fff"/>
        <path id="Trazado_132419" data-name="Trazado 132419" d="M1413.4,1255.47c-11.494,2.016-12.975,14.53-12.975,14.53v15.907h1.725V1271.35a15,15,0,0,1,11.134-14.432c.489-.158.793-1.588.793-1.588S1413.773,1255.4,1413.4,1255.47Z" transform="translate(-1397.24 -1251.632)" fill="#e6e6e6"/>
        <path id="Trazado_132420" data-name="Trazado 132420" d="M1438.054,1255.612v1.036a15.05,15.05,0,0,1,12.778,11.627A14.312,14.312,0,0,0,1438.054,1255.612Z" transform="translate(-1416.205 -1251.773)" fill="#e6e6e6"/>
        <path id="Trazado_132421" data-name="Trazado 132421" d="M1425.772,1253.4c-.153.038-.267.077-.42.115a5.165,5.165,0,0,0,.814-2.457c.077-1.494-.431-2.5-.968-2.522a3.154,3.154,0,0,1,.574-.152C1427.19,1248.078,1427.3,1253.171,1425.772,1253.4Z" transform="translate(-1409.725 -1248.124)" fill="#e6e6e6"/>
      </g>
      <g id="Grupo_61999" data-name="Grupo 61999" transform="translate(0 36.441)">
        <rect id="Rectángulo_29948" data-name="Rectángulo 29948" width="48.293" height="39.843" transform="translate(0 0.032)" fill="#37a3a5"/>
        <g id="Grupo_61998" data-name="Grupo 61998" transform="translate(17.905 9.745)">
          <path id="Trazado_132422" data-name="Trazado 132422" d="M1421.622,1334.542a6.032,6.032,0,0,0,3.523,5.49V1350.2a2.485,2.485,0,0,0,1.954,2.436h.114a1.287,1.287,0,0,0,.383.039,2.479,2.479,0,0,0,2.45-2.475v-10.167a6.072,6.072,0,0,0,3.525-5.49,5.977,5.977,0,0,0-5.974-5.992,1.859,1.859,0,0,0-.46.038A5.94,5.94,0,0,0,1421.622,1334.542Z" transform="translate(-1421.622 -1328.55)" fill="#00ccc3"/>
          <path id="Trazado_132423" data-name="Trazado 132423" d="M1421.622,1334.582a6.031,6.031,0,0,0,3.523,5.49v10.167a2.485,2.485,0,0,0,1.954,2.436h.114a2.485,2.485,0,0,0,1.953-2.436v-10.167a6.073,6.073,0,0,0,3.524-5.49,5.549,5.549,0,1,0-11.068,0Z" transform="translate(-1421.622 -1328.589)" fill="#00223d"/>
        </g>
        <path id="Trazado_132424" data-name="Trazado 132424" d="M1451.991,1348.443h15.325v-39.476h-4.252S1464.194,1338.095,1451.991,1348.443Z" transform="translate(-1419.023 -1308.935)" fill="#00223d"/>
        <rect id="Rectángulo_29949" data-name="Rectángulo 29949" width="3.944" height="39.437" transform="translate(1.586)" fill="#00223d"/>
      </g>
    </g>
  </g>
  <g id="Grupo_62004" data-name="Grupo 62004" transform="translate(81.574 0)">
    <g id="Grupo_62002" data-name="Grupo 62002" transform="translate(0 0)">
      <rect id="Rectángulo_29950" data-name="Rectángulo 29950" width="104.008" height="29.4" rx="14.7" transform="translate(0 35.355)" fill="#00223d"/>
      <circle id="Elipse_4135" data-name="Elipse 4135" cx="22.986" cy="22.986" r="22.986" transform="translate(35.163 16.954) rotate(-21.641)" fill="#00223d"/>
      <circle id="Elipse_4136" data-name="Elipse 4136" cx="15.497" cy="15.497" r="15.497" transform="translate(18.097 15.594)" fill="#00223d"/>
    </g>
    <g id="Grupo_62003" data-name="Grupo 62003" transform="translate(41.988 28.69)">
      <path id="Trazado_132425" data-name="Trazado 132425" d="M1479.894,968.855l-.964,1.077,6.947.1-.866-6.893-1.3,1.455a13.659,13.659,0,0,0-21.417,11.094l5.656-.01a8.031,8.031,0,0,1,2.021-5.125A8.116,8.116,0,0,1,1479.894,968.855Z" transform="translate(-1462.291 -962.213)" fill="#fff"/>
      <path id="Trazado_132426" data-name="Trazado 132426" d="M1489.05,998.132a13.666,13.666,0,0,0,3.445-8.922l-5.656.01a8.042,8.042,0,0,1-11.946,6.82l.963-1.076-6.947-.1.866,6.894,1.3-1.456A13.767,13.767,0,0,0,1489.05,998.132Z" transform="translate(-1465.626 -975.819)" fill="#fff"/>
    </g>
  </g>
  <g id="Grupo_62011" data-name="Grupo 62011" transform="translate(139.799 138.877)">
    <path id="Trazado_132427" data-name="Trazado 132427" d="M1567.039,1221.8s2.7,2.568,1.841,7.435c4.049,3.387,4.491,9.423,3.9,12.221,6.984,6.331,5.265,15.377.393,18.036-4.645,2.535-11.441.136-14.233-5.791-4.446-7.429-8.785-21.3-1.792-28.589C1555.679,1219.986,1565.027,1219.153,1567.039,1221.8Z" transform="translate(-1524.482 -1202.491)" fill="#0e0e0e"/>
    <g id="Grupo_62007" data-name="Grupo 62007" transform="translate(18.365 11.883)">
      <path id="Trazado_132428" data-name="Trazado 132428" d="M1550.682,1227.766l-6.9-7.012.007-12.134-2.28-.3s-1.866,11.036-1.86,13.382c.005,2.082,6.993,11.132,6.993,11.132Z" transform="translate(-1535.881 -1208.319)" fill="#ffa599"/>
      <path id="Trazado_132429" data-name="Trazado 132429" d="M1566.747,1253.606l-3.809,10.458h-10.1s-.66-6.465-.8-9.9a13.552,13.552,0,0,1,.015-1.843c.338-2.488,4.438-5.867,4.438-5.867a.423.423,0,0,0,.092-.016c.814-.093,6.358-.707,8.385,1C1567.131,1249.276,1566.747,1253.606,1566.747,1253.606Z" transform="translate(-1542.113 -1227.437)" fill="#006662"/>
      <path id="Trazado_132430" data-name="Trazado 132430" d="M1571.312,1308.024h-8.994c.224,1.831,1.178,3.82,1.586,5.455,3.662,10.033,5.448,23.464,9.313,32.313,0,0,1.664.862,2.768,0-.755-6.659-.7-10.789-2.87-21.819C1572.359,1320.765,1572.664,1313.1,1571.312,1308.024Z" transform="translate(-1547.307 -1258.57)" fill="#ffa599"/>
      <path id="Trazado_132431" data-name="Trazado 132431" d="M1546.35,1308.024c-1.166,11.125-3.31,35.156-3.546,37.636l2.858.014c1.875-6.367,4.265-12.081,4.477-20.158,1.458-4.444,3.885-11.92,5.706-17.493Z" transform="translate(-1537.471 -1258.57)" fill="#ffa599"/>
      <path id="Trazado_132432" data-name="Trazado 132432" d="M1563.935,1312.5l-6.79.56-1.648.136-7.289.605c-.316,3.088-.668,6.755-1.014,10.525,2.193.909,5.255,2.224,5.518,2.341l3.571-10.93c1.045,3.4,2.323,7.857,3.288,11.332a27.091,27.091,0,0,1,5.719-2C1564.934,1321.038,1564.492,1316.411,1563.935,1312.5Z" transform="translate(-1539.684 -1260.824)" fill="#e87c5d"/>
      <path id="Trazado_132433" data-name="Trazado 132433" d="M1576.1,1231.33l6.689-5.129-2.136-11.3,2.437-.75s5.273,10.664,5.267,13.009c0,2.081-9.673,10.32-9.673,10.32C1577.1,1238.233,1574.734,1234.736,1576.1,1231.33Z" transform="translate(-1554.045 -1211.26)" fill="#ffa599"/>
      <path id="Trazado_132434" data-name="Trazado 132434" d="M1561.108,1245.657s-2.842,1.945-1.78,3.4c.914,1.252,3.17-.175,3.17-.175s.379,1.937,1.894,1.678c2.108-.36,2.549-3.464,1.667-4.476S1562.138,1245.135,1561.108,1245.657Z" transform="translate(-1545.679 -1226.95)" fill="#fff"/>
      <path id="Trazado_132435" data-name="Trazado 132435" d="M1567.685,1244.147c0,.844-1.4,2.058-3.365,1.96-1.245-.062-1.944-.768-1.741-1.643l.215-1.122.6-3.194,4.565.123Z" transform="translate(-1547.42 -1224.361)" fill="#ffa599"/>
      <path id="Trazado_132436" data-name="Trazado 132436" d="M1567.9,1240.871c-.629,1.317-1.875,2.327-4.853,2.472l.6-3.194,4.239.123Z" transform="translate(-1547.674 -1224.361)" fill="#e87c5d"/>
      <path id="Trazado_132437" data-name="Trazado 132437" d="M1568.324,1227.839a5.194,5.194,0,0,1-6.8,3.09,4.9,4.9,0,0,1-.917-6.537c-.751-4.248,3.954-6.273,6.968-4.535C1570.156,1221.347,1569.983,1224.782,1568.324,1227.839Z" transform="translate(-1546.009 -1213.82)" fill="#ffa599"/>
      <path id="Trazado_132438" data-name="Trazado 132438" d="M1567.407,1307.872a35.308,35.308,0,0,1-9.4,1.7c-6.712.384-14.416-.727-15.107-1.941a158.758,158.758,0,0,1,5.355-25.472h10.089a15.966,15.966,0,0,1,4.438,6.45A117.383,117.383,0,0,1,1567.407,1307.872Z" transform="translate(-1537.521 -1245.536)" fill="#006662"/>
      <g id="Grupo_62005" data-name="Grupo 62005" transform="translate(0 87.088)">
        <path id="Trazado_132439" data-name="Trazado 132439" d="M1532.32,1386.792c0-.036,1.7-.037,3.515-.029,2.09.006,4.693.029,4.693.029a9.477,9.477,0,0,0-.184-2.878l-3.275-.017a22.32,22.32,0,0,0-2.5.638c-.1.032-.218.055-.333.083C1531.7,1385.207,1532.32,1386.867,1532.32,1386.792Z" transform="translate(-1532.154 -1383.897)" fill="#fdfeff"/>
        <path id="Trazado_132440" data-name="Trazado 132440" d="M1532.32,1387.441c0-.036,1.7-.037,3.515-.03a1.6,1.6,0,0,0,.086-.523,1.833,1.833,0,0,0-1.35-1.7c-.106.029-.218.055-.333.082C1531.7,1385.855,1532.32,1387.515,1532.32,1387.441Z" transform="translate(-1532.154 -1384.546)" fill="#d9ecff"/>
        <rect id="Rectángulo_29951" data-name="Rectángulo 29951" width="8.487" height="0.516" transform="translate(8.487 2.898) rotate(180)" fill="#d9ecff"/>
      </g>
      <g id="Grupo_62006" data-name="Grupo 62006" transform="translate(25.612 87.205)">
        <path id="Trazado_132441" data-name="Trazado 132441" d="M1583.881,1387.028c.048,0,.881-.009,1.912-.019,1.679-.016,3.885-.029,4.093.019.584-1.413-.628-2.139-1.745-2.538-.476-.169-.936-.279-1.23-.356l-2.845.016A9.49,9.49,0,0,0,1583.881,1387.028Z" transform="translate(-1583.769 -1384.133)" fill="#fdfeff"/>
        <rect id="Rectángulo_29952" data-name="Rectángulo 29952" width="6.285" height="0.516" transform="translate(0 2.381)" fill="#d9ecff"/>
      </g>
      <path id="Trazado_132442" data-name="Trazado 132442" d="M1587.613,1387.352c1.679-.016,3.886-.029,4.093.019.584-1.413-.629-2.139-1.745-2.538a2.319,2.319,0,0,0-2,.659A1.605,1.605,0,0,0,1587.613,1387.352Z" transform="translate(-1559.977 -1297.272)" fill="#d9ecff"/>
      <path id="Trazado_132443" data-name="Trazado 132443" d="M1558.6,1283.192a13.267,13.267,0,0,1-5.237-1.047.23.23,0,0,1,.2-.415,12.8,12.8,0,0,0,9.89,0,.23.23,0,1,1,.185.422A12.47,12.47,0,0,1,1558.6,1283.192Z" transform="translate(-1542.73 -1245.306)" fill="#fff"/>
      <path id="Trazado_132444" data-name="Trazado 132444" d="M1554.53,1222.8c3.141,3.755,7.264-3.73,10.035-1.378,0,0,.245,5.611,2.132,3.725.589-.7,1.25-4.019-.319-5.122.038-1.813-2.98-3.6-6.514-2.754a4.5,4.5,0,0,0-3.347,3.291A1.615,1.615,0,0,0,1554.53,1222.8Z" transform="translate(-1543.278 -1212.721)" fill="#0e0e0e"/>
    </g>
    <g id="Grupo_62008" data-name="Grupo 62008" transform="translate(0)">
      <rect id="Rectángulo_29953" data-name="Rectángulo 29953" width="62.742" height="6.371" transform="translate(1.144 0.496) rotate(10.348)" fill="#00223d"/>
      <rect id="Rectángulo_29954" data-name="Rectángulo 29954" width="62.742" height="0.424" transform="translate(1.166 0.376) rotate(10.348)" fill="#fff"/>
      <path id="Trazado_132445" data-name="Trazado 132445" d="M1627.674,1184.784a16.732,16.732,0,1,0,13.459,19.463A16.742,16.742,0,0,0,1627.674,1184.784Zm7.576,17.86c-.014.166-.045.348-.075.514a10.672,10.672,0,0,1-21.066-.408,10.5,10.5,0,0,1,.061-3.433,10.677,10.677,0,0,1,21.1,3.251A.133.133,0,0,1,1635.25,1202.643Z" transform="translate(-1551.934 -1184.436)" fill="#00223d"/>
      <rect id="Rectángulo_29955" data-name="Rectángulo 29955" width="5.888" height="12.355" transform="translate(5.114 3.478) rotate(10.348)" fill="#00223d"/>
      <rect id="Rectángulo_29956" data-name="Rectángulo 29956" width="5.888" height="9.363" transform="matrix(0.984, 0.18, -0.18, 0.984, 16.145, 6.473)" fill="#00223d"/>
      <path id="Trazado_132446" data-name="Trazado 132446" d="M1641.257,1207.7a10.677,10.677,0,0,0-21.1-3.251,10.494,10.494,0,0,0-.06,3.433,10.06,10.06,0,0,1-.273-2.359,10.828,10.828,0,0,1,21.656,0A10.368,10.368,0,0,1,1641.257,1207.7Z" transform="translate(-1557.926 -1189.572)" fill="#0a3366"/>
      <path id="Trazado_132447" data-name="Trazado 132447" d="M1625.967,1184.378c-12.5-.508-16.621,10.815-16.665,10.943l.6.1c.175-.5,4.008-11,16.066-10.441Z" transform="translate(-1552.621 -1184.361)" fill="#fff"/>
    </g>
    <g id="Grupo_62009" data-name="Grupo 62009" transform="translate(23.932 9.4)">
      <path id="Trazado_132448" data-name="Trazado 132448" d="M1545.453,1206.387s.893-.216,1.139-1.747.283-1.175.283-1.175-.842-.435-1.289,1.333c-1.321-.089-2.38.54-2.308,1.394C1543.323,1206.716,1545.291,1206.625,1545.453,1206.387Z" transform="translate(-1543.275 -1203.366)" fill="#ffa599"/>
      <path id="Trazado_132449" data-name="Trazado 132449" d="M1543.409,1205.684l-.128-.08a2.485,2.485,0,0,1,2.25-.936c.256-1,.739-1.474,1.364-1.329l-.035.147c-.7-.162-1.035.6-1.2,1.277l-.015.061-.062,0A2.411,2.411,0,0,0,1543.409,1205.684Z" transform="translate(-1543.278 -1203.313)" fill="#ff7e59"/>
    </g>
    <g id="Grupo_62010" data-name="Grupo 62010" transform="translate(43.184 12.796)">
      <path id="Trazado_132450" data-name="Trazado 132450" d="M1584.08,1213.564s-1.317-.439-1.838-3.181c.847-.6,1.18.99,1.18.99a6.1,6.1,0,0,1,2.41.362c.518.235.642.521.933,1.254C1587.511,1214.564,1584.08,1213.564,1584.08,1213.564Z" transform="translate(-1582.167 -1210.204)" fill="#ffa599"/>
      <path id="Trazado_132451" data-name="Trazado 132451" d="M1586.674,1213.016a.077.077,0,0,1-.071-.048s-.1-.248-.288-.672c-.548-1.073-2.94-.894-2.964-.892l-.062,0-.017-.06a5.222,5.222,0,0,0-.334-.813.378.378,0,0,0-.226-.2.781.781,0,0,0-.512.075.076.076,0,0,1-.1-.032.075.075,0,0,1,.031-.1.93.93,0,0,1,.628-.085.529.529,0,0,1,.315.281,5.676,5.676,0,0,1,.326.78c.4-.024,2.5-.1,3.053.981.194.431.291.68.293.682a.075.075,0,0,1-.044.1A.066.066,0,0,1,1586.674,1213.016Z" transform="translate(-1582.09 -1210.16)" fill="#ff7e59"/>
    </g>
    <path id="Trazado_132452" data-name="Trazado 132452" d="M1576.31,1234.359a1.043,1.043,0,1,0,1.043-1.043A1.043,1.043,0,0,0,1576.31,1234.359Z" transform="translate(-1535.993 -1209.034)" fill="#ffa599"/>
  </g>
  <path id="Trazado_132453" data-name="Trazado 132453" d="M1505.038,1392.083H1214.529a1.352,1.352,0,0,1-1.352-1.353h0a1.352,1.352,0,0,1,1.352-1.352h290.508a1.352,1.352,0,0,1,1.352,1.352h0A1.352,1.352,0,0,1,1505.038,1392.083Z" transform="translate(-1213.177 -1148.812)"/>
</svg>
