<svg xmlns="http://www.w3.org/2000/svg" width="84.999" height="85" viewBox="0 0 84.999 85">
  <g id="Grupo_1096646" data-name="Grupo 1096646" transform="translate(-600 -20201.721)">
    <g id="Grupo_1096642" data-name="Grupo 1096642" transform="translate(600 20201.721)">
      <path id="Trazado_837285" data-name="Trazado 837285" d="M85,42.5A42.5,42.5,0,1,1,42.5,0,42.5,42.5,0,0,1,85,42.5" fill="#fff"/>
    </g>
    <g id="Grupo_1096645" data-name="Grupo 1096645" transform="translate(605.724 20220.957)">
      <line id="Línea_1699" data-name="Línea 1699" x2="9.312" transform="translate(3.058 17.069)" fill="none" stroke="#12263f" stroke-linecap="round" stroke-miterlimit="10" stroke-width="1.066"/>
      <line id="Línea_1700" data-name="Línea 1700" x2="9.311" transform="translate(58.923 4.844)" fill="none" stroke="#12263f" stroke-linecap="round" stroke-miterlimit="10" stroke-width="1.066"/>
      <line id="Línea_1701" data-name="Línea 1701" x2="9.311" transform="translate(38.957)" fill="none" stroke="#000" stroke-linecap="round" stroke-miterlimit="10" stroke-width="1.066"/>
      <line id="Línea_1702" data-name="Línea 1702" x2="2.319" transform="translate(6.555 10.427)" fill="none" stroke="#12263f" stroke-linecap="round" stroke-miterlimit="10" stroke-width="1.066"/>
      <line id="Línea_1703" data-name="Línea 1703" x2="2.32" transform="translate(59.36 30.688)" fill="none" stroke="#12263f" stroke-linecap="round" stroke-miterlimit="10" stroke-width="1.066"/>
      <line id="Línea_1704" data-name="Línea 1704" x2="2.319" transform="translate(65.478 37.971)" fill="none" stroke="#12263f" stroke-linecap="round" stroke-miterlimit="10" stroke-width="1.066"/>
      <line id="Línea_1705" data-name="Línea 1705" x2="2.319" transform="translate(58.201 12.308)" fill="none" stroke="#12263f" stroke-linecap="round" stroke-miterlimit="10" stroke-width="1.066"/>
      <line id="Línea_1706" data-name="Línea 1706" x2="6.116" transform="translate(68.437 24.816)" fill="none" stroke="#12263f" stroke-linecap="round" stroke-miterlimit="10" stroke-width="1.066"/>
      <line id="Línea_1707" data-name="Línea 1707" y1="0.001" x2="6.116" transform="translate(60.52 45.032)" fill="none" stroke="#12263f" stroke-linecap="round" stroke-miterlimit="10" stroke-width="1.066"/>
      <line id="Línea_1708" data-name="Línea 1708" x2="6.116" transform="translate(0 28.098)" fill="none" stroke="#12263f" stroke-linecap="round" stroke-miterlimit="10" stroke-width="1.066"/>
      <path id="Trazado_132035" data-name="Trazado 132035" d="M27.767,15.041h5.54l3.3,2.591h8V26.6H27.767Z" transform="translate(3.742 2.027)" fill="#01c3fd"/>
      <path id="Trazado_132036" data-name="Trazado 132036" d="M14.887,30.5H35.045v3.15H14.887Z" transform="translate(2.006 4.11)" fill="#01c3fd"/>
      <g id="PEZHOx.tif" transform="translate(13.921 4.843)">
        <g id="Grupo_61747" data-name="Grupo 61747">
          <path id="Trazado_132028" data-name="Trazado 132028" d="M1464.171,1469.609l1.674,5.566h2.219v1.364h-16.617v-1.352h2.214l1.676-5.579h-14.2a2.064,2.064,0,0,1-2.225-2.214q0-15.137,0-30.274a2.082,2.082,0,0,1,2.27-2.263l37.219,0a2.057,2.057,0,0,1,2.206,2.188q0,15.18,0,30.36a2.061,2.061,0,0,1-2.2,2.2q-6.84,0-13.68,0Zm-23.876-5.587h38.919v-.372q0-13.139,0-26.277c0-.949-.184-1.125-1.153-1.125h-36.7c-.864,0-1.069.207-1.069,1.078q0,10.532,0,21.065Zm38.913,1.447H1440.3c0,.564,0,1.1,0,1.632,0,.939.18,1.121,1.108,1.121h34.609c.8,0,1.592,0,2.388-.006a.709.709,0,0,0,.8-.725C1479.223,1466.827,1479.208,1466.162,1479.208,1465.469Zm-16.505,4.14c-1.914,0-3.793,0-5.672.012a.443.443,0,0,0-.3.265c-.186.545-.34,1.1-.505,1.654-.358,1.2-.715,2.4-1.077,3.609h9.215Z" transform="translate(-1438.906 -1434.859)" fill="#12263f"/>
          <path id="Trazado_132029" data-name="Trazado 132029" d="M1611.168,1557.458q-5.146,0-10.292,0a2.061,2.061,0,0,1-2.224-2.214q0-7.188,0-14.376a2.057,2.057,0,0,1,2.181-2.171c2.548,0,5.1,0,7.643,0a2.083,2.083,0,0,1,1.551.654c.581.586,1.175,1.159,1.746,1.755a1.18,1.18,0,0,0,.924.379c2.938-.009,5.877-.006,8.816,0a2.054,2.054,0,0,1,2.152,2.155q.005,5.863,0,11.727a2.058,2.058,0,0,1-2.12,2.1q-5.19,0-10.379,0Zm-.008-1.387h10.116c.781,0,1-.223,1-1.009q0-5.58,0-11.159c0-.836-.205-1.036-1.06-1.036-2.895,0-5.789-.005-8.683,0a2.22,2.22,0,0,1-1.669-.692c-.568-.578-1.124-1.171-1.729-1.708a1.469,1.469,0,0,0-.87-.367c-2.416-.029-4.833-.018-7.25-.016-.753,0-.974.225-.975.991q0,6.947,0,13.895c0,.9.192,1.1,1.093,1.1Q1606.145,1556.073,1611.16,1556.07Z" transform="translate(-1584.75 -1529.658)" fill="#12263f"/>
          <path id="Trazado_132030" data-name="Trazado 132030" d="M1492.888,1471.1l-1.026,1.061c-.377-.4-.749-.785-1.1-1.186a.389.389,0,0,0-.523-.108c-.691.293-1.387.576-2.091.836a.828.828,0,0,1-.526,0c-.516-.187-1.006-.448-1.528-.609a1.5,1.5,0,0,1-1.027-1.046c-.226-.638-.527-1.249-.8-1.886-.558,0-1.108-.015-1.656.013-.11.005-.255.154-.309.271-.312.683-.588,1.383-.906,2.063a.9.9,0,0,1-.406.4c-.616.283-1.242.549-1.879.781a1.027,1.027,0,0,1-.647-.007c-.666-.238-1.323-.5-1.969-.791a.463.463,0,0,0-.629.141c-.267.3-.584.564-.847.871a.521.521,0,0,0-.085.436c.255.691.562,1.362.807,2.056a1.075,1.075,0,0,1-.01.686,5.84,5.84,0,0,1-.931,2.072,5.906,5.906,0,0,1-2.093.984.638.638,0,0,0-.493.755c.041.43-.129.964.071,1.272a2.013,2.013,0,0,0,1.14.55,2.867,2.867,0,0,1,2.063,2.069,2.28,2.28,0,0,1,0,2.074c-.233.411-.354.884-.547,1.319a.389.389,0,0,0,.1.526,11.325,11.325,0,0,1,.89.89.391.391,0,0,0,.526.1c.664-.284,1.331-.562,2.01-.807a1.029,1.029,0,0,1,.647-.01c.569.2,1.119.461,1.72.716l-.525,1.284c-.418-.167-.807-.348-1.213-.475a1.007,1.007,0,0,0-.606,0c-.8.295-1.587.619-2.373.946a.4.4,0,0,1-.526-.1c-.724-.75-1.476-1.473-2.2-2.225a.549.549,0,0,1-.1-.47c.288-.786.63-1.553.911-2.341a1.443,1.443,0,0,0,0-.732,1.886,1.886,0,0,0-1.452-1.518,10.7,10.7,0,0,1-1.632-.7.554.554,0,0,1-.275-.393q-.034-1.585,0-3.17a.55.55,0,0,1,.281-.389c.733-.341,1.474-.668,2.228-.961a1.191,1.191,0,0,0,.622-.654,1.84,1.84,0,0,0,.023-1.909c-.291-.544-.466-1.149-.707-1.722a.4.4,0,0,1,.087-.528q1.125-1.086,2.211-2.211a.4.4,0,0,1,.529-.088c.747.31,1.5.6,2.246.915a1.119,1.119,0,0,0,.824.013,2.029,2.029,0,0,0,1.476-1.459c.171-.563.465-1.088.681-1.639a.4.4,0,0,1,.448-.293c1.028.014,2.056.016,3.083,0a.429.429,0,0,1,.468.326c.31.763.627,1.524.978,2.268a1.354,1.354,0,0,0,.487.487,1.986,1.986,0,0,0,2.185.034,13.028,13.028,0,0,1,1.646-.662.433.433,0,0,1,.37.046C1491.651,1469.86,1492.272,1470.486,1492.888,1471.1Z" transform="translate(-1468.051 -1463.98)" fill="#12263f"/>
          <path id="Trazado_132031" data-name="Trazado 132031" d="M1538.553,1539.4l.59,1.177a5.644,5.644,0,0,0,0,10.033l-.588,1.183a6.881,6.881,0,0,1-.006-12.394Z" transform="translate(-1526.335 -1530.299)" fill="#12263f"/>
          <path id="Trazado_132032" data-name="Trazado 132032" d="M1649.755,1620.812l-1,.965-3.834-3.883,3.9-3.9.857.911-2.925,2.906Z" transform="translate(-1626.992 -1598.411)" fill="#12263f"/>
          <path id="Trazado_132033" data-name="Trazado 132033" d="M1788.983,1617.466l-3.9,3.9-.936-.9,2.945-2.933-3.021-2.964,1.037-1Z" transform="translate(-1754.035 -1598.022)" fill="#12263f"/>
          <path id="Trazado_132034" data-name="Trazado 132034" d="M1720.663,1629.7l-1.224-.687,3.479-6.26,1.229.679Z" transform="translate(-1695.028 -1606.402)" fill="#12263f"/>
        </g>
      </g>
    </g>
  </g>
</svg>
