<svg xmlns="http://www.w3.org/2000/svg" width="84.999" height="85" viewBox="0 0 84.999 85">
  <g id="Grupo_1096648" data-name="Grupo 1096648" transform="translate(-915 -20201.721)">
    <g id="Grupo_1096643" data-name="Grupo 1096643" transform="translate(915 20201.721)">
      <path id="Trazado_837285" data-name="Trazado 837285" d="M85,42.5A42.5,42.5,0,1,1,42.5,0,42.5,42.5,0,0,1,85,42.5" fill="#fff"/>
    </g>
    <g id="Grupo_1096647" data-name="Grupo 1096647" transform="translate(928.799 20217.123)">
      <line id="Línea_1699" data-name="Línea 1699" x2="7.669" transform="translate(2.519 14.058)" fill="none" stroke="#12263f" stroke-linecap="round" stroke-miterlimit="10" stroke-width="1.066"/>
      <line id="Línea_1700" data-name="Línea 1700" x2="7.668" transform="translate(48.529 3.989)" fill="none" stroke="#12263f" stroke-linecap="round" stroke-miterlimit="10" stroke-width="1.066"/>
      <line id="Línea_1701" data-name="Línea 1701" x2="7.669" transform="translate(32.085)" fill="none" stroke="#000" stroke-linecap="round" stroke-miterlimit="10" stroke-width="1.066"/>
      <line id="Línea_1702" data-name="Línea 1702" x2="1.91" transform="translate(5.399 8.587)" fill="none" stroke="#12263f" stroke-linecap="round" stroke-miterlimit="10" stroke-width="1.066"/>
      <line id="Línea_1703" data-name="Línea 1703" x2="1.911" transform="translate(48.889 25.275)" fill="none" stroke="#12263f" stroke-linecap="round" stroke-miterlimit="10" stroke-width="1.066"/>
      <line id="Línea_1704" data-name="Línea 1704" x2="1.91" transform="translate(53.927 31.273)" fill="none" stroke="#12263f" stroke-linecap="round" stroke-miterlimit="10" stroke-width="1.066"/>
      <line id="Línea_1705" data-name="Línea 1705" x2="1.91" transform="translate(47.934 10.136)" fill="none" stroke="#12263f" stroke-linecap="round" stroke-miterlimit="10" stroke-width="1.066"/>
      <line id="Línea_1707" data-name="Línea 1707" y1="0.001" x2="5.038" transform="translate(49.844 37.088)" fill="none" stroke="#12263f" stroke-linecap="round" stroke-miterlimit="10" stroke-width="1.066"/>
      <line id="Línea_1708" data-name="Línea 1708" x2="5.037" transform="translate(0 23.141)" fill="none" stroke="#12263f" stroke-linecap="round" stroke-miterlimit="10" stroke-width="1.066"/>
      <g id="Grupo_61748" data-name="Grupo 61748" transform="translate(3.194 3.989)">
        <path id="Trazado_132038" data-name="Trazado 132038" d="M369.144-1333.256c-.95,0-1.9,0-2.85,0a.9.9,0,0,1-.794-.429c-.426-.612-.863-1.216-1.293-1.826a.2.2,0,0,0-.28-.083,3.3,3.3,0,0,1-4.4-2,3.226,3.226,0,0,1,.627-3.306,3.344,3.344,0,0,1,4.385-.605,3.316,3.316,0,0,1,.9,4.7.29.29,0,0,0,.008.4q.533.719,1.042,1.454a.348.348,0,0,0,.325.166q2.608-.008,5.217,0c.24,0,.24,0,.24-.234,0-1.028,0-2.056,0-3.083a2.129,2.129,0,0,1,2.108-2.1h3.065c.239,0,.24,0,.24-.236q0-2.626,0-5.253a.3.3,0,0,0-.146-.28c-.5-.354-1-.709-1.5-1.074a.264.264,0,0,0-.359,0,3.261,3.261,0,0,1-3.756.072,3.319,3.319,0,0,1-1.47-3.3,3.2,3.2,0,0,1,2.173-2.661,3.323,3.323,0,0,1,4.337,2.137,3.265,3.265,0,0,1-.087,2.244.2.2,0,0,0,.079.282c.61.429,1.213.868,1.826,1.293a.931.931,0,0,1,.434.828c-.007,1.912,0,3.824-.007,5.737,0,.172.058.211.217.21q2.017-.007,4.034,0c.165,0,.213-.047.212-.214q-.011-1.542,0-3.083a.245.245,0,0,0-.2-.281,2.853,2.853,0,0,1-1.7-3.763,2.883,2.883,0,0,1,4.066-1.429,2.891,2.891,0,0,1,.924,4.172,2.83,2.83,0,0,1-1.422,1.036.186.186,0,0,0-.145.209q0,1.6,0,3.191c0,.132.057.16.174.159.448,0,.9,0,1.345,0h2.689c.251,0,.251,0,.251-.242,0-1.793,0-3.585,0-5.378a.941.941,0,0,1,.443-.858c.612-.414,1.2-.859,1.807-1.285a.205.205,0,0,0,.088-.293,3.212,3.212,0,0,1,.119-2.741,3.223,3.223,0,0,1,2.784-1.828,3.331,3.331,0,0,1,3.378,2.232,3.345,3.345,0,0,1-1.661,4.1,3.214,3.214,0,0,1-3.425-.26.245.245,0,0,0-.341,0c-.507.377-1.029.735-1.538,1.11a.312.312,0,0,0-.113.217c-.006,1.685,0,3.37-.008,5.055,0,.163.085.169.2.168h3.083a2.125,2.125,0,0,1,2.13,2.128c0,1.022,0,2.044,0,3.065,0,.17.046.225.222.225q2.635-.01,5.27,0a.307.307,0,0,0,.28-.148c.351-.5.7-.993,1.064-1.482a.287.287,0,0,0,0-.39,3.2,3.2,0,0,1-.142-3.6,3.316,3.316,0,0,1,4.489-1.245,3.233,3.233,0,0,1,1.741,2.891,3.33,3.33,0,0,1-2.415,3.278,3.3,3.3,0,0,1-2.143-.107.216.216,0,0,0-.311.086c-.43.617-.868,1.228-1.3,1.842a.883.883,0,0,1-.773.4c-1.924,0-3.848,0-5.772-.005-.171,0-.212.054-.212.215q.007,2.026,0,4.052c0,.146.041.2.192.2q1.551-.009,3.1,0a.246.246,0,0,0,.284-.2,2.856,2.856,0,0,1,4.385-1.35,2.878,2.878,0,0,1,.24,4.431,2.856,2.856,0,0,1-4.164-.339,3.871,3.871,0,0,1-.457-.823.262.262,0,0,0-.286-.2c-.956,0-1.912,0-2.868,0-.425,0-.424,0-.424.424,0,1.267,0,2.534,0,3.8,0,.176.041.235.229.234,1.811-.007,3.621,0,5.432,0a.9.9,0,0,1,.811.427c.42.616.865,1.214,1.294,1.824a.209.209,0,0,0,.3.084,3.2,3.2,0,0,1,2.725.114,3.213,3.213,0,0,1,1.845,2.919,3.316,3.316,0,0,1-2.636,3.361,3.343,3.343,0,0,1-3.935-2.374,3.2,3.2,0,0,1,.5-2.824.242.242,0,0,0,0-.34c-.38-.51-.739-1.037-1.116-1.55a.337.337,0,0,0-.241-.1c-1.117-.007-2.235,0-3.352,0-.538,0-1.076.008-1.613,0-.189,0-.23.062-.229.236.007,1.028.005,2.056,0,3.083a2.13,2.13,0,0,1-2.106,2.1c-1.028,0-2.056,0-3.083,0-.162,0-.23.032-.229.217q.011,2.483,0,4.966a.316.316,0,0,0,.153.295c.51.354,1.017.712,1.514,1.083a.23.23,0,0,0,.326,0,3.191,3.191,0,0,1,1.924-.628,3.342,3.342,0,0,1,3.349,3.349,3.35,3.35,0,0,1-4.51,3.158,3.327,3.327,0,0,1-2.184-3.109,2.941,2.941,0,0,1,.221-1.223c.08-.181.027-.27-.124-.374-.419-.286-.826-.589-1.237-.886a6.327,6.327,0,0,1-.723-.543,1.207,1.207,0,0,1-.228-.486,1,1,0,0,1-.009-.3c0-1.763,0-3.526,0-5.288,0-.173-.047-.226-.221-.225q-2.017.009-4.033,0c-.151,0-.209.034-.208.2q.011,1.551,0,3.1a.245.245,0,0,0,.2.278,2.852,2.852,0,0,1,1.343,4.387,2.876,2.876,0,0,1-4.455.209,2.9,2.9,0,0,1-.17-3.6,2.841,2.841,0,0,1,1.412-1.02.177.177,0,0,0,.141-.194q0-1.6,0-3.209c0-.119-.044-.155-.158-.155q-2.062,0-4.123,0c-.166,0-.178.08-.178.212q0,2.312,0,4.625c0,.377-.005.753,0,1.129a.868.868,0,0,1-.391.778c-.61.429-1.214.868-1.826,1.294a.245.245,0,0,0-.111.348,3.311,3.311,0,0,1-2.378,4.458,3.215,3.215,0,0,1-3.142-.912,3.337,3.337,0,0,1-.484-4.067,3.325,3.325,0,0,1,4.8-1.02.258.258,0,0,0,.358,0c.494-.365,1-.721,1.5-1.074a.318.318,0,0,0,.147-.3q-.007-2.626,0-5.252c0-.176-.055-.224-.224-.223-1.028.006-2.056,0-3.083,0a2.113,2.113,0,0,1-2.03-1.566,3.873,3.873,0,0,1-.076-.851c-.011-.608,0-1.216,0-1.825,0-.328,0-.657,0-.986,0-.135-.036-.19-.183-.189q-2.51.007-5.019,0a.284.284,0,0,0-.263.142c-.357.514-.717,1.027-1.093,1.527a.227.227,0,0,0,0,.325,3.213,3.213,0,0,1,.627,2,3.342,3.342,0,0,1-3.314,3.275,3.332,3.332,0,0,1-3.292-2.5,3.369,3.369,0,0,1,1.5-3.707,3.3,3.3,0,0,1,2.992-.249.2.2,0,0,0,.28-.085c.433-.614.879-1.219,1.305-1.839a.879.879,0,0,1,.782-.414c1.822,0,3.645,0,5.467,0,.168,0,.215-.049.214-.213q-.008-2.026,0-4.051c0-.144-.036-.2-.19-.2-1.04.005-2.079,0-3.119,0a.233.233,0,0,0-.262.178,2.714,2.714,0,0,1-2.306,1.893,2.713,2.713,0,0,1-2.8-1.29,2.852,2.852,0,0,1,1.967-4.375,2.8,2.8,0,0,1,3.128,1.865.251.251,0,0,0,.281.2c.926,0,1.852,0,2.779,0,.517,0,.517,0,.517-.511q0-1.855,0-3.71c0-.234,0-.233-.24-.233h-2.886ZM384.42-1317.4H394.4a.621.621,0,0,0,.67-.668q0-3.325,0-6.65,0-6.641,0-13.282a.62.62,0,0,0-.667-.671H374.475a.62.62,0,0,0-.672.665q0,8.64,0,17.279c0,.333-.019.665-.018,1,0,.553.014,1.106.019,1.66a.623.623,0,0,0,.67.669Zm21.472-1.787a1.83,1.83,0,0,0-1.829,1.794,1.844,1.844,0,0,0,1.818,1.849,1.845,1.845,0,0,0,1.83-1.819A1.825,1.825,0,0,0,405.892-1319.185Zm-30.308,12.9a1.814,1.814,0,0,0-1.753-1.827,1.833,1.833,0,0,0-1.888,1.849,1.855,1.855,0,0,0,1.82,1.8A1.815,1.815,0,0,0,375.584-1306.282Zm-12.607-12.9a1.831,1.831,0,0,0-1.813,1.8,1.85,1.85,0,0,0,1.773,1.844,1.852,1.852,0,0,0,1.877-1.777A1.841,1.841,0,0,0,362.977-1319.186Zm30.309-30.313a1.83,1.83,0,0,0,1.764,1.84,1.866,1.866,0,0,0,1.879-1.734,1.862,1.862,0,0,0-1.773-1.913A1.826,1.826,0,0,0,393.286-1349.5Zm-17.7-.283a1.836,1.836,0,0,0-1.82-1.829,1.86,1.86,0,0,0-1.821,1.8,1.824,1.824,0,0,0,1.9,1.854A1.817,1.817,0,0,0,375.587-1349.782Zm19.533,41.374a1.829,1.829,0,0,0-1.835,1.824,1.829,1.829,0,0,0,1.8,1.823,1.845,1.845,0,0,0,1.839-1.771A1.837,1.837,0,0,0,395.121-1308.409Zm11.062-28.478a1.827,1.827,0,0,0,1.83-1.814,1.88,1.88,0,0,0-1.757-1.827,1.862,1.862,0,0,0-1.9,1.862A1.831,1.831,0,0,0,406.183-1336.887Zm-43.49,0a1.816,1.816,0,0,0,1.819-1.762,1.826,1.826,0,0,0-1.895-1.875,1.86,1.86,0,0,0-1.754,1.806A1.826,1.826,0,0,0,362.693-1336.887Zm23.075,27.272a1.333,1.333,0,0,0-1.357-1.323,1.363,1.363,0,0,0-1.309,1.378,1.376,1.376,0,0,0,1.364,1.289A1.345,1.345,0,0,0,385.768-1309.615Zm-1.323-38.177a1.33,1.33,0,0,0-1.337,1.305,1.326,1.326,0,0,0,1.323,1.355,1.325,1.325,0,0,0,1.338-1.341A1.331,1.331,0,0,0,384.445-1347.793ZM366-1326.7a1.323,1.323,0,0,0,1.337-1.322,1.323,1.323,0,0,0-1.341-1.337,1.325,1.325,0,0,0-1.32,1.34A1.326,1.326,0,0,0,366-1326.7Zm38.194-1.329a1.326,1.326,0,0,0-1.312-1.33,1.324,1.324,0,0,0-1.349,1.329,1.324,1.324,0,0,0,1.347,1.33A1.325,1.325,0,0,0,404.2-1328.033Z" transform="translate(-359.325 1353.136)" fill="#12263f"/>
        <path id="Trazado_132039" data-name="Trazado 132039" d="M1025.113-174.875a1.345,1.345,0,0,1-1.3,1.344,1.376,1.376,0,0,1-1.364-1.289,1.363,1.363,0,0,1,1.309-1.378A1.333,1.333,0,0,1,1025.113-174.875Z" transform="translate(-998.671 218.396)" fill="#01c3fd"/>
        <path id="Trazado_132040" data-name="Trazado 132040" d="M1023.961-1204.1a1.331,1.331,0,0,1,1.324,1.32,1.325,1.325,0,0,1-1.338,1.341,1.326,1.326,0,0,1-1.323-1.355A1.33,1.33,0,0,1,1023.961-1204.1Z" transform="translate(-998.842 1209.444)" fill="#01c3fd"/>
        <path id="Trazado_132041" data-name="Trazado 132041" d="M509.966-687.429a1.326,1.326,0,0,1-1.323-1.319,1.325,1.325,0,0,1,1.32-1.34,1.323,1.323,0,0,1,1.341,1.337A1.323,1.323,0,0,1,509.966-687.429Z" transform="translate(-503.289 713.861)" fill="#01c3fd"/>
        <path id="Trazado_132042" data-name="Trazado 132042" d="M1539.272-688.759a1.325,1.325,0,0,1-1.313,1.329,1.324,1.324,0,0,1-1.348-1.33,1.324,1.324,0,0,1,1.349-1.329A1.326,1.326,0,0,1,1539.272-688.759Z" transform="translate(-1494.401 713.862)" fill="#01c3fd"/>
        <path id="Trazado_132043" data-name="Trazado 132043" d="M890-816.637q0-1.927,0-3.854a2.15,2.15,0,0,1,1.741-2.173,2.024,2.024,0,0,1,.427-.039q3.917,0,7.834,0a2.032,2.032,0,0,1,1.384.5,2.133,2.133,0,0,1,.783,1.652c0,2.623.006,5.246,0,7.87a2.143,2.143,0,0,1-2.18,2.146q-3.9,0-7.8,0A2.153,2.153,0,0,1,890-812.729C890-814.032,890-815.335,890-816.637Zm6.085,4.573q1.936,0,3.872,0a.654.654,0,0,0,.683-.673q0-2.832,0-5.664c0-.651-.023-1.3.008-1.954.025-.513-.219-.821-.733-.821h-7.654a.665.665,0,0,0-.733.731q0,3.818,0,7.636a.667.667,0,0,0,.738.745Z" transform="translate(-870.973 841.723)" fill="#12263f"/>
        <path id="Trazado_132044" data-name="Trazado 132044" d="M937.221-770.974H933.4a.667.667,0,0,1-.738-.745q0-3.818,0-7.636a.665.665,0,0,1,.733-.731h7.654c.515,0,.758.307.733.821-.031.65-.008,1.3-.008,1.954q0,2.832,0,5.664a.654.654,0,0,1-.683.673Q939.157-770.973,937.221-770.974Z" transform="translate(-912.109 800.633)" fill="#01c3fd"/>
      </g>
    </g>
  </g>
</svg>
