<svg xmlns="http://www.w3.org/2000/svg" width="84.999" height="85" viewBox="0 0 84.999 85">
  <g id="Grupo_1096650" data-name="Grupo 1096650" transform="translate(-1230 -20201.721)">
    <g id="Grupo_1096644" data-name="Grupo 1096644" transform="translate(1230 20201.721)">
      <path id="Trazado_837285" data-name="Trazado 837285" d="M85,42.5A42.5,42.5,0,1,1,42.5,0,42.5,42.5,0,0,1,85,42.5" fill="#fff"/>
    </g>
    <g id="Grupo_1096649" data-name="Grupo 1096649" transform="translate(1240.646 20220.664)">
      <line id="Línea_1699" data-name="Línea 1699" x2="7.547" transform="translate(2.479 24.448)" fill="none" stroke="#12263f" stroke-linecap="round" stroke-miterlimit="10" stroke-width="1.066"/>
      <line id="Línea_1700" data-name="Línea 1700" x2="7.547" transform="translate(47.759 14.539)" fill="none" stroke="#12263f" stroke-linecap="round" stroke-miterlimit="10" stroke-width="1.066"/>
      <line id="Línea_1701" data-name="Línea 1701" x2="7.547" transform="translate(31.576 10.613)" fill="none" stroke="#000" stroke-linecap="round" stroke-miterlimit="10" stroke-width="1.066"/>
      <line id="Línea_1702" data-name="Línea 1702" x2="1.879" transform="translate(5.313 19.064)" fill="none" stroke="#12263f" stroke-linecap="round" stroke-miterlimit="10" stroke-width="1.066"/>
      <line id="Línea_1703" data-name="Línea 1703" x2="1.88" transform="translate(48.113 35.486)" fill="none" stroke="#12263f" stroke-linecap="round" stroke-miterlimit="10" stroke-width="1.066"/>
      <line id="Línea_1704" data-name="Línea 1704" x2="1.879" transform="translate(53.071 41.39)" fill="none" stroke="#12263f" stroke-linecap="round" stroke-miterlimit="10" stroke-width="1.066"/>
      <line id="Línea_1705" data-name="Línea 1705" x2="1.88" transform="translate(47.173 20.588)" fill="none" stroke="#12263f" stroke-linecap="round" stroke-miterlimit="10" stroke-width="1.066"/>
      <line id="Línea_1706" data-name="Línea 1706" x2="4.957" transform="translate(55.47 30.726)" fill="none" stroke="#12263f" stroke-linecap="round" stroke-miterlimit="10" stroke-width="1.066"/>
      <line id="Línea_1707" data-name="Línea 1707" y1="0.001" x2="4.958" transform="translate(49.053 47.113)" fill="none" stroke="#12263f" stroke-linecap="round" stroke-miterlimit="10" stroke-width="1.066"/>
      <line id="Línea_1708" data-name="Línea 1708" x2="4.957" transform="translate(0 33.387)" fill="none" stroke="#12263f" stroke-linecap="round" stroke-miterlimit="10" stroke-width="1.066"/>
      <g id="BcSGsa.tif" transform="translate(12.005 0)">
        <g id="Grupo_61749" data-name="Grupo 61749">
          <path id="Trazado_132045" data-name="Trazado 132045" d="M1924.925-1313.931c-3.942-1.7-5.42-4.178-4.517-7.224a5.567,5.567,0,0,1,6.336-3.851c3.031.567,4.656,3.124,4.375,7.012l9.317,4.711a5.8,5.8,0,0,1,6.6-1.739l4.288-6.417a5.8,5.8,0,0,1-1.527-5.051,5.544,5.544,0,0,1,6.482-4.37,5.559,5.559,0,0,1,4.323,6.518,5.442,5.442,0,0,1-6.51,4.267,1.377,1.377,0,0,0-1.767.774,30.181,30.181,0,0,1-1.779,2.68c-1.113,1.5-1.984,2.722-.641,4.838,1.405,2.215.122,5.2-2.257,6.6-.661.39-.926.723-.789,1.512.454,2.619.795,5.257,1.274,7.871a1.61,1.61,0,0,0,1.007,1,5.635,5.635,0,0,1,4.428,6.1,5.532,5.532,0,0,1-5.456,4.851,5.408,5.408,0,0,1-5.474-5.084,1.2,1.2,0,0,0-1.012-1.237c-3.186-.882-6.374-1.763-9.525-2.759-.928-.293-1.3.039-1.823.682a5.435,5.435,0,0,1-7.063,1.26,5.511,5.511,0,0,1-2.326-6.7,5.876,5.876,0,0,1,3.142-3.218,1.641,1.641,0,0,0,.856-1.13C1924.95-1306,1924.925-1309.97,1924.925-1313.931Zm21.244,19.025c-.424-2.739-.859-5.731-1.388-8.706a1.547,1.547,0,0,0-1-.879,5.635,5.635,0,0,1-4.439-6.091,1.592,1.592,0,0,0-.635-1.244c-2.586-1.381-5.214-2.687-7.848-3.974a1.352,1.352,0,0,0-1.1-.026c-.988.584-1.913,1.274-2.781,1.868,0,3.969-.025,7.979.043,11.988.006.364.543.866.948,1.053a5.729,5.729,0,0,1,3.571,4.8,1.58,1.58,0,0,0,.837,1.117c3.287,1.024,6.6,1.978,9.914,2.895a1.529,1.529,0,0,0,1.177-.309C1944.36-1293.144,1945.167-1293.966,1946.17-1294.906Zm12.493-30.5a3.493,3.493,0,0,0-3.416-3.53,3.562,3.562,0,0,0-3.526,3.451,3.519,3.519,0,0,0,3.447,3.513A3.461,3.461,0,0,0,1958.663-1325.4ZM1926-1292.262a3.5,3.5,0,0,0,3.516-3.433,3.559,3.559,0,0,0-3.451-3.524,3.542,3.542,0,0,0-3.51,3.459A3.492,3.492,0,0,0,1926-1292.262Zm18.633,2.862a3.49,3.49,0,0,0,3.411,3.534,3.569,3.569,0,0,0,3.528-3.451,3.5,3.5,0,0,0-3.444-3.511A3.447,3.447,0,0,0,1944.633-1289.4Zm-22.391-30.117a3.482,3.482,0,0,0,3.518,3.42,3.549,3.549,0,0,0,3.419-3.55,3.539,3.539,0,0,0-3.55-3.419A3.483,3.483,0,0,0,1922.242-1319.518Zm26.072,9.642a3.4,3.4,0,0,0-3.424-3.475,3.472,3.472,0,0,0-3.514,3.417,3.492,3.492,0,0,0,3.456,3.487A3.416,3.416,0,0,0,1948.314-1309.875Z" transform="translate(-1920.152 1330.97)" fill="#12263f"/>
          <path id="Trazado_132046" data-name="Trazado 132046" d="M2039.112-1320.209a3.461,3.461,0,0,1-3.5,3.435,3.519,3.519,0,0,1-3.447-3.514,3.562,3.562,0,0,1,3.526-3.451A3.493,3.493,0,0,1,2039.112-1320.209Z" transform="translate(-2000.601 1325.777)" fill="#01c3fd"/>
          <path id="Trazado_132047" data-name="Trazado 132047" d="M1932.124-1211.351a3.492,3.492,0,0,1-3.445-3.5,3.542,3.542,0,0,1,3.51-3.459,3.559,3.559,0,0,1,3.451,3.524A3.5,3.5,0,0,1,1932.124-1211.351Z" transform="translate(-1926.275 1250.059)" fill="#01c3fd"/>
          <path id="Trazado_132048" data-name="Trazado 132048" d="M2007.021-1192.2a3.447,3.447,0,0,1,3.495-3.428,3.5,3.5,0,0,1,3.444,3.511,3.569,3.569,0,0,1-3.528,3.451A3.491,3.491,0,0,1,2007.021-1192.2Z" transform="translate(-1982.54 1233.772)" fill="#01c3fd"/>
          <path id="Trazado_132049" data-name="Trazado 132049" d="M1927.568-1299.38a3.484,3.484,0,0,1,3.387-3.549,3.54,3.54,0,0,1,3.55,3.419,3.549,3.549,0,0,1-3.419,3.55A3.482,3.482,0,0,1,1927.568-1299.38Z" transform="translate(-1925.477 1310.832)" fill="#01c3fd"/>
          <path id="Trazado_132050" data-name="Trazado 132050" d="M2002.4-1264.973a3.416,3.416,0,0,1-3.481,3.429,3.492,3.492,0,0,1-3.456-3.487,3.472,3.472,0,0,1,3.514-3.417A3.4,3.4,0,0,1,2002.4-1264.973Z" transform="translate(-1974.241 1286.068)" fill="#01c3fd"/>
        </g>
      </g>
    </g>
  </g>
</svg>
