<svg xmlns="http://www.w3.org/2000/svg" xmlns:xlink="http://www.w3.org/1999/xlink" width="95.974" height="95.974" viewBox="0 0 95.974 95.974">
  <defs>
    <filter id="Trazado_837255" x="0" y="0" width="95.974" height="95.974" filterUnits="userSpaceOnUse">
      <feOffset dy="3" input="SourceAlpha"/>
      <feGaussianBlur stdDeviation="3" result="blur"/>
      <feFlood flood-opacity="0.161"/>
      <feComposite operator="in" in2="blur"/>
      <feComposite in="SourceGraphic"/>
    </filter>
  </defs>
  <g id="Grupo_1096444" data-name="Grupo 1096444" transform="translate(-288.631 -3633.064)">
    <g transform="matrix(1, 0, 0, 1, 288.63, 3633.06)" filter="url(#Trazado_837255)">
      <path id="Trazado_837255-2" data-name="Trazado 837255" d="M77.974,38.987A38.987,38.987,0,1,1,38.987,0,38.988,38.988,0,0,1,77.974,38.987" transform="translate(9 6)" fill="#fff"/>
    </g>
    <g id="Grupo_1096448" data-name="Grupo 1096448" transform="translate(-598.294 -509.206)">
      <path id="Trazado_124000" data-name="Trazado 124000" d="M911.748,1050.464a18.007,18.007,0,1,1-7.031,1.42A17.951,17.951,0,0,1,911.748,1050.464Zm0,34.95a16.887,16.887,0,1,0-16.886-16.888A16.907,16.907,0,0,0,911.748,1085.414Z" transform="translate(20.084 3116.195)" fill="#12263f"/>
      <path id="Trazado_124001" data-name="Trazado 124001" d="M922.035,1068.526a10.286,10.286,0,1,1-10.287-10.287A10.287,10.287,0,0,1,922.035,1068.526Z" transform="translate(20.084 3116.195)" fill="#f6f6f6"/>
      <path id="Trazado_124002" data-name="Trazado 124002" d="M913.413,1055.038a1.666,1.666,0,1,1-1.665-1.666A1.666,1.666,0,0,1,913.413,1055.038Z" transform="translate(20.084 3116.195)" fill="#f6f6f6"/>
      <path id="Trazado_124003" data-name="Trazado 124003" d="M903.1,1058.371a.839.839,0,1,1-.839-.839A.838.838,0,0,1,903.1,1058.371Z" transform="translate(20.084 3116.195)" fill="#00223d"/>
      <path id="Trazado_124004" data-name="Trazado 124004" d="M922.166,1078.006a.839.839,0,1,1-.839-.839A.839.839,0,0,1,922.166,1078.006Z" transform="translate(20.084 3116.195)" fill="#00223d"/>
      <path id="Trazado_124005" data-name="Trazado 124005" d="M921.61,1059.493a.839.839,0,1,1,.839-.84A.841.841,0,0,1,921.61,1059.493Z" transform="translate(20.084 3116.195)" fill="#00223d"/>
      <path id="Trazado_124006" data-name="Trazado 124006" d="M901.975,1078.563a.839.839,0,1,1,.839-.839A.838.838,0,0,1,901.975,1078.563Z" transform="translate(20.084 3116.195)" fill="#00223d"/>
      <path id="Trazado_124007" data-name="Trazado 124007" d="M913.413,1081.946a1.666,1.666,0,1,1-1.665-1.666A1.665,1.665,0,0,1,913.413,1081.946Z" transform="translate(20.084 3116.195)" fill="#f6f6f6"/>
      <path id="Trazado_124008" data-name="Trazado 124008" d="M925.2,1070.16a1.667,1.667,0,1,1,1.665-1.666A1.667,1.667,0,0,1,925.2,1070.16Z" transform="translate(20.084 3116.195)" fill="#f6f6f6"/>
      <path id="Trazado_124009" data-name="Trazado 124009" d="M898.293,1070.16a1.667,1.667,0,1,1,1.666-1.667A1.666,1.666,0,0,1,898.293,1070.16Z" transform="translate(20.084 3116.195)" fill="#f6f6f6"/>
      <path id="Trazado_124010" data-name="Trazado 124010" d="M911.748,1070.9a2.408,2.408,0,1,1,2.407-2.408A2.41,2.41,0,0,1,911.748,1070.9Zm0-3.641a1.233,1.233,0,1,0,1.231,1.233A1.234,1.234,0,0,0,911.748,1067.26Z" transform="translate(20.084 3116.195)" fill="#12263f"/>
      <path id="Línea_1712" data-name="Línea 1712" d="M5.223,5.662a.586.586,0,0,1-.41-.166L-.41.422A.588.588,0,0,1-.422-.41.588.588,0,0,1,.41-.422L5.633,4.653a.588.588,0,0,1-.41,1.009Z" transform="translate(925.28 4178.375)" fill="#12263f"/>
      <path id="Línea_1713" data-name="Línea 1713" d="M0,7.471A.586.586,0,0,1-.417,7.3a.588.588,0,0,1,0-.831L6.519-.417a.588.588,0,0,1,.831,0,.588.588,0,0,1,0,.831L.414,7.3A.586.586,0,0,1,0,7.471Z" transform="translate(933.163 4176.566)" fill="#12263f"/>
      <path id="Línea_1714" data-name="Línea 1714" d="M7.684.588H0A.588.588,0,0,1-.588,0,.588.588,0,0,1,0-.588H7.684A.588.588,0,0,1,8.272,0,.588.588,0,0,1,7.684.588Z" transform="translate(949.291 4174.01)" fill="#12263f"/>
      <path id="Línea_1715" data-name="Línea 1715" d="M7.683.588H0A.588.588,0,0,1-.588,0,.588.588,0,0,1,0-.588H7.683A.588.588,0,0,1,8.271,0,.588.588,0,0,1,7.683.588Z" transform="translate(911.645 4202.197)" fill="#12263f"/>
      <path id="Línea_1716" data-name="Línea 1716" d="M1.913.588H0A.588.588,0,0,1-.588,0,.588.588,0,0,1,0-.588H1.913A.588.588,0,0,1,2.5,0,.588.588,0,0,1,1.913.588Z" transform="translate(915.753 4167.155)" fill="#12263f"/>
      <path id="Línea_1717" data-name="Línea 1717" d="M1.913.588H0A.588.588,0,0,1-.588,0,.588.588,0,0,1,0-.588H1.913A.588.588,0,0,1,2.5,0,.588.588,0,0,1,1.913.588Z" transform="translate(907.572 4186.509)" fill="#12263f"/>
      <path id="Línea_1718" data-name="Línea 1718" d="M1.914.588H0A.588.588,0,0,1-.588,0,.588.588,0,0,1,0-.588H1.914A.588.588,0,0,1,2.5,0,.588.588,0,0,1,1.914.588Z" transform="translate(965.906 4191.492)" fill="#12263f"/>
      <path id="Línea_1719" data-name="Línea 1719" d="M1.914.588H0A.588.588,0,0,1-.588,0,.588.588,0,0,1,0-.588H1.914A.588.588,0,0,1,2.5,0,.588.588,0,0,1,1.914.588Z" transform="translate(944.329 4165.833)" fill="#12263f"/>
      <path id="Línea_1720" data-name="Línea 1720" d="M1.912.588H0A.588.588,0,0,1-.588,0,.588.588,0,0,1,0-.588H1.912A.588.588,0,0,1,2.5,0,.588.588,0,0,1,1.912.588Z" transform="translate(930.875 4205.819)" fill="#12263f"/>
      <path id="Línea_1721" data-name="Línea 1721" d="M0,.589A.588.588,0,0,1-.588,0,.588.588,0,0,1,0-.587H5.046A.588.588,0,0,1,5.634,0a.588.588,0,0,1-.588.588Z" transform="translate(953.916 4180.912)" fill="#12263f"/>
      <path id="Línea_1722" data-name="Línea 1722" d="M0,.59A.588.588,0,0,1-.588,0,.588.588,0,0,1,0-.586l5.045,0A.588.588,0,0,1,5.633,0a.588.588,0,0,1-.588.588L0,.59Z" transform="translate(938.049 4211.515)" fill="#12263f"/>
      <path id="Línea_1723" data-name="Línea 1723" d="M0,.59A.588.588,0,0,1-.588,0,.588.588,0,0,1,0-.586l5.045,0A.588.588,0,0,1,5.633,0a.588.588,0,0,1-.588.588L0,.59Z" transform="translate(906.006 4176.565)" fill="#12263f"/>
      <path id="Línea_1724" data-name="Línea 1724" d="M5.047.588H0A.588.588,0,0,1-.588,0,.588.588,0,0,1,0-.588H5.047A.588.588,0,0,1,5.635,0,.588.588,0,0,1,5.047.588Z" transform="translate(923.238 4163)" fill="#12263f"/>
      <path id="Trazado_124011" data-name="Trazado 124011" d="M939.182,1081.575h-6.227a3.1,3.1,0,0,0-3.088,3.088v9.217h9.315Z" transform="translate(20.084 3116.195)" fill="#efefef"/>
      <g id="Grupo_57087" data-name="Grupo 57087" transform="translate(20.084 3116.195)">
        <path id="Trazado_124012" data-name="Trazado 124012" d="M944.509,1095.908a.588.588,0,0,1-.588-.588v-11.6a3.3,3.3,0,0,0-3.3-3.3h-8.532a3.3,3.3,0,0,0-3.3,3.3v11.6a.588.588,0,0,1-1.176,0v-11.6a4.481,4.481,0,0,1,4.476-4.476h8.532a4.481,4.481,0,0,1,4.476,4.476v11.6A.588.588,0,0,1,944.509,1095.908Z" fill="#12263f"/>
      </g>
      <path id="Trazado_124013" data-name="Trazado 124013" d="M936.344,1077.45a4.733,4.733,0,1,1,4.733-4.733A4.738,4.738,0,0,1,936.344,1077.45Zm0-8.291a3.558,3.558,0,1,0,3.557,3.558A3.561,3.561,0,0,0,936.344,1069.159Z" transform="translate(20.084 3116.195)" fill="#12263f"/>
      <path id="Trazado_124014" data-name="Trazado 124014" d="M936.331,1087.481l-4.546-7.341a.588.588,0,1,1,1-.619l3.571,5.766,3.76-5.778a.588.588,0,1,1,.985.641Z" transform="translate(20.084 3116.195)" fill="#12263f"/>
    </g>
  </g>
</svg>
