<svg xmlns="http://www.w3.org/2000/svg" xmlns:xlink="http://www.w3.org/1999/xlink" width="400" height="411" viewBox="0 0 400 411">
  <defs>
    <clipPath id="clip-path">
      <rect id="Rectángulo_388584" data-name="Rectángulo 388584" width="400" height="411" transform="translate(180 10577)" fill="#fff"/>
    </clipPath>
    <linearGradient id="linear-gradient" y1="0.488" x2="0.89" y2="0.487" gradientUnits="objectBoundingBox">
      <stop offset="0" stop-color="#e8e4ff" stop-opacity="0.471"/>
      <stop offset="1" stop-color="#e5e8ff"/>
    </linearGradient>
    <clipPath id="clip-path-2">
      <rect id="Rectángulo_388588" data-name="Rectángulo 388588" width="99.794" height="92.162" fill="none"/>
    </clipPath>
    <clipPath id="clip-path-3">
      <rect id="Rectángulo_388587" data-name="Rectángulo 388587" width="99.793" height="92.162" fill="none"/>
    </clipPath>
    <filter id="Trazado_837613" x="256.265" y="27.773" width="117.793" height="110.16" filterUnits="userSpaceOnUse">
      <feOffset dy="3" input="SourceAlpha"/>
      <feGaussianBlur stdDeviation="3" result="blur"/>
      <feFlood flood-opacity="0.161"/>
      <feComposite operator="in" in2="blur"/>
      <feComposite in="SourceGraphic"/>
    </filter>
    <clipPath id="clip-path-4">
      <rect id="Rectángulo_388585" data-name="Rectángulo 388585" width="69.355" height="56.877" fill="none"/>
    </clipPath>
    <clipPath id="clip-path-5">
      <rect id="Rectángulo_388586" data-name="Rectángulo 388586" width="43.57" height="32.219" fill="none"/>
    </clipPath>
  </defs>
  <g id="Enmascarar_grupo_1090670" data-name="Enmascarar grupo 1090670" transform="translate(-180 -10577)" clip-path="url(#clip-path)">
    <g id="_22917188086832_Convertido_" data-name="22917188086832 [Convertido]" transform="translate(195 10671.001)">
      <g id="Desk" transform="translate(10.785 375.942)">
        <path id="Trazado_837591" data-name="Trazado 837591" d="M365.331,439.772c0,.12-78.969.222-176.352.222s-176.369-.1-176.369-.222,78.952-.222,176.369-.222S365.331,439.653,365.331,439.772Z" transform="translate(-12.61 -439.55)" fill="#263238"/>
      </g>
      <g id="Character" transform="translate(24.281 -3.047)">
        <g id="Grupo_1096657" data-name="Grupo 1096657" transform="translate(159.834 -74.953)" opacity="0.84">
          <path id="Trazado_837592" data-name="Trazado 837592" d="M42.867,55.033V59.5H27.97v.438H68.246v14.6H27.97v.45h14.9v14.6H27.97v.438H68.246v14.6H27.97v.438h14.9v14.6H27.97v.438H68.246v14.6H27.97v.45h14.9v14.6H27.97v.45H68.246v14.6H27.97v.45h14.9v14.6H27.97v.438H68.246v14.6H27.97v.45h14.9v14.6H27.97v.438H68.246v14.6H27.97v.438h14.9v14.6H27.97v.45H68.246v14.6H27.97v.45h14.9v14.6H27.97v.45H68.246v14.6H27.97v.45h14.9v14.6H27.97v.438H68.246v14.6H27.97v.45h14.9v14.6H27.97v.45H68.246v14.6H27.97v.45h14.9v14.6H27.97v.438H68.246v14.6H27.97v.438h14.9v14.6H27.97v.45H68.246v14.6H27.97v.45h14.9v14.6H27.97v.438H68.246v14.6H27.97v.45h14.9v14.6H27.97v.45H68.246v14.6H27.97v.438h14.9v14.6H27.97v.438H68.246V486.3h.438V481.11H119V486.3h.438V481.11h50.32V486.3h.438V481.11h44.091c.4-.15.8-.288,1.2-.438h-19.9v-14.6h44.954c.175-.15.35-.3.525-.438h-20.1v-14.6h33.91c.113-.15.213-.3.325-.45h-8.856v-14.6h17.636c.075-.15.138-.3.213-.45H220.97v-14.6h48.544c.038-.15.088-.3.125-.438h-23.29v-14.6h25.792c0-.15.025-.3.038-.45h-.45v-14.6h.388l-.038-.45H246.349v-14.6h23.115a4.464,4.464,0,0,0-.125-.438H220.958v-14.6h42.928c-.075-.15-.138-.3-.213-.438H246.337v-14.6h8.393l-.338-.45H220.97V330.7h19.35c-.175-.15-.363-.3-.55-.45H195.591v-14.6h18.162l-1.276-.45H170.213v-7.492a4.668,4.668,0,0,1-.438-.2v7.68h-50.32v-14.6H159.33c-.163-.15-.313-.288-.463-.438H144.846v-14.6h4.716l-.15-.45H119.467v-14.6H147.66c0-.15.025-.3.038-.45h-2.852v-14.6h7.4c.088-.15.163-.3.25-.45H119.467v-14.6h48.394l.9-.45h-23.9v-14.6h50.308v10.507l.45-.075V225.368h20.376c.15-.15.3-.3.45-.438H170.225v-14.6h50.32v9.731l.45-.638v-9.093h4.578c.05-.15.1-.3.15-.438H195.616V195.3h32c0-.15-.013-.3-.025-.45H221v-14.6h2.477a4.882,4.882,0,0,0-.238-.438H195.616v-14.6h14.172l-.713-.45H170.237v-6.579c-.15-.063-.3-.113-.438-.175v6.754h-50.32v-14.6h42.315l-.188-.45H144.859v-14.6h18.662c.113-.15.225-.3.35-.45H119.479v-14.6H169.8v10.157c.15-.063.3-.125.438-.175v-9.981h25.542c.025-.15.038-.3.05-.438h-.213v-3.2a9.311,9.311,0,0,0-.45-1.451v4.653H144.858V108.355h-.438v11.282H94.113v-14.6h14.634c-.188-.15-.375-.288-.563-.438H68.734v-14.6h33.659c.013-.15.038-.3.063-.438H94.113v-14.6h48.431c.325-.138.625-.288.938-.45H119.5v-14.6H147.4c-.1-.15-.188-.3-.288-.438h-2.226V57.159c-.15-.113-.288-.213-.438-.325v2.652H94.138V55.02h-.45v4.465H43.367V55.02h-.45ZM204.3,120.1c-.025-.15-.038-.3-.05-.438h20.663a2.464,2.464,0,0,1-.05.438h-3.89v6.8c-.15.113-.3.225-.45.325V120.1H204.285ZM43.317,466h50.32v14.6H43.317V466Zm50.758,0h50.308v14.6H94.076V466Zm50.758,0h50.308v14.6H144.833V466ZM68.7,450.965h50.32v14.6H68.7v-14.6Zm50.758,0h50.32v14.6h-50.32v-14.6Zm50.758,0h50.32v14.6h-50.32v-14.6ZM43.318,435.93h50.32v14.6H43.318v-14.6Zm50.758,0h50.308v14.6H94.076v-14.6Zm50.758,0h50.308v14.6H144.834v-14.6Zm50.758,0h50.32v14.6h-50.32v-14.6ZM68.7,420.9h50.32v14.6H68.7V420.9Zm50.758,0h50.32v14.6h-50.32V420.9Zm50.758,0h50.32v14.6h-50.32V420.9ZM43.318,405.861h50.32v14.6H43.318v-14.6Zm50.758,0h50.308v14.6H94.076v-14.6Zm50.758,0h50.308v14.6H144.834v-14.6Zm50.758,0h50.32v14.6h-50.32v-14.6ZM68.7,390.826h50.32v14.6H68.7v-14.6Zm50.758,0h50.32v14.6h-50.32v-14.6Zm50.758,0h50.32v14.6h-50.32v-14.6Zm50.758,0h50.308v14.6h-50.32v-14.6h0ZM43.318,375.779h50.32v14.6H43.318v-14.6Zm50.758,0h50.308v14.6H94.076v-14.6Zm50.758,0h50.308v14.6H144.834v-14.6Zm50.758,0h50.32v14.6h-50.32v-14.6ZM68.7,360.744h50.32v14.6H68.7v-14.6Zm50.758,0h50.32v14.6h-50.32v-14.6Zm50.758,0h50.32v14.6h-50.32v-14.6Zm-126.9-15.035h50.32v14.6H43.318v-14.6Zm50.758,0h50.308v14.6H94.076v-14.6Zm50.758,0h50.308v14.6H144.834v-14.6Zm50.758,0h50.32v14.6h-50.32v-14.6ZM68.7,330.674h50.32v14.6H68.7v-14.6Zm50.758,0h50.32v14.6h-50.32v-14.6Zm50.758,0h50.32v14.6h-50.32v-14.6ZM43.318,315.64h50.32v14.6H43.318v-14.6Zm50.758,0h50.308v14.6H94.076v-14.6Zm50.758,0h50.308v14.6H144.834v-14.6ZM68.7,300.592h50.32v14.6H68.7v-14.6ZM43.318,285.558h50.32v14.6H43.318v-14.6Zm50.758,0h50.308v14.6H94.076v-14.6ZM68.7,270.523h50.32v14.6H68.7v-14.6ZM43.318,255.488h50.32v14.6H43.318v-14.6Zm50.758,0h50.308v14.6H94.076v-14.6ZM68.7,240.453h50.32v14.6H68.7v-14.6ZM43.318,225.418h50.32v14.6H43.318v-14.6Zm50.758,0h50.308v14.6H94.076v-14.6ZM68.7,210.384h50.32v14.6H68.7v-14.6Zm50.758,0h50.32v14.6h-50.32v-14.6ZM43.318,195.349h50.32v14.6H43.318v-14.6Zm50.758,0h50.308v14.6H94.076v-14.6Zm50.758,0h50.308v14.6H144.834v-14.6ZM68.7,180.314h50.32v14.6H68.7v-14.6Zm50.758,0h50.32v14.6h-50.32v-14.6Zm50.758,0h50.32v14.6h-50.32v-14.6Zm-126.9-15.035h50.32v14.6H43.318v-14.6Zm50.758,0h50.308v14.6H94.076v-14.6Zm50.758,0h50.308v14.6H144.834v-14.6ZM68.7,150.245h50.32v14.6H68.7v-14.6ZM43.318,135.21h50.32v14.6H43.318v-14.6Zm50.758,0h50.308v14.6H94.076v-14.6ZM68.7,120.175h50.32v14.6H68.7v-14.6ZM43.318,105.14h50.32v14.6H43.318v-14.6Zm0-30.082h50.32v14.6H43.318v-14.6ZM68.7,60.023h50.32v14.6H68.7Z" transform="translate(-27.97 -55.02)" fill="#73afcc" fill-rule="evenodd"/>
          <rect id="Rectángulo_388570" data-name="Rectángulo 388570" width="39" height="179" transform="translate(165.885 269.999)" fill="url(#linear-gradient)"/>
        </g>
      </g>
      <g id="Grupo_1096658" data-name="Grupo 1096658" transform="translate(-0.123 -78)">
        <rect id="Rectángulo_388571" data-name="Rectángulo 388571" width="41.088" height="81.441" transform="translate(0 75.257)" fill="#12263f"/>
        <rect id="Rectángulo_388572" data-name="Rectángulo 388572" width="44.39" height="81.441" transform="translate(42.662 75.257)" fill="#12263f"/>
        <rect id="Rectángulo_388573" data-name="Rectángulo 388573" width="44.39" height="78.687" transform="translate(42.662 162.385)" fill="#12263f"/>
        <path id="Trazado_837593" data-name="Trazado 837593" d="M108.44,73.846h46.75V1.6h1.582V73.846h38.043V0H108.44Z" transform="translate(-15.692)" fill="#12263f"/>
        <rect id="Rectángulo_388574" data-name="Rectángulo 388574" width="38.043" height="81.441" transform="translate(141.08 75.257)" fill="#12263f"/>
        <rect id="Rectángulo_388575" data-name="Rectángulo 388575" width="38.043" height="78.687" transform="translate(141.08 162.385)" fill="#12263f"/>
        <rect id="Rectángulo_388576" data-name="Rectángulo 388576" width="41.088" height="78.687" transform="translate(0 162.385)" fill="#12263f"/>
        <rect id="Rectángulo_388577" data-name="Rectángulo 388577" width="46.75" height="78.687" transform="translate(92.748 162.385)" fill="#12263f"/>
        <rect id="Rectángulo_388578" data-name="Rectángulo 388578" width="41.088" height="70.912" transform="translate(0 242.483)" fill="#12263f"/>
        <rect id="Rectángulo_388579" data-name="Rectángulo 388579" width="38.043" height="70.912" transform="translate(141.08 242.483)" fill="#12263f"/>
        <path id="Trazado_837594" data-name="Trazado 837594" d="M41.088,73.846V1.6h1.574V73.846h44.4V0H0V73.846Z" fill="#12263f"/>
        <rect id="Rectángulo_388580" data-name="Rectángulo 388580" width="46.75" height="70.912" transform="translate(92.748 242.483)" fill="#12263f"/>
        <rect id="Rectángulo_388581" data-name="Rectángulo 388581" width="44.39" height="70.912" transform="translate(42.662 242.483)" fill="#12263f"/>
        <rect id="Rectángulo_388582" data-name="Rectángulo 388582" width="46.75" height="81.441" transform="translate(92.748 75.257)" fill="#12263f"/>
      </g>
    </g>
    <g id="_4264701" data-name="4264701" transform="translate(98.968 10391.982)">
      <g id="Doodles" transform="translate(35.398 151.549)">
        <g id="Grupo_1096663" data-name="Grupo 1096663" transform="translate(0)">
          <path id="Trazado_837595" data-name="Trazado 837595" d="M44.135,269.522,32.49,244.72H75.421Z" transform="translate(-32.49 -97.718)" fill="none" stroke="#263238" stroke-linecap="round" stroke-linejoin="round" stroke-width="1"/>
          <path id="Trazado_837596" data-name="Trazado 837596" d="M182.154,136.79l5.38,14.465-24.094-2Z" transform="translate(14.916 -136.79)" fill="none" stroke="#263238" stroke-linecap="round" stroke-linejoin="round" stroke-width="1"/>
          <path id="Trazado_837597" data-name="Trazado 837597" d="M181.75,27.75l12.9,6.238-12.9,6.32,12.9,7.968-12.9,8.649,14.478,6.687L184.815,74.236" transform="translate(-51.997 27.879)" fill="none" stroke="#fff" stroke-linecap="round" stroke-linejoin="round" stroke-width="1"/>
          <circle id="Elipse_11092" data-name="Elipse 11092" cx="11.686" cy="11.686" r="11.686" transform="translate(50.953 75.853)" fill="none" stroke="#fff" stroke-linecap="round" stroke-linejoin="round" stroke-width="1"/>
          <g id="Grupo_1096659" data-name="Grupo 1096659" transform="translate(0 -80)">
            <line id="Línea_4035" data-name="Línea 4035" x2="25.742" y2="14.71" transform="translate(410.692 132.292)" fill="none" stroke="#263238" stroke-linecap="round" stroke-linejoin="round" stroke-width="1"/>
            <line id="Línea_4036" data-name="Línea 4036" x1="9.915" y2="19.518" transform="translate(417.034 136.065)" fill="none" stroke="#263238" stroke-linecap="round" stroke-linejoin="round" stroke-width="1"/>
          </g>
          <line id="Línea_4037" data-name="Línea 4037" x1="27.867" y2="10.12" transform="translate(329.893 35.181)" fill="none" stroke="#263238" stroke-linecap="round" stroke-linejoin="round" stroke-width="1"/>
          <line id="Línea_4038" data-name="Línea 4038" x1="8.485" y1="20.185" transform="translate(338.256 29.025)" fill="none" stroke="#263238" stroke-linecap="round" stroke-linejoin="round" stroke-width="1"/>
          <path id="Trazado_837598" data-name="Trazado 837598" d="M101.13,241.039c-.191.5,20.267-8.84,20.267-8.84l10,22.9-20.28,8.853-9.984-22.9Z" transform="translate(-36.642 -96.25)" fill="none" stroke="#fff" stroke-linecap="round" stroke-linejoin="round" stroke-width="1"/>
          <path id="Trazado_837599" data-name="Trazado 837599" d="M309.227,216.17c-.218-.027,5.394,6.756,5.394,6.756l-7.627,6.088-5.393-6.756,7.641-6.088Z" transform="translate(-19.976 -67.316)" fill="none" stroke="#263238" stroke-linecap="round" stroke-linejoin="round" stroke-width="1"/>
          <path id="Trazado_837618" data-name="Trazado 837618" d="M309.227,216.17c-.218-.027,5.394,6.756,5.394,6.756l-7.627,6.088-5.393-6.756,7.641-6.088Z" transform="translate(119.067 -7.195)" fill="none" stroke="#263238" stroke-linecap="round" stroke-linejoin="round" stroke-width="1"/>
          <path id="Trazado_837600" data-name="Trazado 837600" d="M35.259,170.9a5.21,5.21,0,1,1-5.2-5.217A5.2,5.2,0,0,1,35.259,170.9Z" transform="translate(46.761 -120.471)" fill="none" stroke="#fff" stroke-linecap="round" stroke-linejoin="round" stroke-width="1"/>
          <path id="Trazado_837601" data-name="Trazado 837601" d="M316.68,262.32l5.543,9.262-11.332.885,3,8.676-12.558.94,6.115,16.63" transform="translate(47.926 -53.346)" fill="none" stroke="#263238" stroke-linecap="round" stroke-linejoin="round" stroke-width="1"/>
          <path id="Trazado_837602" data-name="Trazado 837602" d="M98.362,317.73l9.779,5.9L95.053,334.306l8.2,5.176L92.71,351.154" transform="translate(-10.69 -71.287)" fill="none" stroke="#263238" stroke-linecap="round" stroke-linejoin="round" stroke-width="1"/>
          <path id="Trazado_837603" data-name="Trazado 837603" d="M306.479,107.144l-8.049-8.09,15.3-7.178-6.687-7.014L320.1,76.09" transform="translate(-35.996 13.817)" fill="none" stroke="#263238" stroke-linecap="round" stroke-linejoin="round" stroke-width="1"/>
          <g id="Grupo_1096664" data-name="Grupo 1096664" transform="translate(285.909 198.665)">
            <path id="Trazado_837610" data-name="Trazado 837610" d="M169.68,286h34.735V264.654H184.263L182.2,259.43H169.68Z" transform="translate(-169.68 -259.43)" fill="#6e40fc" stroke="#263238" stroke-miterlimit="10" stroke-width="1"/>
            <path id="Trazado_837611" data-name="Trazado 837611" d="M169.68,305.933h34.735V284.587H184.263L182.2,279.38H169.68Z" transform="translate(-169.68 -244.87)" fill="#263238" stroke="#263238" stroke-miterlimit="10" stroke-width="1"/>
            <path id="Trazado_837612" data-name="Trazado 837612" d="M169.68,325.873h34.735V304.527H184.263L182.2,299.32H169.68Z" transform="translate(-169.68 -230.317)" fill="#263238" stroke="#263238" stroke-miterlimit="10" stroke-width="1"/>
          </g>
          <g id="Grupo_1096674" data-name="Grupo 1096674" transform="translate(310.898 67.24)">
            <g id="Grupo_1096673" data-name="Grupo 1096673" clip-path="url(#clip-path-2)">
              <g id="Grupo_1096672" data-name="Grupo 1096672" transform="translate(0 0)">
                <g id="Grupo_1096671" data-name="Grupo 1096671" clip-path="url(#clip-path-3)">
                  <g transform="matrix(1, 0, 0, 1, -265.26, -33.77)" filter="url(#Trazado_837613)">
                    <path id="Trazado_837613-2" data-name="Trazado 837613" d="M11.768,92.165A11.751,11.751,0,0,1,1.495,74.707L39.624,6.049a11.751,11.751,0,0,1,20.547,0L98.3,74.707A11.752,11.752,0,0,1,88.026,92.165Z" transform="translate(265.26 33.77)" fill="#fff"/>
                  </g>
                  <path id="Trazado_837614" data-name="Trazado 837614" d="M30.611,102.856,68.74,34.2a9.34,9.34,0,0,1,16.331,0L123.2,102.856a9.34,9.34,0,0,1-8.165,13.875H38.776a9.34,9.34,0,0,1-8.165-13.875" transform="translate(-27.009 -26.98)" fill="#6e40fc"/>
                  <g id="Grupo_1096667" data-name="Grupo 1096667" transform="translate(15.433 32.873)" opacity="0.21" style="mix-blend-mode: multiply;isolation: isolate">
                    <g id="Grupo_1096666" data-name="Grupo 1096666">
                      <g id="Grupo_1096665" data-name="Grupo 1096665" clip-path="url(#clip-path-4)">
                        <path id="Trazado_837615" data-name="Trazado 837615" d="M226.13,454.423q15.684-15.634,31.3-31.331l-12.478-22.469L218.69,426.889l-28.657,28.657-1.953,1.953H223.03c1.032-1.027,2.068-2.049,3.1-3.077" transform="translate(-188.079 -400.623)" fill="#ffaf10"/>
                      </g>
                    </g>
                  </g>
                  <g id="Grupo_1096670" data-name="Grupo 1096670" transform="translate(53.809 57.531)" opacity="0.43" style="mix-blend-mode: multiply;isolation: isolate">
                    <g id="Grupo_1096669" data-name="Grupo 1096669">
                      <g id="Grupo_1096668" data-name="Grupo 1096668" clip-path="url(#clip-path-5)">
                        <path id="Trazado_837616" data-name="Trazado 837616" d="M687.963,701.129q-6.875,6.9-13.751,13.8-9.21,9.222-18.443,18.422h34.216a9.34,9.34,0,0,0,8.165-13.875Z" transform="translate(-655.769 -701.129)" fill="#ffaf10"/>
                      </g>
                    </g>
                  </g>
                  <path id="Trazado_837617" data-name="Trazado 837617" d="M506.205,438.719l-2.449-27.1V411.1a2.352,2.352,0,0,1,2.352-2.352h12.418a2.352,2.352,0,0,1,2.352,2.352v.511l-2.5,27.108a2.246,2.246,0,0,1-2.236,2.039h-7.7a2.246,2.246,0,0,1-2.237-2.044m-.388,12.779v-5.781a1.805,1.805,0,0,1,1.805-1.805h9.331a1.805,1.805,0,0,1,1.805,1.805V451.5a1.805,1.805,0,0,1-1.805,1.805h-9.331a1.805,1.805,0,0,1-1.805-1.805" transform="translate(-462.42 -375.88)" fill="#fff"/>
                </g>
              </g>
            </g>
          </g>
        </g>
      </g>
    </g>
    <g id="Table" transform="translate(363.823 10931.347)">
      <g id="Grupo_1096696" data-name="Grupo 1096696" transform="translate(0 0)">
        <rect id="Rectángulo_388598" data-name="Rectángulo 388598" width="191.078" height="56.653" transform="translate(8.609)" fill="#fff" stroke="#263238" stroke-linecap="round" stroke-linejoin="round" stroke-width="1"/>
        <rect id="Rectángulo_388599" data-name="Rectángulo 388599" width="191.078" height="18.907" transform="translate(8.609)" fill="#263238" stroke="#263238" stroke-linecap="round" stroke-linejoin="round" stroke-width="1"/>
        <rect id="Rectángulo_388600" data-name="Rectángulo 388600" width="208.297" height="10.078" fill="#fff" stroke="#263238" stroke-linecap="round" stroke-linejoin="round" stroke-width="1"/>
      </g>
    </g>
    <g id="Device" transform="translate(396.454 10726.614)">
      <g id="Grupo_1096698" data-name="Grupo 1096698" transform="translate(0 0)">
        <g id="Grupo_1096697" data-name="Grupo 1096697" transform="translate(107.9)">
          <path id="Trazado_837683" data-name="Trazado 837683" d="M354.362,445.675l-36.514-90.888a2.53,2.53,0,1,0-4.693,1.891l36.514,90.888a9.522,9.522,0,0,1,.709,3.629,9.737,9.737,0,0,1-9.724,9.724h-29.2v5.064h29.2a14.8,14.8,0,0,0,13.724-20.308Z" transform="translate(-300.656 -260.103)" fill="#263238"/>
          <rect id="Rectángulo_388601" data-name="Rectángulo 388601" width="9.656" height="172.813" transform="matrix(0.995, 0.098, -0.098, 0.995, 16.894, 0)" fill="#fff" stroke="#263238" stroke-linecap="round" stroke-linejoin="round" stroke-width="1"/>
        </g>
        <path id="Trazado_837684" data-name="Trazado 837684" d="M330.715,413.81,236.4,417.963v4.744h94.315Z" transform="translate(-236.4 -218.396)" fill="#fff" stroke="#263238" stroke-linecap="round" stroke-linejoin="round" stroke-width="1"/>
      </g>
    </g>
    <g id="Character-2" data-name="Character" transform="translate(180 10639.805)">
      <g id="Grupo_1096699" data-name="Grupo 1096699" transform="translate(36.298 149.385)">
        <path id="Trazado_837685" data-name="Trazado 837685" d="M138.509,460.649l-8.829,73.079h149.4L234.242,512.17s4.49-6.28,4.946-10.331c.422-3.866-11.834-26.132-12.931-28.141l-1-6.651s-2.144-31.45-.912-37.561c1.215-6.111,4.271-20.46-1.84-36.649s-21.979-43.976-21.979-43.976L153.2,335.12S131.52,365.05,135.487,396.8s3.055,63.828,3.055,63.828Z" transform="translate(-129.68 -335.12)" fill="#b2b2b2" stroke="#263238" stroke-linecap="round" stroke-linejoin="round" stroke-width="1"/>
        <path id="Trazado_837686" data-name="Trazado 837686" d="M251.613,461.557,206.776,440,169.57,461.557Z" transform="translate(-102.231 -262.95)" fill="#263238" stroke="#263238" stroke-linecap="round" stroke-linejoin="round" stroke-width="1"/>
        <line id="Línea_4039" data-name="Línea 4039" x1="60.182" y2="17.523" transform="translate(44.364 177.05)" fill="#fff" stroke="#263238" stroke-linecap="round" stroke-linejoin="round" stroke-width="1"/>
        <line id="Línea_4040" data-name="Línea 4040" x1="12.577" y2="10.331" transform="translate(41.224 186.943)" fill="#fff" stroke="#263238" stroke-linecap="round" stroke-linejoin="round" stroke-width="1"/>
      </g>
      <g id="Grupo_1096702" data-name="Grupo 1096702" transform="translate(35.782 0)">
        <g id="Grupo_1096700" data-name="Grupo 1096700" transform="translate(36.202 52.328)">
          <path id="Trazado_837687" data-name="Trazado 837687" d="M219.915,280.047a69.5,69.5,0,0,1,3.714,17.573c1.03,10.855-1.114,16.763,1.6,20.122s5.4,4.237,3.8,7.765c-1.587,3.511-8.289,5.892-8.289,5.892s-6.4,14.383-10.247,18.89-18.417-.068-18.417-.068l-4.98,15.446L153.183,349.26l4.406-15.818L150.82,312.78s15.5-45.984,69.078-32.766Z" transform="translate(-150.82 -277.626)" fill="#fff" stroke="#263238" stroke-linecap="round" stroke-linejoin="round" stroke-width="1"/>
          <path id="Trazado_837688" data-name="Trazado 837688" d="M178.263,322.243l-7.343-3.933,3.832,12.441Z" transform="translate(-136.989 -249.63)" fill="#263238" stroke="#263238" stroke-linecap="round" stroke-linejoin="round" stroke-width="1"/>
          <path id="Trazado_837689" data-name="Trazado 837689" d="M182.67,308.86s3.781,5,8.711,4.9" transform="translate(-128.903 -256.133)" fill="none" stroke="#263238" stroke-linecap="round" stroke-linejoin="round" stroke-width="1"/>
          <path id="Trazado_837690" data-name="Trazado 837690" d="M193.159,298.858c-.236,2.347-1.317,4.153-2.414,4.051-1.1-.118-1.773-2.11-1.536-4.457s1.317-4.153,2.414-4.051C192.72,294.52,193.4,296.512,193.159,298.858Z" transform="translate(-124.436 -266.085)" fill="#263238"/>
          <path id="Trazado_837691" data-name="Trazado 837691" d="M188.21,293.185s3.933-5.419,7.715-.422" transform="translate(-125.091 -268.666)" fill="none" stroke="#263238" stroke-linecap="round" stroke-linejoin="round" stroke-width="1"/>
        </g>
        <path id="Trazado_837692" data-name="Trazado 837692" d="M180.036,262.384s-26.791-2.161-34.016,14.281-7.428,39.148-4.558,47.115c2.853,7.968,11.749,19.937,15.379,23.38s9.521,5.892,14.67,3.663,11.378-12.019,12.948-18.316c1.57-6.28.641-12.205,2.195-12.357s3.613.675,11.125-.692,22.638-8.1,30.876-19.532,6.8-24.157,3.629-29.1c-3.174-4.929-36.548-17.59-52.231-8.474Z" transform="translate(-122.243 -238.022)" fill="#263238" stroke="#263238" stroke-linecap="round" stroke-linejoin="round" stroke-width="1"/>
        <g id="Grupo_1096701" data-name="Grupo 1096701">
          <path id="Trazado_837693" data-name="Trazado 837693" d="M186.763,266.028s.321,5.858-3.427,9.47C179.589,279.094,161,286.69,161,286.69s-6.128,14.72-8.424,19.076c-2.3,4.372-4.845,5.334-7.765,3.8-2.9-1.536-16.29-8.744-15.4-11.412s3.849-4.507,3.916-8.187-2.549-7.934-.456-10.483a62.5,62.5,0,0,1,6.8-6.364s-4.2-12.712-.625-14.8,12.07-.895,14.248-1.283c2.195-.388,5.453-11.108,15.5-10.365a16.951,16.951,0,0,1,13.859,8.491s4.068-.81,5.216,2.988-1.114,7.867-1.114,7.867Z" transform="translate(-129.375 -246.628)" fill="#fff" stroke="#263238" stroke-linecap="round" stroke-linejoin="round" stroke-width="1"/>
          <line id="Línea_4041" data-name="Línea 4041" x2="7.495" y2="1.705" transform="translate(23.93 10.419)" fill="none" stroke="#263238" stroke-linecap="round" stroke-linejoin="round" stroke-width="1"/>
          <path id="Trazado_837694" data-name="Trazado 837694" d="M158.226,250.93s.473,4.338-3.258,10.72c-3.731,6.364-16.392,21.946-21.118,26.065" transform="translate(-126.295 -243.668)" fill="none" stroke="#263238" stroke-linecap="round" stroke-linejoin="round" stroke-width="1"/>
          <path id="Trazado_837695" data-name="Trazado 837695" d="M135.47,264.267s5.892-6.449,14.569-4.322" transform="translate(-125.18 -237.76)" fill="none" stroke="#263238" stroke-linecap="round" stroke-linejoin="round" stroke-width="1"/>
          <path id="Trazado_837696" data-name="Trazado 837696" d="M175.793,252.87s-11.192,13.269-19.16,21.962S138.266,289.2,137.27,295.85" transform="translate(-123.942 -242.333)" fill="none" stroke="#263238" stroke-linecap="round" stroke-linejoin="round" stroke-width="1"/>
          <path id="Trazado_837697" data-name="Trazado 837697" d="M154.88,260.845s9.048-7.36,14.315-1.891" transform="translate(-111.824 -239.538)" fill="none" stroke="#263238" stroke-linecap="round" stroke-linejoin="round" stroke-width="1"/>
        </g>
        <path id="Trazado_837698" data-name="Trazado 837698" d="M179.536,304.172s-5.908-14.113-12.121-10.466-4.44,19.194-1.5,23.482,8.542.574,8.542.574" transform="translate(-106.076 -214.648)" fill="#fff" stroke="#263238" stroke-linecap="round" stroke-linejoin="round" stroke-width="1"/>
      </g>
      <path id="Trazado_837699" data-name="Trazado 837699" d="M153.2,318.07s44.887,11.9,47.639,15.581c2.752,3.663,2.144,6.719.608,8.863-1.519,2.144-3.967,9.47-3.967,9.47s2.144,6.719.912,9.47c-1.215,2.752-6.111,5.2-9.47,4.271-3.359-.912-43.368-14.653-44.887-15.581-1.519-.912-2.144-7.934.912-10.078s1.519.3,3.055-2.144c1.519-2.448-3.359-18.941,5.2-19.852Z" transform="translate(-84.373 -197.468)" fill="#b2b2b2" stroke="#263238" stroke-linecap="round" stroke-linejoin="round" stroke-width="1"/>
      <g id="Grupo_1096703" data-name="Grupo 1096703" transform="translate(200.738 252.479)">
        <path id="Trazado_837700" data-name="Trazado 837700" d="M232.83,396.19s22.216,2.87,23.651,2.633,9.082,5.5,15.294,9.318,8.609,6.921,11.952,10.281,7.884,5.014,5.976,6.449-2.87,1.435-5.74.473-6.212-2.144-6.212-2.144a10.574,10.574,0,0,1-6.921,1.435c-3.579-.709-11.716-4.068-11.716-4.068s-6.449.709-10.99-.709c-4.541-1.435-13.86-10.027-13.86-10.027l-5.5.473-1.671-12.661,5.74-1.435Z" transform="translate(-227.09 -396.19)" fill="#fff" stroke="#263238" stroke-linecap="round" stroke-linejoin="round" stroke-width="1"/>
        <path id="Trazado_837701" data-name="Trazado 837701" d="M246.63,404.97s.236,0,3.815,2.633,16.493,4.777,13.859,9.555" transform="translate(-213.644 -390.148)" fill="none" stroke="#263238" stroke-linecap="round" stroke-linejoin="round" stroke-width="1"/>
      </g>
      <g id="Grupo_1096704" data-name="Grupo 1096704" transform="translate(201.329 234.441)">
        <path id="Trazado_837702" data-name="Trazado 837702" d="M271.332,407.419s.405,3.849-.2,4.862-2.836,1.013-4.051-1.418a20.177,20.177,0,0,1-1.418-6.482Z" transform="translate(-201.14 -372.517)" fill="#fff" stroke="#263238" stroke-miterlimit="10" stroke-width="1"/>
        <path id="Trazado_837703" data-name="Trazado 837703" d="M268.818,408.026s-1.334,3.629-2.313,4.271-2.988-.338-3-3.056a20.284,20.284,0,0,1,1.57-6.432Z" transform="translate(-202.626 -373.597)" fill="#fff" stroke="#263238" stroke-miterlimit="10" stroke-width="1"/>
        <path id="Trazado_837704" data-name="Trazado 837704" d="M269.726,403.907s4.051,3.646,3.646,7.276c-.405,3.646-3.241,2.836-4.051.405s-1.621-5.267-1.621-5.267l2.026-2.431Z" transform="translate(-199.736 -372.854)" fill="#fff" stroke="#263238" stroke-miterlimit="10" stroke-width="1"/>
        <path id="Trazado_837705" data-name="Trazado 837705" d="M227.457,389.227s23.212-4.271,29.627-3.663,24.427,8.238,26.571,9.47c2.144,1.215,14.653,10.078,14.957,12.526s-.608,7.63-.608,7.63,6.111,1.215,3.967,3.967-6.719,2.144-9.47,1.215c-2.752-.912-11.6-6.719-13.741-7.63s-9.774.912-15.581-.912c-5.807-1.84-14.957-10.382-14.957-10.382l-18.941,5.5-1.84-17.708Z" transform="translate(-227.44 -385.505)" fill="#fff" stroke="#263238" stroke-miterlimit="10" stroke-width="1"/>
        <path id="Trazado_837706" data-name="Trazado 837706" d="M258.71,392.16s3.039.405,6.482,4.052,11.294,14.4,11.294,14.4c-8.728-1.384-16.56-9.74-16.56-9.74" transform="translate(-205.922 -380.925)" fill="#fff" stroke="#263238" stroke-miterlimit="10" stroke-width="1"/>
      </g>
      <g id="Grupo_1096705" data-name="Grupo 1096705" transform="translate(62.762 173.103)">
        <path id="Trazado_837707" data-name="Trazado 837707" d="M150.8,354.673s-8.863,17.1-3.967,59.844c4.879,42.743,21.979,67.795,31.754,68.1s83.056-20.764,90.382-25.035,21.979-8.542,22.908-8.863c.912-.3,3.359-9.166,1.215-21.068s-3.359-15.581-3.359-15.581l-28.7,5.2L217.361,424.6a4.026,4.026,0,0,0-2.144-4.271c-2.752-1.519-8.863-3.056-8.863-3.056s-7.934-54.054-24.427-68.1" transform="translate(-145.357 -349.17)" fill="#b2b2b2" stroke="#263238" stroke-linecap="round" stroke-linejoin="round" stroke-width="1"/>
        <path id="Trazado_837708" data-name="Trazado 837708" d="M195.575,389.52s-24.731,16.493-34.505,18.316" transform="translate(-134.544 -321.404)" fill="none" stroke="#263238" stroke-linecap="round" stroke-linejoin="round" stroke-width="1"/>
        <path id="Trazado_837709" data-name="Trazado 837709" d="M165.856,408.92a60.726,60.726,0,0,1-6.786,4.187" transform="translate(-135.92 -308.055)" fill="none" stroke="#263238" stroke-linecap="round" stroke-linejoin="round" stroke-width="1"/>
        <path id="Trazado_837710" data-name="Trazado 837710" d="M189.588,393.68s-11.817,13.3-24.258,22.942" transform="translate(-131.612 -318.542)" fill="none" stroke="#263238" stroke-linecap="round" stroke-linejoin="round" stroke-width="1"/>
        <path id="Trazado_837711" data-name="Trazado 837711" d="M182.74,407.63a20.428,20.428,0,0,1-3.41,3.326" transform="translate(-121.979 -308.942)" fill="none" stroke="#263238" stroke-linecap="round" stroke-linejoin="round" stroke-width="1"/>
        <path id="Trazado_837712" data-name="Trazado 837712" d="M189.744,395.49a64.579,64.579,0,0,1-6.9,16.982" transform="translate(-119.563 -317.296)" fill="none" stroke="#263238" stroke-linecap="round" stroke-linejoin="round" stroke-width="1"/>
        <path id="Trazado_837713" data-name="Trazado 837713" d="M219.978,403.81c0,1.621-.017,3.359-.118,5.183" transform="translate(-94.089 -311.571)" fill="none" stroke="#263238" stroke-linecap="round" stroke-linejoin="round" stroke-width="1"/>
        <path id="Trazado_837714" data-name="Trazado 837714" d="M215.88,389.88s5.115,4.136,6.5,17.3" transform="translate(-96.828 -321.157)" fill="none" stroke="#263238" stroke-linecap="round" stroke-linejoin="round" stroke-width="1"/>
      </g>
      <path id="Trazado_837715" data-name="Trazado 837715" d="M148.055,507.947H120.538s-17.843-71.087-10.652-125.883a10.58,10.58,0,0,1,10.5-9.183h0a10.569,10.569,0,0,1,10.585,10.635c-.118,19.532,1.671,64.655,17.084,124.431Z" transform="translate(-104.178 -159.752)" fill="#263238" stroke="#263238" stroke-linecap="round" stroke-linejoin="round" stroke-width="1"/>
    </g>
  </g>
</svg>
