<svg xmlns="http://www.w3.org/2000/svg" xmlns:xlink="http://www.w3.org/1999/xlink" width="91.927" height="91.928" viewBox="0 0 91.927 91.928">
  <defs>
    <radialGradient id="radial-gradient" cx="0.076" cy="0.019" r="1.465" gradientTransform="translate(0.001)" gradientUnits="objectBoundingBox">
      <stop offset="0" stop-color="#f6f6f7"/>
      <stop offset="0.477" stop-color="#f9f9fa"/>
      <stop offset="0.715" stop-color="#fff"/>
    </radialGradient>
  </defs>
  <g id="Grupo_54428" data-name="Grupo 54428" transform="translate(-217 -741.334)">
    <g id="Grupo_42274" data-name="Grupo 42274" transform="translate(142 768.333)">
      <g id="Grupo_18423" data-name="Grupo 18423" transform="translate(75 -27)">
        <g id="Grupo_18421" data-name="Grupo 18421">
          <g id="Grupo_18420" data-name="Grupo 18420">
            <g id="Grupo_18419" data-name="Grupo 18419">
              <path id="Trazado_40936" data-name="Trazado 40936" d="M286.55,2191.684a45.964,45.964,0,1,1-45.963-45.962A45.963,45.963,0,0,1,286.55,2191.684Z" transform="translate(-194.623 -2145.721)" fill="#fff"/>
            </g>
          </g>
        </g>
        <path id="Trazado_40937" data-name="Trazado 40937" d="M286.23,2191.334a45.963,45.963,0,1,0-45.963,45.965A45.782,45.782,0,0,0,286.23,2191.334Z" transform="translate(-194.303 -2145.372)" fill="url(#radial-gradient)"/>
        <path id="Trazado_40938" data-name="Trazado 40938" d="M272.56,2188.562a35.084,35.084,0,1,0-35.084,35.084A34.953,34.953,0,0,0,272.56,2188.562Z" transform="translate(-191.373 -2142.446)" fill="none" stroke="#1e5af9" stroke-miterlimit="10" stroke-width="4"/>
        <g id="Grupo_18422" data-name="Grupo 18422" transform="translate(8.143 25.805)">
          <path id="Trazado_40939" data-name="Trazado 40939" d="M279.682,2164.488a45.969,45.969,0,0,1-79.137,45.773,45.823,45.823,0,0,0,79.137-45.773Z" transform="translate(-200.545 -2164.488)" fill="#eceef0"/>
        </g>
      </g>
    </g>
    <g id="oYHByf.tif" transform="translate(-242.32 -1082.183)">
      <g id="Grupo_61736" data-name="Grupo 61736" transform="translate(481.422 1849.163)">
        <path id="Trazado_132022" data-name="Trazado 132022" d="M481.422,1860.773a4.236,4.236,0,0,1,.685-.522q11.274-5.47,22.555-10.926a1.293,1.293,0,0,1,1.234-.009q11.295,5.481,22.6,10.942c.35.169.661.357.651.81s-.331.627-.683.786q-11.292,5.1-22.581,10.2a1.333,1.333,0,0,1-1.2,0q-11.306-5.124-22.616-10.236a3.608,3.608,0,0,1-.647-.491Zm2.571.235c.131.077.217.139.311.182q10.334,4.67,20.674,9.327a.818.818,0,0,0,.6,0q10.344-4.649,20.676-9.324a3.268,3.268,0,0,0,.314-.19l-.347-.171q-10.294-4.981-20.583-9.971a.733.733,0,0,0-.727.015q-7.466,3.622-14.937,7.232Z" transform="translate(-481.422 -1849.163)" fill="#12263f"/>
        <path id="Trazado_132023" data-name="Trazado 132023" d="M512.547,2175.372c-.235-.094-.467-.175-.69-.279q-9.564-4.458-19.126-8.921c-.9-.419-1.793-.847-2.695-1.261a.788.788,0,0,1-.068-1.506q2.425-1.382,4.845-2.773a1.165,1.165,0,0,1,1.144-.052q8.093,3.533,16.192,7.052a.923.923,0,0,0,.824,0c5.338-2.332,10.684-4.645,16.02-6.983a1.469,1.469,0,0,1,1.483.074c1.534.908,3.088,1.785,4.638,2.667.314.178.57.379.561.781-.01.426-.3.612-.638.771q-10.955,5.106-21.909,10.216C512.948,2175.237,512.755,2175.294,512.547,2175.372Zm20.744-11.286c-1.133-.649-2.2-1.249-3.249-1.868a.751.751,0,0,0-.766-.039q-8.029,3.507-16.064,7a1.474,1.474,0,0,1-1.286,0c-5.038-2.206-10.1-4.368-15.116-6.613a2.253,2.253,0,0,0-2.611.141,15.93,15.93,0,0,1-1.929,1.119c-.13.074-.257.155-.413.249.09.051.128.076.169.1q10.13,4.731,20.266,9.45a.8.8,0,0,0,.591-.031c2.561-1.181,5.114-2.38,7.67-3.572C524.767,2168.057,528.981,2166.094,533.292,2164.085Z" transform="translate(-488.694 -2131.38)" fill="#12263f"/>
        <path id="Trazado_132024" data-name="Trazado 132024" d="M512.553,2063.8c-.195-.071-.373-.122-.54-.2q-10.974-5.117-21.948-10.237c-.325-.152-.6-.33-.627-.729-.026-.424.244-.635.572-.821,1.551-.88,3.1-1.755,4.64-2.662a1.431,1.431,0,0,1,1.439-.084c5.349,2.344,10.709,4.664,16.06,7a.922.922,0,0,0,.824-.01c5.338-2.331,10.684-4.644,16.018-6.983a1.47,1.47,0,0,1,1.481.086c1.523.9,3.063,1.765,4.6,2.639.324.184.608.383.594.809s-.31.606-.648.764q-10.954,5.107-21.906,10.218C512.934,2063.677,512.741,2063.732,512.553,2063.8Zm20.715-11.273c-.178-.11-.3-.193-.435-.268-.9-.516-1.818-1.008-2.7-1.554a.924.924,0,0,0-.974-.053q-7.964,3.484-15.937,6.947a1.381,1.381,0,0,1-1.2.059c-5.281-2.31-10.572-4.6-15.848-6.916a1.314,1.314,0,0,0-1.4.067c-.94.593-1.923,1.118-2.942,1.7.225.111.385.193.547.269q9.859,4.6,19.714,9.208a.951.951,0,0,0,.9.007q7.239-3.4,14.489-6.773C529.394,2054.332,531.3,2053.445,533.268,2052.528Z" transform="translate(-488.688 -2030.256)" fill="#12263f"/>
      </g>
    </g>
  </g>
</svg>
