<svg xmlns="http://www.w3.org/2000/svg" xmlns:xlink="http://www.w3.org/1999/xlink" width="91.927" height="91.928" viewBox="0 0 91.927 91.928">
  <defs>
    <radialGradient id="radial-gradient" cx="0.076" cy="0.019" r="1.465" gradientTransform="translate(0.001)" gradientUnits="objectBoundingBox">
      <stop offset="0" stop-color="#f6f6f7"/>
      <stop offset="0.477" stop-color="#f9f9fa"/>
      <stop offset="0.715" stop-color="#fff"/>
    </radialGradient>
  </defs>
  <g id="Grupo_61713" data-name="Grupo 61713" transform="translate(-217 -741.334)">
    <g id="Grupo_42274" data-name="Grupo 42274" transform="translate(142 768.333)">
      <g id="Grupo_18423" data-name="Grupo 18423" transform="translate(75 -27)">
        <g id="Grupo_18421" data-name="Grupo 18421">
          <g id="Grupo_18420" data-name="Grupo 18420">
            <g id="Grupo_18419" data-name="Grupo 18419">
              <path id="Trazado_40936" data-name="Trazado 40936" d="M286.55,2191.684a45.964,45.964,0,1,1-45.963-45.962A45.963,45.963,0,0,1,286.55,2191.684Z" transform="translate(-194.623 -2145.721)" fill="#fff"/>
            </g>
          </g>
        </g>
        <path id="Trazado_40937" data-name="Trazado 40937" d="M286.23,2191.334a45.963,45.963,0,1,0-45.963,45.965A45.782,45.782,0,0,0,286.23,2191.334Z" transform="translate(-194.303 -2145.372)" fill="url(#radial-gradient)"/>
        <path id="Trazado_40938" data-name="Trazado 40938" d="M272.56,2188.562a35.084,35.084,0,1,0-35.084,35.084A34.953,34.953,0,0,0,272.56,2188.562Z" transform="translate(-191.373 -2142.446)" fill="none" stroke="#1e5af9" stroke-miterlimit="10" stroke-width="4"/>
        <g id="Grupo_18422" data-name="Grupo 18422" transform="translate(8.143 25.805)">
          <path id="Trazado_40939" data-name="Trazado 40939" d="M279.682,2164.488a45.969,45.969,0,0,1-79.137,45.773,45.823,45.823,0,0,0,79.137-45.773Z" transform="translate(-200.545 -2164.488)" fill="#eceef0"/>
        </g>
      </g>
    </g>
    <g id="Grupo_61731" data-name="Grupo 61731" transform="translate(-254.661 -555.327)">
      <path id="Trazado_132006" data-name="Trazado 132006" d="M505.282,1364.727a8.138,8.138,0,0,1-7.768-5,8.019,8.019,0,0,1,1.449-9.258c2.324-2.515,4.775-4.919,7.261-7.277a8.1,8.1,0,0,1,7.787-2.011,2.565,2.565,0,0,0,2.977-3.068,8.107,8.107,0,0,1,2.077-7.772q3.486-3.669,7.16-7.159a8.534,8.534,0,0,1,12.111,12.006c-2.342,2.5-4.774,4.923-7.266,7.273a8.1,8.1,0,0,1-7.789,2.005,2.557,2.557,0,0,0-2.969,3.058,7.983,7.983,0,0,1-1.874,7.535c-2.4,2.583-4.931,5.056-7.476,7.5A7.717,7.717,0,0,1,505.282,1364.727Zm18.375-22.373c2.333.859,4.188.653,5.641-.7a114.349,114.349,0,0,0,8.141-8.137,6.77,6.77,0,0,0-9.5-9.483,111.268,111.268,0,0,0-8.043,8.019,5.355,5.355,0,0,0-.964,5.749c.778-.935,1.5-1.787,2.205-2.655,1.192-1.471,2.342-2.977,3.589-4.4.186-.212.8-.051,1.212-.062a3.31,3.31,0,0,1-.094,1.252,7.706,7.706,0,0,1-1.148,1.344,3.736,3.736,0,0,1,3.521,3.449c2.018-1.987,4.037-3.771,5.764-5.8a3.341,3.341,0,0,0,.1-2.825c-.473-1.172-1.669-1.344-2.932-1.1a4.5,4.5,0,0,1-1.653-.344c.426-.435.777-1.081,1.293-1.267a4.247,4.247,0,0,1,4.331,6.977c-2.264,2.361-4.606,4.646-6.937,6.941a7.729,7.729,0,0,1-1.164.758C525.9,1340.829,524.778,1341.593,523.657,1342.355Zm-5.073,5.45a7.8,7.8,0,0,0-.949.893,42.2,42.2,0,0,1-2.839,3.987c-2,2.185-4.147,4.23-6.262,6.3-1.942,1.9-4.475,1.982-6.244.242-1.8-1.775-1.715-4.376.25-6.364q3.069-3.1,6.186-6.161a12.749,12.749,0,0,1,1.626-1.17c1.106-.777,2.213-1.553,3.638-2.552a6.768,6.768,0,0,0-6.919,1.734c-2.239,2.169-4.457,4.363-6.613,6.615a6.839,6.839,0,0,0,9.614,9.728c2.3-2.177,4.533-4.433,6.732-6.715A6.638,6.638,0,0,0,518.583,1347.8Zm-5.68,2.778a5.441,5.441,0,0,0,1.076-.708q5.909-5.861,11.779-11.761a1.707,1.707,0,1,0-2.4-2.406q-5.893,5.876-11.769,11.771a2.742,2.742,0,0,0-.545.746A1.743,1.743,0,0,0,512.9,1350.582Zm-3.822-1.856c-2.043,2.064-3.9,3.871-5.668,5.754a2.426,2.426,0,0,0-.053,3.388,2.392,2.392,0,0,0,3.359.394c1.984-1.867,3.831-3.88,5.84-5.942C510.478,1352.108,509.431,1350.935,509.082,1348.726Z" fill="#12263f"/>
      <path id="Trazado_132007" data-name="Trazado 132007" d="M578.08,1428.425a15.45,15.45,0,0,1,.033-2.332c.055-.361.482-.665.741-1,.314.333.879.652.9,1a42.411,42.411,0,0,1-.012,4.825c-.019.332-.528.635-.812.952-.282-.319-.755-.61-.809-.963A17.3,17.3,0,0,1,578.08,1428.425Z" transform="translate(-56.003 -71.708)" fill="#12263f"/>
      <path id="Trazado_132008" data-name="Trazado 132008" d="M604.493,1403.871a17.615,17.615,0,0,1-2.484-.037c-.348-.05-.637-.508-.953-.781.3-.288.581-.808.891-.823a49.055,49.055,0,0,1,4.976,0c.313.016.6.553.9.85-.28.258-.537.7-.845.739a19.59,19.59,0,0,1-2.483.036Z" transform="translate(-71.833 -55.929)" fill="#12263f"/>
      <path id="Trazado_132009" data-name="Trazado 132009" d="M552.643,1339.053a15.887,15.887,0,0,1-.036,2.327c-.053.354-.48.652-.738.976-.287-.293-.808-.575-.823-.881-.082-1.654-.083-3.317,0-4.971.016-.321.53-.617.814-.925.261.329.7.634.747.993A18.082,18.082,0,0,1,552.643,1339.053Z" transform="translate(-37.38 -10.111)" fill="#12263f"/>
      <path id="Trazado_132010" data-name="Trazado 132010" d="M526.654,1349.455a2.6,2.6,0,0,1,.6.314c1.217,1.186,2.452,2.358,3.6,3.609.21.229.044.8.051,1.217-.417-.03-.982.1-1.225-.117-1.218-1.107-2.372-2.289-3.5-3.492a1.2,1.2,0,0,1-.174-.967C526.063,1349.793,526.423,1349.643,526.654,1349.455Z" transform="translate(-20.171 -19.66)" fill="#12263f"/>
      <path id="Trazado_132011" data-name="Trazado 132011" d="M514.736,1376.713a13.278,13.278,0,0,1-2.165-.034c-.361-.061-.663-.48-.991-.738.3-.286.591-.8.905-.82,1.65-.082,3.308-.08,4.958,0,.31.016.6.528.893.811-.321.261-.62.7-.969.748a21.189,21.189,0,0,1-2.632.036Z" transform="translate(-10.266 -37.279)" fill="#12263f"/>
      <path id="Trazado_132012" data-name="Trazado 132012" d="M597.308,1420.756c-.521.09-1.214.417-1.443.216-1.322-1.165-2.556-2.435-3.76-3.725a1.025,1.025,0,0,1,.008-.983c.145-.2.774-.357.908-.232,1.394,1.311,2.733,2.681,4.08,4.041C597.165,1420.137,597.164,1420.265,597.308,1420.756Z" transform="translate(-65.59 -65.44)" fill="#12263f"/>
    </g>
  </g>
</svg>
