<svg xmlns="http://www.w3.org/2000/svg" width="75.71" height="75.71" viewBox="0 0 75.71 75.71">
  <g id="Grupo_1096675" data-name="Grupo 1096675" transform="translate(-1133.147 -10640.867)">
    <path id="Trazado_837284" data-name="Trazado 837284" d="M70.71,35.355A35.355,35.355,0,1,1,35.355,0,35.355,35.355,0,0,1,70.71,35.355" transform="translate(1135.647 10643.367)" fill="#fff" stroke="#6e40fc" stroke-width="5"/>
    <g id="fdJcr5.tif" transform="translate(1153.111 10660.835)">
      <g id="Grupo_56634" data-name="Grupo 56634">
        <path id="Trazado_122991" data-name="Trazado 122991" d="M-500,243.164h-3.543c-.143.547-.266,1.068-.419,1.578a13.616,13.616,0,0,1-1.719,3.689.413.413,0,0,0,.057.641c.757.725,1.491,1.474,2.19,2.168l-3.736,3.738-2.407-2.5a15.1,15.1,0,0,1-5.668,2.374v3.563h-5.276v-3.56a15.043,15.043,0,0,1-5.622-2.333l-2.488,2.522-3.72-3.748,2.495-2.465a15.057,15.057,0,0,1-2.352-5.654h-3.575V237.9h3.509a24.942,24.942,0,0,1,.752-2.426c.41-.974.922-1.909,1.427-2.841.145-.269.175-.414-.066-.639-.762-.718-1.5-1.465-2.2-2.155l3.731-3.74,2.421,2.485a15.133,15.133,0,0,1,5.669-2.375v-3.56h5.277v3.56a14.924,14.924,0,0,1,5.619,2.333l2.5-2.512,3.736,3.763c-.68.676-1.385,1.408-2.123,2.1a.52.52,0,0,0-.1.813,13.331,13.331,0,0,1,1.956,4.742c.067.34.205.456.562.448,1.03-.027,2.059-.01,3.117-.01Zm-6.739,5.71a14.39,14.39,0,0,0,2.641-6.349h3.469v-4H-504.1a14.337,14.337,0,0,0-2.634-6.34l2.432-2.419-2.819-2.806-2.414,2.428a14.38,14.38,0,0,0-6.352-2.65v-3.46H-519.9v3.465a14.4,14.4,0,0,0-6.4,2.683l-2.337-2.429-2.875,2.867,2.362,2.293c-.557,1.056-1.161,2.031-1.593,3.075s-.69,2.155-1.048,3.314h-3.359v3.99h3.465a14.406,14.406,0,0,0,2.653,6.362l-2.427,2.416,2.818,2.813,2.419-2.428a14.393,14.393,0,0,0,6.339,2.633v3.459h4.007v-3.465a14.506,14.506,0,0,0,6.4-2.68l2.337,2.434,2.821-2.821Z" transform="translate(535.78 -222.644)" fill="#12263f" stroke="#12263f" stroke-miterlimit="10" stroke-width="0.5"/>
        <path id="Trazado_122992" data-name="Trazado 122992" d="M-511.506,236.726c0,1.349,0,2.7,0,4.048,0,.851-.288,1.147-1.12,1.154a5.731,5.731,0,0,0-1.827.047c-.528.2-.915.764-1.375,1.156a8.367,8.367,0,0,1-11.525-.744,1.2,1.2,0,0,0-1.078-.466,14.9,14.9,0,0,1-1.527,0,.873.873,0,0,1-.947-.959q-.013-4.275,0-8.548a.883.883,0,0,1,.982-.972c.584-.015,1.171.024,1.753-.017a1.031,1.031,0,0,0,.643-.288,8.4,8.4,0,0,1,12.664.03.907.907,0,0,0,.565.259c.6.034,1.2,0,1.8.015a.891.891,0,0,1,.992,1.006C-511.5,233.876-511.506,235.3-511.506,236.726Zm-9.727,4.569q4.227,0,8.455,0c.638,0,.643-.005.643-.661q0-3.982,0-7.964c0-.579-.015-.594-.617-.594q-8.479,0-16.957-.008c-.424,0-.584.118-.58.557q.023,4.05,0,8.1c0,.456.153.585.6.582C-526.87,241.287-524.052,241.3-521.233,241.3Zm5.674-9.877c-3.3-3.684-9.013-2.919-11.232,0Zm-11.268,10.539a7.592,7.592,0,0,0,11.229,0Z" transform="translate(539.1 -218.8)" fill="#12263f"/>
        <path id="Trazado_122993" data-name="Trazado 122993" d="M-527.955,234.946l-.688.942-.535-.626.88-.695-.071-.138h-1.144v-.643h1.124l.079-.126-.917-.621.086-.2.592-.347.582.777.156-.093v-1.112h.646v1.125l.121.059.735-.967.407.626.156.057-.883.659.081.14h1.112v.638h-1.257l.9.942-.548.313-.789-.754v1.228h-.649v-1.1Z" transform="translate(540.056 -216.214)" fill="#12263f"/>
        <path id="Trazado_122994" data-name="Trazado 122994" d="M-522.969,232.96l.582-.59.745.917.118-.079v-1.134h.622v1.247l.972-.9.394.444-.87.91c.392,0,.676.008.961,0,.222-.008.325.062.326.306s-.072.358-.333.343a2.433,2.433,0,0,0-.873.093l.914.759-.535.454-.106.1-.69-.929-.138.084v1.154h-.627v-1.263l-.878,1-.453-.614.828-.671-.076-.14H-523.2v-.666h1.1l.044-.092Z" transform="translate(544.363 -216.21)" fill="#12263f"/>
        <path id="Trazado_122995" data-name="Trazado 122995" d="M-523.4,233.785h1.124v.624H-523.4l-.106.148,1.026.663-.632.547-.666-.89-.19.113-.05,1.139h-.592l-.06-1.21-.9.858-.432-.57.826-.678-.045-.1h-1.124v-.661h1.226l-.883-.932.51-.508.735.913.1-.05v-1.124h.649v1.119l.111.067.641-.9.2.062.328.456.148.108-.9.69Z" transform="translate(542.215 -216.212)" fill="#12263f"/>
      </g>
    </g>
  </g>
</svg>
