<svg xmlns="http://www.w3.org/2000/svg" width="75.71" height="75.71" viewBox="0 0 75.71 75.71">
  <g id="Grupo_1096708" data-name="Grupo 1096708" transform="translate(-1133.147 -10640.867)">
    <path id="Trazado_837284" data-name="Trazado 837284" d="M70.71,35.355A35.355,35.355,0,1,1,35.355,0,35.355,35.355,0,0,1,70.71,35.355" transform="translate(1135.647 10643.367)" fill="#fff" stroke="#6e40fc" stroke-width="5"/>
    <g id="Grupo_1096710" data-name="Grupo 1096710" transform="translate(1151.393 10659.142)">
      <path id="Trazado_122984" data-name="Trazado 122984" d="M-539.617,247.492l2.019,1.891c2.748-1.425,5.246-.972,6.774,1.215a4.8,4.8,0,0,1-.74,6.311,4.816,4.816,0,0,1-6.323.119,4.862,4.862,0,0,1-.652-6.755l-2.015-1.893a8.5,8.5,0,0,1-10.315.012l-2.113,1.976a17.166,17.166,0,0,1,.75,2.214,4.73,4.73,0,0,1-2.409,4.975,4.828,4.828,0,0,1-5.443-.549,4.8,4.8,0,0,1-1.332-5.54,4.83,4.83,0,0,1,4.85-2.94,4.832,4.832,0,0,1,2.319.824c.1.068.329.1.4.043.689-.613,1.355-1.25,2.039-1.889a8.463,8.463,0,0,1-1.848-8.426c-.878-.286-1.735-.576-2.6-.831-.086-.025-.263.13-.349.24a4.755,4.755,0,0,1-3.974,1.978,4.818,4.818,0,0,1-4.625-3.754,4.8,4.8,0,0,1,2.457-5.318,4.575,4.575,0,0,1,5.2.471,4.618,4.618,0,0,1,1.731,4.9c-.012.051-.019.1-.027.158a.658.658,0,0,0,.008.088l2.695.88a8.5,8.5,0,0,1,6.763-4.477v-2.28a4.859,4.859,0,0,1-4.12-5.407,4.792,4.792,0,0,1,4.919-4.214,4.81,4.81,0,0,1,4.656,4.284,4.861,4.861,0,0,1-4.13,5.331v2.286a8.676,8.676,0,0,1,3.978,1.4,8.539,8.539,0,0,1,2.82,3.18l2.664-.863c-.055-.5-.142-.972-.148-1.445a4.825,4.825,0,0,1,4.346-4.843,4.841,4.841,0,0,1,5.205,3.961,4.813,4.813,0,0,1-2.837,5.273,4.774,4.774,0,0,1-5.721-1.5.434.434,0,0,0-.59-.183c-.792.278-1.595.53-2.407.8A8.459,8.459,0,0,1-539.617,247.492Zm.974-5.756a7.1,7.1,0,0,0-7.148-7.053,7.105,7.105,0,0,0-7,7.16,7.107,7.107,0,0,0,7.168,6.992A7.111,7.111,0,0,0-538.644,241.736Zm-7.059-18.945a3.554,3.554,0,0,0-3.552,3.54,3.564,3.564,0,0,0,3.519,3.536,3.569,3.569,0,0,0,3.556-3.544A3.563,3.563,0,0,0-545.7,222.792Zm11.234,12.844a3.565,3.565,0,0,0,3.511,3.556,3.57,3.57,0,0,0,3.563-3.505,3.563,3.563,0,0,0-3.493-3.571A3.555,3.555,0,0,0-534.469,235.635Zm-22.5.029a3.56,3.56,0,0,0-3.513-3.552,3.565,3.565,0,0,0-3.562,3.505,3.568,3.568,0,0,0,3.5,3.571A3.558,3.558,0,0,0-556.969,235.665Zm0,14.131a3.57,3.57,0,0,0-3.542,3.486,3.563,3.563,0,0,0,3.515,3.591,3.573,3.573,0,0,0,3.561-3.505A3.562,3.562,0,0,0-556.965,249.8Zm22.169,7.076a3.559,3.559,0,0,0,3.542-3.561,3.565,3.565,0,0,0-3.55-3.517,3.567,3.567,0,0,0-3.525,3.544A3.566,3.566,0,0,0-534.8,256.872Z" transform="translate(565.333 -221.51)" fill="#12263f"/>
      <path id="Trazado_122985" data-name="Trazado 122985" d="M-549.656,230.382l.884.905-5.39,5.392-3.117-3.131.868-.8,2.175,2.222Z" transform="translate(572.963 -213.106)" fill="#12263f"/>
      <path id="Trazado_122986" data-name="Trazado 122986" d="M-551.923,225.086a2.238,2.238,0,0,1-2.247,2.235,2.237,2.237,0,0,1-2.243-2.235,2.234,2.234,0,0,1,2.265-2.255A2.237,2.237,0,0,1-551.923,225.086Zm-2.267.956a1,1,0,0,0,.985-.956,1,1,0,0,0-.966-.976,1,1,0,0,0-.964.935A1,1,0,0,0-554.189,226.042Z" transform="translate(573.783 -220.258)" fill="#12263f"/>
      <path id="Trazado_122987" data-name="Trazado 122987" d="M-546.577,227.619a2.236,2.236,0,0,1,2.247,2.233,2.238,2.238,0,0,1-2.224,2.257,2.239,2.239,0,0,1-2.267-2.214A2.236,2.236,0,0,1-546.577,227.619Zm.966,2.239a1,1,0,0,0-.979-.96,1,1,0,0,0-.95.95,1,1,0,0,0,.958.981A1,1,0,0,0-545.611,229.858Z" transform="translate(580.975 -215.723)" fill="#12263f"/>
      <path id="Trazado_122988" data-name="Trazado 122988" d="M-561.732,227.619a2.235,2.235,0,0,1,2.214,2.267,2.236,2.236,0,0,1-2.3,2.224,2.239,2.239,0,0,1-2.193-2.286A2.235,2.235,0,0,1-561.732,227.619Zm-.029,1.279a1,1,0,0,0-.966.976,1,1,0,0,0,.983.956,1,1,0,0,0,.946-.954A1,1,0,0,0-561.761,228.9Z" transform="translate(566.591 -215.723)" fill="#12263f"/>
      <path id="Trazado_122989" data-name="Trazado 122989" d="M-557.7,238.967a2.234,2.234,0,0,1-2.255,2.224,2.237,2.237,0,0,1-2.235-2.286,2.233,2.233,0,0,1,2.276-2.2A2.238,2.238,0,0,1-557.7,238.967Zm-1.281-.027a1,1,0,0,0-.979-.96.993.993,0,0,0-.948.95,1,1,0,0,0,.958.981A.992.992,0,0,0-558.982,238.939Z" transform="translate(568.31 -207.121)" fill="#12263f"/>
      <path id="Trazado_122990" data-name="Trazado 122990" d="M-548.566,241.19a2.238,2.238,0,0,1-2.235-2.245,2.236,2.236,0,0,1,2.234-2.245,2.235,2.235,0,0,1,2.257,2.224A2.238,2.238,0,0,1-548.566,241.19Zm.974-2.228a.993.993,0,0,0-.956-.983,1,1,0,0,0-.972.97,1,1,0,0,0,.939.962A.993.993,0,0,0-547.592,238.963Z" transform="translate(579.099 -207.121)" fill="#12263f"/>
    </g>
  </g>
</svg>
