<svg xmlns="http://www.w3.org/2000/svg" width="75.71" height="75.71" viewBox="0 0 75.71 75.71">
  <g id="Grupo_1096709" data-name="Grupo 1096709" transform="translate(-1133.147 -10640.867)">
    <path id="Trazado_837284" data-name="Trazado 837284" d="M70.71,35.355A35.355,35.355,0,1,1,35.355,0,35.355,35.355,0,0,1,70.71,35.355" transform="translate(1135.647 10643.367)" fill="#fff" stroke="#6e40fc" stroke-width="5"/>
    <g id="Grupo_1096712" data-name="Grupo 1096712" transform="translate(1153.729 10663.642)">
      <g id="Grupo_39107" data-name="Grupo 39107">
        <path id="Trazado_91710" data-name="Trazado 91710" d="M443.271,323.75H419.388a2.447,2.447,0,0,1-2.445-2.444l0-1.383a.567.567,0,0,1,.567-.568h0a.568.568,0,0,1,.568.567v1.383a1.311,1.311,0,0,0,1.309,1.309h23.882a1.311,1.311,0,0,0,1.309-1.309v-3.753a1.311,1.311,0,0,0-1.309-1.309H419.388a1.311,1.311,0,0,0-1.309,1.309v.685a.568.568,0,1,1-1.136,0v-.685a2.447,2.447,0,0,1,2.445-2.444h23.882a2.447,2.447,0,0,1,2.444,2.444v3.753A2.447,2.447,0,0,1,443.271,323.75Z" transform="translate(-416.942 -315.108)" fill="#12263f"/>
      </g>
      <g id="Grupo_39109" data-name="Grupo 39109" transform="translate(21.991 2.56)">
        <path id="Trazado_91711" data-name="Trazado 91711" d="M462.869,323.773a1.762,1.762,0,1,1,1.763-1.762A1.764,1.764,0,0,1,462.869,323.773Zm0-2.388a.626.626,0,0,0-.626.626.619.619,0,0,0,.626.626.627.627,0,0,0,.627-.626A.635.635,0,0,0,462.869,321.385Z" transform="translate(-461.107 -320.249)" fill="#12263f"/>
      </g>
      <g id="Grupo_39112" data-name="Grupo 39112" transform="translate(3.559 2.562)">
        <path id="Trazado_91714" data-name="Trazado 91714" d="M424.658,323.777a.567.567,0,0,1-.568-.568v-2.388a.568.568,0,1,1,1.136,0v2.388A.568.568,0,0,1,424.658,323.777Z" transform="translate(-424.09 -320.253)" fill="#12263f"/>
      </g>
      <g id="Grupo_39113" data-name="Grupo 39113" transform="translate(6.971 2.562)">
        <path id="Trazado_91715" data-name="Trazado 91715" d="M431.51,323.777a.568.568,0,0,1-.568-.568v-2.388a.568.568,0,1,1,1.136,0v2.388A.567.567,0,0,1,431.51,323.777Z" transform="translate(-430.942 -320.253)" fill="#12263f"/>
      </g>
      <g id="Grupo_39114" data-name="Grupo 39114" transform="translate(10.383 2.562)">
        <path id="Trazado_91716" data-name="Trazado 91716" d="M438.4,323.777a.568.568,0,0,1-.568-.56l-.032-2.389a.568.568,0,0,1,.56-.576h.008a.568.568,0,0,1,.568.56l.033,2.388a.568.568,0,0,1-.56.576Z" transform="translate(-437.795 -320.253)" fill="#12263f"/>
      </g>
      <g id="Grupo_39115" data-name="Grupo 39115" transform="translate(0 10.601)">
        <path id="Trazado_91717" data-name="Trazado 91717" d="M435.688,345.04h-16.3a2.447,2.447,0,0,1-2.444-2.444v-3.753a2.447,2.447,0,0,1,2.444-2.444h23.883a2.394,2.394,0,0,1,.626.081.568.568,0,0,1-.1,1.113c-.008,0-.03.014-.052.023l-6.8,2.942a1.148,1.148,0,0,0-.7,1.049v2.866A.567.567,0,0,1,435.688,345.04Zm-16.3-7.506a1.31,1.31,0,0,0-1.309,1.309V342.6a1.31,1.31,0,0,0,1.309,1.309h15.734v-2.3a2.282,2.282,0,0,1,1.378-2.09l4.579-1.982Z" transform="translate(-416.942 -336.398)" fill="#12263f"/>
      </g>
      <g id="Grupo_39116" data-name="Grupo 39116" transform="translate(3.559 13.167)">
        <path id="Trazado_91718" data-name="Trazado 91718" d="M424.658,345.075a.568.568,0,0,1-.568-.568v-2.388a.568.568,0,1,1,1.136,0v2.388A.568.568,0,0,1,424.658,345.075Z" transform="translate(-424.09 -341.551)" fill="#12263f"/>
      </g>
      <g id="Grupo_39117" data-name="Grupo 39117" transform="translate(6.971 13.167)">
        <path id="Trazado_91719" data-name="Trazado 91719" d="M431.51,345.075a.568.568,0,0,1-.568-.568v-2.388a.568.568,0,1,1,1.136,0v2.388A.568.568,0,0,1,431.51,345.075Z" transform="translate(-430.942 -341.551)" fill="#12263f"/>
      </g>
      <g id="Grupo_39118" data-name="Grupo 39118" transform="translate(10.383 13.167)">
        <path id="Trazado_91720" data-name="Trazado 91720" d="M438.4,345.076a.568.568,0,0,1-.568-.56l-.032-2.388a.567.567,0,0,1,.56-.576h.008a.568.568,0,0,1,.568.56l.033,2.388a.567.567,0,0,1-.56.576Z" transform="translate(-437.795 -341.552)" fill="#12263f"/>
      </g>
      <g id="Grupo_39119" data-name="Grupo 39119" transform="translate(0.007 21.218)">
        <path id="Trazado_91721" data-name="Trazado 91721" d="M438.678,366.363H419.4a2.447,2.447,0,0,1-2.444-2.444v-1.2a.568.568,0,0,1,1.135,0v1.2a1.31,1.31,0,0,0,1.309,1.309h18.015a12.713,12.713,0,0,1-1.773-2.95,6.335,6.335,0,0,1-.515-2.535v-.886H419.4a1.311,1.311,0,0,0-1.309,1.309v1.1a.568.568,0,1,1-1.135,0v-1.1a2.447,2.447,0,0,1,2.444-2.445H435.7a.568.568,0,0,1,.568.568v1.453a5.217,5.217,0,0,0,.424,2.087,11.678,11.678,0,0,0,2.4,3.568.567.567,0,0,1-.405.965Z" transform="translate(-416.957 -357.721)" fill="#12263f"/>
      </g>
      <g id="Grupo_39120" data-name="Grupo 39120" transform="translate(3.559 23.772)">
        <path id="Trazado_91722" data-name="Trazado 91722" d="M424.658,366.374a.567.567,0,0,1-.568-.568v-2.389a.568.568,0,0,1,1.136,0v2.389A.568.568,0,0,1,424.658,366.374Z" transform="translate(-424.09 -362.85)" fill="#12263f"/>
      </g>
      <g id="Grupo_39121" data-name="Grupo 39121" transform="translate(6.971 23.772)">
        <path id="Trazado_91723" data-name="Trazado 91723" d="M431.51,366.374a.568.568,0,0,1-.568-.568v-2.389a.568.568,0,0,1,1.136,0v2.389A.567.567,0,0,1,431.51,366.374Z" transform="translate(-430.942 -362.85)" fill="#12263f"/>
      </g>
      <g id="Grupo_39122" data-name="Grupo 39122" transform="translate(10.383 23.772)">
        <path id="Trazado_91724" data-name="Trazado 91724" d="M438.4,366.374a.568.568,0,0,1-.568-.56l-.032-2.388a.567.567,0,0,1,.56-.576h.008a.568.568,0,0,1,.568.56l.033,2.388a.568.568,0,0,1-.56.576Z" transform="translate(-437.795 -362.85)" fill="#12263f"/>
      </g>
      <g id="Grupo_39125" data-name="Grupo 39125" transform="translate(2.824 7.507)">
        <path id="Trazado_91725" data-name="Trazado 91725" d="M445.18,334.417h-22a.567.567,0,0,1-.568-.568v-3.1a.568.568,0,0,1,.568-.568h22a.568.568,0,0,1,.568.568v3.1A.567.567,0,0,1,445.18,334.417Zm-21.431-1.135h20.863V331.32H423.749Z" transform="translate(-422.613 -330.184)" fill="#12263f"/>
      </g>
      <g id="Grupo_39126" data-name="Grupo 39126" transform="translate(2.825 18.114)">
        <path id="Trazado_91726" data-name="Trazado 91726" d="M438.537,355.727H423.184a.567.567,0,0,1-.568-.568v-3.1a.568.568,0,0,1,.568-.568h15.353a.567.567,0,0,1,.568.568v3.1A.567.567,0,0,1,438.537,355.727Zm-14.785-1.136h14.218v-1.969H423.752Z" transform="translate(-422.616 -351.487)" fill="#12263f"/>
      </g>
      <g id="Grupo_39129" data-name="Grupo 39129" transform="translate(18.179 10.648)">
        <path id="Trazado_91729" data-name="Trazado 91729" d="M462.206,358.756a1.429,1.429,0,0,1-.445-.07,12.569,12.569,0,0,1-7.8-7.066,6.335,6.335,0,0,1-.515-2.535v-7.431a2.282,2.282,0,0,1,1.378-2.09l6.811-2.948a1.292,1.292,0,0,1,.385-.106,1.34,1.34,0,0,1,.764.11l6.8,2.943a2.289,2.289,0,0,1,1.372,2.091v2.866a.568.568,0,1,1-1.135,0v-2.866a1.151,1.151,0,0,0-.692-1.05l-6.807-2.946a.259.259,0,0,0-.155-.023.4.4,0,0,0-.1.029l-6.8,2.942a1.148,1.148,0,0,0-.7,1.049v7.431a5.218,5.218,0,0,0,.424,2.087,11.427,11.427,0,0,0,7.108,6.435.362.362,0,0,0,.2-.007,11.586,11.586,0,0,0,7.091-6.428,5.308,5.308,0,0,0,.417-2.087v-3.006a.568.568,0,1,1,1.135,0v3.006a6.442,6.442,0,0,1-.509,2.535,12.664,12.664,0,0,1-7.727,7.038A1.313,1.313,0,0,1,462.206,358.756Z" transform="translate(-453.45 -336.493)" fill="#12263f"/>
      </g>
      <g id="Grupo_39132" data-name="Grupo 39132" transform="translate(20.616 13.442)">
        <path id="Trazado_91732" data-name="Trazado 91732" d="M464.66,358.814a.564.564,0,0,1-.19-.033,9.766,9.766,0,0,1-5.769-5.364,4.234,4.234,0,0,1-.338-1.676l-.017-6.579a.569.569,0,0,1,.342-.522l5.753-2.489a.566.566,0,0,1,.451,0l5.731,2.482a.568.568,0,0,1,.342.521v6.588a4.228,4.228,0,0,1-.335,1.671,9.764,9.764,0,0,1-5.78,5.369A.557.557,0,0,1,464.66,358.814Zm-5.178-13.28.016,6.206a3.1,3.1,0,0,0,.245,1.229,8.632,8.632,0,0,0,4.917,4.673,8.632,8.632,0,0,0,4.925-4.677,3.1,3.1,0,0,0,.243-1.223v-6.215l-5.163-2.235Z" transform="translate(-458.345 -342.104)" fill="#12263f"/>
      </g>
    </g>
  </g>
</svg>
