<svg xmlns="http://www.w3.org/2000/svg" xmlns:xlink="http://www.w3.org/1999/xlink" width="91.927" height="91.928" viewBox="0 0 91.927 91.928">
  <defs>
    <radialGradient id="radial-gradient" cx="0.076" cy="0.019" r="1.465" gradientTransform="translate(0.001)" gradientUnits="objectBoundingBox">
      <stop offset="0" stop-color="#f6f6f7"/>
      <stop offset="0.477" stop-color="#f9f9fa"/>
      <stop offset="0.715" stop-color="#fff"/>
    </radialGradient>
  </defs>
  <g id="Grupo_61723" data-name="Grupo 61723" transform="translate(-217 -741.334)">
    <g id="Grupo_42274" data-name="Grupo 42274" transform="translate(142 768.333)">
      <g id="Grupo_18423" data-name="Grupo 18423" transform="translate(75 -27)">
        <g id="Grupo_18421" data-name="Grupo 18421">
          <g id="Grupo_18420" data-name="Grupo 18420">
            <g id="Grupo_18419" data-name="Grupo 18419">
              <path id="Trazado_40936" data-name="Trazado 40936" d="M286.55,2191.684a45.964,45.964,0,1,1-45.963-45.962A45.963,45.963,0,0,1,286.55,2191.684Z" transform="translate(-194.623 -2145.721)" fill="#fff"/>
            </g>
          </g>
        </g>
        <path id="Trazado_40937" data-name="Trazado 40937" d="M286.23,2191.334a45.963,45.963,0,1,0-45.963,45.965A45.782,45.782,0,0,0,286.23,2191.334Z" transform="translate(-194.303 -2145.372)" fill="url(#radial-gradient)"/>
        <path id="Trazado_40938" data-name="Trazado 40938" d="M272.56,2188.562a35.084,35.084,0,1,0-35.084,35.084A34.953,34.953,0,0,0,272.56,2188.562Z" transform="translate(-191.373 -2142.446)" fill="none" stroke="#1e5af9" stroke-miterlimit="10" stroke-width="4"/>
        <g id="Grupo_18422" data-name="Grupo 18422" transform="translate(8.143 25.805)">
          <path id="Trazado_40939" data-name="Trazado 40939" d="M279.682,2164.488a45.969,45.969,0,0,1-79.137,45.773,45.823,45.823,0,0,0,79.137-45.773Z" transform="translate(-200.545 -2164.488)" fill="#eceef0"/>
        </g>
      </g>
    </g>
    <g id="pXbEBR.tif" transform="translate(-413.967 -441.685)">
      <g id="Grupo_61734" data-name="Grupo 61734" transform="translate(656.431 1208.671)">
        <path id="Trazado_132018" data-name="Trazado 132018" d="M656.431,1216.1c2.017-.523,4.054-.98,6.047-1.584a57.343,57.343,0,0,0,10.056-4.51,8.925,8.925,0,0,1,4.736-1.323,8.132,8.132,0,0,1,3.139.891c1.917.948,3.8,1.96,5.734,2.882A48.28,48.28,0,0,0,696.83,1216c.18.039.357.091.6.154-.052,1.521-.06,3.03-.165,4.532a46.96,46.96,0,0,1-1.727,9.951,41.616,41.616,0,0,1-16.018,22.823c-.653.468-1.368.849-2.036,1.3a.979.979,0,0,1-1.129.017,32.209,32.209,0,0,1-6.733-4.868,40.4,40.4,0,0,1-11.736-20.42,48.627,48.627,0,0,1-1.362-9.547,4.359,4.359,0,0,0-.093-.55Zm1.951,1.547c0,.1,0,.251,0,.4a52.1,52.1,0,0,0,1.019,9.391,39.113,39.113,0,0,0,10.016,19.645,29.758,29.758,0,0,0,7.068,5.6.661.661,0,0,0,.795,0c.649-.446,1.342-.83,1.978-1.294a38.227,38.227,0,0,0,13.62-18.575,46.384,46.384,0,0,0,2.449-12.095c.079-1.04.1-2.085.144-3.141-.23-.061-.408-.112-.588-.156a53.056,53.056,0,0,1-11.168-4.056c-1.576-.79-3.153-1.578-4.744-2.337a4.626,4.626,0,0,0-4.118,0c-.512.238-1.037.45-1.537.709a62.4,62.4,0,0,1-9.3,4.189C662.162,1216.534,660.29,1217.067,658.382,1217.646Z" transform="translate(-656.431 -1208.671)" fill="#12263f"/>
        <path id="Trazado_132019" data-name="Trazado 132019" d="M787.6,1314.331c.462,0,.821-.02,1.177,0a1.607,1.607,0,0,1,1.6,1.521q.061,4.964,0,9.929a1.694,1.694,0,0,1-1.591,1.553,5.961,5.961,0,0,1-.616.022h-12.3c-1.583,0-2.22-.631-2.222-2.21q0-4.348,0-8.7c0-1.49.64-2.131,2.123-2.139h.7c0-.7-.024-1.346,0-1.99a5.562,5.562,0,0,1,11.122.016C787.627,1312.971,787.6,1313.6,787.6,1314.331Zm-12.039,11.106h12.93v-9.206h-12.93ZM785.8,1314.29a18.155,18.155,0,0,0-.177-2.559,3.542,3.542,0,0,0-2.608-2.833,3.441,3.441,0,0,0-3.642,1.051c-1.178,1.249-1.11,2.78-1.008,4.341Z" transform="translate(-761.555 -1296.724)" fill="#12263f"/>
        <path id="Trazado_132020" data-name="Trazado 132020" d="M843.409,1424.332a1.219,1.219,0,0,1,1.17.687,1.2,1.2,0,0,1-.092,1.306,1.92,1.92,0,0,0-.223.7,3.321,3.321,0,0,0-.008.565c-.009.639-.316,1.023-.822,1.033s-.835-.378-.847-1.007c0-.085,0-.172,0-.257a1.842,1.842,0,0,0-.305-1.2A1.224,1.224,0,0,1,843.409,1424.332Z" transform="translate(-822.937 -1402.078)" fill="#12263f"/>
      </g>
    </g>
  </g>
</svg>
