<svg xmlns="http://www.w3.org/2000/svg" xmlns:xlink="http://www.w3.org/1999/xlink" width="400" height="359" viewBox="0 0 400 359">
  <defs>
    <clipPath id="clip-path">
      <rect id="Rectángulo_388535" data-name="Rectángulo 388535" width="400" height="359" transform="translate(180 10577)" fill="#fff"/>
    </clipPath>
    <linearGradient id="linear-gradient" y1="0.488" x2="0.89" y2="0.487" gradientUnits="objectBoundingBox">
      <stop offset="0" stop-color="#e8e4ff" stop-opacity="0.471"/>
      <stop offset="1" stop-color="#e5e8ff"/>
    </linearGradient>
  </defs>
  <g id="Enmascarar_grupo_1090668" data-name="Enmascarar grupo 1090668" transform="translate(-180 -10577)" clip-path="url(#clip-path)">
    <g id="_22917188086832_Convertido_" data-name="22917188086832 [Convertido]" transform="translate(195 10671.001)">
      <g id="Desk" transform="translate(10.785 375.942)">
        <path id="Trazado_818347" data-name="Trazado 818347" d="M365.331,439.772c0,.12-78.969.222-176.352.222s-176.369-.1-176.369-.222,78.952-.222,176.369-.222S365.331,439.653,365.331,439.772Z" transform="translate(-12.61 -439.55)" fill="#263238"/>
      </g>
      <g id="Character" transform="translate(24.281 -3.047)">
        <g id="Grupo_1072210" data-name="Grupo 1072210" transform="translate(159.834 -74.953)" opacity="0.84">
          <path id="Trazado_827885" data-name="Trazado 827885" d="M42.867,55.033V59.5H27.97v.438H68.246v14.6H27.97v.45h14.9v14.6H27.97v.438H68.246v14.6H27.97v.438h14.9v14.6H27.97v.438H68.246v14.6H27.97v.45h14.9v14.6H27.97v.45H68.246v14.6H27.97v.45h14.9v14.6H27.97v.438H68.246v14.6H27.97v.45h14.9v14.6H27.97v.438H68.246v14.6H27.97v.438h14.9v14.6H27.97v.45H68.246v14.6H27.97v.45h14.9v14.6H27.97v.45H68.246v14.6H27.97v.45h14.9v14.6H27.97v.438H68.246v14.6H27.97v.45h14.9v14.6H27.97v.45H68.246v14.6H27.97v.45h14.9v14.6H27.97v.438H68.246v14.6H27.97v.438h14.9v14.6H27.97v.45H68.246v14.6H27.97v.45h14.9v14.6H27.97v.438H68.246v14.6H27.97v.45h14.9v14.6H27.97v.45H68.246v14.6H27.97v.438h14.9v14.6H27.97v.438H68.246V486.3h.438V481.11H119V486.3h.438V481.11h50.32V486.3h.438V481.11h44.091c.4-.15.8-.288,1.2-.438h-19.9v-14.6h44.954c.175-.15.35-.3.525-.438h-20.1v-14.6h33.91c.113-.15.213-.3.325-.45h-8.856v-14.6h17.636c.075-.15.138-.3.213-.45H220.97v-14.6h48.544c.038-.15.088-.3.125-.438h-23.29v-14.6h25.792c0-.15.025-.3.038-.45h-.45v-14.6h.388l-.038-.45H246.349v-14.6h23.115a4.464,4.464,0,0,0-.125-.438H220.958v-14.6h42.928c-.075-.15-.138-.3-.213-.438H246.337v-14.6h8.393l-.338-.45H220.97V330.7h19.35c-.175-.15-.363-.3-.55-.45H195.591v-14.6h18.162l-1.276-.45H170.213v-7.492a4.668,4.668,0,0,1-.438-.2v7.68h-50.32v-14.6H159.33c-.163-.15-.313-.288-.463-.438H144.846v-14.6h4.716l-.15-.45H119.467v-14.6H147.66c0-.15.025-.3.038-.45h-2.852v-14.6h7.4c.088-.15.163-.3.25-.45H119.467v-14.6h48.394l.9-.45h-23.9v-14.6h50.308v10.507l.45-.075V225.368h20.376c.15-.15.3-.3.45-.438H170.225v-14.6h50.32v9.731l.45-.638v-9.093h4.578c.05-.15.1-.3.15-.438H195.616V195.3h32c0-.15-.013-.3-.025-.45H221v-14.6h2.477a4.882,4.882,0,0,0-.238-.438H195.616v-14.6h14.172l-.713-.45H170.237v-6.579c-.15-.063-.3-.113-.438-.175v6.754h-50.32v-14.6h42.315l-.188-.45H144.859v-14.6h18.662c.113-.15.225-.3.35-.45H119.479v-14.6H169.8v10.157c.15-.063.3-.125.438-.175v-9.981h25.542c.025-.15.038-.3.05-.438h-.213v-3.2a9.311,9.311,0,0,0-.45-1.451v4.653H144.858V108.355h-.438v11.282H94.113v-14.6h14.634c-.188-.15-.375-.288-.563-.438H68.734v-14.6h33.659c.013-.15.038-.3.063-.438H94.113v-14.6h48.431c.325-.138.625-.288.938-.45H119.5v-14.6H147.4c-.1-.15-.188-.3-.288-.438h-2.226V57.159c-.15-.113-.288-.213-.438-.325v2.652H94.138V55.02h-.45v4.465H43.367V55.02h-.45ZM204.3,120.1c-.025-.15-.038-.3-.05-.438h20.663a2.464,2.464,0,0,1-.05.438h-3.89v6.8c-.15.113-.3.225-.45.325V120.1H204.285ZM43.317,466h50.32v14.6H43.317V466Zm50.758,0h50.308v14.6H94.076V466Zm50.758,0h50.308v14.6H144.833V466ZM68.7,450.965h50.32v14.6H68.7v-14.6Zm50.758,0h50.32v14.6h-50.32v-14.6Zm50.758,0h50.32v14.6h-50.32v-14.6ZM43.318,435.93h50.32v14.6H43.318v-14.6Zm50.758,0h50.308v14.6H94.076v-14.6Zm50.758,0h50.308v14.6H144.834v-14.6Zm50.758,0h50.32v14.6h-50.32v-14.6ZM68.7,420.9h50.32v14.6H68.7V420.9Zm50.758,0h50.32v14.6h-50.32V420.9Zm50.758,0h50.32v14.6h-50.32V420.9ZM43.318,405.861h50.32v14.6H43.318v-14.6Zm50.758,0h50.308v14.6H94.076v-14.6Zm50.758,0h50.308v14.6H144.834v-14.6Zm50.758,0h50.32v14.6h-50.32v-14.6ZM68.7,390.826h50.32v14.6H68.7v-14.6Zm50.758,0h50.32v14.6h-50.32v-14.6Zm50.758,0h50.32v14.6h-50.32v-14.6Zm50.758,0h50.308v14.6h-50.32v-14.6h0ZM43.318,375.779h50.32v14.6H43.318v-14.6Zm50.758,0h50.308v14.6H94.076v-14.6Zm50.758,0h50.308v14.6H144.834v-14.6Zm50.758,0h50.32v14.6h-50.32v-14.6ZM68.7,360.744h50.32v14.6H68.7v-14.6Zm50.758,0h50.32v14.6h-50.32v-14.6Zm50.758,0h50.32v14.6h-50.32v-14.6Zm-126.9-15.035h50.32v14.6H43.318v-14.6Zm50.758,0h50.308v14.6H94.076v-14.6Zm50.758,0h50.308v14.6H144.834v-14.6Zm50.758,0h50.32v14.6h-50.32v-14.6ZM68.7,330.674h50.32v14.6H68.7v-14.6Zm50.758,0h50.32v14.6h-50.32v-14.6Zm50.758,0h50.32v14.6h-50.32v-14.6ZM43.318,315.64h50.32v14.6H43.318v-14.6Zm50.758,0h50.308v14.6H94.076v-14.6Zm50.758,0h50.308v14.6H144.834v-14.6ZM68.7,300.592h50.32v14.6H68.7v-14.6ZM43.318,285.558h50.32v14.6H43.318v-14.6Zm50.758,0h50.308v14.6H94.076v-14.6ZM68.7,270.523h50.32v14.6H68.7v-14.6ZM43.318,255.488h50.32v14.6H43.318v-14.6Zm50.758,0h50.308v14.6H94.076v-14.6ZM68.7,240.453h50.32v14.6H68.7v-14.6ZM43.318,225.418h50.32v14.6H43.318v-14.6Zm50.758,0h50.308v14.6H94.076v-14.6ZM68.7,210.384h50.32v14.6H68.7v-14.6Zm50.758,0h50.32v14.6h-50.32v-14.6ZM43.318,195.349h50.32v14.6H43.318v-14.6Zm50.758,0h50.308v14.6H94.076v-14.6Zm50.758,0h50.308v14.6H144.834v-14.6ZM68.7,180.314h50.32v14.6H68.7v-14.6Zm50.758,0h50.32v14.6h-50.32v-14.6Zm50.758,0h50.32v14.6h-50.32v-14.6Zm-126.9-15.035h50.32v14.6H43.318v-14.6Zm50.758,0h50.308v14.6H94.076v-14.6Zm50.758,0h50.308v14.6H144.834v-14.6ZM68.7,150.245h50.32v14.6H68.7v-14.6ZM43.318,135.21h50.32v14.6H43.318v-14.6Zm50.758,0h50.308v14.6H94.076v-14.6ZM68.7,120.175h50.32v14.6H68.7v-14.6ZM43.318,105.14h50.32v14.6H43.318v-14.6Zm0-30.082h50.32v14.6H43.318v-14.6ZM68.7,60.023h50.32v14.6H68.7Z" transform="translate(-27.97 -55.02)" fill="#73afcc" fill-rule="evenodd"/>
          <rect id="Rectángulo_387137" data-name="Rectángulo 387137" width="39" height="179" transform="translate(165.885 269.999)" fill="url(#linear-gradient)"/>
        </g>
      </g>
      <g id="Grupo_1084884" data-name="Grupo 1084884" transform="translate(-0.123 -78)">
        <rect id="Rectángulo_375513" data-name="Rectángulo 375513" width="41.088" height="81.441" transform="translate(0 75.257)" fill="#12263f"/>
        <rect id="Rectángulo_375514" data-name="Rectángulo 375514" width="44.39" height="81.441" transform="translate(42.662 75.257)" fill="#12263f"/>
        <rect id="Rectángulo_375515" data-name="Rectángulo 375515" width="44.39" height="78.687" transform="translate(42.662 162.385)" fill="#12263f"/>
        <path id="Trazado_818258" data-name="Trazado 818258" d="M108.44,73.846h46.75V1.6h1.582V73.846h38.043V0H108.44Z" transform="translate(-15.692)" fill="#12263f"/>
        <rect id="Rectángulo_375516" data-name="Rectángulo 375516" width="38.043" height="81.441" transform="translate(141.08 75.257)" fill="#12263f"/>
        <rect id="Rectángulo_375517" data-name="Rectángulo 375517" width="38.043" height="78.687" transform="translate(141.08 162.385)" fill="#12263f"/>
        <rect id="Rectángulo_375518" data-name="Rectángulo 375518" width="41.088" height="78.687" transform="translate(0 162.385)" fill="#12263f"/>
        <rect id="Rectángulo_375519" data-name="Rectángulo 375519" width="46.75" height="78.687" transform="translate(92.748 162.385)" fill="#12263f"/>
        <rect id="Rectángulo_375520" data-name="Rectángulo 375520" width="41.088" height="70.912" transform="translate(0 242.483)" fill="#12263f"/>
        <rect id="Rectángulo_375521" data-name="Rectángulo 375521" width="38.043" height="70.912" transform="translate(141.08 242.483)" fill="#12263f"/>
        <path id="Trazado_818259" data-name="Trazado 818259" d="M41.088,73.846V1.6h1.574V73.846h44.4V0H0V73.846Z" fill="#12263f"/>
        <rect id="Rectángulo_375522" data-name="Rectángulo 375522" width="46.75" height="70.912" transform="translate(92.748 242.483)" fill="#12263f"/>
        <rect id="Rectángulo_375523" data-name="Rectángulo 375523" width="44.39" height="70.912" transform="translate(42.662 242.483)" fill="#12263f"/>
        <rect id="Rectángulo_375524" data-name="Rectángulo 375524" width="46.75" height="81.441" transform="translate(92.748 75.257)" fill="#12263f"/>
      </g>
    </g>
    <g id="_4264701" data-name="4264701" transform="translate(98.968 10391.982)">
      <g id="Doodles" transform="translate(35.398 151.549)">
        <g id="Grupo_1096518" data-name="Grupo 1096518" transform="translate(0)">
          <path id="Trazado_837290" data-name="Trazado 837290" d="M44.135,269.522,32.49,244.72H75.421Z" transform="translate(-32.49 -97.718)" fill="none" stroke="#263238" stroke-linecap="round" stroke-linejoin="round" stroke-width="1"/>
          <path id="Trazado_837291" data-name="Trazado 837291" d="M182.154,136.79l5.38,14.465-24.094-2Z" transform="translate(14.916 -136.79)" fill="none" stroke="#263238" stroke-linecap="round" stroke-linejoin="round" stroke-width="1"/>
          <path id="Trazado_837292" data-name="Trazado 837292" d="M181.75,27.75l12.9,6.238-12.9,6.32,12.9,7.968-12.9,8.649,14.478,6.687L184.815,74.236" transform="translate(-51.997 27.879)" fill="none" stroke="#fff" stroke-linecap="round" stroke-linejoin="round" stroke-width="1"/>
          <circle id="Elipse_11089" data-name="Elipse 11089" cx="11.686" cy="11.686" r="11.686" transform="translate(50.953 75.853)" fill="none" stroke="#fff" stroke-linecap="round" stroke-linejoin="round" stroke-width="1"/>
          <g id="Grupo_1096620" data-name="Grupo 1096620" transform="translate(0 -80)">
            <line id="Línea_3975" data-name="Línea 3975" x2="25.742" y2="14.71" transform="translate(410.692 132.292)" fill="none" stroke="#263238" stroke-linecap="round" stroke-linejoin="round" stroke-width="1"/>
            <line id="Línea_3976" data-name="Línea 3976" x1="9.915" y2="19.518" transform="translate(417.034 136.065)" fill="none" stroke="#263238" stroke-linecap="round" stroke-linejoin="round" stroke-width="1"/>
          </g>
          <line id="Línea_3977" data-name="Línea 3977" x1="27.867" y2="10.12" transform="translate(329.893 35.181)" fill="none" stroke="#263238" stroke-linecap="round" stroke-linejoin="round" stroke-width="1"/>
          <line id="Línea_3978" data-name="Línea 3978" x1="8.485" y1="20.185" transform="translate(338.256 29.025)" fill="none" stroke="#263238" stroke-linecap="round" stroke-linejoin="round" stroke-width="1"/>
          <path id="Trazado_837294" data-name="Trazado 837294" d="M101.13,241.039c-.191.5,20.267-8.84,20.267-8.84l10,22.9-20.28,8.853-9.984-22.9Z" transform="translate(-36.642 -96.25)" fill="none" stroke="#fff" stroke-linecap="round" stroke-linejoin="round" stroke-width="1"/>
          <path id="Trazado_837295" data-name="Trazado 837295" d="M309.227,216.17c-.218-.027,5.394,6.756,5.394,6.756l-7.627,6.088-5.393-6.756,7.641-6.088Z" transform="translate(6.024 -67.316)" fill="none" stroke="#263238" stroke-linecap="round" stroke-linejoin="round" stroke-width="1"/>
          <path id="Trazado_837296" data-name="Trazado 837296" d="M35.259,170.9a5.21,5.21,0,1,1-5.2-5.217A5.2,5.2,0,0,1,35.259,170.9Z" transform="translate(46.761 -120.471)" fill="none" stroke="#fff" stroke-linecap="round" stroke-linejoin="round" stroke-width="1"/>
          <path id="Trazado_837298" data-name="Trazado 837298" d="M316.68,262.32l5.543,9.262-11.332.885,3,8.676-12.558.94,6.115,16.63" transform="translate(47.926 -53.346)" fill="none" stroke="#263238" stroke-linecap="round" stroke-linejoin="round" stroke-width="1"/>
          <path id="Trazado_837299" data-name="Trazado 837299" d="M98.362,317.73l9.779,5.9L95.053,334.306l8.2,5.176L92.71,351.154" transform="translate(-10.69 -71.287)" fill="none" stroke="#263238" stroke-linecap="round" stroke-linejoin="round" stroke-width="1"/>
          <path id="Trazado_837300" data-name="Trazado 837300" d="M306.479,107.144l-8.049-8.09,15.3-7.178-6.687-7.014L320.1,76.09" transform="translate(-9.996 13.817)" fill="none" stroke="#263238" stroke-linecap="round" stroke-linejoin="round" stroke-width="1"/>
          <g id="Grupo_1096621" data-name="Grupo 1096621" transform="translate(246.463 15.932)">
            <path id="Trazado_837424" data-name="Trazado 837424" d="M134.351,68.47C126.487,75.8,106.36,83.2,82.89,98.9c0,0,1.466,53.056,51.461,82.052Z" fill="#6e40fc" stroke="#263238" stroke-linecap="round" stroke-linejoin="round" stroke-width="1"/>
            <path id="Trazado_837425" data-name="Trazado 837425" d="M163.25,68.47C171.114,75.8,191.241,83.2,214.711,98.9c0,0-1.466,53.056-51.461,82.052Z" transform="translate(-28.899)" fill="#263238" stroke="#263238" stroke-linecap="round" stroke-linejoin="round" stroke-width="1"/>
            <path id="Trazado_837426" data-name="Trazado 837426" d="M136.473,75.53c-9.49,6.59-25.942,12.865-47.683,27.415,0,0,1.358,49.162,47.683,76.033,46.325-26.871,47.689-76.033,47.689-76.033C162.415,88.4,146.04,82.12,136.473,75.53Z" transform="translate(-2.122 -2.539)" fill="#263238" stroke="#263238" stroke-linecap="round" stroke-linejoin="round" stroke-width="1"/>
            <path id="Trazado_837427" data-name="Trazado 837427" d="M210.929,102.945C189.182,88.4,172.807,82.12,163.24,75.53V178.984c46.325-26.87,47.689-76.033,47.689-76.033Z" transform="translate(-28.895 -2.539)" fill="#6e40fc" stroke="#263238" stroke-linecap="round" stroke-linejoin="round" stroke-width="1"/>
            <g id="Grupo_1096543" data-name="Grupo 1096543" transform="translate(111.726 82.987)">
              <path id="Trazado_837428" data-name="Trazado 837428" d="M169.833,130.709H134.292a2.921,2.921,0,0,1-2.952-2.895V111.427a20.727,20.727,0,0,1,41.446,0v16.387A2.925,2.925,0,0,1,169.833,130.709Zm-32.589-5.783h29.631v-13.5a14.822,14.822,0,0,0-29.637,0v13.5Z" transform="translate(-129.15 -91.14)" fill="#fff" stroke="#263238" stroke-linecap="round" stroke-linejoin="round" stroke-width="1"/>
              <rect id="Rectángulo_388549" data-name="Rectángulo 388549" width="45.25" height="37.43" transform="translate(0 31.673)" fill="#fff" stroke="#263238" stroke-linecap="round" stroke-linejoin="round" stroke-width="1"/>
              <path id="Trazado_837429" data-name="Trazado 837429" d="M165.059,162.162a4.926,4.926,0,0,0-9.849,0,4.805,4.805,0,0,0,2.587,4.246l-.826,8.5H163.3l-.826-8.5a4.8,4.8,0,0,0,2.587-4.246Z" transform="translate(-137.734 -114.947)" fill="#263238" stroke="#263238" stroke-linecap="round" stroke-linejoin="round" stroke-width="1"/>
            </g>
          </g>
          <g id="Grupo_1096622" data-name="Grupo 1096622" transform="translate(394.338 237.469)">
            <path id="Trazado_837586" data-name="Trazado 837586" d="M169.68,286h34.735V264.654H184.263L182.2,259.43H169.68Z" transform="translate(-169.68 -259.43)" fill="#6e40fc" stroke="#263238" stroke-miterlimit="10" stroke-width="1"/>
            <path id="Trazado_837587" data-name="Trazado 837587" d="M169.68,305.933h34.735V284.587H184.263L182.2,279.38H169.68Z" transform="translate(-169.68 -244.87)" fill="#263238" stroke="#263238" stroke-miterlimit="10" stroke-width="1"/>
            <path id="Trazado_837588" data-name="Trazado 837588" d="M169.68,325.873h34.735V304.527H184.263L182.2,299.32H169.68Z" transform="translate(-169.68 -230.317)" fill="#263238" stroke="#263238" stroke-miterlimit="10" stroke-width="1"/>
          </g>
        </g>
      </g>
      <g id="Character-2" data-name="Character" transform="translate(119.266 207.518)">
        <g id="Grupo_1096539" data-name="Grupo 1096539">
          <g id="Grupo_1096530" data-name="Grupo 1096530" transform="translate(6.871 162.263)">
            <path id="Trazado_837335" data-name="Trazado 837335" d="M329.927,520.9c6.96-8.622,11.128-93.369,11.128-93.369C350.221,434.073,379.39,537.2,379.39,537.2a121.671,121.671,0,0,0,22.759-5.68,92.838,92.838,0,0,0,21.506-10.664c-6.618-9.759-12.648-39.806-26.76-73.012-17.259-40.611-43-85.127-51.538-91.581-5.966-4.508-24.448-8.908-24.448-8.908-4.195-3.786-13.307,0-13.307,0-49.359,12.558-94.524-3.7-94.524-3.7s-6.4-2.956-11.645,0a69.91,69.91,0,0,0-15.363,0c-11.3,1.553-23.645,14.465-28.738,20.335-1.525,1.757-43.38,50.245-43.38,50.245s-1.457,19.776,1.607,22.392c24.53,21.016,60.678-26.736,60.678-26.736.232.1.79,101.6,20.144,123.279,0,0,13.715,6.265,67.052,1.362,52.914-4.862,66.534-13.62,66.534-13.62Z" transform="translate(-113.606 -342.336)" fill="#6e40fc"/>
            <g id="Grupo_1096529" data-name="Grupo 1096529" transform="translate(17.222 20.096)">
              <path id="Trazado_837336" data-name="Trazado 837336" d="M140.347,394.041c-8.213.722-12.462-1.239-14.1-4.726h0c11.822-13.688,25.619-29.678,26.478-30.673.409-.477.872-.994,1.362-1.553C160.219,370.819,165.313,391.862,140.347,394.041Z" transform="translate(-126.25 -357.09)" opacity="0.2"/>
              <path id="Trazado_837337" data-name="Trazado 837337" d="M164.613,428.929a166.5,166.5,0,0,1-5.053-32.77s5.938-7.777,7.586-15.949C167.146,380.21,174.855,410.951,164.613,428.929Z" transform="translate(-114.191 -348.72)" opacity="0.2"/>
              <path id="Trazado_837338" data-name="Trazado 837338" d="M291.418,421.791a65.018,65.018,0,0,0-10.828-9.983s.586-19.518,6.034-25.429c4.386-4.753,9.057,19.926,4.794,35.412Z" transform="translate(-70.377 -346.703)" opacity="0.2"/>
            </g>
          </g>
          <path id="Trazado_837339" data-name="Trazado 837339" d="M272.43,438.259c6.96-8.622,11.128-33.369,11.128-33.369a69.9,69.9,0,0,1,15.336,15.663" transform="translate(-49.238 -157.427)" fill="none" stroke="#263238" stroke-linecap="round" stroke-linejoin="round" stroke-width="1"/>
          <path id="Trazado_837340" data-name="Trazado 837340" d="M414.269,497.21c-6.263-9.235-11.649-36.27-22.935-62.518-15.288-35.556-37.081-71.7-45.985-78.43-5.966-4.508-24.448-8.908-24.448-8.908-4.195-3.786-13.307,0-13.307,0-49.359,12.558-94.524-3.7-94.524-3.7s-6.4-2.956-11.645,0a69.911,69.911,0,0,0-15.364,0c-11.3,1.553-23.645,14.465-28.738,20.335-1.525,1.757-43.38,50.245-43.38,50.245s-1.457,19.776,1.607,22.392c24.53,21.016,60.678-26.736,60.678-26.736.232.1.79,41.6,20.144,63.279" transform="translate(-106.739 -180.072)" fill="none" stroke="#263238" stroke-linecap="round" stroke-linejoin="round" stroke-width="1"/>
          <g id="Grupo_1096531" data-name="Grupo 1096531" transform="translate(88.364)">
            <path id="Trazado_837341" data-name="Trazado 837341" d="M257.534,337.22c-.409.163-.654.259-.654.259A2.727,2.727,0,0,0,257.534,337.22Z" transform="translate(-143.232 -181.924)" fill="#263238"/>
            <path id="Trazado_837342" data-name="Trazado 837342" d="M302.41,341.736c5.189.763,6.456-3.037,6.456-3.037s-6.456,3.037-12.149-8.649c-3.242-6.66-1.648-18.891.327-28.18,3.991-6.579,9.779-15.663,10.542-26.464,1.321-18.523-7.341-27.908-17.379-25.156,0,0-.736-15.65-14.86-21.261s-16.371-.994-29.923-4.413-26.941-.436-31.83,8.376-6.524,24.816-14.86,31-22.882,21.111-18.278,37.8,2,22.391-4.113,30.278-2.384,23.413,9.262,28.235c0,0-4.917-2.629-1.444-7.028,0,0,2.7,10.46,11.809,8.553s20.621-2.547,26.491,3.909,27.39,8.2,32.239,3.269,8.608-.354,17.393,4.045,18.537.545,18.537.545-.817,3.8-2.915,4.944c1.784-.749,6.728-3.119,8.118-6.647,1.362-3.473,2.261-6.974.531-15.241,6.088-2.384,3.269-6.415,3.269-6.415,5.707,3.3,8.417-6.211,8.417-6.211-5.285-.068-5.68-2.247-5.68-2.247Z" transform="translate(-173.438 -223.201)" fill="#263238"/>
          </g>
          <g id="Grupo_1096532" data-name="Grupo 1096532" transform="translate(100.61 104.602)">
            <path id="Trazado_837343" data-name="Trazado 837343" d="M287.6,364.369s-38.45,17.121-50.789,17.8c-12.34.708-54.385-21.656-54.385-21.656l32.035-8.744c4.358-8.322,4.467-18.088,3.432-29.542-.34-3.555-.763-6.905-1.226-9.9-1.09-7.26-2.3-12.326-2.3-12.326l45.273,1.866a78.713,78.713,0,0,0-2.329,8.785,109.834,109.834,0,0,0-2.138,18.673c-.518,15.663,1.907,24.571,1.907,24.571L287.6,364.382Z" transform="translate(-182.43 -300)" fill="#fff" stroke="#263238" stroke-linecap="round" stroke-linejoin="round" stroke-width="1"/>
            <path id="Trazado_837344" data-name="Trazado 837344" d="M190.94,348.75S215.184,353,221.2,352.3s10.746,5.244,10.746,5.244" transform="translate(-179.349 -282.352)" fill="#fff" stroke="#263238" stroke-linecap="round" stroke-linejoin="round" stroke-width="1"/>
            <path id="Trazado_837345" data-name="Trazado 837345" d="M263.706,349.91s-24.68,2.615-30.686,2.819-7.75,4.4-7.75,4.4" transform="translate(-166.921 -281.932)" fill="#fff" stroke="#263238" stroke-linecap="round" stroke-linejoin="round" stroke-width="1"/>
            <path id="Trazado_837346" data-name="Trazado 837346" d="M248.223,307.82a109.834,109.834,0,0,0-2.138,18.673,39.042,39.042,0,0,1-12.68,7.491c-7.614,2.52-17.733-6.769-24.6-14.574-.341-3.555-.763-6.905-1.226-9.9l40.643-1.675Z" transform="translate(-173.325 -297.169)" fill="#263238"/>
          </g>
          <g id="Grupo_1096535" data-name="Grupo 1096535" transform="translate(95.11 5.316)">
            <g id="Grupo_1096533" data-name="Grupo 1096533" transform="translate(16.709 56.432)">
              <path id="Trazado_837347" data-name="Trazado 837347" d="M200.889,273.267s-3.732-5.734-7.069-4.576-3.323,16.7-3.051,20.743,8.39,13.075,11.8,10.6" transform="translate(-190.66 -268.537)" fill="#fff" stroke="#263238" stroke-linecap="round" stroke-linejoin="round" stroke-width="1"/>
              <path id="Trazado_837348" data-name="Trazado 837348" d="M260.816,281.65s5.23-4.413,8.09-2.343-1.634,16.943-3.051,20.743-11.809,10.106-14.356,6.756" transform="translate(-168.635 -264.838)" fill="#fff" stroke="#263238" stroke-linecap="round" stroke-linejoin="round" stroke-width="1"/>
            </g>
            <path id="Trazado_837349" data-name="Trazado 837349" d="M229.582,357.519c-13.729-2.016-27.349-25.293-28.984-31.844-1.825-7.287-5.843-43.23,1.989-62.939,8.812-22.133,27.24-31.462,45.205-28.82s32.92,16.9,34.977,40.629c1.825,21.125-12.394,54.385-16.249,60.828-3.459,5.8-22.473,24.257-36.938,22.133Z" transform="translate(-171.318 -224.796)" fill="#fff" stroke="#263238" stroke-linecap="round" stroke-linejoin="round" stroke-width="1"/>
            <path id="Trazado_837350" data-name="Trazado 837350" d="M245.371,283.546c-.368,2.547-1.811,4.44-3.214,4.222s-2.234-2.438-1.852-4.971,1.811-4.44,3.214-4.222S245.753,281.013,245.371,283.546Z" transform="translate(-156.012 -208.477)" fill="#263238"/>
            <path id="Trazado_837351" data-name="Trazado 837351" d="M211.144,278.5c-.381,2.547.463,4.767,1.852,4.971s2.833-1.689,3.214-4.222-.463-4.767-1.852-4.971S211.526,275.963,211.144,278.5Z" transform="translate(-166.568 -210.033)" fill="#263238"/>
            <path id="Trazado_837352" data-name="Trazado 837352" d="M240.33,303.6s-7.11,13.947-16.181,11.672c-8.921-2.247-8.989-14.928-8.989-15.35,0,0,.449.191,1.28.49a54.366,54.366,0,0,0,11.087,2.847,61,61,0,0,0,11.06.449c1.1-.054,1.757-.1,1.757-.1Z" transform="translate(-165.081 -200.743)" fill="#757575"/>
            <path id="Trazado_837353" data-name="Trazado 837353" d="M226.519,281.31c.354,8.758-7.164,10.242-5.72,13.28a8.329,8.329,0,0,0,4.822,4" transform="translate(-163.107 -207.48)" fill="#fff" stroke="#263238" stroke-linecap="round" stroke-linejoin="round" stroke-width="1"/>
            <path id="Trazado_837354" data-name="Trazado 837354" d="M215.15,299.9s-.082,13.1,9,15.377S240.334,303.6,240.334,303.6" transform="translate(-165.085 -200.75)" fill="none" stroke="#263238" stroke-linecap="round" stroke-linejoin="round" stroke-width="1"/>
            <path id="Trazado_837355" data-name="Trazado 837355" d="M205.17,270.935s8.186-10.324,20.852-7.055" transform="translate(-168.698 -214.022)" fill="none" stroke="#263238" stroke-linecap="round" stroke-linejoin="round" stroke-width="1"/>
            <path id="Trazado_837356" data-name="Trazado 837356" d="M256.028,279.072s-4.862-12.258-17.938-12.762" transform="translate(-156.78 -212.91)" fill="none" stroke="#263238" stroke-linecap="round" stroke-linejoin="round" stroke-width="1"/>
            <g id="Grupo_1096534" data-name="Grupo 1096534" transform="translate(110.348 57.921)">
              <path id="Trazado_837357" data-name="Trazado 837357" d="M286.623,269.63l-2.547,2.806-1.961,2.179L259.41,287.8l.94-6.361,18.591-10.814,4.018-.518Z" transform="translate(-259.41 -269.63)" fill="#6e40fc" stroke="#263238" stroke-linecap="round" stroke-linejoin="round" stroke-width="1"/>
              <path id="Trazado_837358" data-name="Trazado 837358" d="M276.032,275.16c-3.364-.626-2.234-4.549-2.234-4.549l7.682-.981Z" transform="translate(-254.267 -269.63)" fill="#fff" stroke="#263238" stroke-linecap="round" stroke-linejoin="round" stroke-width="1"/>
              <path id="Trazado_837359" data-name="Trazado 837359" d="M280.394,269.63l-2.533,2.806a1.692,1.692,0,0,1-1.117-2.329l3.664-.477Z" transform="translate(-253.181 -269.63)" fill="#263238"/>
            </g>
            <path id="Trazado_837360" data-name="Trazado 837360" d="M262.55,255.17s-8.622,11.318-27.336,14.574c-23.44,4.086-36.379,24.353-36.053,32.811,0,0-7.205-15.881-4-37.306,4.644-31.108,33.669-40,54.78-37.837s31.285,23.318,31.285,23.318,15.84,12.34,13.552,27.894c-2.193,14.887-5.816,15.3-7.723,18.66-2.642,4.672.831,6.619-8.431,14.274,0,0,3.664-20.771-.885-36.27s-15.159-20.131-15.159-20.131Z" transform="translate(-172.619 -227.104)" fill="#263238"/>
            <path id="Trazado_837361" data-name="Trazado 837361" d="M263.363,243.85s-8.267,31.558-55.243,36.5c0,0,31.653-5.72,46.281-34.65l8.962-1.852Z" transform="translate(-167.63 -221.041)" fill="#263238"/>
            <path id="Trazado_837362" data-name="Trazado 837362" d="M224.458,307.018s6.456-2.3,8.948,0c0,0-4.249,6.769-9.7,5.148s-6.619-8.172-6.619-8.172,2.956-1.376,7.382,3.024Z" transform="translate(-164.383 -199.342)" fill="#bfbfbf"/>
            <path id="Trazado_837363" data-name="Trazado 837363" d="M239.305,303.648l-1.839,2.084a38.177,38.177,0,0,1-21.207-3.378l-.64-2.275a59.4,59.4,0,0,0,11.727,3.119,70.868,70.868,0,0,0,11.958.449Z" transform="translate(-164.915 -200.685)" fill="#fff"/>
            <path id="Trazado_837364" data-name="Trazado 837364" d="M213.66,299.28s14.764,6.878,29.038,4.277" transform="translate(-165.624 -200.975)" fill="none" stroke="#263238" stroke-linecap="round" stroke-linejoin="round" stroke-width="1"/>
            <path id="Trazado_837365" data-name="Trazado 837365" d="M265.267,238.12s-10.011,13.116-34.4,15.118S199.4,265.347,199.4,265.347" transform="translate(-170.787 -223.116)" fill="none" stroke="#757575" stroke-linecap="round" stroke-linejoin="round" stroke-width="1"/>
            <path id="Trazado_837366" data-name="Trazado 837366" d="M209.146,238.9c-2.275.422-5.38,1.239-6.456,3.541" transform="translate(-169.596 -222.833)" fill="none" stroke="#757575" stroke-linecap="round" stroke-linejoin="round" stroke-width="1"/>
            <path id="Trazado_837367" data-name="Trazado 837367" d="M264.06,230.64c-14.71,11.005-33.71,12.258-53.01,10.705" transform="translate(-166.569 -225.823)" fill="none" stroke="#757575" stroke-linecap="round" stroke-linejoin="round" stroke-width="1"/>
            <path id="Trazado_837368" data-name="Trazado 837368" d="M182.68,304.46c-2.765,3.228-4.44,6.619-4.277,10.964" transform="translate(-178.392 -199.1)" fill="none" stroke="#757575" stroke-linecap="round" stroke-linejoin="round" stroke-width="1"/>
            <path id="Trazado_837369" data-name="Trazado 837369" d="M198.095,259.46c-6.837,3.882-12.326,11.019-12.694,19.041-.627,13.579,9.112,25.837-.981,37.741" transform="translate(-176.21 -215.39)" fill="none" stroke="#757575" stroke-linecap="round" stroke-linejoin="round" stroke-width="1"/>
            <path id="Trazado_837370" data-name="Trazado 837370" d="M192.821,291.97s7.546,7.981,2.642,16.1-7.437,16.358,2.615,22.337" transform="translate(-173.769 -203.621)" fill="none" stroke="#757575" stroke-linecap="round" stroke-linejoin="round" stroke-width="1"/>
            <path id="Trazado_837371" data-name="Trazado 837371" d="M234.115,261.23a49.252,49.252,0,0,1-4.985,2.751" transform="translate(-160.024 -214.749)" fill="none" stroke="#757575" stroke-linecap="round" stroke-linejoin="round" stroke-width="1"/>
            <path id="Trazado_837372" data-name="Trazado 837372" d="M249.281,246.47c-2.683,6.7-7.763,12.653-13.361,17.093" transform="translate(-157.566 -220.093)" fill="none" stroke="#757575" stroke-linecap="round" stroke-linejoin="round" stroke-width="1"/>
            <path id="Trazado_837373" data-name="Trazado 837373" d="M249.97,247.29s10.2,5.557,14.124,14.737-1.607,22.133.967,26.6" transform="translate(-152.48 -219.796)" fill="none" stroke="#757575" stroke-linecap="round" stroke-linejoin="round" stroke-width="1"/>
            <path id="Trazado_837374" data-name="Trazado 837374" d="M261.62,313.13a14.95,14.95,0,0,0,4.563,1.907" transform="translate(-148.262 -195.961)" fill="none" stroke="#757575" stroke-linecap="round" stroke-linejoin="round" stroke-width="1"/>
            <path id="Trazado_837375" data-name="Trazado 837375" d="M255.68,303.79a21.417,21.417,0,0,0,4.141,9.125" transform="translate(-150.413 -199.342)" fill="none" stroke="#757575" stroke-linecap="round" stroke-linejoin="round" stroke-width="1"/>
            <path id="Trazado_837376" data-name="Trazado 837376" d="M252.742,309.16s-.94,10.379,5.666,17.243,4.685,11.141,4.685,11.141" transform="translate(-151.493 -197.398)" fill="none" stroke="#757575" stroke-linecap="round" stroke-linejoin="round" stroke-width="1"/>
            <path id="Trazado_837377" data-name="Trazado 837377" d="M245.3,317.85s3.95,10.515-2.315,14.015" transform="translate(-155.01 -194.252)" fill="none" stroke="#757575" stroke-linecap="round" stroke-linejoin="round" stroke-width="1"/>
            <path id="Trazado_837378" data-name="Trazado 837378" d="M255.68,245.18s14.9,3.01,17.093,9.52,0,14.029,0,14.029" transform="translate(-150.413 -220.56)" fill="none" stroke="#757575" stroke-linecap="round" stroke-linejoin="round" stroke-width="1"/>
          </g>
          <path id="Trazado_837379" data-name="Trazado 837379" d="M117.345,448.061c-12.626-7.014-10.188-32.239-1.811-63.729,4.113-15.472,18.278-54.44,17.992-55.9-.572-2.833-3.133-7.546-3.133-7.546s4.059-4.168,5.8-4.917c7.368-3.146,21.915-7.11,28.589-4.345,2.084.858,5.108,5.72,4.685,7.709s-6.4,8.526-5.829,14.778-4.862,26.941-4.713,35.181c.027,1.7.1,3.827.2,6.129.068,1.471-.014,27.24-9.929,40.4" transform="translate(-108.561 -191.527)" fill="#6e40fc" stroke="#263238" stroke-linecap="round" stroke-linejoin="round" stroke-width="1"/>
          <g id="Grupo_1096536" data-name="Grupo 1096536" transform="translate(19.631 42.65)">
            <path id="Trazado_837380" data-name="Trazado 837380" d="M153.232,272.773c.259,2.506,5.68,20.376,7.341,38.64,0,0,6.224-2.22,9.616-5.176s10.488-.6,10.188,1.376-6.8,1.634-12.326,9.044-6.633,15.609-13.961,19.572-18.728,5.339-23.127.068-9.357-33.233-7.641-36.148a21.693,21.693,0,0,1,5.434-5.489s1.866-5.462,4.7-5.87,9.589-.572,9.589-.572a7.766,7.766,0,0,1,5.407-1.485s-2.206-20.989-4.141-28.017S151.012,251.716,153.232,272.773Z" transform="translate(-122.974 -254.515)" fill="#fff" stroke="#263238" stroke-linecap="round" stroke-linejoin="round" stroke-width="1"/>
            <path id="Trazado_837381" data-name="Trazado 837381" d="M146.886,278.17c5.789,2.615,8.349,13.62,8.349,14.41s-3.078,9.1-4.168,11.5c-1.43,3.133-4.563,0-4.563,0s-.953,4.113-3.146,2.3c-2.792-2.3-2.792-9.752-2.792-9.752s-.34,6.2-1.961,9.221-4.876,1.021-4.413-7.941c0,0-6.66-1.634-6.892-3.255" transform="translate(-121.408 -245.951)" fill="none" stroke="#263238" stroke-linecap="round" stroke-linejoin="round" stroke-width="1"/>
            <path id="Trazado_837382" data-name="Trazado 837382" d="M139.143,293.849c-1.634-4.2-7.913-8.049-7.913-8.049" transform="translate(-119.986 -243.189)" fill="none" stroke="#263238" stroke-linecap="round" stroke-linejoin="round" stroke-width="1"/>
            <path id="Trazado_837383" data-name="Trazado 837383" d="M142.482,302.194s3.282-9.48,2.4-11.5-6.47-7.368-6.47-7.368" transform="translate(-117.386 -244.083)" fill="none" stroke="#263238" stroke-linecap="round" stroke-linejoin="round" stroke-width="1"/>
            <path id="Trazado_837384" data-name="Trazado 837384" d="M152.944,296.29s-6.156,1.335-8.894,9.194" transform="translate(-115.345 -239.391)" fill="none" stroke="#263238" stroke-linecap="round" stroke-linejoin="round" stroke-width="1"/>
          </g>
          <path id="Trazado_837385" data-name="Trazado 837385" d="M126.89,323.72s9.943,8.186,20.634,1.308" transform="translate(-101.926 -186.812)" fill="none" stroke="#263238" stroke-linecap="round" stroke-linejoin="round" stroke-width="1"/>
          <path id="Trazado_837386" data-name="Trazado 837386" d="M134.652,341.53a25.57,25.57,0,0,1-6.1,2.574" transform="translate(-101.325 -180.364)" fill="none" stroke="#263238" stroke-linecap="round" stroke-linejoin="round" stroke-width="1"/>
          <path id="Trazado_837387" data-name="Trazado 837387" d="M155.645,321.82c-4.862,8.73-11.223,17.243-19.055,23.495" transform="translate(-98.414 -187.499)" fill="none" stroke="#263238" stroke-linecap="round" stroke-linejoin="round" stroke-width="1"/>
          <path id="Trazado_837388" data-name="Trazado 837388" d="M178.08,343.3s19.409,18.224,30.768,23.222" transform="translate(-83.394 -179.723)" fill="none" stroke="#263238" stroke-linecap="round" stroke-linejoin="round" stroke-width="1"/>
          <path id="Trazado_837389" data-name="Trazado 837389" d="M163.87,357.77a33.132,33.132,0,0,1,1.716,7.5" transform="translate(-88.539 -174.485)" fill="none" stroke="#263238" stroke-linecap="round" stroke-linejoin="round" stroke-width="1"/>
          <path id="Trazado_837390" data-name="Trazado 837390" d="M158.92,346.43q2.615,4.944,4.753,10.12" transform="translate(-90.331 -178.59)" fill="none" stroke="#263238" stroke-linecap="round" stroke-linejoin="round" stroke-width="1"/>
          <path id="Trazado_837391" data-name="Trazado 837391" d="M217.08,368.344s31.762.436,52.151-13.484" transform="translate(-69.276 -175.538)" fill="none" stroke="#263238" stroke-linecap="round" stroke-linejoin="round" stroke-width="1"/>
          <path id="Trazado_837392" data-name="Trazado 837392" d="M267.78,346.02a40.959,40.959,0,0,0-7.45,6.483" transform="translate(-53.619 -178.739)" fill="none" stroke="#263238" stroke-linecap="round" stroke-linejoin="round" stroke-width="1"/>
          <path id="Trazado_837393" data-name="Trazado 837393" d="M280.432,363.11a50.97,50.97,0,0,1-11.032,8.649" transform="translate(-50.335 -172.552)" fill="none" stroke="#263238" stroke-linecap="round" stroke-linejoin="round" stroke-width="1"/>
          <path id="Trazado_837394" data-name="Trazado 837394" d="M283.484,356.91a48.865,48.865,0,0,1-3.364,4.495" transform="translate(-46.455 -174.796)" fill="none" stroke="#263238" stroke-linecap="round" stroke-linejoin="round" stroke-width="1"/>
          <path id="Trazado_837395" data-name="Trazado 837395" d="M159.56,397.785s7.736-10.038,7.586-22.065" transform="translate(-90.099 -167.987)" fill="none" stroke="#263238" stroke-linecap="round" stroke-linejoin="round" stroke-width="1"/>
          <path id="Trazado_837396" data-name="Trazado 837396" d="M280.606,414.183s-1.675-20.2,12.5-34.963" transform="translate(-46.301 -166.72)" fill="none" stroke="#263238" stroke-linecap="round" stroke-linejoin="round" stroke-width="1"/>
          <path id="Trazado_837397" data-name="Trazado 837397" d="M295.872,387.39c.681.681-12.095,11.822-15.132,16.807" transform="translate(-46.23 -163.762)" fill="none" stroke="#263238" stroke-linecap="round" stroke-linejoin="round" stroke-width="1"/>
          <path id="Trazado_837398" data-name="Trazado 837398" d="M189.37,424.05s46.486,18.483,70.552,18.088" transform="translate(-79.307 -150.491)" fill="none" stroke="#263238" stroke-linecap="round" stroke-linejoin="round" stroke-width="1"/>
          <g id="Grupo_1096538" data-name="Grupo 1096538" transform="translate(126.043 156.385)">
            <g id="Grupo_1096537" data-name="Grupo 1096537" transform="translate(26.488 71.696)">
              <path id="Trazado_837399" data-name="Trazado 837399" d="M222.8,391.3h5.516a1.616,1.616,0,0,1,1.621,1.621v8.417a1.616,1.616,0,0,1-1.621,1.621h-5.5a1.616,1.616,0,0,1-1.621-1.621v-8.417a1.616,1.616,0,0,1,1.621-1.621Z" transform="translate(-220.318 -390.428)" fill="#bfbfbf"/>
              <path id="Trazado_837400" data-name="Trazado 837400" d="M228.545,404.062h-5.5a2.494,2.494,0,0,1-2.492-2.492v-8.417a2.494,2.494,0,0,1,2.492-2.492h5.5a2.494,2.494,0,0,1,2.492,2.492v8.417A2.494,2.494,0,0,1,228.545,404.062Zm-5.5-11.659a.761.761,0,0,0-.763.763v8.417a.761.761,0,0,0,.763.763h5.5a.761.761,0,0,0,.763-.763v-8.417a.761.761,0,0,0-.763-.763Z" transform="translate(-220.55 -390.66)" fill="#263238"/>
            </g>
            <path id="Trazado_837401" data-name="Trazado 837401" d="M250.336,340.118s24.68,5.08-17.5,69.19c0,0-49.141-62.258-25.116-71.288" transform="translate(-201.103 -338.02)" fill="none" stroke="#263238" stroke-linecap="round" stroke-linejoin="round" stroke-width="1"/>
            <path id="Trazado_837402" data-name="Trazado 837402" d="M225.53,390.343c0,.94-.422,1.7-.94,1.7s-.94-.763-.94-1.7.422-1.7.94-1.7S225.53,389.4,225.53,390.343Z" transform="translate(-192.94 -319.695)" fill="#263238"/>
          </g>
        </g>
      </g>
    </g>
  </g>
</svg>
