<svg xmlns="http://www.w3.org/2000/svg" xmlns:xlink="http://www.w3.org/1999/xlink" width="132.727" height="98.87" viewBox="0 0 132.727 98.87">
  <defs>
    <linearGradient id="linear-gradient" x1="0.5" x2="0.5" y2="1" gradientUnits="objectBoundingBox">
      <stop offset="0" stop-color="#fff"/>
      <stop offset="1" stop-color="#d2e6ee"/>
    </linearGradient>
  </defs>
  <g id="Grupo_1096748" data-name="Grupo 1096748" transform="translate(-733.505 -554.315)">
    <g id="Grupo_1096747" data-name="Grupo 1096747" transform="translate(735.454 540.069)">
      <g id="Grupo_1096747-2" data-name="Grupo 1096747" transform="translate(-35.924 10)">
        <g id="Grupo_61977" data-name="Grupo 61977" transform="translate(45.925 30.614)">
          <path id="Trazado_132386" data-name="Trazado 132386" d="M1423.764,1040.092a.284.284,0,0,1-.283-.283.3.3,0,0,1,.283-.307.266.266,0,0,1,.283.261v.045A.284.284,0,0,1,1423.764,1040.092Z" transform="translate(-1423.48 -1039.502)" fill="#2e97e6"/>
          <path id="Trazado_132387" data-name="Trazado 132387" d="M1423.764,1074.77a.284.284,0,0,1-.283-.283v-.092a.283.283,0,1,1,.567,0v.092A.284.284,0,0,1,1423.764,1074.77Zm0-2.4a.284.284,0,0,1-.283-.283V1072a.283.283,0,1,1,.567,0v.092A.284.284,0,0,1,1423.764,1072.375Zm0-2.4a.284.284,0,0,1-.283-.284v-.093a.283.283,0,0,1,.567,0v.093A.284.284,0,0,1,1423.764,1069.98Zm0-2.4a.284.284,0,0,1-.283-.283v-.092a.283.283,0,1,1,.567,0v.092A.284.284,0,0,1,1423.764,1067.583Zm0-2.4a.283.283,0,0,1-.283-.283v-.092a.283.283,0,1,1,.567,0v.092A.284.284,0,0,1,1423.764,1065.188Zm0-2.4a.283.283,0,0,1-.283-.283v-.092a.283.283,0,0,1,.567,0v.092A.284.284,0,0,1,1423.764,1062.793Zm0-2.4a.283.283,0,0,1-.283-.283v-.092a.283.283,0,1,1,.567,0v.092A.284.284,0,0,1,1423.764,1060.4Zm0-2.395a.284.284,0,0,1-.283-.284v-.092a.283.283,0,0,1,.567,0v.092A.284.284,0,0,1,1423.764,1058Zm0-2.4a.283.283,0,0,1-.283-.283v-.092a.283.283,0,1,1,.567,0v.092A.284.284,0,0,1,1423.764,1055.606Zm0-2.4a.283.283,0,0,1-.283-.283v-.093a.283.283,0,1,1,.567,0v.093A.284.284,0,0,1,1423.764,1053.211Zm0-2.4a.284.284,0,0,1-.283-.284v-.092a.283.283,0,0,1,.567,0v.092A.284.284,0,0,1,1423.764,1050.815Z" transform="translate(-1423.48 -1047.829)" fill="#2e97e6"/>
          <path id="Trazado_132388" data-name="Trazado 132388" d="M1423.764,1171.518a.284.284,0,0,1-.283-.284.3.3,0,0,1,.283-.306.265.265,0,0,1,.283.26v.045A.284.284,0,0,1,1423.764,1171.518Z" transform="translate(-1423.48 -1142.228)" fill="#2e97e6"/>
        </g>
        <g id="Grupo_61978" data-name="Grupo 61978" transform="translate(72.548 30.712)">
          <path id="Trazado_132389" data-name="Trazado 132389" d="M1545.677,1040.537a.284.284,0,0,1-.283-.283.3.3,0,0,1,.283-.305.264.264,0,0,1,.283.26v.045A.284.284,0,0,1,1545.677,1040.537Z" transform="translate(-1545.394 -1039.948)" fill="#2e97e6"/>
          <path id="Trazado_132390" data-name="Trazado 132390" d="M1545.677,1075.211a.284.284,0,0,1-.283-.283v-.092a.283.283,0,1,1,.567,0v.092A.284.284,0,0,1,1545.677,1075.211Zm0-2.4a.284.284,0,0,1-.283-.283v-.092a.283.283,0,1,1,.567,0v.092A.283.283,0,0,1,1545.677,1072.816Zm0-2.4a.284.284,0,0,1-.283-.284v-.093a.283.283,0,0,1,.567,0v.093A.283.283,0,0,1,1545.677,1070.421Zm0-2.4a.284.284,0,0,1-.283-.283v-.092a.283.283,0,1,1,.567,0v.092A.283.283,0,0,1,1545.677,1068.024Zm0-2.4a.283.283,0,0,1-.283-.283v-.092a.283.283,0,1,1,.567,0v.092A.283.283,0,0,1,1545.677,1065.629Zm0-2.4a.284.284,0,0,1-.283-.283v-.092a.283.283,0,0,1,.567,0v.092A.284.284,0,0,1,1545.677,1063.234Zm0-2.4a.284.284,0,0,1-.283-.283v-.092a.283.283,0,0,1,.567,0v.092A.284.284,0,0,1,1545.677,1060.838Zm0-2.4a.284.284,0,0,1-.283-.283v-.092a.283.283,0,0,1,.567,0v.092A.283.283,0,0,1,1545.677,1058.442Zm0-2.4a.284.284,0,0,1-.283-.283v-.092a.283.283,0,0,1,.567,0v.092A.283.283,0,0,1,1545.677,1056.047Zm0-2.4a.284.284,0,0,1-.283-.284v-.093a.283.283,0,0,1,.567,0v.093A.284.284,0,0,1,1545.677,1053.652Zm0-2.4a.283.283,0,0,1-.283-.283v-.092a.283.283,0,0,1,.567,0v.092A.283.283,0,0,1,1545.677,1051.255Z" transform="translate(-1545.394 -1048.271)" fill="#2e97e6"/>
          <path id="Trazado_132391" data-name="Trazado 132391" d="M1545.677,1171.959a.284.284,0,0,1-.283-.284.3.3,0,0,1,.283-.306.266.266,0,0,1,.283.261v.044A.284.284,0,0,1,1545.677,1171.959Z" transform="translate(-1545.394 -1142.671)" fill="#2e97e6"/>
        </g>
        <g id="Grupo_61979" data-name="Grupo 61979" transform="translate(54.799 29.071)">
          <path id="Trazado_132392" data-name="Trazado 132392" d="M1464.4,1033.026a.283.283,0,0,1-.283-.283.3.3,0,0,1,.283-.307.265.265,0,0,1,.283.26v.047A.283.283,0,0,1,1464.4,1033.026Z" transform="translate(-1464.117 -1032.436)" fill="#2e97e6"/>
          <path id="Trazado_132393" data-name="Trazado 132393" d="M1464.4,1067.7a.283.283,0,0,1-.283-.284v-.092a.283.283,0,0,1,.567,0v.092A.283.283,0,0,1,1464.4,1067.7Zm0-2.4a.283.283,0,0,1-.283-.283v-.092a.283.283,0,1,1,.567,0v.092A.283.283,0,0,1,1464.4,1065.3Zm0-2.4a.283.283,0,0,1-.283-.283v-.093a.283.283,0,1,1,.567,0v.093A.283.283,0,0,1,1464.4,1062.909Zm0-2.4a.283.283,0,0,1-.283-.283v-.092a.283.283,0,0,1,.567,0v.092A.283.283,0,0,1,1464.4,1060.512Zm0-2.4a.283.283,0,0,1-.283-.283v-.092a.283.283,0,1,1,.567,0v.092A.283.283,0,0,1,1464.4,1058.117Zm0-2.4a.283.283,0,0,1-.283-.283v-.092a.283.283,0,1,1,.567,0v.092A.283.283,0,0,1,1464.4,1055.722Zm0-2.4a.283.283,0,0,1-.283-.283v-.092a.283.283,0,0,1,.567,0v.092A.283.283,0,0,1,1464.4,1053.326Zm0-2.4a.283.283,0,0,1-.283-.283v-.092a.283.283,0,1,1,.567,0v.092A.283.283,0,0,1,1464.4,1050.93Zm0-2.4a.283.283,0,0,1-.283-.284v-.092a.283.283,0,1,1,.567,0v.092A.283.283,0,0,1,1464.4,1048.535Zm0-2.4a.283.283,0,0,1-.283-.283v-.093a.283.283,0,0,1,.567,0v.093A.283.283,0,0,1,1464.4,1046.14Zm0-2.4a.283.283,0,0,1-.283-.283v-.092a.283.283,0,1,1,.567,0v.092A.283.283,0,0,1,1464.4,1043.744Z" transform="translate(-1464.117 -1040.759)" fill="#2e97e6"/>
          <path id="Trazado_132394" data-name="Trazado 132394" d="M1464.4,1164.453a.283.283,0,0,1-.283-.283.3.3,0,0,1,.283-.306.264.264,0,0,1,.283.26v.046A.283.283,0,0,1,1464.4,1164.453Z" transform="translate(-1464.117 -1135.163)" fill="#2e97e6"/>
        </g>
        <g id="Grupo_61980" data-name="Grupo 61980" transform="translate(63.673 28.974)">
          <path id="Trazado_132395" data-name="Trazado 132395" d="M1505.037,1032.58a.284.284,0,0,1-.283-.283.3.3,0,0,1,.283-.307.265.265,0,0,1,.283.261v.045A.283.283,0,0,1,1505.037,1032.58Z" transform="translate(-1504.754 -1031.99)" fill="#2e97e6"/>
          <path id="Trazado_132396" data-name="Trazado 132396" d="M1505.037,1067.258a.284.284,0,0,1-.283-.283v-.092a.283.283,0,0,1,.567,0v.092A.284.284,0,0,1,1505.037,1067.258Zm0-2.4a.284.284,0,0,1-.283-.283v-.092a.283.283,0,0,1,.567,0v.092A.283.283,0,0,1,1505.037,1064.863Zm0-2.4a.284.284,0,0,1-.283-.283v-.093a.283.283,0,1,1,.567,0v.093A.283.283,0,0,1,1505.037,1062.468Zm0-2.4a.284.284,0,0,1-.283-.283v-.092a.283.283,0,0,1,.567,0v.092A.283.283,0,0,1,1505.037,1060.071Zm0-2.4a.284.284,0,0,1-.283-.283v-.092a.283.283,0,1,1,.567,0v.092A.283.283,0,0,1,1505.037,1057.676Zm0-2.4a.284.284,0,0,1-.283-.284v-.092a.283.283,0,1,1,.567,0V1055A.284.284,0,0,1,1505.037,1055.281Zm0-2.4a.283.283,0,0,1-.283-.283v-.092a.283.283,0,0,1,.567,0v.092A.283.283,0,0,1,1505.037,1052.884Zm0-2.395a.284.284,0,0,1-.283-.283v-.092a.283.283,0,1,1,.567,0v.092A.283.283,0,0,1,1505.037,1050.489Zm0-2.4a.284.284,0,0,1-.283-.283v-.092a.283.283,0,1,1,.567,0v.092A.283.283,0,0,1,1505.037,1048.094Zm0-2.4a.284.284,0,0,1-.283-.283v-.093a.283.283,0,1,1,.567,0v.093A.283.283,0,0,1,1505.037,1045.7Zm0-2.4a.284.284,0,0,1-.283-.283v-.092a.283.283,0,1,1,.567,0v.092A.283.283,0,0,1,1505.037,1043.3Z" transform="translate(-1504.754 -1040.318)" fill="#2e97e6"/>
          <path id="Trazado_132397" data-name="Trazado 132397" d="M1505.037,1164.008a.284.284,0,0,1-.283-.283.3.3,0,0,1,.283-.307.265.265,0,0,1,.283.261v.045A.283.283,0,0,1,1505.037,1164.008Z" transform="translate(-1504.754 -1134.717)" fill="#2e97e6"/>
        </g>
      </g>
      <g id="Grupo_62004" data-name="Grupo 62004" transform="translate(0.7 14.246)">
        <g id="Grupo_62002" data-name="Grupo 62002" transform="translate(0 0)">
          <rect id="Rectángulo_29950" data-name="Rectángulo 29950" width="45.791" height="12.944" rx="6.472" transform="translate(0 15.566)" fill="#00223d"/>
          <circle id="Elipse_4135" data-name="Elipse 4135" cx="10.12" cy="10.12" r="10.12" transform="translate(15.481 7.464) rotate(-21.641)" fill="#00223d"/>
          <circle id="Elipse_4136" data-name="Elipse 4136" cx="6.823" cy="6.823" r="6.823" transform="translate(7.968 6.865)" fill="#00223d"/>
        </g>
        <g id="Grupo_62003" data-name="Grupo 62003" transform="translate(18.486 12.631)">
          <path id="Trazado_132425" data-name="Trazado 132425" d="M1470.041,965.137l-.424.474,3.058.043-.381-3.035-.573.641a6.014,6.014,0,0,0-9.429,4.885l2.49,0a3.536,3.536,0,0,1,.89-2.256A3.573,3.573,0,0,1,1470.041,965.137Z" transform="translate(-1462.291 -962.213)" fill="#fff"/>
          <path id="Trazado_132426" data-name="Trazado 132426" d="M1477.776,993.138a6.016,6.016,0,0,0,1.517-3.928l-2.49,0a3.536,3.536,0,0,1-.89,2.256,3.573,3.573,0,0,1-4.37.746l.424-.474-3.059-.043.381,3.035.573-.641A6.062,6.062,0,0,0,1477.776,993.138Z" transform="translate(-1467.464 -983.315)" fill="#fff"/>
        </g>
      </g>
    </g>
    <g id="cloud" transform="translate(726.331 535.095)">
      <path id="Trazado_132398" data-name="Trazado 132398" d="M1375.135,1161.917c-27.711-22.151,5.375-59.358-18.094-73.238-22.964-14.131-42.9,9.941-82.771,7.318-26.339-1.733-33.395,12.2-30.463,26.518,2.935,14.339,7.839,25.512,4.852,38.642Z" transform="translate(-1236.015 -1043.827)" fill="#f3f9ff"/>
      <g id="Grupo_61984" data-name="Grupo 61984" transform="translate(16.609 64.108)">
        <g id="Grupo_61981" data-name="Grupo 61981" transform="translate(84.595 32.628)">
          <path id="Trazado_132399" data-name="Trazado 132399" d="M1623.178,1310.471a8.952,8.952,0,0,0-2.618,2.286l.778.6a8.069,8.069,0,0,0-1.4,2.828l-.947-.254a8.973,8.973,0,0,0-.236,3.467l.217-.026.757-.1a7.981,7.981,0,0,0,1.011,2.988l-.852.492a8.874,8.874,0,0,0,2.289,2.616l.6-.777a8,8,0,0,0,2.824,1.4l-.254.947a8.988,8.988,0,0,0,3.47.234l0,0-.034-.282-.088-.689a7.965,7.965,0,0,0,2.985-1.009l.492.852a8.9,8.9,0,0,0,2.619-2.292l-.777-.6a7.983,7.983,0,0,0,1.4-2.823l.947.254a9,9,0,0,0,.234-3.47l-.974.124a7.967,7.967,0,0,0-1.009-2.985l.852-.492a8.89,8.89,0,0,0-2.291-2.619l-.6.777a7.986,7.986,0,0,0-2.823-1.4l.254-.947a8.926,8.926,0,0,0-3.47-.234v.008l.082.641.041.325a7.971,7.971,0,0,0-2.985,1.009Zm2.324,4.025a4.347,4.347,0,1,1-1.593,5.938A4.345,4.345,0,0,1,1625.5,1314.5Z" transform="translate(-1618.681 -1309.266)" fill="#00223d"/>
        </g>
        <g id="Grupo_61982" data-name="Grupo 61982">
          <path id="Trazado_132400" data-name="Trazado 132400" d="M1285.361,1180.177a8.947,8.947,0,0,0-2.618,2.286l.778.6a8.066,8.066,0,0,0-1.4,2.828l-.947-.254a8.977,8.977,0,0,0-.236,3.467l.217-.027.757-.1a7.979,7.979,0,0,0,1.011,2.988l-.852.492a8.879,8.879,0,0,0,2.29,2.616l.6-.777a8,8,0,0,0,2.824,1.4l-.254.946a8.991,8.991,0,0,0,3.47.234l0,0-.034-.281-.088-.69a7.971,7.971,0,0,0,2.985-1.009l.492.852a8.9,8.9,0,0,0,2.619-2.291l-.777-.6a7.972,7.972,0,0,0,1.4-2.822l.947.254a8.989,8.989,0,0,0,.234-3.47l-.974.124a7.975,7.975,0,0,0-1.009-2.985l.852-.491a8.892,8.892,0,0,0-2.291-2.619l-.6.777a7.982,7.982,0,0,0-2.822-1.4l.253-.947a8.934,8.934,0,0,0-3.47-.234v.009l.082.641.041.325a7.985,7.985,0,0,0-2.985,1.009Zm2.324,4.025a4.347,4.347,0,1,1-1.593,5.938A4.345,4.345,0,0,1,1287.685,1184.2Z" transform="translate(-1280.865 -1178.972)" fill="#1e5af9"/>
        </g>
        <g id="Grupo_61983" data-name="Grupo 61983" transform="translate(100.262 25.893)">
          <path id="Trazado_132401" data-name="Trazado 132401" d="M1685.17,1282.372a4.973,4.973,0,0,0-1.786.736l.3.455a4.483,4.483,0,0,0-1.242,1.238l-.454-.3a4.984,4.984,0,0,0-.742,1.783l.119.025.416.084a4.433,4.433,0,0,0,0,1.753l-.536.107a4.927,4.927,0,0,0,.739,1.785l.455-.3a4.456,4.456,0,0,0,1.237,1.243l-.3.453a5,5,0,0,0,1.785.743v0l.032-.154.077-.378a4.441,4.441,0,0,0,1.751,0l.107.536a4.946,4.946,0,0,0,1.787-.739l-.3-.455a4.435,4.435,0,0,0,1.24-1.236l.453.3a5,5,0,0,0,.742-1.785l-.535-.109a4.422,4.422,0,0,0,0-1.751l.536-.107a4.947,4.947,0,0,0-.739-1.787l-.455.3a4.439,4.439,0,0,0-1.236-1.241l.3-.453a4.96,4.96,0,0,0-1.785-.742v0l-.071.353-.037.178a4.428,4.428,0,0,0-1.751,0Zm.5,2.533a2.416,2.416,0,1,1-1.9,2.841A2.415,2.415,0,0,1,1685.675,1284.905Z" transform="translate(-1681.245 -1282.372)" fill="none" stroke="#1e5af9" stroke-miterlimit="10" stroke-width="0.548"/>
        </g>
      </g>
      <g id="Grupo_62001" data-name="Grupo 62001" transform="translate(27.04 45.181)">
        <path id="Trazado_132402" data-name="Trazado 132402" d="M1357.956,1150.506v-3.316a2.726,2.726,0,0,0-2.726-2.726h-29.022a2.726,2.726,0,0,0-2.727,2.726V1205.8h75.072v-55.3Z" transform="translate(-1323.24 -1134.179)" fill="#00223d"/>
        <path id="Trazado_132403" data-name="Trazado 132403" d="M1333.523,1176.962v53.006h69.543V1176.7Z" transform="translate(-1330.768 -1158.344)" fill="#fff"/>
        <path id="Trazado_132404" data-name="Trazado 132404" d="M1346.39,1176.962v53.006h70.139V1176.7Z" transform="translate(-1340.412 -1158.344)" fill="#00223d"/>
        <path id="Trazado_132405" data-name="Trazado 132405" d="M1422.58,1168.594h-69.157a2.621,2.621,0,0,0-2.669,2.274v53.023h75.478v-51.678A3.739,3.739,0,0,0,1422.58,1168.594Z" transform="translate(-1343.684 -1152.267)" fill="#fff"/>
        <g id="Grupo_61986" data-name="Grupo 61986" transform="translate(21.817 6.12)">
          <g id="Grupo_61985" data-name="Grupo 61985" transform="translate(0 0)">
            <rect id="Rectángulo_29938" data-name="Rectángulo 29938" width="44.578" height="33.878" transform="matrix(1, -0.003, 0.003, 1, 0, 0.125)" fill="#ebf3ff"/>
            <path id="Trazado_837757" data-name="Trazado 837757" d="M0,0H42.3V31.144H0Z" transform="translate(1.12 1.227) rotate(-0.16)" fill="#1e5af9"/>
            <path id="Trazado_132406" data-name="Trazado 132406" d="M1428.7,1204.173l27.182-.076-14.862-14.258Z" transform="translate(-1423.93 -1174.311)" fill="#e3eeff"/>
            <path id="Trazado_132407" data-name="Trazado 132407" d="M1478.06,1211.477l22.838-.064-12.393-11.784Z" transform="translate(-1460.928 -1181.65)" fill="#e3eeff"/>
            <path id="Trazado_132408" data-name="Trazado 132408" d="M1505.526,1167.742a3.148,3.148,0,1,1-3.156-3.139A3.147,3.147,0,0,1,1505.526,1167.742Z" transform="translate(-1476.797 -1155.395)" fill="#e3eeff"/>
          </g>
        </g>
        <g id="Grupo_61989" data-name="Grupo 61989" transform="translate(30.986 0)">
          <g id="Grupo_61987" data-name="Grupo 61987" transform="translate(0)">
            <rect id="Rectángulo_29940" data-name="Rectángulo 29940" width="41.327" height="35.94" transform="matrix(1, -0.003, 0.003, 1, 0, 0.132)" fill="#ebf3ff"/>
            <rect id="Rectángulo_29941" data-name="Rectángulo 29941" width="38.98" height="33.04" transform="matrix(1, -0.003, 0.003, 1, 1.154, 1.302)" fill="#00223d"/>
          </g>
          <g id="Grupo_61988" data-name="Grupo 61988" transform="translate(4.982 5.863)">
            <rect id="Rectángulo_29942" data-name="Rectángulo 29942" width="15.525" height="1.364" transform="translate(0)" fill="#cce5ff"/>
            <rect id="Rectángulo_29943" data-name="Rectángulo 29943" width="31.585" height="1.364" transform="translate(0 3.683)" fill="#cce5ff"/>
            <rect id="Rectángulo_29944" data-name="Rectángulo 29944" width="31.585" height="1.364" transform="translate(0 7.433)" fill="#cce5ff"/>
          </g>
        </g>
        <path id="Trazado_132409" data-name="Trazado 132409" d="M1429.028,1172.225V1223.9h-75v-53.033a2.625,2.625,0,0,1,2.659-2.266h68.7A3.73,3.73,0,0,1,1429.028,1172.225Z" transform="translate(-1346.141 -1152.271)" fill="url(#linear-gradient)"/>
        <rect id="Rectángulo_29945" data-name="Rectángulo 29945" width="7.566" height="0.71" transform="translate(0 70.914)" fill="#fff"/>
        <path id="Trazado_132410" data-name="Trazado 132410" d="M1323.161,1267.8l2.635,1.645h4.261l.849.823v-.782h74.946V1267.8Z" transform="translate(-1323 -1226.631)" opacity="0.5" style="mix-blend-mode: darken;isolation: isolate"/>
        <g id="Grupo_61991" data-name="Grupo 61991" transform="translate(0.229 33.12)">
          <g id="Grupo_61990" data-name="Grupo 61990">
            <path id="Trazado_132518" data-name="Trazado 132518" d="M0,0H83.459V8.8H0Z" fill="#21587b"/>
            <rect id="Rectángulo_29947" data-name="Rectángulo 29947" width="75.946" height="8.804" transform="translate(7.513)" fill="#1e5af9"/>
          </g>
        </g>
        <g id="Grupo_62000" data-name="Grupo 62000" transform="translate(15.777 33.065)">
          <path id="Trazado_132411" data-name="Trazado 132411" d="M1429.715,1235.652v8.8h6.161l-4.32-8.8Z" transform="translate(-1418.648 -1235.598)" fill="#21587b"/>
          <g id="Grupo_61996" data-name="Grupo 61996" transform="translate(8.835)">
            <g id="Grupo_61993" data-name="Grupo 61993" transform="translate(0.784 0.058)">
              <path id="Trazado_132412" data-name="Trazado 132412" d="M1425.569,1235.664h-1.636v8.8h1.636c.536,0,1.021-.484,1.37-1.3a7.821,7.821,0,0,0,.571-3.113C1427.51,1237.636,1426.642,1235.664,1425.569,1235.664Zm-.153,4.389c0-.734.238-1.334.545-1.431.307.1.545.7.545,1.431,0,.754-.238,1.354-.545,1.45C1425.654,1241.407,1425.416,1240.807,1425.416,1240.053Z" transform="translate(-1423.933 -1235.664)" fill="#00223d"/>
              <g id="Grupo_61992" data-name="Grupo 61992">
                <path id="Trazado_132413" data-name="Trazado 132413" d="M1424.646,1235.664h-.713v8.8h.713c.561,0,1.069-.484,1.434-1.3a7.524,7.524,0,0,0,.6-3.113C1426.677,1237.636,1425.768,1235.664,1424.646,1235.664Zm.464,5.839c-.321-.1-.57-.7-.57-1.45,0-.734.25-1.334.57-1.431a1.716,1.716,0,0,1,0,2.881Z" transform="translate(-1423.933 -1235.664)" fill="#00223d"/>
              </g>
            </g>
            <g id="Grupo_61995" data-name="Grupo 61995">
              <path id="Trazado_132414" data-name="Trazado 132414" d="M1422.439,1235.664H1420.8v8.8h1.636c.536,0,1.022-.484,1.371-1.3a7.819,7.819,0,0,0,.571-3.113C1424.38,1237.636,1423.512,1235.664,1422.439,1235.664Zm-.153,4.389c0-.734.239-1.334.545-1.431.306.1.545.7.545,1.431,0,.754-.238,1.354-.545,1.45C1422.524,1241.407,1422.286,1240.807,1422.286,1240.053Z" transform="translate(-1420.803 -1235.607)" fill="#00223d"/>
              <g id="Grupo_61994" data-name="Grupo 61994" transform="translate(0 0.058)">
                <path id="Trazado_132415" data-name="Trazado 132415" d="M1421.516,1235.664h-.713v8.8h.713c.562,0,1.069-.484,1.434-1.3a7.52,7.52,0,0,0,.6-3.113C1423.547,1237.636,1422.638,1235.664,1421.516,1235.664Zm.677,5.839c-.321-.1-.57-.7-.57-1.45,0-.734.249-1.334.57-1.431.321.1.57.7.57,1.431C1422.763,1240.807,1422.513,1241.407,1422.193,1241.5Z" transform="translate(-1420.803 -1235.664)" fill="#21587b"/>
              </g>
              <path id="Trazado_132416" data-name="Trazado 132416" d="M1427.173,1244.347h-.01a.057.057,0,0,1,0-.114,1.243,1.243,0,0,0,.82-.4c.461-.445,1.009-1.456,1.009-3.745,0-4.166-1.823-4.54-1.842-4.544a.058.058,0,0,1-.047-.066.056.056,0,0,1,.066-.046c.079.013,1.937.383,1.937,4.656,0,2.335-.57,3.373-1.049,3.832A1.354,1.354,0,0,1,1427.173,1244.347Z" transform="translate(-1425.529 -1235.434)" fill="#00223d"/>
            </g>
          </g>
          <g id="Grupo_61997" data-name="Grupo 61997" transform="translate(2.124 3.115)">
            <path id="Trazado_132417" data-name="Trazado 132417" d="M1402.105,1250.91c-.077.02-.135.039-.212.058.019.019.019.019,0,.019a7.545,7.545,0,0,0-5.414,7.212v7.349H1394V1258.2a10.009,10.009,0,0,1,7.811-9.745,1.581,1.581,0,0,1,.29-.077C1402.821,1248.223,1402.879,1250.794,1402.105,1250.91Z" transform="translate(-1394.004 -1248.246)" fill="#fff"/>
            <path id="Trazado_132418" data-name="Trazado 132418" d="M1438.054,1247.872v2.461a7.6,7.6,0,0,1,6.451,5.87.818.818,0,0,1,.038.193,4.51,4.51,0,0,1,.078.5,7.468,7.468,0,0,1,.058.928v7.349h2.456v-7.349A10.039,10.039,0,0,0,1438.054,1247.872Z" transform="translate(-1427.023 -1247.872)" fill="#fff"/>
            <path id="Trazado_132419" data-name="Trazado 132419" d="M1406.975,1255.4c-5.8,1.018-6.551,7.336-6.551,7.336v8.031h.871v-7.349a7.571,7.571,0,0,1,5.621-7.286c.246-.08.4-.8.4-.8S1407.163,1255.365,1406.975,1255.4Z" transform="translate(-1398.816 -1253.464)" fill="#e6e6e6"/>
            <path id="Trazado_132420" data-name="Trazado 132420" d="M1438.054,1255.612v.523a7.6,7.6,0,0,1,6.451,5.87A7.226,7.226,0,0,0,1438.054,1255.612Z" transform="translate(-1427.023 -1253.674)" fill="#e6e6e6"/>
            <path id="Trazado_132421" data-name="Trazado 132421" d="M1425.488,1250.91c-.077.02-.135.039-.212.058a2.609,2.609,0,0,0,.411-1.24c.039-.754-.217-1.265-.489-1.273a1.584,1.584,0,0,1,.29-.077C1426.2,1248.223,1426.262,1250.794,1425.488,1250.91Z" transform="translate(-1417.387 -1248.246)" fill="#e6e6e6"/>
          </g>
          <g id="Grupo_61999" data-name="Grupo 61999" transform="translate(0 18.398)">
            <path id="Trazado_837756" data-name="Trazado 837756" d="M0,0H24.382V20.115H0Z" transform="translate(0 0.016)" fill="#1e5af9"/>
            <g id="Grupo_61998" data-name="Grupo 61998" transform="translate(9.04 4.92)">
              <path id="Trazado_132422" data-name="Trazado 132422" d="M1421.622,1331.575a3.045,3.045,0,0,0,1.779,2.772v5.133a1.255,1.255,0,0,0,.987,1.23h.058a.655.655,0,0,0,.194.019,1.252,1.252,0,0,0,1.237-1.249v-5.133a3.066,3.066,0,0,0,1.78-2.772,3.018,3.018,0,0,0-3.016-3.025.938.938,0,0,0-.232.019A3,3,0,0,0,1421.622,1331.575Z" transform="translate(-1421.622 -1328.55)" fill="#1945bb"/>
              <path id="Trazado_132423" data-name="Trazado 132423" d="M1421.622,1331.634a3.044,3.044,0,0,0,1.779,2.771v5.133a1.255,1.255,0,0,0,.987,1.23h.058a1.255,1.255,0,0,0,.986-1.23v-5.133a3.066,3.066,0,0,0,1.779-2.771,2.8,2.8,0,1,0-5.588,0Z" transform="translate(-1421.622 -1328.609)" fill="#00223d"/>
            </g>
            <path id="Trazado_132424" data-name="Trazado 132424" d="M1451.991,1328.9h7.737v-19.93h-2.147S1458.152,1323.673,1451.991,1328.9Z" transform="translate(-1435.347 -1308.951)" fill="#00223d"/>
            <rect id="Rectángulo_29949" data-name="Rectángulo 29949" width="1.991" height="19.91" transform="translate(0.801)" fill="#00223d"/>
          </g>
        </g>
      </g>
      <g id="Grupo_62011" data-name="Grupo 62011" transform="translate(70.239 65.457)">
        <path id="Trazado_132427" data-name="Trazado 132427" d="M1560.32,1221.075a4.233,4.233,0,0,1,.93,3.754,6.858,6.858,0,0,1,1.97,6.17c3.526,3.2,2.658,7.763.2,9.106-2.345,1.28-5.776.069-7.186-2.924-2.244-3.75-4.435-10.754-.9-14.433C1554.586,1220.158,1559.3,1219.738,1560.32,1221.075Z" transform="translate(-1538.835 -1211.326)" fill="#0e0e0e"/>
        <g id="Grupo_62007" data-name="Grupo 62007" transform="translate(9.272 5.999)">
          <path id="Trazado_132428" data-name="Trazado 132428" d="M1545.219,1218.137l-3.484-3.54,0-6.126-1.151-.151s-.942,5.572-.939,6.755c0,1.051,3.53,5.62,3.53,5.62Z" transform="translate(-1537.747 -1208.319)" fill="#ffa599"/>
          <path id="Trazado_132429" data-name="Trazado 132429" d="M1559.452,1249.965l-1.923,5.28h-5.1s-.333-3.264-.4-5a6.86,6.86,0,0,1,.008-.93c.171-1.256,2.241-2.962,2.241-2.962a.21.21,0,0,0,.046-.008c.411-.046,3.21-.356,4.233.5C1559.646,1247.778,1559.452,1249.965,1559.452,1249.965Z" transform="translate(-1547.016 -1236.753)" fill="#6e40fc"/>
          <path id="Trazado_132430" data-name="Trazado 132430" d="M1566.859,1308.024h-4.541a23.345,23.345,0,0,0,.8,2.754c1.849,5.065,2.75,11.846,4.7,16.313,0,0,.84.435,1.4,0a95.764,95.764,0,0,0-1.449-11.016C1567.387,1314.456,1567.541,1310.585,1566.859,1308.024Z" transform="translate(-1554.739 -1283.056)" fill="#ffa599"/>
          <path id="Trazado_132431" data-name="Trazado 132431" d="M1544.594,1308.024c-.589,5.617-1.671,17.749-1.79,19l1.443.007c.946-3.214,2.153-6.1,2.26-10.177.736-2.244,1.961-6.017,2.88-8.831Z" transform="translate(-1540.112 -1283.056)" fill="#ffa599"/>
          <path id="Trazado_132432" data-name="Trazado 132432" d="M1555.646,1312.5l-3.428.283-.832.068-3.68.306c-.16,1.559-.337,3.41-.512,5.313,1.107.459,2.653,1.123,2.786,1.182l1.8-5.518c.528,1.719,1.173,3.967,1.66,5.721a13.67,13.67,0,0,1,2.887-1.011C1556.15,1316.809,1555.927,1314.473,1555.646,1312.5Z" transform="translate(-1543.403 -1286.409)" fill="#e87c5d"/>
          <path id="Trazado_132433" data-name="Trazado 132433" d="M1575.894,1222.826l3.377-2.59-1.078-5.7,1.23-.379s2.662,5.384,2.659,6.568c0,1.051-4.884,5.21-4.884,5.21C1576.4,1226.311,1575.207,1224.546,1575.894,1222.826Z" transform="translate(-1564.762 -1212.694)" fill="#ffa599"/>
          <path id="Trazado_132434" data-name="Trazado 132434" d="M1560.109,1245.474s-1.435.982-.9,1.716c.462.632,1.6-.088,1.6-.088s.191.977.957.847a1.55,1.55,0,0,0,.841-2.26A2.84,2.84,0,0,0,1560.109,1245.474Z" transform="translate(-1552.32 -1236.029)" fill="#fff"/>
          <path id="Trazado_132435" data-name="Trazado 132435" d="M1565.139,1242.167c0,.426-.709,1.039-1.7.99-.628-.032-.982-.388-.879-.83l.109-.566.3-1.612,2.3.062Z" transform="translate(-1554.908 -1232.178)" fill="#ffa599"/>
          <path id="Trazado_132436" data-name="Trazado 132436" d="M1565.5,1240.513c-.318.665-.947,1.175-2.45,1.248l.3-1.612,2.14.062Z" transform="translate(-1555.286 -1232.178)" fill="#e87c5d"/>
          <path id="Trazado_132437" data-name="Trazado 132437" d="M1564.076,1223.578a2.622,2.622,0,0,1-3.434,1.56,2.472,2.472,0,0,1-.463-3.3,2.314,2.314,0,0,1,3.518-2.29C1565,1220.3,1564.914,1222.035,1564.076,1223.578Z" transform="translate(-1552.81 -1216.5)" fill="#ffa599"/>
          <path id="Trazado_132438" data-name="Trazado 132438" d="M1555.274,1295.143a17.826,17.826,0,0,1-4.745.861c-3.389.194-7.278-.367-7.627-.98a80.142,80.142,0,0,1,2.7-12.86h5.094a8.058,8.058,0,0,1,2.24,3.256A59.285,59.285,0,0,1,1555.274,1295.143Z" transform="translate(-1540.185 -1263.672)" fill="#6e40fc"/>
          <g id="Grupo_62005" data-name="Grupo 62005" transform="translate(0 43.968)">
            <path id="Trazado_132439" data-name="Trazado 132439" d="M1532.287,1385.359c0-.018.858-.019,1.775-.015,1.055,0,2.369.015,2.369.015a4.786,4.786,0,0,0-.093-1.453l-1.654-.009a11.259,11.259,0,0,0-1.261.322c-.053.016-.11.028-.168.042C1531.971,1384.558,1532.287,1385.4,1532.287,1385.359Z" transform="translate(-1532.202 -1383.897)" fill="#fdfeff"/>
            <path id="Trazado_132440" data-name="Trazado 132440" d="M1532.287,1386.323c0-.018.858-.019,1.775-.015a.816.816,0,0,0,.043-.264.925.925,0,0,0-.682-.861c-.053.015-.11.028-.168.042C1531.971,1385.523,1532.287,1386.361,1532.287,1386.323Z" transform="translate(-1532.202 -1384.862)" fill="#d9ecff"/>
            <rect id="Rectángulo_29951" data-name="Rectángulo 29951" width="4.285" height="0.26" transform="translate(4.285 1.463) rotate(180)" fill="#d9ecff"/>
          </g>
          <g id="Grupo_62006" data-name="Grupo 62006" transform="translate(12.931 44.027)">
            <path id="Trazado_132441" data-name="Trazado 132441" d="M1583.864,1385.595l.966-.01c.847-.009,1.962-.015,2.066.01.295-.714-.317-1.08-.881-1.282-.24-.085-.473-.141-.621-.18l-1.436.008A4.8,4.8,0,0,0,1583.864,1385.595Z" transform="translate(-1583.807 -1384.133)" fill="#fdfeff"/>
            <rect id="Rectángulo_29952" data-name="Rectángulo 29952" width="3.173" height="0.26" transform="translate(0 1.202)" fill="#d9ecff"/>
          </g>
          <path id="Trazado_132442" data-name="Trazado 132442" d="M1587.537,1386.1c.848-.008,1.962-.015,2.067.01.3-.714-.317-1.08-.881-1.281a1.172,1.172,0,0,0-1.009.332A.811.811,0,0,0,1587.537,1386.1Z" transform="translate(-1573.584 -1340.618)" fill="#d9ecff"/>
          <path id="Trazado_132443" data-name="Trazado 132443" d="M1555.947,1282.456a6.7,6.7,0,0,1-2.644-.528.116.116,0,0,1,.1-.21,6.461,6.461,0,0,0,4.993,0,.116.116,0,1,1,.093.213A6.3,6.3,0,0,1,1555.947,1282.456Z" transform="translate(-1547.933 -1263.329)" fill="#fff"/>
          <path id="Trazado_132444" data-name="Trazado 132444" d="M1554.429,1219.954c1.586,1.9,3.667-1.883,5.066-.7,0,0,.124,2.833,1.076,1.88.3-.355.631-2.029-.161-2.586.019-.915-1.5-1.82-3.289-1.391a2.271,2.271,0,0,0-1.69,1.661A.816.816,0,0,0,1554.429,1219.954Z" transform="translate(-1548.749 -1214.866)" fill="#0e0e0e"/>
        </g>
        <g id="Grupo_62008" data-name="Grupo 62008" transform="translate(0)">
          <rect id="Rectángulo_29953" data-name="Rectángulo 29953" width="31.676" height="3.216" transform="translate(0.578 0.25) rotate(10.348)" fill="#00223d"/>
          <rect id="Rectángulo_29954" data-name="Rectángulo 29954" width="31.676" height="0.214" transform="translate(0.589 0.19) rotate(10.348)" fill="#fff"/>
          <path id="Trazado_132445" data-name="Trazado 132445" d="M1617.9,1184.647a8.448,8.448,0,1,0,6.8,9.826A8.453,8.453,0,0,0,1617.9,1184.647Zm3.825,9.017c-.007.084-.023.176-.038.259a5.388,5.388,0,0,1-10.635-.206,5.3,5.3,0,0,1,.031-1.733,5.39,5.39,0,0,1,10.651,1.641A.069.069,0,0,1,1621.728,1193.664Z" transform="translate(-1579.665 -1184.471)" fill="#00223d"/>
          <rect id="Rectángulo_29955" data-name="Rectángulo 29955" width="2.973" height="6.238" transform="translate(2.582 1.756) rotate(10.348)" fill="#00223d"/>
          <rect id="Rectángulo_29956" data-name="Rectángulo 29956" width="2.973" height="4.727" transform="matrix(0.984, 0.18, -0.18, 0.984, 8.151, 3.268)" fill="#00223d"/>
          <path id="Trazado_132446" data-name="Trazado 132446" d="M1630.647,1201.265a5.39,5.39,0,0,0-10.651-1.642,5.31,5.31,0,0,0-.031,1.733,5.1,5.1,0,0,1-.137-1.191,5.467,5.467,0,0,1,10.933,0A5.253,5.253,0,0,1,1630.647,1201.265Z" transform="translate(-1588.576 -1192.11)" fill="#0a3366"/>
          <path id="Trazado_132447" data-name="Trazado 132447" d="M1617.716,1184.37a8.685,8.685,0,0,0-8.414,5.525l.3.048a8.153,8.153,0,0,1,8.111-5.271Z" transform="translate(-1580.686 -1184.361)" fill="#fff"/>
        </g>
        <g id="Grupo_62009" data-name="Grupo 62009" transform="translate(12.082 4.746)">
          <path id="Trazado_132448" data-name="Trazado 132448" d="M1544.375,1204.917s.451-.109.575-.882.143-.594.143-.594-.425-.219-.651.673c-.667-.045-1.2.273-1.165.7C1543.3,1205.083,1544.293,1205.037,1544.375,1204.917Z" transform="translate(-1543.275 -1203.391)" fill="#ffa599"/>
          <path id="Trazado_132449" data-name="Trazado 132449" d="M1543.346,1204.51l-.065-.041a1.254,1.254,0,0,1,1.136-.473c.129-.506.373-.744.689-.671l-.017.074c-.351-.082-.523.306-.6.644l-.007.031-.031,0A1.217,1.217,0,0,0,1543.346,1204.51Z" transform="translate(-1543.279 -1203.313)" fill="#ff7e59"/>
        </g>
        <g id="Grupo_62010" data-name="Grupo 62010" transform="translate(21.802 6.46)">
          <path id="Trazado_132450" data-name="Trazado 132450" d="M1583.17,1211.921s-.665-.222-.928-1.606c.427-.3.6.5.6.5a3.082,3.082,0,0,1,1.217.182c.262.119.324.263.471.633C1584.9,1212.427,1583.17,1211.921,1583.17,1211.921Z" transform="translate(-1582.204 -1210.225)" fill="#ffa599"/>
          <path id="Trazado_132451" data-name="Trazado 132451" d="M1584.4,1211.6a.038.038,0,0,1-.036-.024s-.049-.125-.146-.339c-.277-.542-1.484-.451-1.5-.45l-.031,0-.009-.03a2.658,2.658,0,0,0-.169-.41.191.191,0,0,0-.114-.1.394.394,0,0,0-.258.038.039.039,0,0,1-.052-.016.038.038,0,0,1,.016-.052.468.468,0,0,1,.317-.043.267.267,0,0,1,.159.142,2.892,2.892,0,0,1,.164.394c.2-.012,1.263-.049,1.541.5.1.218.147.343.148.344a.038.038,0,0,1-.022.049A.031.031,0,0,1,1584.4,1211.6Z" transform="translate(-1582.09 -1210.16)" fill="#ff7e59"/>
        </g>
        <path id="Trazado_132452" data-name="Trazado 132452" d="M1576.31,1233.842a.526.526,0,1,0,.526-.526A.526.526,0,0,0,1576.31,1233.842Z" transform="translate(-1555.955 -1221.057)" fill="#ffa599"/>
      </g>
      <path id="Trazado_132453" data-name="Trazado 132453" d="M1345.019,1390.6H1213.788a.611.611,0,0,1-.611-.611h0a.611.611,0,0,1,.611-.611h131.231a.611.611,0,0,1,.611.611h0A.611.611,0,0,1,1345.019,1390.6Z" transform="translate(-1205.728 -1272.51)"/>
    </g>
  </g>
</svg>
