<svg xmlns="http://www.w3.org/2000/svg" xmlns:xlink="http://www.w3.org/1999/xlink" width="95.974" height="95.974" viewBox="0 0 95.974 95.974">
  <defs>
    <filter id="Trazado_837255" x="0" y="0" width="95.974" height="95.974" filterUnits="userSpaceOnUse">
      <feOffset dy="3" input="SourceAlpha"/>
      <feGaussianBlur stdDeviation="3" result="blur"/>
      <feFlood flood-opacity="0.161"/>
      <feComposite operator="in" in2="blur"/>
      <feComposite in="SourceGraphic"/>
    </filter>
  </defs>
  <g id="Grupo_1096442" data-name="Grupo 1096442" transform="translate(-288.631 -3633.064)">
    <g transform="matrix(1, 0, 0, 1, 288.63, 3633.06)" filter="url(#Trazado_837255)">
      <path id="Trazado_837255-2" data-name="Trazado 837255" d="M77.974,38.987A38.987,38.987,0,1,1,38.987,0,38.988,38.988,0,0,1,77.974,38.987" transform="translate(9 6)" fill="#fff"/>
    </g>
    <g id="Grupo_1096441" data-name="Grupo 1096441" transform="translate(-34.478 -509)">
      <rect id="Rectángulo_29593" data-name="Rectángulo 29593" width="14.792" height="15.042" transform="translate(357.785 4164.754)" fill="#fff"/>
      <path id="Línea_1699" data-name="Línea 1699" d="M8.206.533H0A.533.533,0,0,1-.533,0,.533.533,0,0,1,0-.533H8.206A.533.533,0,0,1,8.739,0,.533.533,0,0,1,8.206.533Z" transform="translate(340.942 4177.041)" fill="#12263f"/>
      <path id="Línea_1700" data-name="Línea 1700" d="M8.2.533H0A.533.533,0,0,1-.533,0,.533.533,0,0,1,0-.533H8.2A.533.533,0,0,1,8.738,0,.533.533,0,0,1,8.2.533Z" transform="translate(390.172 4166.268)" fill="#12263f"/>
      <path id="Línea_1701" data-name="Línea 1701" d="M8.205.533H0A.533.533,0,0,1-.533,0,.533.533,0,0,1,0-.533H8.205A.533.533,0,0,1,8.738,0,.533.533,0,0,1,8.205.533Z" transform="translate(372.577 4162)"/>
      <path id="Línea_1702" data-name="Línea 1702" d="M2.043.533H0A.533.533,0,0,1-.533,0,.533.533,0,0,1,0-.533H2.043A.533.533,0,0,1,2.576,0,.533.533,0,0,1,2.043.533Z" transform="translate(344.023 4171.188)" fill="#12263f"/>
      <path id="Línea_1703" data-name="Línea 1703" d="M2.045.533H0A.533.533,0,0,1-.533,0,.533.533,0,0,1,0-.533H2.045A.533.533,0,0,1,2.577,0,.533.533,0,0,1,2.045.533Z" transform="translate(390.557 4189.042)" fill="#12263f"/>
      <path id="Línea_1704" data-name="Línea 1704" d="M2.043.533H0A.533.533,0,0,1-.533,0,.533.533,0,0,1,0-.533H2.043A.533.533,0,0,1,2.576,0,.533.533,0,0,1,2.043.533Z" transform="translate(395.947 4195.461)" fill="#12263f"/>
      <path id="Línea_1705" data-name="Línea 1705" d="M2.044.533H0A.533.533,0,0,1-.533,0,.533.533,0,0,1,0-.533H2.044A.533.533,0,0,1,2.577,0,.533.533,0,0,1,2.044.533Z" transform="translate(389.535 4172.845)" fill="#12263f"/>
      <path id="Línea_1706" data-name="Línea 1706" d="M5.389.533H0A.533.533,0,0,1-.533,0,.533.533,0,0,1,0-.533H5.389A.533.533,0,0,1,5.922,0,.533.533,0,0,1,5.389.533Z" transform="translate(398.556 4183.868)" fill="#12263f"/>
      <path id="Línea_1707" data-name="Línea 1707" d="M0,.534A.533.533,0,0,1-.533,0,.533.533,0,0,1,0-.532H5.39A.533.533,0,0,1,5.923,0,.533.533,0,0,1,5.39.533Z" transform="translate(391.579 4201.683)" fill="#12263f"/>
      <path id="Línea_1708" data-name="Línea 1708" d="M5.39.533H0A.533.533,0,0,1-.533,0,.533.533,0,0,1,0-.533H5.39A.533.533,0,0,1,5.922,0,.533.533,0,0,1,5.39.533Z" transform="translate(338.247 4186.76)" fill="#12263f"/>
      <path id="Trazado_123992" data-name="Trazado 123992" d="M256.408,1075.194h-5.689a2.83,2.83,0,0,0-2.822,2.822v8.422h8.511Z" transform="translate(100.672 3118.154)" fill="#fff"/>
      <path id="Trazado_123993" data-name="Trazado 123993" d="M272.4,1077.737a7.122,7.122,0,1,1,7.121-7.122A7.129,7.129,0,0,1,272.4,1077.737Z" transform="translate(100.672 3118.154)" fill="#fff"/>
      <g id="Grupo_57082" data-name="Grupo 57082" transform="translate(347.047 4191.755)">
        <path id="Trazado_123994" data-name="Trazado 123994" d="M261.275,1088.287a.533.533,0,0,1-.533-.533v-10.6a3.023,3.023,0,0,0-3.019-3.019h-7.8a3.023,3.023,0,0,0-3.019,3.019v10.6a.533.533,0,1,1-1.066,0v-10.6a4.089,4.089,0,0,1,4.085-4.085h7.8a4.089,4.089,0,0,1,4.085,4.085v10.6A.533.533,0,0,1,261.275,1088.287Z" transform="translate(-246.375 -1073.601)" fill="#12263f"/>
      </g>
      <path id="Trazado_123995" data-name="Trazado 123995" d="M253.815,1071.421a4.32,4.32,0,1,1,4.32-4.32A4.325,4.325,0,0,1,253.815,1071.421Zm0-7.575a3.255,3.255,0,1,0,3.254,3.255A3.258,3.258,0,0,0,253.815,1063.846Z" transform="translate(100.672 3118.154)" fill="#12263f"/>
      <path id="Línea_1709" data-name="Línea 1709" d="M3.158.533H0A.533.533,0,0,1-.533,0,.533.533,0,0,1,0-.533H3.158A.533.533,0,0,1,3.691,0,.533.533,0,0,1,3.158.533Z" transform="translate(365.702 4205.735)" fill="#12263f"/>
      <path id="Trazado_123996" data-name="Trazado 123996" d="M284.993,1088.114H276.6a.533.533,0,0,1,0-1.066h7.327v-42.67H254.643v14.784a.533.533,0,1,1-1.066,0v-15.849h31.415Z" transform="translate(100.672 3118.154)" fill="#12263f"/>
      <path id="Línea_1710" data-name="Línea 1710" d="M18.3.533H0A.533.533,0,0,1-.533,0,.533.533,0,0,1,0-.533H18.3A.533.533,0,0,1,18.836,0,.533.533,0,0,1,18.3.533Z" transform="translate(360.67 4167.684)" fill="#12263f"/>
      <path id="Línea_1711" data-name="Línea 1711" d="M18.3.533H0A.533.533,0,0,1-.533,0,.533.533,0,0,1,0-.533H18.3A.533.533,0,0,1,18.836,0,.533.533,0,0,1,18.3.533Z" transform="translate(360.67 4172.845)" fill="#12263f"/>
      <path id="Trazado_123997" data-name="Trazado 123997" d="M272.4,1061.108a9.507,9.507,0,1,1-9.507,9.507A9.517,9.517,0,0,1,272.4,1061.108Zm0,17.948a8.441,8.441,0,1,0-8.441-8.441A8.45,8.45,0,0,0,272.4,1079.056Z" transform="translate(100.672 3118.154)" fill="#12263f"/>
      <path id="Trazado_123998" data-name="Trazado 123998" d="M272.4,1076.55a5.935,5.935,0,1,1,5.936-5.935A5.942,5.942,0,0,1,272.4,1076.55Zm0-10.8a4.87,4.87,0,1,0,4.87,4.87A4.876,4.876,0,0,0,272.4,1065.745Z" transform="translate(100.672 3118.154)" fill="#12263f"/>
      <path id="Rectángulo_29594" data-name="Rectángulo 29594" d="M-.533-.533H4.425V14.894H-.533ZM3.36.533H.533v13.3H3.36Z" transform="translate(371.123 4197.743)" fill="#12263f"/>
      <path id="Trazado_123999" data-name="Trazado 123999" d="M253.815,1080.122h-.006a.533.533,0,0,1-.447-.252l-3.708-5.988a.533.533,0,0,1,.906-.561l3.266,5.275,3.439-5.285a.533.533,0,0,1,.893.581l-3.9,5.988A.533.533,0,0,1,253.815,1080.122Z" transform="translate(100.672 3118.154)" fill="#12263f"/>
    </g>
  </g>
</svg>
