<svg xmlns="http://www.w3.org/2000/svg" xmlns:xlink="http://www.w3.org/1999/xlink" width="400" height="279" viewBox="0 0 400 279">
  <defs>
    <clipPath id="clip-path">
      <rect id="Rectángulo_388617" data-name="Rectángulo 388617" width="400" height="279" transform="translate(180 10593)" fill="#fff"/>
    </clipPath>
  </defs>
  <g id="Enmascarar_grupo_1090672" data-name="Enmascarar grupo 1090672" transform="translate(-180 -10593)" clip-path="url(#clip-path)">
    <g id="_22917188086832_Convertido_" data-name="22917188086832 [Convertido]" transform="translate(195 10671.001)">
      <g id="Desk" transform="translate(10.785 375.942)">
        <path id="Trazado_837716" data-name="Trazado 837716" d="M365.331,439.772c0,.12-78.969.222-176.352.222s-176.369-.1-176.369-.222,78.952-.222,176.369-.222S365.331,439.653,365.331,439.772Z" transform="translate(-12.61 -439.55)" fill="#263238"/>
      </g>
      <g id="Character" transform="translate(0.957 -3.047)">
        <g id="Grupo_1096720" data-name="Grupo 1096720" transform="translate(159.834 -74.953)" opacity="0.84">
          <path id="Trazado_837717" data-name="Trazado 837717" d="M42.867,55.033V59.5H27.97v.438H68.246v14.6H27.97v.45h14.9v14.6H27.97v.438H68.246v14.6H27.97v.438h14.9v14.6H27.97v.438H68.246v14.6H27.97v.45h14.9v14.6H27.97v.45H68.246v14.6H27.97v.45h14.9v14.6H27.97v.438H68.246v14.6H27.97v.45h14.9v14.6H27.97v.438H68.246v14.6H27.97v.438h14.9v14.6H27.97v.45H68.246v14.6H27.97v.45h14.9v14.6H27.97v.45H68.246v14.6H27.97v.45h14.9v14.6H27.97v.438H68.246v14.6H27.97v.45h14.9v14.6H27.97v.45H68.246v14.6H27.97v.45h14.9v14.6H27.97v.438H68.246v14.6H27.97v.438h14.9v14.6H27.97v.45H68.246v14.6H27.97v.45h14.9v14.6H27.97v.438H68.246v14.6H27.97v.45h14.9v14.6H27.97v.45H68.246v14.6H27.97v.438h14.9v14.6H27.97v.438H68.246V486.3h.438V481.11H119V486.3h.438V481.11h50.32V486.3h.438V481.11h44.091c.4-.15.8-.288,1.2-.438h-19.9v-14.6h44.954c.175-.15.35-.3.525-.438h-20.1v-14.6h33.91c.113-.15.213-.3.325-.45h-8.856v-14.6h17.636c.075-.15.138-.3.213-.45H220.97v-14.6h48.544c.038-.15.088-.3.125-.438h-23.29v-14.6h25.792c0-.15.025-.3.038-.45h-.45v-14.6h.388l-.038-.45H246.349v-14.6h23.115a4.464,4.464,0,0,0-.125-.438H220.958v-14.6h42.928c-.075-.15-.138-.3-.213-.438H246.337v-14.6h8.393l-.338-.45H220.97V330.7h19.35c-.175-.15-.363-.3-.55-.45H195.591v-14.6h18.162l-1.276-.45H170.213v-7.492a4.668,4.668,0,0,1-.438-.2v7.68h-50.32v-14.6H159.33c-.163-.15-.313-.288-.463-.438H144.846v-14.6h4.716l-.15-.45H119.467v-14.6H147.66c0-.15.025-.3.038-.45h-2.852v-14.6h7.4c.088-.15.163-.3.25-.45H119.467v-14.6h48.394l.9-.45h-23.9v-14.6h50.308v10.507l.45-.075V225.368h20.376c.15-.15.3-.3.45-.438H170.225v-14.6h50.32v9.731l.45-.638v-9.093h4.578c.05-.15.1-.3.15-.438H195.616V195.3h32c0-.15-.013-.3-.025-.45H221v-14.6h2.477a4.882,4.882,0,0,0-.238-.438H195.616v-14.6h14.172l-.713-.45H170.237v-6.579c-.15-.063-.3-.113-.438-.175v6.754h-50.32v-14.6h42.315l-.188-.45H144.859v-14.6h18.662c.113-.15.225-.3.35-.45H119.479v-14.6H169.8v10.157c.15-.063.3-.125.438-.175v-9.981h25.542c.025-.15.038-.3.05-.438h-.213v-3.2a9.311,9.311,0,0,0-.45-1.451v4.653H144.858V108.355h-.438v11.282H94.113v-14.6h14.634c-.188-.15-.375-.288-.563-.438H68.734v-14.6h33.659c.013-.15.038-.3.063-.438H94.113v-14.6h48.431c.325-.138.625-.288.938-.45H119.5v-14.6H147.4c-.1-.15-.188-.3-.288-.438h-2.226V57.159c-.15-.113-.288-.213-.438-.325v2.652H94.138V55.02h-.45v4.465H43.367V55.02h-.45ZM204.3,120.1c-.025-.15-.038-.3-.05-.438h20.663a2.464,2.464,0,0,1-.05.438h-3.89v6.8c-.15.113-.3.225-.45.325V120.1H204.285ZM43.317,466h50.32v14.6H43.317V466Zm50.758,0h50.308v14.6H94.076V466Zm50.758,0h50.308v14.6H144.833V466ZM68.7,450.965h50.32v14.6H68.7v-14.6Zm50.758,0h50.32v14.6h-50.32v-14.6Zm50.758,0h50.32v14.6h-50.32v-14.6ZM43.318,435.93h50.32v14.6H43.318v-14.6Zm50.758,0h50.308v14.6H94.076v-14.6Zm50.758,0h50.308v14.6H144.834v-14.6Zm50.758,0h50.32v14.6h-50.32v-14.6ZM68.7,420.9h50.32v14.6H68.7V420.9Zm50.758,0h50.32v14.6h-50.32V420.9Zm50.758,0h50.32v14.6h-50.32V420.9ZM43.318,405.861h50.32v14.6H43.318v-14.6Zm50.758,0h50.308v14.6H94.076v-14.6Zm50.758,0h50.308v14.6H144.834v-14.6Zm50.758,0h50.32v14.6h-50.32v-14.6ZM68.7,390.826h50.32v14.6H68.7v-14.6Zm50.758,0h50.32v14.6h-50.32v-14.6Zm50.758,0h50.32v14.6h-50.32v-14.6Zm50.758,0h50.308v14.6h-50.32v-14.6h0ZM43.318,375.779h50.32v14.6H43.318v-14.6Zm50.758,0h50.308v14.6H94.076v-14.6Zm50.758,0h50.308v14.6H144.834v-14.6Zm50.758,0h50.32v14.6h-50.32v-14.6ZM68.7,360.744h50.32v14.6H68.7v-14.6Zm50.758,0h50.32v14.6h-50.32v-14.6Zm50.758,0h50.32v14.6h-50.32v-14.6Zm-126.9-15.035h50.32v14.6H43.318v-14.6Zm50.758,0h50.308v14.6H94.076v-14.6Zm50.758,0h50.308v14.6H144.834v-14.6Zm50.758,0h50.32v14.6h-50.32v-14.6ZM68.7,330.674h50.32v14.6H68.7v-14.6Zm50.758,0h50.32v14.6h-50.32v-14.6Zm50.758,0h50.32v14.6h-50.32v-14.6ZM43.318,315.64h50.32v14.6H43.318v-14.6Zm50.758,0h50.308v14.6H94.076v-14.6Zm50.758,0h50.308v14.6H144.834v-14.6ZM68.7,300.592h50.32v14.6H68.7v-14.6ZM43.318,285.558h50.32v14.6H43.318v-14.6Zm50.758,0h50.308v14.6H94.076v-14.6ZM68.7,270.523h50.32v14.6H68.7v-14.6ZM43.318,255.488h50.32v14.6H43.318v-14.6Zm50.758,0h50.308v14.6H94.076v-14.6ZM68.7,240.453h50.32v14.6H68.7v-14.6ZM43.318,225.418h50.32v14.6H43.318v-14.6Zm50.758,0h50.308v14.6H94.076v-14.6ZM68.7,210.384h50.32v14.6H68.7v-14.6Zm50.758,0h50.32v14.6h-50.32v-14.6ZM43.318,195.349h50.32v14.6H43.318v-14.6Zm50.758,0h50.308v14.6H94.076v-14.6Zm50.758,0h50.308v14.6H144.834v-14.6ZM68.7,180.314h50.32v14.6H68.7v-14.6Zm50.758,0h50.32v14.6h-50.32v-14.6Zm50.758,0h50.32v14.6h-50.32v-14.6Zm-126.9-15.035h50.32v14.6H43.318v-14.6Zm50.758,0h50.308v14.6H94.076v-14.6Zm50.758,0h50.308v14.6H144.834v-14.6ZM68.7,150.245h50.32v14.6H68.7v-14.6ZM43.318,135.21h50.32v14.6H43.318v-14.6Zm50.758,0h50.308v14.6H94.076v-14.6ZM68.7,120.175h50.32v14.6H68.7v-14.6ZM43.318,105.14h50.32v14.6H43.318v-14.6Zm0-30.082h50.32v14.6H43.318v-14.6ZM68.7,60.023h50.32v14.6H68.7Z" transform="translate(-27.97 -55.02)" fill="#73afcc" fill-rule="evenodd"/>
        </g>
      </g>
      <g id="Grupo_1096721" data-name="Grupo 1096721" transform="translate(-15 -78)">
        <rect id="Rectángulo_388603" data-name="Rectángulo 388603" width="41.088" height="81.441" transform="translate(0 75.257)" fill="#12263f"/>
        <rect id="Rectángulo_388604" data-name="Rectángulo 388604" width="44.39" height="81.441" transform="translate(42.662 75.257)" fill="#12263f"/>
        <rect id="Rectángulo_388605" data-name="Rectángulo 388605" width="44.39" height="78.687" transform="translate(42.662 162.385)" fill="#12263f"/>
        <path id="Trazado_837718" data-name="Trazado 837718" d="M108.44,73.846h46.75V1.6h1.582V73.846h38.043V0H108.44Z" transform="translate(-15.692)" fill="#12263f"/>
        <rect id="Rectángulo_388606" data-name="Rectángulo 388606" width="38.043" height="81.441" transform="translate(141.08 75.257)" fill="#12263f"/>
        <rect id="Rectángulo_388607" data-name="Rectángulo 388607" width="38.043" height="78.687" transform="translate(141.08 162.385)" fill="#12263f"/>
        <rect id="Rectángulo_388608" data-name="Rectángulo 388608" width="41.088" height="78.687" transform="translate(0 162.385)" fill="#12263f"/>
        <rect id="Rectángulo_388609" data-name="Rectángulo 388609" width="46.75" height="78.687" transform="translate(92.748 162.385)" fill="#12263f"/>
        <rect id="Rectángulo_388610" data-name="Rectángulo 388610" width="41.088" height="70.912" transform="translate(0 242.483)" fill="#12263f"/>
        <rect id="Rectángulo_388611" data-name="Rectángulo 388611" width="38.043" height="70.912" transform="translate(141.08 242.483)" fill="#12263f"/>
        <path id="Trazado_837719" data-name="Trazado 837719" d="M41.088,73.846V1.6h1.574V73.846h44.4V0H0V73.846Z" fill="#12263f"/>
        <rect id="Rectángulo_388612" data-name="Rectángulo 388612" width="46.75" height="70.912" transform="translate(92.748 242.483)" fill="#12263f"/>
        <rect id="Rectángulo_388613" data-name="Rectángulo 388613" width="44.39" height="70.912" transform="translate(42.662 242.483)" fill="#12263f"/>
        <rect id="Rectángulo_388614" data-name="Rectángulo 388614" width="46.75" height="81.441" transform="translate(92.748 75.257)" fill="#12263f"/>
      </g>
    </g>
    <g id="Character-2" data-name="Character" transform="translate(180 10599.473)">
      <g id="Shield" transform="translate(274.503 2.147)">
        <g id="Grupo_1096723" data-name="Grupo 1096723" transform="translate(0 0)">
          <path id="Trazado_837720" data-name="Trazado 837720" d="M82.89,68.47c7.468,6.963,26.581,13.987,48.868,28.9,0,0-1.393,50.382-48.868,77.918Z" transform="translate(-34.022 -68.47)" fill="#6e40fc" stroke="#263238" stroke-linecap="round" stroke-linejoin="round" stroke-width="1"/>
          <path id="Trazado_837721" data-name="Trazado 837721" d="M212.118,68.47c-7.468,6.963-26.581,13.987-48.868,28.9,0,0,1.393,50.382,48.868,77.918Z" transform="translate(-163.25 -68.47)" fill="#263238" stroke="#263238" stroke-linecap="round" stroke-linejoin="round" stroke-width="1"/>
          <path id="Trazado_837722" data-name="Trazado 837722" d="M134.076,75.53c9.012,6.258,24.635,12.217,45.28,26.033,0,0-1.289,46.685-45.28,72.2-43.991-25.517-45.286-72.2-45.286-72.2C109.442,87.747,124.991,81.788,134.076,75.53Z" transform="translate(-85.208 -71.237)" fill="#263238" stroke="#263238" stroke-linecap="round" stroke-linejoin="round" stroke-width="1"/>
          <path id="Trazado_837723" data-name="Trazado 837723" d="M163.24,101.563c20.652-13.816,36.2-19.776,45.286-26.033v98.241c-43.991-25.517-45.286-72.2-45.286-72.2Z" transform="translate(-159.652 -71.237)" fill="#6e40fc" stroke="#263238" stroke-linecap="round" stroke-linejoin="round" stroke-width="1"/>
          <g id="Grupo_1096722" data-name="Grupo 1096722" transform="translate(27.383 13.786)">
            <path id="Trazado_837724" data-name="Trazado 837724" d="M134.143,128.715h33.75a2.773,2.773,0,0,0,2.8-2.749V110.405a19.683,19.683,0,0,0-39.357,0v15.562A2.777,2.777,0,0,0,134.143,128.715Zm30.947-5.491H136.953V110.405a14.075,14.075,0,0,1,28.144,0v12.819Z" transform="translate(-129.808 -91.14)" fill="#fff" stroke="#263238" stroke-linecap="round" stroke-linejoin="round" stroke-width="1"/>
            <rect id="Rectángulo_388615" data-name="Rectángulo 388615" width="42.969" height="35.544" transform="translate(0 30.077)" fill="#fff" stroke="#263238" stroke-linecap="round" stroke-linejoin="round" stroke-width="1"/>
            <path id="Trazado_837725" data-name="Trazado 837725" d="M155.216,161.919a4.677,4.677,0,0,1,9.353,0,4.563,4.563,0,0,1-2.457,4.032l.784,8.076h-6.014l.784-8.076a4.556,4.556,0,0,1-2.457-4.032Z" transform="translate(-138.195 -117.083)" fill="#263238" stroke="#263238" stroke-linecap="round" stroke-linejoin="round" stroke-width="1"/>
          </g>
        </g>
      </g>
      <g id="Grupo_1096730" data-name="Grupo 1096730" transform="translate(-8.164 2.147)">
        <ellipse id="Elipse_11093" data-name="Elipse 11093" cx="112.632" cy="17.407" rx="112.632" ry="17.407" transform="translate(0 556.92)" fill="#263238"/>
        <path id="Trazado_837726" data-name="Trazado 837726" d="M285.816,357.933s21.5,13.823,33.278,16.383,15.359,6.144,5.632,10.751-39.421,6.144-53.244,3.072-18.943,1.024-20.479-5.12-.512-12.8.512-17.407S277.625,353.838,285.816,357.933Z" transform="translate(-152.276 192.454)" fill="#fff" stroke="#263238" stroke-linecap="round" stroke-linejoin="round" stroke-width="1"/>
        <path id="Trazado_837727" data-name="Trazado 837727" d="M340.267,224.93s-2.56,39.933-9.727,71.163-10.751,73.211-14.335,96.249-6.144,60.923-6.656,77.818-1.536,22.014-.512,23.55,3.584,2.048,3.584,4.1.512,6.656.512,6.656-4.608,4.1-16.895,8.7-20.478,7.167-20.478,7.167-5.12-4.1-6.656-13.311,3.072-19.967,3.072-26.11-13.311-59.9-8.7-81.914S277.3,351.9,277.3,338.585s-5.12-52.732-5.12-52.732-13.311-22.014-13.823-37.885a271.607,271.607,0,0,1,.512-28.158S319.277,228.513,340.267,224.93Z" transform="translate(-178.569 48.998)" fill="#263238" stroke="#263238" stroke-linecap="round" stroke-linejoin="round" stroke-width="1"/>
        <path id="Trazado_837728" data-name="Trazado 837728" d="M334.008,169.361s7.5,19.086,7.5,39.687,2.99,65.142,6,84.617c2.99,19.475,5.242,20.6,0,23.591s-20.6,6.369-43.435,4.874-47.182-8.99-48.288-12.349c-1.126-3.379-.369-7.864.758-12.349s-4.116-51.667,7.106-90.986,19.086-59.162,24.328-64.4l5.242-5.243,40.814,32.581Z" transform="translate(-182.836 -37.984)" fill="#6e40fc" stroke="#263238" stroke-linecap="round" stroke-linejoin="round" stroke-width="1"/>
        <g id="Grupo_1096724" data-name="Grupo 1096724" transform="translate(96.68)">
          <path id="Trazado_837729" data-name="Trazado 837729" d="M320.817,113.637s.758,13.843-1.126,18.717-2.621,10.485-.758,14.233,5.611,8.232,2.99,10.485a31.175,31.175,0,0,1-5.611,3.748s-7.5,13.475-11.222,20.97c-3.747,7.5-5.611,9.359-9.359,7.864a56.309,56.309,0,0,1-7.864-4.116s-10.485,11.98-11.98,14.97-5.242,5.611-5.242,5.611L245.19,178.411a39.181,39.181,0,0,0,8.99-17.222c2.621-10.854,3.379-12.349.758-17.222s-7.864-5.243-4.874-17.222-1.126-15.728,9.727-23.223,31.455-8.6,37.435-8.6A22.138,22.138,0,0,1,310.7,99.036c2.99,2.253,10.116,14.6,10.116,14.6Z" transform="translate(-231.142 -81.868)" fill="#fff" stroke="#263238" stroke-linecap="round" stroke-linejoin="round" stroke-width="1"/>
          <path id="Trazado_837730" data-name="Trazado 837730" d="M307.974,92.609s26.95,8.6,30.7,11.98-5.611,23.96-5.611,23.96l-18.717-10.854,7.864,9.359s4.116,1.126-10.485.369-21.707-6-21.707-6,9.359,10.485,8.6,13.475-6,7.864-7.5,10.116-3.748-.758-3.748-.758-2.253,9.359-2.99,7.106c-.758-2.253-1.495-10.116-1.495-10.116s-3.379-7.5-8.232-5.611c-4.874,1.864-7.5,13.843-4.116,19.475a15.1,15.1,0,0,0,9.359,6.737s-7.864,8.6-10.116,6.737-2.99-5.611-4.485-7.5c-1.495-1.864-20.212-17.98-22.465-29.571-2.253-11.611,14.6-39.687,27.707-42.309s37.435,3.379,37.435,3.379Z" transform="translate(-242.628 -88.546)" fill="#263238" stroke="#263238" stroke-linecap="round" stroke-linejoin="round" stroke-width="1"/>
          <path id="Trazado_837731" data-name="Trazado 837731" d="M263.831,117.616l-3.051,12.308a3.163,3.163,0,0,1-2.785,2.4c-3.44.307-9.686.635-10.485-.983-1.126-2.253.369-16.854,2.253-19.086,2.294-2.765,7.536-.553,10.055.655a28.476,28.476,0,0,1,2.969,1.9A2.635,2.635,0,0,1,263.831,117.616Z" transform="translate(-176.184 -65.102)" fill="#fff" stroke="#263238" stroke-linecap="round" stroke-linejoin="round" stroke-width="1"/>
          <path id="Trazado_837732" data-name="Trazado 837732" d="M286.376,116.01l-31.066-2.99,30.923,6.369Z" transform="translate(-215.419 -62.902)" fill="#263238" stroke="#263238" stroke-linecap="round" stroke-linejoin="round" stroke-width="1"/>
          <path id="Trazado_837733" data-name="Trazado 837733" d="M267.883,124.36s-4.485,13.106-1.495,16.854,12.738,9.727,12.738,9.727" transform="translate(-228.749 -51.019)" fill="#fff" stroke="#263238" stroke-linecap="round" stroke-linejoin="round" stroke-width="1"/>
        </g>
        <path id="Trazado_837734" data-name="Trazado 837734" d="M269.23,132.04s47.92,43.8,46.793,44.93-9.666,14.13-9.666,14.13-12.43-18.472-21.154-28.219c-9.318-10.383-24.963-23.735-24.963-23.735l8.99-7.106Z" transform="translate(-158.503 -42.972)" fill="#263238" stroke="#263238" stroke-linecap="round" stroke-linejoin="round" stroke-width="1"/>
        <g id="Grupo_1096725" data-name="Grupo 1096725" transform="translate(158.278 200.125)">
          <path id="Trazado_837735" data-name="Trazado 837735" d="M220.668,189.44s13.475,0,16.1,2.99-4.485,6-7.106,6.369-9.727-1.126-9.727-1.126l.758-8.232Z" transform="translate(-155.526 -182.95)" fill="#fff" stroke="#263238" stroke-linecap="round" stroke-linejoin="round" stroke-width="1"/>
          <path id="Trazado_837736" data-name="Trazado 837736" d="M227.531,188.066s6-2.253,7.5,2.621-2.253,19.475-4.485,19.844c-2.253.369-3.379-1.126-3.379-5.611S227.531,188.066,227.531,188.066Z" transform="translate(-168.369 -184.934)" fill="#fff" stroke="#263238" stroke-linecap="round" stroke-linejoin="round" stroke-width="1"/>
          <path id="Trazado_837737" data-name="Trazado 837737" d="M233.195,188.645s7.864-4.485,10.854-1.126c2.99,3.379-.369,23.223-.369,23.223-2.253,1.126-6-11.98-9.359-16.1a37.512,37.512,0,0,1-4.116-5.611l2.99-.369Z" transform="translate(-184.517 -186.271)" fill="#fff" stroke="#263238" stroke-linecap="round" stroke-linejoin="round" stroke-width="1"/>
          <path id="Trazado_837738" data-name="Trazado 837738" d="M233.55,187.723s19.475,17.98,22.834,17.98,17.222-16.1,20.6-17.98c3.379-1.864,7.864,8.6,8.99,11.98s1.495,11.222,1.495,11.222-1.864,2.253-3.748-.369c-1.864-2.621-6.369-12.349-6.369-12.349L275.1,201.2" transform="translate(-233.55 -184.98)" fill="#fff" stroke="#263238" stroke-linecap="round" stroke-linejoin="round" stroke-width="1"/>
          <path id="Trazado_837739" data-name="Trazado 837739" d="M241.566,193.83s11.611,1.864,13.475,5.242,2.253,3.748-1.864,4.116-13.843,1.495-15.359-.369C236.324,200.957,240.071,194.219,241.566,193.83Z" transform="translate(-210.5 -178.35)" fill="#fff" stroke="#263238" stroke-linecap="round" stroke-linejoin="round" stroke-width="1"/>
        </g>
        <g id="Grupo_1096726" data-name="Grupo 1096726" transform="translate(145.172 136.988)">
          <path id="Trazado_837740" data-name="Trazado 837740" d="M211.206,256.89l46.425-101.45-28.445,1.495-40.056,95.1Z" transform="translate(-99.639 -155.44)" fill="#7d7d7d" stroke="#263238" stroke-linecap="round" stroke-linejoin="round" stroke-width="1"/>
          <path id="Trazado_837741" data-name="Trazado 837741" d="M303.362,199.507l20.581,8.99H211.25l15.359-9.727Z" transform="translate(-211.25 -110.037)" fill="#7d7d7d" stroke="#263238" stroke-linecap="round" stroke-linejoin="round" stroke-width="1"/>
        </g>
        <g id="Grupo_1096729" data-name="Grupo 1096729" transform="translate(86.03 130.619)">
          <g id="Grupo_1096727" data-name="Grupo 1096727" transform="translate(0)">
            <path id="Trazado_837742" data-name="Trazado 837742" d="M296.6,152.33s14.233,2.621,16.465,15.359c2.253,12.738-4.116,61.394-4.116,62.521v8.99c0,2.253-8.99,1.495-19.475,6.369s-16.854,12.738-16.854,6.737,1.495-77.88,1.495-77.88" transform="translate(-267.402 -152.33)" fill="#6e40fc" stroke="#263238" stroke-linecap="round" stroke-linejoin="round" stroke-width="1"/>
            <line id="Línea_4042" data-name="Línea 4042" x1="5.98" y1="20.581" transform="translate(0 30.329)" fill="#fff" stroke="#263238" stroke-linecap="round" stroke-linejoin="round" stroke-width="1"/>
            <path id="Trazado_837743" data-name="Trazado 837743" d="M319.818,192.3l-1.864,16.1s-40.814,23.96-41.94,23.223c-1.126-.758-2.253-2.99-2.253-6.737s-6-23.223,1.126-27.707c7.106-4.485,33.318-5.242,33.318-5.242s7.5-1.495,11.611.369Z" transform="translate(-271.161 -111.429)" fill="#263238" stroke="#263238" stroke-linecap="round" stroke-linejoin="round" stroke-width="1"/>
          </g>
          <g id="Grupo_1096728" data-name="Grupo 1096728" transform="translate(8.205 89.698)">
            <path id="Trazado_837744" data-name="Trazado 837744" d="M244.973,202.661S283.534,216.5,308.62,218.02c25.086,1.495,28.076,0,28.076,0s2.253-8.99,6-11.222c3.748-2.253,15.727-.369,17.98-1.864s2.253-6.369,3.748-7.864,8.232-.758,8.232-.758,3.379,1.864,3.379,4.485,2.253,19.475-.758,20.97-41.94,8.99-56.541,8.99-57.647,4.116-79.743.758c-22.1-3.379-30.329-6-29.571-11.98.758-6,28.445-18.349,35.571-16.854Z" transform="translate(-209.375 -196.131)" fill="#fff" stroke="#263238" stroke-linecap="round" stroke-linejoin="round" stroke-width="1"/>
            <line id="Línea_4043" data-name="Línea 4043" x1="0.737" y2="19.844" transform="translate(164.387 2.393)" fill="#fff" stroke="#263238" stroke-linecap="round" stroke-linejoin="round" stroke-width="1"/>
            <line id="Línea_4044" data-name="Línea 4044" x1="1.126" y2="19.475" transform="translate(158.019 0.53)" fill="#fff" stroke="#263238" stroke-linecap="round" stroke-linejoin="round" stroke-width="1"/>
            <path id="Trazado_837745" data-name="Trazado 837745" d="M230.937,200.41s1.495,4.485-1.126,6.369c-2.621,1.864-12.738,3.379-12.738,3.379" transform="translate(-79.656 -191.648)" fill="#fff" stroke="#263238" stroke-linecap="round" stroke-linejoin="round" stroke-width="1"/>
          </g>
        </g>
        <rect id="Rectángulo_388616" data-name="Rectángulo 388616" width="17.98" height="29.571" transform="translate(133.929 174.054)" fill="#fff" stroke="#263238" stroke-linecap="round" stroke-linejoin="round" stroke-width="1"/>
      </g>
      <g id="Grupo_1096733" data-name="Grupo 1096733" transform="translate(306.432 162.168)">
        <g id="Grupo_1096731" data-name="Grupo 1096731">
          <path id="Trazado_837746" data-name="Trazado 837746" d="M137.68,283.185h31.055V264.1H150.718l-1.84-4.671h-11.2Z" transform="translate(-137.68 -259.43)" fill="#6e40fc" stroke="#263238" stroke-miterlimit="10" stroke-width="1"/>
          <path id="Trazado_837747" data-name="Trazado 837747" d="M137.68,303.12h31.055V284.035H150.718l-1.84-4.655h-11.2Z" transform="translate(-137.68 -248.526)" fill="#6e40fc" stroke="#263238" stroke-miterlimit="10" stroke-width="1"/>
          <path id="Trazado_837748" data-name="Trazado 837748" d="M137.68,323.06h31.055V303.975H150.718l-1.84-4.655h-11.2Z" transform="translate(-137.68 -237.627)" fill="#263238" stroke="#263238" stroke-miterlimit="10" stroke-width="1"/>
        </g>
        <g id="Grupo_1096732" data-name="Grupo 1096732" transform="translate(49.49)">
          <path id="Trazado_837749" data-name="Trazado 837749" d="M169.68,283.185h31.055V264.1H182.718l-1.84-4.671h-11.2Z" transform="translate(-169.68 -259.43)" fill="#6e40fc" stroke="#263238" stroke-miterlimit="10" stroke-width="1"/>
          <path id="Trazado_837750" data-name="Trazado 837750" d="M169.68,303.12h31.055V284.035H182.718l-1.84-4.655h-11.2Z" transform="translate(-169.68 -248.526)" fill="#263238" stroke="#263238" stroke-miterlimit="10" stroke-width="1"/>
          <path id="Trazado_837751" data-name="Trazado 837751" d="M169.68,323.06h31.055V303.975H182.718l-1.84-4.655h-11.2Z" transform="translate(-169.68 -237.627)" fill="#263238" stroke="#263238" stroke-miterlimit="10" stroke-width="1"/>
        </g>
      </g>
      <rect id="Rectángulo_388620" data-name="Rectángulo 388620" width="268" height="5" rx="2.5" transform="translate(49 267.527)" fill="#401ab4"/>
      <g id="Grupo_1096737" data-name="Grupo 1096737" transform="translate(-81.634 -34.414)">
        <path id="Trazado_837595" data-name="Trazado 837595" d="M44.135,269.522,32.49,244.72H75.421Z" transform="translate(-32.49 -97.718)" fill="none" stroke="#263238" stroke-linecap="round" stroke-linejoin="round" stroke-width="1"/>
        <path id="Trazado_837596" data-name="Trazado 837596" d="M182.154,136.79l5.38,14.465-24.094-2Z" transform="translate(14.916 -136.79)" fill="none" stroke="#263238" stroke-linecap="round" stroke-linejoin="round" stroke-width="1"/>
        <path id="Trazado_837752" data-name="Trazado 837752" d="M182.154,136.79l5.38,14.465-24.094-2Z" transform="translate(131.205 64.953)" fill="none" stroke="#263238" stroke-linecap="round" stroke-linejoin="round" stroke-width="1"/>
        <path id="Trazado_837597" data-name="Trazado 837597" d="M181.75,27.75l12.9,6.238-12.9,6.32,12.9,7.968-12.9,8.649,14.478,6.687L184.815,74.236" transform="translate(-51.997 27.879)" fill="none" stroke="#fff" stroke-linecap="round" stroke-linejoin="round" stroke-width="1"/>
        <circle id="Elipse_11092" data-name="Elipse 11092" cx="11.686" cy="11.686" r="11.686" transform="translate(50.953 75.853)" fill="none" stroke="#fff" stroke-linecap="round" stroke-linejoin="round" stroke-width="1"/>
        <g id="Grupo_1096738" data-name="Grupo 1096738" transform="translate(-40 20)">
          <line id="Línea_4037" data-name="Línea 4037" x1="27.867" y2="10.12" transform="translate(329.894 35.181)" fill="none" stroke="#263238" stroke-linecap="round" stroke-linejoin="round" stroke-width="1"/>
          <line id="Línea_4038" data-name="Línea 4038" x1="8.485" y1="20.185" transform="translate(338.256 29.024)" fill="none" stroke="#263238" stroke-linecap="round" stroke-linejoin="round" stroke-width="1"/>
        </g>
        <path id="Trazado_837598" data-name="Trazado 837598" d="M101.13,236.217c-.087.229,9.21-4.017,9.21-4.017l4.543,10.4-9.216,4.023-4.537-10.4Z" transform="translate(-5.386 -93.59)" fill="none" stroke="#fff" stroke-linecap="round" stroke-linejoin="round" stroke-width="1"/>
        <path id="Trazado_837599" data-name="Trazado 837599" d="M309.227,216.17c-.218-.027,5.394,6.756,5.394,6.756l-7.627,6.088-5.393-6.756,7.641-6.088Z" transform="translate(-19.976 -67.316)" fill="none" stroke="#263238" stroke-linecap="round" stroke-linejoin="round" stroke-width="1"/>
        <path id="Trazado_837754" data-name="Trazado 837754" d="M306.993,216.17c.218-.027-5.393,6.756-5.393,6.756l7.627,6.088,5.393-6.756-7.641-6.088Z" transform="translate(159.527 -135.316)" fill="none" stroke="#263238" stroke-linecap="round" stroke-linejoin="round" stroke-width="1"/>
        <path id="Trazado_837618" data-name="Trazado 837618" d="M309.227,216.17c-.218-.027,5.394,6.756,5.394,6.756l-7.627,6.088-5.393-6.756,7.641-6.088Z" transform="translate(120.067 -54.894)" fill="none" stroke="#263238" stroke-linecap="round" stroke-linejoin="round" stroke-width="1"/>
        <path id="Trazado_837600" data-name="Trazado 837600" d="M35.259,170.9a5.21,5.21,0,1,1-5.2-5.217A5.2,5.2,0,0,1,35.259,170.9Z" transform="translate(46.761 -120.471)" fill="none" stroke="#fff" stroke-linecap="round" stroke-linejoin="round" stroke-width="1"/>
        <path id="Trazado_837601" data-name="Trazado 837601" d="M316.68,262.32l5.543,9.262-11.332.885,3,8.676-12.558.94,6.115,16.63" transform="translate(58.926 -40.5)" fill="none" stroke="#263238" stroke-linecap="round" stroke-linejoin="round" stroke-width="1"/>
        <path id="Trazado_837602" data-name="Trazado 837602" d="M98.362,317.73l9.779,5.9L95.053,334.306l8.2,5.176L92.71,351.154" transform="translate(-10.69 -71.287)" fill="none" stroke="#263238" stroke-linecap="round" stroke-linejoin="round" stroke-width="1"/>
        <path id="Trazado_837603" data-name="Trazado 837603" d="M306.479,107.144l-8.049-8.09,15.3-7.178-6.687-7.014L320.1,76.09" transform="translate(23.727 45.817)" fill="none" stroke="#263238" stroke-linecap="round" stroke-linejoin="round" stroke-width="1"/>
        <path id="Trazado_837753" data-name="Trazado 837753" d="M303.746,96.6l-5.316-5.343,10.1-4.74-4.417-4.632,8.626-5.793" transform="translate(161.407 -39.661)" fill="none" stroke="#263238" stroke-linecap="round" stroke-linejoin="round" stroke-width="1"/>
      </g>
    </g>
  </g>
</svg>
