<svg xmlns="http://www.w3.org/2000/svg" xmlns:xlink="http://www.w3.org/1999/xlink" width="95.974" height="95.974" viewBox="0 0 95.974 95.974">
  <defs>
    <filter id="Trazado_837255" x="0" y="0" width="95.974" height="95.974" filterUnits="userSpaceOnUse">
      <feOffset dy="3" input="SourceAlpha"/>
      <feGaussianBlur stdDeviation="3" result="blur"/>
      <feFlood flood-opacity="0.161"/>
      <feComposite operator="in" in2="blur"/>
      <feComposite in="SourceGraphic"/>
    </filter>
  </defs>
  <g id="Grupo_1096633" data-name="Grupo 1096633" transform="translate(-595 -3907.064)">
    <g transform="matrix(1, 0, 0, 1, 595, 3907.06)" filter="url(#Trazado_837255)">
      <path id="Trazado_837255-2" data-name="Trazado 837255" d="M77.974,38.987A38.987,38.987,0,1,1,38.987,0,38.988,38.988,0,0,1,77.974,38.987" transform="translate(9 6)" fill="#fff"/>
    </g>
    <g id="Grupo_1096446" data-name="Grupo 1096446" transform="translate(0 274)">
      <rect id="Rectángulo_388510" data-name="Rectángulo 388510" width="14.792" height="15.042" transform="translate(648.676 3657.987)" fill="#fff"/>
      <rect id="Rectángulo_388511" data-name="Rectángulo 388511" width="14.792" height="15.042" transform="translate(620.676 3682.461)" fill="#fff"/>
      <g id="Grupo_1096445" data-name="Grupo 1096445" transform="translate(-11.108 -505.402)">
        <path id="Línea_1699" data-name="Línea 1699" d="M8.206.533H0A.533.533,0,0,1-.533,0,.533.533,0,0,1,0-.533H8.206A.533.533,0,0,1,8.739,0,.533.533,0,0,1,8.206.533Z" transform="translate(623.941 4177.041)" fill="#12263f"/>
        <path id="Línea_1700" data-name="Línea 1700" d="M8.2.533H0A.533.533,0,0,1-.533,0,.533.533,0,0,1,0-.533H8.2A.533.533,0,0,1,8.738,0,.533.533,0,0,1,8.2.533Z" transform="translate(673.171 4166.268)" fill="#12263f"/>
        <path id="Línea_1701" data-name="Línea 1701" d="M8.205.533H0A.533.533,0,0,1-.533,0,.533.533,0,0,1,0-.533H8.205A.533.533,0,0,1,8.738,0,.533.533,0,0,1,8.205.533Z" transform="translate(655.577 4162)" fill="#12263f"/>
        <path id="Línea_1702" data-name="Línea 1702" d="M2.043.533H0A.533.533,0,0,1-.533,0,.533.533,0,0,1,0-.533H2.043A.533.533,0,0,1,2.576,0,.533.533,0,0,1,2.043.533Z" transform="translate(627.023 4171.188)" fill="#12263f"/>
        <path id="Línea_1703" data-name="Línea 1703" d="M2.045.533H0A.533.533,0,0,1-.533,0,.533.533,0,0,1,0-.533H2.045A.533.533,0,0,1,2.577,0,.533.533,0,0,1,2.045.533Z" transform="translate(673.556 4189.042)" fill="#12263f"/>
        <path id="Línea_1704" data-name="Línea 1704" d="M2.043.533H0A.533.533,0,0,1-.533,0,.533.533,0,0,1,0-.533H2.043A.533.533,0,0,1,2.576,0,.533.533,0,0,1,2.043.533Z" transform="translate(678.947 4195.461)" fill="#12263f"/>
        <path id="Línea_1705" data-name="Línea 1705" d="M2.044.533H0A.533.533,0,0,1-.533,0,.533.533,0,0,1,0-.533H2.044A.533.533,0,0,1,2.577,0,.533.533,0,0,1,2.044.533Z" transform="translate(672.534 4172.845)" fill="#12263f"/>
        <path id="Línea_1706" data-name="Línea 1706" d="M5.389.533H0A.533.533,0,0,1-.533,0,.533.533,0,0,1,0-.533H5.389A.533.533,0,0,1,5.922,0,.533.533,0,0,1,5.389.533Z" transform="translate(681.555 4183.868)" fill="#12263f"/>
        <path id="Línea_1707" data-name="Línea 1707" d="M0,.534A.533.533,0,0,1-.533,0,.533.533,0,0,1,0-.532H5.39A.533.533,0,0,1,5.923,0,.533.533,0,0,1,5.39.533Z" transform="translate(674.578 4201.683)" fill="#12263f"/>
        <path id="Línea_1708" data-name="Línea 1708" d="M5.39.533H0A.533.533,0,0,1-.533,0,.533.533,0,0,1,0-.533H5.39A.533.533,0,0,1,5.922,0,.533.533,0,0,1,5.39.533Z" transform="translate(621.247 4186.76)" fill="#12263f"/>
        <path id="Línea_1709" data-name="Línea 1709" d="M3.158.533H0A.533.533,0,0,1-.533,0,.533.533,0,0,1,0-.533H3.158A.533.533,0,0,1,3.691,0,.533.533,0,0,1,3.158.533Z" transform="translate(648.702 4205.735)" fill="#12263f"/>
        <g id="Grupo_29092" data-name="Grupo 29092" transform="translate(1149.805 4086.597)">
          <path id="Trazado_68988" data-name="Trazado 68988" d="M-483.8,77.671c.224.069.453.124.67.21a3.244,3.244,0,0,1,2.252,3c.072,1.612.06,3.23.019,4.844a3.343,3.343,0,0,1-2.5,3.219c-.2.06-.266.147-.254.347.017.3-.087.647.041.874.109.193.475.236.721.358a3.241,3.241,0,0,1,1.978,2.868c.063,1.648.059,3.3.011,4.95a3.333,3.333,0,0,1-2.472,3.133c-.2.061-.294.146-.28.366.018.284-.088.624.036.838.112.194.462.25.705.37a3.246,3.246,0,0,1,2,2.891c.061,1.672.063,3.349,0,5.021a3.369,3.369,0,0,1-3.316,3.186c-1.52.025-3.04.009-4.56.006-.4,0-.651-.219-.645-.551s.246-.526.664-.527c1.4,0,2.8-.03,4.2.009a2.46,2.46,0,0,0,2.605-2.6c-.054-1.387-.008-2.778-.016-4.168a2.35,2.35,0,0,0-2.505-2.492q-13.306,0-26.613,0a2.383,2.383,0,0,0-2.519,2.53q-.005,2.084,0,4.168A2.4,2.4,0,0,0-511,113.076q9.815,0,19.63,0a3.614,3.614,0,0,1,.392.006.5.5,0,0,1,.488.512.506.506,0,0,1-.452.549,1.526,1.526,0,0,1-.32.01q-9.868,0-19.737,0a3.452,3.452,0,0,1-3.651-3.634c0-1.294.045-2.591-.013-3.883a3.591,3.591,0,0,1,2.775-3.845v-1.175a10.19,10.19,0,0,1-1.185-.57,3.269,3.269,0,0,1-1.571-2.833c-.023-1.484-.01-2.969-.007-4.453a3.444,3.444,0,0,1,2.567-3.437c.057-.017.112-.038.189-.064V89.018a3.524,3.524,0,0,1-2.012-1.251,3.332,3.332,0,0,1-.741-2.109q-.01-2.244,0-4.489a3.437,3.437,0,0,1,2.829-3.437,1.107,1.107,0,0,0,.164-.061ZM-510.784,90.21h.464l5.914,0a1.676,1.676,0,0,1,.355.012.505.505,0,0,1,.445.554.5.5,0,0,1-.461.5,2.183,2.183,0,0,1-.356.009c-2.221,0-4.441,0-6.662,0a2.382,2.382,0,0,0-2.49,2.489q-.008,2.12,0,4.239a2.383,2.383,0,0,0,2.527,2.522q13.306,0,26.612,0a2.365,2.365,0,0,0,2.5-2.5q.007-2.1,0-4.2a3.2,3.2,0,0,0-.054-.672,2.357,2.357,0,0,0-2.44-1.871q-8.6,0-17.207,0a2.872,2.872,0,0,1-.391-.008.5.5,0,0,1-.472-.531.5.5,0,0,1,.473-.531,2.43,2.43,0,0,1,.356-.007l16.53,0h.406v-1.1h-26.048ZM-497.755,88q6.677,0,13.355,0a2.353,2.353,0,0,0,2.464-2.429q.015-2.19,0-4.38a2.35,2.35,0,0,0-2.454-2.44q-13.355-.006-26.71,0a2.377,2.377,0,0,0-2.475,2.466q-.01,2.1,0,4.2A2.388,2.388,0,0,0-510.968,88Zm13.024,14.728v-1.09h-26.048v1.09Z" transform="translate(0)" fill="#00223d"/>
          <path id="Trazado_68989" data-name="Trazado 68989" d="M-358.88,517.871h-8.9a2.526,2.526,0,0,1-.391-.012.5.5,0,0,1-.462-.539.509.509,0,0,1,.449-.519,1.332,1.332,0,0,1,.284-.009l18.052,0a1.787,1.787,0,0,1,.32.009.51.51,0,0,1,.462.543.5.5,0,0,1-.484.52,2.782,2.782,0,0,1-.32.008Z" transform="translate(-135.611 -407.765)" fill="#00223d"/>
          <path id="Trazado_68990" data-name="Trazado 68990" d="M-358.866,485.5h8.935c.567,0,.837.177.83.544s-.277.539-.844.539l-17.87,0a2.427,2.427,0,0,1-.391-.012.531.531,0,0,1-.467-.576.5.5,0,0,1,.516-.489c.4-.014.807-.011,1.21-.011h8.081Z" transform="translate(-135.572 -378.708)" fill="#00223d"/>
          <path id="Trazado_68991" data-name="Trazado 68991" d="M-463.339,480.137a2.2,2.2,0,0,1-2.191,2.2,2.2,2.2,0,0,1-2.2-2.227,2.192,2.192,0,0,1,2.206-2.177A2.193,2.193,0,0,1-463.339,480.137Zm-1.085-.007a1.118,1.118,0,0,0-1.1-1.115,1.125,1.125,0,0,0-1.116,1.1,1.12,1.12,0,0,0,1.122,1.132A1.118,1.118,0,0,0-464.424,480.13Z" transform="translate(-43.595 -371.683)" fill="#00223d"/>
          <path id="Trazado_68994" data-name="Trazado 68994" d="M-434.1,414.449h-26.048v-1.09H-434.1Z" transform="translate(-50.627 -311.721)" fill="#fff"/>
          <path id="Trazado_68995" data-name="Trazado 68995" d="M-450.344,494.218a1.118,1.118,0,0,1-1.1,1.121,1.12,1.12,0,0,1-1.122-1.132,1.125,1.125,0,0,1,1.116-1.1A1.118,1.118,0,0,1-450.344,494.218Z" transform="translate(-57.675 -385.772)" fill="#37a3a5"/>
          <path id="Trazado_68996" data-name="Trazado 68996" d="M-358.9,342.285h-8.9c-.119,0-.238,0-.356-.006a.533.533,0,0,1-.518-.527.543.543,0,0,1,.508-.543,2.449,2.449,0,0,1,.285,0l17.943,0c.567,0,.836.173.841.54s-.262.543-.832.543Z" transform="translate(-135.57 -244.716)" fill="#00223d"/>
          <path id="Trazado_68997" data-name="Trazado 68997" d="M-358.875,311.007h-8.936a1.613,1.613,0,0,1-.389-.019.508.508,0,0,1-.424-.572.486.486,0,0,1,.483-.48c.307-.019.617-.013.925-.013l17.338,0c.566,0,.835.181.824.55s-.271.531-.813.531h-9.007Z" transform="translate(-135.617 -215.667)" fill="#00223d"/>
          <path id="Trazado_68998" data-name="Trazado 68998" d="M-467.729,304.508a2.2,2.2,0,0,1,2.232-2.19,2.2,2.2,0,0,1,2.154,2.232,2.2,2.2,0,0,1-2.216,2.173A2.2,2.2,0,0,1-467.729,304.508Zm1.083.028a1.125,1.125,0,0,0,1.116,1.1,1.123,1.123,0,0,0,1.1-1.152,1.116,1.116,0,0,0-1.131-1.084A1.123,1.123,0,0,0-466.646,304.536Z" transform="translate(-43.591 -208.608)" fill="#00223d"/>
          <path id="Trazado_68999" data-name="Trazado 68999" d="M-358.9,166.665h-8.864c-.13,0-.262,0-.391-.007a.51.51,0,0,1-.509-.5.53.53,0,0,1,.475-.569,2.055,2.055,0,0,1,.32-.01l17.977,0a1.958,1.958,0,0,1,.32.011.542.542,0,0,1,.476.572.506.506,0,0,1-.513.494c-.439.014-.878.011-1.317.012H-358.9Z" transform="translate(-135.578 -81.631)" fill="#00223d"/>
          <path id="Trazado_69000" data-name="Trazado 69000" d="M-361.76,134.332h5.943c.119,0,.238,0,.356.007a.513.513,0,0,1,.5.507.538.538,0,0,1-.487.561,2.377,2.377,0,0,1-.32.008h-12.065a1.646,1.646,0,0,1-.319-.011.51.51,0,0,1-.46-.544.5.5,0,0,1,.482-.518,5.471,5.471,0,0,1,.569-.012h5.8Z" transform="translate(-135.631 -52.612)" fill="#00223d"/>
          <path id="Trazado_69001" data-name="Trazado 69001" d="M-467.761,128.867a2.211,2.211,0,0,1,2.213-2.179,2.205,2.205,0,0,1,2.174,2.251,2.194,2.194,0,0,1-2.23,2.156A2.2,2.2,0,0,1-467.761,128.867Zm3.3.041a1.112,1.112,0,0,0-1.086-1.129,1.119,1.119,0,0,0-1.134,1.121,1.126,1.126,0,0,0,1.106,1.114A1.126,1.126,0,0,0-464.457,128.909Z" transform="translate(-43.561 -45.518)" fill="#00223d"/>
          <path id="Trazado_69002" data-name="Trazado 69002" d="M-159.719,135.446c-.581,0-1.162,0-1.743,0-.417,0-.656-.2-.665-.529s.232-.549.674-.55q1.743,0,3.486,0c.416,0,.66.2.67.525s-.254.553-.68.555C-158.557,135.449-159.138,135.447-159.719,135.446Z" transform="translate(-327.374 -52.645)" fill="#00223d"/>
          <path id="Trazado_69003" data-name="Trazado 69003" d="M-452.564,318.658a1.123,1.123,0,0,1,1.087-1.132,1.116,1.116,0,0,1,1.131,1.084,1.123,1.123,0,0,1-1.1,1.152A1.125,1.125,0,0,1-452.564,318.658Z" transform="translate(-57.673 -222.729)" fill="#37a3a5"/>
          <path id="Trazado_69004" data-name="Trazado 69004" d="M-450.351,143.1a1.126,1.126,0,0,1-1.113,1.106,1.126,1.126,0,0,1-1.106-1.114,1.119,1.119,0,0,1,1.134-1.121A1.112,1.112,0,0,1-450.351,143.1Z" transform="translate(-57.668 -59.708)" fill="#37a3a5"/>
        </g>
      </g>
    </g>
  </g>
</svg>
