<svg xmlns="http://www.w3.org/2000/svg" xmlns:xlink="http://www.w3.org/1999/xlink" width="95.974" height="95.974" viewBox="0 0 95.974 95.974">
  <defs>
    <filter id="Trazado_837255" x="0" y="0" width="95.974" height="95.974" filterUnits="userSpaceOnUse">
      <feOffset dy="3" input="SourceAlpha"/>
      <feGaussianBlur stdDeviation="3" result="blur"/>
      <feFlood flood-opacity="0.161"/>
      <feComposite operator="in" in2="blur"/>
      <feComposite in="SourceGraphic"/>
    </filter>
  </defs>
  <g id="Grupo_1096447" data-name="Grupo 1096447" transform="translate(-288.631 -3633.064)">
    <g transform="matrix(1, 0, 0, 1, 288.63, 3633.06)" filter="url(#Trazado_837255)">
      <path id="Trazado_837255-2" data-name="Trazado 837255" d="M77.974,38.987A38.987,38.987,0,1,1,38.987,0,38.988,38.988,0,0,1,77.974,38.987" transform="translate(9 6)" fill="#fff"/>
    </g>
    <g id="Grupo_1096449" data-name="Grupo 1096449" transform="translate(-883.477 -504.816)">
      <path id="Línea_1699" data-name="Línea 1699" d="M8.206.533H0A.533.533,0,0,1-.533,0,.533.533,0,0,1,0-.533H8.206A.533.533,0,0,1,8.739,0,.533.533,0,0,1,8.206.533Z" transform="translate(1189.941 4177.041)" fill="#12263f"/>
      <path id="Línea_1701" data-name="Línea 1701" d="M8.205.533H0A.533.533,0,0,1-.533,0,.533.533,0,0,1,0-.533H8.205A.533.533,0,0,1,8.738,0,.533.533,0,0,1,8.205.533Z" transform="translate(1221.576 4162)" fill="#12263f"/>
      <path id="Línea_1702" data-name="Línea 1702" d="M2.043.533H0A.533.533,0,0,1-.533,0,.533.533,0,0,1,0-.533H2.043A.533.533,0,0,1,2.576,0,.533.533,0,0,1,2.043.533Z" transform="translate(1193.022 4171.188)" fill="#12263f"/>
      <path id="Línea_1703" data-name="Línea 1703" d="M2.045.533H0A.533.533,0,0,1-.533,0,.533.533,0,0,1,0-.533H2.045A.533.533,0,0,1,2.577,0,.533.533,0,0,1,2.045.533Z" transform="translate(1239.556 4189.042)" fill="#12263f"/>
      <path id="Línea_1704" data-name="Línea 1704" d="M2.043.533H0A.533.533,0,0,1-.533,0,.533.533,0,0,1,0-.533H2.043A.533.533,0,0,1,2.576,0,.533.533,0,0,1,2.043.533Z" transform="translate(1244.946 4195.461)" fill="#12263f"/>
      <path id="Línea_1705" data-name="Línea 1705" d="M2.044.533H0A.533.533,0,0,1-.533,0,.533.533,0,0,1,0-.533H2.044A.533.533,0,0,1,2.577,0,.533.533,0,0,1,2.044.533Z" transform="translate(1238.534 4172.845)" fill="#12263f"/>
      <path id="Línea_1706" data-name="Línea 1706" d="M5.389.533H0A.533.533,0,0,1-.533,0,.533.533,0,0,1,0-.533H5.389A.533.533,0,0,1,5.922,0,.533.533,0,0,1,5.389.533Z" transform="translate(1247.555 4183.868)" fill="#12263f"/>
      <path id="Línea_1707" data-name="Línea 1707" d="M0,.534A.533.533,0,0,1-.533,0,.533.533,0,0,1,0-.532H5.39A.533.533,0,0,1,5.923,0,.533.533,0,0,1,5.39.533Z" transform="translate(1240.578 4201.683)" fill="#12263f"/>
      <path id="Línea_1708" data-name="Línea 1708" d="M5.39.533H0A.533.533,0,0,1-.533,0,.533.533,0,0,1,0-.533H5.39A.533.533,0,0,1,5.922,0,.533.533,0,0,1,5.39.533Z" transform="translate(1187.246 4186.76)" fill="#12263f"/>
      <path id="Línea_1709" data-name="Línea 1709" d="M3.158.533H0A.533.533,0,0,1-.533,0,.533.533,0,0,1,0-.533H3.158A.533.533,0,0,1,3.691,0,.533.533,0,0,1,3.158.533Z" transform="translate(1214.701 4205.735)" fill="#12263f"/>
      <rect id="Rectángulo_388512" data-name="Rectángulo 388512" width="14.792" height="15.042" transform="translate(1227.673 4164.57)" fill="#fff"/>
      <rect id="Rectángulo_388513" data-name="Rectángulo 388513" width="11.683" height="11.88" transform="translate(1195.599 4192.808)" fill="#fff"/>
      <g id="Grupo_29101" data-name="Grupo 29101" transform="translate(-3883.973 1228.486)">
        <path id="Trazado_69079" data-name="Trazado 69079" d="M5097.161,2951.025v2.06h.194c.737,0,1.473,0,2.209,0a1.253,1.253,0,0,1,1.253.66,1.409,1.409,0,0,1,.139.563c.019.482.006.965.006,1.476h20.3a1.277,1.277,0,0,1,1.274,1.068,7.746,7.746,0,0,1,0,1.631,1.242,1.242,0,0,1-1.217,1.081c-.411.018-.823,0-1.254,0v13.664a1.323,1.323,0,0,1-1.383,1.391q-2.783,0-5.566,0h-22.872c-1.455,0-2.91-.019-4.364.007a1.4,1.4,0,0,1-1.435-1.431c.017-4.441.008-8.883.008-13.325v-.3c-.363,0-.711-.014-1.058,0a1.368,1.368,0,0,1-1.458-1.464c.021-.418-.011-.841.043-1.254a1.29,1.29,0,0,1,1.272-1.073c1.213,0,2.427,0,3.641,0h.182v-.189c0-.413,0-.826,0-1.239a1.211,1.211,0,0,1,1.255-1.267c.539-.006,1.078.011,1.617.016.3,0,.608,0,.923,0v-2.079h-.216l-6.233,0a.946.946,0,0,1-1-1q0-5.242,0-10.485a2.077,2.077,0,0,1,2.057-2.05c1.963-.008,3.927,0,5.89,0,.292,0,.584,0,.876,0,.112,0,.156-.031.192-.148a1.648,1.648,0,0,1,2.69-.785,1.48,1.48,0,0,1,.485.78c.033.133.09.151.207.151q3.317,0,6.634,0a2.1,2.1,0,0,1,2.152,1.789,1.773,1.773,0,0,1,.02.322c0,3.45-.007,6.9.009,10.351a1.048,1.048,0,0,1-1.092,1.087c-2.045-.021-4.091-.007-6.136-.007Zm21.684,12.643v-3.811c0-.278-.007-.285-.29-.285h-32.6c-.276,0-.283.008-.283.273v13.249c0,.308,0,.308.316.308h32.6c.258,0,.259,0,.259-.251q0-2.154,0-4.308c0-.061-.006-.122-.011-.195h-4.911a1.934,1.934,0,0,1-.247-.01.552.552,0,0,1-.491-.391.6.6,0,0,1,.123-.621.787.787,0,0,1,.648-.2h4.88v-2.533h-.27l-8.139-.007c-.769,0-1.537,0-2.306.007a.645.645,0,0,1-.528-.216.578.578,0,0,1-.1-.64.59.59,0,0,1,.59-.368q2.144,0,4.287,0h6.473Zm-16.585-5.321h18.451c.146,0,.293-.006.438,0s.217-.054.213-.211c-.007-.292,0-.584,0-.877,0-.245-.015-.259-.26-.259l-14.011,0-17.4,0h-6.271c-.241,0-.256.015-.257.262s0,.509,0,.763c0,.32,0,.32.311.32h18.793Zm1.138-8.55c0-.079.008-.135.008-.192q0-4.984,0-9.968a.877.877,0,0,0-.929-.932q-3.459,0-6.918,0a.341.341,0,0,0-.231.112,1.661,1.661,0,0,1-2.589.006.3.3,0,0,0-.269-.124c-.679,0-1.358,0-2.038,0h-4.784a.9.9,0,0,0-1.012,1.021q0,4.908,0,9.816v.255Zm-7.462,1.308H5092.1v3.21h-3.794v1.414h11.418v-1.423h-3.792Zm-1.486-13.3a.427.427,0,1,0-.426.416A.417.417,0,0,0,5094.45,2937.8Z" fill="#00223d"/>
        <path id="Trazado_69081" data-name="Trazado 69081" d="M5133.084,3484.765h-18.793c-.313,0-.312,0-.311-.321,0-.254,0-.508,0-.762s.016-.263.257-.263h6.271l17.4,0,14.011,0c.246,0,.26.014.26.259,0,.292,0,.585,0,.877,0,.157-.058.219-.213.211s-.292,0-.438,0h-18.451Z" transform="translate(-30.825 -526.417)" fill="#fff"/>
        <path id="Trazado_69083" data-name="Trazado 69083" d="M5256.78,3328.8v3.2h3.792v1.423h-11.418v-1.415h3.793v-3.21Z" transform="translate(-160.844 -377.695)" fill="#fff"/>
        <path id="Trazado_69084" data-name="Trazado 69084" d="M5388.641,2968.8a.427.427,0,0,1-.854-.016.427.427,0,1,1,.854.016Z" transform="translate(-294.191 -30.995)" fill="#fff"/>
        <path id="Trazado_69085" data-name="Trazado 69085" d="M5180.605,3035.192h-7.929c-.505,0-.728-.222-.729-.73q0-4.05,0-8.1a.6.6,0,0,1,.653-.651c1.257,0,2.515.013,3.772.012,1.975,0,3.95-.009,5.925-.01,2.078,0,4.155.006,6.233-.006a.683.683,0,0,1,.733.74c-.013,2.687-.006,5.375-.005,8.063a.623.623,0,0,1-.687.683Zm7.434-8.254h-14.867v7.022h14.867Z" transform="translate(-86.583 -86.159)" fill="#00223d"/>
      </g>
      <path id="Línea_1700" data-name="Línea 1700" d="M8.2.533H0A.533.533,0,0,1-.533,0,.533.533,0,0,1,0-.533H8.2A.533.533,0,0,1,8.738,0,.533.533,0,0,1,8.2.533Z" transform="translate(1239.171 4166.268)" fill="#12263f"/>
    </g>
  </g>
</svg>
