<svg xmlns="http://www.w3.org/2000/svg" xmlns:xlink="http://www.w3.org/1999/xlink" width="400" height="597" viewBox="0 0 400 597">
  <defs>
    <clipPath id="clip-path">
      <rect id="Rectángulo_388624" data-name="Rectángulo 388624" width="400" height="597" transform="translate(1019.894 1073)" fill="#6e40fc" opacity="0.47"/>
    </clipPath>
    <linearGradient id="linear-gradient" x1="0.5" x2="0.5" y2="1" gradientUnits="objectBoundingBox">
      <stop offset="0" stop-color="#fff"/>
      <stop offset="1" stop-color="#d2e6ee"/>
    </linearGradient>
  </defs>
  <g id="Enmascarar_grupo_1090673" data-name="Enmascarar grupo 1090673" transform="translate(-1019.894 -1073)" clip-path="url(#clip-path)">
    <g id="super_hero" data-name="super hero" transform="translate(1062.894 1073.129)">
      <g id="Grupo_62107" data-name="Grupo 62107" transform="translate(0 0)">
        <g id="Grupo_62100" data-name="Grupo 62100">
          <path id="Trazado_132545" data-name="Trazado 132545" d="M1298.23,1107.865s-20.219-.655-40.141.3c-20.695,1.01-41.093,3.746-38.179,10.883a7.585,7.585,0,0,1,.416,4.7c-4.163,19.089-79.628,33.361-96.28,21.646-12.429-8.742-46.683,2.5-60.717,8.563-26.728-178.911-27.475-361.808-3.806-374.534,23.668-12.667,89.263,3.39,89.263,3.39s33.243,8.8,46.8,99.729C1209.205,973.405,1298.23,1107.865,1298.23,1107.865Z" transform="translate(-983.699 -661.96)" fill="#00223d"/>
          <path id="Trazado_132546" data-name="Trazado 132546" d="M1450.608,1398.413a7.581,7.581,0,0,1,.416,4.7c-20.457-62.384-68.627-240.611-51.143-192.024,16.77,46.861,69.4,141.772,88.906,176.443C1468.092,1388.541,1447.694,1391.275,1450.608,1398.413Z" transform="translate(-1214.397 -941.327)" fill="#21587b"/>
          <g id="Grupo_62099" data-name="Grupo 62099">
            <g id="Grupo_62085" data-name="Grupo 62085" transform="translate(0 118.16)">
              <g id="Grupo_62084" data-name="Grupo 62084">
                <path id="Trazado_132547" data-name="Trazado 132547" d="M946.735,837.174c-19.446,23.788-23.015,29.556-41.212,30.806a31.856,31.856,0,0,1,12.25,14.748h.06c5.352,11.716,6.125,25.394,15.462,33.064l-11.18,11-2.854,2.855s-.416-.357-1.13-1.011c-4.876-4.52-24.263-22.777-35.8-39.547-6.779-9.752-10.883-18.97-8.028-24.738,4.639-16.771,16.532-51.2,46.8-61.491,19.863-21.587,39.309-9.991,46.207-1.011C976.528,813.862,967.252,839.552,946.735,837.174Z" transform="translate(-873.383 -790.569)" fill="#21587b"/>
                <path id="Trazado_132548" data-name="Trazado 132548" d="M950.085,1088.723l-11.18,11-3.985,1.845c-4.579-4.282-22.062-20.7-33.718-36.633-.714-.951-1.428-1.962-2.081-2.915,5.768-.059,24.323-.535,35.443-6.362h.059a32.689,32.689,0,0,1,1.249,3.032C940.154,1069.634,941.521,1081.707,950.085,1088.723Z" transform="translate(-890.173 -963.501)" fill="#00223d"/>
                <path id="Trazado_132549" data-name="Trazado 132549" d="M935.872,1058.691c-12.31,7.495-26.4,7.257-34.67,6.245-.714-.951-1.428-1.962-2.081-2.915,5.768-.059,24.323-.535,35.443-6.362h.059A32.689,32.689,0,0,1,935.872,1058.691Z" transform="translate(-890.173 -963.501)" fill="#66b8ff"/>
              </g>
              <path id="Trazado_132550" data-name="Trazado 132550" d="M995.47,1121.563s12.738,1.183,16.593,4.536a5.1,5.1,0,0,1,1.254,6.3c6.855,3.854,0,18.806-11.969,22.5s-19.811-18.856-19.811-18.856S983.36,1122.367,995.47,1121.563Z" transform="translate(-943.937 -1006.494)" fill="#231f20"/>
            </g>
            <g id="Grupo_62088" data-name="Grupo 62088" transform="translate(88.209 218.508)">
              <g id="Grupo_62086" data-name="Grupo 62086" transform="translate(73.454 326.977)">
                <path id="Trazado_132551" data-name="Trazado 132551" d="M1388.981,2070.328h-43.213a5.145,5.145,0,0,1-1.937-1.734c-2.226-32.138-5.43-47.612-5.43-47.612l30.1-1.226,6.813,23.909C1385.392,2050.556,1397.412,2065.339,1388.981,2070.328Z" transform="translate(-1338.402 -2019.756)" fill="#00223d"/>
                <path id="Trazado_132552" data-name="Trazado 132552" d="M1348.164,2153.526h51.231c1.3,0,.861-7.124-.436-7.124l-50.925.287C1346.7,2146.688,1346.828,2153.526,1348.164,2153.526Z" transform="translate(-1344.073 -2102.373)" fill="#00223d"/>
              </g>
              <path id="Trazado_132553" data-name="Trazado 132553" d="M1186.806,1114.475c6.992,18.814,36.746,105.009,28.252,167.066,11.685,41.269,8.016,76.225,18.553,136.494l-30.67,1.616c-12.466-73.537-26.185-59.5-30.155-132.329-25.272-57.1-38.379-111.2-45.1-166.888C1121.144,1078.448,1172.69,1056.4,1186.806,1114.475Z" transform="translate(-1127.113 -1079.217)" fill="#21587b"/>
              <g id="Grupo_62087" data-name="Grupo 62087" transform="translate(49.83 207.978)">
                <path id="Trazado_132554" data-name="Trazado 132554" d="M1296.762,1813.049s-2.3-21.885-16.725-63.692c-4.48-12.846-6.909-21.349-8.17-26.582a55.9,55.9,0,0,1-1.42-7.316,217.359,217.359,0,0,0,25.835-38c9.385,14.689,20.554,29.379,20.554,29.379s.284,3.448.792,9.1c2.263,23.669,8.348,86.231,12.015,99.491C1334.176,1831.84,1305.66,1841.177,1296.762,1813.049Z" transform="translate(-1270.447 -1677.459)" fill="#00223d"/>
                <path id="Trazado_132555" data-name="Trazado 132555" d="M1317.628,1715.936a240.4,240.4,0,0,1-21.095-27c-3.344,12.132-17.391,26.822-24.666,33.839a55.9,55.9,0,0,1-1.42-7.316,217.359,217.359,0,0,0,25.835-38c9.385,14.689,20.554,29.379,20.554,29.379S1317.12,1710.286,1317.628,1715.936Z" transform="translate(-1270.447 -1677.459)" fill="url(#linear-gradient)"/>
              </g>
            </g>
            <g id="Grupo_62090" data-name="Grupo 62090" transform="translate(12.627 221.955)">
              <path id="Trazado_132556" data-name="Trazado 132556" d="M1057.439,1128.918a948.8,948.8,0,0,1-16.773,151.547c6.185,55.907-7.879,66.328-14.233,146.308l-27.72-.368c-.07-32.462-1.953-72.664-3.925-137.756-17.451-68.027-9.045-118.13-2.539-158.8C999.193,1083.661,1061.871,1068.375,1057.439,1128.918Z" transform="translate(-958.435 -1089.131)" fill="#21587b"/>
              <path id="Trazado_132557" data-name="Trazado 132557" d="M980.639,2059.654c2.472,13.242,4.247,23.574,3.209,35.56l-67.136,1.305s-6.645-6.471,1.709-16.179,24.222-4.091,34.5-21.053Z" transform="translate(-912.64 -1722.014)" fill="#00223d"/>
              <path id="Trazado_132558" data-name="Trazado 132558" d="M910.725,2153.526h71.328c1.3,0,.958-7.124-.341-7.124l-71.026.287C909.349,2146.688,909.388,2153.526,910.725,2153.526Z" transform="translate(-909.702 -1778.842)" fill="#00223d"/>
              <g id="Grupo_62089" data-name="Grupo 62089" transform="translate(32.623 211.074)">
                <path id="Trazado_132559" data-name="Trazado 132559" d="M1052.251,1732.435s-.481,2.379-1.3,6.422c-3.377,17.662-12.436,66.963-11.375,89.144-12.6,15.046-28.982-1.665-28.982-1.665l-6.6-121.852-.452-8.206A151.82,151.82,0,0,0,1052.251,1732.435Z" transform="translate(-1003.541 -1696.279)" fill="#00223d"/>
                <path id="Trazado_132560" data-name="Trazado 132560" d="M1052.251,1732.435s-.481,2.379-1.3,6.422c-24.486-7.135-39.56-23.905-46.959-34.373l-.452-8.206A151.82,151.82,0,0,0,1052.251,1732.435Z" transform="translate(-1003.541 -1696.279)" fill="url(#linear-gradient)"/>
              </g>
            </g>
            <path id="Trazado_132561" data-name="Trazado 132561" d="M1009.48,920.543c0,14.17,100.632,10.069,100.632-4.1a205.8,205.8,0,0,1,7.285-58.524c30.17-29.558,28.371-52.5,20.724-64.949-13.183-21.463-79.781-20.247-103.758-11.021-9.522,3.664-22.307,18.589-26.4,42.383-2.1,12.234,6.905,26.479,8.329,36.369C1019.589,883.583,1010.149,917.257,1009.48,920.543Z" transform="translate(-960.972 -662.674)" fill="#21587b"/>
            <path id="Trazado_132562" data-name="Trazado 132562" d="M1169.55,726.79c4.965-3.944,24.771-10.029,30.039-14.342l-1.189-34.381-19.474-1.9a57.861,57.861,0,0,0-16.153,3.739l-4.384,22.638-.967,4.909C1155.218,712.29,1159.587,718.116,1169.55,726.79Z" transform="translate(-1058.312 -597.781)" fill="#f7a594"/>
            <path id="Trazado_132563" data-name="Trazado 132563" d="M1194.712,698.6c-3.055,4.7-15.844,16.741-33.457,16.7l3.792-19.587Z" transform="translate(-1061.177 -610.526)" fill="#e6836f"/>
            <g id="Grupo_62092" data-name="Grupo 62092" transform="translate(86.218 14.926)">
              <g id="Grupo_62091" data-name="Grupo 62091">
                <path id="Trazado_132564" data-name="Trazado 132564" d="M1125.6,526.675c-1.527,6.774-4.674,21.644-4.159,28.493.784,10.427,10.522,21.991,19.016,23.509,9.832,1,23.084-1.925,30.28-8.108,4.005-4.693,11.756-15.827,15.325-25.573,7.44-20.329-6.924-38.155-25.147-42.272S1130.363,505.558,1125.6,526.675Z" transform="translate(-1121.386 -498.822)" fill="#f7a594"/>
                <path id="Trazado_132565" data-name="Trazado 132565" d="M1196.269,553.224c3.8-6.689-1.25-9.4-6.785-4.206.946-5.047,6.7-19.835,1.6-24.739-5.757-5.689-31.089-3.213-44.7-17.4,0,0,10.144-22.24,43.437-9.106C1227.429,517.708,1196.269,553.224,1196.269,553.224Z" transform="translate(-1137.697 -493.62)" fill="#00223d"/>
                <ellipse id="Elipse_4148" data-name="Elipse 4148" cx="8.206" cy="6.378" rx="8.206" ry="6.378" transform="translate(48.649 59.514) rotate(-50.277)" fill="#f7a594"/>
              </g>
            </g>
            <path id="Trazado_132566" data-name="Trazado 132566" d="M1150.518,742.329c3.329,5.944,37.565,2.853,40.656-2.14l1.9,19.02-31.858,18.07-16.643-18.307Z" transform="translate(-1050.294 -639.544)" fill="#00223d"/>
            <path id="Trazado_132567" data-name="Trazado 132567" d="M1198.759,502.292c-.938-16.648-33.161-40.142-56.276-31.421-15.59,5.883-11.933,22.433,1.641,25.558C1156.095,499.185,1189.246,484.836,1198.759,502.292Z" transform="translate(-1042.274 -462.626)" fill="#00223d"/>
            <path id="Trazado_132568" data-name="Trazado 132568" d="M1138.255,458.984a21.4,21.4,0,0,1,3.248-8.3c-18.086,11.847-9.085,26.015-8.873,26.619,7.173-21.779,24.287-20.779,30.365-20.7C1147.359,449.243,1138.411,458.332,1138.255,458.984Z" transform="translate(-1040.921 -450.686)" fill="#231f20"/>
            <path id="Trazado_132569" data-name="Trazado 132569" d="M1003.072,1206.265c26.252,11.322,86.9,8.829,105.024.156l4.634,15.353c-39.434,9.295-77.159,9.556-112.976-.29Z" transform="translate(-955.822 -943.588)" fill="url(#linear-gradient)"/>
            <g id="Grupo_62094" data-name="Grupo 62094" transform="translate(138.999 124.654)">
              <g id="Grupo_62093" data-name="Grupo 62093">
                <path id="Trazado_132570" data-name="Trazado 132570" d="M1357.125,911.268c-17.365,18.613-54,39.843-54,39.843l-11.239-16.175c11.656-6.423,18.078-23.075,29.2-34.492a39.368,39.368,0,0,1,13.38-9.337c-17.722-4.579-26.642-8.98-41.39-35.92-20.635-1.427-25.1-28.425-13.856-38.476,8.445-7.553,29.734-15.461,45.315,9.4,27.832,15.64,39.726,49.774,41.213,67.141C1367.116,898.183,1363.37,904.547,1357.125,911.268Z" transform="translate(-1273.208 -809.25)" fill="#21587b"/>
              </g>
              <path id="Trazado_132571" data-name="Trazado 132571" d="M1312.163,1145.936s-12.739-1.166-17.142,1.427a5.094,5.094,0,0,0-2.384,5.963c-7.445,2.537-3.439,18.49,7.654,24.306s22.925-14.916,22.925-14.916S1323.922,1148.938,1312.163,1145.936Z" transform="translate(-1283.406 -1028.717)" fill="#231f20"/>
              <path id="Trazado_132572" data-name="Trazado 132572" d="M1392.178,1082.391c-1.07,1.13-2.2,2.319-3.39,3.449-18.316,17.721-50.607,36.395-50.607,36.395l-11.24-16.175c10.051-5.531,16.177-18.614,24.8-29.438a59.825,59.825,0,0,1,4.4-5.053A85.047,85.047,0,0,0,1392.178,1082.391Z" transform="translate(-1308.261 -980.373)" fill="#231f20"/>
              <path id="Trazado_132573" data-name="Trazado 132573" d="M1438.712,1082.391c-1.071,1.13-2.2,2.319-3.39,3.449-15.7-.772-30.448-6.421-37.049-9.218a59.934,59.934,0,0,1,4.4-5.053A85.046,85.046,0,0,0,1438.712,1082.391Z" transform="translate(-1354.794 -980.373)" fill="#66b8ff"/>
            </g>
            <g id="Grupo_62098" data-name="Grupo 62098" transform="translate(87.574 145.509)">
              <g id="Grupo_62097" data-name="Grupo 62097">
                <g id="Grupo_62096" data-name="Grupo 62096">
                  <g id="Grupo_62095" data-name="Grupo 62095">
                    <path id="Trazado_132574" data-name="Trazado 132574" d="M1221.252,903.059h0l.011-.091Z" transform="translate(-1187.89 -891.242)" fill="#d9ffff"/>
                    <path id="Trazado_132575" data-name="Trazado 132575" d="M1221.252,903.059h0l.011-.091Z" transform="translate(-1187.89 -891.242)" fill="#d9ffff"/>
                    <path id="Trazado_132576" data-name="Trazado 132576" d="M1130.831,890.088l.011-.091-.011.091Z" transform="translate(-1128.903 -882.78)" fill="#d9ffff"/>
                    <path id="Trazado_132577" data-name="Trazado 132577" d="M1130.831,890.088l.011-.091-.011.091Z" transform="translate(-1128.903 -882.78)" fill="#d9ffff"/>
                    <path id="Trazado_132578" data-name="Trazado 132578" d="M1144.029,869.239a31.958,31.958,0,0,0,14.6,11.833c-.055.466-.359,3.05-1.759,14.957-1.867,15.884-16.345,21.632-18.592,22.51-1.908-1.349-14.672-11.13-12.805-27.015,1.4-11.907,1.7-14.491,1.758-14.957A29.772,29.772,0,0,0,1144.029,869.239Z" transform="translate(-1125.286 -869.239)" fill="#fff"/>
                  </g>
                </g>
                <path id="Trazado_132579" data-name="Trazado 132579" d="M1150.79,893.507l-.026.02a23.847,23.847,0,0,1-11.26,4.657l-1.194,10.158a18.671,18.671,0,0,0,3.5,13.186,24.942,24.942,0,0,0,4.914,5.208c.05.038.1.079.147.114a23.092,23.092,0,0,0,6.123-3.718,17.758,17.758,0,0,0,6.433-11.76l1.194-10.158A25.454,25.454,0,0,1,1150.79,893.507Z" transform="translate(-1133.697 -885.07)" fill="#1e5af9"/>
              </g>
            </g>
          </g>
          <path id="Trazado_132580" data-name="Trazado 132580" d="M1112.295,779.6c1.706,4.389,7.4,8.255,13.828,12.023a91.364,91.364,0,0,0,32.848-11.9c9.633-.045,16.564,3.662,23.693,6.4l-56.883,9.257-33.411-12.614C1096.814,781.146,1103.176,780.051,1112.295,779.6Z" transform="translate(-1016.24 -665.256)" fill="url(#linear-gradient)"/>
        </g>
        <g id="Grupo_62106" data-name="Grupo 62106" transform="translate(123.655 187.814)">
          <g id="Grupo_62104" data-name="Grupo 62104">
            <g id="Grupo_62102" data-name="Grupo 62102">
              <g id="Grupo_62101" data-name="Grupo 62101">
                <path id="Trazado_132581" data-name="Trazado 132581" d="M1711.8,1118.349h0c-.005-.28-.006-.4-.006-.432C1711.8,1117.969,1711.8,1118.349,1711.8,1118.349Z" transform="translate(-1543.979 -1073.77)" fill="#d9ffff"/>
                <path id="Trazado_132582" data-name="Trazado 132582" d="M1711.8,1118.349h0c-.005-.28-.006-.4-.006-.432C1711.8,1117.969,1711.8,1118.349,1711.8,1118.349Z" transform="translate(-1543.979 -1073.77)" fill="#d9ffff"/>
                <path id="Trazado_132583" data-name="Trazado 132583" d="M1229.078,1123.663s0-.38,0-.431c0,.029,0,.152,0,.431Z" transform="translate(-1229.073 -1077.236)" fill="#d9ffff"/>
                <path id="Trazado_132584" data-name="Trazado 132584" d="M1229.078,1123.663s0-.38,0-.431c0,.029,0,.152,0,.431Z" transform="translate(-1229.073 -1077.236)" fill="#d9ffff"/>
                <path id="Trazado_132585" data-name="Trazado 132585" d="M1312.539,990.927c19.7,20.724,51.014,37.61,84.457,44.672.024,2.22.161,14.52.791,71.209.84,75.625-71.221,113.056-82.409,118.8-10.91-4.912-84.372-41.33-85.212-116.954-.63-56.691-.767-68.989-.791-71.209C1262.652,1029.648,1293.309,1012.08,1312.539,990.927Z" transform="translate(-1229.27 -990.927)" fill="#fff"/>
              </g>
            </g>
            <g id="Grupo_62103" data-name="Grupo 62103" transform="translate(9.314 13.667)">
              <path id="Trazado_132586" data-name="Trazado 132586" d="M1469.118,1030.24c19.268,17.362,45.891,30.933,75.116,38.233l.712,64.074c.326,29.318-11.2,55.918-34.258,79.065a166.316,166.316,0,0,1-39.232,28.951c-.351-.174-.737-.371-1.115-.565l-1.388-209.608C1469.008,1030.339,1469.066,1030.29,1469.118,1030.24Z" transform="translate(-1394.873 -1030.24)" fill="#144ce3"/>
              <path id="Trazado_132587" data-name="Trazado 132587" d="M1329.944,1030.672l1.388,209.607a166.434,166.434,0,0,1-38.75-27.515c-23.566-22.632-35.681-48.972-36.006-78.291l-.712-64.075C1284.836,1062.48,1311.08,1048.383,1329.944,1030.672Z" transform="translate(-1255.864 -1030.522)" fill="#1e5af9"/>
            </g>
          </g>
          <g id="Grupo_62105" data-name="Grupo 62105" transform="translate(50.106 71.456)">
            <path id="Trazado_132588" data-name="Trazado 132588" d="M1373.2,1296.135l.329,49.64c.036,5.525,67.837,5.081,67.8-.445L1441,1295.69Zm25.649,18.571a8.375,8.375,0,1,1,11.855,7.512l.093,14.1a3.429,3.429,0,1,1-6.859.045l-.094-14.068A8.313,8.313,0,0,1,1398.849,1314.707Z" transform="translate(-1373.2 -1261.196)" fill="#fff"/>
            <path id="Trazado_132589" data-name="Trazado 132589" d="M1390.16,1227.831l6.863-.045-.022-3.343a21.1,21.1,0,0,1,42.2-.277l.022,3.343,6.863-.045-.022-3.342a27.964,27.964,0,0,0-55.927.366Z" transform="translate(-1384.248 -1196.468)" fill="#fff"/>
          </g>
        </g>
      </g>
    </g>
  </g>
</svg>
