<svg xmlns="http://www.w3.org/2000/svg" xmlns:xlink="http://www.w3.org/1999/xlink" width="505" height="430.578" viewBox="0 0 505 430.578">
  <defs>
    <linearGradient id="linear-gradient" x1="0.5" x2="0.5" y2="1" gradientUnits="objectBoundingBox">
      <stop offset="0" stop-color="#fff"/>
      <stop offset="1" stop-color="#d2e6ee"/>
    </linearGradient>
  </defs>
  <g id="Grupo_57144" data-name="Grupo 57144" transform="translate(-269.948 -82.067)">
    <g id="Grupo_57132" data-name="Grupo 57132" transform="translate(301.285 85.811)">
      <g id="Grupo_57107" data-name="Grupo 57107" transform="translate(92.126 137.84)">
        <g id="Grupo_57105" data-name="Grupo 57105" transform="translate(164.268)">
          <path id="Trazado_124019" data-name="Trazado 124019" d="M563.837,288.9,543.4,277.1l75.365-43.512c3.559-2.056,3.559-5.4,0-7.454L541.769,181.68a14.283,14.283,0,0,0-12.911,0l-75.364,43.512-20.44-11.8,75.365-43.512c14.83-8.562,38.961-8.562,53.79,0L639.2,214.33c14.83,8.562,14.83,22.494,0,31.056Z" transform="translate(-433.054 -163.457)" fill="#00223d"/>
        </g>
        <g id="Grupo_57106" data-name="Grupo 57106" transform="translate(0 21.674)">
          <path id="Trazado_124020" data-name="Trazado 124020" d="M664.959,284.879c0-10.928-6.643-23.621-14.84-28.355L513.574,177.69c-3.67-2.119-7.024-2.268-9.615-.821l-.007-.005L340.918,271.6l157.66,118.8L659.2,297.18a7.438,7.438,0,0,0,1.42-.823l0,0h0C663.3,294.324,664.959,290.338,664.959,284.879Z" transform="translate(-336.926 -175.917)" fill="url(#linear-gradient)"/>
          <path id="Trazado_124021" data-name="Trazado 124021" d="M440.355,350.794l160.62-93.225a7.434,7.434,0,0,0,1.419-.823l0,0h0c2.681-2.032,4.34-6.017,4.34-11.476a36.406,36.406,0,0,0-4-15.792L419.644,335.186Z" transform="translate(-278.703 -136.306)" fill="#1e5af9"/>
          <path id="Trazado_124022" data-name="Trazado 124022" d="M490.008,350.072,353.461,271.237c-8.2-4.732-14.839-17.427-14.839-28.353h0c0-10.928,6.643-15.95,14.839-11.218L490.008,310.5c8.2,4.732,14.838,17.425,14.838,28.353h0C504.846,349.781,498.2,354.8,490.008,350.072Z" transform="translate(-338.623 -136.005)" fill="#00223d"/>
        </g>
        <path id="Trazado_124023" data-name="Trazado 124023" d="M422.128,291.221l-16.416-9.47a7.083,7.083,0,0,1-2.959-5.652h0c0-2.178,1.326-3.178,2.959-2.235l16.416,9.47a7.084,7.084,0,0,1,2.957,5.652h0C425.085,291.164,423.762,292.164,422.128,291.221Z" transform="translate(-291.195 -82.068)" fill="#fff"/>
      </g>
      <g id="Grupo_57131" data-name="Grupo 57131">
        <g id="Grupo_57130" data-name="Grupo 57130">
          <path id="Trazado_124024" data-name="Trazado 124024" d="M343.029,152.325l28.054,15.936,28.626-16.8-.076-7.306-.244.143-.023-.516L412.1,143.7l-.075-7.194,12.484-.087-.075-7.194,12.484-.087-.075-7.194,12.484-.087-.075-7.194,13.346-.093,4.147-2.433,4.577-18.883-.076-7.306-2.209,7-20.2-2.7Z" transform="translate(-243.238 -82.942)" fill="#00223d"/>
          <g id="Grupo_57129" data-name="Grupo 57129">
            <g id="Grupo_57128" data-name="Grupo 57128">
              <g id="Grupo_57123" data-name="Grupo 57123" transform="translate(31.667)">
                <g id="Grupo_57109" data-name="Grupo 57109" transform="translate(68.048)">
                  <g id="Grupo_57108" data-name="Grupo 57108">
                    <path id="Trazado_124025" data-name="Trazado 124025" d="M371.039,162.232l28.626-16.8-.343-7.679,12.731-.089-.322-7.192,12.731-.089-.321-7.192,12.731-.089-.321-7.192,12.731-.089-.321-7.192,13.593-.1,4.147-2.433,4.576-18.883-22.488-3L342.985,146.3Z" transform="translate(-342.985 -84.219)" fill="url(#linear-gradient)"/>
                  </g>
                </g>
                <g id="Grupo_57111" data-name="Grupo 57111" transform="translate(68.047 49.946)">
                  <g id="Grupo_57110" data-name="Grupo 57110">
                    <path id="Trazado_124026" data-name="Trazado 124026" d="M390.1,129.813a39.443,39.443,0,0,0-13-11.21,67.11,67.11,0,0,0-13.438-5.673l-20.676,12.13L371.039,141Z" transform="translate(-342.985 -112.931)" fill="#00223d"/>
                  </g>
                </g>
                <g id="Grupo_57113" data-name="Grupo 57113" transform="translate(103.17 2.5)">
                  <g id="Grupo_57112" data-name="Grupo 57112">
                    <path id="Trazado_124027" data-name="Trazado 124027" d="M455.576,89.329l.768-3.169-3.773-.5-89.395,52.45,4.708,2.674Z" transform="translate(-363.176 -85.656)" fill="#00223d"/>
                  </g>
                </g>
                <g id="Grupo_57115" data-name="Grupo 57115" transform="translate(0.007 82.044)">
                  <g id="Grupo_57114" data-name="Grupo 57114">
                    <path id="Trazado_124028" data-name="Trazado 124028" d="M304.181,141.769l-.309-10.386L307.2,138.4Z" transform="translate(-303.872 -131.383)" fill="#d3d0cf"/>
                  </g>
                </g>
                <path id="Trazado_124029" data-name="Trazado 124029" d="M321.336,175.4c22.92,13.021,59.933,12.763,82.669-.578,11.4-6.689,17.042-15.4,16.95-24.055l0,.005-.318-11-1.868,2.082c-2.637-5.424-7.663-10.531-15.1-14.757-22.922-13.021-59.933-12.761-82.669.578S298.414,162.384,321.336,175.4Zm33.109-19.426c5.967,3.39,6.007,8.954.087,12.426s-15.555,3.54-21.522.151-6.007-8.954-.087-12.426S348.478,152.586,354.445,155.977Z" transform="translate(-303.736 -59.607)" fill="#00223d"/>
                <g id="Grupo_57117" data-name="Grupo 57117" transform="translate(0 47.51)">
                  <g id="Grupo_57116" data-name="Grupo 57116">
                    <path id="Trazado_124030" data-name="Trazado 124030" d="M321.156,169.436c22.922,13.021,59.935,12.761,82.671-.578s22.585-34.709-.336-47.73-59.933-12.761-82.669.579S298.236,156.415,321.156,169.436Zm33.111-19.426c5.967,3.389,6.007,8.952.087,12.426s-15.555,3.54-21.522.15-6.007-8.952-.087-12.426S348.3,146.62,354.267,150.01Z" transform="translate(-303.867 -111.531)" fill="#f2f2f2"/>
                  </g>
                </g>
                <path id="Trazado_124031" data-name="Trazado 124031" d="M347.6,161.545c-5.043.788-10.622.1-14.591-2.155-4.279-2.432-5.492-5.977-3.664-9.072l-10.383-8.233s-5.427-6.123-10.8-12.194c-8.36,12.22-3.959,26.615,13.174,36.348,7.558,4.293,16.027,6.732,25.632,8.146Z" transform="translate(-303.733 -50.443)" fill="#00223d"/>
                <g id="Grupo_57119" data-name="Grupo 57119" transform="translate(0 47.51)">
                  <g id="Grupo_57118" data-name="Grupo 57118">
                    <path id="Trazado_124032" data-name="Trazado 124032" d="M321.156,169.436A69.807,69.807,0,0,0,338.4,176.2a91.772,91.772,0,0,0,13.706,2.366c18.232,1.774,37.691-1.477,51.719-9.707,22.736-13.341,22.585-34.709-.336-47.73s-59.933-12.761-82.669.579S298.236,156.415,321.156,169.436Zm33.111-19.426c5.967,3.389,6.007,8.952.087,12.426s-15.555,3.54-21.522.15-6.007-8.952-.087-12.426S348.3,146.62,354.267,150.01Z" transform="translate(-303.867 -111.531)" fill="url(#linear-gradient)"/>
                  </g>
                </g>
                <g id="Grupo_57122" data-name="Grupo 57122" transform="translate(6.458 51.233)">
                  <g id="Grupo_57121" data-name="Grupo 57121">
                    <g id="Grupo_57120" data-name="Grupo 57120">
                      <path id="Trazado_124033" data-name="Trazado 124033" d="M307.582,144.2c1.115-6.652,6.047-13.151,14.828-18.3,20.229-11.869,53.159-12.1,73.552-.515,10.135,5.758,15.254,13.349,15.371,20.986,1.453-8.672-3.587-17.606-15.127-24.161-20.393-11.585-53.324-11.354-73.552.513C312.477,128.694,307.465,136.474,307.582,144.2Z" transform="translate(-307.58 -113.67)" fill="#00223d"/>
                    </g>
                  </g>
                </g>
              </g>
              <g id="Grupo_57127" data-name="Grupo 57127" transform="translate(0 79.965)">
                <g id="Grupo_57126" data-name="Grupo 57126">
                  <g id="Grupo_57125" data-name="Grupo 57125">
                    <g id="Grupo_57124" data-name="Grupo 57124">
                      <path id="Trazado_124034" data-name="Trazado 124034" d="M310,226.459a22.933,22.933,0,0,1-11.469-2.959c-8.214-4.66-12.786-14.028-12.867-26.377C285.5,174.6,301.18,147,320.609,135.6c10.644-6.247,21.029-7.12,29.244-2.453a22.968,22.968,0,0,1,8.5,8.5c2.849,4.855,4.318,10.869,4.365,17.876.16,22.522-15.519,50.122-34.948,61.521C321.64,224.644,315.594,226.459,310,226.459Zm28.364-87.992c-4.126,0-8.75,1.432-13.574,4.264-17.159,10.067-31.006,34.442-30.863,54.337.063,9.27,3.147,16.1,8.684,19.246s12.984,2.3,20.979-2.394c17.161-10.067,31.006-34.442,30.867-54.337-.036-5.459-1.153-10.213-3.229-13.748h0a14.359,14.359,0,0,0-12.864-7.369Z" transform="translate(-285.663 -130.188)" fill="#00223d"/>
                    </g>
                  </g>
                </g>
              </g>
            </g>
          </g>
        </g>
        <path id="Trazado_124035" data-name="Trazado 124035" d="M323.378,148.9l16.319,4,2.343-12.109c-5.918,3.472-15.555,3.54-21.522.15Z" transform="translate(-259.886 -42.379)" fill="#d4ecff"/>
        <path id="Trazado_124036" data-name="Trazado 124036" d="M313.806,145.7a69.8,69.8,0,0,0,17.246,6.763,91.774,91.774,0,0,0,13.706,2.366c18.232,1.774,37.691-1.477,51.719-9.707l-66.456-1.493Z" transform="translate(-264.85 -40.283)" fill="#d4ecff"/>
        <path id="Trazado_124037" data-name="Trazado 124037" d="M334.058,151.222a96.5,96.5,0,0,1-14.433-3.719v10.2a79.162,79.162,0,0,0,14.257,3.655C349.1,163.364,334.058,151.222,334.058,151.222Z" transform="translate(-260.547 -37.417)" fill="#00223d"/>
      </g>
      <path id="Trazado_124038" data-name="Trazado 124038" d="M327.281,149.988a67.694,67.694,0,0,1-9.4-3.469c-8.889-4.161,2.355,11.255,2.355,11.255s3.029,1.207,7.045,2.439Z" transform="translate(-264.367 -38.672)" fill="#00223d"/>
    </g>
    <g id="Grupo_57137" data-name="Grupo 57137" transform="translate(431.567 122.485)">
      <g id="Grupo_57134" data-name="Grupo 57134" transform="translate(6.307)">
        <path id="Trazado_124039" data-name="Trazado 124039" d="M408.62,306.208s-8.374-4.224-13.518,2.065-12.5,21.137-12.725,31.169,7.939,9.354,12.794,6.979,19.036-22.945,19.9-26.975-1.012-9.482-2.378-10.549S408.62,306.208,408.62,306.208Z" transform="translate(-350.73 42.254)" fill="#00223d"/>
        <path id="Trazado_124040" data-name="Trazado 124040" d="M405.254,305.31l.388,8.677a4.922,4.922,0,0,1-2.453,4.514,9.65,9.65,0,0,1-6.461,1c-6.309-1.014-6.871-2.816-7.323-11.492S405.254,305.31,405.254,305.31Z" transform="translate(-345.536 41.134)" fill="#ffc2b0"/>
        <g id="Grupo_57133" data-name="Grupo 57133" transform="translate(0 153.946)">
          <path id="Trazado_124041" data-name="Trazado 124041" d="M391,296.617s-8.374-4.224-13.518,2.065-12.5,21.136-12.725,31.168,7.939,9.355,12.794,6.981,19.036-22.945,19.9-26.977-1.012-9.481-2.378-10.547S391,296.617,391,296.617Z" transform="translate(-363.764 -118.785)" fill="#00223d"/>
          <path id="Trazado_124042" data-name="Trazado 124042" d="M387.63,295.719l.388,8.677a4.922,4.922,0,0,1-2.453,4.514,9.661,9.661,0,0,1-6.461,1c-6.309-1.014-6.873-2.816-7.324-11.492S387.63,295.719,387.63,295.719Z" transform="translate(-358.57 -119.905)" fill="#ffc2b0"/>
          <path id="Trazado_124043" data-name="Trazado 124043" d="M467.976,210.306c-2.479-40.333-43.68,5.934-43.68,5.934l-28.2,27.64-25.394,27.9a25.029,25.029,0,0,0-6.308,20.108L374.668,370.1a7.687,7.687,0,0,0,7.71,6.68,25.943,25.943,0,0,0,3.8-.332c9.164-1.428,8.487-10.14,8.487-10.14l-1.877-73.157L446.12,261S470.455,250.639,467.976,210.306Z" transform="translate(-364.183 -193.799)" fill="#1e5af9"/>
        </g>
        <path id="Trazado_124046" data-name="Trazado 124046" d="M485.6,219.251c-2.642-40.323-43.68,5.935-43.68,5.935l-28.2,27.64L388.327,280.72a25.033,25.033,0,0,0-6.308,20.108l10.274,78.219a7.685,7.685,0,0,0,7.708,6.68,26.193,26.193,0,0,0,3.8-.332c9.164-1.428,8.487-10.142,8.487-10.142L410.416,302.1l53.328-32.147S488.016,256.117,485.6,219.251Z" transform="translate(-351.149 -33.234)" fill="#1e5af9"/>
        <path id="Trazado_124047" data-name="Trazado 124047" d="M453.081,139.6c31.237,12.949,30.611,31.415,30.611,31.415s-6.12,67.693-4.031,112.9c.873,18.9-100.411,20.342-85.306-30.079C412.165,194.39,405.488,146.262,413.826,139S445,136.252,453.081,139.6Z" transform="translate(-343.004 -83.254)" fill="#00223d"/>
        <path id="Trazado_124048" data-name="Trazado 124048" d="M446.623,153.987c-1.633,6.342-9.943,9.686-18.559,7.466s-14.276-9.161-12.643-15.5,9.943-9.684,18.559-7.464S448.256,147.646,446.623,153.987Z" transform="translate(-326.497 -81.268)" fill="#ffc2b0"/>
        <path id="Trazado_124049" data-name="Trazado 124049" d="M433.974,164.257a22.665,22.665,0,0,1-5.645-.725,20.791,20.791,0,0,1-10.952-6.708c-2.7-3.3-3.679-7.073-2.766-10.613,1.833-7.13,10.978-10.964,20.377-8.539a20.8,20.8,0,0,1,10.95,6.709c2.7,3.305,3.679,7.073,2.766,10.611C447.244,160.672,441.145,164.257,433.974,164.257Zm-4.7-24.336c-5.8,0-10.653,2.7-11.77,7.035-.668,2.6.108,5.431,2.19,7.981a17.789,17.789,0,0,0,9.38,5.7c7.805,2,15.315-.856,16.742-6.389.668-2.6-.108-5.431-2.19-7.981a17.773,17.773,0,0,0-9.38-5.7A20.031,20.031,0,0,0,429.272,139.921Z" transform="translate(-327.133 -81.901)" fill="#fff"/>
        <path id="Trazado_124050" data-name="Trazado 124050" d="M420.376,139.531s.271,1.252-.27,11.151c-.171,3.112,10.726,6.019,13.542,3.2s1.689-5.746,2.366-16.336S420.376,139.531,420.376,139.531Z" transform="translate(-322.825 -84.591)" fill="#ffc2b0"/>
        <path id="Trazado_124051" data-name="Trazado 124051" d="M436.015,135.744s-2.684,9.82-15.91,13.586l.2-8.926Z" transform="translate(-322.825 -82.788)" fill="#ea9c92"/>
        <path id="Trazado_124052" data-name="Trazado 124052" d="M454.189,129.068a24.044,24.044,0,1,1-29.3-17.26A24.045,24.045,0,0,1,454.189,129.068Z" transform="translate(-332.62 -101.06)" fill="#ffc2b0"/>
        <path id="Trazado_124053" data-name="Trazado 124053" d="M436.5,127.838s-13.238,5.671-22.4,5.735-7.146-7.611-7.146-7.611l27.21-3.933Z" transform="translate(-332.691 -92.93)" fill="#ea9c92"/>
        <path id="Trazado_124054" data-name="Trazado 124054" d="M415.81,141.7s11.532-4.9,21.649-2.855a10.6,10.6,0,0,1,6.113,3.634,3.61,3.61,0,0,0,1.851,1.338c1.794.407,4.73-7.037,8.218-7.205s5.814,2.3,2.954,6.876-1.893,9.7-.576,10.434,15.268-9.952,2.961-34.334-43.572-11.25-48.436-6.308c0,0-5.123,4.462-9.288.491C401.255,113.776,396.585,148.756,415.81,141.7Z" transform="translate(-337.134 -105.302)" fill="#21587b"/>
        <path id="Trazado_124055" data-name="Trazado 124055" d="M451.994,188.61V206.9a7.456,7.456,0,0,1-2.432,5.507l-37.576,34.257,4.269,6.53,49.623-35.99a10.084,10.084,0,0,0,4.111-7.11l3.354-31.9Z" transform="translate(-328.829 -51.391)" fill="#ffc2b0"/>
        <path id="Trazado_124056" data-name="Trazado 124056" d="M451.029,150.495s11.4,17.143,15.646,62.271c0,0-19.473,6.3-30.524,2.722S451.029,150.495,451.029,150.495Z" transform="translate(-312.986 -71.879)" fill="#00223d"/>
        <path id="Trazado_124057" data-name="Trazado 124057" d="M435.794,162.956s-4.464,23.884-4.716,35.109a7.164,7.164,0,0,0,4.716,6.92h0Z" transform="translate(-314.711 -62.663)" fill="#234d6f"/>
      </g>
      <g id="Grupo_57135" data-name="Grupo 57135" transform="translate(6.007 181.618)">
        <path id="Trazado_124058" data-name="Trazado 124058" d="M475.643,245.14l-8.3-1.1-53.611-30.952a7.454,7.454,0,0,0-6.706.277l-37.988,21.925-5.02-.663v5h0a1.958,1.958,0,0,0,1.153,1.76l60.758,35.078a7.451,7.451,0,0,0,6.7-.278L474,252.314a2.707,2.707,0,0,0,1.64-2.256h0Z" transform="translate(-364.009 -207.698)" fill="#00223d"/>
        <path id="Trazado_124059" data-name="Trazado 124059" d="M435.362,220.922l-3.81-2.2H389.677l-20.645,11.911-5.02-.663v5h0a1.958,1.958,0,0,0,1.153,1.76l60.758,35.078a6.277,6.277,0,0,0,3.46.647Z" transform="translate(-364.009 -203.037)" fill="#396caa"/>
        <path id="Trazado_124060" data-name="Trazado 124060" d="M366.24,225.483l-2.228-.294v5h0a1.958,1.958,0,0,0,1.153,1.76l1.072.618Z" transform="translate(-364.009 -198.256)" fill="#5793ce"/>
        <path id="Trazado_124061" data-name="Trazado 124061" d="M399.955,253.17a7.788,7.788,0,0,0,5.7-.353V244.31h-5.7Z" transform="translate(-337.427 -184.114)" fill="#21587b"/>
        <path id="Trazado_124062" data-name="Trazado 124062" d="M425.928,273.482,365.17,238.4c-1.719-.993-1.5-2.726.482-3.872l41.37-23.877a7.454,7.454,0,0,1,6.706-.278l60.758,35.078c1.719.993,1.5,2.726-.482,3.872L432.632,273.2A7.451,7.451,0,0,1,425.928,273.482Z" transform="translate(-364.01 -209.706)" fill="url(#linear-gradient)"/>
        <path id="Trazado_124063" data-name="Trazado 124063" d="M420.9,262.715l-50.518-29.167c-1.43-.825-1.251-2.265.4-3.218l22.169-12.467a6.2,6.2,0,0,1,5.575-.23l50.52,29.165c1.428.826,1.249,2.267-.4,3.22l-22.169,12.466A6.191,6.191,0,0,1,420.9,262.715Z" transform="translate(-360.011 -204.257)" fill="#d4ecff"/>
      </g>
      <path id="Trazado_124064" data-name="Trazado 124064" d="M390.5,210.485l-.63,4.192a30.994,30.994,0,0,0,.275,10.749l.748,3.695a5.194,5.194,0,0,0,4.163,4.081h0a2.866,2.866,0,0,0,3.361-2.5l1-8.962s2.293,3.006,3.4,3.006-1.239-8.976-3.744-14.056S390.5,210.485,390.5,210.485Z" transform="translate(-339.131 -29.071)" fill="#ffc2b0"/>
      <path id="Trazado_124065" data-name="Trazado 124065" d="M412.36,176.666l-6.52,12.9a25.281,25.281,0,0,0-2.667,9.794L400.342,243.5l-8.576-.2-3.893-49.562a18.21,18.21,0,0,1,.221-4.582l4.448-25.133Z" transform="translate(-340.397 -61.879)" fill="#ffc2b0"/>
      <g id="Grupo_57136" data-name="Grupo 57136" transform="translate(0 155.338)">
        <path id="Trazado_124066" data-name="Trazado 124066" d="M425.972,288.022l-5.1-6.65L367.3,250.355a7.453,7.453,0,0,1-3.1-5.951l.045-43.859-3.079-4.022,2.893-1.677,0,.005a1.953,1.953,0,0,1,2.1.12l60.714,35.153a7.449,7.449,0,0,1,3.1,5.949l-.051,47.767a2.706,2.706,0,0,1-1.136,2.547h0Z" transform="translate(-360.106 -194.599)" fill="#00223d"/>
        <path id="Trazado_124067" data-name="Trazado 124067" d="M388.923,262.871l-3.806-2.2-20.892-36.289.021-23.834-3.079-4.022,2.893-1.677,0,.005a1.953,1.953,0,0,1,2.1.12l60.714,35.153a6.289,6.289,0,0,1,2.288,2.675Z" transform="translate(-360.106 -194.599)" fill="#00223d"/>
        <path id="Trazado_124068" data-name="Trazado 124068" d="M362.533,198.308l-1.366-1.785,2.893-1.677,0,.005a1.953,1.953,0,0,1,2.1.12l1.07.619Z" transform="translate(-360.106 -194.599)" fill="#21587b"/>
        <path id="Trazado_124069" data-name="Trazado 124069" d="M401.912,215.244a7.781,7.781,0,0,1,2.536,5.114l-5.934,3.425-2.842-4.937Z" transform="translate(-334.587 -179.331)" fill="#21587b"/>
        <path id="Trazado_124070" data-name="Trazado 124070" d="M424.437,231.087l-60.712-35.151c-1.719-1-3.114.057-3.116,2.348l-.052,47.767A7.459,7.459,0,0,0,363.662,252l60.714,35.151c1.717,1,3.112-.057,3.116-2.348l.05-47.766A7.45,7.45,0,0,0,424.437,231.087Z" transform="translate(-360.557 -193.888)" fill="url(#linear-gradient)"/>
      </g>
      <path id="Trazado_124071" data-name="Trazado 124071" d="M422.951,224.087l-.972,2.014a13.492,13.492,0,0,1-5.074,5.626l-6.031,3.717a6.005,6.005,0,0,1-6.156.143l-.205-.124a3.63,3.63,0,0,1-.513-5.575l6.3-6.478s-3.54,2.712-4.533,1.62c-.727-.8,3.434-4.707,6.629-4.834s6.285-2.639,6.285-2.639Z" transform="translate(-329.218 -22.282)" fill="#ffc2b0"/>
      <path id="Trazado_124072" data-name="Trazado 124072" d="M419.038,137.3s-23.1,25.138-32.422,48.2c0,0,7.9,14.233,27.238,19.817S419.038,137.3,419.038,137.3Z" transform="translate(-341.285 -81.641)" fill="#00223d"/>
      <path id="Trazado_124073" data-name="Trazado 124073" d="M401.932,190.916l3.745-36.172-8.823,33.89A50.187,50.187,0,0,0,401.932,190.916Z" transform="translate(-333.713 -68.736)" fill="#234d6f"/>
      <path id="Trazado_124074" data-name="Trazado 124074" d="M417.841,135.1l-6.208-1.7s2.964,4.662,7.29,5.85,5-2.474,5-2.474Z" transform="translate(-322.783 -84.522)" fill="#fff"/>
    </g>
    <g id="Grupo_57140" data-name="Grupo 57140" transform="translate(585.038 82.067)">
      <g id="Grupo_57138" data-name="Grupo 57138">
        <path id="Trazado_124075" data-name="Trazado 124075" d="M503.025,109.356,456.513,82.5a2.379,2.379,0,0,0-2.4-.193l0-.03L449.6,84.885l3.171,1.159v33.873c0,2.755,1.675,5.958,3.742,7.151l44.458,25.667v3.975l4.558-2.625-.024-.009a3.316,3.316,0,0,0,1.265-2.983V116.507C506.769,113.751,505.094,110.549,503.025,109.356Z" transform="translate(-448.175 -82.067)" fill="#21587b"/>
        <path id="Trazado_124076" data-name="Trazado 124076" d="M499.037,155.451,452.525,128.6c-2.067-1.193-3.744-4.394-3.744-7.15V86.86c0-2.755,1.677-4.024,3.744-2.83l46.512,26.855c2.067,1.193,3.744,4.394,3.744,7.15v34.586C502.78,155.378,501.1,156.644,499.037,155.451Z" transform="translate(-448.781 -80.947)" fill="#00223d"/>
      </g>
      <g id="Grupo_57139" data-name="Grupo 57139" transform="translate(13.108 29.866)">
        <path id="Trazado_124077" data-name="Trazado 124077" d="M462.594,105.1c0,2-1.406,2.813-3.14,1.811a6.936,6.936,0,0,1-3.138-5.434c0-2,1.406-2.813,3.138-1.813A6.934,6.934,0,0,1,462.594,105.1Z" transform="translate(-456.316 -99.236)" fill="#fff"/>
        <path id="Trazado_124078" data-name="Trazado 124078" d="M468.058,108.255c0,2-1.406,2.813-3.138,1.813a6.935,6.935,0,0,1-3.138-5.436c0-2,1.4-2.813,3.138-1.813A6.942,6.942,0,0,1,468.058,108.255Z" transform="translate(-452.274 -96.902)" fill="#fff"/>
        <path id="Trazado_124079" data-name="Trazado 124079" d="M473.523,111.411c0,2-1.4,2.811-3.138,1.811a6.937,6.937,0,0,1-3.138-5.436c0-2,1.406-2.811,3.138-1.811A6.932,6.932,0,0,1,473.523,111.411Z" transform="translate(-448.232 -94.568)" fill="#fff"/>
      </g>
    </g>
    <g id="Grupo_57143" data-name="Grupo 57143" transform="translate(269.948 376.837)">
      <g id="Grupo_57141" data-name="Grupo 57141">
        <path id="Trazado_124080" data-name="Trazado 124080" d="M317.756,278.29l-45.63-26.344a2.332,2.332,0,0,0-2.359-.19l0-.03-4.427,2.557s1.96.715,3.11,1.136V288.65c0,2.7,1.644,5.843,3.672,7.014l43.614,25.182v3.9l4.472-2.575-.024-.009a3.254,3.254,0,0,0,1.24-2.926v-33.93C321.428,282.6,319.784,279.46,317.756,278.29Z" transform="translate(-263.946 -251.518)" fill="#1e5af9"/>
        <path id="Trazado_124081" data-name="Trazado 124081" d="M313.843,323.51l-45.63-26.346c-2.028-1.171-3.672-4.311-3.672-7.016V256.221c0-2.7,1.644-3.947,3.672-2.776l45.63,26.346c2.028,1.171,3.672,4.311,3.672,7.014v33.93C317.515,323.437,315.871,324.681,313.843,323.51Z" transform="translate(-264.54 -250.419)" fill="url(#linear-gradient)"/>
      </g>
      <g id="Grupo_57142" data-name="Grupo 57142" transform="translate(12.859 29.3)">
        <path id="Trazado_124082" data-name="Trazado 124082" d="M278.09,274.115c0,1.962-1.378,2.759-3.079,1.776a6.807,6.807,0,0,1-3.079-5.332c0-1.964,1.379-2.759,3.079-1.778A6.8,6.8,0,0,1,278.09,274.115Z" transform="translate(-271.932 -268.361)" fill="#00223d"/>
        <path id="Trazado_124083" data-name="Trazado 124083" d="M283.452,277.21c0,1.964-1.38,2.759-3.079,1.778a6.8,6.8,0,0,1-3.079-5.333c0-1.962,1.378-2.759,3.079-1.776A6.807,6.807,0,0,1,283.452,277.21Z" transform="translate(-267.967 -266.072)" fill="#00223d"/>
        <path id="Trazado_124084" data-name="Trazado 124084" d="M288.814,280.306c0,1.962-1.379,2.759-3.079,1.776a6.8,6.8,0,0,1-3.079-5.332c0-1.964,1.378-2.759,3.079-1.778A6.81,6.81,0,0,1,288.814,280.306Z" transform="translate(-264.001 -263.783)" fill="#00223d"/>
      </g>
    </g>
    <g id="Grupo_63338" data-name="Grupo 63338" transform="translate(644.979 309.08)">
      <path id="Trazado_123883" data-name="Trazado 123883" d="M2602.882,1118.931c-22.56-12.942-45.388-33.618-58.118-56.278a4.3,4.3,0,0,1-.574-2.2V985.168a4.429,4.429,0,0,1,3.032-4.251l56.433-19.434a4.326,4.326,0,0,1,2.927,0l56.433,19.434a4.432,4.432,0,0,1,3.032,4.251v75.282a4.3,4.3,0,0,1-.577,2.2c-12.729,22.66-35.558,43.336-58.115,56.278A4.387,4.387,0,0,1,2602.882,1118.931Z" transform="translate(-2544.189 -961.228)" fill="#1e5af9" fill-rule="evenodd"/>
      <path id="Trazado_123885" data-name="Trazado 123885" d="M2546.275,1062.854c16.732,29.846,47.365,50.032,59.333,56.633V962.522l-56.875,19.587a4.433,4.433,0,0,0-3.033,4.251v74.295A4.313,4.313,0,0,0,2546.275,1062.854Z" transform="translate(-2544.679 -961.648)" fill="#1d4ecf" fill-rule="evenodd"/>
      <path id="Trazado_123886" data-name="Trazado 123886" d="M2610.1,977.167l47.524,16.365a4.433,4.433,0,0,1,3.034,4.252v65.107a4.307,4.307,0,0,1-.643,2.316c-11.464,19.068-30.551,36.441-49.382,47.916l-.533.324c-19.266-11.734-38.232-28.8-49.914-48.24a4.3,4.3,0,0,1-.642-2.316V997.784a4.431,4.431,0,0,1,3.032-4.252Z" transform="translate(-2549.176 -966.403)" fill="#fff" fill-rule="evenodd"/>
      <path id="Trazado_123887" data-name="Trazado 123887" d="M2610.6,978.774l-46.5,16.012a4.431,4.431,0,0,0-3.031,4.251v64.1a4.312,4.312,0,0,0,.644,2.32c11.1,18.436,30.242,35.965,48.887,47.315Z" transform="translate(-2549.669 -966.925)" fill="#00223d" fill-rule="evenodd"/>
      <path id="Trazado_123888" data-name="Trazado 123888" d="M2683.939,1063.134v-64.1a4.43,4.43,0,0,0-3.031-4.251l-46.5-16.012v133.994h0c18.644-11.35,37.781-28.879,48.884-47.315A4.32,4.32,0,0,0,2683.939,1063.134Z" transform="translate(-2573.48 -966.925)" fill="#00223d" fill-rule="evenodd"/>
      <path id="Trazado_123889" data-name="Trazado 123889" d="M2626.959,1009.987a15.532,15.532,0,0,1,15.495,15.5v12.092a3.1,3.1,0,0,1-3.1,3.1h-24.8a3.1,3.1,0,0,1-3.1-3.1v-12.092a15.532,15.532,0,0,1,15.5-15.5Zm0,6.2a9.33,9.33,0,0,0-9.3,9.3v8.993h18.595v-8.993a9.333,9.333,0,0,0-9.3-9.3Z" transform="translate(-2566.03 -977.059)" fill-rule="evenodd" fill="url(#linear-gradient)"/>
      <path id="Trazado_123890" data-name="Trazado 123890" d="M2634.408,1045.174h20.664a4.144,4.144,0,0,1,4.133,4.132v38.752a4.145,4.145,0,0,1-4.133,4.133h-20.664Z" transform="translate(-2573.48 -988.483)" fill-rule="evenodd" fill="url(#linear-gradient)"/>
      <path id="Trazado_123891" data-name="Trazado 123891" d="M2601.825,1045.174h20.663v47.017h-20.663a4.143,4.143,0,0,1-4.132-4.133v-38.752A4.143,4.143,0,0,1,2601.825,1045.174Z" transform="translate(-2561.56 -988.483)" fill-rule="evenodd" fill="url(#linear-gradient)"/>
      <path id="Trazado_123892" data-name="Trazado 123892" d="M2631.7,1064.669a5.637,5.637,0,0,1,2.3,10.784l.142.4,2.435,6.984h-9.75l2.438-6.984.142-.4a5.637,5.637,0,0,1,2.3-10.784Z" transform="translate(-2570.773 -994.812)" fill="#00223d" fill-rule="evenodd"/>
      <path id="Trazado_123893" data-name="Trazado 123893" d="M2633.815,1064.991a5.638,5.638,0,0,1,.724,10.562l.14.4,2.437,6.984h-8.551l2.366-6.78.14-.4a5.638,5.638,0,0,1,2.3-10.785C2633.519,1064.972,2633.667,1064.979,2633.815,1064.991Z" transform="translate(-2571.313 -994.911)" fill="#37a3a5" fill-rule="evenodd"/>
    </g>
  </g>
</svg>
