<svg xmlns="http://www.w3.org/2000/svg" xmlns:xlink="http://www.w3.org/1999/xlink" width="205.533" height="319.927" viewBox="0 0 205.533 319.927">
  <defs>
    <linearGradient id="linear-gradient" x1="0.5" x2="0.5" y2="1" gradientUnits="objectBoundingBox">
      <stop offset="0" stop-color="#fff"/>
      <stop offset="1" stop-color="#d2e6ee"/>
    </linearGradient>
  </defs>
  <g id="Grupo_57220" data-name="Grupo 57220" transform="translate(-1501.595 -106.012)">
    <g id="Grupo_57205" data-name="Grupo 57205" transform="translate(1501.595 106.012)">
      <g id="Grupo_57154" data-name="Grupo 57154" transform="translate(0 20.533)">
        <g id="Grupo_57153" data-name="Grupo 57153">
          <g id="Grupo_57145" data-name="Grupo 57145" transform="translate(50.245 179.315)">
            <path id="Trazado_124086" data-name="Trazado 124086" d="M1764.579,1065.447l-4.869,2.811v-10.34l4.869-2.811Z" transform="translate(-1754.84 -1052.296)" fill="#00223d"/>
            <path id="Trazado_124087" data-name="Trazado 124087" d="M1741.774,1068.258l-4.87-2.811v-10.34l4.87,2.811Z" transform="translate(-1736.905 -1052.296)" fill="url(#linear-gradient)"/>
            <path id="Trazado_124088" data-name="Trazado 124088" d="M1746.644,1044.752l-4.87,2.811-4.87-2.811,4.87-2.811Z" transform="translate(-1736.905 -1041.941)" fill="#b8d4f5"/>
          </g>
          <g id="Grupo_57146" data-name="Grupo 57146" transform="translate(106.167 150.603)">
            <path id="Trazado_124089" data-name="Trazado 124089" d="M2026.472,930.982l-4.87,2.811v-10.34l4.87-2.812Z" transform="translate(-2016.733 -917.831)" fill="#679ae2"/>
            <path id="Trazado_124090" data-name="Trazado 124090" d="M2003.667,933.794l-4.869-2.811v-10.34l4.869,2.811Z" transform="translate(-1998.798 -917.831)" fill="#b8d4f5"/>
            <path id="Trazado_124091" data-name="Trazado 124091" d="M2008.537,910.287l-4.87,2.812-4.869-2.811,4.869-2.811Z" transform="translate(-1998.798 -907.476)" fill="#b8d4f5"/>
          </g>
          <g id="Grupo_57147" data-name="Grupo 57147" transform="translate(2.966 152.008)">
            <path id="Trazado_124092" data-name="Trazado 124092" d="M1543.161,937.563l-4.869,2.811v-10.34l4.869-2.811Z" transform="translate(-1533.422 -924.412)" fill="#00223d"/>
            <path id="Trazado_124093" data-name="Trazado 124093" d="M1520.357,940.374l-4.87-2.811v-10.34l4.87,2.811Z" transform="translate(-1515.487 -924.412)" fill="url(#linear-gradient)"/>
            <path id="Trazado_124094" data-name="Trazado 124094" d="M1525.226,916.868l-4.87,2.811-4.87-2.811,4.87-2.811Z" transform="translate(-1515.487 -914.057)" fill="#b8d4f5"/>
          </g>
          <path id="Trazado_124095" data-name="Trazado 124095" d="M1834.4,484.849l-58.559,33.809V394.315l58.559-33.809Z" transform="translate(-1717.281 -326.697)" fill="url(#linear-gradient)"/>
          <path id="Trazado_124096" data-name="Trazado 124096" d="M1560.154,518.657l-58.559-33.809V360.505l58.559,33.809Z" transform="translate(-1501.595 -326.696)" fill="url(#linear-gradient)"/>
          <path id="Trazado_124097" data-name="Trazado 124097" d="M1618.713,235.979l-58.559,33.809-58.559-33.809,58.559-33.809Z" transform="translate(-1501.595 -202.17)" fill="url(#linear-gradient)"/>
          <path id="Trazado_124098" data-name="Trazado 124098" d="M1648.932,259.929l-47.3,27.307-47.3-27.307,47.3-27.307Z" transform="translate(-1543.077 -226.12)" fill="#00223d"/>
          <g id="Grupo_57148" data-name="Grupo 57148" transform="translate(3.444 41.861)">
            <path id="Trazado_124099" data-name="Trazado 124099" d="M1569.4,438.877l-51.67-29.832V398.216l51.67,29.832Z" transform="translate(-1517.726 -398.216)" fill="#00223d"/>
            <path id="Trazado_124100" data-name="Trazado 124100" d="M1569.4,488.132l-51.67-29.832v-2.247l51.67,29.832Z" transform="translate(-1517.726 -443.703)" fill="#00223d"/>
            <path id="Trazado_124101" data-name="Trazado 124101" d="M1569.4,505.776l-51.67-29.832V473.7l51.67,29.832Z" transform="translate(-1517.726 -457.58)" fill="#00223d"/>
            <path id="Trazado_124102" data-name="Trazado 124102" d="M1744.812,568.15c0,.7-.49.98-1.094.632a2.418,2.418,0,0,1-1.094-1.895c0-.7.49-.98,1.094-.631A2.417,2.417,0,0,1,1744.812,568.15Z" transform="translate(-1694.602 -530.257)" fill="url(#linear-gradient)"/>
            <path id="Trazado_124103" data-name="Trazado 124103" d="M1744.812,552.94c0,.7-.49.98-1.094.632a2.418,2.418,0,0,1-1.094-1.895c0-.7.49-.98,1.094-.632A2.418,2.418,0,0,1,1744.812,552.94Z" transform="translate(-1694.602 -518.294)" fill="url(#linear-gradient)"/>
            <path id="Trazado_124104" data-name="Trazado 124104" d="M1744.812,537.73c0,.7-.49.98-1.094.631a2.418,2.418,0,0,1-1.094-1.895c0-.7.49-.98,1.094-.631A2.418,2.418,0,0,1,1744.812,537.73Z" transform="translate(-1694.602 -506.332)" fill="url(#linear-gradient)"/>
          </g>
          <g id="Grupo_57149" data-name="Grupo 57149" transform="translate(3.444 65.959)">
            <path id="Trazado_124105" data-name="Trazado 124105" d="M1569.4,551.734l-51.67-29.832V511.073L1569.4,540.9Z" transform="translate(-1517.726 -511.073)" fill="#00223d"/>
            <path id="Trazado_124106" data-name="Trazado 124106" d="M1569.4,600.988l-51.67-29.832v-2.247l51.67,29.832Z" transform="translate(-1517.726 -556.56)" fill="#00223d"/>
            <path id="Trazado_124107" data-name="Trazado 124107" d="M1569.4,618.632l-51.67-29.832v-2.247l51.67,29.832Z" transform="translate(-1517.726 -570.436)" fill="#00223d"/>
            <path id="Trazado_124108" data-name="Trazado 124108" d="M1744.812,681.007c0,.7-.49.98-1.094.631a2.418,2.418,0,0,1-1.094-1.895c0-.7.49-.98,1.094-.631A2.418,2.418,0,0,1,1744.812,681.007Z" transform="translate(-1694.602 -643.113)" fill="url(#linear-gradient)"/>
            <path id="Trazado_124109" data-name="Trazado 124109" d="M1744.812,665.8c0,.7-.49.98-1.094.632a2.418,2.418,0,0,1-1.094-1.895c0-.7.49-.98,1.094-.631A2.418,2.418,0,0,1,1744.812,665.8Z" transform="translate(-1694.602 -631.151)" fill="url(#linear-gradient)"/>
            <path id="Trazado_124110" data-name="Trazado 124110" d="M1744.812,650.586c0,.7-.49.98-1.094.631a2.418,2.418,0,0,1-1.094-1.895c0-.7.49-.98,1.094-.632A2.418,2.418,0,0,1,1744.812,650.586Z" transform="translate(-1694.602 -619.188)" fill="url(#linear-gradient)"/>
          </g>
          <g id="Grupo_57150" data-name="Grupo 57150" transform="translate(3.444 90.057)">
            <path id="Trazado_124111" data-name="Trazado 124111" d="M1569.4,664.59l-51.67-29.832V623.929l51.67,29.832Z" transform="translate(-1517.726 -623.929)" fill="#00223d"/>
            <path id="Trazado_124112" data-name="Trazado 124112" d="M1569.4,713.845l-51.67-29.832v-2.247L1569.4,711.6Z" transform="translate(-1517.726 -669.416)" fill="#00223d"/>
            <path id="Trazado_124113" data-name="Trazado 124113" d="M1569.4,731.489l-51.67-29.832V699.41l51.67,29.832Z" transform="translate(-1517.726 -683.293)" fill="#00223d"/>
            <path id="Trazado_124114" data-name="Trazado 124114" d="M1744.812,793.863c0,.7-.49.98-1.094.632a2.418,2.418,0,0,1-1.094-1.895c0-.7.49-.98,1.094-.632A2.418,2.418,0,0,1,1744.812,793.863Z" transform="translate(-1694.602 -755.97)" fill="url(#linear-gradient)"/>
            <path id="Trazado_124115" data-name="Trazado 124115" d="M1744.812,778.653c0,.7-.49.98-1.094.631a2.417,2.417,0,0,1-1.094-1.894c0-.7.49-.98,1.094-.632A2.418,2.418,0,0,1,1744.812,778.653Z" transform="translate(-1694.602 -744.007)" fill="url(#linear-gradient)"/>
            <path id="Trazado_124116" data-name="Trazado 124116" d="M1744.812,763.442c0,.7-.49.98-1.094.632a2.418,2.418,0,0,1-1.094-1.895c0-.7.49-.98,1.094-.631A2.417,2.417,0,0,1,1744.812,763.442Z" transform="translate(-1694.602 -732.045)" fill="url(#linear-gradient)"/>
          </g>
          <g id="Grupo_57151" data-name="Grupo 57151" transform="translate(3.444 114.155)">
            <path id="Trazado_124117" data-name="Trazado 124117" d="M1569.4,777.447l-51.67-29.832V736.786l51.67,29.832Z" transform="translate(-1517.726 -736.786)" fill="#00223d"/>
            <path id="Trazado_124118" data-name="Trazado 124118" d="M1569.4,826.7l-51.67-29.832v-2.247l51.67,29.832Z" transform="translate(-1517.726 -782.273)" fill="#00223d"/>
            <path id="Trazado_124119" data-name="Trazado 124119" d="M1569.4,844.345l-51.67-29.832v-2.247L1569.4,842.1Z" transform="translate(-1517.726 -796.149)" fill="#00223d"/>
            <path id="Trazado_124120" data-name="Trazado 124120" d="M1744.812,906.719c0,.7-.49.98-1.094.632a2.418,2.418,0,0,1-1.094-1.895c0-.7.49-.98,1.094-.631A2.418,2.418,0,0,1,1744.812,906.719Z" transform="translate(-1694.602 -868.826)" fill="url(#linear-gradient)"/>
            <path id="Trazado_124121" data-name="Trazado 124121" d="M1744.812,891.509c0,.7-.49.98-1.094.632a2.418,2.418,0,0,1-1.094-1.895c0-.7.49-.98,1.094-.631A2.417,2.417,0,0,1,1744.812,891.509Z" transform="translate(-1694.602 -856.864)" fill="url(#linear-gradient)"/>
            <path id="Trazado_124122" data-name="Trazado 124122" d="M1744.812,876.3c0,.7-.49.98-1.094.631a2.417,2.417,0,0,1-1.094-1.894c0-.7.49-.98,1.094-.632A2.418,2.418,0,0,1,1744.812,876.3Z" transform="translate(-1694.602 -844.901)" fill="url(#linear-gradient)"/>
          </g>
          <g id="Grupo_57152" data-name="Grupo 57152" transform="translate(3.444 138.254)">
            <path id="Trazado_124123" data-name="Trazado 124123" d="M1569.4,890.3l-51.67-29.832V849.642l51.67,29.832Z" transform="translate(-1517.726 -849.642)" fill="#00223d"/>
            <path id="Trazado_124124" data-name="Trazado 124124" d="M1569.4,939.557l-51.67-29.832v-2.247l51.67,29.832Z" transform="translate(-1517.726 -895.129)" fill="#00223d"/>
            <path id="Trazado_124125" data-name="Trazado 124125" d="M1569.4,957.2l-51.67-29.832v-2.247l51.67,29.832Z" transform="translate(-1517.726 -909.006)" fill="#00223d"/>
            <path id="Trazado_124126" data-name="Trazado 124126" d="M1744.812,1019.576c0,.7-.49.98-1.094.631a2.418,2.418,0,0,1-1.094-1.894c0-.7.49-.98,1.094-.632A2.418,2.418,0,0,1,1744.812,1019.576Z" transform="translate(-1694.602 -981.682)" fill="url(#linear-gradient)"/>
            <path id="Trazado_124127" data-name="Trazado 124127" d="M1744.812,1004.366c0,.7-.49.98-1.094.631a2.418,2.418,0,0,1-1.094-1.895c0-.7.49-.98,1.094-.631A2.418,2.418,0,0,1,1744.812,1004.366Z" transform="translate(-1694.602 -969.72)" fill="url(#linear-gradient)"/>
            <path id="Trazado_124128" data-name="Trazado 124128" d="M1744.812,989.155c0,.7-.49.98-1.094.632a2.418,2.418,0,0,1-1.094-1.895c0-.7.49-.98,1.094-.631A2.417,2.417,0,0,1,1744.812,989.155Z" transform="translate(-1694.602 -957.757)" fill="url(#linear-gradient)"/>
          </g>
        </g>
      </g>
      <g id="Grupo_57160" data-name="Grupo 57160" transform="translate(95.868 23.086)">
        <path id="Trazado_124130" data-name="Trazado 124130" d="M2059.336,268.122l-92.923-53.649a1.9,1.9,0,0,0-1.781-.208h0a1.414,1.414,0,0,0-.194.11l-8.72,4.939,7.413,9.616.395-.1V412.941h0v5.306c0,3.643,2.215,7.874,4.947,9.452l85.031,49.093-5.466,3.91,6.057,5.969,9.125-5.135a2.5,2.5,0,0,0,1.064-2.371v-6.8h0V282.926h0v-5.352C2064.283,273.931,2062.068,269.7,2059.336,268.122Z" transform="translate(-1954.618 -214.127)" fill="#00223d"/>
        <g id="Grupo_57156" data-name="Grupo 57156" transform="translate(0 5.045)">
          <path id="Trazado_124131" data-name="Trazado 124131" d="M2048.437,504.975l-92.923-53.649c-2.732-1.577-4.947-5.809-4.947-9.452V240.283c0-2.127,1.293-3.1,2.888-2.183l92.923,53.649c2.732,1.577,4.947,5.809,4.947,9.452V502.792C2051.325,504.918,2050.032,505.9,2048.437,504.975Z" transform="translate(-1950.567 -237.754)" fill="#d7e4ff"/>
          <path id="Trazado_124132" data-name="Trazado 124132" d="M2048.437,1251.862l-92.923-53.649c-2.732-1.577-4.947-5.809-4.947-9.452v1.054c0,3.643,2.215,7.874,4.947,9.452l92.923,53.649c1.595.921,2.888-.057,2.888-2.183v-1.054C2051.324,1251.8,2050.032,1252.782,2048.437,1251.862Z" transform="translate(-1950.567 -985.694)" fill="#a9c2ff"/>
          <g id="Grupo_57155" data-name="Grupo 57155" transform="translate(40.395 25.028)">
            <path id="Trazado_124133" data-name="Trazado 124133" d="M2159.9,368.073l-19.367-11.181a1.743,1.743,0,0,1-.788-1.365h0c0-.5.353-.706.788-.455l19.367,11.181a1.743,1.743,0,0,1,.788,1.365h0C2160.687,368.121,2160.334,368.324,2159.9,368.073Z" transform="translate(-2139.744 -354.964)" fill="#00223d"/>
          </g>
          <path id="Trazado_124134" data-name="Trazado 124134" d="M2048.541,523.657l-94.254-54.417c-2.054-1.186-3.72-4.368-3.72-7.107V272.7c0-2.05,1.246-2.992,2.784-2.1L2047.6,325.01c2.054,1.186,3.72,4.368,3.72,7.107V521.552C2051.325,523.6,2050.078,524.545,2048.541,523.657Z" transform="translate(-1950.567 -263.318)" fill="url(#linear-gradient)"/>
        </g>
        <path id="Trazado_124135" data-name="Trazado 124135" d="M2046.378,291.749,1953.455,238.1c-1.595-.921-2.888.057-2.888,2.183v3.347c0-2.127,1.293-3.1,2.888-2.183l92.923,53.649c2.732,1.577,4.947,5.809,4.947,9.452V301.2C2051.324,297.558,2049.11,293.327,2046.378,291.749Z" transform="translate(-1950.567 -232.709)" fill="#fff" opacity="0.53" style="mix-blend-mode: screen;isolation: isolate"/>
        <g id="Grupo_57159" data-name="Grupo 57159" transform="translate(103.169 92.617)">
          <g id="Grupo_57157" data-name="Grupo 57157">
            <path id="Trazado_124136" data-name="Trazado 124136" d="M2435.732,677.856l-.26.15c-.963.556-1.743-.034-1.743-1.318V651.561a4.174,4.174,0,0,1,1.743-3.33l.26-.15c.963-.556,1.743.034,1.743,1.318v25.127A4.174,4.174,0,0,1,2435.732,677.856Z" transform="translate(-2433.729 -647.871)" fill="#21587b"/>
            <path id="Trazado_124137" data-name="Trazado 124137" d="M2435.732,826.158l-.26.15c-.963.556-1.743-.034-1.743-1.318V813.137a4.174,4.174,0,0,1,1.743-3.33l.26-.15c.963-.556,1.743.034,1.743,1.318v11.853A4.174,4.174,0,0,1,2435.732,826.158Z" transform="translate(-2433.729 -774.946)" fill="#21587b"/>
          </g>
          <g id="Grupo_57158" data-name="Grupo 57158" transform="translate(0.846)">
            <path id="Trazado_124138" data-name="Trazado 124138" d="M2439.695,677.856l-.26.15c-.963.556-1.743-.034-1.743-1.318V651.561a4.174,4.174,0,0,1,1.743-3.33l.26-.15c.963-.556,1.744.034,1.744,1.318v25.127A4.174,4.174,0,0,1,2439.695,677.856Z" transform="translate(-2437.692 -647.871)" fill="url(#linear-gradient)"/>
            <path id="Trazado_124139" data-name="Trazado 124139" d="M2439.695,826.158l-.26.15c-.963.556-1.743-.034-1.743-1.318V813.137a4.174,4.174,0,0,1,1.743-3.33l.26-.15c.963-.556,1.744.034,1.744,1.318v11.853A4.175,4.175,0,0,1,2439.695,826.158Z" transform="translate(-2437.692 -774.946)" fill="url(#linear-gradient)"/>
          </g>
        </g>
        <path id="Trazado_124140" data-name="Trazado 124140" d="M2346.966,431.784c1.372.792,1.372,2.077,0,2.869a5.491,5.491,0,0,1-4.969,0c-1.372-.792-1.372-2.077,0-2.869A5.492,5.492,0,0,1,2346.966,431.784Z" transform="translate(-2257.606 -384.841)" fill="url(#linear-gradient)"/>
        <path id="Trazado_124258" data-name="Trazado 124258" d="M2.387,0C3.7,0,4.773.617,4.773,1.378S3.7,2.756,2.387,2.756,0,2.139,0,1.378,1.069,0,2.387,0Z" transform="translate(84.489 47.108)" fill="#00223d"/>
        <path id="Trazado_124141" data-name="Trazado 124141" d="M2342,432.5a5.492,5.492,0,0,1,4.969,0,1.986,1.986,0,0,1,.973,1.078c.194-.631-.129-1.3-.973-1.791a5.492,5.492,0,0,0-4.969,0c-.844.487-1.167,1.161-.972,1.791A1.988,1.988,0,0,1,2342,432.5Z" transform="translate(-2257.614 -384.841)" fill="#21587b"/>
      </g>
      <g id="Grupo_57163" data-name="Grupo 57163" transform="translate(117.99 137.785)">
        <g id="Grupo_57161" data-name="Grupo 57161">
          <path id="Trazado_124142" data-name="Trazado 124142" d="M2084.5,775.992l1.974-1.135c.981-.5.743-.665-.234-4.7a2.243,2.243,0,0,0-1.409-1.642c-1.507-.3-1.758-.171-2.556-1.863a1.437,1.437,0,0,1-.009-1.538l.679-.687c.363-.367.252-1.239-.247-1.946-3.486-4.936-2.654-4.1-5.09-2.863a2.73,2.73,0,0,1-.868-.668c-.945-.876-.794-1.81-.794-3.02a2.47,2.47,0,0,0-1.118-1.936c-3.182-1.838-3-1.914-3.741-1.419-.017.009-.435.248-.454.261,0,0-1.844,1.061-1.946,1.115l-.671-1.454c-.363-.786-1.062-1.318-1.562-1.187-1.982.518-2.211.522-2.6.812-.015.008-5.324,3.058-5.338,3.068-.511.288-.438.979-.231,1.5-.022.016-2.8,1.614-2.8,1.614-.48.285-.284-.015-1.255,2.874a2.243,2.243,0,0,0,.718,2.041c1.02.971,1.685,1.446,1.838,2.454-.016.009-1.73.994-1.747,1-1.254.639-1.024.573.007,4.832a2.243,2.243,0,0,0,1.409,1.642c1.509.3,1.757.171,2.556,1.863a1.436,1.436,0,0,1,.009,1.538l-.678.687c-.363.367-.252,1.239.247,1.946,3.491,4.945,2.647,4.093,5.09,2.863a2.721,2.721,0,0,1,.867.668c.946.876.794,1.811.794,3.019a2.471,2.471,0,0,0,1.118,1.936l2.641,1.525c.718.414.707.015,3.5-1.482l.671,1.454c.363.786,1.062,1.318,1.562,1.187,1.76-.46,2.236-.5,2.887-.975l5.111-2.938c.363-.2.437-.807.174-1.47.023-.016,2.8-1.614,2.8-1.614.479-.285.281.025,1.255-2.874a2.243,2.243,0,0,0-.718-2.041C2085.329,777.483,2084.656,777,2084.5,775.992Zm-17.428-11.347c4.127,1.87,7.587,7.884,7.135,12.377C2070.092,775.155,2066.62,769.151,2067.073,764.644Z" transform="translate(-2054.168 -751.288)" fill="#00223d"/>
          <path id="Trazado_124143" data-name="Trazado 124143" d="M2080.6,793.885l-1.088-1.036a2.489,2.489,0,0,1-.773-1.7q0-.095,0-.191t0-.193c-.01-.575.3-.9.773-.807l1.088.22c.587.119.909-.424.718-1.212l-.816-3.372a2.242,2.242,0,0,0-1.409-1.642l-1.1-.222a2.071,2.071,0,0,1-1.26-1.213q-.1-.215-.2-.428a1.437,1.437,0,0,1-.009-1.538l.679-.687c.363-.367.252-1.239-.247-1.946l-2.137-3.027c-.5-.707-1.2-.983-1.562-.616l-.674.682c-.287.291-.8.184-1.261-.263q-.161-.156-.324-.307a2.5,2.5,0,0,1-.794-1.694v-1.325a2.471,2.471,0,0,0-1.118-1.936l-2.641-1.525c-.617-.357-1.118-.067-1.118.646v1.325c0,.569-.322.885-.794.778-.109-.025-.216-.047-.324-.068a2.048,2.048,0,0,1-1.261-1.193l-.673-1.459c-.363-.786-1.062-1.318-1.562-1.187l-2.137.559c-.5.131-.61.874-.247,1.661l.678,1.471a1.41,1.41,0,0,1-.009,1.527q-.1.1-.2.2c-.282.3-.793.2-1.26-.243l-1.1-1.047c-.587-.559-1.218-.552-1.409.016l-.816,2.429a2.243,2.243,0,0,0,.718,2.041l1.089,1.036a2.488,2.488,0,0,1,.772,1.7c0,.063,0,.127,0,.191s0,.128,0,.193c.01.575-.3.9-.772.807l-1.089-.22c-.587-.119-.908.424-.718,1.212l.816,3.372a2.243,2.243,0,0,0,1.409,1.642l1.1.222a2.071,2.071,0,0,1,1.26,1.213q.1.215.2.428a1.436,1.436,0,0,1,.009,1.538l-.678.687c-.363.367-.253,1.239.247,1.946l2.137,3.026c.5.708,1.2.984,1.562.616l.673-.682c.287-.291.8-.184,1.261.263.108.1.216.206.324.307a2.5,2.5,0,0,1,.794,1.694v1.325a2.472,2.472,0,0,0,1.118,1.936l2.641,1.525c.618.356,1.118.067,1.118-.646v-1.325c0-.569.323-.885.794-.777q.163.037.324.068a2.046,2.046,0,0,1,1.261,1.193l.674,1.459c.363.786,1.062,1.318,1.562,1.187l2.137-.559c.5-.131.611-.874.247-1.661l-.679-1.471a1.411,1.411,0,0,1,.009-1.527q.1-.1.2-.2c.282-.3.793-.2,1.26.243l1.1,1.046c.587.559,1.218.553,1.409-.015l.816-2.429A2.242,2.242,0,0,0,2080.6,793.885Zm-12.832-1.784a14.312,14.312,0,0,1-6.475-11.215c0-4.129,2.9-5.8,6.475-3.738a14.313,14.313,0,0,1,6.475,11.215C2074.248,792.492,2071.349,794.166,2067.773,792.1Z" transform="translate(-2054.168 -763.431)" fill="#deebff"/>
        </g>
        <g id="Grupo_57162" data-name="Grupo 57162" transform="translate(29.285 26.114)">
          <path id="Trazado_124144" data-name="Trazado 124144" d="M2213.834,891.924l1.466-.843c.728-.372.551-.494-.174-3.49a1.666,1.666,0,0,0-1.046-1.219c-1.119-.226-1.3-.127-1.9-1.383a1.067,1.067,0,0,1-.007-1.142l.5-.51c.27-.273.187-.919-.184-1.445-2.587-3.665-1.969-3.043-3.779-2.125a2.026,2.026,0,0,1-.644-.5c-.7-.65-.589-1.344-.589-2.242a1.835,1.835,0,0,0-.83-1.438c-2.362-1.364-2.225-1.421-2.777-1.054-.013.006-.323.184-.337.194s-1.369.788-1.444.828l-.5-1.079c-.27-.584-.789-.978-1.159-.881-1.472.385-1.642.387-1.933.6-.011.006-3.952,2.27-3.963,2.278-.38.214-.325.727-.171,1.115-.017.012-2.082,1.2-2.082,1.2-.356.212-.211-.011-.932,2.134a1.666,1.666,0,0,0,.533,1.515c.757.721,1.25,1.073,1.365,1.822-.012.007-1.285.738-1.3.746-.931.474-.76.425.005,3.587a1.664,1.664,0,0,0,1.046,1.219c1.12.227,1.3.127,1.9,1.383a1.067,1.067,0,0,1,.007,1.142l-.5.51c-.27.272-.187.919.183,1.445,2.592,3.671,1.965,3.039,3.779,2.125a2.026,2.026,0,0,1,.644.5c.7.65.589,1.345.589,2.242a1.835,1.835,0,0,0,.83,1.438l1.961,1.132c.533.308.525.011,2.6-1.1l.5,1.079c.27.584.788.978,1.159.881a5.819,5.819,0,0,0,2.143-.724l3.794-2.181c.269-.151.324-.6.129-1.091.017-.012,2.082-1.2,2.082-1.2.356-.212.209.019.932-2.134a1.665,1.665,0,0,0-.533-1.515C2214.448,893.031,2213.948,892.674,2213.834,891.924ZM2200.9,883.5c3.063,1.389,5.633,5.853,5.3,9.188C2203.136,891.3,2200.559,886.845,2200.9,883.5Z" transform="translate(-2191.315 -873.584)" fill="#00223d"/>
          <path id="Trazado_124145" data-name="Trazado 124145" d="M2210.94,905.208l-.808-.77a1.847,1.847,0,0,1-.574-1.261c0-.047,0-.094,0-.142s0-.1,0-.143c-.007-.427.226-.669.574-.6l.808.163c.436.088.675-.315.533-.9l-.606-2.5a1.664,1.664,0,0,0-1.046-1.219l-.815-.165a1.536,1.536,0,0,1-.936-.9q-.072-.159-.146-.318a1.066,1.066,0,0,1-.007-1.142l.5-.51c.269-.273.187-.919-.184-1.445l-1.586-2.247c-.371-.525-.89-.73-1.159-.457l-.5.506c-.213.216-.592.137-.936-.2q-.119-.116-.24-.228a1.857,1.857,0,0,1-.589-1.258v-.984a1.834,1.834,0,0,0-.83-1.437l-1.961-1.132c-.458-.265-.83-.05-.83.479v.984c0,.422-.239.657-.589.577-.081-.019-.161-.035-.24-.05a1.519,1.519,0,0,1-.936-.886l-.5-1.083c-.27-.584-.789-.978-1.159-.881l-1.586.415c-.371.1-.453.649-.183,1.233l.5,1.092a1.048,1.048,0,0,1-.007,1.134q-.075.072-.146.148c-.209.224-.589.15-.936-.18l-.816-.777c-.436-.415-.9-.41-1.046.012l-.606,1.8a1.665,1.665,0,0,0,.533,1.515l.808.77a1.849,1.849,0,0,1,.574,1.261c0,.047,0,.094,0,.142s0,.1,0,.143c.007.427-.226.669-.574.6l-.808-.163c-.436-.088-.675.315-.533.9l.606,2.5a1.664,1.664,0,0,0,1.046,1.219l.816.165a1.538,1.538,0,0,1,.936.9q.071.159.146.318a1.066,1.066,0,0,1,.007,1.142l-.5.51c-.27.273-.187.919.183,1.444l1.586,2.247c.371.525.89.73,1.159.457l.5-.506c.213-.216.593-.137.936.2.079.077.16.153.24.228a1.858,1.858,0,0,1,.589,1.258v.984a1.834,1.834,0,0,0,.83,1.438l1.961,1.132c.458.265.83.05.83-.479v-.984c0-.422.239-.657.589-.577.081.018.161.035.24.05a1.518,1.518,0,0,1,.936.886l.5,1.083c.269.584.788.978,1.159.881l1.586-.415c.371-.1.453-.649.184-1.233l-.5-1.092a1.047,1.047,0,0,1,.007-1.134c.05-.048.1-.1.146-.149.209-.223.589-.15.936.18l.815.777c.436.415.9.41,1.046-.012l.606-1.8A1.663,1.663,0,0,0,2210.94,905.208Zm-9.526-1.325a10.626,10.626,0,0,1-4.807-8.326c0-3.066,2.152-4.308,4.807-2.775a10.626,10.626,0,0,1,4.807,8.326C2206.222,904.173,2204.069,905.416,2201.415,903.883Z" transform="translate(-2191.315 -882.599)" fill="#deebff"/>
        </g>
      </g>
      <g id="Grupo_57168" data-name="Grupo 57168" transform="translate(51.855 241.47)">
        <g id="Grupo_57167" data-name="Grupo 57167">
          <path id="Trazado_124147" data-name="Trazado 124147" d="M1744.446,1283.767v5.6l2.643,3.553,1.774-3.7Z" transform="translate(-1744.446 -1273.753)" fill="#b8d4f5"/>
          <path id="Trazado_124148" data-name="Trazado 124148" d="M1821.16,1239.527v5.539l3.628,2.3,8.477-1.03-5.774-4.546Z" transform="translate(-1804.78 -1238.96)" fill="#b8d4f5"/>
          <path id="Trazado_124149" data-name="Trazado 124149" d="M2316.765,1523.554v5.536l-1.719-.284-3.141-5.765,1.146-1.368Z" transform="translate(-2190.736 -1460.86)" fill="#b8d4f5"/>
          <path id="Trazado_124150" data-name="Trazado 124150" d="M2215.922,1564.4v5.536l-6.2-1.136-5.1-6.209.517-1.4Z" transform="translate(-2106.361 -1491.935)" fill="#b8d4f5"/>
          <path id="Trazado_124151" data-name="Trazado 124151" d="M1744.97,1272.308a1.49,1.49,0,0,1,1.085.1l7.286,4.207a11.258,11.258,0,0,0,10.174.2l2.611-1.508,2.611-1.508c2.713-1.566,2.555-4.2-.351-5.874l-7.286-4.207c-.286-.165-.358-.417-.178-.626a1.211,1.211,0,0,1,.971-.3,100.356,100.356,0,0,1,10.217,1.389,15.216,15.216,0,0,1,7.18,3.169c2.007,1.765,4.1,4.372,3.661,7.322l.016,3.036,61.669,35.6,5.316.009a28.266,28.266,0,0,1,2.828.005h0a32.793,32.793,0,0,1,9.795,2.109,10.322,10.322,0,0,1,5.49,4.145,23.841,23.841,0,0,1,2.406,5.9c.054.232-.153.457-.516.561a1.492,1.492,0,0,1-1.085-.1l-7.286-4.207a11.258,11.258,0,0,0-10.174-.2l-2.611,1.508-2.611,1.507c-2.712,1.566-2.555,4.2.351,5.874l7.286,4.207c.286.165.358.417.178.626a1.209,1.209,0,0,1-.971.3,100.3,100.3,0,0,1-10.217-1.389,15.212,15.212,0,0,1-7.18-3.17c-2.007-1.766-4.1-4.372-3.662-7.322l-.016-3.036-61.669-35.6-5.316-.01a28.236,28.236,0,0,1-2.828,0h0a32.8,32.8,0,0,1-9.795-2.109,10.32,10.32,0,0,1-5.49-4.146,23.834,23.834,0,0,1-2.406-5.9C1744.4,1272.637,1744.607,1272.412,1744.97,1272.308Z" transform="translate(-1744.446 -1257.26)" fill="#00223d"/>
          <g id="Grupo_57166" data-name="Grupo 57166">
            <path id="Trazado_124152" data-name="Trazado 124152" d="M1926.692,1349.407l12.676-7.318-66.228-38.237-12.676,7.318Z" transform="translate(-1835.691 -1289.549)" fill="url(#linear-gradient)"/>
            <g id="Grupo_57164" data-name="Grupo 57164">
              <path id="Trazado_124153" data-name="Trazado 124153" d="M1838.119,1323.706l-10.787-.019,8.122-4.689Z" transform="translate(-1809.634 -1301.461)" fill="#cce3f5"/>
              <path id="Trazado_124154" data-name="Trazado 124154" d="M1894.852,1290.951l-.033-6.228-8.122,4.689Z" transform="translate(-1856.322 -1274.505)" fill="#cce3f5"/>
              <path id="Trazado_124155" data-name="Trazado 124155" d="M1746.86,1252.841a23.841,23.841,0,0,1-2.406-5.9c-.054-.232.153-.457.516-.561a1.492,1.492,0,0,1,1.085.1l7.286,4.207a11.259,11.259,0,0,0,10.174.2l2.611-1.508,2.611-1.507c2.713-1.566,2.555-4.2-.351-5.874l-7.286-4.207c-.286-.165-.358-.417-.178-.626a1.208,1.208,0,0,1,.971-.3,100.363,100.363,0,0,1,10.217,1.389,15.216,15.216,0,0,1,7.18,3.17c3.464,3.047,7.2,8.6-2.323,14.1-.033.019-.068.037-.1.056s-.063.04-.1.059c-9.52,5.5-19.14,3.341-24.418,1.341A10.322,10.322,0,0,1,1746.86,1252.841Z" transform="translate(-1744.446 -1236.869)" fill="url(#linear-gradient)"/>
            </g>
            <g id="Grupo_57165" data-name="Grupo 57165" transform="translate(87.472 50.502)">
              <path id="Trazado_124156" data-name="Trazado 124156" d="M2201.3,1473.476l10.787.019-8.122,4.689Z" transform="translate(-2191.222 -1473.455)" fill="#cce3f5"/>
              <path id="Trazado_124157" data-name="Trazado 124157" d="M2154.261,1500.635l.033,6.228,8.122-4.689Z" transform="translate(-2154.226 -1494.815)" fill="#cce3f5"/>
              <path id="Trazado_124158" data-name="Trazado 124158" d="M2190.246,1479.673a23.842,23.842,0,0,1,2.406,5.9c.054.231-.153.457-.516.561a1.49,1.49,0,0,1-1.085-.1l-7.286-4.207a11.259,11.259,0,0,0-10.174-.2l-2.611,1.507-2.611,1.508c-2.712,1.566-2.555,4.2.351,5.874l7.286,4.207c.286.165.358.417.178.626a1.209,1.209,0,0,1-.971.3,100.329,100.329,0,0,1-10.217-1.389,15.218,15.218,0,0,1-7.18-3.169c-3.464-3.047-7.2-8.6,2.323-14.1.033-.02.068-.037.1-.056s.063-.04.1-.059c9.52-5.5,19.14-3.341,24.417-1.341A10.322,10.322,0,0,1,2190.246,1479.673Z" transform="translate(-2154.094 -1473.379)" fill="url(#linear-gradient)"/>
            </g>
          </g>
        </g>
      </g>
      <g id="Grupo_57179" data-name="Grupo 57179" transform="translate(35.89)">
        <g id="Grupo_57178" data-name="Grupo 57178">
          <path id="Trazado_124160" data-name="Trazado 124160" d="M1733.344,202.461,1713.322,190.9c-4.321-2.495-7.824-.6-7.824,4.225v16.628c0,4.828,3.5,10.765,7.825,13.26l19.13,11.045-1.085,5.447,7.212-4.156h0c1.589-.682,2.589-2.422,2.589-5V215.721C1741.168,210.893,1737.665,204.956,1733.344,202.461Z" transform="translate(-1697.849 -171.911)" fill="#c49222"/>
          <path id="Trazado_124161" data-name="Trazado 124161" d="M1820.827,274.587l1.2,24.477,1.123.649-.875,4.394.045.906,6.957-4.009h0c1.59-.682,2.589-2.422,2.589-5V279.374a15.987,15.987,0,0,0-3.017-8.637Z" transform="translate(-1788.552 -235.564)" fill="#f7a60f"/>
          <path id="Trazado_124162" data-name="Trazado 124162" d="M1733.344,202.461,1713.322,190.9c-4.321-2.495-7.824-.6-7.824,4.225v2.235l22.169,18.347,11.637-6.724A16.517,16.517,0,0,0,1733.344,202.461Z" transform="translate(-1697.849 -171.911)" fill="#ffd96e"/>
          <path id="Trazado_124163" data-name="Trazado 124163" d="M1687.648,193.007l-7.311,4.169.919,3.278,4.052,1.174.4-.1v-3.884Z" transform="translate(-1678.061 -174.431)" fill="#ffde55"/>
          <g id="Grupo_57173" data-name="Grupo 57173" transform="translate(0 22.27)">
            <path id="Trazado_124164" data-name="Trazado 124164" d="M1705.347,252.855c0,4.829-3.5,6.72-7.824,4.225L1677.5,245.521c-4.322-2.495-7.824-8.431-7.825-13.26V215.634c0-4.828,3.5-6.72,7.824-4.225l20.021,11.559c4.321,2.5,7.824,8.432,7.824,13.26Z" transform="translate(-1669.677 -210.309)" fill="#fc3"/>
            <path id="Trazado_124165" data-name="Trazado 124165" d="M1683.858,251.746c-3.363-1.941-6.1-6.549-6.1-10.27V224.848c0-3.722,2.736-5.17,6.1-3.228l20.021,11.559c3.363,1.941,6.1,6.548,6.1,10.27v16.628c0,3.722-2.736,5.17-6.1,3.229Z" transform="translate(-1676.034 -218.526)" fill="#fdd248"/>
            <g id="Grupo_57169" data-name="Grupo 57169" transform="translate(2.535 4.101)">
              <path id="Trazado_124166" data-name="Trazado 124166" d="M1682.7,241.1a2.543,2.543,0,0,1-1.151-1.993v-4.2c0-4.808,3.387-6.763,7.551-4.36a2.544,2.544,0,0,1,1.151,1.993c0,.734-.515,1.031-1.151.664-2.895-1.671-5.25-.312-5.25,3.031v4.2C1683.849,241.168,1683.334,241.465,1682.7,241.1Z" transform="translate(-1681.548 -229.516)" fill="#fff"/>
            </g>
            <g id="Grupo_57170" data-name="Grupo 57170" transform="translate(2.535 19.336)">
              <path id="Trazado_124167" data-name="Trazado 124167" d="M1682.7,307.13a2.544,2.544,0,0,1-1.151-1.993v-3.454c0-.734.515-1.031,1.151-.664a2.544,2.544,0,0,1,1.151,1.993v3.454C1683.849,307.2,1683.334,307.5,1682.7,307.13Z" transform="translate(-1681.548 -300.861)" fill="#fff"/>
            </g>
            <g id="Grupo_57171" data-name="Grupo 57171" transform="translate(25.904 37.38)">
              <path id="Trazado_124168" data-name="Trazado 124168" d="M1793.663,392.148l-1.523-.88a2.545,2.545,0,0,1-1.151-1.993c0-.734.516-1.031,1.151-.665l1.523.88c1.254.724,2.274.135,2.274-1.313v-1.987c0-.734.515-1.031,1.151-.664a2.544,2.544,0,0,1,1.151,1.993v1.987C1798.238,392.419,1796.186,393.6,1793.663,392.148Z" transform="translate(-1790.989 -385.37)" fill="#fff"/>
            </g>
            <path id="Trazado_124169" data-name="Trazado 124169" d="M1744.509,309.63l-2.211-6.622c.688-.028,1.157-.595,1.157-1.559a4.833,4.833,0,0,0-2.186-3.787c-1.208-.7-2.186-.132-2.186,1.262a4.81,4.81,0,0,0,1.157,2.9l-2.211,4.069Z" transform="translate(-1723.434 -278.775)" fill="#d8a527"/>
            <g id="Grupo_57172" data-name="Grupo 57172" transform="translate(15.649 18.589)">
              <path id="Trazado_124170" data-name="Trazado 124170" d="M1745.149,298.26a4.887,4.887,0,0,1,2.17,3.48,2.632,2.632,0,0,0,.017-.291,4.833,4.833,0,0,0-2.186-3.787c-1.207-.7-2.186-.132-2.186,1.262,0,.1.006.206.016.31C1743.107,298.054,1744.029,297.613,1745.149,298.26Z" transform="translate(-1742.963 -297.364)" fill="#fff"/>
            </g>
            <path id="Trazado_124171" data-name="Trazado 124171" d="M1738.15,336.251l6.214,3.588.145.375-6.479-3.741Z" transform="translate(-1723.434 -309.359)" fill="#c49222"/>
          </g>
          <g id="Grupo_57177" data-name="Grupo 57177" transform="translate(5.932)">
            <g id="Grupo_57174" data-name="Grupo 57174" transform="translate(3.023 0.029)">
              <path id="Trazado_124172" data-name="Trazado 124172" d="M1715.064,127.638l-3.452-1.993V113.333c0-6.41,4.517-9.018,10.068-5.813l8.17,4.717c5.552,3.205,10.068,11.028,10.068,17.438v11.858l-3.452-1.993V127.683a14.645,14.645,0,0,0-6.616-11.459l-8.17-4.717c-3.648-2.106-6.616-.393-6.616,3.82Z" transform="translate(-1711.612 -106.15)" fill="#00223d"/>
            </g>
            <path id="Trazado_124173" data-name="Trazado 124173" d="M1720.047,107.412l8.17,4.717c5.552,3.205,10.068,11.028,10.068,17.438v11.858l-3.023,1.738,0-3.482-.431-.249-.875-11.608c0-4.212-2.657-7.563-5.742-11.71l-8.17-4.717c-2.275-1.314-4.285-1.141-5.477.2l-2.982-3.738-2.053.834C1712.7,106.405,1715.817,104.679,1720.047,107.412Z" transform="translate(-1706.957 -106.012)" fill="url(#linear-gradient)"/>
            <g id="Grupo_57175" data-name="Grupo 57175" transform="translate(0 1.768)">
              <path id="Trazado_124174" data-name="Trazado 124174" d="M1700.908,135.779l-3.452-1.993V121.474c0-6.41,4.517-9.018,10.068-5.813l8.17,4.717c5.551,3.205,10.068,11.028,10.068,17.438v11.858l-3.452-1.993V135.823a14.645,14.645,0,0,0-6.616-11.459l-8.17-4.717c-3.648-2.106-6.616-.392-6.616,3.82Z" transform="translate(-1697.456 -114.29)" fill="url(#linear-gradient)"/>
            </g>
            <g id="Grupo_57176" data-name="Grupo 57176" transform="translate(1.151 3.253)">
              <path id="Trazado_124175" data-name="Trazado 124175" d="M1704,140.585l-1.151-.664V127.609c0-5.678,4-7.987,8.918-5.148l8.17,4.717c4.917,2.839,8.917,9.768,8.917,15.445v11.858l-1.15-.664V141.958a17.191,17.191,0,0,0-7.767-13.452l-8.17-4.717c-4.283-2.473-7.767-.461-7.767,4.484Z" transform="translate(-1702.845 -121.246)" fill="#00223d"/>
            </g>
            <path id="Trazado_124176" data-name="Trazado 124176" d="M1713.622,194.928l3.023-1.738v-3.138l-3.023-.553Z" transform="translate(-1710.17 -171.671)" fill="#00223d"/>
          </g>
        </g>
      </g>
      <g id="Grupo_57202" data-name="Grupo 57202" transform="translate(101.73 55.984)">
        <path id="Trazado_124194" data-name="Trazado 124194" d="M2066.541,416.628c-.01-.12-.027-.241-.049-.362a4.725,4.725,0,0,0-.136-.578,5.806,5.806,0,0,0-.377-.934c-.083-.164-.175-.323-.272-.479-.083-.134-.17-.265-.262-.391a5.736,5.736,0,0,0-.427-.514,4.339,4.339,0,0,0-.979-.793L2038.615,397.9l-50.847-29.357a1.787,1.787,0,0,0-1.742-.193l0,0-.027.016-.014.008-4,2.092,3.266,1.411v6.91h0V420.46a5.56,5.56,0,0,0,2.515,4.356l74.089,42.775.019,3.712,3.942-2.276h0l.01-.006h0a1.773,1.773,0,0,0,.726-1.621V416.932C2066.554,416.832,2066.549,416.731,2066.541,416.628Z" transform="translate(-1981.139 -368.199)" fill="#00223d"/>
        <g id="Grupo_57201" data-name="Grupo 57201" transform="translate(0 2.151)">
          <path id="Trazado_124195" data-name="Trazado 124195" d="M1978.019,430.613a5.568,5.568,0,0,0,2.519,4.363l76.386,44.1c1.391.8,2.519.152,2.519-1.454V427.08a5.567,5.567,0,0,0-2.519-4.363l-76.386-44.1c-1.391-.8-2.519-.152-2.519,1.454Z" transform="translate(-1978.019 -378.272)" fill="#deebff"/>
          <path id="Trazado_124196" data-name="Trazado 124196" d="M2186.525,609.252l-43.68-25.219V547.217l43.68,25.219Z" transform="translate(-2107.65 -511.142)" fill="#00223d"/>
          <path id="Trazado_124197" data-name="Trazado 124197" d="M2056.924,422.718l-76.386-44.1c-1.391-.8-2.519-.152-2.519,1.454v8.8l81.423,47.01v-8.8A5.567,5.567,0,0,0,2056.924,422.718Z" transform="translate(-1978.019 -378.272)" fill="#21587b"/>
          <path id="Trazado_124198" data-name="Trazado 124198" d="M2019.337,512.725l-30.289-17.488V458.422l30.289,17.488Z" transform="translate(-1986.693 -441.308)" fill="#00223d"/>
          <ellipse id="Elipse_4088" data-name="Elipse 4088" cx="1.562" cy="2.705" rx="1.562" ry="2.705" transform="matrix(0.866, -0.5, 0.5, 0.866, 62.46, 40.771)" fill="url(#linear-gradient)"/>
          <ellipse id="Elipse_4089" data-name="Elipse 4089" cx="1.562" cy="2.705" rx="1.562" ry="2.705" transform="translate(68.199 44.085) rotate(-30)" fill="url(#linear-gradient)"/>
          <ellipse id="Elipse_4090" data-name="Elipse 4090" cx="1.562" cy="2.705" rx="1.562" ry="2.705" transform="translate(73.938 47.398) rotate(-30)" fill="url(#linear-gradient)"/>
          <path id="Trazado_124199" data-name="Trazado 124199" d="M2195.936,607.665,2159.27,586.5v-2.209l36.666,21.169Z" transform="translate(-2120.568 -540.297)" fill="url(#linear-gradient)"/>
          <path id="Trazado_124200" data-name="Trazado 124200" d="M2195.936,630.079,2159.27,608.91V606.7l36.666,21.169Z" transform="translate(-2120.568 -557.925)" fill="url(#linear-gradient)"/>
          <path id="Trazado_124201" data-name="Trazado 124201" d="M2195.936,652.493l-36.666-21.169v-2.209l36.666,21.169Z" transform="translate(-2120.568 -575.553)" fill="url(#linear-gradient)"/>
          <path id="Trazado_124202" data-name="Trazado 124202" d="M2244.084,700.981l-23.594-13.622V685.15l23.594,13.622Z" transform="translate(-2168.716 -619.623)" fill="url(#linear-gradient)"/>
          <path id="Trazado_124203" data-name="Trazado 124203" d="M2244.084,723.4l-23.594-13.622v-2.209l23.594,13.622Z" transform="translate(-2168.716 -637.251)" fill="url(#linear-gradient)"/>
          <path id="Trazado_124204" data-name="Trazado 124204" d="M2244.084,745.809l-23.594-13.622v-2.209l23.594,13.622Z" transform="translate(-2168.716 -654.879)" fill="url(#linear-gradient)"/>
          <path id="Trazado_124205" data-name="Trazado 124205" d="M2027.573,581.151l-23.594-13.622V565.32l23.594,13.622Z" transform="translate(-1998.436 -525.38)" fill="url(#linear-gradient)"/>
          <path id="Trazado_124206" data-name="Trazado 124206" d="M2027.573,603.565l-23.594-13.622v-2.209l23.594,13.622Z" transform="translate(-1998.436 -543.008)" fill="url(#linear-gradient)"/>
          <path id="Trazado_124207" data-name="Trazado 124207" d="M2027.573,625.979l-23.594-13.622v-2.209l23.594,13.622Z" transform="translate(-1998.436 -560.636)" fill="url(#linear-gradient)"/>
          <path id="Trazado_124208" data-name="Trazado 124208" d="M2172.241,666.363l-11.478-6.627V647.218l11.478,6.627Z" transform="translate(-2121.742 -589.791)" fill="url(#linear-gradient)"/>
          <path id="Trazado_124209" data-name="Trazado 124209" d="M2027.573,512.148l-23.594-13.622V486.009l23.594,13.622Z" transform="translate(-1998.436 -463.004)" fill="url(#linear-gradient)"/>
        </g>
      </g>
      <g id="Grupo_57221" data-name="Grupo 57221" transform="translate(101.73 167.984)">
        <path id="Trazado_124194-2" data-name="Trazado 124194" d="M2066.541,416.628c-.01-.12-.027-.241-.049-.362a4.725,4.725,0,0,0-.136-.578,5.806,5.806,0,0,0-.377-.934c-.083-.164-.175-.323-.272-.479-.083-.134-.17-.265-.262-.391a5.736,5.736,0,0,0-.427-.514,4.339,4.339,0,0,0-.979-.793L2038.615,397.9l-50.847-29.357a1.787,1.787,0,0,0-1.742-.193l0,0-.027.016-.014.008-4,2.092,3.266,1.411v6.91h0V420.46a5.56,5.56,0,0,0,2.515,4.356l74.089,42.775.019,3.712,3.942-2.276h0l.01-.006h0a1.773,1.773,0,0,0,.726-1.621V416.932C2066.554,416.832,2066.549,416.731,2066.541,416.628Z" transform="translate(-1981.139 -368.199)" fill="#00223d"/>
        <g id="Grupo_57201-2" data-name="Grupo 57201" transform="translate(0 2.151)">
          <path id="Trazado_124195-2" data-name="Trazado 124195" d="M1978.019,430.613a5.568,5.568,0,0,0,2.519,4.363l76.386,44.1c1.391.8,2.519.152,2.519-1.454V427.08a5.567,5.567,0,0,0-2.519-4.363l-76.386-44.1c-1.391-.8-2.519-.152-2.519,1.454Z" transform="translate(-1978.019 -378.272)" fill="#deebff"/>
          <path id="Trazado_124196-2" data-name="Trazado 124196" d="M2186.525,609.252l-43.68-25.219V547.217l43.68,25.219Z" transform="translate(-2107.65 -511.142)" fill="#00223d"/>
          <path id="Trazado_124197-2" data-name="Trazado 124197" d="M2056.924,422.718l-76.386-44.1c-1.391-.8-2.519-.152-2.519,1.454v8.8l81.423,47.01v-8.8A5.567,5.567,0,0,0,2056.924,422.718Z" transform="translate(-1978.019 -378.272)" fill="#21587b"/>
          <path id="Trazado_124198-2" data-name="Trazado 124198" d="M2019.337,512.725l-30.289-17.488V458.422l30.289,17.488Z" transform="translate(-1986.693 -441.308)" fill="#00223d"/>
          <ellipse id="Elipse_4088-2" data-name="Elipse 4088" cx="1.562" cy="2.705" rx="1.562" ry="2.705" transform="matrix(0.866, -0.5, 0.5, 0.866, 62.46, 40.771)" fill="url(#linear-gradient)"/>
          <ellipse id="Elipse_4089-2" data-name="Elipse 4089" cx="1.562" cy="2.705" rx="1.562" ry="2.705" transform="translate(68.199 44.085) rotate(-30)" fill="url(#linear-gradient)"/>
          <ellipse id="Elipse_4090-2" data-name="Elipse 4090" cx="1.562" cy="2.705" rx="1.562" ry="2.705" transform="translate(73.938 47.398) rotate(-30)" fill="url(#linear-gradient)"/>
          <path id="Trazado_124199-2" data-name="Trazado 124199" d="M2195.936,607.665,2159.27,586.5v-2.209l36.666,21.169Z" transform="translate(-2120.568 -540.297)" fill="url(#linear-gradient)"/>
          <path id="Trazado_124200-2" data-name="Trazado 124200" d="M2195.936,630.079,2159.27,608.91V606.7l36.666,21.169Z" transform="translate(-2120.568 -557.925)" fill="url(#linear-gradient)"/>
          <path id="Trazado_124201-2" data-name="Trazado 124201" d="M2195.936,652.493l-36.666-21.169v-2.209l36.666,21.169Z" transform="translate(-2120.568 -575.553)" fill="url(#linear-gradient)"/>
          <path id="Trazado_124202-2" data-name="Trazado 124202" d="M2244.084,700.981l-23.594-13.622V685.15l23.594,13.622Z" transform="translate(-2168.716 -619.623)" fill="url(#linear-gradient)"/>
          <path id="Trazado_124203-2" data-name="Trazado 124203" d="M2244.084,723.4l-23.594-13.622v-2.209l23.594,13.622Z" transform="translate(-2168.716 -637.251)" fill="url(#linear-gradient)"/>
          <path id="Trazado_124204-2" data-name="Trazado 124204" d="M2244.084,745.809l-23.594-13.622v-2.209l23.594,13.622Z" transform="translate(-2168.716 -654.879)" fill="url(#linear-gradient)"/>
          <path id="Trazado_124205-2" data-name="Trazado 124205" d="M2027.573,581.151l-23.594-13.622V565.32l23.594,13.622Z" transform="translate(-1998.436 -525.38)" fill="url(#linear-gradient)"/>
          <path id="Trazado_124206-2" data-name="Trazado 124206" d="M2027.573,603.565l-23.594-13.622v-2.209l23.594,13.622Z" transform="translate(-1998.436 -543.008)" fill="url(#linear-gradient)"/>
          <path id="Trazado_124207-2" data-name="Trazado 124207" d="M2027.573,625.979l-23.594-13.622v-2.209l23.594,13.622Z" transform="translate(-1998.436 -560.636)" fill="url(#linear-gradient)"/>
          <path id="Trazado_124208-2" data-name="Trazado 124208" d="M2172.241,666.363l-11.478-6.627V647.218l11.478,6.627Z" transform="translate(-2121.742 -589.791)" fill="url(#linear-gradient)"/>
          <path id="Trazado_124209-2" data-name="Trazado 124209" d="M2027.573,512.148l-23.594-13.622V486.009l23.594,13.622Z" transform="translate(-1998.436 -463.004)" fill="url(#linear-gradient)"/>
        </g>
      </g>
    </g>
    <g id="Grupo_57219" data-name="Grupo 57219" transform="translate(1573.11 316.244)">
      <path id="Trazado_124226" data-name="Trazado 124226" d="M1887.94,1566.832a13.22,13.22,0,0,1-3.121,5.027l-2.134-.489v-1.756Z" transform="translate(-1872.827 -1465.138)" fill="#00223d"/>
      <path id="Trazado_124227" data-name="Trazado 124227" d="M1887.94,1562.646a.844.844,0,0,0-.072-.839.64.64,0,0,0-.65-.29,32.557,32.557,0,0,0-4.148,1.877s-1.009,2.833.237,3.2C1884.526,1566.962,1885.905,1567,1887.94,1562.646Z" transform="translate(-1872.827 -1460.951)" fill="#6e40fc"/>
      <path id="Trazado_124228" data-name="Trazado 124228" d="M1921.328,1583.225a.817.817,0,0,1-.2,1.307c-.861.662-6.124,1.639-6.124,1.639l-1.44-.96.075-3.961Z" transform="translate(-1897.113 -1476.477)" fill="#00223d"/>
      <path id="Trazado_124229" data-name="Trazado 124229" d="M1913.914,1579.358c.886-.811,2.591-1.5,3.567-.646,1.71,1.49,4,1.134,4.22,2.524.136.856-3.8,1.589-6.034,1.589h-.085a1.618,1.618,0,0,1-1.6-1.559Z" transform="translate(-1897.388 -1474.174)" fill="#6e40fc"/>
      <g id="Grupo_57212" data-name="Grupo 57212" transform="translate(2.682 16.068)">
        <path id="Trazado_124230" data-name="Trazado 124230" d="M1859.44,1193.33l.289,33.953a1.378,1.378,0,0,1-2.748.152l-3.467-33.777a2.971,2.971,0,1,1,5.911-.607C1859.434,1193.144,1859.439,1193.24,1859.44,1193.33Z" transform="translate(-1852.554 -1185.14)" fill="#f89ab5"/>
        <path id="Trazado_124231" data-name="Trazado 124231" d="M1855.8,1223.81l.067.707s1.552,1.51,5.432-.344l-.016-1.319Z" transform="translate(-1854.367 -1210.676)" fill="#e6e6e6" style="mix-blend-mode: multiply;isolation: isolate"/>
        <path id="Trazado_124232" data-name="Trazado 124232" d="M1856.716,1178.053c-1.7,1.835-6.029,2.008-7.268.371l-.369-9.365a3.437,3.437,0,0,1,3.6-3.235,3.73,3.73,0,0,1,3.965,3.45Z" transform="translate(-1849.079 -1165.824)" fill="#a5c4e5"/>
        <g id="Grupo_57211" data-name="Grupo 57211" transform="translate(3.363 40.614)">
          <path id="Trazado_124233" data-name="Trazado 124233" d="M1869.987,1356.53l.129,3.643-1.433.892-1.072.474-1.044.394.571-5.424,1.3-.48Z" transform="translate(-1866.197 -1356.03)" fill="#f89ab5"/>
          <g id="Grupo_57206" data-name="Grupo 57206" transform="translate(2.766 2.913)">
            <path id="Trazado_124234" data-name="Trazado 124234" d="M1878.3,1374a.512.512,0,0,1-.45-.754,5.418,5.418,0,0,0-.013-2.931.512.512,0,0,1,.992-.251c.062.245.586,2.432-.078,3.667A.511.511,0,0,1,1878.3,1374Z" transform="translate(-1877.784 -1369.674)" fill="#f89ab5"/>
          </g>
          <g id="Grupo_57207" data-name="Grupo 57207" transform="translate(2.831 1.54)">
            <path id="Trazado_124235" data-name="Trazado 124235" d="M1879.688,1366.713a.511.511,0,0,1-.45-.267,17.524,17.524,0,0,1-1.126-2.528.512.512,0,1,1,.97-.327,16.885,16.885,0,0,0,1.055,2.365.512.512,0,0,1-.449.757Z" transform="translate(-1878.086 -1363.242)" fill="#f89ab5"/>
          </g>
          <g id="Grupo_57208" data-name="Grupo 57208" transform="translate(1.668 3.319)">
            <path id="Trazado_124236" data-name="Trazado 124236" d="M1873.151,1375.859a.511.511,0,0,1-.416-.81,5.309,5.309,0,0,0,.352-2.9.512.512,0,1,1,1.016-.125c.031.251.278,2.488-.536,3.623A.51.51,0,0,1,1873.151,1375.859Z" transform="translate(-1872.639 -1371.573)" fill="#f89ab5"/>
          </g>
          <g id="Grupo_57209" data-name="Grupo 57209" transform="translate(0.832 2.798)">
            <path id="Trazado_124237" data-name="Trazado 124237" d="M1869.235,1373.419a.512.512,0,0,1-.415-.81,5.391,5.391,0,0,0,.352-2.9.512.512,0,0,1,1.016-.125c.031.251.278,2.488-.536,3.623A.511.511,0,0,1,1869.235,1373.419Z" transform="translate(-1868.724 -1369.134)" fill="#f89ab5"/>
          </g>
          <g id="Grupo_57210" data-name="Grupo 57210" transform="translate(0 2.566)">
            <path id="Trazado_124238" data-name="Trazado 124238" d="M1865.341,1371.887a.511.511,0,0,1-.357-.878,3.876,3.876,0,0,0,.64-2.427.512.512,0,0,1,.489-.533.506.506,0,0,1,.534.489,4.766,4.766,0,0,1-.95,3.2A.508.508,0,0,1,1865.341,1371.887Z" transform="translate(-1864.829 -1368.047)" fill="#f89ab5"/>
          </g>
        </g>
      </g>
      <path id="Trazado_124239" data-name="Trazado 124239" d="M1869.006,1303.8c-.085,2.23-.2,4.461-.308,6.692s-.208,4.461-.375,6.692l-1.041,13.389-2.119,26.779a1.622,1.622,0,0,1-3.229.047l-2.908-26.7-1.435-13.353c-.231-2.226-.4-4.452-.571-6.679s-.355-4.453-.505-6.68a6.255,6.255,0,0,1,12.481-.845A6.41,6.41,0,0,1,1869.006,1303.8Z" transform="translate(-1852.234 -1253.161)" fill="#00223d"/>
      <path id="Trazado_124240" data-name="Trazado 124240" d="M1902.346,1315.649c.335,2.224.512,4.45.644,6.677.071,1.114.107,2.228.142,3.341a24.971,24.971,0,0,1-.2,3.347c-.386,4.464-.709,8.926-1.068,13.389l-2.119,26.779a1.622,1.622,0,0,1-3.229.048l-2.907-26.7c-.489-4.451-.944-8.9-1.461-13.352a25.054,25.054,0,0,1-.3-3.339c0-1.115.006-2.229.044-3.344.066-2.23.177-4.46.447-6.693a5.054,5.054,0,0,1,10.016-.148Z" transform="translate(-1880.027 -1264.207)" fill="#00223d"/>
      <path id="Trazado_124241" data-name="Trazado 124241" d="M1863.851,1327.7l-7.021-3.013s-1.3-7.644.042-9.548l8.324,4.906Z" transform="translate(-1852.048 -1267.192)" fill="#00223d"/>
      <path id="Trazado_124242" data-name="Trazado 124242" d="M1873.281,1171.57l-12.524-5.254a1.156,1.156,0,0,0-1.582.851c-.7,3.7-2.158,14.011,1.5,21.3,0,0-1.129,7.04-2.511,9.358,0,0,7.682,8.262,18.413,6.413l-3.144-17.614s4.959-5.825.684-9.94Z" transform="translate(-1853.546 -1150.073)" fill="#6e40fc"/>
      <path id="Trazado_124243" data-name="Trazado 124243" d="M1939.174,1210.39a1.377,1.377,0,0,0-1.948.007l-9.443,9.515-5.527-7.759a3.518,3.518,0,0,0-.434-.5,3.29,3.29,0,0,0-4.491,4.809l8.621,8.052.232.216c.027.026.056.05.084.074a2,2,0,0,0,2.808-.264l10.188-12.3A1.383,1.383,0,0,0,1939.174,1210.39Z" transform="translate(-1899.253 -1184.492)" fill="#f89ab5"/>
      <path id="Trazado_124244" data-name="Trazado 124244" d="M1937.381,1240.669l.429.566s2.116.464,4.432-3.158l-.709-1.113Z" transform="translate(-1915.844 -1205.705)" fill="#e6e6e6" style="mix-blend-mode: multiply;isolation: isolate"/>
      <path id="Trazado_124245" data-name="Trazado 124245" d="M1916.8,1202.486c-.478,2.457-4.062,4.887-5.978,4.15l-5.254-7.761a3.436,3.436,0,0,1,1.354-4.649,3.73,3.73,0,0,1,5.188.838Z" transform="translate(-1890.469 -1171.563)" fill="#6e40fc"/>
      <g id="Grupo_57218" data-name="Grupo 57218" transform="translate(37.928 21.271)">
        <path id="Trazado_124246" data-name="Trazado 124246" d="M2016.088,1198.334l2.75-2.492-.387-1.643-.425-1.092-.462-1.016-3.42,4.248.58,1.254Z" transform="translate(-2014.144 -1191.685)" fill="#f89ab5"/>
        <g id="Grupo_57213" data-name="Grupo 57213" transform="translate(3.244 1.362)">
          <path id="Trazado_124247" data-name="Trazado 124247" d="M2029.85,1199.955a.512.512,0,0,1-.264-.95c.5-.3,1.833-1.251,2.077-2.069a.512.512,0,1,1,.981.292c-.4,1.344-2.314,2.524-2.531,2.654A.506.506,0,0,1,2029.85,1199.955Z" transform="translate(-2029.338 -1196.57)" fill="#f89ab5"/>
        </g>
        <g id="Grupo_57214" data-name="Grupo 57214" transform="translate(2.298 3.754)">
          <path id="Trazado_124248" data-name="Trazado 124248" d="M2025.42,1209.764a.512.512,0,0,1-.229-.969,17.566,17.566,0,0,1,2.581-1,.512.512,0,1,1,.291.981,16.745,16.745,0,0,0-2.415.932A.512.512,0,0,1,2025.42,1209.764Z" transform="translate(-2024.907 -1207.775)" fill="#f89ab5"/>
        </g>
        <g id="Grupo_57215" data-name="Grupo 57215" transform="translate(3.043 0.326)">
          <path id="Trazado_124249" data-name="Trazado 124249" d="M2028.907,1195.37a.512.512,0,0,1-.317-.914,5.312,5.312,0,0,0,1.8-2.3.512.512,0,1,1,1.01.163c-.223,1.378-1.976,2.79-2.175,2.946A.51.51,0,0,1,2028.907,1195.37Z" transform="translate(-2028.394 -1191.721)" fill="#f89ab5"/>
        </g>
        <g id="Grupo_57216" data-name="Grupo 57216" transform="translate(2.083 0.107)">
          <path id="Trazado_124250" data-name="Trazado 124250" d="M2024.409,1194.339a.512.512,0,0,1-.317-.914,5.311,5.311,0,0,0,1.8-2.3.512.512,0,1,1,1.01.163c-.223,1.379-1.976,2.79-2.175,2.946A.509.509,0,0,1,2024.409,1194.339Z" transform="translate(-2023.897 -1190.691)" fill="#f89ab5"/>
        </g>
        <g id="Grupo_57217" data-name="Grupo 57217" transform="translate(1.579)">
          <path id="Trazado_124251" data-name="Trazado 124251" d="M2022.051,1193.772a.512.512,0,0,1-.348-.888,3.825,3.825,0,0,0,1.258-2.172.512.512,0,0,1,.5-.52h.009a.512.512,0,0,1,.511.5,4.767,4.767,0,0,1-1.587,2.942A.51.51,0,0,1,2022.051,1193.772Z" transform="translate(-2021.54 -1190.192)" fill="#f89ab5"/>
        </g>
      </g>
      <path id="Trazado_124252" data-name="Trazado 124252" d="M1889.664,1155.276l.813,5.782a2.378,2.378,0,0,1-3.339,1.073c-2.484-1-1.941-2.527-1.941-2.527l.25-3.463Z" transform="translate(-1874.763 -1141.461)" fill="#f89ab5"/>
      <path id="Trazado_124253" data-name="Trazado 124253" d="M1890.5,1159.9s-.655,1.336-4.664.838l.17-2.238Z" transform="translate(-1875.303 -1143.998)" fill="#db8faa"/>
      <path id="Trazado_124254" data-name="Trazado 124254" d="M1882.376,1105.047c.941,4.753,1.218,8.14,0,8.38-1.89.374-8.411.854-9.451-4.4-.735-3.714.172-8.466,2.794-8.985C1880.18,1099.163,1881.641,1101.334,1882.376,1105.047Z" transform="translate(-1864.96 -1097.869)" fill="#f89ab5"/>
      <path id="Trazado_124255" data-name="Trazado 124255" d="M1853.624,1097.015a2.143,2.143,0,0,0-1.605,2.472c.17,2.416.522,4.61,2.01,5.537a5.057,5.057,0,0,1,2.442,4.417c-.074,2.427-1.633,5.323-1.111,6.461s2.661,4.082,2.175,6.838c-.456,2.585-1.546,4.343-4.9,4.937a2.985,2.985,0,0,1-1.3-.059c-1.9-.516-7.7-2.191-9.409-3.839-1.417-1.364-3.557-2.334-3.07-6.014,0,0-2.32-3.627-2.332-5.567s.069-5.091,3.01-6.349a6.821,6.821,0,0,1-.186-6.155,10.676,10.676,0,0,1,3.362-4.66c.38-.483.589-3.759,5.872-4.456a4.937,4.937,0,0,1,2.956.858.82.82,0,0,0,1.076-.143s.348.832.071,1.237a6.083,6.083,0,0,0,.781-.382,1.121,1.121,0,0,1,.032.641S1855.731,1095.708,1853.624,1097.015Z" transform="translate(-1836.517 -1090.576)" fill="#21587b"/>
    </g>
  </g>
</svg>
